<svg xmlns="http://www.w3.org/2000/svg" width="160" height="47" viewBox="0 0 160 47" fill="none"><path id="Vector" d="M0 42.5575V30.412C0 27.2747 1.61057 25.7416 4.91389 25.7416V22.7134C4.91389 20.8092 6.00404 19.7998 8.10217 19.7998H10.655C20.1486 19.7998 25.435 24.4703 25.435 32.8782C25.435 41.3953 20.2582 45.9567 10.655 45.9567H3.45123C1.27641 45.9567 0 44.7236 0 42.5575ZM18.2751 32.8782C18.2751 28.2078 15.914 25.7416 11.4493 25.7416H7.39549C6.23412 25.7416 5.93283 26.0798 6.00952 27.1602L7.09967 39.9385H11.4493C15.9469 39.944 18.2751 37.5487 18.2751 32.8782ZM27.0894 36.3156C27.0894 34.7115 27.9549 33.9258 29.7518 33.9258H32.6004C32.6004 27.0892 36.1283 23.0517 42.094 23.0517C46.8983 23.0517 49.7853 25.5179 49.7853 29.5882C49.7853 33.9967 46.4437 36.5393 40.0671 36.5393H33.9152C33.9152 38.7436 35.8654 39.9385 39.3933 39.9385C40.6697 39.9385 41.7215 39.7912 42.8829 39.4529C43.4855 39.3056 43.7101 39.2674 43.9347 39.2674C45.6219 39.2674 46.7833 40.5769 46.7833 42.4047C46.7833 43.8997 45.8849 45.0182 44.2305 45.6184C42.7678 46.1422 40.4013 46.4804 38.2648 46.4804C31.439 46.4804 27.0894 42.5193 27.0894 36.3156ZM43.1842 30.7121C43.1842 29.0316 42.1707 28.2841 39.9192 28.2841C36.2434 28.2841 33.9152 30.4884 33.9152 33.9258H38.0402C41.3819 33.9258 43.1842 32.7691 43.1842 30.7121ZM50.0483 36.3156C50.0483 34.7115 50.9138 33.9258 52.7107 33.9258H55.5593C55.5593 27.0892 59.0872 23.0517 65.0529 23.0517C69.8572 23.0517 72.7442 25.5179 72.7442 29.5882C72.7442 33.9967 69.408 36.5393 63.026 36.5393H56.874C56.874 38.7436 58.8243 39.9385 62.3522 39.9385C63.6286 39.9385 64.6804 39.7912 65.8418 39.4529C66.4444 39.3056 66.669 39.2674 66.8936 39.2674C68.5808 39.2674 69.7422 40.5769 69.7422 42.4047C69.7422 43.8997 68.8438 45.0182 67.1894 45.6184C65.7267 46.1422 63.3602 46.4804 61.2237 46.4804C54.4034 46.4804 50.0483 42.5193 50.0483 36.3156ZM66.1431 30.7121C66.1431 29.0316 65.1296 28.2841 62.8781 28.2841C59.2022 28.2841 56.874 30.4884 56.874 33.9258H60.9991C64.3407 33.9258 66.1431 32.7691 66.1431 30.7121ZM74.6616 43.0431V26.4891C74.6616 24.3993 75.8613 23.199 77.9265 23.199C80.326 23.199 81.5257 24.5085 81.2298 26.751L80.556 32.0925L80.9669 32.1307C82.3912 25.2942 84.3031 23.0517 88.6965 23.0517C92.8983 23.0517 95.0348 25.4415 95.0348 30.0738V32.0925L95.4456 32.1307C96.8699 25.2942 98.7818 23.0517 103.175 23.0517C107.98 23.0517 110.489 26.6364 110.489 33.4402V43.0431C110.489 45.0618 109.251 46.3331 107.185 46.3331H106.884C105.01 46.3331 103.619 44.9527 103.619 43.0431V34.8206C103.619 31.345 102.343 29.5882 99.7898 29.5882C97.237 29.5882 95.9989 31.3069 95.9989 34.8206V43.0431C95.9989 45.0618 94.7608 46.3331 92.6956 46.3331H92.3943C90.5208 46.3331 89.1293 44.9527 89.1293 43.0431V34.8206C89.1293 31.345 87.8529 29.5882 85.3001 29.5882C82.7473 29.5882 81.5092 31.3069 81.5092 34.8206V43.0431C81.5092 45.0618 80.2328 46.3331 78.173 46.3331H77.9101C76.0092 46.3331 74.6616 44.9473 74.6616 43.0431ZM112.4 39.944C112.4 35.3826 115.742 32.9928 122.119 32.9928H128.271C128.271 30.7885 126.32 29.5936 122.792 29.5936C121.779 29.5936 120.766 29.7409 119.303 30.0792C118.854 30.2265 118.591 30.2647 118.251 30.2647C116.564 30.2647 115.402 28.9552 115.402 27.1274C115.402 25.6324 116.301 24.5139 117.955 23.9137C119.418 23.39 121.785 23.0517 123.921 23.0517C130.747 23.0517 135.102 27.0129 135.102 33.2165V43.0431C135.102 45.1328 133.902 46.3331 131.837 46.3331C129.437 46.3331 128.238 45.0618 128.534 42.7812L129.098 38.3726L128.687 38.3344C127.148 44.1234 124.671 46.4804 120.097 46.4804C115.287 46.4804 112.4 44.0143 112.4 39.944ZM128.271 35.6063H124.146C120.804 35.6063 119.007 36.7248 119.007 38.82C119.007 40.3914 120.13 41.248 122.272 41.248C125.942 41.248 128.271 39.0437 128.271 35.6063ZM137.534 43.0431V21.2239C137.534 19.2051 138.92 17.9338 141.21 17.9338C143.686 17.9338 145.039 19.3906 144.738 21.7804L143.423 32.0925L143.834 32.1307C145.297 25.5561 147.587 23.0517 152.122 23.0517C157.447 23.0517 160 26.4127 160 33.4402V43.0431C160 45.0618 158.762 46.3331 156.697 46.3331H156.395C154.522 46.3331 153.13 44.9527 153.13 43.0431V34.8206C153.13 31.3069 151.668 29.5882 148.742 29.5882C145.855 29.5882 144.393 31.345 144.393 34.8206V43.0431C144.393 45.0618 143.116 46.3331 141.089 46.3331H140.788C138.887 46.3331 137.534 44.9473 137.534 43.0431ZM55.5045 7.08694C55.5045 3.43677 57.5369 0.686857 60.3143 0.686857C62.4179 0.686857 63.6724 2.07818 64.3627 4.55528L64.5599 4.50072L63.9956 1.55439C63.8313 0.648666 64.4503 0.0157511 65.3925 0.0157511C66.2636 0.0157511 66.773 0.577737 66.773 1.42344V5.72836C66.773 7.64347 67.5509 8.44007 69.4025 8.44007C71.035 8.44007 71.7088 7.86171 72.5251 5.71198C73.7577 2.43829 75.6312 0.703229 77.932 0.703229C80.2547 0.703229 81.7777 2.50922 82.561 6.16485C82.8897 7.70349 83.8484 8.44007 85.7712 8.44007C87.4749 8.44007 88.3459 7.75259 88.2419 6.47039L87.8584 1.55439C87.7872 0.615929 88.3295 0.0157511 89.2553 0.0157511C90.1263 0.0157511 90.6522 0.555912 90.6522 1.42344V7.55071C90.6522 10.6989 88.8171 12.8486 86.1328 12.8486C84.1716 12.8486 82.6103 11.8174 81.6297 9.86413C80.9012 11.8338 79.3947 12.8486 77.1815 12.8486C75.2368 12.8486 73.6262 11.7083 72.8045 9.72227C72.2402 11.7301 70.9145 12.8486 69.1012 12.8486C67.2332 12.8486 65.5459 11.5283 65.1077 9.72227C64.2914 11.7465 62.7137 12.8486 60.643 12.8486C57.756 12.8486 55.5045 10.3388 55.5045 7.08694ZM60.3143 3.1967C58.6106 3.1967 57.0822 4.64258 57.0822 6.25215C57.0822 7.91628 58.4243 8.8711 60.769 8.8711C62.2043 8.8711 63.9628 8.45644 64.8502 7.93265C64.0942 5.1882 62.1878 3.1967 60.3143 3.1967ZM80.9012 6.50313C80.9012 4.69714 79.5207 3.1967 77.8334 3.1967C75.7846 3.1967 74.1466 4.84446 73.0948 7.93265C74.0754 8.511 75.5435 8.85474 77.0719 8.85474C79.4659 8.85474 80.9012 7.97084 80.9012 6.50313ZM81.9146 16.0678C81.9146 14.8565 82.7309 14.0435 83.947 14.0435C85.1248 14.0435 85.941 14.8565 85.941 16.0678C85.941 17.2409 85.1248 18.0538 83.947 18.0538C82.7309 18.0593 81.9146 17.2463 81.9146 16.0678ZM86.4341 16.0678C86.4341 14.8565 87.2503 14.0435 88.45 14.0435C89.6497 14.0435 90.466 14.8565 90.466 16.0678C90.466 17.2409 89.6497 18.0538 88.45 18.0538C87.2503 18.0593 86.4341 17.2463 86.4341 16.0678ZM93.6981 10.5734C93.6981 9.2694 94.4815 8.44007 95.6976 8.44007H99.5816C101.795 8.44007 103.049 7.79078 103.049 6.63408C103.049 5.25912 101 4.01512 97.352 3.16396C96.5686 2.9839 96.1523 2.43829 96.1523 1.60895C96.1523 0.523173 96.859 -0.109741 97.9327 0.0157511C101.762 0.484981 104.501 3.36038 104.501 6.86869C104.501 10.4479 101.778 12.8541 97.7136 12.8541H95.6976C94.5143 12.8486 93.6981 11.9266 93.6981 10.5734Z" fill="#0076EB"></path></svg>