<svg width="87" height="50" viewBox="0 0 87 50" fill="none" xmlns="http://www.w3.org/2000/svg">
<path d="M84.8315 15.3124L86.086 4.26112L83.3581 3.94922L82.1036 15.0005C81.9857 16.0289 81.11 16.8129 80.0744 16.7033H73.364V9.98485L73.3808 8.90585C73.3977 7.61612 72.8925 6.39382 71.9663 5.47499C71.0402 4.55615 69.8025 4.05037 68.489 4.05037H66.5525C63.9087 4.05037 61.7617 6.19993 61.7617 8.84684V15.2197C61.7617 15.2197 62.4858 18.0099 63.614 18.8107C64.3044 19.2996 65.1464 19.5609 66.0389 19.5441H70.4845C70.3413 20.1341 69.8277 20.5556 69.2131 20.5725H62.5363V23.4133H69.3983C71.5959 23.4133 73.4145 21.7021 73.5829 19.5441H80.0828C80.0828 19.5441 84.5621 17.7317 84.8315 15.3124ZM66.1483 16.9646C65.8031 16.9646 65.4832 16.8719 65.239 16.7117C64.9696 16.5347 64.5991 16.1975 64.5991 15.363V8.93957C64.5991 7.81843 65.5169 6.89117 66.6451 6.89117H68.4469C68.4469 6.89117 69.5078 7.05133 69.8951 7.44752C70.2824 7.83529 70.4929 8.35793 70.274 8.90585L70.535 9.97642V16.9646H66.1483Z" fill="#B39158"/>
<path d="M41.4611 23.1524H56.7007C56.7007 23.1524 60.7505 21.4917 60.4727 19.2579V18.1704L60.7337 9.98525L60.7505 8.89783C60.7673 7.60809 60.279 6.39422 59.3697 5.47539C58.4688 4.55656 57.2564 4.05078 55.9681 4.05078H54.1748C51.531 4.05078 49.3924 6.19191 49.3924 8.83882V15.1189C49.3924 16.6615 50.0155 17.9597 51.1353 18.7774C51.8257 19.2747 52.6676 19.5445 53.5601 19.5445L58.0057 19.536C57.871 20.1346 57.3405 20.5729 56.7259 20.5729H41.4359C41.0486 20.5729 40.6528 20.4802 40.3245 20.2694C39.693 19.8732 39.3394 19.1989 39.3394 18.4739V15.9197H36.502V18.4065C36.502 19.6709 37.0156 20.8595 37.9501 21.753C38.8931 22.655 40.1308 23.1524 41.4611 23.1524ZM53.417 16.965C53.0971 16.965 52.7939 16.8723 52.5666 16.7121C52.314 16.5351 51.9688 16.1979 51.9688 15.3549V8.94841C51.9688 7.81884 52.8866 6.9 54.0148 6.9H55.7913C56.1871 6.9 56.5828 6.99273 56.9196 7.20347C57.551 7.60809 57.9047 8.27404 57.8962 8.99056L58.1573 9.98525V16.7037L53.5349 16.965H53.417Z" fill="#B39158"/>
<path d="M33.286 1.03216C31.6189 1.28505 30.1286 1.12489 28.9751 0.0374653C28.933 0.0037467 28.8825 -0.0131129 28.832 0.0121761C26.5334 0.973156 21.8774 1.8667 20.4376 2.27975C20.3366 2.30504 20.2945 2.42306 20.3619 2.50735C20.6565 2.87826 21.4817 3.70436 22.7025 3.36718C22.7446 3.35875 22.7783 3.38404 22.7783 3.41775C23.014 7.7506 23.9991 18.0095 21.0775 19.3329C20.9849 19.3751 20.8755 19.3076 20.867 19.2065C20.766 17.3688 19.823 3.26602 13.6851 3.26602C10.9066 3.26602 7.9429 7.18581 5.78747 12.8843C3.52259 18.8609 0.432586 23.9608 0.0116047 24.6436C-0.0136542 24.6858 0.00318509 24.7363 0.0537029 24.7532L2.25965 25.6215C2.30174 25.6383 2.35226 25.613 2.36068 25.5709C3.14371 22.3592 4.2972 18.6754 5.47595 15.7588C5.50121 15.7082 5.5854 15.7335 5.56856 15.7841C5.13074 17.529 4.02777 22.7975 4.02777 26.4728V49.764C4.02777 49.764 4.22984 49.9157 4.31404 49.7387H7.57243C7.65663 49.9241 7.72399 49.8567 7.63137 49.764V35.4336C7.73241 35.3155 7.74925 35.1975 7.77451 35.088L9.95519 27.653C9.95519 27.6024 10.0057 27.5687 10.0562 27.5771C10.3088 27.653 10.5698 27.712 10.8393 27.7626C10.8814 27.771 10.915 27.8132 10.8982 27.8637L8.69225 35.3998L11.1845 49.7724C11.1845 49.8567 11.336 50 11.336 50H13.9293C14.0135 50 14.0892 49.9326 14.0892 49.8483L11.5633 36.1585L14.1566 27.9733C14.165 27.948 14.1903 27.9227 14.2155 27.9227C14.6618 27.8637 15.0996 27.7794 15.5121 27.6614C15.5627 27.6446 15.6132 27.6867 15.6132 27.7373V49.8398C15.6132 49.9241 15.6805 49.9916 15.7647 49.9916H18.4253C18.5095 49.9916 18.5853 49.9241 18.5853 49.8398L21.1365 26.5571C21.1365 26.5319 21.1617 26.5066 21.187 26.4897L21.3217 26.4391C21.3638 26.4223 21.4143 26.4476 21.4227 26.4981L26.6176 49.8736C26.6345 49.9494 26.6934 49.9916 26.7692 49.9916H28.9415C29.0425 49.9916 29.1099 49.9073 29.093 49.8146L25.22 23.5478C25.2116 23.4972 25.2284 23.4466 25.2621 23.4129C25.5147 23.16 26.584 22.0557 27.4259 20.3782C29.0762 16.8883 28.4784 12.4375 28.0153 6.56202C28.0153 6.5283 28.0321 6.48615 28.0658 6.47772C29.0341 6.00566 29.9434 5.4493 30.7938 4.81708C30.819 4.80022 30.8611 4.80022 30.8864 4.82551C31.56 5.4493 33.1176 5.78649 33.8501 5.18798C33.8922 5.15426 33.8838 5.08683 33.8333 5.06154L32.2588 4.18485C32.0399 4.04998 32.1662 3.78023 32.3346 3.82238L34.5321 4.10056C34.5742 4.10899 34.6163 4.07527 34.6163 4.03312C34.7342 2.96255 33.6986 1.7824 33.4375 1.10803C33.4207 1.05745 33.3449 1.0153 33.286 1.03216Z" fill="#B39158"/>
<path d="M45.2668 43.5424L40.5518 27.543H36.502V49.7382H39.3394V33.0644L44.2817 49.9911H48.1042V27.543H45.2668V43.5424Z" fill="#B39158"/>
<path d="M56.002 27.543H54.1244C51.5143 27.543 49.3926 29.6672 49.3926 32.2804V45.0008C49.3926 47.614 51.5143 49.7382 54.1244 49.7382H56.002C58.6121 49.7382 60.7338 47.614 60.7338 45.0008V32.2804C60.7338 29.6588 58.6205 27.543 56.002 27.543ZM56.162 46.8974H54.2254C53.1225 46.8974 52.23 46.0039 52.23 44.8996V32.3816C52.23 31.2773 53.1225 30.3838 54.2254 30.3838H56.162C57.2649 30.3838 58.1574 31.2773 58.1574 32.3816V44.8996C58.1574 46.0039 57.2649 46.8974 56.162 46.8974Z" fill="#B39158"/>
<path d="M70.5266 45.0935C70.5266 46.2315 69.6341 47.1588 68.5311 47.1588H66.5946C65.4916 47.1588 64.5991 46.2652 64.5991 45.1609V27.543H61.7617V45.0008C61.7617 47.614 63.875 49.7382 66.4936 49.7382H68.6321C71.2422 49.7382 73.364 47.614 73.364 45.0008V27.543H70.5266V45.0935Z" fill="#B39158"/>
<path d="M80.3272 41.7391H83.4172V44.9002C83.4172 46.0045 82.5247 46.8981 81.4217 46.8981H79.4852C78.3822 46.8981 77.4898 46.0045 77.4898 44.9002V32.3822C77.4898 31.2779 78.3822 30.3844 79.4852 30.3844H81.4217C82.5247 30.3844 83.4172 31.2779 83.4172 32.3822V36.8331H86.2546V32.2726C86.2546 29.6594 84.1328 27.5352 81.5228 27.5352H79.3842C76.7741 27.5352 74.6523 29.6594 74.6523 32.2726V44.993C74.6523 47.6062 76.7741 49.7304 79.3842 49.7304H81.5228C84.1328 49.7304 86.2546 47.6062 86.2546 44.993V44.5462V38.8899H80.3272V41.7391Z" fill="#B39158"/>
<path d="M52.6853 3.15752C53.5363 3.15752 54.2261 2.46686 54.2261 1.61489C54.2261 0.762923 53.5363 0.0722656 52.6853 0.0722656C51.8344 0.0722656 51.1445 0.762923 51.1445 1.61489C51.1445 2.46686 51.8344 3.15752 52.6853 3.15752Z" fill="#B39158"/>
<path d="M56.6834 3.15752C57.5343 3.15752 58.2242 2.46686 58.2242 1.61489C58.2242 0.762923 57.5343 0.0722656 56.6834 0.0722656C55.8324 0.0722656 55.1426 0.762923 55.1426 1.61489C55.1426 2.46686 55.8324 3.15752 56.6834 3.15752Z" fill="#B39158"/>
<path d="M77.076 3.15752C77.9269 3.15752 78.6167 2.46686 78.6167 1.61489C78.6167 0.762923 77.9269 0.0722656 77.076 0.0722656C76.225 0.0722656 75.5352 0.762923 75.5352 1.61489C75.5352 2.46686 76.225 3.15752 77.076 3.15752Z" fill="#B39158"/>
</svg>
