<svg width="171" height="50" viewBox="0 0 171 50" fill="none" xmlns="http://www.w3.org/2000/svg">
<path fill-rule="evenodd" clip-rule="evenodd" d="M149.066 17.0457C149.066 15.4355 147.794 14.2047 146.185 14.1962C144.517 14.1878 143.228 15.4355 143.228 17.1047C143.228 18.7486 144.467 20.0468 146.126 20.0468C147.803 20.0553 149.066 18.6643 149.066 17.0457ZM69.9543 10.9421V16.7169C69.9543 21.5643 66.0623 22.0701 62.2461 21.0416C62.2461 23.7309 66.315 25.4928 69.9206 24.2283C73.5262 22.9637 73.9811 19.6759 73.9811 16.2111V10.9421H69.9543ZM166.513 23.7393V1.2389H170.624L170.641 23.7393H166.513ZM143.768 5.95143C143.768 4.83863 144.669 3.93659 145.781 3.93659C146.893 3.93659 147.794 4.83863 147.794 5.95143C147.794 7.06422 146.893 7.96626 145.781 7.96626C144.66 7.97469 143.768 7.07265 143.768 5.95143ZM110.391 5.95143C110.391 4.8302 111.292 3.91973 112.412 3.91973C113.533 3.91973 114.434 4.8302 114.434 5.94299C114.434 7.06422 113.524 7.96626 112.412 7.96626C111.3 7.97469 110.391 7.07265 110.391 5.95143ZM162.789 1.2389V23.7393H78.2269V1.2389H82.2453V20.0721H125.773V10.9421H129.766V20.0721H141.426C140.676 19.2375 140.154 18.2175 140.044 17.0963C139.673 13.3869 142.504 10.411 146.194 10.411C149.774 10.411 152.562 13.2689 152.251 16.8855C152.15 18.032 151.535 19.1954 150.81 20.0721H158.83V1.23047L162.789 1.2389Z" fill="#006CB7"/>
<path fill-rule="evenodd" clip-rule="evenodd" d="M76.1124 41.156C76.1124 38.3571 73.8715 36.2748 71.1084 36.2748C68.4885 36.2748 66.2476 38.2981 66.2476 40.9621C66.2476 43.8789 68.3284 46.1214 71.2853 46.0455C74.0316 46.0792 76.1124 43.8874 76.1124 41.156ZM152.529 41.156C152.529 38.3571 150.288 36.2748 147.525 36.2748C144.905 36.2748 142.664 38.2981 142.664 40.9621C142.664 43.8789 144.745 46.1214 147.702 46.0455C150.448 46.0792 152.529 43.8874 152.529 41.156ZM156.37 32.8606V49.6115H152.596L152.655 47.2932C151.425 49.3671 149.462 49.9909 147.179 49.9909C142.091 49.9909 138.662 45.8601 138.662 40.9283C138.662 36.3085 142.411 32.4138 147.061 32.4138C149.378 32.4138 151.198 33.1978 152.655 35.0609L152.588 32.8437L156.37 32.8606ZM113.836 41.156C113.836 38.3571 111.595 36.2748 108.832 36.2748C106.212 36.2748 103.971 38.2981 103.971 40.9621C103.971 43.8789 106.052 46.1214 109.009 46.0455C111.755 46.0792 113.836 43.8874 113.836 41.156ZM117.678 32.8606V49.6115H113.904L113.963 47.2932C112.724 49.3671 110.77 49.9909 108.487 49.9909C103.399 49.9909 99.9699 45.8601 99.9699 40.9283C99.9699 36.3085 103.719 32.4138 108.369 32.4138C110.686 32.4138 112.505 33.1978 113.963 35.0609L113.895 32.8437L117.678 32.8606ZM100.905 26.9088C98.8494 25.5937 94.0308 25.4925 92.5397 27.4568C91.9584 28.2239 91.4024 29.6486 91.4024 31.9079V34.8164H90.0124V38.3402H91.4024V49.6031H95.2944V38.3402H99.1274V34.8164H95.2944V31.8658C95.2944 29.7919 96.4233 29.3114 99.1527 30.1629L100.905 26.9088ZM170.641 33.1641L168.889 36.4181C165.839 35.1452 163.826 37.1347 163.826 40.1359V49.6031H159.908V32.8521H163.581V34.5803C164.693 32.5402 167.6 31.5792 170.641 33.1641ZM136.11 40.7344V49.6031H132.176V42.1845C132.176 39.9167 131.915 38.374 131.384 37.5478C130.255 35.7943 127.012 35.9039 125.9 37.6827C125.327 38.5932 125.049 40.178 125.049 42.4458V49.62H121.275V32.8521H125.049V34.7742C127.45 31.4443 132.799 31.8827 134.956 35.2463C136.017 36.8902 136.135 38.8376 136.11 40.7344ZM83.9554 49.6031H87.7547V26.3861H83.9554V49.6031ZM79.9539 32.8606V49.6115H76.1798L76.2388 47.2932C75.0088 49.3671 73.046 49.9909 70.763 49.9909C65.6748 49.9909 62.2461 45.8601 62.2461 40.9283C62.2461 36.3085 65.9949 32.4138 70.6451 32.4138C72.9617 32.4138 74.7814 33.1978 76.2388 35.0609L76.1714 32.8437L79.9539 32.8606Z" fill="#006CB7"/>
<path fill-rule="evenodd" clip-rule="evenodd" d="M46.0389 46.7461L49.2907 50.0002H25.4922V46.7461H46.0389Z" fill="#006CB7"/>
<path fill-rule="evenodd" clip-rule="evenodd" d="M11.7448 3.78516V11.7349H3.80078C5.81418 8.52297 8.53521 5.79999 11.7448 3.78516Z" fill="#006CB7"/>
<path fill-rule="evenodd" clip-rule="evenodd" d="M36.5364 37.2443H25.4922V33.9902H33.293L36.5364 37.2443Z" fill="#006CB7"/>
<path fill-rule="evenodd" clip-rule="evenodd" d="M28.0441 28.7465H25.5V26.209L28.0441 28.7465Z" fill="#006CB7"/>
<path fill-rule="evenodd" clip-rule="evenodd" d="M32.2984 33.0054H25.5V29.7598H29.0466L32.2984 33.0054Z" fill="#006CB7"/>
<path fill-rule="evenodd" clip-rule="evenodd" d="M45.0442 45.7515H25.5V42.5059H41.7925L45.0442 45.7515Z" fill="#006CB7"/>
<path fill-rule="evenodd" clip-rule="evenodd" d="M37.237 11.7434H25.5273V0C29.63 0.0843028 33.6652 1.18024 37.237 3.19508V11.7434Z" fill="#006CB7"/>
<path fill-rule="evenodd" clip-rule="evenodd" d="M46.198 11.7427H38.2539V3.79297C41.4635 5.80781 44.1846 8.53079 46.198 11.7427Z" fill="#006CB7"/>
<path fill-rule="evenodd" clip-rule="evenodd" d="M34.5474 25.4941H37.2263V36.5294L28.5156 27.804C30.1752 26.3119 32.3234 25.4941 34.5474 25.4941Z" fill="#006CB7"/>
<path fill-rule="evenodd" clip-rule="evenodd" d="M25.4922 12.7383H37.2272V24.4901H34.5482C29.5442 24.4901 25.4922 20.4351 25.4922 15.4275V12.7383Z" fill="#006CB7"/>
<path fill-rule="evenodd" clip-rule="evenodd" d="M40.7906 41.493H25.4922V38.2305H37.5473L40.7906 41.493Z" fill="#006CB7"/>
<path fill-rule="evenodd" clip-rule="evenodd" d="M12.7461 3.19508C16.3348 1.17181 20.3785 0.0758725 24.4895 0V11.7518H12.7461V3.19508Z" fill="#006CB7"/>
<path fill-rule="evenodd" clip-rule="evenodd" d="M12.7461 12.7383H24.4895V15.4191C24.4895 20.4267 20.4374 24.4901 15.4334 24.4901H12.7461V12.7383Z" fill="#006CB7"/>
<path fill-rule="evenodd" clip-rule="evenodd" d="M3.79297 38.248H11.737V46.1978C8.52739 44.183 5.80636 41.4516 3.79297 38.248Z" fill="#006CB7"/>
<path fill-rule="evenodd" clip-rule="evenodd" d="M46.7883 12.7383C48.8101 16.3296 49.9221 20.3761 49.9979 24.4901H38.2461V12.7383H46.7883Z" fill="#006CB7"/>
<path fill-rule="evenodd" clip-rule="evenodd" d="M38.2383 25.502H49.9901C49.8637 31.7909 47.3786 37.8017 43.0148 42.3204L38.2383 37.532V25.502Z" fill="#006CB7"/>
<path fill-rule="evenodd" clip-rule="evenodd" d="M3.19218 12.7383H11.7428V24.4901H0.0078125C0.0752065 20.3761 1.17878 16.3296 3.19218 12.7383Z" fill="#006CB7"/>
<path fill-rule="evenodd" clip-rule="evenodd" d="M24.4895 37.2544H12.7461V25.4941H15.4334C20.4374 25.4941 24.4895 29.5491 24.4895 34.5567V37.2544Z" fill="#006CB7"/>
<path fill-rule="evenodd" clip-rule="evenodd" d="M0 25.4941H11.7434V37.2544H3.19279C1.17939 33.6631 0.0758182 29.6165 0 25.4941Z" fill="#006CB7"/>
<path fill-rule="evenodd" clip-rule="evenodd" d="M12.7461 38.248H24.4895V49.9914C20.3785 49.9155 16.3264 48.8112 12.7461 46.7879V38.248Z" fill="#006CB7"/>
</svg>
