<svg width="75" height="50" viewBox="0 0 75 50" fill="none" xmlns="http://www.w3.org/2000/svg">
<path d="M68.5052 25.1615C68.5052 27.1424 68.4968 29.1065 68.5136 31.0874C68.5136 31.433 68.4208 31.5341 68.0665 31.5341C66.1261 31.5172 64.1772 31.5341 62.2284 31.5172C61.874 31.5172 61.7306 31.5931 61.7559 31.9809C61.7897 32.5878 61.7559 33.1947 61.7728 33.8016C61.7812 34.0545 61.6969 34.1556 61.4269 34.1556C59.0478 34.1472 56.6687 34.1641 54.2811 34.1472C53.235 34.1388 52.4166 33.3633 52.2648 32.3096C52.2479 32.1663 52.2142 32.0314 52.2142 31.8881C52.2057 31.6184 52.0876 31.5172 51.8008 31.5172C51.0752 31.5341 50.3328 31.5341 49.6073 31.5172C49.312 31.5088 49.2445 31.6268 49.2445 31.8966C49.2445 32.8069 49.236 33.7257 49.2276 34.6445C49.2023 36.1534 47.9452 36.9795 46.781 37.03C45.1696 37.1059 43.5498 37.0553 41.93 37.0638C41.6769 37.0638 41.6094 36.9626 41.6094 36.7266C41.6178 35.6561 41.6178 34.5771 41.6094 33.5066C41.6094 33.2621 41.7022 33.1863 41.9468 33.1863C42.6302 33.1947 43.322 33.1947 43.9969 33.1863C44.7731 33.1863 44.8237 33.1357 44.8153 32.377C44.8153 30.7755 44.8153 29.1739 44.8153 27.5723C44.8153 26.3164 44.8237 25.052 44.8068 23.796C44.7984 23.4251 44.9165 23.3071 45.2793 23.3071C46.4435 23.3239 47.6162 23.3239 48.7805 23.3071C49.1601 23.2986 49.2529 23.4588 49.2445 23.8044C49.2276 24.8918 49.2529 25.9792 49.236 27.0666C49.2276 27.4206 49.3035 27.5723 49.6916 27.5555C50.375 27.5302 51.0668 27.5386 51.7417 27.5555C52.0792 27.5639 52.172 27.4459 52.1635 27.1256C52.1467 26.0045 52.1635 24.8834 52.1467 23.7707C52.1382 23.4419 52.2142 23.2986 52.5769 23.3071C54.3064 23.3239 56.0275 23.2481 57.757 23.3324C59.4696 23.4167 60.7435 24.2765 61.5197 25.819C61.7222 26.2321 61.7812 26.6788 61.7306 27.134C61.6969 27.4712 61.8319 27.5639 62.1609 27.5555C62.7683 27.5386 63.3758 27.5302 63.9832 27.5555C64.3881 27.5807 64.4472 27.4037 64.4472 27.0666C64.4388 24.4788 64.4472 21.9078 64.4388 19.32C64.4388 18.907 64.5231 18.7468 64.9703 18.7721C65.9995 18.8058 67.0204 18.7974 68.0496 18.7721C68.4039 18.7637 68.4968 18.8648 68.4883 19.2104C68.4968 21.2166 68.5052 23.1806 68.5052 25.1615Z" fill="#E8282B"/>
<path d="M39.3834 29.2752C39.3834 30.919 39.3581 32.5711 39.3918 34.2064C39.4171 35.4034 38.9869 36.2884 37.8732 36.7942C37.502 36.9628 37.1055 37.0639 36.709 37.0639C35.2157 37.0639 33.7224 37.0471 32.2376 37.0555C31.8748 37.0555 31.7483 36.9459 31.7651 36.5666C31.782 35.5888 31.782 34.611 31.7651 33.6248C31.7567 33.2623 31.8748 33.178 32.2207 33.1865C32.9378 33.2117 33.6465 33.178 34.372 33.1949C34.8192 33.2117 34.9795 33.0094 34.9795 32.588C34.971 29.6883 34.971 26.7802 34.9542 23.872C34.9542 23.4506 35.0554 23.2988 35.4941 23.3157C36.6162 23.341 37.7382 23.3326 38.8519 23.3157C39.2653 23.3073 39.4256 23.4084 39.4087 23.8552C39.3749 25.6759 39.3834 27.4714 39.3834 29.2752Z" fill="#E8282A"/>
<path d="M74.36 38.9682C74.1912 38.8502 74.0731 38.9513 73.955 39.0778C73.7272 39.3306 73.4994 39.5835 73.1788 39.9376C73.2041 39.3644 73.1198 38.9429 72.8329 38.5467C72.6642 38.336 72.428 38.2854 72.2086 38.2938C71.9808 38.2938 72.0146 38.5551 71.9977 38.7069C71.9302 39.1368 71.6602 39.4318 71.424 39.7605C71.0191 40.3084 70.5466 40.8058 70.0067 41.2188C69.8801 41.3115 69.6523 41.4633 69.5089 41.2525C69.3655 41.0418 69.6017 40.9322 69.7367 40.8142C70.167 40.4349 70.6057 40.0471 70.9094 39.5667C71.0022 39.4149 71.1456 39.2379 71.0022 39.0525C70.8503 38.8502 70.6225 38.8417 70.4032 38.9008C69.9054 39.0525 69.4414 39.3138 69.2389 39.769C68.8846 40.5613 68.1928 41.0587 67.6444 41.6824C67.5263 41.8257 67.3576 41.9775 67.172 41.8089C66.9864 41.6403 67.1973 41.497 67.2732 41.3705C67.5263 40.9575 67.8638 40.5866 67.6529 40.0219C67.4504 39.4739 67.0623 39.3222 66.6405 39.7437C66.2608 40.123 65.8896 40.5276 65.5184 40.9322C65.4003 41.0587 65.3159 41.1682 65.1809 40.9238C64.6916 40.0809 64.0589 39.9966 63.3671 40.7215C62.7343 41.3705 62.1438 42.087 61.5279 42.753C61.3761 42.9215 61.2073 43.166 60.9458 43.0227C60.6505 42.8541 60.7771 42.5928 60.8699 42.3568C61.0555 41.8679 61.2748 41.3874 61.4267 40.8816C61.5363 40.5445 61.7388 40.3927 62.0594 40.2832C63.1984 39.9038 64.3204 39.4908 65.4509 39.0946C65.7378 38.9935 65.8221 38.8333 65.7125 38.5636C65.5859 38.2517 65.3497 38.3276 65.1219 38.4118C64.2192 38.749 63.3165 39.0946 62.4222 39.4402C62.1607 39.5414 61.9666 39.592 62.0004 39.1958C62.0088 39.0778 62.0257 38.9176 61.8485 38.9092C61.7051 38.8923 61.5617 38.926 61.4773 39.0609C61.4098 39.1621 61.3676 39.2885 61.3507 39.4065C61.2917 39.769 61.0808 39.9797 60.7517 40.1061C60.4649 40.2157 60.1781 40.3675 59.9081 40.5192C59.7225 40.6203 59.655 40.8058 59.7394 40.9912C59.8406 41.2188 60.0178 41.1008 60.1781 41.0418C60.3468 40.9659 60.4987 40.7974 60.7602 40.8648C60.3974 41.5307 60.3299 42.3146 59.5959 42.8457C59.79 42.0702 59.4525 41.5897 58.9801 41.1682C58.727 40.9406 58.5414 41.0081 58.4486 41.3453C58.3811 41.5476 58.4148 41.8089 58.2883 41.969C57.7315 42.6855 57.2253 43.4526 56.5588 44.0932C56.4828 44.1775 56.3985 44.2618 56.2804 44.1944C56.1538 44.1101 56.1538 43.9836 56.1876 43.8572C56.255 43.6127 56.3816 43.4104 56.5166 43.1913C56.7528 42.8204 56.7106 42.3146 56.4238 41.9943C56.1791 41.733 55.9345 41.674 55.6898 41.9943C55.403 42.3568 55.1161 42.7277 54.8124 43.0733C54.2556 43.6886 53.7747 44.3967 53.007 44.8013C52.8551 44.8856 52.6611 45.0626 52.5176 44.835C52.3995 44.6496 52.6273 44.5484 52.7454 44.4304C53.1588 44.0089 53.5975 43.6212 53.994 43.1829C54.2893 42.8457 54.1712 42.5759 53.7241 42.5085C53.1757 42.4242 52.7539 42.6518 52.4417 43.0901C52.2139 43.4104 52.0283 43.756 51.8258 44.0764C51.6318 44.3882 51.6318 44.3882 51.269 44.5063C51.3197 44.422 51.3534 44.3545 51.3787 44.2955C51.5474 43.9246 51.7584 43.4947 51.3703 43.1829C50.9906 42.8963 50.6025 43.1323 50.2904 43.4273C50.0035 43.6802 49.7336 43.9415 49.4636 44.1944C49.3624 44.1354 49.3877 44.0764 49.3961 44.0174C49.413 43.7898 49.4636 43.5453 49.2105 43.4442C48.9237 43.3346 48.8224 43.6043 48.6874 43.7898C48.2825 44.3377 47.8944 44.894 47.4726 45.4335C47.3713 45.5768 47.2279 45.8465 47.0592 45.7285C46.8567 45.6021 47.0676 45.3745 47.1435 45.1975C47.1604 45.1637 47.1942 45.1132 47.211 45.0795C47.3798 44.7507 47.4051 44.4641 47.017 44.2618C46.6542 44.0764 46.4433 44.2112 46.2493 44.5231C45.9118 45.0542 45.5575 45.5852 45.2116 46.1163C45.1188 46.268 45.0428 46.5377 44.8319 46.4366C44.5704 46.3186 44.815 46.1078 44.8657 45.9645C44.9753 45.6948 45.1356 45.4335 45.1441 45.1385C45.1525 44.9614 45.1188 44.7929 44.95 44.6917C44.7897 44.599 44.6548 44.6833 44.5198 44.7676C44.2414 44.9446 44.0136 45.1806 43.7858 45.4082C43.5411 45.6442 43.3133 45.8802 42.959 45.9645C43.0349 45.3661 42.8915 45.1469 42.3178 44.9783C42.0394 44.894 41.7357 44.8687 41.4488 44.835C40.8077 44.776 40.1665 44.8266 39.5337 44.8687C39.3819 44.8771 39.1963 44.953 39.1204 44.7591C39.0613 44.6074 39.1963 44.5063 39.2891 44.4051C39.9893 43.6465 40.7992 43.0227 41.7188 42.5507C42.0141 42.3989 42.3347 42.2725 42.689 42.2556C43.1615 42.2388 43.4146 42.4411 43.4989 42.8963C43.5242 43.0396 43.4736 43.2419 43.7014 43.2503C43.9376 43.2503 44.0558 43.0817 44.1148 42.8794C44.2582 42.3568 43.9123 41.8004 43.3302 41.6234C42.8915 41.4801 42.4359 41.4801 41.9972 41.615C40.7824 41.9775 39.7194 42.5928 38.9094 43.5959C38.6395 43.9246 38.5045 44.2955 38.5467 44.717C38.5804 45.248 38.8335 45.4925 39.365 45.5093C39.77 45.5262 40.1749 45.5262 40.5799 45.5431C40.9595 45.5599 41.356 45.5768 41.7273 45.7117C42.1913 45.8802 42.2419 46.0657 41.955 46.4703C41.5332 47.0603 40.9005 47.3722 40.3183 47.76C39.9303 48.0213 39.5169 48.2573 39.23 48.6282C39.1372 48.7462 39.0191 48.8895 39.1372 49.0497C39.2553 49.2098 39.4494 49.2604 39.6434 49.2098C39.77 49.1761 39.8965 49.0918 40.0146 49.0244C40.892 48.5692 41.6429 47.9539 42.36 47.2795C42.9168 46.7485 43.558 46.2933 44.2498 45.7201C44.1907 46.0741 44.1486 46.2764 44.1317 46.4956C44.1064 46.8243 44.2751 47.0688 44.5788 47.1784C44.8572 47.2795 45.0681 47.1531 45.2537 46.917C45.5322 46.5546 45.7853 46.1921 46.013 45.7959C46.0974 45.6526 46.1565 45.4082 46.3421 45.4503C46.553 45.5093 46.418 45.7369 46.4264 45.8971C46.4349 46.0067 46.418 46.1247 46.4349 46.2258C46.5108 46.7316 46.8651 46.8665 47.2617 46.5714C47.4641 46.4197 47.6329 46.2427 47.7763 46.032C48.0884 45.5599 48.3922 45.0879 48.7296 44.5653C48.7634 44.6664 48.7887 44.717 48.7887 44.7507C48.8477 45.5178 48.5862 46.1753 48.1981 46.8243C47.886 47.3385 47.6497 47.8696 47.5738 48.468C47.5232 48.8895 47.8944 49.4627 48.2403 49.488C48.6706 49.5049 48.7634 49.1255 48.9321 48.8389C48.949 48.8136 48.949 48.7715 48.9574 48.7462C49.2527 48.0213 49.2696 47.2374 49.3117 46.4619C49.3202 46.2933 49.2864 46.0151 49.5986 46.1753C49.9614 46.3607 50.2482 46.2006 50.5519 46.0235C50.9063 45.8128 51.2353 45.5684 51.4799 45.248C51.7499 44.894 51.9777 44.835 52.2645 45.2312C52.4923 45.5431 52.8129 45.6358 53.1757 45.5431C53.4878 45.4588 53.7241 45.2565 53.9434 45.0289C54.5256 44.4135 55.0486 43.7729 55.5295 43.0817C55.6307 42.9384 55.7151 42.6602 55.9176 42.7614C56.1454 42.871 55.9429 43.0901 55.8838 43.2503C55.7404 43.5959 55.6307 43.9499 55.6729 44.3292C55.7404 44.9362 56.0779 45.1132 56.6094 44.8434C57.0565 44.6158 57.3687 44.2449 57.6049 43.8235C57.9002 43.3009 58.3389 42.8963 58.651 42.3989C58.6848 42.3315 58.7354 42.2725 58.8282 42.2809C58.9126 42.2893 58.9379 42.3652 58.9716 42.4411C59.1572 42.989 58.8451 43.5706 58.2883 43.6718C58.0352 43.7223 57.858 43.8488 57.7736 44.0848C57.723 44.2281 57.8074 44.3545 57.9255 44.4473C58.1195 44.6074 58.3558 44.6496 58.5751 44.54C58.7607 44.4473 58.921 44.2871 59.0813 44.1354C59.3935 43.8403 59.6972 43.5285 60.0093 43.225C60.2034 43.0396 60.3384 43.0227 60.5155 43.284C60.9458 43.9246 61.3001 43.9331 61.8316 43.3599C62.1944 42.9553 62.5403 42.5507 62.8946 42.146C63.0128 42.2219 62.9537 42.3231 62.9537 42.4074C62.9706 42.8204 63.1224 43.1238 63.5021 43.3093C63.8733 43.4779 64.1686 43.3009 64.4554 43.1154C64.9025 42.8204 65.181 42.3989 65.3412 41.8932C65.375 41.7667 65.3919 41.5981 65.5859 41.6066C65.8137 41.6066 65.9065 41.438 66.0246 41.2947C66.2608 41.0334 66.4886 40.7636 66.7248 40.4939C66.8008 40.4096 66.8683 40.2832 66.9864 40.3759C67.0792 40.4517 67.037 40.5782 66.9864 40.6878C66.8598 40.9575 66.7164 41.2104 66.6152 41.4886C66.4717 41.8679 66.5308 42.2135 66.9273 42.4495C67.3154 42.6855 67.6444 42.5928 67.9228 42.2725C68.1338 42.0365 68.3447 41.8089 68.5218 41.556C68.7243 41.261 68.8677 41.2778 69.0702 41.5813C69.4246 42.1123 69.9814 42.1713 70.4707 41.7583C70.8841 41.4043 71.2722 41.0334 71.5421 40.5445C71.753 40.1736 72.0146 39.828 72.2592 39.4655C72.3183 39.3728 72.3774 39.3054 72.487 39.3391C72.5883 39.3559 72.6136 39.4402 72.6389 39.5414C72.7317 40.0809 72.3605 40.7131 71.829 40.8816C71.6265 40.9491 71.4493 41.0249 71.4156 41.261C71.3987 41.4548 71.5084 41.5897 71.6602 41.6824C71.8627 41.8004 72.0652 41.792 72.2677 41.6487C73.1198 41.0502 73.7694 40.2663 74.419 39.4655C74.5118 39.2548 74.5287 39.0946 74.36 38.9682ZM69.627 40.1314C69.7114 39.8954 69.8379 39.6847 70.091 39.6172C70.1754 39.6004 70.2092 39.6847 70.2007 39.7943C70.0573 39.9628 70.0151 40.2326 69.7283 40.2832C69.627 40.3 69.5933 40.2157 69.627 40.1314ZM52.6948 43.7392C52.7707 43.4863 52.8889 43.2419 53.1504 43.1323C53.2432 43.0817 53.2938 43.1576 53.3107 43.2587C53.2094 43.4947 53.0829 43.7139 52.8129 43.8151C52.7623 43.8403 52.6695 43.8151 52.6948 43.7392ZM48.5356 47.7684C48.5187 48.0213 48.485 48.2657 48.2909 48.4428C48.2403 48.4933 48.1644 48.468 48.1306 48.4175C47.9872 48.173 48.0294 47.9117 48.1306 47.6673C48.1897 47.524 48.2572 47.3301 48.4259 47.3722C48.6115 47.4144 48.4934 47.642 48.5356 47.7684ZM50.8135 44.2281C50.6363 44.5737 50.4844 44.9193 50.1723 45.1722C50.0204 45.2902 49.8601 45.3155 49.7251 45.3155C49.4805 45.366 49.472 45.2565 49.5311 45.0879C49.6914 44.599 49.9782 44.2197 50.3748 43.8909C50.5013 43.7898 50.6532 43.7308 50.7966 43.8235C50.9569 43.9415 50.8894 44.0848 50.8135 44.2281ZM64.8097 41.4548C64.7591 41.9016 64.5566 42.2809 64.2698 42.6181C64.1433 42.7698 63.9914 42.9468 63.7552 42.8541C63.5021 42.753 63.4936 42.5254 63.4852 42.2556C63.5358 41.8426 63.6877 41.4295 64.0251 41.1008C64.1686 40.9575 64.3204 40.8732 64.5313 40.9744C64.7338 41.0671 64.8266 41.2357 64.8097 41.4548Z" fill="#E82428"/>
<path d="M74.3185 25.1112C74.3185 27.0921 74.31 29.0562 74.3269 31.0371C74.3269 31.4417 74.2088 31.5428 73.8207 31.5344C72.7746 31.5175 71.7369 31.5175 70.6907 31.5344C70.3955 31.5344 70.2773 31.4501 70.2773 31.1298C70.2858 27.1596 70.2858 23.1725 70.2773 19.2023C70.2773 18.882 70.387 18.7977 70.6823 18.8145C71.7706 18.823 72.8589 18.8314 73.9473 18.823C74.2425 18.823 74.3185 18.8988 74.3185 19.2107C74.31 21.1663 74.3185 23.1472 74.3185 25.1112Z" fill="#E8282A"/>
<path d="M33.2996 42.2384C33.1056 42.6852 32.92 43.1151 32.7259 43.5534C31.9582 45.332 31.2073 47.119 30.4481 48.8976C30.3721 49.0746 30.3637 49.3275 30.1021 49.3359C29.8069 49.3444 29.8069 49.0578 29.7225 48.8807C28.8198 46.8408 27.9339 44.7841 27.0312 42.7442C26.9975 42.6599 27.0059 42.5166 26.8288 42.4913C26.8288 44.1266 26.8288 45.745 26.8288 47.3719C26.8288 47.532 26.8288 47.6838 26.8372 47.8355C26.8456 48.6531 26.9975 48.8302 27.7905 48.9987C27.9086 49.024 28.1196 48.9819 28.0858 49.1926C28.0689 49.3865 27.8833 49.3443 27.7483 49.3443C26.9806 49.3528 26.2298 49.3443 25.462 49.3443C25.3439 49.3443 25.1921 49.3612 25.1752 49.1926C25.1583 49.0156 25.3017 49.024 25.4283 48.9987C26.1623 48.8386 26.2973 48.6869 26.2973 47.9366C26.3057 46.0991 26.3057 44.2699 26.2973 42.4323C26.2973 41.7074 26.196 41.5809 25.4873 41.4208C25.3777 41.3955 25.2089 41.4461 25.2174 41.2522C25.2174 41.0246 25.3861 41.0752 25.5295 41.0752C26.3732 41.0752 27.2084 41.0836 28.0521 41.0667C28.3727 41.0583 28.4401 41.2606 28.5414 41.4714C29.2585 43.1488 29.9756 44.8262 30.7096 46.5205C30.7349 46.5795 30.7686 46.6217 30.8277 46.7313C31.1652 46.2255 31.3339 45.686 31.5532 45.1718C32.1016 43.9243 32.6247 42.6599 33.1562 41.4039C33.2406 41.21 33.3334 41.0583 33.5949 41.0667C34.4386 41.0836 35.2738 41.0667 36.1174 41.0752C36.244 41.0752 36.4296 41.0246 36.438 41.2438C36.4465 41.4376 36.2777 41.3955 36.1681 41.4208C35.4847 41.5978 35.3581 41.7495 35.3581 42.4492C35.3497 44.253 35.3497 46.0485 35.3581 47.8608C35.3581 48.6194 35.4847 48.7712 36.1849 48.9735C36.2946 48.9987 36.4549 48.9987 36.438 49.1758C36.4212 49.3612 36.2693 49.3275 36.1512 49.3275C34.9616 49.3275 33.7889 49.3359 32.5994 49.3359C32.4897 49.3359 32.3632 49.3444 32.3378 49.1926C32.3125 49.0156 32.4475 48.9903 32.5741 48.9819C33.384 48.9313 33.443 48.5183 33.443 47.8271C33.4346 46.0738 33.4346 44.3205 33.4346 42.5587C33.3924 42.4744 33.443 42.3649 33.2996 42.2384Z" fill="#E9262B"/>
<path d="M46.35 6.28824C46.35 7.85609 46.3416 9.42395 46.3585 10.9918C46.3585 11.3627 46.2572 11.4638 45.886 11.447C45.093 11.4133 44.3 11.4301 43.5069 11.4386C43.2201 11.447 43.0935 11.3796 43.102 11.0592C43.1104 7.85609 43.1104 4.66137 43.102 1.45823C43.102 1.1632 43.2032 1.09576 43.4816 1.10419C44.3 1.12105 45.1352 1.12105 45.9535 1.10419C46.2994 1.09576 46.3669 1.2222 46.3585 1.54252C46.3416 3.1188 46.35 4.70352 46.35 6.28824Z" fill="#E8272C"/>
<path d="M74.5215 6.23021C74.5215 7.81492 74.5131 9.39121 74.53 10.9759C74.5384 11.3552 74.4203 11.448 74.0575 11.4395C73.256 11.4227 72.4461 11.4227 71.6278 11.4395C71.3578 11.448 71.2819 11.3552 71.2819 11.0939C71.2903 7.8655 71.2819 4.63706 71.2734 1.40863C71.2734 1.15575 71.3662 1.08831 71.6025 1.08831C72.4546 1.09674 73.3151 1.10517 74.1672 1.08831C74.4793 1.07988 74.5215 1.19789 74.5215 1.46763C74.5215 3.06078 74.5215 4.64549 74.5215 6.23021Z" fill="#E8282A"/>
<path d="M4.11821 41.0846C5.16434 41.0846 6.20204 41.093 7.24818 41.0762C7.56033 41.0762 7.66157 41.1773 7.63626 41.4808C7.61939 42.0708 7.62782 42.6693 7.62782 43.2509C7.62782 43.3689 7.6447 43.5123 7.47597 43.5375C7.2988 43.5628 7.2988 43.428 7.26505 43.3015C6.80948 41.8095 5.60304 41.1436 4.08446 41.5314C3.8398 41.5988 3.71325 41.7252 3.71325 41.9865C3.71325 42.8548 3.71325 43.723 3.70481 44.5996C3.70481 44.8441 3.83136 44.8778 4.03384 44.8694C4.61597 44.8525 5.0631 44.6333 5.28246 44.077C5.38369 43.8326 5.45119 43.5797 5.53555 43.3268C5.5693 43.2088 5.60304 43.0655 5.77178 43.0908C5.94894 43.1076 5.92363 43.2678 5.92363 43.3774C5.92363 44.5743 5.92364 45.7629 5.9152 46.9683C5.9152 47.0779 5.90676 47.2043 5.76334 47.2127C5.61992 47.2296 5.59461 47.12 5.5693 47.0104C5.51868 46.7997 5.4765 46.589 5.409 46.3782C5.21496 45.746 4.77626 45.4173 4.11821 45.3414C3.82293 45.3077 3.69638 45.3667 3.70481 45.6954C3.72169 46.4709 3.71325 47.2464 3.71325 48.0304C3.72169 48.7553 3.83136 48.8902 4.55691 48.9829C4.64971 48.9913 4.74251 48.9997 4.83532 49.0082C4.94499 49.0166 5.07154 49.025 5.04623 49.1852C5.03779 49.3369 4.90281 49.3369 4.80157 49.3369C4.31225 49.3369 3.8398 49.3369 3.35048 49.3369C2.54057 49.3369 1.73909 49.3369 0.920742 49.3369C0.794194 49.3369 0.600153 49.3706 0.574843 49.1852C0.549534 48.9829 0.743575 49.0082 0.870124 48.9829C1.56192 48.8312 1.6716 48.7131 1.6716 48.0219C1.6716 46.1253 1.6716 44.2372 1.6716 42.3406C1.6716 41.7421 1.49443 41.5482 0.895434 41.4386C0.777322 41.4133 0.566406 41.4892 0.566406 41.27C0.566406 41.0256 0.77732 41.093 0.920742 41.093C2.00062 41.0846 3.0552 41.0846 4.11821 41.0846Z" fill="#E7272A"/>
<path d="M15.4907 48.9833C15.0435 48.8569 14.8917 48.4607 14.7314 48.0983C13.7359 45.8139 12.7404 43.5296 11.7448 41.2452C11.6858 41.1019 11.652 40.9502 11.458 40.9249C11.2218 40.908 11.188 41.0935 11.1205 41.2452C10.7156 42.2314 10.3106 43.2261 9.89723 44.2123C9.32354 45.5526 8.76673 46.9097 8.20148 48.2416C8.05805 48.5534 7.9062 48.8653 7.51811 48.9496C7.36626 48.9749 7.23127 49.0339 7.27345 49.2194C7.3072 49.3879 7.46749 49.3374 7.58561 49.3374C8.1846 49.3458 8.77516 49.3458 9.35729 49.3374C9.51758 49.3289 9.76224 49.4301 9.78755 49.1856C9.81286 48.9328 9.54289 49.0002 9.40791 48.9749C8.82578 48.8485 8.73298 48.7052 8.90171 48.132C8.97764 47.8791 9.07888 47.6346 9.15481 47.3818C9.24761 47.0446 9.43322 46.9097 9.79599 46.9434C10.2009 46.9772 10.6059 46.9519 11.0109 46.9519C12.1582 46.9519 12.1582 46.9519 12.5632 48.0308C12.8247 48.722 12.7404 48.8569 12.0148 48.9918C11.9051 49.0086 11.7364 48.9581 11.7364 49.1519C11.7364 49.3627 11.8967 49.3374 12.0317 49.3374H13.7106C13.7106 49.3374 13.7106 49.3374 13.7021 49.3289H15.4316C15.5497 49.3289 15.6932 49.3458 15.71 49.1688C15.7185 49.0339 15.5919 49.0171 15.4907 48.9833ZM11.6014 46.4461H9.52602C9.9141 45.4599 10.2853 44.5579 10.6903 43.538C11.0952 44.5158 11.4496 45.3672 11.8039 46.2185C11.8883 46.4208 11.7701 46.4461 11.6014 46.4461Z" fill="#E9272B"/>
<path d="M74.4794 45.9826C73.3995 46.0416 72.3112 46.0921 71.2313 46.1511C68.0676 46.3029 64.9039 46.4883 61.7655 46.9941C58.4077 47.5336 55.1512 48.4271 52.0634 49.8769C51.5488 50.1214 51.3041 49.9865 50.992 49.6156C50.4942 49.034 50.4858 49.0593 51.1438 48.7895C54.6535 47.3228 58.3149 46.463 62.0776 45.991C66.1525 45.4768 70.2274 45.4852 74.3107 45.8814C74.3697 45.8898 74.4288 45.8983 74.4879 45.9067C74.4879 45.9236 74.4879 45.9573 74.4794 45.9826Z" fill="#04904C"/>
<path d="M10.825 19.4815C10.825 20.611 9.93917 21.4792 8.80023 21.4708C7.65285 21.4624 6.76701 20.5941 6.77545 19.4815C6.78389 18.3351 7.67816 17.4584 8.82554 17.4669C9.95604 17.4753 10.825 18.3519 10.825 19.4815Z" fill="#E8282A"/>
<path d="M46.9916 22.0015C45.8696 22.0099 44.9753 21.1333 44.9669 20.0037C44.9584 18.8742 45.8274 17.9891 46.9579 17.9807C48.0968 17.9638 49.008 18.8658 49.0249 19.9953C49.0164 21.0911 48.1137 21.9846 46.9916 22.0015Z" fill="#E8282A"/>
<path d="M4.21814 21.4703C3.06233 21.4535 2.2018 20.5768 2.22711 19.4052C2.24398 18.2925 3.16357 17.4243 4.29407 17.458C5.44144 17.4833 6.29354 18.3852 6.26823 19.5485C6.23448 20.6274 5.33177 21.4788 4.21814 21.4703Z" fill="#E8282A"/>
<path d="M41.1464 1.63467C41.1464 2.54504 40.4462 3.26154 39.535 3.26996C38.5733 3.27839 37.873 2.59562 37.873 1.65996C37.873 0.724306 38.5902 0.0078125 39.5182 0.0078125C40.4125 0.0078125 41.1464 0.749594 41.1464 1.63467Z" fill="#E8282B"/>
<path d="M35.7875 3.27065C34.9185 3.27908 34.1845 2.56259 34.1761 1.68594C34.1592 0.784 34.9016 0.00850128 35.8043 7.19418e-05C36.7155 -0.00835739 37.4579 0.724995 37.4663 1.65222C37.4579 2.57102 36.7492 3.26222 35.7875 3.27065Z" fill="#E9272D"/>
<path d="M30.7686 27.5727C28.3979 27.5895 26.0356 27.5811 23.6734 27.5811C23.3781 27.5811 23.0828 27.5558 22.8044 27.4378C22.3404 27.2523 22.1717 26.9067 22.2729 26.3335C22.3657 25.8109 22.5429 25.6592 23.0997 25.6592H30.6167C30.8782 25.6592 31.106 25.6761 31.0891 25.2883C31.0723 24.3105 31.0807 23.3327 31.0807 22.3465C31.0807 22.0936 30.9963 21.9924 30.7264 21.9924C27.7736 22.0009 24.8123 21.9924 21.868 22.0177C21.0412 22.0262 20.2313 22.2453 19.5985 22.8354C18.603 23.771 18.3921 25.8278 19.2104 27.1681C19.4382 27.5389 19.3117 27.5558 18.9742 27.5558C17.6497 27.5474 16.3336 27.5389 15.009 27.5642C14.5872 27.5642 14.486 27.4462 14.486 27.0332C14.5028 25.0523 14.486 23.0883 14.5028 21.1074C14.5113 20.7618 14.4016 20.6522 14.0557 20.6606C13.153 20.6775 12.2503 20.669 11.3475 20.669C10.4955 20.669 10.4701 20.669 10.5039 21.512C10.5208 21.925 10.3773 22.0009 9.99769 22.0009C8.0151 21.984 6.04937 22.0009 4.06678 21.9924C3.59433 21.984 3.13875 22.0683 2.71693 22.279C-0.0755824 23.6783 -0.885495 27.4209 1.08867 29.8233C1.99138 30.9275 3.0797 31.5597 4.61516 31.5344C8.82501 31.4502 13.0433 31.5092 17.2532 31.5092C21.7414 31.5092 26.2381 31.5007 30.7517 31.526C31.1229 31.5344 31.2663 31.4333 31.2579 31.0371C31.2326 30.0425 31.241 29.0478 31.2579 28.0531C31.2832 27.6907 31.1566 27.5727 30.7686 27.5727ZM10.0652 27.5642C8.42849 27.5558 6.80023 27.5558 5.17197 27.5558C4.98637 27.5558 4.80076 27.5305 4.62359 27.4884C4.01616 27.3366 3.83055 27.0163 3.92336 26.283C3.98241 25.8109 4.20176 25.6508 4.81763 25.6508H7.3233C8.22601 25.6508 9.12873 25.6676 10.0314 25.6423C10.4111 25.6339 10.5208 25.7604 10.4955 26.1144C10.4701 26.4516 10.4786 26.7972 10.4955 27.1428C10.5208 27.4799 10.3773 27.5642 10.0652 27.5642Z" fill="#E8282A"/>
<path d="M24.6175 49.0246C24.4403 48.9571 24.2885 48.856 24.1788 48.6958C23.5123 47.7602 22.8374 46.8329 22.1709 45.8973C21.8334 45.4252 21.8503 45.4337 22.3734 45.1639C23.1748 44.7425 23.7232 44.1524 23.6979 43.1578C23.681 42.2895 23.1917 41.7838 22.4746 41.4466C22.1287 41.278 21.749 41.1937 21.3525 41.16C19.7243 41.0083 18.096 41.1094 16.4593 41.0841C16.3496 41.0841 16.2315 41.0757 16.2062 41.2274C16.1809 41.4129 16.3159 41.4045 16.4424 41.4297C17.1427 41.5899 17.2608 41.7248 17.2692 42.4413C17.2777 43.3516 17.2692 44.2789 17.2692 45.1892C17.2777 46.0912 17.2777 46.9931 17.2861 47.9035C17.2777 48.6874 17.1933 48.7885 16.4593 48.9909C16.3496 49.0246 16.1978 49.0161 16.2231 49.2016C16.2484 49.387 16.4003 49.3449 16.5099 49.3449C17.6995 49.3533 18.8722 49.3533 20.0617 49.3449C20.1883 49.3449 20.3823 49.4039 20.4076 49.2016C20.4329 48.9909 20.2389 49.0077 20.1208 48.974C19.4543 48.8138 19.3362 48.6621 19.3277 47.9878C19.3193 47.3134 19.3193 46.6559 19.3277 45.9816C19.3277 45.8214 19.2265 45.6107 19.4459 45.5348C19.6568 45.4674 19.7243 45.6781 19.8171 45.813C20.5426 46.8919 21.2766 47.9793 22.0021 49.0499C22.0865 49.1763 22.154 49.3365 22.3396 49.3365H24.5331C24.6344 49.3365 24.7187 49.3112 24.7272 49.1847C24.7525 49.1089 24.6934 49.0499 24.6175 49.0246ZM19.6483 45.1302C19.3952 45.1555 19.3277 45.0459 19.3362 44.8015C19.3362 44.3463 19.3277 43.8911 19.3277 43.4359V42.0366C19.3277 41.7416 19.4796 41.5899 19.7664 41.5309C20.7113 41.3454 21.4031 41.8091 21.5466 42.77C21.5634 42.9133 21.5719 43.0482 21.5719 43.1915C21.5972 44.7087 21.1922 44.9785 19.6483 45.1302Z" fill="#E9272B"/>
<path d="M34.7088 11.4385C32.5574 11.4385 30.4145 11.4385 28.2716 11.4385C27.3858 11.4385 26.9049 10.9749 26.9049 10.0982C26.9049 8.53038 26.9134 6.96253 26.8965 5.38624C26.8965 5.07436 26.9555 4.93949 27.3014 4.94792C28.1704 4.96477 29.0478 4.96477 29.9168 4.94792C30.2542 4.93949 30.3386 5.06593 30.3302 5.38624C30.3133 6.19546 30.3302 6.99624 30.3133 7.81389C30.3049 8.10892 30.3892 8.22693 30.7014 8.22693C31.6969 8.21007 32.6924 8.21007 33.6879 8.22693C34.0001 8.22693 34.0338 8.11735 34.0338 7.84761C34.0423 6.97939 33.9073 6.11116 34.1519 5.25137C34.481 4.1387 35.1728 3.59079 36.3201 3.59079C37.9653 3.58236 39.6188 3.59922 41.2555 3.58236C41.6436 3.57393 41.7196 3.72566 41.7196 4.07126C41.7111 6.40619 41.7111 8.73269 41.7196 11.0592C41.7196 11.4216 41.5677 11.4638 41.2724 11.4638C39.0873 11.4301 36.8938 11.4385 34.7088 11.4385ZM38.6908 7.90661V6.91195C38.6908 6.73493 38.5474 6.59164 38.3702 6.59164H37.341C37.1638 6.59164 37.0204 6.73493 37.0204 6.91195V7.90661C37.0204 8.08363 37.1638 8.22693 37.341 8.22693H38.3702C38.5474 8.2185 38.6908 8.08363 38.6908 7.90661Z" fill="#E8282A"/>
<path d="M62.5493 11.4394C60.6089 11.4394 58.6685 11.4478 56.7112 11.431C56.34 11.431 56.2219 11.5321 56.2387 11.903C56.2556 12.5521 56.1881 13.2096 56.2303 13.8586C56.3147 15.1736 55.1167 15.8817 54.1465 15.8985C52.1386 15.9238 50.1307 15.907 48.1228 15.9154C47.8443 15.9154 47.7853 15.7974 47.7937 15.5445C47.8106 14.769 47.819 13.9851 47.7937 13.2096C47.7853 12.8471 47.9203 12.7628 48.2493 12.7712C49.5064 12.7881 50.7718 12.7797 52.0289 12.7797C52.6026 12.7797 52.6448 12.7291 52.6532 12.1728C52.6532 12.0969 52.6448 12.0126 52.6532 11.9367C52.7122 11.5658 52.5773 11.4141 52.1807 11.4225C50.9659 11.4478 49.751 11.4225 48.5361 11.431C48.2156 11.431 48.1059 11.3551 48.1059 11.0179C48.1228 9.2815 48.0974 7.53662 48.1143 5.79175C48.1312 4.51892 49.1267 3.57484 50.3753 3.57484C52.1639 3.57484 53.9524 3.58326 55.741 3.56641C56.1206 3.56641 56.2556 3.65913 56.2472 4.06374C56.2219 5.29442 56.2472 6.51667 56.2303 7.74736C56.2219 8.09296 56.3315 8.19411 56.6774 8.19411C57.8839 8.17725 57.8839 8.19411 57.8839 6.98029C57.8839 6.42395 57.8923 5.85919 57.8754 5.30285C57.867 5.01625 57.9767 4.92353 58.2551 4.93196C59.0734 4.94039 59.9087 4.94882 60.727 4.93196C61.0476 4.92353 61.132 5.04997 61.1151 5.345C61.1066 6.15421 61.1235 6.955 61.1151 7.77264C61.1066 8.08453 61.1826 8.21097 61.5285 8.20254C62.3468 8.18568 62.3468 8.20254 62.3468 7.35961C62.3468 6.71055 62.3721 6.05306 62.3384 5.404C62.3215 5.02468 62.4649 4.93196 62.8277 4.94039C63.6039 4.95725 64.3885 4.95725 65.1646 4.94039C65.4852 4.93196 65.6033 5.02468 65.5949 5.36185C65.578 6.17107 65.6033 6.97186 65.5865 7.7895C65.578 8.11825 65.6793 8.2194 66.0083 8.21097C66.8182 8.19411 66.8182 8.21097 66.8182 7.41018C66.8182 6.72741 66.8266 6.0362 66.8182 5.36185C66.8098 5.07526 66.8857 4.94039 67.2063 4.94882C68.0162 4.96568 68.8177 4.97411 69.636 4.94882C69.9819 4.94039 70.0494 5.06683 70.0494 5.38714C70.041 6.83699 70.0579 8.2784 70.0579 9.72825C70.0579 10.9336 69.5264 11.4563 68.2862 11.4563C66.3711 11.4394 64.4644 11.4394 62.5493 11.4394ZM52.9569 8.14354V6.90442C52.9569 6.72741 52.8135 6.58411 52.6363 6.58411H51.6071C51.4299 6.58411 51.2865 6.72741 51.2865 6.90442V8.14354C51.2865 8.32055 51.4299 8.46385 51.6071 8.46385H52.6363C52.8135 8.46385 52.9569 8.32055 52.9569 8.14354Z" fill="#E8282A"/>
</svg>
