<?xml version="1.0" encoding="UTF-8" standalone="no"?>
<svg
   width="86"
   height="68"
   viewBox="0 0 86 68"
   fill="none"
   version="1.1"
   id="svg115"
   sodipodi:docname="logo-orange.svg"
   inkscape:version="1.2.1 (9c6d41e410, 2022-07-14)"
   xmlns:inkscape="http://www.inkscape.org/namespaces/inkscape"
   xmlns:sodipodi="http://sodipodi.sourceforge.net/DTD/sodipodi-0.dtd"
   xmlns="http://www.w3.org/2000/svg"
   xmlns:svg="http://www.w3.org/2000/svg">
  <defs
     id="defs119" />
  <sodipodi:namedview
     id="namedview117"
     pagecolor="#ffffff"
     bordercolor="#000000"
     borderopacity="0.25"
     inkscape:showpageshadow="2"
     inkscape:pageopacity="0.0"
     inkscape:pagecheckerboard="0"
     inkscape:deskcolor="#d1d1d1"
     showgrid="false"
     inkscape:zoom="8.7205882"
     inkscape:cx="42.141653"
     inkscape:cy="34"
     inkscape:window-width="1440"
     inkscape:window-height="838"
     inkscape:window-x="-6"
     inkscape:window-y="-6"
     inkscape:window-maximized="1"
     inkscape:current-layer="svg115" />
  <path
     fill-rule="evenodd"
     clip-rule="evenodd"
     d="M65.0677 56.8408C65.3893 56.8422 65.7052 56.9262 65.9854 57.0846C66.2788 57.2412 66.521 57.4793 66.6832 57.7706C66.8411 58.0497 66.9272 58.3641 66.9335 58.6851C66.933 59.0142 66.8467 59.3375 66.6832 59.6226C66.5222 59.914 66.2831 60.1543 65.993 60.3161C65.7119 60.4792 65.3923 60.5634 65.0677 60.56C64.7409 60.5622 64.4192 60.4781 64.1348 60.3161C63.8448 60.1543 63.6057 59.914 63.4447 59.6226C63.2834 59.3369 63.1997 59.0136 63.202 58.6851C63.1996 58.3533 63.2861 58.0269 63.4522 57.7401C63.6145 57.4489 63.8567 57.2107 64.15 57.0542C64.4331 56.9063 64.7488 56.8329 65.0677 56.8408ZM65.0677 57.2066C64.802 57.2047 64.5405 57.2731 64.3093 57.4047C64.0715 57.5303 63.8762 57.724 63.748 57.9611C63.6144 58.1927 63.5437 58.4555 63.5432 58.7233C63.5458 58.9907 63.6163 59.253 63.748 59.4854C63.8739 59.7198 64.0668 59.9109 64.3017 60.0341C64.5304 60.1734 64.7927 60.247 65.0601 60.247C65.3276 60.247 65.5899 60.1734 65.8186 60.0341C66.0504 59.9066 66.2422 59.7166 66.3723 59.4854C66.5033 59.2531 66.5713 58.9903 66.5694 58.7233C66.569 58.4555 66.4983 58.1927 66.3647 57.9611C66.2416 57.7228 66.0482 57.5285 65.811 57.4047C65.5843 57.2756 65.3283 57.2074 65.0677 57.2066ZM64.2259 59.7217V57.7325H65.227C65.3354 57.7377 65.4415 57.7663 65.538 57.8163C65.6165 57.8597 65.6801 57.9262 65.72 58.0068C65.7747 58.0906 65.8037 58.1886 65.8034 58.2888C65.8032 58.427 65.7518 58.5601 65.6593 58.6623C65.554 58.7701 65.4145 58.8375 65.2649 58.8528C65.3152 58.8684 65.3617 58.8944 65.4014 58.929C65.4542 58.9698 65.5003 59.0187 65.538 59.0738C65.538 59.0738 65.6062 59.1805 65.6821 59.3177L65.9172 59.7217H65.4545L65.2877 59.4016C65.2226 59.2468 65.1272 59.1068 65.007 58.99C64.9276 58.9329 64.8317 58.9034 64.734 58.9062H64.6278V59.7217H64.2259ZM64.6278 58.5861H64.7947C64.936 58.5994 65.0781 58.5994 65.2194 58.5861C65.2728 58.5695 65.3202 58.5377 65.3559 58.4946C65.3858 58.4494 65.4016 58.3964 65.4014 58.3422C65.4108 58.2839 65.3981 58.2241 65.3658 58.1747C65.3335 58.1254 65.284 58.0899 65.227 58.0754C65.086 58.057 64.9433 58.057 64.8023 58.0754H64.6354L64.6278 58.5861Z"
     fill="#00833E"
     id="path65"
     style="fill:#ffd100;fill-opacity:1" />
  <path
     d="M71.1115 6.79071C64.8776 3.9754 57.8114 3.64843 51.3464 5.87613C49.8829 5.02105 48.1534 4.74907 46.5 5.11399C46.591 3.12479 43.9061 0.762144 42.9959 0C42.0858 0.762144 39.4388 3.12479 39.4995 5.1521C37.8461 4.78718 36.1165 5.05916 34.6531 5.91424C28.1882 3.68577 21.1217 4.01275 14.888 6.82881C4.04982 11.4017 -4.78606 27.864 2.89699 44.715C7.58417 54.9963 18.0583 56.2462 23.6177 54.0284C24.6795 60.5905 29.2757 61.5508 33.7884 62.6178C39.0975 63.8601 41.3729 65.2014 42.9732 67.2364H43.0187C44.6569 65.2014 46.9171 63.8601 52.2035 62.6178C56.7541 61.5508 61.3048 60.5905 62.3818 54.0284C67.9412 56.2462 78.4001 54.9963 83.0949 44.6769C90.7779 27.8259 81.9497 11.3712 71.1115 6.79071Z"
     fill="#00833E"
     id="path67" />
  <path
     d="M49.9223 7.14128C48.8965 6.9369 47.8486 6.86773 46.8051 6.9355C46.4876 6.93441 46.1737 7.0019 45.8845 7.13339C45.5953 7.26489 45.3376 7.45732 45.1289 7.69764C44.3986 8.51456 43.816 9.45341 43.4072 10.4718C45.4632 9.14661 47.6457 8.03089 49.9223 7.14128Z"
     fill="#FFD100"
     id="path69" />
  <path
     d="M42.9795 8.19201V8.18542L42.9729 8.19201H42.9795Z"
     fill="#FFD100"
     id="path71" />
  <path
     d="M42.9729 1.99683L42.9795 2.00341V1.99683H42.9729Z"
     fill="#FFD100"
     id="path73" />
  <path
     d="M42.9821 8.18532C43.3738 7.66054 43.7311 7.11063 44.0515 6.53909C44.6128 5.60927 44.9844 4.57276 43.9908 3.33046C43.2324 2.37778 42.9821 2.01957 42.9669 2.00433L41.9506 3.33046C41.575 3.77754 41.3652 4.34158 41.3569 4.9266C41.3486 5.51161 41.5424 6.08144 41.9051 6.53909C42.2268 7.11156 42.5866 7.66155 42.9821 8.18532Z"
     fill="#FFD100"
     id="path75" />
  <path
     d="M40.8346 7.66719C40.6244 7.42667 40.3654 7.2342 40.075 7.10273C39.7845 6.97127 39.4694 6.90386 39.1509 6.90505C38.1073 6.83771 37.0595 6.90688 36.0337 7.11082C38.3109 7.99885 40.4936 9.11465 42.5487 10.4414C42.1438 9.42273 41.5636 8.48365 40.8346 7.66719Z"
     fill="#FFD100"
     id="path77" />
  <path
     d="M69.5501 8.22383C64.6809 6.19653 53.7896 4.41311 43.0046 12.0346C32.1891 4.35976 21.2979 6.16604 16.459 8.22383C3.884 13.4293 -2.27457 31.0729 4.55143 44.0751C10.1639 54.8747 20.365 53.9144 24.3468 52.3977C25.3556 58.6473 29.6559 60.0192 34.6693 61.01C39.6826 62.0007 41.4194 62.58 43.0121 64.5311C44.529 62.58 46.2507 62.0312 51.355 61.01C56.4594 59.9887 60.6081 58.6854 61.6092 52.3977C65.591 53.922 75.7997 54.8671 81.4274 44.0751C88.2079 31.0729 82.072 13.4293 69.5501 8.22383Z"
     fill="#FFD100"
     id="path79" />
  <path
     d="M79.7667 21.7135C73.4261 7.68238 56.0426 7.23272 42.9822 16.8967C29.9142 7.20985 12.5306 7.68238 6.19003 21.7135C2.64051 29.5712 3.56581 40.607 10.3842 45.4695C14.6846 48.5181 17.6805 49.3869 24.9615 47.7559C25.3332 53.7921 28.1622 55.3012 35.0033 56.3301C37.9688 56.7721 40.5627 56.9169 42.9746 59.3786C45.3864 56.9169 47.9803 56.7721 50.9458 56.3301C57.7718 55.3012 60.6236 53.7921 60.9952 47.7559C68.2611 49.3869 71.2949 48.5409 75.5801 45.4695C82.3909 40.607 83.3162 29.5712 79.7667 21.7135Z"
     fill="#E1251B"
     id="path81" />
  <path
     d="M44.786 43.4423C44.6425 43.3892 44.4955 43.3459 44.3461 43.3128C44.2174 43.3017 44.088 43.3017 43.9593 43.3128C43.774 43.3115 43.5897 43.3398 43.4132 43.3966C43.1222 43.5154 42.849 43.6744 42.6017 43.8691C42.4192 43.9991 42.2708 44.1717 42.1694 44.3721C41.9601 44.8021 41.7924 45.2513 41.6688 45.7135C41.5356 46.1538 41.4616 46.6101 41.4489 47.0701C41.4314 47.2972 41.4787 47.5246 41.5854 47.7256C41.608 47.7682 41.6419 47.8036 41.6835 47.8278C41.725 47.8521 41.7725 47.8642 41.8205 47.8628C41.8805 47.8757 41.9425 47.8757 42.0025 47.8628C42.2496 47.7484 42.4794 47.5996 42.6851 47.4207C42.9582 47.1878 43.2118 46.9329 43.4436 46.6586C43.6048 46.4732 43.7567 46.2799 43.8986 46.0793C43.7605 46.5512 43.674 47.0367 43.6408 47.5274C43.6391 47.6114 43.6689 47.693 43.7242 47.7561C43.7427 47.7882 43.7692 47.815 43.8011 47.8337C43.833 47.8524 43.8693 47.8624 43.9062 47.8628C43.948 47.8773 43.9934 47.8773 44.0352 47.8628C44.2069 47.775 44.3694 47.6703 44.5206 47.5503L45.1728 47.0092L45.1046 46.7348H45.0515C44.8972 46.8609 44.7323 46.9731 44.5585 47.0701C44.5115 47.1026 44.4562 47.1211 44.3992 47.1235H44.3461C44.3354 47.0861 44.3354 47.0465 44.3461 47.0092C44.3429 46.9737 44.3429 46.938 44.3461 46.9025C44.39 46.6453 44.4482 46.3909 44.5206 46.1403C44.5835 45.8825 44.6594 45.6282 44.7481 45.3782C44.8846 44.8294 45.0439 44.2197 45.2487 43.5033L45.1046 43.3814L44.786 43.4423ZM43.929 45.3401C43.7664 45.7001 43.5517 46.034 43.2919 46.3309C43.0649 46.5823 42.8105 46.8073 42.5334 47.0015C42.4607 47.0534 42.3781 47.0897 42.2907 47.1082H42.2376C42.2264 47.1016 42.2166 47.0928 42.2088 47.0823C42.201 47.0719 42.1953 47.0599 42.1921 47.0473C42.1836 46.9943 42.1836 46.9402 42.1921 46.8872C42.2051 46.3301 42.2996 45.778 42.4728 45.2486C42.5682 44.8889 42.6977 44.5393 42.8596 44.2045C42.9012 44.0977 42.969 44.0033 43.0568 43.9301C43.2372 43.838 43.4388 43.7959 43.6408 43.8082C43.7731 43.8093 43.9051 43.8221 44.0352 43.8463C44.1421 43.868 44.2463 43.9012 44.3461 43.9453C44.2582 44.4168 44.1183 44.8769 43.929 45.3172V45.3401Z"
     fill="white"
     id="path83" />
  <path
     d="M47.5692 41.0034C47.3551 41.0976 47.1346 41.1765 46.9094 41.2397C46.6607 41.3028 46.4069 41.3436 46.1509 41.3616V41.636H46.6136C46.6832 41.6176 46.7564 41.6176 46.826 41.636C46.8617 41.6755 46.8807 41.7275 46.8791 41.7808C46.8888 41.8593 46.8888 41.9386 46.8791 42.0171C46.826 42.4134 46.7349 42.9088 46.6136 43.4728C46.5681 43.7167 46.4467 44.2349 46.2647 44.9971C46.022 46.0641 45.8703 46.7652 45.84 46.9482C45.8287 47.0596 45.8287 47.172 45.84 47.2835C45.8271 47.3969 45.8568 47.5111 45.9234 47.6036C45.9512 47.6371 45.986 47.664 46.0254 47.6824C46.0647 47.7009 46.1076 47.7104 46.1509 47.7103C46.2403 47.7091 46.3283 47.6883 46.4088 47.6493C46.6618 47.5392 46.899 47.3957 47.1142 47.2225C47.3948 47.0244 47.5844 46.8796 47.6602 46.811L47.5541 46.5442L47.1445 46.8415C47.0004 46.9253 46.8791 47.0015 46.8108 47.032C46.786 47.0392 46.7597 47.0392 46.7349 47.032C46.7349 47.032 46.7349 47.032 46.6743 47.032C46.6603 46.9952 46.6603 46.9545 46.6743 46.9177C46.6711 46.8695 46.6711 46.8211 46.6743 46.7729C46.7198 46.4604 46.8866 45.5992 47.1976 44.1435L47.4934 42.7487C47.683 41.8265 47.8044 41.2626 47.8499 41.072L47.683 40.9729L47.5692 41.0034Z"
     fill="white"
     id="path85" />
  <path
     d="M49.8519 46.7116C49.6939 46.8361 49.5265 46.9482 49.3513 47.0469C49.2899 47.0868 49.2195 47.1104 49.1465 47.1155C49.1383 47.1195 49.1292 47.1216 49.12 47.1216C49.1108 47.1216 49.1017 47.1195 49.0935 47.1155C49.0813 47.081 49.0813 47.0433 49.0935 47.0088C49.2039 46.2892 49.3662 45.5785 49.5789 44.8824L49.8291 43.9069C49.8337 43.8307 49.8337 43.7544 49.8291 43.6782C49.833 43.581 49.8065 43.4851 49.7533 43.4039C49.7341 43.38 49.7098 43.3608 49.6822 43.3476C49.6547 43.3344 49.6245 43.3276 49.594 43.3276C49.4391 43.34 49.2888 43.3868 49.1541 43.4648C48.7842 43.6688 48.4271 43.8953 48.0847 44.1431L48.1909 44.4099H48.2364L48.7521 44.0974L48.828 44.0517C48.8963 44.0517 48.9569 44.0517 48.9721 44.0517C48.9812 44.0841 48.9812 44.1184 48.9721 44.1508C48.8689 44.9269 48.6962 45.6921 48.4564 46.4372C48.3946 46.6452 48.344 46.8563 48.3047 47.0698C48.2821 47.1776 48.2694 47.2873 48.2667 47.3975C48.2622 47.5124 48.297 47.6253 48.3653 47.7176C48.3936 47.753 48.4294 47.7817 48.47 47.8015C48.5107 47.8213 48.5553 47.8317 48.6005 47.8319C48.7095 47.8243 48.8155 47.7931 48.9114 47.7405C49.2954 47.5165 49.6606 47.2616 50.0036 46.9783L49.8747 46.7192L49.8519 46.7116Z"
     fill="white"
     id="path87" />
  <path
     d="M46.4857 33.2373C46.4857 33.2373 46.4857 26.0731 46.4857 25.2424C46.4857 24.4116 46.4857 24.4802 46.0155 23.9467C45.6904 23.6087 45.3173 23.321 44.9081 23.0931C44.5881 22.8934 44.2174 22.7907 43.8407 22.7975C43.464 22.8042 43.0973 22.9201 42.7845 23.1312L41.4572 23.8019C41.118 23.5173 40.7551 23.2623 40.3726 23.0398C40.0714 22.8563 39.7221 22.7683 39.3703 22.7873C39.0185 22.8064 38.6806 22.9315 38.4007 23.1465L37.0127 23.9772C36.4713 23.539 35.8613 23.1939 35.2076 22.956L32.8489 24.8994L33.7514 25.3491C34.5099 25.753 34.5099 25.6539 34.5099 26.6752V36.7279H37.4906V25.7759C37.574 25.7225 37.8925 25.5168 38.0518 25.4253C38.1544 25.3714 38.2696 25.3464 38.3852 25.3527C38.5008 25.359 38.6126 25.3965 38.7088 25.4612C38.805 25.5259 38.8821 25.6155 38.932 25.7205C38.9819 25.8254 39.0027 25.942 38.9923 26.0579V36.7279H41.9805V25.7835C41.9805 25.7835 42.2839 25.5777 42.519 25.4405C42.6227 25.3821 42.7404 25.3536 42.8592 25.3582C42.9779 25.3628 43.0931 25.4003 43.192 25.4666C43.2908 25.5328 43.3696 25.6252 43.4195 25.7336C43.4694 25.842 43.4885 25.9621 43.4747 26.0807V34.1061C43.4416 34.4671 43.4929 34.8308 43.6246 35.1682C43.7563 35.5057 43.9647 35.8075 44.2331 36.0496C44.3696 36.1868 44.7565 36.4992 44.8095 36.5374C45.1487 36.805 45.5088 37.0446 45.8865 37.2538L47.8206 35.0588C47.2517 34.7387 46.4857 34.5177 46.4857 33.2373Z"
     fill="white"
     id="path89" />
  <path
     d="M25.0734 29.9753C25.4246 29.667 25.6615 29.2483 25.7455 28.7874C25.8296 28.3265 25.7557 27.8506 25.536 27.4373C25.2986 26.9854 25.0273 26.5523 24.7245 26.1417C24.6109 25.9505 24.4604 25.784 24.2821 25.6519C24.1037 25.5198 23.9009 25.4248 23.6856 25.3723C23.4702 25.3198 23.2466 25.3109 23.0278 25.3461C22.8091 25.3814 22.5994 25.4601 22.4113 25.5777C21.4404 26.0197 20.3938 26.5913 20.0752 26.7666C19.1272 27.3154 19.0362 27.6964 18.9755 28.1537C18.9148 28.611 18.9148 28.9845 18.8997 29.5408C18.8997 31.1947 18.9527 33.4201 18.9983 33.8546C19.0045 34.2573 19.1165 34.6513 19.3229 34.9966C19.5293 35.3419 19.8229 35.6263 20.1738 35.8209C21.2553 36.4822 22.436 36.9634 23.6703 37.2461L25.1872 34.9139C24.4528 34.7709 23.7321 34.5644 23.0332 34.2966C22.6009 34.1366 21.7666 33.8851 21.7666 32.879C22.9592 32.0202 24.0666 31.0478 25.0734 29.9753ZM22.8436 30.4859C22.4828 30.8812 22.0923 31.2481 21.6756 31.5834V27.9784C21.6756 27.5135 21.9638 27.3687 22.3202 27.7269C22.6767 28.0851 23.6551 29.5485 22.8436 30.4859Z"
     fill="white"
     id="path91" />
  <path
     d="M49.8523 41.1558C49.7774 41.1566 49.7036 41.1733 49.6356 41.2048C49.5677 41.2364 49.5071 41.282 49.4579 41.3387C49.3459 41.4639 49.2862 41.6277 49.2911 41.796C49.2882 41.8531 49.2968 41.9101 49.3164 41.9638C49.3359 42.0175 49.366 42.0667 49.4048 42.1085C49.4412 42.1486 49.4858 42.1803 49.5355 42.2014C49.5853 42.2224 49.6391 42.2323 49.693 42.2304C49.7726 42.2326 49.8515 42.2141 49.9219 42.1767C49.9923 42.1393 50.0519 42.0843 50.095 42.017C50.1908 41.8841 50.2413 41.7237 50.2391 41.5597C50.2428 41.4506 50.2048 41.3443 50.1329 41.2625C50.0961 41.2261 50.0521 41.1978 50.0038 41.1794C49.9555 41.161 49.9039 41.153 49.8523 41.1558Z"
     fill="white"
     id="path93" />
  <path
     d="M31.0963 34.9596C30.3379 34.5405 29.5794 34.2813 29.5794 33.0238V22.6586L26.667 24V33.5954C26.667 34.9368 26.978 35.6456 27.7743 36.24C28.3484 36.6254 28.952 36.9644 29.5794 37.2537L31.0963 34.9596Z"
     fill="white"
     id="path95" />
  <path
     d="M40.9574 46.6278C40.7888 46.7731 40.6115 46.908 40.4265 47.0317C40.3838 47.0616 40.3342 47.08 40.2824 47.0851C40.2717 47.0899 40.26 47.0924 40.2483 47.0924C40.2365 47.0924 40.2249 47.0899 40.2141 47.0851C40.2022 47.0401 40.2022 46.9928 40.2141 46.9479C40.2057 46.8541 40.2057 46.7597 40.2141 46.6659C40.2141 46.4601 40.3279 46.1019 40.4417 45.6065C40.5554 45.1111 40.6237 44.7148 40.7147 44.2194L40.874 43.4115L40.7754 43.3048L40.2748 43.442C40.1953 43.8676 40.0889 44.2876 39.9563 44.6996C39.8674 44.968 39.7451 45.2241 39.5922 45.4617C39.3737 45.8077 39.1195 46.1296 38.8338 46.422C38.609 46.6495 38.3537 46.8445 38.0753 47.0012C37.9616 47.0622 37.8706 47.0851 37.8175 47.0012C37.8022 46.962 37.8022 46.9185 37.8175 46.8793C37.9492 45.8765 38.1571 44.8854 38.4394 43.9145C38.479 43.7804 38.5044 43.6425 38.5152 43.503C38.5137 43.429 38.4899 43.3573 38.447 43.2972C38.4251 43.2726 38.3982 43.2531 38.3681 43.2399C38.338 43.2268 38.3054 43.2203 38.2725 43.221C38.113 43.2384 37.9597 43.2932 37.8251 43.381C37.448 43.581 37.0855 43.8077 36.7405 44.0594L36.8694 44.3261H36.9149C37.1162 44.1548 37.3478 44.0229 37.5975 43.9374C37.6059 43.9339 37.6149 43.932 37.6241 43.932C37.6332 43.932 37.6422 43.9339 37.6506 43.9374C37.6556 43.9495 37.6582 43.9624 37.6582 43.9755C37.6582 43.9886 37.6556 44.0016 37.6506 44.0136C37.6368 44.1828 37.6114 44.3509 37.5748 44.5166C37.4989 44.9282 37.3776 45.4769 37.2107 46.1476C37.0881 46.5055 37.0067 46.8763 36.968 47.2527C36.9586 47.3978 36.9958 47.5421 37.0742 47.6643C37.1371 47.7365 37.2236 47.7838 37.3181 47.7978C37.4126 47.8118 37.509 47.7915 37.5899 47.7405C37.9034 47.5906 38.1965 47.4011 38.4621 47.1765C38.754 46.9437 39.0278 46.6889 39.2813 46.4144L39.7667 45.7666L39.615 46.4144C39.5164 46.8412 39.4557 47.1079 39.433 47.2451V47.2527C39.4296 47.3111 39.4296 47.3697 39.433 47.428C39.4279 47.5206 39.4547 47.6121 39.5088 47.6872C39.5312 47.7167 39.5598 47.7409 39.5926 47.7581C39.6253 47.7752 39.6615 47.7848 39.6984 47.7862C39.8352 47.7718 39.9672 47.7275 40.0852 47.6567C40.454 47.4206 40.811 47.1663 41.1546 46.8945L41.0105 46.6202L40.9574 46.6278Z"
     fill="white"
     id="path97" />
  <path
     d="M39.7041 48.076C39.6867 48.0502 39.6628 48.0296 39.6348 48.0162C39.6068 48.0028 39.5757 47.9971 39.5449 47.9998C39.5107 48.0099 39.4796 48.0284 39.4544 48.0537C39.4292 48.079 39.4108 48.1103 39.4008 48.1446C39.4208 48.2671 39.4142 48.3925 39.3814 48.5122C39.3487 48.6319 39.2906 48.7431 39.2111 48.8382C38.8049 49.1294 38.3004 49.2472 37.808 49.1659C37.0928 49.1286 36.3907 48.958 35.7375 48.6629C35.3052 48.4952 34.979 48.3885 34.7439 48.3275L34.5695 48.2818C33.9444 48.0629 33.306 47.8847 32.6582 47.7483C33.3345 47.6253 33.9738 47.3485 34.5273 46.939C35.0807 46.5294 35.5336 45.9981 35.8512 45.3856C36.2176 44.7735 36.4528 44.0913 36.5416 43.3826C36.6304 42.6739 36.5709 41.9543 36.367 41.2701C36.2127 40.8857 35.9766 40.5398 35.6752 40.2567C35.3739 39.9737 35.0146 39.7603 34.6226 39.6315C33.566 39.2434 32.404 39.2623 31.3605 39.6846C30.3171 40.1068 29.4662 40.9024 28.9721 41.9179C28.649 42.5785 28.4411 43.29 28.3578 44.0214C28.1075 46.4069 29.412 47.2681 30.216 47.573C30.5944 47.7096 30.9902 47.7917 31.3916 47.8169C31.0124 48.0475 30.7112 48.3874 30.527 48.7924C30.5038 48.8289 30.4835 48.8671 30.4663 48.9067C30.447 48.9377 30.4357 48.9729 30.4333 49.0093C30.4309 49.0457 30.4376 49.0821 30.4526 49.1153C30.4676 49.1485 30.4906 49.1775 30.5194 49.1996C30.5483 49.2217 30.5821 49.2363 30.618 49.2421C30.6357 49.2393 30.6525 49.2322 30.667 49.2217C30.6815 49.2111 30.6933 49.1972 30.7014 49.1811C30.7676 48.9926 30.8714 48.8197 31.0063 48.6729C31.1412 48.526 31.3045 48.4084 31.4862 48.327C31.6679 48.2457 31.8642 48.2025 32.0631 48.2C32.262 48.1974 32.4593 48.2356 32.643 48.3123C33.1967 48.4799 34.5846 48.9906 35.4113 49.2954L36.0181 49.5165C36.6729 49.7588 37.3612 49.8976 38.0583 49.928C38.2991 49.9611 38.5444 49.9275 38.7676 49.8308C38.9908 49.7341 39.1835 49.578 39.3249 49.3793C39.5297 49.0058 39.6662 48.6857 39.689 48.6171C39.7286 48.5231 39.749 48.422 39.749 48.3199C39.749 48.2178 39.7286 48.1167 39.689 48.0227L39.7041 48.076ZM31.3612 47.3139C29.5713 46.9404 29.3362 45.378 29.4575 44.1281C29.4965 43.7323 29.5649 43.3399 29.6623 42.9544C30.0188 41.5521 30.8455 39.9897 32.7795 39.9897C33.0468 39.99 33.3134 40.0155 33.5759 40.0659C33.8597 40.1078 34.1314 40.2096 34.3733 40.3646C34.6151 40.5196 34.8215 40.7243 34.979 40.9652C35.472 41.7274 35.5554 42.9087 35.2066 44.4025C34.6529 46.8109 32.8781 47.5882 31.3688 47.2529L31.3612 47.3139Z"
     fill="white"
     id="path99" />
  <path
     d="M69.3363 33.1457V27.8107H71.0428V25.6767H69.3363V22.9178L66.4239 24.3125V25.6996H64.907V27.8336H66.4239V34.0908C66.4239 35.3102 67.1823 35.9276 68.0849 36.4992L69.6017 37.2613L71.1186 34.9749C69.9203 34.449 69.3363 34.1899 69.3363 33.1457Z"
     fill="white"
     id="path101" />
  <path
     d="M64.2024 33.4352V27.803C64.2383 27.5599 64.2179 27.3117 64.143 27.0778C64.068 26.8439 63.9404 26.6304 63.7701 26.454C63.4702 26.1376 63.1399 25.8517 62.7841 25.6004C62.3746 25.2955 62.1167 25.0745 61.1611 25.5394C60.6424 25.7665 60.1361 26.0209 59.6442 26.3016C59.2825 25.9259 58.8624 25.6118 58.4003 25.3718L56.125 27.2238L56.4891 27.4753C57.02 27.9021 57.1868 27.8487 57.1868 28.8395V36.7277H60.0689V28.0774C60.0689 28.0774 60.2434 27.9402 60.4861 27.7878C60.7288 27.6353 61.3203 27.6658 61.3203 28.1841V34.1745C61.2621 34.5067 61.276 34.8475 61.3611 35.1738C61.4462 35.5 61.6005 35.8039 61.8133 36.0646C62.0142 36.263 62.2269 36.4488 62.4504 36.621C62.7669 36.8971 63.1014 37.1517 63.4516 37.3832L65.3325 35.1882C64.392 34.5937 64.2024 34.5708 64.2024 33.4352Z"
     fill="white"
     id="path103" />
  <path
     d="M13.0303 22.8109C11.7301 22.817 10.4339 22.9575 9.16225 23.2301L8.17627 26.233C9.46441 25.8199 10.7909 25.539 12.1353 25.3946C12.3401 25.3946 14.7141 24.9373 14.7141 27.4676V32.5283C14.7141 34.3879 13.3868 34.1745 12.6663 34.1821V25.6537L9.78417 26.9646V34.4108C9.67768 35.3091 9.24569 36.1366 8.57066 36.7353H13.2654C15.3967 36.7353 17.6113 36.1942 17.6113 32.5207V27.3457C17.6113 24.2361 15.6697 22.7652 13.0303 22.8109Z"
     fill="white"
     id="path105" />
  <path
     d="M74.7213 32.7723C75.9145 31.9228 77.0221 30.9579 78.0281 29.8914C78.3883 29.5808 78.6304 29.1546 78.7133 28.685C78.7963 28.2155 78.715 27.7315 78.4832 27.3154C78.2606 26.8663 78.0072 26.4334 77.7248 26.0197C77.6104 25.8293 77.4596 25.6636 77.2812 25.5321C77.1027 25.4006 76.9001 25.3059 76.6851 25.2534C76.47 25.201 76.2467 25.1919 76.0282 25.2266C75.8096 25.2613 75.6 25.3392 75.4115 25.4557C74.4331 25.8978 73.3865 26.4694 73.0679 26.6523C72.1198 27.1934 72.0288 27.5821 71.9682 28.0394C71.9682 28.3747 71.9075 28.8701 71.8999 29.4265C71.8999 31.0804 71.9454 33.2982 71.9909 33.7326C71.9936 34.1403 72.1029 34.5401 72.3079 34.8919C72.5129 35.2438 72.8064 35.5352 73.1589 35.7371C74.2258 36.386 75.3879 36.8618 76.6023 37.147L78.1192 34.8149C77.3794 34.6668 76.6537 34.4552 75.95 34.1823C75.5632 34.0146 74.7213 33.7631 74.7213 32.7723ZM74.6303 27.8946C74.6303 27.4297 74.9261 27.2925 75.275 27.6507C75.6239 28.0089 76.6098 29.4646 75.7983 30.3639C75.4375 30.7593 75.047 31.1262 74.6303 31.4614V27.8946Z"
     fill="white"
     id="path107" />
  <path
     d="M52.9254 36.5828C53.5159 36.2557 54.079 35.8811 54.6091 35.4625C54.8968 35.2829 55.1297 35.0272 55.2823 34.7233C55.4348 34.4195 55.5011 34.0792 55.4738 33.74V28.2526C55.4738 27.2923 55.4738 26.9188 54.8974 26.4311C54.4999 26.1045 54.0819 25.8041 53.6459 25.5317C53.0013 25.1126 52.531 25.0668 51.4464 25.5317C50.9231 25.768 50.286 26.0576 49.5427 26.4463C48.6478 26.9112 48.2837 27.3456 48.2837 28.1078V34.083C48.2739 34.434 48.3581 34.7811 48.5275 35.0882C48.697 35.3952 48.9455 35.6508 49.247 35.8283C49.7195 36.1919 50.2278 36.506 50.7638 36.7657C51.5754 37.2535 52.1139 36.9868 52.9254 36.5828ZM51.4085 34.1592C51.2341 33.9915 51.1279 33.9534 51.1279 33.6028V28.1154C51.1276 28.0195 51.1545 27.9255 51.2056 27.8445C51.2566 27.7635 51.3297 27.6988 51.4161 27.6581C51.7726 27.4523 51.856 27.5971 52.1745 27.8639C52.2805 27.9375 52.366 28.037 52.423 28.153C52.4801 28.269 52.5068 28.3977 52.5007 28.527V34.1668C52.5007 34.5022 52.3262 34.8299 51.9015 34.525C51.7352 34.4109 51.5825 34.2779 51.4464 34.1287L51.4085 34.1592Z"
     fill="white"
     id="path109" />
  <path
     d="M52.2658 46.872C52.1653 46.9448 52.0587 47.0085 51.9472 47.0626C51.8638 47.0626 51.7955 47.0626 51.7576 47.0626C51.7488 47.0435 51.7442 47.0227 51.7442 47.0016C51.7442 46.9805 51.7488 46.9597 51.7576 46.9406C51.7576 46.8797 51.7576 46.7882 51.7576 46.6967C51.7955 46.4376 51.8638 46.0413 51.9851 45.4011C52.1065 44.7609 52.1747 44.4179 52.2278 44.174L53.1607 44.2121L53.2896 43.6939L53.1986 43.6177C52.9951 43.6666 52.7858 43.6872 52.5767 43.6786H52.334C52.4402 43.1299 52.516 42.7869 52.5388 42.6726C52.5615 42.5583 52.5388 42.5431 52.6298 42.2992L52.7436 41.8647L52.5919 41.7504L52.2582 41.9105L51.8562 42.0934C51.7803 42.6421 51.7348 42.9775 51.7121 43.107C51.6893 43.2366 51.6666 43.3814 51.6211 43.6101L51.3329 43.7396C51.257 43.7777 51.0977 43.8387 50.8778 43.9225H50.8247V44.1283H51.5832C51.439 44.8905 51.3404 45.4087 51.2646 45.7212L51.0674 46.6434C51.0674 46.7501 51.0674 46.8492 51.0143 46.9254C50.9612 47.0016 51.0143 46.9864 51.0143 47.0092C51.007 47.0954 51.007 47.1821 51.0143 47.2683C51.0121 47.4044 51.0461 47.5386 51.1129 47.657C51.1404 47.6939 51.1758 47.724 51.2165 47.7451C51.2573 47.7662 51.3022 47.7778 51.348 47.779C51.4238 47.7802 51.4989 47.7645 51.568 47.7333C51.7794 47.6319 51.9802 47.5093 52.1672 47.3674C52.4402 47.1769 52.7056 46.9787 52.9787 46.7501L52.7512 46.491L52.2658 46.872Z"
     fill="white"
     id="path111" />
  <path
     d="M57.5128 43.2591C57.3082 43.3371 57.0977 43.3982 56.8833 43.442C56.7089 44.2042 56.5799 44.6615 56.4813 44.9282C56.3361 45.3423 56.1399 45.7366 55.8973 46.1019C55.7661 46.2989 55.6162 46.4826 55.4498 46.6506C55.3365 46.7794 55.2064 46.8922 55.063 46.986C54.9644 47.0317 54.881 47.0393 54.8431 46.986C54.8044 46.8974 54.7888 46.8004 54.7976 46.704C54.7976 46.361 54.7976 45.8123 54.8962 45.1187C54.9948 44.4252 54.972 44.0746 54.972 43.8841C54.9851 43.7195 54.9564 43.5543 54.8886 43.4039C54.8583 43.3592 54.8154 43.3244 54.7655 43.3041C54.7156 43.2837 54.6608 43.2787 54.608 43.2896C54.4569 43.3035 54.3126 43.3589 54.1908 43.4496C53.8543 43.6768 53.5372 43.9317 53.2428 44.2118L53.402 44.4633H53.44L53.5537 44.3718C53.7046 44.2248 53.8859 44.1129 54.0846 44.0441C54.0918 44.0407 54.0995 44.039 54.1074 44.039C54.1153 44.039 54.123 44.0407 54.1302 44.0441C54.1559 44.0711 54.1719 44.106 54.1757 44.1432C54.192 44.285 54.192 44.4282 54.1757 44.57C54.1757 45.0501 54.1757 45.6141 54.0771 46.2924C54.0394 46.5296 54.0166 46.7689 54.0088 47.0089C53.9936 47.2468 54.0519 47.4837 54.1757 47.6872C54.3021 47.8955 54.5068 47.9107 54.79 47.7329C55.0682 47.5057 55.3224 47.2503 55.5484 46.9707C55.7336 46.7685 55.9059 46.5547 56.0642 46.3305L55.776 47.2527C55.6366 47.7455 55.4669 48.2292 55.2678 48.7008C55.165 48.9591 55.0244 49.2006 54.8507 49.4172C54.7696 49.5179 54.6689 49.6009 54.5549 49.6611C54.4524 49.7084 54.3415 49.7343 54.2287 49.7373C54.1573 49.7382 54.0865 49.7237 54.0211 49.6948C53.9557 49.6658 53.8972 49.6232 53.8495 49.5697C53.7956 49.513 53.7537 49.446 53.7264 49.3727C53.699 49.2993 53.6867 49.2211 53.6902 49.1429C53.684 49.0999 53.684 49.0563 53.6902 49.0133L53.5461 48.9523L53.0683 49.2724C53.0622 49.3281 53.0622 49.3844 53.0683 49.4401C53.066 49.5772 53.1028 49.7121 53.1745 49.8288C53.2477 49.9492 53.3527 50.0468 53.4779 50.1108C53.6041 50.1775 53.7449 50.2116 53.8874 50.2099C54.097 50.2067 54.3035 50.16 54.4942 50.0727C54.7313 49.9584 54.9468 49.8037 55.1313 49.6154C55.4369 49.353 55.6937 49.0381 55.8897 48.6856C56.1246 48.2556 56.3177 47.8038 56.4662 47.3366C56.5572 47.0698 56.6937 46.6202 56.9061 45.8809C57.1791 44.9358 57.3687 44.3566 57.4749 44.0136C57.5811 43.6707 57.6493 43.5563 57.7176 43.3963L57.5735 43.2667L57.5128 43.2591Z"
     fill="white"
     id="path113" />
</svg>
