<svg width="557" height="216" viewBox="0 0 557 216" fill="none" xmlns="http://www.w3.org/2000/svg">
<g clip-path="url(#clip0_2695_6)">
<mask id="mask0_2695_6" style="mask-type:luminance" maskUnits="userSpaceOnUse" x="0" y="0" width="557" height="216">
<path d="M556.75 0H0V215.95H556.75V0Z" fill="white"/>
</mask>
<g mask="url(#mask0_2695_6)">
<path d="M282.151 76.3499V50.5099H376.961C383.371 50.5099 383.371 56.2699 381.231 59.4799L328.271 142.54H381.231V168.38H286.851C280.441 168.38 280.441 162.61 282.581 159.41L335.751 76.3499H282.151Z" fill="black"/>
<path d="M393.402 22.9699C393.402 13.1499 401.302 4.81995 411.552 4.81995C421.802 4.81995 429.702 12.9299 429.702 22.9699C429.702 33.0099 421.372 41.1199 411.552 41.1199C401.732 41.1199 393.402 33.0099 393.402 22.9699ZM426.492 168.39H396.602V50.5199H426.492V168.39Z" fill="black"/>
<path d="M526.852 57.3499V7.80994H556.742V108.17C556.742 144.47 533.042 170.31 498.872 170.31C464.702 170.31 440.582 144.47 440.582 110.31C440.582 76.1499 464.712 49.0299 498.872 49.0299C508.912 49.0299 518.942 52.6599 526.842 57.3599L526.852 57.3499ZM498.672 139.56C515.112 139.56 528.562 126.11 528.562 109.45C528.562 92.7899 515.112 79.7699 498.672 79.7699C482.232 79.7699 468.782 93.0099 468.782 109.45C468.782 125.89 482.022 139.56 498.672 139.56Z" fill="black"/>
<path fill-rule="evenodd" clip-rule="evenodd" d="M107.97 19.31C102.42 19.31 97.96 23.77 97.96 29.32C97.96 40.57 101.51 51.47 107.97 60.51C114.43 51.47 117.98 40.56 117.98 29.32C117.98 23.77 113.52 19.31 107.97 19.31ZM121.31 74.88C131.6 62.01 137.29 45.95 137.29 29.32C137.29 12.69 124.19 0 107.97 0C91.75 0 78.65 13.11 78.65 29.32C78.65 45.53 84.35 62.02 94.63 74.88L74.88 94.63C62.01 84.34 45.95 78.65 29.32 78.65C12.69 78.65 0 91.76 0 107.97C0 124.18 13.11 137.29 29.32 137.29C45.53 137.29 62.02 131.59 74.88 121.31L94.63 141.06C84.34 153.93 78.65 169.99 78.65 186.62C78.65 203.25 91.76 215.94 107.97 215.94C124.18 215.94 137.29 202.83 137.29 186.62C137.29 170.41 131.59 153.92 121.31 141.06L141.06 121.31C153.93 131.6 169.99 137.29 186.62 137.29C203.25 137.29 215.94 124.18 215.94 107.97C215.94 91.76 202.83 78.65 186.62 78.65C170.41 78.65 153.92 84.35 141.06 94.63L121.31 74.88ZM107.97 88.86L88.85 107.98L107.97 127.1L127.09 107.98L107.97 88.86ZM155.43 107.97C164.47 114.43 175.38 117.98 186.62 117.98C192.17 117.98 196.63 113.52 196.63 107.97C196.63 102.42 192.17 97.96 186.62 97.96C175.37 97.96 164.47 101.51 155.43 107.97ZM107.97 155.43C101.51 164.47 97.96 175.38 97.96 186.62C97.96 192.17 102.42 196.63 107.97 196.63C113.52 196.63 117.98 192.17 117.98 186.62C117.98 175.37 114.43 164.47 107.97 155.43ZM60.51 107.97C51.47 101.51 40.56 97.96 29.32 97.96C23.77 97.96 19.31 102.42 19.31 107.97C19.31 113.52 23.77 117.98 29.32 117.98C40.57 117.98 51.47 114.43 60.51 107.97Z" fill="black"/>
<path fill-rule="evenodd" clip-rule="evenodd" d="M107.97 19.31C102.42 19.31 97.96 23.77 97.96 29.32C97.96 40.57 101.51 51.47 107.97 60.51C114.43 51.47 117.98 40.56 117.98 29.32C117.98 23.77 113.52 19.31 107.97 19.31ZM121.31 74.88C131.6 62.01 137.29 45.95 137.29 29.32C137.29 12.69 124.19 0 107.97 0C91.75 0 78.65 13.11 78.65 29.32C78.65 45.53 84.35 62.02 94.63 74.88L74.88 94.63C62.01 84.34 45.95 78.65 29.32 78.65C12.69 78.65 0 91.76 0 107.97C0 124.18 13.11 137.29 29.32 137.29C45.53 137.29 62.02 131.59 74.88 121.31L94.63 141.06C84.34 153.93 78.65 169.99 78.65 186.62C78.65 203.25 91.76 215.94 107.97 215.94C124.18 215.94 137.29 202.83 137.29 186.62C137.29 170.41 131.59 153.92 121.31 141.06L141.06 121.31C153.93 131.6 169.99 137.29 186.62 137.29C203.25 137.29 215.94 124.18 215.94 107.97C215.94 91.76 202.83 78.65 186.62 78.65C170.41 78.65 153.92 84.35 141.06 94.63L121.31 74.88ZM107.97 88.86L88.85 107.98L107.97 127.1L127.09 107.98L107.97 88.86ZM155.43 107.97C164.47 114.43 175.38 117.98 186.62 117.98C192.17 117.98 196.63 113.52 196.63 107.97C196.63 102.42 192.17 97.96 186.62 97.96C175.37 97.96 164.47 101.51 155.43 107.97ZM107.97 155.43C101.51 164.47 97.96 175.38 97.96 186.62C97.96 192.17 102.42 196.63 107.97 196.63C113.52 196.63 117.98 192.17 117.98 186.62C117.98 175.37 114.43 164.47 107.97 155.43ZM60.51 107.97C51.47 101.51 40.56 97.96 29.32 97.96C23.77 97.96 19.31 102.42 19.31 107.97C19.31 113.52 23.77 117.98 29.32 117.98C40.57 117.98 51.47 114.43 60.51 107.97Z" fill="black"/>
</g>
</g>
<defs>
<clipPath id="clip0_2695_6">
<rect width="557" height="216" fill="white"/>
</clipPath>
</defs>
</svg>
