<svg width="173" height="50" viewBox="0 0 173 50" fill="none" xmlns="http://www.w3.org/2000/svg">
<path d="M47.9697 0.354012C42.1135 1.30647 36.7798 4.29029 32.9037 8.78288L32.0105 9.79434L31.5892 10.3675L31.1679 10.9238L30.6287 11.8004L30.4096 12.087L29.7692 13.1659V13.3007C28.9013 14.9107 28.2019 16.6049 27.6964 18.3581L30.0557 17.9366H30.4096L30.9151 17.7849L31.4881 17.5658L31.842 16.7229L32.2128 15.9306L32.6341 15.172V15.0708L32.988 14.4302L33.1397 14.2111L33.4936 13.6379L33.6958 13.2839L34.0497 12.7782L34.4036 12.2724L34.6227 11.9184L35.263 11.1261C36.3079 9.93763 37.4791 8.86717 38.7515 7.92313C40.8917 6.33008 43.31 5.14161 45.88 4.41673C44.7425 8.53844 42.4 12.2303 39.1391 15.0034C38.4734 15.5175 37.7825 15.998 37.0662 16.4363L35.8529 17.1443L34.5721 17.7849L34.353 17.9366L33.78 18.2232L33.3587 18.4255H33.1397L32.6341 18.6447L32.0611 18.8638L31.5555 18.9987H31.3365L30.8309 19.1504H30.477L27.5447 19.7235H24.4102C24.6292 20.8362 24.7725 21.9656 24.8483 23.0951H27.848L28.9097 22.9434L31.2016 22.5219H31.3365L33.6958 21.7802L34.4036 21.4936L34.7743 21.3587C37.0157 20.4316 39.1054 19.1841 40.976 17.65L41.4815 17.2286C45.9811 13.385 48.9724 8.07485 49.9077 2.22522L50.0425 1.21376L50.2616 0L47.9697 0.354012Z" fill="#1B5C66"/>
<path d="M2.29191 49.6459C5.22422 49.1992 8.04698 48.2214 10.6338 46.7801C13.1869 45.3556 15.4704 43.5012 17.3747 41.2845L18.2342 40.2056L18.6555 39.6493L19.0937 39.0761L19.6498 38.2163L19.8689 37.9298L20.5093 36.8509V36.716C21.3856 35.1145 22.0765 33.4119 22.5821 31.6587L20.2228 32.0296H19.8689L19.3633 32.1644L18.7903 32.3836L18.4364 33.2265L18.0151 34.2379L17.6612 34.9459V35.0977L17.3073 35.7383L17.1557 36.0248L16.8018 36.598L16.4984 37.0869L16.1277 37.5926L15.7738 38.0983L15.5547 38.4524L14.9143 39.2447C13.8695 40.4331 12.6982 41.5036 11.4259 42.4476C9.2772 44.0154 6.85046 45.1617 4.28049 45.8529C5.43487 41.7396 7.77734 38.0646 11.0214 35.2831C11.6787 34.6762 12.3696 34.1199 13.0942 33.5973L14.3076 32.8724L15.521 32.1644L15.9254 32.0296L16.4984 31.743L16.9197 31.5407H17.1388L17.6444 31.3215L18.2005 31.1024L18.7061 30.9675H18.8577L19.3633 30.8158H19.7172L22.6327 30.2426H25.784C25.565 29.13 25.4217 28.0006 25.3627 26.8711H22.4136L21.335 27.0228L19.1274 27.4443H18.9757L16.7006 28.1523L15.976 28.4389L15.5547 28.658C13.3133 29.602 11.2236 30.8748 9.35303 32.4341L8.84746 32.8724C4.3479 36.716 1.36504 42.0346 0.421308 47.8758L0.269637 48.8704L0 49.9999L2.29191 49.6459Z" fill="#1B5C66"/>
<path d="M8.78005 17.2117C11.6112 19.5887 14.9311 21.3166 18.5038 22.2691C18.4027 21.4767 18.2511 20.6844 18.0657 19.909V19.555L17.9309 19.0492L17.7118 18.5435C15.285 17.6753 13.0353 16.3773 11.072 14.7168C7.75206 11.969 5.34218 8.28557 4.14567 4.147C8.28291 5.2849 11.982 7.63655 14.7795 10.8901C16.035 12.3399 17.0967 13.9498 17.9309 15.6777L18.0657 15.8968L18.3522 16.47L18.5712 16.9757L18.7735 17.532V18.1052L18.9926 18.6784L19.1274 19.2515V19.6055C19.3886 20.5411 19.5824 21.502 19.7003 22.4714V25.472L20.6441 25.3203H20.7789L21.9249 25.1686H23.0708V23.6008C22.9697 22.0836 22.7338 20.5833 22.3462 19.1167V18.9649C22.1439 18.1895 21.9249 17.4646 21.6384 16.6723L21.3519 15.9643L21.2171 15.5428C20.1975 13.09 18.7988 10.8227 17.0714 8.79974C13.2712 4.35772 8.04698 1.38233 2.29191 0.37087L0 0L0.353898 2.20836C1.2892 8.05799 4.28049 13.3682 8.78005 17.2117Z" fill="#1B5C66"/>
<path d="M41.4818 32.7878C38.6591 30.3772 35.3392 28.624 31.758 27.6462C31.8592 28.4385 32.0108 29.2309 32.1962 30.0063V30.3435L32.331 30.8492L32.5501 31.4224C39.0972 33.774 44.1192 39.1432 46.0319 45.8357C39.9904 44.1752 34.9684 39.9861 32.2468 34.3388L32.1119 34.1196L31.8255 33.5633L31.6064 33.0576L31.4041 32.4844V31.9112L31.1851 31.3381L31.0334 30.7649V30.4109C30.7806 29.4669 30.5952 28.5144 30.4604 27.5451V24.5781L29.5335 24.713H29.3987L28.2528 24.8647H26.8203V26.365C26.9214 27.8822 27.1574 29.3826 27.545 30.8492V31.0009C27.7388 31.7764 27.9747 32.5434 28.2528 33.2936L28.5393 34.0016L28.6741 34.423C32.0277 42.4895 39.3247 48.2295 47.9531 49.595L50.245 49.949L49.8911 47.7406C48.9558 41.8994 45.9645 36.5808 41.465 32.7373" fill="#1B5C66"/>
<path d="M163.577 16.2848H160.358V4.48435H163.577C167.284 4.48435 170.318 6.69271 170.318 10.4014C170.318 14.1101 167.318 16.3353 163.577 16.3353M163.577 1.83768H157.645V18.9314H163.577C168.784 18.9314 172.997 15.5599 172.997 10.3508C172.997 5.1418 168.784 1.78711 163.577 1.78711" fill="#1B5C66"/>
<path d="M61.4023 18.9314H64.0313C64.0313 14.8687 67.3175 11.573 71.3789 11.5646H72.1036V8.93479H71.3789C68.5814 8.94322 65.9103 10.1317 64.0313 12.2052V4.43377H73.3169V1.78711H61.4023V18.9314Z" fill="#1B5C66"/>
<path d="M77.2513 1.78711H74.6055V18.9314H85.1719V16.2848H77.2513V1.78711Z" fill="#1B5C66"/>
<path d="M98.587 10.637C98.7555 13.7473 96.3709 16.4108 93.2617 16.5794C90.1524 16.7479 87.4897 14.3626 87.3212 11.2523C87.3128 11.05 87.3128 10.8393 87.3212 10.637V10.1144C87.4897 7.00416 90.1524 4.61036 93.2617 4.78737C96.135 4.94752 98.4353 7.24017 98.587 10.1144V10.637ZM92.9583 1.78669C88.3071 1.78669 84.5322 5.56283 84.5322 10.2156V10.7213C84.4647 15.374 88.1891 19.2007 92.8403 19.2682C97.4916 19.3356 101.317 15.61 101.384 10.9573V10.1144C101.384 5.46168 97.6095 1.68555 92.9583 1.68555" fill="#1B5C66"/>
<path d="M115.743 1.78669L113.586 6.74287L115.018 10.1144L118.658 1.68555L115.743 1.78669Z" fill="#1B5C66"/>
<path d="M123.09 1.78669L117.225 15.2729L115.018 10.1144L113.602 6.74287L111.445 1.68555H108.53L112.17 10.1144L109.945 15.2897L104.097 1.80355H101.098L108.53 18.9479H111.209L113.602 13.486L115.961 18.9816H118.59L125.938 1.78669H123.09Z" fill="#1B5C66"/>
<path d="M132.214 11.278C130.942 11.278 129.687 11.5224 128.507 12.0029L131.422 5.36095L133.917 11.2106L132.214 11.278ZM130.074 1.78711L123.721 16.5713L123.3 17.4985L122.727 18.864H125.575L126.367 17.1782C127.631 15.1216 129.88 13.8741 132.299 13.891H135.079L137.287 18.9483H140.152L132.72 1.78711H130.074Z" fill="#1B5C66"/>
<path d="M149.152 11.4287H144.72V4.43275H149.152C151.099 4.23888 152.826 5.66336 153.02 7.61043C153.214 9.5575 151.79 11.2854 149.843 11.4793C149.725 11.4877 149.607 11.4961 149.489 11.4961H149.152M155.354 8.00659C155.362 4.61818 152.624 1.86194 149.236 1.85352C149.228 1.85352 149.228 1.85352 149.22 1.85352H142.074V18.9978H144.72V14.0754H148.579L151.646 18.9304H155.017L154.646 18.5427L151.495 13.6371C153.837 12.7099 155.371 10.4425 155.354 7.9223" fill="#1B5C66"/>
<path d="M73.6867 41.7059C74.3102 37.8286 73.6867 33.8502 71.9003 30.3438L69.4062 31.4901C70.7459 34.1536 71.3358 37.1458 71.0914 40.1212H66.693C65.4459 40.1297 64.2747 39.4975 63.609 38.4355L61.4688 40.1212C62.6653 41.8239 64.6117 42.8353 66.693 42.8353H73.4339L73.6867 41.7059Z" fill="#1B5C66"/>
<path d="M80.4526 31.5744C80.4526 31.5744 82.8119 36.2945 81.0929 40.3572C79.7953 43.0461 77.3601 45.01 74.4531 45.718L75.3126 48.2804C79.5257 46.8643 82.3232 44.5717 83.6039 41.3518C84.8257 37.7274 84.5392 33.7574 82.8119 30.3438L80.4526 31.5744Z" fill="#1B5C66"/>
<path d="M90.0242 36.7166C90.0242 34.8538 91.5324 33.345 93.3946 33.345C95.2568 33.345 96.7651 34.8538 96.7651 36.7166C96.7651 38.5794 95.2568 40.0881 93.3946 40.0881C91.5324 40.0881 90.0242 38.5794 90.0242 36.7166ZM93.3946 30.5804C90.0157 30.8164 87.471 33.7496 87.707 37.1296C87.9092 40.0376 90.1337 42.4061 93.0239 42.7854C91.1533 44.0329 89.1057 44.9937 86.957 45.6512L87.8165 48.2136C99.394 44.4374 99.6131 38.0989 99.6131 36.9357V36.6492C99.6215 33.2608 96.883 30.5045 93.4957 30.4961C93.4873 30.4961 93.4873 30.4961 93.4789 30.4961" fill="#1B5C66"/>
<path d="M167.572 26.8711C168.364 26.8289 168.97 26.163 168.937 25.3707C168.894 24.5784 168.229 23.9715 167.437 24.0052C166.645 24.0474 166.038 24.7133 166.072 25.5056C166.089 25.868 166.24 26.2136 166.51 26.4665C166.796 26.7362 167.175 26.8879 167.572 26.8711Z" fill="#1B5C66"/>
<path d="M167.57 35.8562C166.112 35.8225 164.958 34.6087 164.992 33.1421C165.025 31.6839 166.239 30.5292 167.705 30.5629C169.162 30.5966 170.317 31.8104 170.283 33.277C170.266 33.9682 169.98 34.634 169.474 35.1145C168.96 35.6034 168.278 35.8731 167.57 35.8562ZM172.929 33.2096C172.954 30.251 170.578 27.8235 167.62 27.7982C164.663 27.7729 162.236 30.1499 162.211 33.1084C162.186 36.0585 164.545 38.4776 167.503 38.5197C168.421 38.5282 169.323 38.3006 170.131 37.8623C169.778 39.2783 168.522 40.2729 167.064 40.2898H115.808C116.432 39.3373 116.752 38.2247 116.735 37.0868V23.8535H114.089V37.0868C114.098 38.8569 112.674 40.2982 110.904 40.3067C110.896 40.3067 110.879 40.3067 110.87 40.3067H108.511C109.185 36.4462 107.921 32.5015 105.141 29.7369L103.287 31.5912C105.562 33.867 106.506 37.1543 105.798 40.2898H101.602V42.9365H167.503C170.536 42.6752 172.853 40.1297 172.845 37.0868V33.159" fill="#1B5C66"/>
</svg>
