<svg width="141" height="55" viewBox="0 0 141 55" fill="none" xmlns="http://www.w3.org/2000/svg">
<path d="M51.4283 36.837L50.8212 38.6748H50.0371L52.0269 32.8242H52.9375L54.9358 38.6748H54.1263L53.5024 36.837H51.4283ZM53.3422 36.2469L52.7689 34.5609C52.6424 34.1815 52.5497 33.8359 52.4654 33.4902H52.4485C52.3642 33.8359 52.263 34.1899 52.1534 34.5524L51.5801 36.2469H53.3422Z" fill="black"/>
<path d="M59.0078 32.8915C59.3872 32.8156 59.9353 32.7734 60.458 32.7734C61.2674 32.7734 61.7902 32.9252 62.1527 33.254C62.4478 33.5153 62.6164 33.9115 62.6164 34.3668C62.6164 35.1423 62.1274 35.6482 61.5119 35.8589V35.8842C61.9672 36.0444 62.2286 36.4575 62.3719 37.0645C62.5659 37.8822 62.7008 38.447 62.8272 38.6746H62.0431C61.9504 38.506 61.8155 38.0086 61.6553 37.2752C61.4782 36.4659 61.1662 36.1624 60.4833 36.1371H59.7751V38.6746H59.0162V32.8915H59.0078ZM59.7582 35.5554H60.5339C61.3433 35.5554 61.8576 35.1086 61.8576 34.4426C61.8576 33.6839 61.3096 33.3551 60.5086 33.3467C60.146 33.3467 59.8847 33.3804 59.7582 33.4141V35.5554Z" fill="black"/>
<path d="M67.8775 36.837L67.2704 38.6748H66.4863L68.4761 32.8242H69.3867L71.385 38.6748H70.5756L69.9516 36.837H67.8775ZM69.7914 36.2469L69.2181 34.5609C69.0916 34.1815 68.9989 33.8359 68.9146 33.4902H68.8977C68.8134 33.8359 68.7122 34.1899 68.6026 34.5524L68.0293 36.2469H69.7914Z" fill="black"/>
<path d="M75.457 32.8915C75.7859 32.824 76.3086 32.7734 76.8398 32.7734C77.5986 32.7734 78.0792 32.8999 78.4502 33.195C78.7537 33.4226 78.9392 33.7682 78.9392 34.2319C78.9392 34.7967 78.5682 35.2941 77.9527 35.5133V35.5301C78.5092 35.665 79.1584 36.1287 79.1584 36.997C79.1584 37.5028 78.9561 37.8822 78.661 38.1688C78.2563 38.5398 77.5902 38.7168 76.6374 38.7168C76.1147 38.7168 75.7184 38.6831 75.4655 38.6493V32.8915H75.457ZM76.2074 35.2941H76.8904C77.6914 35.2941 78.1551 34.881 78.1551 34.3162C78.1551 33.6333 77.6323 33.3636 76.8735 33.3636C76.5278 33.3636 76.3255 33.3888 76.2074 33.4141V35.2941ZM76.2074 38.1014C76.3592 38.1267 76.57 38.1351 76.8398 38.1351C77.6239 38.1351 78.3406 37.8485 78.3406 36.997C78.3406 36.1961 77.6576 35.8673 76.8313 35.8673H76.2074V38.1014Z" fill="black"/>
<path d="M84.1241 32.8145V38.6651H83.3652V32.8145H84.1241Z" fill="black"/>
<path d="M89.6041 36.837L88.997 38.6748H88.2129L90.2027 32.8242H91.1133L93.1115 38.6748H92.3021L91.6782 36.837H89.6041ZM91.5264 36.2469L90.9531 34.5609C90.8266 34.1815 90.7339 33.8359 90.6496 33.4902H90.6327C90.5484 33.8359 90.4472 34.1899 90.3376 34.5524L89.7643 36.2469H91.5264Z" fill="black"/>
<path d="M23.5371 25.3296L23.8744 24.3602C24.591 24.8154 25.4679 25.043 26.4965 25.043C27.2385 25.043 27.8203 24.925 28.2503 24.6805C28.6803 24.436 28.891 24.0735 28.891 23.5846C28.891 23.3064 28.7983 23.0619 28.6044 22.8596C28.4105 22.6572 28.1659 22.4971 27.854 22.379C27.542 22.261 27.2048 22.143 26.8422 22.0334C26.4797 21.9238 26.1087 21.8058 25.7377 21.6709C25.3667 21.536 25.0295 21.3758 24.7175 21.1988C24.4055 21.0133 24.161 20.7689 23.9671 20.4485C23.7732 20.1282 23.6804 19.7656 23.6804 19.3441C23.6804 18.5517 23.9924 17.9616 24.6248 17.5653C25.2487 17.1607 26.0159 16.9668 26.9265 16.9668C28.0479 16.9668 28.9838 17.2028 29.7258 17.6834L29.3885 18.6613C28.7308 18.206 27.9214 17.9784 26.9603 17.9784C26.3195 17.9784 25.8136 18.088 25.4342 18.3156C25.0548 18.5433 24.8608 18.872 24.8608 19.3104C24.8608 19.6561 24.9873 19.9511 25.2487 20.1956C25.5101 20.4401 25.8305 20.6171 26.2099 20.7351C26.5977 20.8532 27.0108 20.988 27.4577 21.1314C27.9046 21.2831 28.3261 21.4348 28.7056 21.595C29.0934 21.7552 29.4138 21.9997 29.6667 22.3285C29.9281 22.6572 30.0546 23.0619 30.0546 23.5424C30.0546 24.377 29.7089 25.0009 29.0175 25.4308C28.3177 25.8523 27.4746 26.0631 26.4881 26.0631C25.3077 26.0546 24.3212 25.8102 23.5371 25.3296Z" fill="black"/>
<path d="M36.6216 25.9358H35.3906V17.084H36.6047L41.613 23.9968V17.084H42.844V25.9358H41.613L36.6216 19.0229V25.9358Z" fill="black"/>
<path d="M48.5781 21.5113C48.5781 20.0276 48.8817 18.8979 49.4803 18.1224C50.0789 17.3468 51.1413 16.959 52.6674 16.959C54.2019 16.959 55.2727 17.3468 55.8713 18.1224C56.4699 18.8979 56.7734 20.0276 56.7734 21.5113C56.7734 22.9951 56.4699 24.1247 55.8544 24.9003C55.2558 25.6759 54.1934 26.0637 52.6674 26.0637C51.1328 26.0637 50.0705 25.6843 49.4803 24.9172C48.8732 24.1332 48.5781 23.0119 48.5781 21.5113ZM52.6589 17.9622C51.5038 17.9622 50.7197 18.2825 50.3234 18.9317C49.9693 19.5134 49.7922 20.3732 49.7922 21.5198C49.7922 22.6663 49.9693 23.5346 50.3234 24.1079C50.7197 24.7486 51.4954 25.0773 52.6589 25.0773C53.7887 25.0773 54.5391 24.7907 54.927 24.209C55.3232 23.6358 55.5256 22.7422 55.5256 21.5198C55.5256 20.2974 55.3232 19.4038 54.927 18.8305C54.5476 18.2488 53.7887 17.9622 52.6589 17.9622Z" fill="black"/>
<path d="M85.6003 21.7628H80.8113V25.9358H79.6309V17.084H80.8113V20.768H85.6003V17.084H86.7807V25.9358H85.6003V21.7628Z" fill="black"/>
<path d="M94.1584 25.9358H93.0117V17.084H94.1584V25.9358Z" fill="black"/>
<path d="M102.529 18.0788H99.4688V17.084H106.711V18.0788H103.651V25.9358H102.521V18.0788H102.529Z" fill="black"/>
<path d="M117.606 21.814H113.171V24.9332H118.187V25.928H112.066V17.0762H118.187V18.0709H113.171V20.8192H117.606V21.814Z" fill="black"/>
<path d="M74.1408 17.3209C73.0532 20.1704 71.974 23.0198 70.8863 25.8608C70.4226 25.8608 69.9589 25.8524 69.4951 25.8524C69.0146 24.6637 68.534 23.4835 68.0618 22.2948H67.5559C67.0838 23.4835 66.6116 24.6637 66.1395 25.8524H64.7651C63.6438 23.0114 62.5224 20.1619 61.3926 17.3209H62.7332C63.6016 19.5971 64.47 21.8649 65.3385 24.141H65.7432C66.1563 23.2221 66.5695 22.3032 66.9742 21.3843C66.9657 21.1061 66.9573 20.8364 66.9489 20.5582C66.4514 19.4791 65.954 18.4 65.4649 17.3125H66.6538C66.9573 18.1049 67.2608 18.9058 67.5644 19.6983C67.7499 19.6983 67.9269 19.7067 68.1124 19.7067C68.3485 18.9058 68.5761 18.1134 68.8122 17.3125H70.3046C69.7565 18.3916 69.2085 19.4707 68.6604 20.5582L68.652 21.4012C69.0483 22.2695 69.453 23.1463 69.8493 24.0146H70.3299C71.1646 21.7806 71.9993 19.555 72.834 17.3209H74.1408Z" fill="black"/>
<path d="M138.406 2.5H2.5V52.5H138.406V2.5Z" stroke="black" stroke-width="5" stroke-miterlimit="10"/>
</svg>
