<svg width="68" height="50" viewBox="0 0 68 50" fill="none" xmlns="http://www.w3.org/2000/svg">
<path d="M27.4645 23.9723C27.3802 23.9133 27.3296 23.829 27.2959 23.7363C27.2706 23.6773 27.2622 23.6183 27.2284 23.5593C27.1947 23.4919 27.1947 23.4244 27.2284 23.3654C27.2537 23.3064 27.2874 23.2474 27.338 23.1969C27.4055 23.1379 27.473 23.0789 27.5488 23.0283C27.6669 22.944 27.785 22.885 27.9199 22.8513C28.0295 22.8176 28.1307 22.7839 28.2403 22.7417C28.333 22.7164 28.4427 22.6827 28.5354 22.6743C28.7462 22.6406 28.9402 22.5563 29.1172 22.4383C29.2859 22.3287 29.4377 22.2023 29.5979 22.0674C30.0617 21.6713 30.4411 21.2077 30.7531 20.6935C31.0145 20.2637 31.2422 19.8085 31.4108 19.3365C31.4445 19.2269 31.5204 19.1679 31.6216 19.1342C31.7734 19.0837 31.9336 19.0668 32.0854 19.0415C32.254 19.0162 32.4227 19.0078 32.5998 18.9909C32.6251 18.9909 32.6335 18.9909 32.6588 18.9909C32.6588 18.9572 32.6335 18.9572 32.6251 18.9572C32.3721 18.8898 32.1107 18.8477 31.8493 18.8392C31.5373 18.8392 31.2253 18.8477 30.9217 18.8982C30.6266 18.9319 30.3231 18.9825 30.0279 19.0331C29.9773 19.0331 29.9352 19.0584 29.8846 19.0837C29.7075 19.1932 29.5642 19.3197 29.4461 19.4882C29.4208 19.5219 29.3871 19.5725 29.3618 19.5978C29.3281 19.6484 29.2775 19.6821 29.2269 19.7158C29.0751 19.8085 28.9149 19.8085 28.7631 19.7158C28.6703 19.6568 28.5944 19.5725 28.527 19.4798C28.5523 19.4714 28.5607 19.4545 28.5776 19.4545C28.6703 19.4292 28.7547 19.4039 28.8558 19.3871C28.9908 19.3534 29.1088 19.2944 29.2016 19.1932C29.2269 19.1848 29.2353 19.1595 29.2606 19.1258C29.2353 19.1258 29.2269 19.1258 29.2016 19.1258C29.151 19.1258 29.1088 19.1342 29.0582 19.1342C28.9739 19.1342 28.9064 19.1679 28.8221 19.2017C28.6703 19.2859 28.5017 19.3449 28.3246 19.3365C28.2066 19.3365 28.0885 19.3028 27.9873 19.2269C27.962 19.2185 27.9367 19.1932 27.9283 19.1764C27.8693 19.1174 27.7934 19.0837 27.7175 19.0415C27.6838 19.0331 27.6332 19.0078 27.5994 18.9825C27.5151 18.9319 27.4898 18.8645 27.5067 18.7718C27.5067 18.7212 27.532 18.6791 27.5404 18.6201C27.591 18.4684 27.65 18.3082 27.7091 18.1565C27.7681 18.0048 27.7934 17.8446 27.8187 17.6761C27.8271 17.5412 27.8187 17.4148 27.7681 17.2968C27.7681 17.2715 27.7597 17.2462 27.7428 17.2293C27.7091 17.1366 27.7175 17.0355 27.7934 16.968C27.8187 16.9428 27.844 16.9006 27.8524 16.8753C27.9958 16.5972 28.1981 16.3865 28.4511 16.2179C28.5186 16.1673 28.5944 16.1252 28.6619 16.0746C28.7715 16.0072 28.839 15.9229 28.898 15.7965C29.0076 15.5942 29.1594 15.4425 29.3786 15.3413C29.4461 15.3076 29.522 15.2907 29.5894 15.2907C29.6991 15.2907 29.8003 15.316 29.8846 15.3835C30.0195 15.493 30.1713 15.5183 30.3399 15.5015C30.4748 15.493 30.5929 15.4425 30.7109 15.4087C31.082 15.2654 31.4108 15.0716 31.6975 14.8019C31.9336 14.5912 32.1781 14.372 32.3974 14.1444C32.4311 14.1107 32.4648 14.077 32.4901 14.0264C32.5492 13.959 32.5998 13.8831 32.6588 13.8241C32.7768 13.6893 32.9202 13.6134 33.0973 13.5966C33.4683 13.5628 33.8393 13.487 34.1935 13.3858C34.6319 13.251 35.0535 13.0487 35.4077 12.7621C35.6607 12.5598 35.863 12.307 36.0148 12.0204C36.1244 11.8265 36.1919 11.6242 36.2425 11.4135C36.2762 11.2618 36.2931 11.1017 36.2509 10.9499C36.2172 10.7477 36.116 10.5707 35.9558 10.4527C35.8968 10.4021 35.8209 10.3852 35.745 10.4021C35.5763 10.4527 35.4077 10.5117 35.2559 10.5959C35.121 10.6634 34.9945 10.7477 34.8596 10.8235C34.6825 10.9331 34.5054 11.0511 34.3115 11.1691C34.1007 11.304 33.8562 11.422 33.6201 11.5062C33.4093 11.5737 33.19 11.6242 32.9792 11.6411C32.6672 11.6664 32.3552 11.6411 32.0517 11.6158C31.824 11.5905 31.5879 11.5652 31.3602 11.5315C31.2928 11.5315 31.2253 11.5062 31.1663 11.481C31.082 11.4557 30.9976 11.422 30.9133 11.3967C30.8037 11.363 30.7025 11.304 30.6013 11.2281C30.5423 11.1775 30.4664 11.1607 30.3905 11.1691C30.2219 11.1775 30.1038 11.2618 30.0364 11.422C30.0026 11.5147 29.9689 11.6158 29.9436 11.7085C29.9099 11.8434 29.8761 11.9698 29.8256 12.0878C29.8003 12.1468 29.775 12.2058 29.7665 12.2648C29.7075 12.4755 29.7412 12.6694 29.8593 12.8633C29.9183 12.9476 29.9773 13.0318 30.0364 13.1161C30.1207 13.2088 30.205 13.3184 30.2978 13.4111C30.3231 13.4364 30.3484 13.4701 30.3652 13.4954C30.3989 13.546 30.4158 13.605 30.3905 13.6471C30.3399 13.7651 30.2809 13.8831 30.2219 14.0011C30.1966 14.0517 30.1713 14.0854 30.1375 14.1191C30.0279 14.2371 29.8256 14.254 29.6822 14.1697C29.6822 14.1697 29.6822 14.1613 29.6822 14.1444C29.7497 14.0601 29.7497 13.9674 29.7159 13.8579C29.6906 13.7989 29.6653 13.7399 29.6569 13.6809C29.5895 13.6809 29.5642 13.7061 29.5642 13.7483C29.5642 13.782 29.5642 13.8073 29.5642 13.841C29.5642 13.8747 29.5642 13.9253 29.5642 13.959C29.5642 13.9927 29.5642 14.0264 29.5136 14.0433C29.4883 14.0433 29.4798 14.077 29.4798 14.0939C29.4545 14.1613 29.4124 14.2034 29.3365 14.2287C29.269 14.2371 29.1931 14.2624 29.1088 14.2793C29.0751 14.2793 29.0414 14.2793 29.0245 14.2287C29.0161 14.195 28.9992 14.1444 28.9908 14.0939C28.9908 14.0011 28.9823 13.9 28.9655 13.8073C28.9655 13.7567 28.957 13.7146 28.9402 13.6556C28.9402 13.6471 28.9317 13.6303 28.9064 13.605C28.8811 13.664 28.9064 13.6977 28.9064 13.7399C28.9064 13.8073 28.9064 13.8747 28.8811 13.9421C28.8811 13.9674 28.8727 13.9927 28.8558 14.0096C28.8221 14.077 28.7715 14.1276 28.6872 14.1191C28.6197 14.1191 28.5523 14.0854 28.5186 14.0096C28.4342 13.841 28.3668 13.664 28.3162 13.487C28.2319 13.192 28.2319 12.8886 28.2825 12.5767C28.3668 12.0625 28.5439 11.5905 28.7715 11.1185C28.9655 10.7392 29.1763 10.3684 29.3955 9.9975C29.4545 9.88793 29.5136 9.79522 29.5726 9.68564C29.64 9.56764 29.7244 9.44964 29.8256 9.34849C29.834 9.34007 29.8593 9.31478 29.8761 9.29792C30.0195 9.17992 30.1713 9.15463 30.3399 9.23049C30.4327 9.26421 30.517 9.32321 30.6013 9.38221C30.7109 9.4665 30.8121 9.53393 30.9386 9.61821C31.0314 9.67721 31.1325 9.73621 31.2253 9.78679C31.3181 9.83736 31.4192 9.87107 31.512 9.8795C31.5963 9.90479 31.6806 9.91322 31.765 9.94693C31.8999 9.9975 32.0179 9.94693 32.1107 9.86264C32.1697 9.80364 32.2287 9.72779 32.2625 9.65193C32.3131 9.54235 32.3552 9.44121 32.4058 9.33164C32.5492 8.97763 32.7009 8.63205 32.8696 8.27805C33.0045 8.02519 33.1563 7.79761 33.3587 7.59532C33.4936 7.46046 33.6454 7.34246 33.814 7.24974C33.8477 7.22446 33.873 7.19917 33.9236 7.18232C33.8983 7.15703 33.8983 7.13174 33.873 7.12331C33.7381 6.98845 33.5948 6.89574 33.4346 6.82831C33.2322 6.73559 33.0129 6.67659 32.7937 6.61759C32.4986 6.55016 32.195 6.48273 31.9083 6.39002C31.2253 6.1793 30.6097 5.84215 30.0448 5.41229C29.952 5.34486 29.8677 5.26057 29.7834 5.17628C29.4967 4.88971 29.2184 4.57784 28.9992 4.23227C28.8811 4.05526 28.7884 3.87826 28.7041 3.6844C28.5101 3.24611 28.4427 2.79096 28.4933 2.31052C28.5186 1.97337 28.6029 1.66994 28.7547 1.3665C29.0076 0.886068 29.3871 0.540491 29.8761 0.312916C30.1628 0.178056 30.458 0.102198 30.7615 0.0516258C31.1325 -0.00737516 31.5036 -0.0158038 31.8746 0.0263397C32.1023 0.0516259 32.3299 0.0937694 32.5407 0.178056C32.7094 0.237057 32.8612 0.321344 33.0045 0.439346C33.2828 0.650064 33.5273 0.894497 33.755 1.13893C33.8224 1.20636 33.8899 1.28222 33.9489 1.3665C34.0417 1.48451 34.1597 1.57722 34.3031 1.62779C34.438 1.67837 34.5645 1.72051 34.6994 1.77108C34.809 1.8048 34.9102 1.83851 35.0198 1.88908C35.1126 1.9228 35.2138 1.97337 35.2812 2.0408C35.4583 2.19252 35.5426 2.38638 35.5426 2.61395C35.5426 2.76567 35.4499 2.90053 35.3318 2.99325C35.2138 3.08596 35.0704 3.1281 34.9271 3.14496C34.7247 3.17868 34.5223 3.17025 34.3031 3.14496C34.1344 3.11968 33.9911 3.05225 33.8477 2.96796C33.6707 2.84996 33.5104 2.70667 33.3671 2.54652C33.249 2.41166 33.1394 2.28523 33.0298 2.14195C32.8527 1.91437 32.6841 1.70365 32.4817 1.50136C32.3384 1.35808 32.1866 1.24007 31.9926 1.14736C31.7312 1.0125 31.453 0.970355 31.1663 0.995641C31.0229 0.995641 30.8796 1.02936 30.7362 1.06307C30.4242 1.1305 30.1628 1.29065 29.9352 1.51822C29.7244 1.72894 29.581 1.99866 29.5304 2.29366C29.4967 2.52124 29.522 2.74881 29.581 2.95953C29.6738 3.30511 29.8593 3.60011 30.0701 3.87826C30.3315 4.19855 30.6519 4.45141 31.0229 4.62842C31.3939 4.82228 31.7987 4.96556 32.195 5.08357C32.6166 5.21843 33.0214 5.33643 33.4346 5.46286C33.7718 5.57243 34.1007 5.69886 34.4127 5.88429C34.6657 6.01915 34.8933 6.1793 35.1041 6.37316C35.1632 6.43216 35.2222 6.44059 35.3065 6.44059C35.7113 6.4153 36.116 6.44059 36.5207 6.55859C37.0183 6.69345 37.4736 6.93788 37.8446 7.30032C38.0807 7.52789 38.3 7.78075 38.5023 8.02519C38.7637 8.34548 38.9914 8.69105 39.2444 9.0282C39.3624 9.17992 39.472 9.34849 39.5817 9.51707C39.8599 9.91322 40.0623 10.3262 40.2056 10.7814C40.3406 11.2028 40.4417 11.6158 40.5176 12.0457C40.5682 12.3828 40.5851 12.7115 40.5261 13.0487C40.5176 13.1414 40.4923 13.2426 40.4586 13.3353C40.3911 13.5713 40.2309 13.7567 40.0201 13.8747C39.9527 13.9253 39.8683 13.959 39.784 13.9843C39.4973 14.0939 39.2022 14.1866 38.9155 14.2961C38.6625 14.3804 38.4011 14.4731 38.165 14.5827C37.988 14.667 37.8109 14.7766 37.6422 14.8946C37.6169 14.903 37.5916 14.9283 37.5832 14.9536C37.5832 14.9536 37.5832 14.962 37.5832 14.9789C37.6085 14.9789 37.6338 14.9789 37.6507 14.9789C37.9289 14.9199 38.1903 14.8356 38.4349 14.726C38.6963 14.6164 38.9577 14.5153 39.2191 14.4057C39.5142 14.2877 39.8262 14.195 40.1382 14.1276C40.2056 14.1276 40.29 14.1191 40.3659 14.1276C40.5176 14.1529 40.6441 14.2371 40.72 14.3804C40.7706 14.4647 40.7875 14.549 40.7875 14.6417C40.7875 14.7007 40.7959 14.7513 40.8128 14.8103V15.021C40.8128 15.0716 40.8043 15.1137 40.7875 15.1643C40.7875 15.2486 40.7875 15.316 40.7622 15.4003C40.7284 15.6279 40.6778 15.8386 40.6188 16.0577C40.4755 16.5803 40.2984 17.1113 40.096 17.6086C39.9527 17.9626 39.8009 18.3082 39.6575 18.6622C39.5648 18.8729 39.4552 19.0921 39.3624 19.3028C39.3287 19.3871 39.295 19.4545 39.2528 19.5388C39.1432 19.7495 39.0251 19.9687 38.8565 20.1457C38.789 20.23 38.7131 20.2974 38.6457 20.3817C38.477 20.584 38.3084 20.7778 38.2241 21.0223C38.1988 21.0897 38.1397 21.1318 38.0554 21.1403C37.9458 21.1403 37.8446 21.174 37.7181 21.1908C37.6675 21.1908 37.6085 21.1908 37.5663 21.1908C37.4989 21.1908 37.4567 21.1403 37.4736 21.0728C37.4736 21.0138 37.4989 20.9633 37.5242 20.9211C37.5579 20.8368 37.5832 20.7525 37.6169 20.6683C37.6169 20.6598 37.6169 20.643 37.6169 20.6177C37.5326 20.6261 37.482 20.6767 37.4652 20.7525C37.4399 20.8031 37.4314 20.8621 37.4146 20.9043C37.4061 20.9633 37.3808 21.0223 37.364 21.0728C37.3387 21.1403 37.2965 21.1908 37.2122 21.2077C37.1532 21.2161 37.0773 21.2414 37.0098 21.2583C36.9761 21.2583 36.9255 21.2583 36.8918 21.2583C36.8074 21.2498 36.7737 21.1993 36.7737 21.115C36.7737 21.056 36.7821 20.9801 36.8074 20.938C36.8665 20.82 36.9255 20.7104 36.9845 20.5924C36.9845 20.584 37.0098 20.5587 36.9845 20.5334C36.9592 20.5587 36.9339 20.5671 36.9255 20.5924C36.858 20.6598 36.8074 20.7441 36.7737 20.8453C36.74 20.9295 36.7063 20.997 36.6641 21.0813C36.6557 21.115 36.6388 21.1487 36.6135 21.174C36.5629 21.2414 36.4702 21.2667 36.4027 21.2077C36.369 21.1824 36.3352 21.1487 36.3099 21.115C36.2509 21.0223 36.1919 20.9211 36.1413 20.82C36.1076 20.761 36.116 20.6851 36.1413 20.643C36.1666 20.6008 36.2003 20.5503 36.2341 20.4997C36.2846 20.4407 36.3268 20.3817 36.3858 20.3227C36.4364 20.2637 36.4955 20.2131 36.5545 20.1794C36.6219 20.1457 36.6978 20.0951 36.7822 20.0698C36.8749 20.0361 36.9761 20.0024 37.0688 19.9602C37.364 19.8422 37.6169 19.6484 37.794 19.3787C37.853 19.2859 37.9121 19.1848 37.9711 19.0921C38.2578 18.6032 38.4349 18.0638 38.6035 17.5328C38.6035 17.5328 38.6035 17.5075 38.6035 17.4991C38.5782 17.5243 38.5529 17.5328 38.5361 17.5496C38.3927 17.6592 38.2494 17.7856 38.1144 17.9205C37.9374 18.1144 37.7603 18.2998 37.5916 18.5021C37.3302 18.8139 37.0183 19.0752 36.681 19.3028C36.369 19.5135 36.0232 19.6737 35.6522 19.7664C35.4161 19.8254 35.1716 19.8507 34.9355 19.8254C34.6994 19.8001 34.4802 19.7411 34.2693 19.6231C34.1007 19.5304 33.9489 19.4461 33.7803 19.3449C33.755 19.3365 33.7297 19.3197 33.7128 19.3112C33.6875 19.3028 33.6622 19.3112 33.6454 19.3112C33.6201 19.3197 33.6116 19.3449 33.5948 19.3618C33.3587 19.5725 33.131 19.8001 32.9286 20.053C32.5829 20.4491 32.2709 20.8537 31.9589 21.2667C31.6975 21.6123 31.4192 21.9578 31.1578 22.3203C31.1241 22.3709 31.0735 22.4046 31.0145 22.4299C30.8206 22.4973 30.6435 22.5984 30.4748 22.708C30.0701 22.9861 29.6906 23.2896 29.3533 23.652C29.2859 23.7194 29.21 23.7953 29.1425 23.8627C29.0751 23.9217 28.9908 23.9723 28.8896 23.9723C28.8643 23.9723 28.8305 23.9807 28.8053 23.9807C28.7378 23.9807 28.6619 23.9892 28.5944 23.9807C28.4258 23.9554 28.3415 23.8122 28.3836 23.6436C28.4089 23.534 28.468 23.4413 28.5523 23.3654C28.586 23.3317 28.645 23.3064 28.6872 23.2727C28.6956 23.2727 28.7209 23.2474 28.7209 23.2222C28.6703 23.1884 28.6282 23.1716 28.5691 23.1969C28.5354 23.2053 28.5017 23.2306 28.4595 23.2559C28.2909 23.3907 28.1813 23.5677 28.1054 23.7532C28.1307 23.7869 28.1391 23.8122 28.156 23.8374C28.1813 23.8712 28.156 23.9049 28.1307 23.9302C28.1054 23.9554 28.0716 23.9639 28.0379 23.9639C27.9705 23.9639 27.903 23.9639 27.8355 23.9386C27.8018 23.9386 27.7681 23.9302 27.7428 23.9049C27.6838 23.8796 27.6585 23.8206 27.6838 23.7616C27.6922 23.7279 27.7175 23.6942 27.7428 23.652C27.7765 23.593 27.8102 23.534 27.8524 23.475C27.8861 23.416 27.9114 23.357 27.9199 23.2812C27.9199 23.2559 27.9199 23.2474 27.9199 23.2222C27.8355 23.2222 27.7765 23.2727 27.7259 23.3317C27.6669 23.3907 27.6163 23.475 27.5826 23.5424C27.5236 23.6773 27.4898 23.8206 27.4645 23.9723ZM30.4411 17.4569C30.4917 17.4232 30.5086 17.3895 30.5507 17.3642C30.5845 17.3389 30.635 17.3136 30.6688 17.2968C30.7025 17.2715 30.7362 17.2378 30.7531 17.2041C30.8206 17.0608 30.8964 16.9175 30.947 16.7658C30.9808 16.6562 31.0061 16.5635 31.0061 16.4539C31.0061 16.3443 31.0061 16.2263 30.9555 16.1336C30.8964 16.024 30.8374 15.906 30.7784 15.7965C30.7784 15.7965 30.7784 15.788 30.77 15.7712C30.7109 15.6869 30.6266 15.6532 30.517 15.6616C30.458 15.6616 30.3989 15.6869 30.3484 15.7206C30.1207 15.8555 29.9689 16.0325 29.8593 16.2685C29.8593 16.2769 29.8593 16.3022 29.8508 16.3359C29.8846 16.3275 29.9099 16.3106 29.9183 16.3022C29.9858 16.2516 30.0617 16.2095 30.1291 16.1505C30.1797 16.1167 30.2219 16.0662 30.2809 16.0409C30.3989 15.9735 30.4917 15.9819 30.5929 16.0915C30.6182 16.1167 30.6435 16.1505 30.6603 16.1842C30.6772 16.2179 30.7109 16.2685 30.7531 16.2938C30.7784 16.3022 30.7868 16.3275 30.7868 16.3612C30.8206 16.5972 30.7868 16.8248 30.635 17.027C30.6013 17.0608 30.5676 17.1113 30.5423 17.1451C30.5086 17.1956 30.4748 17.2293 30.4495 17.2799C30.4158 17.3389 30.3905 17.4148 30.4242 17.4906L30.4411 17.4569ZM37.4146 15.8976C37.3218 15.8976 37.2459 15.906 37.1785 15.9566C37.0604 16.024 37.0267 16.1589 37.0941 16.2938C37.1279 16.3528 37.1785 16.4033 37.2291 16.4455C37.2628 16.4792 37.3134 16.496 37.364 16.4792C37.3977 16.4792 37.4483 16.4708 37.482 16.4792C37.5411 16.4792 37.5748 16.4539 37.6001 16.4118C37.6844 16.2685 37.6675 16.1336 37.5748 16.0072C37.5242 15.9482 37.482 15.9145 37.423 15.9229L37.4146 15.8976ZM33.5104 16.7658C33.561 16.732 33.5779 16.6815 33.5948 16.6309C33.6201 16.5466 33.5948 16.4876 33.5273 16.4539C33.502 16.4455 33.4936 16.4286 33.4683 16.4202C33.3165 16.3696 33.1563 16.3949 33.0298 16.4792C33.0045 16.4876 32.9792 16.5129 32.9623 16.5382C32.9033 16.6056 32.8949 16.6815 32.9118 16.7742C32.937 16.8585 32.9961 16.8922 33.0804 16.8669C33.131 16.8585 33.1732 16.8332 33.2237 16.8163C33.3165 16.7658 33.4261 16.7489 33.5357 16.7573H33.5104V16.7658ZM36.1329 14.0011C36.0738 14.0011 36.0401 14.0011 35.998 14.0096C35.8883 14.0349 35.8462 14.077 35.8546 14.1866C35.8546 14.254 35.8799 14.3299 35.9136 14.3889C35.9221 14.4226 35.9474 14.4479 35.9727 14.4732C36.0232 14.5237 36.0823 14.5322 36.1497 14.4984C36.2425 14.4479 36.3268 14.3889 36.4027 14.3046C36.4364 14.2709 36.4617 14.2203 36.487 14.1697C36.5123 14.136 36.487 14.1023 36.4617 14.077C36.428 14.0517 36.3943 14.0433 36.3521 14.0264C36.2846 14.0011 36.2088 13.9927 36.1497 13.9927L36.1329 14.0011ZM34.3452 14.195C34.3199 14.195 34.3115 14.195 34.2946 14.195C34.2609 14.195 34.2272 14.195 34.2019 14.2287C34.1682 14.2793 34.1344 14.3214 34.0838 14.3467C34.0501 14.372 34.0501 14.4057 34.0501 14.4394C34.0501 14.49 34.0585 14.549 34.1007 14.5827C34.185 14.7176 34.379 14.7597 34.5054 14.6754C34.5645 14.6417 34.6151 14.5827 34.6235 14.5069C34.6235 14.4816 34.6235 14.4732 34.6235 14.4479C34.5982 14.3804 34.5729 14.313 34.5392 14.254C34.5139 14.2034 34.4717 14.1866 34.4043 14.1866C34.379 14.195 34.3705 14.195 34.3452 14.195ZM37.9036 12.6525C37.9036 12.6525 37.9036 12.6273 37.9036 12.6188C37.9036 12.5261 37.8362 12.4755 37.735 12.484C37.7266 12.484 37.7013 12.484 37.6844 12.484C37.5495 12.5177 37.4314 12.602 37.3471 12.72C37.3218 12.7537 37.3134 12.7874 37.2965 12.838C37.2965 12.8717 37.2965 12.9054 37.3218 12.9307C37.3808 12.9981 37.5242 13.0487 37.6085 13.0234C37.6338 13.0234 37.6591 12.9981 37.676 12.9897C37.7013 12.9644 37.735 12.9307 37.7603 12.9054C37.794 12.8717 37.8193 12.8211 37.853 12.7874C37.8868 12.7537 37.9036 12.7031 37.9036 12.6525ZM37.1279 17.6002C37.2965 17.6002 37.3893 17.4822 37.3302 17.3642C37.3218 17.3305 37.3049 17.2968 37.2796 17.2546C37.2459 17.1872 37.2122 17.1198 37.1363 17.0861C37.052 17.0523 36.9677 17.027 36.8749 17.027C36.8243 17.027 36.7906 17.0608 36.7822 17.1113C36.7822 17.1366 36.7822 17.1703 36.7822 17.1956C36.8074 17.2546 36.8327 17.3136 36.8496 17.3726C36.8749 17.4063 36.9002 17.4401 36.9086 17.4822C36.9339 17.5496 36.9677 17.5749 37.0435 17.5918C37.0773 17.5918 37.1026 17.6002 37.111 17.6002H37.1279ZM34.3705 8.20219C34.3705 8.05047 34.2609 7.96618 34.1429 8.00833C34.0501 8.04204 33.9658 8.1179 33.9152 8.21062C33.8646 8.30333 33.8899 8.40448 33.9658 8.47191C34.0164 8.52248 34.0838 8.55619 34.1429 8.58148C34.1935 8.58991 34.2525 8.58148 34.2862 8.53091C34.3115 8.49719 34.3199 8.47191 34.3368 8.43819C34.3452 8.37076 34.3621 8.28648 34.3705 8.22748V8.20219ZM37.8024 11.0511C37.7772 11.0511 37.7687 11.0511 37.7434 11.0511C37.6844 11.0427 37.6338 11.0595 37.6001 11.1101C37.5495 11.1691 37.5326 11.2281 37.5073 11.304C37.482 11.363 37.5073 11.3967 37.5411 11.4472C37.6507 11.5568 37.8615 11.5652 37.9795 11.4725C38.0386 11.422 38.0723 11.3545 38.047 11.2702C38.047 11.245 38.0386 11.2197 38.0217 11.2028C37.988 11.1101 37.9374 11.0595 37.8277 11.0595H37.8193H37.8024V11.0511ZM36.2088 16.496C36.2088 16.4708 36.2088 16.4623 36.2088 16.437C36.175 16.2685 36.0064 16.2095 35.8715 16.3275C35.7366 16.4455 35.7197 16.5803 35.804 16.732C35.8715 16.85 35.9811 16.8753 36.0907 16.7826C36.175 16.7152 36.2088 16.614 36.2256 16.496H36.2088ZM37.2796 10.4695C37.2796 10.3347 37.2122 10.2757 37.0857 10.2757C37.0014 10.2757 36.9171 10.3094 36.858 10.3684C36.8074 10.4189 36.7906 10.4864 36.8074 10.5454C36.8327 10.6128 36.858 10.6971 36.8749 10.7729C36.8833 10.8067 36.9086 10.8319 36.9339 10.8572C36.9592 10.8825 36.993 10.8825 37.0183 10.8572C37.0267 10.8488 37.052 10.8319 37.052 10.8067C37.0857 10.7224 37.1447 10.6549 37.2038 10.5959C37.2375 10.5622 37.2628 10.5032 37.2628 10.4527L37.2796 10.4695ZM38.5445 10.8404C38.5529 10.8404 38.5698 10.8404 38.5698 10.8404C38.6204 10.8151 38.6541 10.8151 38.7047 10.8657C38.7384 10.8994 38.789 10.8994 38.8228 10.8994C38.8818 10.8994 38.9408 10.8741 38.9914 10.8657C39.0757 10.8319 39.1263 10.7224 39.101 10.6381C39.101 10.6044 39.0673 10.5707 39.0336 10.5454C38.9998 10.5369 38.9745 10.5117 38.9408 10.5117C38.848 10.5032 38.7469 10.5032 38.6541 10.5117C38.6035 10.5117 38.5866 10.5369 38.5614 10.5791C38.5108 10.6634 38.5108 10.7561 38.5529 10.8572L38.5445 10.8404ZM33.5948 15.6026C33.5948 15.4593 33.502 15.3497 33.3671 15.3666C33.2575 15.3666 33.1731 15.4256 33.1057 15.5099C33.0467 15.5773 33.0551 15.6616 33.131 15.7375C33.1816 15.7965 33.249 15.8217 33.3249 15.8302C33.4093 15.8386 33.4683 15.8302 33.5273 15.7627C33.5695 15.7037 33.5779 15.6447 33.5948 15.6026ZM38.2072 8.58991C38.3 8.58991 38.4011 8.58991 38.4855 8.64891C38.4939 8.64891 38.5361 8.64891 38.5529 8.64891C38.5782 8.64891 38.6035 8.62363 38.6204 8.6152C38.671 8.58148 38.6794 8.53091 38.671 8.47191C38.6204 8.30333 38.5192 8.21062 38.3758 8.16005C38.3084 8.19376 38.2409 8.22748 38.1819 8.25276C38.1819 8.36234 38.1313 8.46348 38.2156 8.57305L38.2072 8.58991ZM35.7871 14.8946C35.7366 14.903 35.6691 14.9199 35.6101 14.9452C35.5257 14.9789 35.5004 15.0547 35.5426 15.139C35.5932 15.257 35.686 15.3413 35.7956 15.4003C35.8462 15.4256 35.8883 15.4003 35.9136 15.3666C35.9221 15.3413 35.9389 15.3076 35.9474 15.2823C35.9558 15.2317 35.9727 15.1896 35.9811 15.1306C36.0148 15.0042 35.9305 14.8946 35.7871 14.8946ZM36.3352 9.57607C36.3352 9.55078 36.3268 9.50864 36.3015 9.4665C36.2678 9.41592 36.2341 9.37378 36.1919 9.32321C36.1076 9.23892 36.0401 9.25578 35.998 9.37378C35.9642 9.4665 35.9389 9.56764 35.9305 9.66036C35.9305 9.72779 35.9558 9.79522 36.0148 9.83736C36.0738 9.87107 36.1329 9.86265 36.1919 9.83736C36.2846 9.78679 36.3352 9.7025 36.3437 9.5845L36.3352 9.57607ZM34.3537 10.3009C34.4211 10.3009 34.4886 10.2925 34.5307 10.2335C34.5898 10.1492 34.6151 10.0649 34.5813 9.97222C34.5307 9.86265 34.4127 9.8205 34.3031 9.8795C34.2103 9.93008 34.1597 10.0228 34.1344 10.1155C34.126 10.1829 34.1597 10.2588 34.2272 10.2841C34.2778 10.2925 34.3115 10.2925 34.3537 10.3009ZM37.0688 8.28648C37.0688 8.16847 37.0183 8.10947 36.9339 8.0589C36.8665 8.02519 36.7906 8.03362 36.7316 8.10947C36.6978 8.16005 36.681 8.21905 36.681 8.27805C36.681 8.36234 36.7063 8.44662 36.74 8.51405C36.7737 8.58148 36.8327 8.60677 36.9086 8.56462C37.0014 8.49719 37.0604 8.39605 37.0773 8.28648H37.0688ZM38.6794 15.8217C38.6794 15.7375 38.6541 15.6785 38.6119 15.6447C38.5276 15.5857 38.4433 15.552 38.3337 15.5267C38.3337 15.5267 38.3084 15.5267 38.3 15.5267C38.2494 15.5267 38.2156 15.5605 38.2072 15.6195C38.2072 15.6447 38.2072 15.67 38.2072 15.6869C38.2156 15.7543 38.2578 15.8217 38.2915 15.8807C38.3252 15.9145 38.359 15.9482 38.4011 15.9735C38.4855 16.024 38.5782 15.9987 38.6288 15.9145C38.6541 15.8807 38.6625 15.8302 38.6625 15.8217H38.6794ZM37.6844 8.70791C37.6338 8.70791 37.6001 8.70791 37.5663 8.71634C37.5326 8.71634 37.4989 8.72477 37.4567 8.74163C37.3977 8.76691 37.364 8.80906 37.3724 8.88492C37.3724 8.97763 37.4567 9.07878 37.5495 9.09563C37.5748 9.09563 37.6001 9.09563 37.6169 9.09563C37.7097 9.06192 37.794 9.01135 37.8699 8.91863C37.9289 8.8512 37.9036 8.77534 37.8193 8.74163C37.7856 8.71634 37.7181 8.71634 37.6844 8.70791ZM39.1094 11.6748C39.1094 11.7085 39.1094 11.7422 39.1179 11.7844C39.1432 11.894 39.2275 11.9361 39.3203 11.9193C39.413 11.894 39.4973 11.8518 39.5732 11.7844C39.5817 11.776 39.607 11.7507 39.6238 11.7254C39.6491 11.7001 39.6322 11.6664 39.6238 11.6411C39.6238 11.6411 39.5985 11.6158 39.5901 11.6158C39.5058 11.5821 39.4214 11.5484 39.3371 11.5231C39.3118 11.5231 39.2781 11.5231 39.2444 11.5231C39.1853 11.5231 39.1516 11.5568 39.1347 11.6158C39.1347 11.6411 39.1347 11.6664 39.1347 11.6832L39.1094 11.6748ZM40.2309 12.6188C40.2056 12.6188 40.1803 12.6188 40.1635 12.6188C40.0539 12.6441 40.0117 12.7031 40.0117 12.8127C40.0117 12.897 40.0454 12.9644 40.1044 13.015C40.1719 13.0824 40.2478 13.0824 40.3321 13.015C40.4164 12.9476 40.4417 12.838 40.4249 12.7284C40.4164 12.6188 40.3743 12.6188 40.3068 12.6104C40.2815 12.6104 40.2562 12.6104 40.2309 12.6188ZM36.0485 8.39605C36.0148 8.39605 35.9811 8.39605 35.9389 8.39605C35.8715 8.39605 35.804 8.44662 35.7703 8.51405C35.7703 8.53934 35.7703 8.56462 35.7703 8.58148C35.8293 8.69948 35.9389 8.77534 36.0654 8.78377C36.1244 8.78377 36.175 8.77534 36.2088 8.71634C36.2594 8.64891 36.2678 8.56462 36.2341 8.48034C36.2088 8.42134 36.1666 8.38762 36.0991 8.38762C36.0738 8.38762 36.0654 8.38762 36.0401 8.38762L36.0485 8.39605ZM35.0029 17.2799C35.0029 17.2715 35.0029 17.2546 35.0029 17.2462C35.0029 17.1282 34.9355 17.0692 34.809 17.0945C34.75 17.0945 34.691 17.1198 34.6404 17.1451C34.5813 17.1703 34.556 17.2041 34.5813 17.2631C34.6066 17.3726 34.6741 17.4653 34.7753 17.5243C34.8427 17.5749 34.9186 17.5496 34.9524 17.4738C34.9861 17.4148 35.0029 17.3558 35.0029 17.2799ZM34.0838 9.38221C34.1091 9.38221 34.1513 9.38221 34.2019 9.37378C34.2272 9.37378 34.2609 9.34849 34.2862 9.34007C34.3199 9.31478 34.3368 9.27264 34.3199 9.22206C34.2862 9.11249 34.1429 8.99449 34.0248 8.99449C33.9573 8.99449 33.8899 9.01977 33.873 9.0872C33.8477 9.1462 33.8477 9.20521 33.8646 9.28106C33.8646 9.34007 33.8983 9.37378 33.9742 9.39064C33.9995 9.38221 34.0248 9.38221 34.0838 9.38221ZM31.7818 16.4118C31.8071 16.4118 31.8324 16.4118 31.8493 16.3865C31.9589 16.3359 32.0264 16.2685 32.077 16.1589C32.077 16.1505 32.077 16.1252 32.077 16.1083C32.077 16.0577 32.0685 16.024 32.0179 16.0156C31.9926 16.0156 31.9842 16.0072 31.9589 16.0156C31.8746 16.0156 31.7903 16.0156 31.7059 16.0493C31.6806 16.0493 31.6469 16.0746 31.6216 16.083C31.5373 16.142 31.5289 16.2179 31.5879 16.2938C31.6132 16.319 31.6385 16.3443 31.6722 16.3612C31.6975 16.3696 31.7312 16.3865 31.7565 16.3949L31.7818 16.4118ZM39.2106 12.6525C39.1432 12.6525 39.0673 12.6778 38.9998 12.7115C38.9492 12.7368 38.9408 12.779 38.9408 12.8296C38.9408 12.8886 38.9661 12.9476 39.0083 12.9813C39.0673 13.0403 39.1432 13.0656 39.2106 13.0318C39.3034 12.9981 39.354 12.9223 39.3793 12.8296C39.4046 12.7116 39.3877 12.6357 39.2106 12.6357V12.6525ZM37.6422 7.46889C37.5495 7.43518 37.4736 7.44361 37.3893 7.49418C37.3387 7.52789 37.3218 7.57846 37.3302 7.63747C37.3555 7.7049 37.3808 7.78918 37.4146 7.86504C37.4399 7.91561 37.4736 7.94933 37.5073 7.95776C37.5663 7.99147 37.6422 7.95776 37.6591 7.89876C37.6591 7.87347 37.6675 7.84818 37.6844 7.83133C37.6928 7.69647 37.6844 7.57846 37.6338 7.46046V7.46889H37.6422ZM36.4111 17.8783C36.4111 17.8446 36.3605 17.8193 36.3437 17.8109C36.3099 17.7856 36.2593 17.7772 36.2256 17.7603C36.1666 17.7603 36.0907 17.7603 36.0317 17.7856C35.9474 17.8193 35.9136 17.8952 35.9474 17.9795C35.9727 18.0301 36.0064 18.0891 36.0401 18.1312C36.0654 18.1565 36.0907 18.1818 36.1244 18.1986C36.1582 18.2155 36.1919 18.2239 36.2341 18.1902C36.2594 18.1649 36.2678 18.1312 36.2931 18.0975C36.3184 18.0638 36.3268 18.0132 36.3521 17.9795C36.3774 17.9458 36.4027 17.9121 36.4196 17.8699L36.4111 17.8783ZM33.8056 17.3136C33.755 17.3221 33.6959 17.3389 33.6285 17.3642C33.561 17.3979 33.5357 17.4569 33.5695 17.5328C33.6201 17.6423 33.7044 17.7098 33.7971 17.7603C33.8309 17.7688 33.8646 17.7603 33.8899 17.7351C33.8899 17.7266 33.9152 17.7098 33.9152 17.7013C33.9405 17.6339 33.9658 17.5496 33.9742 17.4738C33.9911 17.3979 33.9068 17.3136 33.8056 17.3136ZM33.3165 10.4358C33.3418 10.4358 33.3502 10.4358 33.3755 10.4358C33.4936 10.4274 33.5526 10.3515 33.5189 10.2335C33.4936 10.1492 33.4598 10.0818 33.4008 10.0228C33.3671 9.98908 33.3334 9.97222 33.2828 10.0144C33.19 10.0986 33.131 10.1914 33.131 10.3347C33.131 10.3937 33.1647 10.4442 33.2237 10.4527C33.249 10.4527 33.2828 10.4527 33.3081 10.4527L33.3165 10.4358ZM37.0098 14.0011C37.0098 14.0517 37.0183 14.0939 37.0351 14.1444C37.0436 14.2034 37.0688 14.2624 37.1026 14.2961C37.1532 14.3551 37.2122 14.3551 37.2712 14.3214C37.3218 14.2877 37.364 14.2371 37.3893 14.1781C37.3893 14.1697 37.3977 14.1444 37.3893 14.1191C37.3808 14.0517 37.3387 13.9759 37.2796 13.9253C37.1953 13.8579 37.1026 13.8579 37.0267 13.9253C37.0183 13.9506 37.0014 13.9759 36.993 13.9843L37.0098 14.0011ZM36.8074 15.2739C36.8074 15.1559 36.7147 15.08 36.6051 15.1053C36.4955 15.139 36.4027 15.257 36.4111 15.3835C36.4111 15.4087 36.4111 15.4425 36.4364 15.4677C36.4702 15.552 36.5713 15.5857 36.6472 15.5352C36.7569 15.4762 36.799 15.3835 36.8074 15.2739ZM35.2896 8.87649C35.2896 8.76691 35.2306 8.72477 35.1379 8.75848C35.0282 8.80906 34.9439 8.87649 34.9018 8.98606C34.868 9.05349 34.8765 9.12092 34.9524 9.17992C35.0198 9.23892 35.0957 9.23892 35.1547 9.17992C35.2391 9.0872 35.2728 8.97763 35.2896 8.87649ZM35.8715 18.7971C35.8715 18.6622 35.7871 18.5948 35.6607 18.6285C35.6101 18.6369 35.5679 18.6622 35.5173 18.6875C35.4583 18.7212 35.4499 18.7465 35.4667 18.8055C35.5004 18.9151 35.5595 18.9825 35.6607 19.0331C35.7281 19.0668 35.7956 19.0415 35.8124 18.9825C35.8293 18.9235 35.8462 18.8645 35.863 18.8055L35.8715 18.7971ZM35.3234 7.91561C35.3234 7.83133 35.2728 7.74704 35.1885 7.7049C35.0957 7.64589 34.9861 7.7049 34.9776 7.81447C34.9776 7.87347 34.9776 7.92404 34.9776 7.98304C34.9776 8.05047 35.0282 8.10105 35.0957 8.12633C35.2138 8.16005 35.3234 8.07576 35.3234 7.91561ZM38.0554 13.4786C37.9627 13.4786 37.9121 13.5291 37.9036 13.6134C37.9036 13.6724 37.9036 13.7061 37.9542 13.7567C37.9795 13.782 38.0048 13.8073 38.0217 13.841C38.0554 13.8747 38.106 13.8916 38.1566 13.8747C38.2156 13.8494 38.2747 13.8157 38.3084 13.7567C38.3421 13.6977 38.3421 13.6471 38.3084 13.5881C38.2494 13.5207 38.165 13.4954 38.0723 13.4786H38.0554ZM32.5323 17.9036C32.5323 17.9036 32.5323 17.8531 32.5239 17.8193C32.4986 17.7519 32.4564 17.7266 32.3805 17.7519C32.2709 17.8025 32.2034 17.8699 32.1276 17.9542C32.1023 17.9795 32.1023 18.0132 32.1276 18.0385C32.1613 18.1059 32.2625 18.1818 32.3552 18.1481C32.389 18.1396 32.4227 18.1228 32.448 18.0975C32.5154 18.0638 32.5576 18.0048 32.5407 17.8952L32.5323 17.9036ZM35.5173 13.5966C35.4667 13.5966 35.4077 13.5966 35.3655 13.5966C35.3149 13.5966 35.2981 13.6218 35.2728 13.6556C35.2222 13.7651 35.3234 13.9084 35.4246 13.8916C35.5089 13.8916 35.5932 13.8579 35.6607 13.8073C35.6944 13.782 35.7281 13.7399 35.745 13.6977C35.7703 13.6387 35.745 13.5881 35.686 13.5881C35.6269 13.5881 35.5679 13.5881 35.5089 13.5881H35.5173V13.5966ZM35.8124 7.42675C35.8124 7.47732 35.8124 7.53632 35.8715 7.56161C35.9558 7.59532 36.0401 7.62061 36.1076 7.56161C36.1329 7.53632 36.1666 7.52789 36.1919 7.50261C36.2172 7.49418 36.2256 7.46889 36.2425 7.45203C36.2509 7.42675 36.2509 7.39303 36.2425 7.3846C36.1835 7.3256 36.1076 7.27503 36.0317 7.24974C35.8883 7.22446 35.804 7.28346 35.804 7.44361L35.8124 7.42675ZM33.1563 14.6249C33.131 14.6249 33.0973 14.6249 33.072 14.6249C33.0045 14.6249 32.9539 14.6586 32.9286 14.7344C32.9033 14.7934 32.9286 14.8524 32.9623 14.903C32.9876 14.9283 33.0129 14.9536 33.0467 14.962C33.072 14.962 33.0973 14.9704 33.1141 14.962C33.2237 14.9367 33.3081 14.8693 33.3502 14.7682C33.3755 14.7092 33.3502 14.6586 33.2912 14.6502C33.249 14.6333 33.1984 14.6249 33.1563 14.6249ZM36.6978 13.0571C36.6304 12.9644 36.5292 12.9138 36.4364 12.9054C36.3184 12.8801 36.2678 12.9138 36.2425 13.0403C36.2172 13.1751 36.3268 13.2763 36.4533 13.2426C36.5545 13.2173 36.6388 13.1667 36.6978 13.0571ZM38.7722 9.17992C38.6794 9.17992 38.6035 9.20521 38.5361 9.23892C38.477 9.26421 38.4686 9.30635 38.4686 9.35692C38.4686 9.41592 38.5192 9.4665 38.5614 9.50021C38.5951 9.53393 38.6457 9.55078 38.6963 9.5255C38.8059 9.49178 38.8733 9.40749 38.8986 9.29792C38.8986 9.24735 38.8733 9.20521 38.8312 9.18835C38.8059 9.18835 38.7975 9.18835 38.7806 9.18835V9.17992H38.7722ZM36.9255 7.24974C36.9255 7.24974 36.9255 7.22446 36.9255 7.21603C36.8918 7.09803 36.8159 7.00531 36.7147 6.93788C36.681 6.9126 36.6472 6.92945 36.6219 6.93788C36.5713 6.9716 36.5545 7.02217 36.5629 7.08117C36.5882 7.19074 36.6557 7.28346 36.7569 7.34246C36.7906 7.36775 36.8412 7.37618 36.8749 7.34246C36.9255 7.31717 36.9424 7.27503 36.9339 7.22446V7.24974H36.9255ZM37.2544 12.1384C37.2038 12.0457 37.1194 11.9867 37.0267 11.9361C36.8918 11.8771 36.799 11.9361 36.7906 12.0794C36.7906 12.1637 36.8159 12.2143 36.9002 12.2311C37.0098 12.2733 37.17 12.2227 37.2544 12.1384ZM38.1482 10.0144C38.1735 10.0144 38.2072 10.0059 38.2409 9.98065C38.2915 9.94693 38.3505 9.91322 38.3927 9.87107C38.4433 9.8205 38.4264 9.77836 38.3927 9.73621C38.3252 9.66878 38.165 9.65193 38.0723 9.7025C38.0638 9.7025 38.0386 9.72779 38.0217 9.73621C37.9711 9.79522 37.9711 9.85422 38.0133 9.93007C38.0386 9.98065 38.0807 10.0144 38.1566 10.0144H38.1482ZM38.5698 12.1637C38.6794 12.1637 38.7131 12.1131 38.6878 12.0288C38.6794 11.9951 38.6541 11.9614 38.6372 11.9193C38.5866 11.8518 38.5023 11.8097 38.4264 11.8265C38.359 11.8518 38.3168 11.894 38.3084 11.9951C38.3084 12.0457 38.3084 12.0794 38.359 12.0878C38.4264 12.13 38.5108 12.1553 38.5698 12.1637ZM39.7503 10.7477C39.6828 10.7477 39.6407 10.7814 39.6322 10.8572C39.6322 10.9668 39.7166 11.0848 39.8093 11.1101C39.8768 11.1354 39.9442 11.1101 39.978 11.0511C40.0117 10.9921 40.0117 10.9162 39.9527 10.8741C39.9021 10.8404 39.8599 10.8067 39.8093 10.7814C39.784 10.7729 39.7587 10.7729 39.7419 10.7561L39.7503 10.7477ZM35.121 16.1083C35.0367 16.083 34.9524 16.1083 34.8849 16.142C34.75 16.2095 34.75 16.319 34.8765 16.4202C34.8765 16.4202 34.8849 16.4202 34.9018 16.4286C34.9692 16.4792 35.0535 16.4539 35.1041 16.3949C35.1632 16.3106 35.1716 16.2179 35.1379 16.1167L35.121 16.1083ZM34.9692 18.0806C34.9018 18.1144 34.8343 18.1649 34.8006 18.2324C34.7753 18.2829 34.7668 18.3419 34.8006 18.3841C34.8512 18.4431 34.9439 18.4768 35.0114 18.4515C35.0957 18.4262 35.121 18.3672 35.1041 18.3082C35.1041 18.2576 35.0957 18.2239 35.0788 18.1734C35.0535 18.1144 35.0282 18.0806 34.9692 18.0554V18.0806ZM35.4077 9.78679C35.374 9.71936 35.3234 9.66878 35.2643 9.63507C35.18 9.5845 35.0957 9.62664 35.062 9.7025C35.0367 9.76993 35.0367 9.84579 35.062 9.91322C35.0704 9.94693 35.121 9.97222 35.1547 9.96379C35.1885 9.96379 35.2138 9.9385 35.2391 9.93007C35.2981 9.89636 35.3487 9.84579 35.3908 9.77836L35.4077 9.78679ZM33.4177 9.23892C33.3671 9.17149 33.3249 9.09563 33.2828 9.0282C33.2828 9.01977 33.2575 9.00292 33.2322 8.99449C33.2069 8.9692 33.1732 8.9692 33.1394 8.99449C33.0804 9.0282 33.0298 9.07877 33.0045 9.1462C32.9961 9.19678 33.0045 9.23892 33.0382 9.26421C33.0888 9.29792 33.1479 9.31478 33.2069 9.31478C33.2659 9.31478 33.3418 9.31478 33.4008 9.24735H33.4177V9.23892ZM36.993 9.76993C37.0604 9.76993 37.1363 9.71093 37.1953 9.61821C37.2291 9.55921 37.2038 9.50864 37.1363 9.50021C37.052 9.49178 36.9677 9.50021 36.8833 9.50864C36.799 9.53393 36.7737 9.61821 36.8243 9.68564C36.858 9.73621 36.9086 9.75307 36.993 9.75307V9.76993ZM39.3455 10.0565C39.354 10.0565 39.3961 10.0481 39.4299 10.0228C39.4805 9.9975 39.4973 9.95536 39.4889 9.90479C39.4889 9.84579 39.4552 9.81207 39.4046 9.78679C39.3203 9.75307 39.1938 9.79522 39.1516 9.89636C39.1263 9.94693 39.1516 9.98908 39.1853 10.0144C39.2191 10.0396 39.2697 10.0481 39.3455 10.0565ZM34.5392 15.4593C34.5392 15.3497 34.4886 15.316 34.3958 15.3413C34.3621 15.3413 34.3284 15.3666 34.2862 15.3919C34.2609 15.4003 34.2525 15.4256 34.2525 15.4593C34.2609 15.5436 34.3115 15.6026 34.3874 15.6532C34.438 15.6785 34.4717 15.6616 34.5054 15.6279C34.5392 15.5773 34.556 15.5352 34.556 15.4762L34.5392 15.4593ZM32.3552 10.3009C32.2456 10.3009 32.2034 10.3599 32.2203 10.4695C32.2203 10.4695 32.2203 10.4779 32.2203 10.4948C32.2456 10.5538 32.3046 10.5875 32.3721 10.5622C32.4395 10.5369 32.507 10.4948 32.5239 10.4189C32.5323 10.3937 32.5239 10.3684 32.4986 10.3515C32.448 10.3262 32.389 10.3009 32.3299 10.3009H32.3552ZM35.2981 6.99688C35.2981 7.08117 35.3487 7.13174 35.4077 7.11489C35.4667 7.11489 35.5173 7.08117 35.551 7.0306C35.5763 6.99688 35.5595 6.96317 35.5426 6.93788C35.5089 6.9126 35.4752 6.90417 35.433 6.88731C35.3487 6.86202 35.2981 6.89574 35.2981 6.98003V6.99688Z" fill="black"/>
<path d="M0.0168642 32.0715C0.160212 32.0715 0.311992 32.0715 0.45534 32.0715C1.29856 32.0715 2.14179 32.0715 2.98501 32.0715C3.03561 32.0715 3.07777 32.0715 3.12836 32.0715C3.15366 32.1643 3.13679 32.2654 3.12836 32.3497C3.12836 32.375 3.09463 32.4003 3.07777 32.4087C2.98501 32.4761 2.90069 32.552 2.8248 32.6447C2.57183 32.9313 2.42849 33.2684 2.38632 33.6477C2.36103 33.8837 2.33573 34.1282 2.33573 34.3726C2.33573 36.7326 2.33573 39.0927 2.33573 41.4696C2.33573 41.5286 2.33573 41.5791 2.33573 41.6381C2.38632 41.6634 2.42005 41.6466 2.47065 41.6466C2.79107 41.6466 3.1115 41.6466 3.44035 41.6466C3.76078 41.6466 3.73548 41.6466 3.89569 41.6466C4.24142 41.6466 4.52811 41.537 4.78951 41.3263C5.10151 41.065 5.4135 40.8037 5.71706 40.5424C5.83511 40.4497 5.94473 40.3485 6.06278 40.2558C6.09651 40.2221 6.1471 40.1968 6.20613 40.2053C6.26515 40.2053 6.31575 40.2053 6.37477 40.2053C6.40007 40.2053 6.4085 40.2053 6.4338 40.2137C6.4338 40.239 6.4338 40.2474 6.4338 40.2642C6.34948 40.9217 6.25672 41.5623 6.1724 42.2197C6.1724 42.2197 6.1724 42.245 6.16397 42.2534C6.15554 42.2534 6.13024 42.2534 6.10494 42.2534C6.07121 42.2534 6.02062 42.2534 5.98689 42.2534C4.03904 42.2534 2.10806 42.2534 0.160212 42.2534C0.109619 42.2534 0.0674577 42.2534 0.0168642 42.2534C0.0168642 42.1439 0.0168642 42.0259 0.0168642 41.9163C0.0758899 41.9163 0.126483 41.8657 0.160212 41.8489C0.446908 41.6128 0.649282 41.3094 0.733605 40.9554C0.801062 40.6604 0.82636 40.3485 0.82636 40.0367C0.82636 38.1149 0.82636 36.1932 0.82636 34.2799C0.82636 34.0017 0.801063 33.732 0.742037 33.4539C0.657715 33.0324 0.430044 32.7037 0.118051 32.4256C0.0843219 32.4003 0.0505934 32.3665 0 32.3665V32.0547L0.0168642 32.0715Z" fill="black"/>
<path d="M24.994 49.9753C24.9687 49.9416 24.9688 49.9078 24.9688 49.8573C24.9688 49.1408 24.9688 48.4244 24.9688 47.708C24.9688 47.6742 24.9688 47.6489 24.9688 47.6152C24.994 47.6152 25.0193 47.6152 25.0362 47.6152C25.3566 47.6152 25.6771 47.6152 26.0059 47.6152C26.1999 47.6152 26.3601 47.6742 26.5203 47.7838C26.9503 48.0788 26.9503 48.7025 26.5203 48.9975C26.4613 49.0313 26.4022 49.065 26.3263 49.0903C26.301 49.0987 26.2757 49.1155 26.2589 49.124C26.2589 49.1745 26.2673 49.183 26.2926 49.2083C26.436 49.419 26.5877 49.6297 26.7311 49.8404C26.7564 49.8657 26.7817 49.8994 26.7901 49.9247C26.7901 49.9331 26.7901 49.9584 26.7901 49.9837H26.4107C26.3432 49.891 26.2757 49.7814 26.2083 49.6887C26.0987 49.537 25.9975 49.3768 25.8879 49.2251C25.8626 49.1914 25.8288 49.1577 25.7698 49.1661C25.6349 49.1661 25.5084 49.1661 25.3735 49.1661C25.3482 49.1661 25.3229 49.1661 25.306 49.1745C25.306 49.2251 25.306 49.2588 25.306 49.2926C25.306 49.4864 25.306 49.6718 25.306 49.8657C25.306 49.9163 25.306 49.95 25.2807 49.9837H24.9688L24.994 49.9753ZM25.3229 48.7953C25.3482 48.7953 25.3566 48.7953 25.3735 48.7953C25.5759 48.7953 25.7782 48.7953 25.9806 48.7953C26.0734 48.7953 26.1577 48.77 26.242 48.7278C26.3938 48.6435 26.4781 48.5255 26.4781 48.3485C26.4781 48.18 26.3938 48.0535 26.242 47.9777C26.1493 47.9271 26.0481 47.9102 25.9469 47.9102C25.7698 47.9102 25.5927 47.9102 25.3988 47.9102C25.3735 47.9102 25.3482 47.9102 25.3398 47.9102C25.3398 47.9355 25.3313 47.9355 25.3313 47.944C25.3313 48.2052 25.3313 48.4581 25.3313 48.7194C25.3313 48.7278 25.3313 48.7531 25.3313 48.77V48.7953H25.3229Z" fill="black"/>
<path d="M35.9635 49.9739C35.9635 49.9234 35.9635 49.8896 35.9635 49.8391C35.9635 49.1395 35.9635 48.4231 35.9635 47.715C35.9635 47.6813 35.9635 47.6476 35.9635 47.6055C35.9888 47.6055 36.0141 47.6055 36.031 47.6055C36.3092 47.6055 36.5706 47.6055 36.8405 47.6055C37.1103 47.6055 37.3801 47.6898 37.6078 47.8583C37.8692 48.0522 38.0294 48.2966 38.0631 48.6253C38.1137 48.9625 38.0378 49.2575 37.827 49.5356C37.65 49.7632 37.4054 49.8896 37.1272 49.9571C37.0681 49.9655 37.0091 49.9824 36.9332 49.9908C36.9079 49.9908 36.8826 49.9908 36.8658 49.9992H35.9551L35.9635 49.9739ZM36.3092 49.6284C36.343 49.6284 36.3598 49.6284 36.3767 49.6284C36.5285 49.6284 36.6718 49.6284 36.832 49.6284C36.8995 49.6284 36.9838 49.6199 37.0597 49.5946C37.5235 49.4851 37.8017 49.0552 37.7005 48.5916C37.65 48.3556 37.5235 48.1618 37.3042 48.0438C37.1693 47.9595 37.0175 47.9258 36.8658 47.9089C36.6971 47.9089 36.5453 47.9089 36.3767 47.9089C36.3514 47.9089 36.3261 47.9089 36.3092 47.9173V49.6115V49.6284Z" fill="black"/>
<path d="M39.3457 49.9751C39.3457 49.9245 39.3457 49.8655 39.3457 49.8234C39.3457 49.1322 39.3457 48.4411 39.3457 47.7584C39.3457 47.7078 39.3457 47.6656 39.3541 47.6151C39.4638 47.6066 39.5649 47.6151 39.6661 47.6151C39.6999 47.6488 39.6914 47.6825 39.6914 47.7246C39.6914 47.9775 39.6914 48.2135 39.6914 48.4664C39.6914 48.5169 39.6914 48.5507 39.6914 48.5844C39.7252 48.6181 39.7757 48.6097 39.8095 48.6097C40.1046 48.6097 40.4082 48.6097 40.7202 48.6097C40.7792 48.6097 40.8298 48.6097 40.8888 48.6097C40.9141 48.6097 40.9394 48.6097 40.9478 48.6097C40.9816 48.5759 40.9731 48.5254 40.9731 48.4917C40.9731 48.2388 40.9731 48.0028 40.9731 47.7499C40.9731 47.7162 40.9731 47.6656 40.9731 47.6319C41.0912 47.6235 41.2008 47.6235 41.3104 47.6319C41.3104 47.6656 41.3104 47.6994 41.3104 47.7246C41.3104 48.4411 41.3104 49.166 41.3104 49.8824C41.3104 49.9161 41.3104 49.9498 41.3104 49.992H40.9731C40.9731 49.9414 40.9647 49.8993 40.9647 49.8487C40.9647 49.5874 40.9647 49.3345 40.9647 49.0732C40.9647 49.0227 40.9647 48.989 40.9394 48.9384C40.9141 48.9384 40.9057 48.9384 40.8804 48.9384C40.5094 48.9384 40.1299 48.9384 39.7589 48.9384C39.7336 48.9384 39.7083 48.9384 39.6914 48.9468C39.6914 48.9974 39.6914 49.0395 39.6914 49.0817C39.6914 49.3345 39.6914 49.579 39.6914 49.8487C39.6914 49.8993 39.6914 49.9414 39.683 49.992H39.3457V49.9751Z" fill="black"/>
<path d="M32.3965 49.9739C32.3965 49.9234 32.4049 49.9065 32.4218 49.8559C32.7 49.2238 32.9699 48.5916 33.2313 47.9595C33.265 47.8668 33.3156 47.7656 33.3493 47.6729C33.3493 47.6476 33.3746 47.6223 33.3831 47.6055C33.518 47.6055 33.636 47.6055 33.7625 47.6055C33.7709 47.6392 33.7962 47.6645 33.8131 47.6982C34.1251 48.4231 34.4371 49.1395 34.7406 49.8728C34.7406 49.8981 34.7659 49.9065 34.7659 49.9318C34.7659 49.9571 34.7659 49.9655 34.7659 49.9908H34.4118C34.3443 49.8222 34.2684 49.6705 34.201 49.5019C34.1673 49.5019 34.1335 49.5019 34.1082 49.5019C33.7709 49.5019 33.4252 49.5019 33.0964 49.5019C33.0879 49.5019 33.0626 49.5019 33.0458 49.5019C33.012 49.5019 32.9867 49.5272 32.9614 49.5609C32.9109 49.6705 32.8687 49.7716 32.8181 49.8812C32.8097 49.9149 32.7675 49.9486 32.7591 49.9908H32.4049L32.3965 49.9739ZM34.0576 49.1479C34.0576 49.1226 34.0576 49.1142 34.0576 49.0889C33.9143 48.7686 33.7794 48.4483 33.636 48.1196C33.636 48.1112 33.636 48.0859 33.6023 48.0943C33.6023 48.0943 33.5939 48.1196 33.577 48.128C33.4336 48.4483 33.2987 48.7686 33.1554 49.0805C33.1554 49.0889 33.1554 49.1142 33.1554 49.1395C33.265 49.1479 33.9649 49.1479 34.0576 49.1479Z" fill="black"/>
<path d="M30.5004 49.9757C30.4751 49.942 30.492 49.8914 30.492 49.8409C30.492 49.6049 30.492 49.3773 30.492 49.1413C30.492 49.0739 30.4667 48.998 30.433 48.939C30.2053 48.5934 29.9776 48.2478 29.7415 47.9023C29.6909 47.818 29.6319 47.7506 29.5897 47.6663C29.5897 47.6578 29.5813 47.6325 29.5645 47.6073C29.7078 47.5988 29.8427 47.6073 29.9861 47.6073C30.2137 47.9613 30.4414 48.3237 30.6691 48.6777C30.7197 48.6777 30.7281 48.644 30.7365 48.6187C30.9136 48.3406 31.0907 48.054 31.2762 47.7843C31.3099 47.7337 31.3352 47.6915 31.369 47.641C31.3774 47.6325 31.4027 47.6073 31.428 47.6073C31.546 47.6073 31.6556 47.6073 31.7653 47.6073C31.7906 47.6578 31.7653 47.6747 31.74 47.7C31.5966 47.9107 31.4533 48.1298 31.3184 48.3406C31.1834 48.5428 31.057 48.762 30.9136 48.9643C30.8799 49.0233 30.863 49.0739 30.863 49.1413C30.863 49.3773 30.863 49.6217 30.863 49.8577C30.863 49.9083 30.863 49.942 30.8546 49.9926H30.5173L30.5004 49.9757Z" fill="black"/>
<path d="M28.1041 49.9757C28.1041 49.9252 28.0957 49.8915 28.0957 49.8409C28.0957 49.1413 28.0957 48.4333 28.0957 47.7337C28.0957 47.7 28.0957 47.6663 28.0957 47.6157C28.2138 47.6073 28.3234 47.6073 28.433 47.6157C28.433 47.6494 28.433 47.6831 28.433 47.7084C28.433 48.4249 28.433 49.1497 28.433 49.8662C28.433 49.8999 28.433 49.9336 28.433 49.9757H28.0957H28.1041Z" fill="black"/>
<path d="M42.3308 36.6408C42.3308 36.6914 42.3561 36.7083 42.3645 36.7504C42.5669 37.0876 42.7861 37.4078 42.9885 37.7366C43.5113 38.571 44.0425 39.4055 44.5737 40.2399C44.8014 40.5855 45.0544 40.9058 45.3411 41.2092C45.4254 41.2935 45.5097 41.3862 45.6025 41.4705C45.8048 41.6643 46.0409 41.7908 46.3023 41.9004C46.3361 41.9088 46.3867 41.9341 46.4204 41.9509C46.4204 41.9509 46.4288 41.9509 46.4457 41.9594C46.471 42.0521 46.471 42.1532 46.4457 42.2544C46.4204 42.2544 46.3951 42.2544 46.3614 42.2544C45.6109 42.2544 44.8436 42.2544 44.0931 42.2544C44.0341 42.2544 44.0003 42.2291 43.975 42.1869C43.798 41.9004 43.604 41.6053 43.427 41.3188C42.4825 39.8269 41.5381 38.335 40.6022 36.86C40.5684 36.8094 40.5431 36.7504 40.5094 36.7167C40.4841 36.7167 40.4841 36.742 40.4841 36.7504C40.4841 36.7841 40.4841 36.8094 40.4841 36.8431C40.4841 37.9304 40.4841 39.0009 40.4841 40.0882C40.4841 40.3495 40.5094 40.6108 40.5516 40.872C40.619 41.2261 40.7877 41.5126 41.0491 41.7823C41.1081 41.8413 41.184 41.8919 41.2514 41.9509C41.2599 42.0436 41.2599 42.1448 41.2514 42.2459C41.2261 42.2459 41.2177 42.2544 41.2008 42.2544C40.1974 42.2544 39.2108 42.2544 38.2074 42.2544C38.2074 42.2544 38.1821 42.2544 38.1737 42.2459C38.1737 42.1532 38.1737 42.0521 38.1737 41.9594C38.1821 41.9509 38.199 41.9341 38.2074 41.9256C38.5868 41.6391 38.8145 41.2598 38.8988 40.7962C38.9326 40.5433 38.9579 40.2989 38.9579 40.0545C38.9579 38.1496 38.9579 36.2363 38.9579 34.3314C38.9579 34.0448 38.9326 33.7582 38.8735 33.4885C38.7892 33.0839 38.5784 32.7468 38.2664 32.4855C38.2411 32.4602 38.2074 32.4349 38.1737 32.4181C38.1737 32.3253 38.1652 32.2242 38.1737 32.1315C38.199 32.1315 38.2243 32.1315 38.2411 32.123C38.2749 32.123 38.3086 32.123 38.3507 32.123C39.6156 32.123 40.8804 32.123 42.1453 32.123C42.4825 32.123 42.803 32.1483 43.1234 32.1905C43.5028 32.2495 43.8907 32.3591 44.2364 32.5361C44.5737 32.7131 44.8351 32.9575 44.9869 33.3031C45.0712 33.4801 45.1218 33.6739 45.1387 33.8678C45.1977 34.5084 45.0038 35.0815 44.5737 35.5704C44.3461 35.8317 44.0762 36.034 43.7727 36.2025C43.3679 36.4133 42.9463 36.5565 42.4994 36.6577C42.4404 36.6577 42.3898 36.683 42.3476 36.6914L42.3308 36.6408ZM40.4672 36.3037C40.4757 36.3037 40.4925 36.3121 40.4925 36.3121C40.5263 36.3121 40.56 36.3121 40.6022 36.3121C40.9141 36.3037 41.2093 36.2784 41.5128 36.2194C41.808 36.1604 42.0862 36.0761 42.3561 35.9328C42.7861 35.7221 43.0812 35.385 43.2499 34.9298C43.3679 34.6095 43.4185 34.2724 43.3848 33.9268C43.3595 33.6739 43.2667 33.4464 43.0981 33.2609C42.9547 33.0923 42.7861 32.9743 42.5837 32.8901C42.2464 32.7552 41.8923 32.6878 41.5297 32.6793C41.1924 32.6709 40.872 32.6793 40.5431 32.6793C40.5178 32.6793 40.4925 32.6793 40.4841 32.6793C40.4588 32.7889 40.4588 35.7811 40.4757 36.2194C40.4757 36.2447 40.4757 36.27 40.4757 36.2784L40.4672 36.3037Z" fill="black"/>
<path d="M49.8089 34.1461C49.8089 34.1967 49.8089 34.2304 49.8089 34.281C49.8089 35.1913 49.8089 36.0931 49.8089 37.0034C49.8089 37.9137 49.8089 38.9926 49.8089 39.9872C49.8089 40.2738 49.8342 40.5519 49.8763 40.8216C49.9354 41.2262 50.1293 41.5718 50.416 41.8584C50.4244 41.8668 50.4413 41.8836 50.4666 41.9089C50.5003 41.9342 50.5172 41.9679 50.5172 42.0185C50.5172 42.0859 50.5172 42.1534 50.5172 42.2208C50.5172 42.2208 50.5172 42.2461 50.5172 42.2545C50.5172 42.2545 50.4919 42.2629 50.4834 42.2629C49.7583 42.2629 49.0247 42.2629 48.3079 42.2629C48.2995 42.2629 48.2826 42.2629 48.2573 42.2545C48.232 42.1618 48.2573 42.0607 48.2573 41.9679C48.2573 41.9427 48.2826 41.9174 48.3079 41.9005C48.367 41.8331 48.4428 41.7572 48.5019 41.6898C48.6958 41.4622 48.8139 41.2094 48.856 40.9228C48.9066 40.6362 48.9404 40.3581 48.9404 40.0799C48.9404 38.1497 48.9404 36.228 48.9404 34.2978C48.9404 33.9859 48.9066 33.6741 48.8476 33.3791C48.7886 33.0925 48.6537 32.8396 48.4681 32.6289C48.4091 32.5699 48.3585 32.5109 48.2995 32.4351C48.2911 32.4098 48.2658 32.3845 48.2658 32.3676C48.2658 32.2833 48.2658 32.1991 48.2658 32.1063C48.3164 32.0811 48.3585 32.0979 48.4007 32.0979C48.7801 32.0979 49.168 32.0979 49.5559 32.0979C49.9522 32.0979 49.8342 32.0979 49.9775 32.0979C50.045 32.0979 50.0956 32.1063 50.1462 32.1653C50.4413 32.4772 50.7448 32.7891 51.04 33.0841C51.3182 33.3707 51.5881 33.6488 51.8663 33.9269C52.1446 34.2051 52.406 34.4917 52.6758 34.7614C52.8782 34.9721 53.0974 35.1913 53.2998 35.402C53.5781 35.6885 53.8479 35.9667 54.1093 36.2448C54.3033 36.4471 54.5056 36.6494 54.6911 36.8517C54.9188 37.0877 55.1465 37.3321 55.3741 37.5513C55.4079 37.6019 55.4585 37.6356 55.5091 37.6862C55.5091 37.6777 55.5175 37.6524 55.5175 37.6356C55.5175 37.6019 55.5175 37.5682 55.5175 37.526C55.5175 36.464 55.5175 35.3935 55.5175 34.3315C55.5175 34.0534 55.4922 33.7921 55.4585 33.5308C55.3994 33.1346 55.2308 32.7891 54.961 32.5025C54.8176 32.3508 54.8429 32.4182 54.8429 32.2075C54.8429 32.1822 54.8429 32.1485 54.8429 32.1232C54.8429 32.1232 54.8429 32.1148 54.8429 32.0979C54.8766 32.0726 54.9104 32.0895 54.9525 32.0895C55.2392 32.0895 55.5259 32.0895 55.8211 32.0895C56.2005 32.0895 56.5884 32.0895 56.9678 32.0895C57.0184 32.0895 57.0522 32.0895 57.1028 32.0895C57.1112 32.1485 57.1281 32.3255 57.1112 32.3676C57.1112 32.3929 57.0859 32.4182 57.0775 32.4266C57.0269 32.4856 56.9847 32.5362 56.9341 32.5784C56.698 32.8565 56.5547 33.1599 56.4956 33.5224C56.4619 33.8005 56.4366 34.0702 56.4366 34.3484C56.4366 36.2448 56.4366 38.1497 56.4366 40.0462C56.4366 40.3412 56.4619 40.6446 56.5209 40.9396C56.5715 41.1925 56.6643 41.4032 56.8161 41.6055C56.8835 41.6982 56.9678 41.7994 57.0522 41.8836C57.0859 41.9174 57.1112 41.9511 57.1028 42.0185C57.1028 42.0859 57.1028 42.1702 57.1028 42.2461C57.0775 42.2461 57.0522 42.2545 57.0353 42.2545C57.01 42.2545 56.9763 42.2545 56.951 42.2545C56.2933 42.2545 55.6355 42.2545 54.9863 42.2545C54.9357 42.2545 54.8935 42.2545 54.8429 42.2461C54.8345 42.1534 54.8429 42.0691 54.8429 41.9679C54.8429 41.9427 54.8682 41.9174 54.8766 41.9089C54.9104 41.8584 54.961 41.8246 54.9947 41.7741C55.2308 41.5212 55.391 41.2262 55.45 40.8806C55.5006 40.5856 55.5175 40.2991 55.5344 39.9956C55.5344 39.9366 55.5259 39.886 55.4753 39.8523C55.2139 39.5742 54.9357 39.3129 54.6743 39.0432C54.3286 38.6976 53.9913 38.352 53.6455 37.9896C53.3082 37.6524 52.9878 37.3069 52.659 36.9781C52.3217 36.6326 51.976 36.287 51.6471 35.9414C51.3098 35.6043 50.9894 35.2587 50.6605 34.93C50.4329 34.694 50.2052 34.4495 49.9691 34.2304C49.9438 34.2051 49.9101 34.1798 49.8848 34.1461C49.8848 34.1461 49.8763 34.1461 49.8595 34.1461H49.8089Z" fill="black"/>
<path d="M59.9367 32.081C59.9451 32.081 59.9704 32.081 59.9873 32.081C62.1375 32.081 64.2793 32.081 66.4295 32.081C66.4295 32.081 66.4548 32.081 66.4632 32.0894C66.4632 32.1147 66.4632 32.14 66.4632 32.1569C66.4632 32.7384 66.4632 33.3284 66.4632 33.91C66.4632 33.9353 66.4632 33.9606 66.4632 33.9775C66.4379 33.9775 66.4126 33.9775 66.3958 33.9775C66.362 33.9775 66.3283 33.9775 66.2862 33.9775C66.2018 33.9775 66.1344 33.9522 66.0585 33.8932C65.7802 33.6403 65.5104 33.3959 65.2237 33.143C65.1647 33.084 65.0888 33.025 65.0297 32.966C64.8611 32.8143 64.6756 32.73 64.4479 32.6794C64.3383 32.6542 64.2371 32.6541 64.1275 32.6541C63.5288 32.6541 62.9301 32.6541 62.3399 32.6541C62.3061 32.6541 62.2808 32.6541 62.2471 32.6541C62.2471 32.6794 62.2387 32.7047 62.2387 32.7216C62.2387 32.7469 62.2387 32.7806 62.2387 32.8059C62.2387 33.8595 62.2387 34.8962 62.2387 35.9413C62.2387 35.9919 62.2387 36.0341 62.2471 36.0846C62.2724 36.0846 62.2977 36.0846 62.3314 36.0846C62.7699 36.0846 63.2 36.0846 63.6469 36.0846C63.8577 36.0846 64.0769 36.0509 64.2877 36.0003C64.5997 35.9329 64.8695 35.7728 65.0972 35.5621C65.2068 35.4693 65.308 35.3598 65.3923 35.2418C65.4261 35.1912 65.4598 35.1743 65.5357 35.1743C65.6031 35.1743 65.679 35.1743 65.7465 35.1743C65.7465 35.1996 65.7465 35.2249 65.7465 35.2418C65.7465 35.2671 65.7465 35.2755 65.7465 35.3008C65.7465 36.0256 65.7465 36.7589 65.7465 37.4838C65.7465 37.5175 65.7465 37.5681 65.7465 37.6018C65.7212 37.6018 65.6959 37.6102 65.679 37.6102C65.62 37.6102 65.561 37.6102 65.502 37.6102C65.4514 37.6102 65.4345 37.5849 65.4092 37.5597C65.3417 37.4669 65.2574 37.3827 65.1731 37.2984C64.8611 36.9781 64.4901 36.8011 64.0516 36.7252C63.8239 36.6915 63.5963 36.6746 63.3602 36.6746C63.0397 36.6746 62.7193 36.6746 62.382 36.6746C62.3314 36.6746 62.2977 36.6746 62.2471 36.6746C62.2471 36.6999 62.2387 36.7252 62.2387 36.7421C62.2387 36.7758 62.2387 36.8011 62.2387 36.8348C62.2387 38.3604 62.2387 39.8776 62.2387 41.4032C62.2387 41.4537 62.2387 41.5127 62.2387 41.5549C62.2893 41.5802 62.323 41.5633 62.3736 41.5633C62.9133 41.5633 63.4445 41.5633 63.9841 41.5633C64.1612 41.5633 64.3552 41.5633 64.5322 41.5633C64.8695 41.5633 65.1647 41.4537 65.4176 41.243C65.679 41.0323 65.9404 40.8047 66.1934 40.5856C66.362 40.4423 66.5138 40.3074 66.6825 40.1641C66.7331 40.1304 66.7752 40.1051 66.8342 40.1051C66.9017 40.1051 66.9776 40.1051 67.0451 40.1051C67.0703 40.1557 67.0451 40.1894 67.0451 40.2231C67.0366 40.358 67.0113 40.476 66.9945 40.6024C66.9354 41.0829 66.8595 41.5549 66.8005 42.0185C66.8005 42.0522 66.7921 42.0859 66.7752 42.1364C66.7499 42.1364 66.7246 42.1449 66.7078 42.1449C66.674 42.1449 66.6487 42.1449 66.615 42.1449C64.4311 42.1449 62.264 42.1449 60.08 42.1449C60.0294 42.1449 59.9704 42.1449 59.9282 42.1449C59.9029 42.0943 59.9282 42.0522 59.9198 42.0016C59.9114 41.892 59.9198 41.8077 60.0379 41.7487C60.3583 41.4706 60.5775 41.125 60.645 40.712C60.6787 40.5013 60.704 40.2821 60.704 40.0714C60.704 39.8607 60.704 39.6331 60.704 39.414C60.704 37.7114 60.704 35.9919 60.704 34.2893C60.704 34.0027 60.6787 33.7162 60.6365 33.4464C60.5691 32.9913 60.3246 32.6204 59.9788 32.3339C59.9198 32.2833 59.8945 32.2411 59.9114 32.1821C59.9114 32.1231 59.9114 32.0473 59.9198 31.9883L59.9367 32.081Z" fill="black"/>
<path d="M17.4624 42.2465C17.3443 42.2717 14.8737 42.2717 14.5364 42.2549C14.5111 42.2549 14.4858 42.2549 14.4689 42.2549C14.4689 42.2296 14.4689 42.2212 14.4689 42.1959C14.4689 42.1285 14.4689 42.0442 14.4689 41.9683C14.5027 41.9683 14.528 41.943 14.5533 41.943C14.7641 41.8925 14.8906 41.766 14.9327 41.5469C14.9664 41.3783 14.9327 41.2097 14.9074 41.058C14.8737 40.8642 14.7978 40.6787 14.7388 40.4849C14.5364 39.9033 14.334 39.3048 14.1401 38.7233C14.1064 38.6137 14.0726 38.5125 14.0305 38.4114C14.0305 38.3861 14.0052 38.3608 14.0052 38.344H13.9967C13.963 38.344 13.9377 38.344 13.904 38.344C12.9174 38.344 11.9224 38.344 10.9358 38.344C10.9358 38.344 10.9105 38.344 10.9021 38.344C10.9021 38.3524 10.8768 38.3777 10.8684 38.403C10.607 39.1278 10.3456 39.8696 10.0842 40.5944C9.99985 40.822 9.94083 41.058 9.91553 41.3109C9.91553 41.4036 9.91553 41.5047 9.91553 41.5975C9.94083 41.7745 10.0504 41.943 10.2613 41.9683C10.2697 41.9683 10.2865 41.9683 10.3118 41.9767C10.3203 42.0695 10.3203 42.1706 10.3118 42.2718C10.2781 42.2718 10.2528 42.2718 10.2275 42.2718C10.0757 42.2718 9.9071 42.2718 9.74689 42.2718C9.18193 42.2718 8.61697 42.2718 8.052 42.2718C8.00141 42.2718 7.96768 42.2718 7.91709 42.2718C7.88336 42.2043 7.88336 42.12 7.90866 41.9599C7.93395 41.9515 7.94239 41.9346 7.96768 41.9093C8.22065 41.7576 8.42302 41.5553 8.56637 41.3024C8.71815 41.0243 8.8615 40.7377 8.99642 40.4596C9.20722 39.996 9.39273 39.5156 9.57824 39.0436C9.89023 38.2765 10.1854 37.5011 10.4974 36.7425C11.037 35.3855 11.5682 34.02 12.1079 32.663C12.2007 32.427 12.3019 32.1994 12.3946 31.9634C12.3946 31.9381 12.4199 31.9129 12.4283 31.896C12.538 31.8707 12.6391 31.896 12.7488 31.896C12.8584 31.896 12.9511 31.896 13.0608 31.896C13.1704 31.896 13.2716 31.896 13.3812 31.896C13.4065 31.9466 13.4149 31.9887 13.4318 32.0309C13.8028 33.1182 14.1738 34.1886 14.5533 35.2759C15.0086 36.5992 15.4724 37.9225 15.9277 39.2458C16.0458 39.5998 16.1807 39.9707 16.2987 40.3331C16.4336 40.704 16.6107 41.058 16.8131 41.3867C16.9312 41.5637 17.0914 41.7239 17.2684 41.8419C17.2937 41.8672 17.3275 41.8756 17.3612 41.9009C17.4118 41.9262 17.4455 41.9599 17.4961 41.9852C17.4961 42.0442 17.4961 42.1032 17.5045 42.1622C17.5045 42.1959 17.5045 42.2465 17.5045 42.2802L17.4624 42.2465ZM11.1129 37.5432C11.1466 37.5685 11.1972 37.5517 11.2478 37.5517C12.032 37.5517 12.8078 37.5517 13.6004 37.5517C13.6257 37.5517 13.651 37.5517 13.6679 37.5517C13.6847 37.5517 13.7185 37.5517 13.7353 37.5517C13.7353 37.518 13.7269 37.4927 13.71 37.4674C13.6763 37.3325 13.6257 37.2145 13.592 37.0881C13.3559 36.3464 13.1113 35.6215 12.8921 34.8798C12.7741 34.5258 12.6644 34.1633 12.5464 33.8093C12.5464 33.7756 12.538 33.7419 12.4958 33.7166C12.4958 33.725 12.4705 33.7419 12.4705 33.7503C12.0152 35.0146 11.5767 36.2705 11.1213 37.5348C11.1213 37.5348 11.1213 37.5601 11.1213 37.5685L11.1129 37.5432Z" fill="black"/>
<path d="M34.4112 35.2338C34.4365 35.3433 34.4365 36.8774 34.4196 37.5854C34.4196 37.6106 34.4196 37.6359 34.4196 37.6696C34.3859 37.6949 34.3353 37.6949 34.3016 37.6949C34.2425 37.6949 34.1919 37.6949 34.1329 37.6949C34.1245 37.6949 34.0992 37.6697 34.0823 37.6612C34.0739 37.6528 34.0486 37.6275 34.0317 37.6022C33.9221 37.4674 33.8209 37.3662 33.686 37.2566C33.433 37.0459 33.1379 36.9026 32.8006 36.8352C32.5645 36.7846 32.3116 36.7678 32.0755 36.7678C31.7044 36.7678 31.3503 36.7678 30.9793 36.7678C30.954 36.7678 30.9202 36.7678 30.8949 36.7678C30.8949 36.7931 30.8865 36.8183 30.8865 36.8352C30.8865 36.8605 30.8865 36.8942 30.8865 36.9195C30.8865 38.4451 30.8865 39.9623 30.8865 41.4879C30.8865 41.5469 30.8865 41.5974 30.8865 41.6564C30.9202 41.6564 30.954 41.6564 30.9961 41.6564C31.7466 41.6564 32.4971 41.6564 33.2475 41.6564C33.4836 41.6564 33.7029 41.589 33.8884 41.4541C33.9727 41.4036 34.0402 41.3361 34.1245 41.2771C34.5208 40.94 34.9087 40.6113 35.305 40.2741C35.364 40.2236 35.4231 40.1898 35.4989 40.2067C35.558 40.2067 35.6339 40.2067 35.6929 40.2067C35.6929 40.2404 35.6929 40.2657 35.6929 40.291C35.6592 40.5438 35.6254 40.7883 35.5833 41.0411C35.5327 41.3783 35.4905 41.6986 35.4484 42.0273C35.4484 42.0947 35.4231 42.1706 35.4146 42.238C35.3893 42.238 35.364 42.2464 35.3472 42.2464C35.3134 42.2464 35.2881 42.2464 35.2544 42.2464C33.0705 42.2464 30.9034 42.2464 28.7194 42.2464C28.6688 42.2464 28.6098 42.2464 28.5676 42.2464C28.5423 42.2127 28.5676 42.1622 28.5592 42.1116C28.5508 41.9936 28.5592 41.9009 28.6773 41.8503C28.9724 41.589 29.1748 41.2856 29.2591 40.8978C29.3181 40.6366 29.3434 40.3837 29.3434 40.1224C29.3434 38.1585 29.3434 36.1778 29.3434 34.2055C29.3434 33.9442 29.3181 33.6829 29.2591 33.43C29.1748 33.0254 28.9471 32.7051 28.6351 32.4438C28.6098 32.4186 28.5845 32.4101 28.5761 32.3933C28.5676 32.3848 28.5508 32.3596 28.5508 32.3427C28.5508 32.309 28.5508 32.2584 28.5508 32.2247C28.5508 32.1741 28.5508 32.1404 28.5508 32.0898C28.5761 32.0898 28.6014 32.0898 28.6182 32.0898C28.652 32.0898 28.6773 32.0898 28.711 32.0898C30.7769 32.0898 32.8512 32.0898 34.9171 32.0898C34.9677 32.0898 35.0267 32.0898 35.0689 32.0898C35.0689 32.1151 35.0689 32.1404 35.0689 32.1573C35.0773 32.5534 35.0689 33.8852 35.0605 33.9947C35.0099 34.02 34.9677 34.0032 34.9171 33.9947C34.7485 33.9947 34.7822 34.02 34.6557 33.902C34.31 33.5902 33.9643 33.2783 33.6186 32.9749C33.4668 32.8316 33.2728 32.7641 33.0536 32.722C32.9355 32.6967 32.8175 32.6967 32.6826 32.6967C32.1092 32.6967 31.5358 32.6967 30.9624 32.6967C30.9287 32.6967 30.8781 32.6967 30.8443 32.722C30.8443 32.7473 30.8443 32.781 30.8443 32.8063C30.8359 33.6913 30.8443 36.0176 30.8528 36.1356C30.8781 36.1356 30.8865 36.1356 30.9118 36.1356C31.3671 36.1356 31.8225 36.1356 32.2694 36.1356C32.4718 36.1356 32.6657 36.1019 32.8512 36.0682C33.1295 36.0092 33.374 35.8912 33.5933 35.7142C33.7366 35.5962 33.88 35.4613 33.9896 35.3096C34.0233 35.259 34.0739 35.2253 34.1414 35.2422C34.2088 35.2422 34.2847 35.2338 34.3522 35.2506L34.4112 35.2338Z" fill="black"/>
<path d="M22.4965 40.4672C22.5218 40.4166 22.5218 40.3997 22.5302 40.3744C22.7916 39.6243 23.0446 38.8741 23.306 38.124C23.6011 37.2642 23.9047 36.4045 24.1914 35.5364C24.4022 34.9126 24.613 34.3058 24.8238 33.6905C24.8828 33.5135 24.9334 33.3196 24.9587 33.1257C24.9672 33.0077 24.9672 32.8897 24.9503 32.7717C24.9166 32.6032 24.8322 32.4767 24.6636 32.4009C24.6552 32.4009 24.6299 32.3756 24.6046 32.3672C24.5961 32.2744 24.5961 32.1733 24.6046 32.0806C24.6552 32.0553 24.6973 32.0722 24.7479 32.0722C25.3213 32.0722 25.8947 32.0722 26.4512 32.0722C26.5946 32.0722 26.7295 32.0722 26.8728 32.0722C26.9066 32.0722 26.9319 32.0722 26.9656 32.0722C26.9909 32.1649 26.974 32.266 26.9656 32.3587C26.9319 32.3672 26.9066 32.384 26.8813 32.3925C26.6452 32.4852 26.4512 32.6537 26.3163 32.8813C26.1055 33.2353 25.9369 33.6062 25.7766 33.9939C25.0768 35.8567 24.3685 37.711 23.6517 39.5737C23.3313 40.4166 23.0109 41.2679 22.6989 42.1023C22.6904 42.136 22.6652 42.1866 22.6483 42.2203C22.6146 42.2203 22.5893 42.2203 22.564 42.2203C22.1086 42.2203 21.6364 42.2203 21.5268 42.2203C21.5268 42.195 21.5015 42.1698 21.4931 42.136C21.2991 41.5629 21.0968 41.0066 20.9112 40.4334C20.6751 39.717 20.4222 39.0174 20.1861 38.301C19.9331 37.5593 19.6886 36.8344 19.4356 36.0927C19.1826 35.3762 18.9465 34.6598 18.6936 33.9433C18.5587 33.5725 18.3984 33.2269 18.2129 32.8813C18.1876 32.8476 18.1539 32.797 18.1286 32.7717C17.9853 32.62 17.8166 32.4936 17.6395 32.4009C17.5215 32.3334 17.5215 32.3503 17.5215 32.207C17.5215 32.1564 17.5215 32.0974 17.5215 32.0553C17.5468 32.0553 17.5721 32.0553 17.5889 32.0469C17.6142 32.0469 17.6395 32.0469 17.6564 32.0469C18.5502 32.0469 19.4609 32.0469 20.3547 32.0469C20.4053 32.0469 20.439 32.0469 20.4896 32.0469C20.5234 32.1564 20.4981 32.2492 20.4981 32.3419C20.4728 32.3672 20.4643 32.3756 20.439 32.3925C20.262 32.5273 20.1608 32.7043 20.1439 32.9319C20.1102 33.1342 20.1439 33.3365 20.1776 33.5388C20.2282 33.7495 20.2957 33.9686 20.3716 34.1709C20.574 34.7693 20.7763 35.3762 20.9787 35.9747C21.2907 36.9018 21.6027 37.8374 21.9062 38.7561C22.0833 39.2787 22.2604 39.8097 22.429 40.3323C22.429 40.3576 22.4543 40.3913 22.4796 40.4503L22.4965 40.4672Z" fill="black"/>
</svg>
