<svg width="208" height="50" viewBox="0 0 208 50" fill="none" xmlns="http://www.w3.org/2000/svg">
<path d="M0.296875 18.5792C1.17405 18.4443 2.21992 18.3516 3.35856 18.3516C5.42499 18.3516 6.90101 18.8321 7.8794 19.7426C8.87466 20.653 9.4482 21.9429 9.4482 23.7469C9.4482 25.5679 8.8831 27.06 7.84566 28.0801C6.7998 29.1254 5.07918 29.6818 2.91154 29.6818C1.88254 29.6818 1.02223 29.6312 0.296875 29.5469V18.5792ZM1.73916 28.4426C2.10184 28.51 2.6332 28.5269 3.19831 28.5269C6.27687 28.5269 7.94688 26.8071 7.94688 23.7975C7.96375 21.1673 6.47086 19.4981 3.42604 19.4981C2.68381 19.4981 2.11871 19.5655 1.73916 19.6498V28.4426Z" fill="#1C1A1C"/>
<path d="M11.3203 18.5792C12.0457 18.4274 13.0915 18.3516 14.0868 18.3516C15.6303 18.3516 16.6171 18.6298 17.3172 19.262C17.8823 19.7594 18.1944 20.5181 18.1944 21.378C18.1944 22.8533 17.2666 23.8312 16.0942 24.2274V24.278C16.9545 24.5731 17.469 25.374 17.7305 26.5289C18.0931 28.0885 18.363 29.1591 18.5908 29.5891H17.0979C16.9123 29.2772 16.6677 28.3161 16.3556 26.9251C16.0267 25.3824 15.4279 24.8091 14.1205 24.7586H12.7626V29.5891H11.3203V18.5792ZM12.7626 23.6542H14.2386C15.7821 23.6542 16.7521 22.8112 16.7521 21.5382C16.7521 20.0966 15.7062 19.4728 14.188 19.4559C13.4964 19.4559 12.9988 19.5234 12.7626 19.5908V23.6542Z" fill="#1C1A1C"/>
<path d="M23.5339 27.8274C24.1834 28.2236 25.1196 28.5524 26.1149 28.5524C27.5909 28.5524 28.4512 27.7768 28.4512 26.6472C28.4512 25.6018 27.8523 25.0117 26.351 24.43C24.5292 23.7809 23.4074 22.8451 23.4074 21.2687C23.4074 19.532 24.8497 18.2422 27.0173 18.2422C28.156 18.2422 28.991 18.5035 29.4802 18.7902L29.0838 19.962C28.7211 19.7596 27.9789 19.4309 26.9667 19.4309C25.4401 19.4309 24.8666 20.3413 24.8666 21.1C24.8666 22.1454 25.5413 22.6596 27.0848 23.2498C28.9741 23.9748 29.9356 24.8852 29.9356 26.5291C29.9356 28.2489 28.6621 29.7411 26.0305 29.7411C24.9509 29.7411 23.7785 29.4291 23.1797 29.0329L23.5339 27.8274Z" fill="#1C1A1C"/>
<path d="M33.3335 18.4277V25.0286C33.3335 27.524 34.4384 28.5862 35.9313 28.5862C37.5845 28.5862 38.6472 27.4903 38.6472 25.0286V18.4277H40.1064V24.9275C40.1064 28.3501 38.3014 29.758 35.8892 29.758C33.6034 29.758 31.8828 28.4513 31.8828 24.9949V18.4277H33.3335Z" fill="#1C1A1C"/>
<path d="M42.6016 18.4277H44.0438V28.3754H48.8093V29.581H42.6016V18.4277Z" fill="#1C1A1C"/>
<path d="M51.8563 18.4277V29.581H50.4141V18.4277H51.8563Z" fill="#1C1A1C"/>
<path d="M63.7744 24.683C63.6901 23.1318 63.5888 21.2603 63.6057 19.8693H63.5551C63.1756 21.176 62.7117 22.567 62.1466 24.1013L60.1729 29.5135H59.0764L57.2715 24.2025C56.7401 22.6344 56.2931 21.1929 55.981 19.8693H55.9473C55.9135 21.2603 55.8292 23.1318 55.7364 24.801L55.4412 29.581H54.0664L54.8424 18.4277H56.6811L58.5872 23.8231C59.0511 25.1972 59.4307 26.4196 59.709 27.583H59.7596C60.038 26.4618 60.4344 25.2309 60.932 23.8231L62.9225 18.4277H64.7612L65.4528 29.581H64.0443L63.7744 24.683Z" fill="#1C1A1C"/>
<path d="M69.3125 26.074L68.1569 29.581H66.6641L70.4511 18.4277H72.197L76.0009 29.581H74.4574L73.2766 26.074H69.3125ZM72.973 24.9443L71.8765 21.7324C71.6319 21.0074 71.4632 20.3414 71.2945 19.7007H71.2692C71.1006 20.3667 70.9234 21.0411 70.7041 21.7155L69.6077 24.9443H72.973Z" fill="#1C1A1C"/>
<path d="M77.6484 29.581V18.4277H79.2172L82.7934 24.0676C83.62 25.3743 84.2694 26.5461 84.7924 27.6926L84.8261 27.6757C84.6912 26.1836 84.6574 24.8263 84.6574 23.0897V18.4277H86.0154V29.581H84.5562L81.0138 23.9243C80.2378 22.685 79.4871 21.412 78.9305 20.1981L78.8799 20.2149C78.9642 21.6228 78.9979 22.9632 78.9979 24.8179V29.581H77.6484Z" fill="#1C1A1C"/>
<path d="M93.8515 26.074L92.696 29.581H91.2031L94.9902 18.4277H96.7277L100.532 29.581H98.9965L97.8073 26.074H93.8515ZM97.5121 24.9443L96.4156 21.7324C96.171 21.0074 96.0023 20.3414 95.8336 19.7007H95.7999C95.6312 20.3667 95.4541 21.0411 95.2348 21.7155L94.1383 24.9443H97.5121Z" fill="#1C1A1C"/>
<path d="M102.176 18.4277H103.618V28.3754H108.383V29.581H102.176V18.4277Z" fill="#1C1A1C"/>
<path d="M114.934 18.4277V23.0897H120.332V18.4277H121.792V29.581H120.332V24.3542H114.934V29.581H113.492V18.4277H114.934Z" fill="#1C1A1C"/>
<path d="M126.094 26.074L124.938 29.581H123.445L127.232 18.4277H128.97L132.774 29.581H131.239L130.049 26.074H126.094ZM129.746 24.9443L128.649 21.7324C128.405 21.0074 128.236 20.3414 128.067 19.7007H128.034C127.865 20.3667 127.688 21.0411 127.469 21.7155L126.372 24.9443H129.746Z" fill="#1C1A1C"/>
<path d="M134.418 18.5792C135.051 18.4443 136.037 18.3516 137.05 18.3516C138.492 18.3516 139.42 18.596 140.111 19.1609C140.693 19.5908 141.039 20.2568 141.039 21.1335C141.039 22.2126 140.33 23.1484 139.15 23.5867V23.6205C140.212 23.8818 141.452 24.7586 141.452 26.4193C141.452 27.3804 141.073 28.1054 140.508 28.6533C139.732 29.3615 138.475 29.6987 136.653 29.6987C135.658 29.6987 134.899 29.6312 134.418 29.5638V18.5792ZM135.86 23.1399H137.168C138.694 23.1399 139.588 22.3475 139.588 21.2684C139.588 19.9617 138.593 19.4475 137.142 19.4475C136.484 19.4475 136.096 19.4981 135.869 19.5487L135.86 23.1399ZM135.86 28.4847C136.139 28.5353 136.552 28.5522 137.066 28.5522C138.559 28.5522 139.934 28.0042 139.934 26.3856C139.934 24.8597 138.627 24.2359 137.05 24.2359H135.86V28.4847Z" fill="#1C1A1C"/>
<path d="M144.829 18.4277V29.581H143.387V18.4277H144.829Z" fill="#1C1A1C"/>
<path d="M147.348 18.5792C147.98 18.4443 148.967 18.3516 149.979 18.3516C151.421 18.3516 152.349 18.596 153.041 19.1609C153.623 19.5908 153.969 20.2568 153.969 21.1335C153.969 22.2126 153.26 23.1484 152.079 23.5867V23.6205C153.142 23.8818 154.382 24.7586 154.382 26.4193C154.382 27.3804 154.002 28.1054 153.437 28.6533C152.661 29.3615 151.405 29.6987 149.583 29.6987C148.588 29.6987 147.828 29.6312 147.348 29.5638V18.5792ZM148.782 23.1399H150.089C151.615 23.1399 152.51 22.3475 152.51 21.2684C152.51 19.9617 151.514 19.4475 150.064 19.4475C149.406 19.4475 149.018 19.4981 148.79 19.5487L148.782 23.1399ZM148.782 28.4847C149.06 28.5353 149.473 28.5522 149.988 28.5522C151.481 28.5522 152.855 28.0042 152.855 26.3856C152.855 24.8597 151.548 24.2359 149.971 24.2359H148.782V28.4847Z" fill="#1C1A1C"/>
<path d="M0.0506069 42.8512C0.0506069 42.3033 0.042172 41.8902 0 41.4181H0.565105L0.598843 42.4634H0.624145C1.01213 41.7806 1.58567 41.2832 2.57249 41.2832C3.39906 41.2832 4.03164 41.8312 4.29311 42.5815H4.31841C4.47867 42.2358 4.7064 41.9576 4.92569 41.7722C5.31367 41.4602 5.71009 41.2832 6.3511 41.2832C6.94151 41.2832 8.30789 41.6036 8.30789 43.8797V47.412H7.70904V43.9303C7.70904 42.5815 7.18611 41.789 6.14868 41.789C5.39802 41.789 4.81604 42.3454 4.57988 42.9693C4.52927 43.1463 4.47867 43.3402 4.47867 43.5678V47.4036H3.87982V43.6521C3.87982 42.5815 3.36533 41.7806 2.39537 41.7806C1.5941 41.7806 0.961522 42.4297 0.733793 43.1294C0.683186 43.3065 0.649449 43.5004 0.649449 43.7195V47.412H0.0506069V42.8512Z" fill="#1C1A1C"/>
<path d="M10.3509 44.3434C10.3509 46.2486 11.3967 47.0158 12.6366 47.0158C13.5138 47.0158 13.9608 46.8387 14.2982 46.6786L14.45 47.1422C14.2223 47.2687 13.615 47.53 12.5691 47.53C10.8485 47.53 9.77734 46.2823 9.77734 44.5289C9.77734 42.5309 10.9244 41.2832 12.4679 41.2832C14.4247 41.2832 14.8042 43.1294 14.8042 43.9893C14.8042 44.1495 14.8042 44.2422 14.7789 44.3518L10.3509 44.3434ZM14.1632 43.8713C14.1717 43.0367 13.8259 41.7806 12.3836 41.7806C11.0594 41.7806 10.5027 42.9524 10.3846 43.8713H14.1632Z" fill="#1C1A1C"/>
<path d="M21.0848 38.5338V46.0115C21.0848 46.4498 21.0932 46.9725 21.1354 47.394H20.5956L20.545 46.2559H20.5197C20.2076 46.9135 19.4991 47.5289 18.3858 47.5289C16.9013 47.5289 15.8049 46.2981 15.8049 44.5109C15.788 42.5129 17.0278 41.2652 18.4954 41.2652C19.5329 41.2652 20.1907 41.8048 20.4522 42.3274H20.4775V38.5254L21.0848 38.5338ZM20.486 43.7859C20.486 43.6257 20.4775 43.4149 20.4269 43.2379C20.2245 42.437 19.516 41.7795 18.546 41.7795C17.2387 41.7795 16.4121 42.9175 16.4121 44.4603C16.4121 45.8091 17.0869 47.0399 18.5039 47.0399C19.3642 47.0399 20.1739 46.4667 20.4269 45.4803C20.4775 45.3286 20.486 45.1684 20.486 44.983V43.7859Z" fill="#1C1A1C"/>
<path d="M23.3623 40.2205C23.084 40.2205 22.8984 39.9845 22.8984 39.7063C22.8984 39.4281 23.1093 39.1836 23.3876 39.1836C23.666 39.1836 23.86 39.4196 23.86 39.7063C23.86 39.9845 23.6744 40.2205 23.3708 40.2205H23.3623ZM23.0924 47.3947V41.4092H23.6913V47.3947H23.0924Z" fill="#1C1A1C"/>
<path d="M29.8258 47.1344C29.5643 47.2609 28.9402 47.5222 28.063 47.5222C26.3424 47.5222 25.1953 46.2661 25.1953 44.4705C25.1953 42.5652 26.4942 41.2754 28.2739 41.2754C29.0077 41.2754 29.6234 41.4861 29.8427 41.6463L29.6318 42.1353C29.345 41.9582 28.8811 41.7896 28.2233 41.7896C26.6123 41.7896 25.7942 43.012 25.7942 44.4199C25.7942 45.9879 26.781 47.0164 28.1642 47.0164C28.8727 47.0164 29.3366 46.8141 29.6571 46.6708L29.8258 47.1344Z" fill="#1C1A1C"/>
<path d="M34.9853 45.9795C34.9853 46.4516 35.0022 46.9405 35.0697 47.4042H34.5214L34.4371 46.5443H34.4118C34.1081 47.008 33.4503 47.5391 32.4887 47.5391C31.2826 47.5391 30.7344 46.6876 30.7344 45.8952C30.7344 44.5126 31.9405 43.678 34.3865 43.7033V43.5431C34.3865 42.953 34.2768 41.7728 32.8514 41.7812C32.3285 41.7812 31.7802 41.9161 31.3417 42.228L31.1561 41.7896C31.7043 41.4271 32.3791 41.2754 32.9189 41.2754C34.6564 41.2754 34.9853 42.5736 34.9853 43.6359V45.9795ZM34.3865 44.1923C33.0791 44.1585 31.3585 44.3524 31.3585 45.7856C31.3585 46.6455 31.9321 47.0333 32.5562 47.0333C33.5515 47.0333 34.125 46.4263 34.3274 45.8362C34.378 45.7097 34.3865 45.5748 34.3865 45.4737V44.1923Z" fill="#1C1A1C"/>
<path d="M36.918 38.5352H37.5168V47.3953H36.918V38.5352Z" fill="#1C1A1C"/>
<path d="M47.0735 46.5274C47.0735 48.0617 46.753 48.8205 46.247 49.2926C45.6987 49.8152 44.889 50.0007 44.2143 50.0007C43.5311 50.0007 42.7635 49.8237 42.3081 49.478L42.5189 49.0059C42.9407 49.2841 43.5311 49.5033 44.2986 49.5033C45.5553 49.5033 46.4662 48.8542 46.4662 47.0838V46.2324H46.4409C46.1289 46.8394 45.4288 47.3958 44.3576 47.3958C42.8479 47.3958 41.7852 46.0891 41.7852 44.4536C41.7852 42.3713 43.16 41.2754 44.4757 41.2754C45.665 41.2754 46.247 41.9245 46.5 42.4219H46.5253L46.559 41.4103H47.1073C47.0735 41.8571 47.0567 42.3292 47.0567 42.953V46.5274H47.0735ZM46.4747 43.7202C46.4747 43.4925 46.4662 43.3071 46.3988 43.13C46.1457 42.4219 45.5216 41.7728 44.5432 41.7728C43.2696 41.7728 42.4009 42.8097 42.4009 44.3946C42.4009 45.7434 43.1094 46.8984 44.5179 46.8984C45.3192 46.8984 46.0614 46.401 46.3735 45.5495C46.4325 45.3472 46.4747 45.128 46.4747 44.9173V43.7202Z" fill="#1C1A1C"/>
<path d="M48.9608 43.2046C48.9608 42.606 48.9439 41.9991 48.9102 41.4089H49.4584L49.4837 42.6145H49.5174C49.7789 41.8557 50.403 41.2656 51.2127 41.2656C51.2971 41.2656 51.3899 41.2825 51.4658 41.2909V41.8557C51.3814 41.8389 51.2887 41.8389 51.179 41.8389C50.3524 41.8389 49.7705 42.547 49.6102 43.5081C49.5765 43.6851 49.5596 43.879 49.5596 44.0813V47.386H48.9608V43.2046Z" fill="#1C1A1C"/>
<path d="M54.7646 47.5385C53.2211 47.5385 52.0234 46.3329 52.0234 44.4614C52.0234 42.4129 53.3729 41.2832 54.8574 41.2832C56.519 41.2832 57.6408 42.5309 57.6408 44.3602C57.6408 46.5774 56.1057 47.5385 54.7815 47.5385H54.7646ZM54.7984 47.0411C56.0466 47.0411 57.0335 45.9198 57.0335 44.3855C57.0335 43.2896 56.4262 41.7806 54.8405 41.7806C53.3055 41.7806 52.6223 43.1379 52.6223 44.4193C52.6223 45.9114 53.5669 47.0411 54.7984 47.0411Z" fill="#1C1A1C"/>
<path d="M63.7652 45.9366C63.7652 46.4593 63.782 46.9314 63.8158 47.395H63.2591L63.2254 46.3244H63.2001C62.9049 46.8892 62.2132 47.5299 61.1589 47.5299C60.3998 47.5299 59.1094 47.1421 59.1094 44.8912V41.418H59.7082V44.7816C59.7082 46.0799 60.1046 47.0157 61.2939 47.0157C62.1711 47.0157 62.8036 46.4087 63.0651 45.8101C63.1242 45.6247 63.1748 45.3886 63.1748 45.1526V41.418H63.7736L63.7652 45.9366Z" fill="#1C1A1C"/>
<path d="M65.7615 43.3233C65.7615 42.573 65.7447 41.9913 65.7109 41.4181H66.2845L66.3182 42.5562H66.3435C66.7821 41.7722 67.5159 41.2832 68.5618 41.2832C70.0968 41.2832 71.1343 42.5562 71.1343 44.3097C71.1343 46.4425 69.8607 47.5385 68.4184 47.5385C67.5581 47.5385 66.799 47.1507 66.3857 46.4257H66.3604V49.8652H65.7615V43.3233ZM66.3604 45.0431C66.3604 45.2033 66.3688 45.3634 66.411 45.5152C66.664 46.4341 67.4569 47.0326 68.3846 47.0326C69.7595 47.0326 70.5439 45.9198 70.5439 44.3265C70.5439 42.9777 69.7932 41.7722 68.4353 41.7722C67.5665 41.7722 66.7146 42.3707 66.4532 43.357C66.4194 43.5172 66.3688 43.7027 66.3688 43.8713L66.3604 45.0431Z" fill="#1C1A1C"/>
<path d="M5.54305 10.9592C2.28737 10.9592 0.667969 9.31526 0.667969 6.02746V3.25391H1.85722V6.02746C1.85722 8.52281 3.03804 9.77049 5.39967 9.77049H10.3675C11.076 9.77049 11.5568 9.54287 11.8098 9.09607C11.9701 8.75886 12.046 8.21089 12.046 7.45217V3.27077H13.2352V7.97485C13.2352 8.73357 13.1256 9.33212 12.9147 9.77049H16.0523V10.9592H5.54305ZM6.6817 13.5388V12.0972H7.88782V13.5388H6.6817Z" fill="#1C1A1C"/>
<path d="M15.7539 10.9601V9.77148H19.3301V10.9601H15.7539Z" fill="#1C1A1C"/>
<path d="M19.0625 10.9599V9.78807H20.1505C20.8759 9.78807 21.3567 9.56045 21.5928 9.09679C21.7615 8.78487 21.8459 8.2369 21.8459 7.45289V3.27148H23.0267V7.97557C23.0267 8.73429 22.917 9.33284 22.7062 9.77121H24.9075V10.9599H19.0625ZM19.6192 13.5564V12.1148H20.8253V13.5564H19.6192ZM21.8374 13.5564V12.1148H23.0435V13.5564H21.8374Z" fill="#1C1A1C"/>
<path d="M24.6719 10.9601V9.77148H28.2481V10.9601H24.6719Z" fill="#1C1A1C"/>
<path d="M27.9688 10.9599V9.78807H29.0568C29.7821 9.78807 30.2629 9.56045 30.4991 9.09679C30.6678 8.78487 30.7521 8.2369 30.7521 7.45289V3.27148H31.9414V7.97557C31.9414 8.73429 31.8317 9.33284 31.6208 9.77121H33.8222V10.9599H27.9688ZM30.7352 13.5395V12.098H31.9414V13.5395H30.7352Z" fill="#1C1A1C"/>
<path d="M33.4102 10.9601V9.77139H43.7086C43.7339 9.47633 43.7423 9.27401 43.7423 9.16441C43.7423 7.73127 43.3796 6.61848 42.6543 5.83446C41.9289 5.05045 40.8999 4.65423 39.5673 4.65423C38.125 4.65423 37.0623 5.21062 36.3791 6.33185C36.2694 6.20539 35.9236 5.85975 35.3416 5.27807C36.3032 4.08097 37.7033 3.48242 39.542 3.48242C41.2373 3.48242 42.5952 4.0051 43.6073 5.05045C44.6279 6.0958 45.134 7.49522 45.134 9.24028V9.76296H46.998V10.9516L33.4102 10.9601Z" fill="#1C1A1C"/>
<path d="M46.6914 10.9601V9.77148H50.2676V10.9601H46.6914Z" fill="#1C1A1C"/>
<path d="M50.0508 10.9601V9.77148H53.627V10.9601H50.0508Z" fill="#1C1A1C"/>
<path d="M57.3118 7.98283C57.3118 9.97237 56.4853 10.9671 54.8237 10.9671H53.3477V9.79534H54.4357C55.1611 9.79534 55.6418 9.55929 55.878 9.08719C56.0467 8.7837 56.131 8.24417 56.131 7.46015V0.0078125H57.3203L57.3118 7.98283Z" fill="#1C1A1C"/>
<path d="M59.5781 10.9593V0H60.7674V10.9593H59.5781Z" fill="#1C1A1C"/>
<path d="M74.8119 7.94955C74.8119 9.61031 74.3565 10.9929 73.4456 12.1057C72.5347 13.2185 71.396 13.7749 70.0296 13.7749C68.6633 13.7749 67.5246 13.2269 66.6053 12.131C65.6944 11.035 65.2305 9.64403 65.2305 7.94955V3.27076H66.4197V7.70508C66.4197 9.19723 66.7402 10.3859 67.3981 11.2795C68.0476 12.1731 68.9247 12.6199 70.0296 12.6199C71.1514 12.6199 72.0286 12.1731 72.6612 11.2879C73.3022 10.4028 73.6143 9.20566 73.6143 7.70508V3.27076H74.8119V7.94955ZM69.4055 2.05681V0.615234H70.6116V2.05681H69.4055Z" fill="#1C1A1C"/>
<path d="M79.4681 10.9587C78.8692 10.9587 78.3547 10.748 77.9246 10.318C77.4354 9.84592 77.1992 9.16307 77.1992 8.26946V0.0078125H78.4222V7.56132C78.4222 8.32847 78.5319 8.88487 78.7596 9.23894C78.9367 9.51714 79.2656 9.69417 79.7211 9.76161C79.797 9.77004 80.1597 9.77847 80.8007 9.77847V10.9671L79.4681 10.9587Z" fill="#1C1A1C"/>
<path d="M80.5742 10.9601V9.77148H84.1504V10.9601H80.5742Z" fill="#1C1A1C"/>
<path d="M83.9219 10.9601V9.77148H87.4981V10.9601H83.9219Z" fill="#1C1A1C"/>
<path d="M95.4604 10.9586C94.8194 11.9449 93.8663 12.4339 92.618 12.4339C91.3107 12.4339 90.3407 11.9449 89.7081 10.9586H87.2031V9.76991H89.2021C89.1093 9.39054 89.0671 8.99432 89.0671 8.5981C89.0671 7.49374 89.3792 6.57484 90.0118 5.84141C90.6528 5.11641 91.53 4.75391 92.6349 4.75391C93.7398 4.75391 94.6085 5.12484 95.2411 5.85827C95.8399 6.55798 96.1352 7.46845 96.1352 8.58124C96.1352 9.00275 96.0845 9.39054 95.9833 9.76991H98.0498V10.9586H95.4604ZM94.2965 6.64228C93.9422 6.08589 93.4108 5.81612 92.6855 5.81612C91.918 5.81612 91.336 6.11118 90.9396 6.70972C90.6191 7.19868 90.4672 7.84781 90.4672 8.67397C90.4672 9.44956 90.6275 10.0734 90.9396 10.5371C91.3191 11.0935 91.8842 11.3632 92.618 11.3632C94.0434 11.3632 94.7519 10.3937 94.7519 8.46322C94.7519 7.71292 94.6001 7.10595 94.2965 6.64228Z" fill="#1C1A1C"/>
<path d="M97.7461 10.9601V9.77148H101.322V10.9601H97.7461Z" fill="#1C1A1C"/>
<path d="M101.055 10.9599V9.78807H102.143C102.868 9.78807 103.349 9.56045 103.585 9.09679C103.754 8.78487 103.838 8.2369 103.838 7.45289V3.27148H105.027V7.97557C105.027 8.73429 104.918 9.33284 104.707 9.77121H106.908V10.9599H101.055ZM101.611 13.5564V12.1148H102.817V13.5564H101.611ZM103.83 13.5564V12.1148H105.036V13.5564H103.83Z" fill="#1C1A1C"/>
<path d="M106.66 10.9601V9.77148H110.236V10.9601H106.66Z" fill="#1C1A1C"/>
<path d="M110.02 10.9601V9.77148H113.596V10.9601H110.02Z" fill="#1C1A1C"/>
<path d="M113.316 10.9587V9.78691H114.404C115.13 9.78691 115.611 9.55929 115.847 9.09563C116.015 8.78371 116.1 8.23574 116.1 7.45173V0.0078125H117.289V7.9744C117.289 8.73312 117.179 9.33167 116.969 9.77005H119.17V10.9587H113.316Z" fill="#1C1A1C"/>
<path d="M118.926 10.9601V9.77148H122.502V10.9601H118.926Z" fill="#1C1A1C"/>
<path d="M122.281 10.9601V9.77148H125.857V10.9601H122.281Z" fill="#1C1A1C"/>
<path d="M139.203 7.984C139.203 9.97354 138.368 10.9683 136.698 10.9683H125.48V9.77964H127.058C128.129 9.77964 128.728 9.05464 128.854 7.61306V3.27148H130.043V7.97557C130.043 8.64999 129.951 9.23167 129.757 9.70377V9.77121H131.975C132.515 9.77121 132.894 9.61103 133.105 9.28225C133.316 8.95347 133.417 8.3465 133.417 7.45289V3.27148H134.606V7.97557C134.606 8.73429 134.497 9.33284 134.286 9.77121H136.319C136.96 9.77121 137.407 9.61103 137.651 9.28225C137.896 8.95347 138.014 8.3465 138.014 7.45289V3.27148H139.22V7.984H139.203Z" fill="#1C1A1C"/>
<path d="M143.367 10.9592V9.19727H144.911V10.9592H143.367Z" fill="#1C1A1C"/>
<path d="M146.809 10.9592V9.77049H153.075C153.075 8.24462 152.797 7.03066 152.249 6.12862C151.582 5.04112 150.537 4.45943 149.111 4.3667H148.656V3.25391C151.06 3.25391 152.696 4.19809 153.548 6.10333C154.071 7.22456 154.324 8.84316 154.324 10.9676L146.809 10.9592Z" fill="#1C1A1C"/>
<path d="M86.6276 47.4547C86.4083 47.4547 86.1722 47.4209 85.9107 47.3535C84.6371 46.9657 83.9961 46.1058 83.9961 44.7823V44.2259C84.2407 42.9529 84.966 42.3122 86.1637 42.3122H86.3662C87.3699 42.3122 88.1543 42.641 88.7109 43.307C89.2507 43.9224 89.4785 45.1363 89.411 46.9488H90.1363V47.4631L86.6276 47.4547ZM87.7663 46.8224C88.2892 46.7887 88.635 46.7718 88.7953 46.7718V45.1448C88.7953 44.934 88.7615 44.7064 88.6941 44.4535C88.2555 43.366 87.4711 42.818 86.3493 42.818C85.2866 42.818 84.6793 43.3744 84.5359 44.4872C84.5612 45.2628 84.7299 45.8276 85.0335 46.1986C85.3372 46.5611 85.877 46.7887 86.6529 46.873C87.0747 46.8561 87.3698 46.8393 87.5217 46.8308V46.814L87.7663 46.8224ZM86.1637 40.5587C86.2565 40.6514 86.2987 40.7526 86.2987 40.8706C86.2987 40.9971 86.2565 41.1067 86.1637 41.1994C86.071 41.2921 85.9697 41.3343 85.8517 41.3343C85.7251 41.3343 85.6155 41.2921 85.5227 41.1994C85.4299 41.1067 85.3878 41.0055 85.3878 40.8706C85.3878 40.7526 85.4299 40.6514 85.5227 40.5587C85.6155 40.466 85.7167 40.4238 85.8517 40.4238C85.9697 40.4238 86.071 40.466 86.1637 40.5587ZM87.6398 40.5587C87.7325 40.6514 87.7747 40.7526 87.7747 40.8706C87.7747 40.9971 87.7325 41.1067 87.6398 41.1994C87.547 41.2921 87.4458 41.3343 87.3108 41.3343C87.1843 41.3343 87.0747 41.2921 86.9819 41.1994C86.8891 41.1067 86.8469 41.0055 86.8469 40.8706C86.8469 40.7526 86.8891 40.6514 86.9819 40.5587C87.0747 40.466 87.1759 40.4238 87.3108 40.4238C87.4458 40.4238 87.5554 40.466 87.6398 40.5587Z" fill="#1C1A1C"/>
<path d="M91.5549 46.9491C91.7573 46.9323 91.9091 46.8648 92.0019 46.7468C92.2043 46.7468 92.3055 46.0134 92.3055 44.555V42.4137C92.3055 42.3547 92.3393 42.3209 92.4067 42.3125H92.7104C92.7694 42.3125 92.8032 42.3462 92.8116 42.4137V44.8079C92.8116 45.6677 92.761 46.2916 92.6598 46.6962C92.626 46.789 92.5754 46.8733 92.5164 46.9491H93.2671V47.4634H89.9102V46.9491H91.5549ZM90.956 48.4497C91.0488 48.5425 91.091 48.6436 91.091 48.7616C91.091 48.8881 91.0488 48.9977 90.956 49.0904C90.8632 49.1832 90.762 49.2253 90.6439 49.2253C90.5174 49.2253 90.4078 49.1832 90.315 49.0904C90.2222 48.9977 90.1801 48.8965 90.1801 48.7616C90.1801 48.6436 90.2222 48.5425 90.315 48.4497C90.4078 48.357 90.509 48.3148 90.6439 48.3148C90.762 48.3148 90.8717 48.357 90.956 48.4497ZM92.4405 48.4497C92.5333 48.5425 92.5754 48.6436 92.5754 48.7616C92.5754 48.8881 92.5333 48.9977 92.4405 49.0904C92.3477 49.1832 92.2465 49.2253 92.1115 49.2253C91.985 49.2253 91.8754 49.1832 91.7826 49.0904C91.6898 48.9977 91.6476 48.8965 91.6476 48.7616C91.6476 48.6436 91.6898 48.5425 91.7826 48.4497C91.8754 48.357 91.9766 48.3148 92.1115 48.3148C92.238 48.3148 92.3477 48.357 92.4405 48.4497Z" fill="#1C1A1C"/>
<path d="M94.6838 46.9491C94.8862 46.9323 95.038 46.8648 95.1308 46.7468C95.3332 46.7468 95.4344 46.0134 95.4344 44.555V42.4137C95.4344 42.3547 95.4682 42.3209 95.5356 42.3125H95.8393C95.8983 42.3125 95.9321 42.3462 95.9405 42.4137V44.8079C95.9405 45.6677 95.8899 46.2916 95.7887 46.6962C95.7549 46.789 95.7043 46.8733 95.6453 46.9491H96.396V47.4634H93.0391V46.9491H94.6838ZM95.5188 48.7448C95.5188 48.8712 95.4766 48.9808 95.3838 49.0736C95.2911 49.1663 95.1898 49.2084 95.0718 49.2084C94.9452 49.2084 94.8356 49.1663 94.7428 49.0736C94.65 48.9808 94.6079 48.8797 94.6079 48.7448C94.6079 48.6268 94.65 48.5256 94.7428 48.4329C94.8356 48.3401 94.9368 48.298 95.0718 48.298C95.1898 48.298 95.2911 48.3401 95.3838 48.4329C95.4682 48.5256 95.5188 48.6268 95.5188 48.7448Z" fill="#1C1A1C"/>
<path d="M97.2412 46.9483V40.457H97.7472V43.7786C98.3798 42.8006 99.3329 42.3117 100.632 42.3117L101.399 42.4129C102.791 42.8681 103.491 43.6184 103.491 44.6553V44.8576C103.491 45.5826 103.12 46.2739 102.369 46.9483H104.115V47.4626H96.1953V46.9483H97.2412ZM100.851 46.9483C101.045 46.9399 101.231 46.923 101.399 46.8977C102.437 46.4004 102.951 45.7007 102.951 44.807C102.951 43.7195 102.167 43.0704 100.607 42.8681C100.311 42.8681 99.9824 42.9187 99.6366 43.0198C98.3798 43.4582 97.7472 44.1748 97.7472 45.1611V46.9483H100.851Z" fill="#1C1A1C"/>
<path d="M103.895 46.947H105.312C105.59 46.9638 105.793 46.8964 105.911 46.7447C106.113 46.7447 106.215 46.0112 106.215 44.5528V40.5484C106.215 40.4894 106.248 40.4557 106.316 40.4473H106.619C106.679 40.4473 106.712 40.481 106.721 40.5484V44.8057C106.721 45.6656 106.67 46.2894 106.569 46.6941C106.375 47.183 105.953 47.4444 105.304 47.4612H103.887V46.947H103.895Z" fill="#1C1A1C"/>
<path d="M107.91 40.4746H108.213C108.281 40.483 108.315 40.5168 108.315 40.5758V47.3284C108.315 47.3958 108.281 47.4296 108.213 47.4296H107.91C107.842 47.4296 107.809 47.3958 107.809 47.3284V40.5758C107.817 40.5083 107.851 40.4746 107.91 40.4746Z" fill="#1C1A1C"/>
<path d="M115.229 47.4547C115.01 47.4547 114.774 47.4209 114.512 47.3535C113.239 46.9657 112.598 46.1058 112.598 44.7823V44.2259C112.842 42.9529 113.568 42.3122 114.765 42.3122H114.968C115.971 42.3122 116.756 42.641 117.312 43.307C117.852 43.9224 118.08 45.1363 118.013 46.9488H118.738V47.4631L115.229 47.4547ZM116.359 46.8224C116.882 46.7887 117.228 46.7718 117.397 46.7718V45.1448C117.397 44.934 117.363 44.7064 117.296 44.4535C116.857 43.366 116.073 42.818 114.951 42.818C113.888 42.818 113.281 43.3744 113.137 44.4872C113.163 45.2628 113.331 45.8276 113.635 46.1986C113.939 46.5611 114.479 46.7887 115.254 46.873C115.676 46.8561 115.971 46.8393 116.123 46.8308V46.814L116.359 46.8224ZM114.757 40.5587C114.85 40.6514 114.892 40.7526 114.892 40.8706C114.892 40.9971 114.85 41.1067 114.757 41.1994C114.664 41.2921 114.563 41.3343 114.445 41.3343C114.318 41.3343 114.209 41.2921 114.116 41.1994C114.023 41.1067 113.981 41.0055 113.981 40.8706C113.981 40.7526 114.023 40.6514 114.116 40.5587C114.209 40.466 114.31 40.4238 114.445 40.4238C114.571 40.4238 114.673 40.466 114.757 40.5587ZM116.241 40.5587C116.334 40.6514 116.376 40.7526 116.376 40.8706C116.376 40.9971 116.334 41.1067 116.241 41.1994C116.149 41.2921 116.047 41.3343 115.912 41.3343C115.786 41.3343 115.676 41.2921 115.583 41.1994C115.491 41.1067 115.448 41.0055 115.448 40.8706C115.448 40.7526 115.491 40.6514 115.583 40.5587C115.676 40.466 115.777 40.4238 115.912 40.4238C116.039 40.4238 116.149 40.466 116.241 40.5587Z" fill="#1C1A1C"/>
<path d="M122.469 42.8689C120.908 43.0712 120.124 43.7204 120.124 44.8079C120.124 45.7015 120.68 46.3759 121.811 46.848C122.064 46.9154 122.3 46.9491 122.528 46.9491H124.24V47.4634H118.656V46.9491H120.748C119.997 46.2747 119.626 45.5834 119.626 44.8584V44.6561C119.626 43.6192 120.326 42.8689 121.718 42.4137L121.937 42.3884L122.485 42.3125C122.865 42.3125 123.219 42.3547 123.531 42.439L123.261 42.9785C122.975 42.9026 122.722 42.8689 122.469 42.8689Z" fill="#1C1A1C"/>
<path d="M129.746 47.455H127.983C127.764 47.455 127.528 47.4212 127.266 47.3538C125.993 46.966 125.352 46.1061 125.352 44.7826V44.2262C125.596 42.9532 126.322 42.3125 127.519 42.3125H127.722C128.472 42.3125 129.122 42.6413 129.687 43.3073C130.218 43.9227 130.454 45.1366 130.387 46.9491H131.112V47.4634H130.294C130.058 48.4919 129.375 49.1494 128.245 49.4361C128.118 49.4698 127.966 49.4866 127.789 49.4866H127.485C126.667 49.4866 126.262 49.4192 126.262 49.2843C126.262 49.141 126.296 49.0061 126.364 48.8797C126.963 48.9808 127.384 49.0314 127.637 49.0314C128.692 49.0146 129.392 48.5003 129.746 47.455ZM128.759 46.9491C129.299 46.9154 129.662 46.8986 129.83 46.8986V45.2125C129.83 44.9933 129.796 44.7573 129.729 44.4959C129.274 43.3747 128.59 42.8099 127.688 42.8099C126.591 42.8099 125.967 43.3831 125.815 44.5297C125.841 45.3305 126.009 45.9206 126.322 46.2916C126.634 46.6709 127.19 46.8986 127.992 46.9829C128.177 46.966 128.354 46.9491 128.514 46.9407V46.9238H128.759V46.9491Z" fill="#1C1A1C"/>
<path d="M136.891 47.4545C136.553 47.9097 136.056 48.2385 135.415 48.424C135.195 48.4577 134.976 48.4746 134.748 48.4746H134.597C133.728 48.4746 133.062 48.1373 132.598 47.4545H130.902V46.9403H132.302C132.227 46.7717 132.159 46.5862 132.1 46.3839C132.033 46.0466 131.999 45.7347 131.999 45.465V45.4144C131.999 44.1836 132.716 43.29 134.141 42.742C134.327 42.7083 134.479 42.6914 134.597 42.6914H134.85C135.955 42.6914 136.79 43.3152 137.346 44.5545C137.414 44.9339 137.447 45.2458 137.447 45.4734C137.447 46.0466 137.355 46.5356 137.178 46.9487H137.979V47.4629H136.891V47.4545ZM132.555 45.2121V45.6167C132.749 47.1426 133.416 47.9097 134.546 47.9097H134.9C135.82 47.9097 136.461 47.328 136.84 46.1731C136.874 45.9455 136.891 45.76 136.891 45.6083V45.2121C136.891 44.369 136.309 43.7199 135.153 43.2647C134.976 43.2309 134.807 43.2141 134.647 43.2141C133.804 43.2731 133.129 43.7873 132.606 44.7568C132.572 44.8833 132.555 45.035 132.555 45.2121Z" fill="#1C1A1C"/>
<path d="M142.348 46.9491C142.348 46.6204 142.382 46.0218 142.449 45.1619C142.449 44.1756 141.816 43.459 140.56 43.0206C140.214 42.9195 139.885 42.8689 139.59 42.8689C139.286 42.9111 139.008 42.9701 138.763 43.0375V42.439C138.78 42.4305 138.805 42.4221 138.831 42.4137L139.598 42.3125C141.133 42.3125 142.204 43.0122 142.812 44.4032C142.879 44.6983 142.93 45.0439 142.964 45.4233L142.862 46.9491H143.436V47.4634H137.684V46.9491H142.348ZM140.804 48.7448C140.804 48.8712 140.762 48.9808 140.669 49.0736C140.577 49.1663 140.475 49.2084 140.357 49.2084C140.231 49.2084 140.121 49.1663 140.028 49.0736C139.936 48.9808 139.893 48.8797 139.893 48.7448C139.893 48.6268 139.936 48.5256 140.028 48.4329C140.121 48.3401 140.222 48.298 140.357 48.298C140.475 48.298 140.577 48.3401 140.669 48.4329C140.762 48.5256 140.804 48.6268 140.804 48.7448Z" fill="#1C1A1C"/>
<path d="M149.195 47.4545C148.858 47.9097 148.36 48.2385 147.719 48.424C147.5 48.4577 147.281 48.4746 147.053 48.4746H146.901C146.033 48.4746 145.366 48.1373 144.902 47.4545H143.207V46.9403H144.607C144.531 46.7717 144.464 46.5862 144.405 46.3839C144.337 46.0466 144.304 45.7347 144.304 45.465V45.4144C144.304 44.1836 145.02 43.29 146.446 42.742C146.631 42.7083 146.783 42.6914 146.901 42.6914H147.154C148.259 42.6914 149.094 43.3152 149.651 44.5545C149.718 44.9339 149.752 45.2458 149.752 45.4734C149.752 46.0466 149.659 46.5356 149.482 46.9487H150.283V47.4629H149.195V47.4545ZM144.86 45.2121V45.6167C145.054 47.1426 145.72 47.9097 146.851 47.9097H147.205C148.124 47.9097 148.765 47.328 149.145 46.1731C149.179 45.9455 149.195 45.76 149.195 45.6083V45.2121C149.195 44.369 148.613 43.7199 147.458 43.2647C147.281 43.2309 147.112 43.2141 146.952 43.2141C146.108 43.2731 145.434 43.7873 144.911 44.7568C144.877 44.8833 144.86 45.035 144.86 45.2121Z" fill="#1C1A1C"/>
<path d="M150.047 46.947H151.464C151.742 46.9638 151.945 46.8964 152.063 46.7447C152.265 46.7447 152.366 46.0112 152.366 44.5528V40.5484C152.366 40.4894 152.4 40.4557 152.468 40.4473H152.771C152.83 40.4473 152.864 40.481 152.872 40.5484V44.8057C152.872 45.6656 152.822 46.2894 152.721 46.6941C152.527 47.183 152.105 47.4444 151.455 47.4612H150.047V46.947Z" fill="#1C1A1C"/>
<path d="M154.062 40.4746H154.366C154.433 40.483 154.467 40.5168 154.467 40.5758V47.3284C154.467 47.3958 154.433 47.4296 154.366 47.4296H154.062C153.995 47.4296 153.961 47.3958 153.961 47.3284V40.5758C153.969 40.5083 154.003 40.4746 154.062 40.4746Z" fill="#1C1A1C"/>
<path d="M160.272 24.9696C160.272 18.4699 160.263 11.9702 160.28 5.47889C160.289 1.97191 162.254 0.0160883 165.788 0.0160883C177.925 0.00765806 190.054 0.00765806 202.191 0.0160883C205.581 0.0160883 207.681 2.13208 207.681 5.55476C207.69 18.5036 207.631 31.4441 207.724 44.3929C207.749 47.4868 205.623 50.0243 202.005 49.9991C190.054 49.9063 178.102 49.9569 166.15 49.9485C162.093 49.9485 160.272 48.1191 160.272 44.0473C160.272 37.6909 160.272 31.326 160.272 24.9696ZM200.791 5.8161C199.171 8.28617 196.59 7.89837 194.11 7.87308C192.744 7.85622 191.386 7.87308 190.02 7.87308C188.173 7.87308 187.245 8.69925 187.161 10.5539C187.093 12.0039 187.152 13.4623 187.127 14.9123C187.101 16.4129 187.135 17.9135 186.967 19.3972C186.781 20.999 186.224 21.4036 184.639 21.4374C184.276 21.4458 183.905 21.4036 183.551 21.4542C181.999 21.6818 181.24 20.4679 181.071 19.3298C180.97 18.6638 181.003 17.9725 180.995 17.2897C180.987 15.1062 181.029 12.9312 180.97 10.7478C180.911 8.60652 180.135 7.88151 178.034 7.87308C174.897 7.86465 171.768 7.9068 168.63 7.84779C167.441 7.8225 166.943 8.13442 166.994 9.44954C167.095 12.0376 167.028 14.6257 167.028 17.2138C167.028 19.726 167.551 20.9484 170.587 20.8472C175.26 20.6786 175.833 21.4205 175.521 26.1667C175.504 26.4871 175.487 26.8074 175.403 27.1109C175.066 28.3417 174.34 29.0752 172.965 29.0246C171.97 28.9824 170.966 29.0077 169.963 29.0162C167.879 29.033 167.061 29.7833 167.036 31.8487C166.994 34.7993 167.044 37.7583 167.011 40.7089C167.002 41.5604 167.23 41.9397 168.158 41.9313C171.565 41.906 174.973 41.9229 178.38 41.965C179.688 41.9819 180.447 41.3665 180.759 40.1778C180.919 39.5708 180.987 38.9301 180.987 38.3063C181.012 35.8952 180.97 33.4926 180.995 31.0816C181.003 29.9603 181.214 28.856 182.378 28.3333C184.892 27.2121 186.983 28.5103 187.101 31.2586C187.152 32.481 187.11 33.7118 187.118 34.9342C187.127 36.4769 187.093 38.0281 187.169 39.5624C187.228 40.7258 187.667 41.8301 188.999 41.8639C192.719 41.965 196.447 41.9482 200.175 41.906C200.495 41.906 201.077 41.3749 201.077 41.0799C201.145 37.8089 201.195 34.538 201.086 31.2755C201.035 29.7327 200.099 29.0752 198.555 29.0667C197.332 29.0583 196.101 29.0499 194.878 29.0499C193.832 29.0499 193.014 28.5525 192.887 27.5577C192.685 25.956 192.575 24.3121 192.71 22.7103C192.812 21.4374 193.748 20.7629 195.114 20.8388C196.244 20.8978 197.383 20.9147 198.522 20.8978C200.006 20.8725 200.883 20.3077 200.925 18.8746C201.069 14.5751 201.027 10.2588 201.06 5.95942C201.069 5.94256 200.993 5.9257 200.791 5.8161Z" fill="#FC131A"/>
</svg>
