<svg width="172" height="50" viewBox="0 0 172 50" fill="none" xmlns="http://www.w3.org/2000/svg">
<path d="M145.201 44.6802H149.279L152.422 36.6896L155.311 43.6181C155.564 44.2587 156.162 44.638 156.845 44.638H158.673C159.356 44.638 159.945 44.2166 160.206 43.6181L163.138 36.6896L166.281 44.6802H170.359L165.59 32.7281C165.337 32.0875 164.739 31.666 164.057 31.666H162.229C161.546 31.666 160.956 32.0875 160.695 32.6859L157.763 39.7409L154.873 32.6859C154.621 32.0453 154.022 31.666 153.34 31.666H151.512C150.829 31.666 150.197 32.0875 149.978 32.7281L145.201 44.6802Z" fill="#181D20"/>
<path d="M165.042 27.5453C165.042 26.4412 164.149 25.5898 163.087 25.5898C162.026 25.5898 161.133 26.4833 161.133 27.5453C161.133 28.6495 162.026 29.5008 163.087 29.5008C164.149 29.5008 165.042 28.6495 165.042 27.5453Z" fill="#181D20"/>
<path d="M154.417 27.5453C154.417 26.4412 153.524 25.5898 152.462 25.5898C151.359 25.5898 150.508 26.4833 150.508 27.5453C150.508 28.6495 151.401 29.5008 152.462 29.5008C153.566 29.5008 154.417 28.6495 154.417 27.5453Z" fill="#181D20"/>
<path d="M167.502 0.0429688C167.123 1.35787 166.441 2.55477 165.463 3.53252C165.337 3.65895 165.253 3.78538 165.126 3.91182C164.874 4.12254 164.613 4.33326 164.36 4.55241C164.149 4.72099 163.981 4.84742 163.719 5.016C163.467 5.18457 163.206 5.31101 162.953 5.47958C162.7 5.64816 162.397 5.77459 162.102 5.90103C161.849 5.98532 161.638 6.11175 161.377 6.19604C160.998 6.32247 160.611 6.40676 160.231 6.49105C160.021 6.53319 159.81 6.61748 159.591 6.61748C158.993 6.70177 158.361 6.78606 157.679 6.78606C157.038 6.78606 156.406 6.70177 155.808 6.61748C155.598 6.57534 155.387 6.53319 155.168 6.49105C154.789 6.40676 154.401 6.32247 154.022 6.19604C153.769 6.11175 153.559 6.02746 153.297 5.90103C153.003 5.77459 152.699 5.64816 152.447 5.47958C152.194 5.35315 151.933 5.18457 151.68 5.016C151.469 4.88956 151.259 4.72099 151.04 4.55241C150.787 4.34169 150.526 4.17311 150.273 3.91182C150.146 3.78538 150.02 3.65895 149.936 3.53252C149.001 2.51263 148.276 1.32416 147.897 0.0429688H143.836L149.742 22.1097C149.953 22.8346 150.593 23.3403 151.36 23.3403H164.107C164.874 23.3403 165.506 22.8262 165.725 22.1097L171.504 0.0429688C171.496 0.0429688 167.502 0.0429688 167.502 0.0429688Z" fill="#181D20"/>
<path d="M82.525 41.5374H81.0338C80.6125 41.5374 80.2671 41.2003 80.2671 40.7704V35.6709C80.2671 35.2495 80.6041 34.9039 81.0338 34.9039H82.525V41.5374ZM87.0662 27.5877H82.5166V31.6251H78.9022C77.3267 31.6251 76.0966 32.8978 76.0966 34.4319V41.7903C76.0966 43.3665 77.3688 44.5971 78.9022 44.5971H87.0578V31.6251L87.0662 27.5877ZM49.7172 42.1274C49.7172 42.5067 49.3381 42.8523 48.9505 42.8523C48.5714 42.8523 48.1838 42.5152 48.1838 42.1274V40.0034V39.8769C48.1838 39.6662 48.2681 39.1942 48.6472 38.8992L49.7088 38.1322L49.7172 42.1274ZM52.4807 32.2657C51.714 31.8442 50.6103 31.6251 49.0853 31.6251C47.8553 31.6251 46.8358 31.7937 46.027 32.1814C45.2603 32.5607 44.7126 32.9906 44.4515 33.4541C44.1987 33.9177 44.0723 34.9882 44.0723 35.8732V36.6403H48.1501V34.3476C48.1501 33.9683 48.4871 33.6227 48.9168 33.6227C49.3381 33.6227 49.6414 33.9599 49.6414 34.3476V36.0081C49.6414 36.5223 48.959 36.6908 48.5798 36.8173C48.2849 36.9437 47.9816 37.028 47.6867 37.1123C47.4761 37.1966 47.3076 37.2387 47.0886 37.323C45.7321 37.7444 44.8811 38.1322 44.5357 38.4272C44.1987 38.7222 44.0218 39.3206 44.0218 40.2141V42.0853C44.0218 43.2738 44.3588 43.9987 44.9991 44.378C45.6394 44.7151 46.3556 44.8921 47.1223 44.8921C47.7204 44.8921 48.226 44.8078 48.6557 44.5971C49.0769 44.3864 49.4223 44.0829 49.7172 43.6615V44.6814H54.0057V37.9636C54.0057 36.0502 53.9214 34.4319 53.795 33.8419C53.7108 33.2013 53.2474 32.6871 52.4807 32.2657ZM114.263 42.1696C114.263 42.5489 113.926 42.8523 113.496 42.8523C113.075 42.8523 112.772 42.5573 112.772 42.1696V31.6672H108.441V40.8884C108.441 41.8662 108.483 42.5489 108.525 42.886C108.567 43.2232 108.694 43.5266 108.904 43.8638C109.115 44.1588 109.46 44.4201 109.882 44.5887C110.303 44.7573 110.859 44.8837 111.542 44.8837C112.14 44.8837 112.645 44.7994 113.075 44.5887C113.538 44.378 113.884 44.0745 114.221 43.6952L114.136 44.673H118.644V31.6672H114.263V42.1696ZM39.9018 31.8864C39.3879 31.5914 38.7981 31.4649 38.0314 31.4649C37.4754 31.4649 36.9277 31.5914 36.4559 31.8021C35.9925 32.0128 35.5629 32.3584 35.1837 32.7798C34.5013 31.8864 33.5661 31.4649 32.3781 31.4649C31.7799 31.4649 31.2323 31.5914 30.7605 31.8021C30.2971 32.0128 29.8674 32.3584 29.5304 32.7798L29.6147 31.6757H25.242V44.7235H29.4461V34.179C29.4461 33.7997 29.7832 33.4963 30.2128 33.4963C30.6341 33.4963 30.9374 33.7913 30.9374 34.179V44.7235H35.2258V34.179C35.2258 33.7997 35.5629 33.4963 35.9925 33.4963C36.4222 33.4963 36.7171 33.7913 36.7171 34.179V44.7235H40.9634V34.9882C40.9634 34.0526 40.8792 33.3699 40.7528 32.9484C40.7107 32.5185 40.3737 32.1814 39.9018 31.8864ZM69.4322 36.9016H67.941V34.3898C67.941 34.0105 68.278 33.707 68.7077 33.707C69.1289 33.707 69.4322 34.002 69.4322 34.3898V36.9016ZM71.429 32.2235C70.6202 31.8442 69.6429 31.6672 68.4128 31.6672C67.3933 31.6672 66.5424 31.8358 65.7757 32.1308C65.009 32.4258 64.4614 32.8978 64.1159 33.4457C63.7789 34.0442 63.602 35.7805 63.602 36.8004V39.9444C63.602 40.7957 63.6862 41.8577 63.8126 42.2792C63.9811 42.7428 64.2339 43.1305 64.6214 43.5098C65.009 43.8891 65.5566 44.1925 66.2812 44.4032C67.0058 44.614 67.8146 44.7404 68.6993 44.7404C69.6345 44.7404 70.4433 44.614 71.0752 44.4032C71.7071 44.1925 72.221 43.8469 72.6507 43.4255C73.0719 43.004 73.3331 42.5742 73.4174 42.1949C73.5438 41.8156 73.5859 41.5964 73.5859 40.88V39.5229H69.4659V42.001C69.4659 42.3803 69.1289 42.6838 68.6993 42.6838C68.2696 42.6838 67.9747 42.3887 67.9747 42.001V39.5314V39.2364V38.7728H68.4381H73.5775V37.2387C73.5775 36.1345 73.4089 34.3055 73.1141 33.6649C72.7939 33.0749 72.2378 32.6028 71.429 32.2235ZM100.959 41.411C100.959 41.7903 100.403 42.0937 99.7715 42.0937C99.1396 42.0937 98.6678 41.7987 98.6678 41.411V34.9461C98.6678 34.5668 99.2238 34.2633 99.8136 34.2633C100.454 34.2633 100.917 34.5583 100.917 34.9461V41.411H100.959ZM102.029 31.6672H97.5641C95.7358 31.6672 94.2529 33.1591 94.2529 34.9798V41.4026C94.2529 43.2316 95.7442 44.7151 97.5641 44.7151H102.029C103.858 44.7151 105.341 43.2232 105.341 41.4026V34.9376C105.341 33.117 103.849 31.6672 102.029 31.6672ZM128.325 41.5374H126.833C126.412 41.5374 126.067 41.2003 126.067 40.7704V35.6709C126.067 35.2495 126.404 34.9039 126.833 34.9039H128.325V41.5374ZM132.874 27.5877H128.325V31.6672H124.71C123.135 31.6672 121.905 32.94 121.905 34.474V41.8746C121.905 43.4508 123.177 44.6814 124.71 44.6814H132.866V31.6672L132.874 27.5877ZM59.5326 25.2529C58.2604 25.2529 57.241 26.2728 57.241 27.5455C57.241 28.8183 58.2604 29.8382 59.5326 29.8382C60.8048 29.8382 61.8243 28.8183 61.8243 27.5455C61.7821 26.3149 60.7627 25.2529 59.5326 25.2529ZM57.241 46.2576C57.241 47.3196 57.1988 47.9181 57.1567 48.0024C57.0724 48.0867 56.8197 48.1288 56.2636 48.1288V50H57.9655C58.9007 50 59.6253 49.9157 60.0887 49.7893C60.5521 49.6628 60.9396 49.4521 61.2345 49.1487C61.5294 48.8452 61.6979 48.5081 61.7484 48.1288C61.799 47.7495 61.8327 47.0246 61.8327 45.9626V31.6335H57.2831V46.2576H57.241ZM14.028 44.7657H18.5776V27.5877H14.028V44.7657ZM4.97088 38.5958C5.09726 37.1038 5.39214 34.7269 5.86395 31.5408C6.11671 34.3476 6.32734 36.7245 6.58852 38.5958H4.97088ZM2.34221 27.5455L0 44.6814H4.76025L5.05513 41.5796H6.7149L6.96766 44.6814H11.6858L9.04869 27.5539L2.34221 27.5455ZM9.26774 6.75995H3.31954C1.49126 6.75995 0.00842574 8.25185 0.00842574 10.0725V11.5138H4.38111V10.0725C4.38111 9.69319 4.89505 9.38975 5.52695 9.38975H7.06034C7.70065 9.38975 8.20616 9.68476 8.20616 10.0725V15.2984H0V19.1251H12.5789V10.0725C12.5789 8.24343 11.096 6.75995 9.26774 6.75995ZM110.227 13.3092C110.227 12.9299 110.783 12.6264 111.415 12.6264C112.047 12.6264 112.519 12.9214 112.519 13.3092V20.1113C112.519 20.4906 111.963 20.794 111.331 20.794C110.699 20.794 110.227 20.499 110.227 20.1113V13.3092ZM113.58 23.3817C115.409 23.3817 116.892 21.8898 116.892 20.0691V19.1335H125.005V18.3243V15.3068V0H120.582V15.3068H116.883V13.3092C116.883 11.4801 115.392 9.99663 113.572 9.99663H109.107C107.278 9.99663 105.795 11.4885 105.795 13.3092V15.3068H102.097V0H97.6736V15.3068V18.3243V19.1335H105.787V20.1113C105.787 21.9403 107.278 23.4238 109.098 23.4238H113.564V23.3817H113.58ZM94.927 15.3068H93.9918V10.0809C93.9918 8.25185 92.5005 6.76838 90.6807 6.76838H84.7324C82.9042 6.76838 81.4213 8.26028 81.4213 10.0809V11.5223H85.794V10.0809C85.794 9.70162 86.308 9.39818 86.9399 9.39818H88.4732C89.1136 9.39818 89.6191 9.69319 89.6191 10.0809V15.3068H81.4213H77.2593V10.0809C77.2593 8.25185 75.768 6.76838 73.9482 6.76838H68C66.1717 6.76838 64.6888 8.26028 64.6888 10.0809V11.5223H69.0615V10.0809C69.0615 9.70162 69.5755 9.39818 70.2074 9.39818H71.7408C72.3811 9.39818 72.8866 9.69319 72.8866 10.0809V15.3068H64.6888V19.1335H77.2677H81.4298H94.0086H94.9438L94.927 15.3068ZM132.874 0H128.451V19.1335H132.874V0ZM89.9561 21.089C88.6839 21.089 87.6644 22.1089 87.6644 23.3817C87.6644 24.6544 88.6839 25.6743 89.9561 25.6743C91.2283 25.6743 92.2477 24.6544 92.2477 23.3817C92.2562 22.1089 91.2367 21.089 89.9561 21.089ZM22.2679 15.349H19.9762V10.0809C19.9762 9.70162 20.4901 9.39818 21.122 9.39818C21.7623 9.39818 22.2679 9.69319 22.2679 10.0809C22.2679 10.0725 22.2679 15.349 22.2679 15.349ZM59.4062 0H55.0335V15.3068H54.9914V15.349H50.703V0H46.2797V15.349H43.0108H38.6381H38.3011H36.3885V10.0809C36.3885 9.70162 36.9025 9.39818 37.5344 9.39818C38.1747 9.39818 38.6802 9.69319 38.6802 10.0809V11.5223H43.0529V10.0809C43.0529 8.25185 41.5616 6.76838 39.7418 6.76838H35.2764C33.4481 6.76838 31.9653 8.26028 31.9653 10.0809V15.3068H31.9232H28.2666C27.7527 15.3068 27.0787 15.3911 26.6068 15.2647V10.4602V10.1231C26.6068 8.294 25.1156 6.81052 23.2957 6.81052H18.8725C17.0442 6.81052 15.5614 8.30243 15.5614 10.1231V19.1757H22.2763C22.2763 20.1534 22.3184 21.2997 22.2342 21.384C22.192 21.4683 21.855 21.5947 21.3411 21.5947V23.3817H22.9587C23.8518 23.3817 24.5342 23.2974 24.9976 23.1709C25.461 23.0445 25.8065 22.8338 26.0592 22.5303C26.312 22.2353 26.4805 21.9319 26.5226 21.5526C26.5647 21.2154 26.6068 19.9764 26.6068 19.1335H31.9147H43.0023H59.3641V0H59.4062Z" fill="#181D20"/>
</svg>
