<svg width="54" height="50" viewBox="0 0 54 50" fill="none" xmlns="http://www.w3.org/2000/svg">
<mask id="mask0_2464_373" style="mask-type:luminance" maskUnits="userSpaceOnUse" x="0" y="0" width="54" height="50">
<path d="M53.9395 0H0V50H53.9395V0Z" fill="white"/>
</mask>
<g mask="url(#mask0_2464_373)">
<path fill-rule="evenodd" clip-rule="evenodd" d="M24.4731 49.0231L23.7491 48.5089H10.0853L8.81405 38.3841L4.6804 35.3829L2.60937 33.8823L0.538333 32.3817L0.311025 31.016L0.151068 29.6587L0.0584599 28.3099L0.0332031 26.9611L0.0752973 25.6206L0.184742 24.2971L0.344701 22.982L0.572009 21.7006L0.70671 21.0599L0.858249 20.436L1.03505 19.7953L1.21184 19.1799L1.41389 18.5476L1.61594 17.9322L1.84325 17.3168L2.07056 16.7014L2.33155 16.1113L2.60095 15.5127L2.87035 14.931L3.17343 14.3578L3.48493 13.7845L3.79642 13.2281L4.47835 12.1322L4.83194 11.6011L5.21079 11.07L5.58964 10.5642L5.98532 10.0415L6.39784 9.55253L6.81879 9.06357L7.25657 8.58304L7.71118 8.11938L8.17422 7.65571L8.63726 7.20891L9.11713 6.78739L9.60542 6.34902L10.1106 5.93594L11.1461 5.14349L11.6765 4.77256L12.4931 4.24145L12.7793 4.06441L13.0487 3.88738L13.335 3.7272L13.6212 3.56703L13.9074 3.40685L14.2105 3.24668L14.4968 3.09493L14.7998 2.94319L15.1029 2.79144L15.406 2.65656L15.7091 2.50481L16.0122 2.38679L16.3152 2.2519L16.4668 2.18446L16.6183 2.12545L16.7783 2.05801L16.9298 1.99056L17.0898 1.93998L17.2413 1.87254L17.4013 1.82196L17.5528 1.75452L17.7128 1.70393L17.8727 1.64492L18.0327 1.59434L18.1842 1.54376L18.3526 1.48475L18.5126 1.43416L18.6641 1.38358L18.824 1.34143L18.9756 1.29928L19.1355 1.2487L19.2955 1.20655L19.4639 1.14754L19.6238 1.10538L19.8006 1.04637L19.9606 1.00422L20.1205 0.962069L20.2805 0.919918L20.4405 0.877766L20.6173 0.835615L20.7772 0.793464L20.9372 0.751312L21.114 0.709161L21.2739 0.667009L21.4339 0.624858L21.7791 0.557416L22.1242 0.506834L22.4694 0.439392L22.7977 0.39724L23.1429 0.338228L23.4881 0.296077L23.8164 0.253925L24.1616 0.211774L24.5068 0.186483L24.8351 0.161193L25.1803 0.152762L25.5086 0.127471L25.8538 0.110611H26.1821L26.5273 0.09375H27.1924L27.5207 0.110611H27.849L28.1858 0.135901L28.5141 0.144332L28.8425 0.169623L29.1876 0.194913L29.516 0.220204L29.8443 0.262356L30.1726 0.304507L30.501 0.346658L30.8293 0.38881L31.1408 0.439392L31.4691 0.498404L31.7975 0.548985L32.109 0.616428L32.4205 0.68387L32.7488 0.751312L33.0603 0.818754L33.3718 0.903057L33.6833 0.98736L33.9948 1.07166L34.3063 1.1644L34.6178 1.25713L34.9293 1.35829L35.2408 1.45103L35.5439 1.56062L35.8554 1.67021L36.1584 1.77981L36.4699 1.89783L36.773 2.00742L37.0761 2.12545L37.3792 2.26033L37.6822 2.37836L37.9685 2.51324L38.2716 2.64813L38.5578 2.78301L38.8609 2.93476L39.1471 3.06964L39.4334 3.22138L39.7196 3.37313L39.989 3.53331L40.2752 3.68505L40.5446 3.85366L40.814 4.01383L41.0835 4.19087L41.3529 4.35104L41.6223 4.52808L42.1526 4.88215L43.1882 5.64931L43.6933 6.04553L44.1984 6.45861L44.6783 6.88013L45.1582 7.3185L45.6212 7.77374L46.0842 8.2374L46.5304 8.70107L46.9682 9.19002L47.3892 9.67898L47.8017 10.1848L48.1974 10.7075L48.5931 11.2302L48.9635 11.7613L49.3339 12.3092L49.6875 12.8741L50.0327 13.4473L50.3442 14.0206L50.6557 14.6107L50.9588 15.2008L51.245 15.8162L51.5144 16.4148L51.7585 17.047L52.0027 17.6709L52.2216 18.3116L52.4405 18.9523L52.6341 19.6099L52.8109 20.2674L52.9624 20.9334L53.114 21.6163L53.3581 22.9567L53.5517 24.2971L53.6444 25.6459L53.6865 26.9948L53.6444 28.3521L53.5517 29.7009L53.3581 31.0582L53.114 32.3986L44.8719 38.3841L43.6007 48.5089H29.9622L29.1455 49.0231L28.8846 49.217L28.6152 49.3772L28.3289 49.5121L28.0427 49.6217L27.7396 49.706L27.4365 49.7734L27.1334 49.8156H26.5104L26.2074 49.7734L25.9043 49.706L25.6012 49.6217L25.2981 49.5121L25.0119 49.3772L24.7425 49.217L24.4731 49.0231Z" fill="#E30016"/>
</g>
<path fill-rule="evenodd" clip-rule="evenodd" d="M25.6524 44.8318L24.1538 43.7612H14.2617L13.2009 35.685L5.04304 29.7585L4.84099 28.8312L4.73155 27.8785L4.68945 26.9259L4.74838 25.9733L4.86625 25.0207L5.0683 24.0765L5.32929 23.1492L5.65762 22.2471L20.1885 36.8905L6.10382 19.5579L6.21326 19.1363L6.33955 18.7233L6.49108 18.3017L6.64262 17.9055L6.81942 17.5093L7.01305 17.1131L7.2151 16.7337L7.43399 16.3628L7.67814 15.9919L7.92229 15.6378L8.18327 15.2921L8.45267 14.9634L8.73891 14.6346L9.02515 14.3227L9.33665 14.0192L9.64815 13.7325L22.2259 35.4574L11.0373 11.684L11.3235 11.3299L11.6266 10.9843L11.9297 10.6386L12.258 10.3267L12.5863 10.0232L12.9147 9.71972L13.6218 9.17175L13.9923 8.92728L14.3711 8.69966L14.75 8.48047L15.1625 8.27814L15.575 8.07582L15.9875 7.91564L16.4253 7.75547L16.8631 7.60372L24.4906 34.6228L18.9089 6.50778L19.2877 6.2886L19.6834 6.0947L20.0959 5.91766L20.5084 5.74063L20.9294 5.58888L21.3503 5.47086L21.7881 5.34441L22.2259 5.25167L22.6637 5.16737L23.1014 5.09993L23.5392 5.05778L23.9854 5.03249L24.4232 5.01562L24.8778 5.03249L25.3156 5.05778L25.7534 5.11679L26.8478 34.3024L28.0349 5.11679L28.4727 5.05778L28.9189 5.03249L29.3566 5.01562L29.7944 5.03249L30.2322 5.05778L30.6868 5.09993L31.1078 5.16737L31.5455 5.25167L31.9833 5.34441L32.4043 5.47086L32.8252 5.58888L33.2461 5.74063L33.6671 5.91766L34.0796 6.0947L34.4921 6.2886L34.9047 6.50778L29.2051 34.6228L36.942 7.60372L37.363 7.75547L38.1796 8.08425L38.5921 8.28657L38.9878 8.4889L39.3666 8.70809L39.7455 8.93571L40.1243 9.18018L40.8315 9.72815L41.5134 10.3267L41.8249 10.6386L42.1364 10.9843L42.4395 11.3299L42.7258 11.684L31.5455 35.4742L44.098 13.741L44.4095 14.0276L44.721 14.3311L45.0073 14.643L45.2935 14.9718L45.5545 15.3006L45.8155 15.6462L46.0596 16.0003L46.2785 16.3712L46.4974 16.7421L46.6994 17.1215L46.8931 17.5177L47.0699 17.914L47.2298 18.3102L47.3814 18.7317L47.5161 19.1448L47.6424 19.5663L33.5745 36.8821L47.9538 22.2387L48.3243 23.1407L48.5937 24.0681L48.7957 25.0123L48.922 25.9649L48.9725 26.9175L48.9304 27.8701L48.8042 28.8227L48.6105 29.7501L40.4527 35.6766L39.4677 43.7528H29.6092L28.1191 44.8066L27.9675 44.8993L27.816 44.9836L27.6645 45.051L27.5129 45.11L27.353 45.1522L27.193 45.1775L27.0415 45.2028H26.7131L26.5532 45.1775L26.4016 45.1522L26.2417 45.11L26.0901 45.051L25.9386 44.9836L25.7871 44.8993L25.6524 44.8318Z" fill="#FFEC00"/>
</svg>
