<svg width="160" height="50" viewBox="0 0 160 50" fill="none" xmlns="http://www.w3.org/2000/svg">
<path d="M0.101103 19.0352H0.0505517L0 19.0268C0 18.6474 0 18.2765 0 17.8971C0.0337008 17.8887 0.0674021 17.8887 0.0926777 17.8887C0.370709 18.2765 0.37071 18.6558 0.101103 19.0352Z" fill="#C9CAD6"/>
<path d="M3.57274 10.8329C3.01667 10.8244 2.67124 10.4619 2.68809 9.91398C2.70494 9.4166 3.08407 9.03724 3.58116 9.03724C4.0951 9.02881 4.49951 9.44189 4.49951 9.95613C4.49951 10.4788 4.12037 10.8413 3.57274 10.8329Z" fill="#222658"/>
<path d="M150.203 24.6418C152.815 23.1412 155.342 21.6827 157.862 20.2243C158.224 20.0136 158.561 20.0051 158.78 20.3929C159.016 20.806 158.797 21.0926 158.418 21.3034C156.699 22.2897 154.98 23.2845 153.27 24.2708C153.093 24.372 152.916 24.4816 152.672 24.6333C153.615 25.1644 154.508 25.6618 155.393 26.1676C156.455 26.7662 157.516 27.3479 158.569 27.9549C159.083 28.2499 159.159 28.7389 158.755 29.0339C158.536 29.1941 158.3 29.1941 158.072 29.0592C155.486 27.6092 152.891 26.1508 150.203 24.6418Z" fill="#00B9D1"/>
<path d="M157.56 32.9198C157.358 32.9282 157.206 32.8186 157.046 32.7259C153.373 30.6268 149.708 28.5276 146.026 26.4453C145.319 26.0407 145.976 25.6951 146.051 25.3578C146.161 24.8942 146.447 25.2904 146.591 25.3747C150.256 27.4485 153.904 29.5393 157.56 31.63C157.704 31.7143 157.855 31.7901 157.982 31.8997C158.184 32.0768 158.234 32.3044 158.133 32.5573C158.032 32.8102 157.838 32.9282 157.56 32.9198Z" fill="#00B9D1"/>
<path d="M146.926 22.6852C147.541 22.3311 148.088 22.0108 148.636 21.6988C151.366 20.1308 154.096 18.5712 156.817 17.0116C156.901 16.961 156.977 16.9189 157.061 16.8767C157.407 16.6997 157.727 16.7166 157.929 17.0875C158.123 17.45 157.988 17.7366 157.643 17.9305C156.834 18.4026 156.025 18.8747 155.216 19.3468C153.085 20.5945 150.936 21.8169 148.813 23.0898C148.333 23.3765 147.954 23.427 147.524 23.073C147.381 22.9381 147.195 22.8454 146.926 22.6852Z" fill="#00B9D1"/>
<path d="M155.984 13.5226C156.346 13.4973 156.549 13.6321 156.65 13.8766C156.751 14.1127 156.725 14.3656 156.515 14.5426C156.388 14.6522 156.237 14.7365 156.094 14.8124C152.968 16.6165 149.851 18.429 146.716 20.2162C146.59 20.292 146.329 20.6798 146.219 20.2499C146.135 19.9127 145.495 19.5418 146.135 19.1624C149.32 17.3162 152.513 15.4784 155.706 13.6406C155.807 13.5731 155.934 13.5394 155.984 13.5226Z" fill="#00B9D1"/>
<path d="M135.975 0.00843013C136.32 0.227617 136.413 0.539536 136.413 0.944188C136.404 5.96862 136.379 10.9931 136.429 16.0175C136.438 16.9617 136.194 17.5518 135.233 17.7963C135.124 17.7373 135.199 17.5939 135.199 17.4759C135.191 11.9457 135.199 6.41542 135.183 0.885177C135.183 0.488955 135.317 0.219187 135.621 0C135.747 0.00843026 135.865 0.00843013 135.975 0.00843013Z" fill="#02BAD1"/>
<path d="M132.486 0.0078125C132.781 0.201708 132.941 0.437755 132.941 0.825547C132.933 6.41481 132.933 12.0125 132.933 17.6018C132.933 17.6523 132.916 17.7113 132.899 17.8378C132.545 17.6186 132.216 17.4163 131.888 17.2308C131.703 17.1212 131.719 16.9611 131.719 16.7925C131.719 11.4645 131.719 6.13661 131.711 0.808687C131.711 0.387174 131.905 0.159557 132.259 0.0162426C132.334 0.00781237 132.41 0.0078125 132.486 0.0078125Z" fill="#01B9D1"/>
<path d="M135.527 50.0009C135.265 49.7312 135.198 49.4108 135.198 49.0314C135.215 45.3727 135.257 41.714 135.173 38.0552C135.148 37.0099 135.645 36.4619 136.344 35.8887C136.453 36.091 136.403 36.2765 136.403 36.4535C136.403 40.6602 136.403 44.8585 136.411 49.0652C136.411 49.4698 136.344 49.7986 135.973 50.0009C135.822 50.0009 135.67 50.0009 135.527 50.0009Z" fill="#02BAD2"/>
<path d="M132.039 49.9997C132.047 49.966 132.047 49.9238 132.039 49.8901C132.233 49.7215 132.418 49.7215 132.612 49.8901C132.604 49.9238 132.595 49.966 132.612 49.9997C132.41 49.9997 132.224 49.9997 132.039 49.9997Z" fill="#71D8E5"/>
<path d="M47.3414 18.7313C47.274 15.6711 47.3161 12.6194 47.3414 9.55919C47.3414 9.03651 47.2066 8.88477 46.6843 8.88477C46.145 8.88477 45.9765 9.03651 45.985 9.58448C46.0187 11.6499 46.0018 13.7153 45.9934 15.7807C45.9934 16.9104 46.0102 18.0316 45.9681 19.1528C45.9091 20.763 45.2604 21.4458 43.668 21.547C42.8255 21.5976 41.983 21.5554 41.1405 21.5723C40.8287 21.5807 40.8287 21.4627 40.8793 21.2014C41.0478 20.3752 41.1236 19.5322 41.0815 18.6892C40.8877 14.9546 38.1748 13.0577 34.6109 14.179C32.4372 14.8618 30.9039 16.3708 29.5727 18.1412C29.3368 18.4615 29.1093 18.7987 28.8734 19.1275C28.7386 19.0264 28.7807 18.9252 28.7807 18.8409C28.7807 16.6828 28.7807 14.5246 28.7723 12.3665C28.7723 12.1894 28.8481 11.9787 28.6375 11.8606C28.1067 11.5656 27.4664 11.9197 27.4664 12.5182C27.4664 15.3508 27.4664 18.1833 27.4664 21.0159C27.4664 21.3025 27.5085 21.5976 27.062 21.5807C26.2953 21.5554 25.5202 21.5976 24.7619 21.5386C23.0431 21.4037 22.2512 20.5269 22.2428 18.7987C22.2343 17.4246 22.2175 16.0589 22.2512 14.6932C22.268 14.1705 22.0658 14.0694 21.6024 14.0778C21.1475 14.0862 20.8779 14.1115 20.8947 14.7016C20.9368 16.1854 20.9284 17.6691 20.8779 19.1444C20.8357 20.5101 20.1533 21.3278 18.9906 21.5049C18.5862 21.5723 18.1734 21.5976 17.7605 21.5554C15.9913 21.3868 15.2161 20.5607 15.2077 18.7819C15.1993 17.4078 15.174 16.0421 15.2161 14.6764C15.233 14.0609 14.9044 14.1031 14.4831 14.0778C14.0198 14.0525 13.8765 14.1958 13.8765 14.6679C13.8765 16.2275 13.9692 17.7787 13.8091 19.3383C13.6659 20.7546 12.9919 21.429 11.5933 21.547C11.2394 21.5723 10.8856 21.5723 10.5317 21.5386C8.88881 21.4121 8.49283 20.9738 8.49283 19.313C8.49283 17.7365 8.49283 16.1601 8.49283 14.5836C8.49283 14.2886 8.46755 14.0694 8.07999 14.0778C6.85834 14.0947 5.63669 14.0357 4.42346 14.1115C1.91275 14.2633 0.387789 15.6205 0.0507812 17.9051V19.0432C0.269836 20.6703 1.19661 21.6819 2.77212 22.1034C4.0359 22.4406 5.29968 22.39 6.52976 21.9601C7.06055 21.7746 7.50708 21.5133 7.93677 22.1708C8.13897 22.4828 8.60236 22.5671 8.98992 22.6429C9.81559 22.82 10.6581 22.8874 11.5006 22.8368C12.756 22.761 13.9018 22.4322 14.6516 21.2351C15.4942 22.5502 16.7916 22.8368 18.1902 22.8368C19.5804 22.8368 20.861 22.5333 21.7035 21.2351C22.327 22.2299 23.2201 22.6429 24.2732 22.761C24.6608 22.8031 25.0568 22.8368 25.4443 22.8368C31.3504 22.8453 37.2565 22.8368 43.1625 22.8453C45.8586 22.8537 47.4088 21.7072 47.3414 18.7313ZM6.72354 20.5775C5.65354 21.0075 4.54141 21.1339 3.42086 20.881C1.74425 20.5017 0.952277 18.9842 1.60102 17.3825C2.14023 16.0673 3.19338 15.4266 4.57511 15.3423C5.28283 15.3002 5.99897 15.3508 6.71511 15.3255C7.06055 15.3171 7.11952 15.4604 7.1111 15.7639C7.09425 16.4804 7.1111 17.1886 7.1111 17.9051C7.1111 18.5964 7.09425 19.2961 7.11952 19.9874C7.12795 20.3078 7.00157 20.4679 6.72354 20.5775ZM39.4723 21.2435C39.4217 21.4543 39.3459 21.5723 39.11 21.5723C35.7231 21.5723 32.3361 21.5723 28.8313 21.5723C30.213 19.0179 31.7885 16.8008 34.434 15.5952C35.0912 15.3002 35.782 15.14 36.4982 15.1737C38.4697 15.2749 39.6492 16.5816 39.7672 18.7987C39.8093 19.6249 39.6745 20.4342 39.4723 21.2435Z" fill="#202457"/>
<path d="M73.4847 15.2664C73.4931 13.5887 73.4594 13.5634 71.7912 13.614C71.2015 13.6309 70.9571 13.8754 70.9571 14.4908C70.9487 15.4265 70.9656 16.3707 70.9487 17.3065C70.9403 17.9809 71.0077 18.6553 70.8645 19.3297C70.6623 20.2149 70.2916 20.6027 69.3985 20.7039C68.9182 20.7545 68.4212 20.7545 67.9409 20.6954C67.1321 20.5943 66.8204 20.2739 66.7782 19.4478C66.7361 18.5879 66.7698 17.7196 66.7698 16.8597H66.7361C66.7361 16.0925 66.7445 15.3169 66.7361 14.5498C66.7277 13.8754 66.4665 13.6225 65.8178 13.6225C64.6382 13.614 63.4587 13.6056 62.2708 13.6225C61.066 13.6393 59.9286 13.9259 58.9428 14.6425C57.2999 15.8312 56.8028 17.5004 57.1567 19.4056C57.4853 21.1844 58.7238 22.1454 60.4341 22.5501C61.6726 22.8452 62.8942 22.8114 64.0906 22.4068C64.6045 22.2297 65.0174 22.1707 65.4555 22.567C65.6493 22.744 65.961 22.8114 66.2306 22.8789C67.5197 23.1992 68.834 23.2498 70.1315 23.0306C72.2041 22.6766 73.2994 21.4795 73.4342 19.3803C73.5184 18.0062 73.4763 16.6405 73.4847 15.2664ZM64.0906 17.4919C64.099 17.6605 64.0906 17.8292 64.0906 17.9978C64.0906 18.5204 64.0738 19.0515 64.099 19.5742C64.1159 19.8608 63.9895 19.9789 63.7452 20.0463C62.8268 20.3245 61.9085 20.3835 60.9817 20.1138C60.1308 19.8693 59.7095 19.3129 59.6337 18.3856C59.5579 17.5257 59.9875 16.7332 60.7458 16.337C61.3271 16.0335 61.959 15.9661 62.5994 15.9914C63.0796 16.0082 63.7115 15.789 64.0064 16.0757C64.2928 16.3792 64.0653 17.0114 64.0906 17.4919Z" fill="#202457"/>
<path d="M83.2666 20.7293C82.8032 19.7683 82.5589 18.8325 82.5926 17.8462C82.6768 15.57 84.0249 14.0104 86.2828 13.5299C87.4708 13.277 88.6672 13.3191 89.8467 13.5467C90.4954 13.6732 90.706 14.0188 90.5628 14.6848C90.5291 14.8534 90.4954 15.0136 90.4617 15.1822C90.2848 15.9156 90.0489 16.0758 89.3075 15.9493C88.625 15.8313 87.9342 15.7976 87.2349 15.8988C85.6846 16.1095 84.9095 17.1886 85.2128 18.7229C85.2465 18.8915 85.2802 19.0517 85.3392 19.2119C85.8363 20.6281 85.9879 20.7377 87.4792 20.7377C88.4144 20.7377 89.3496 20.7293 90.2932 20.7377C90.9251 20.7462 91.1779 20.9991 91.1863 21.6145C91.2116 23.0898 91.1442 23.1656 89.6445 23.1572C86.6283 23.1488 83.612 23.1404 80.5958 23.1151C80.1661 23.1151 79.7364 23.0561 79.3152 22.9718C77.4616 22.6008 76.3664 21.3869 76.3411 19.4901C76.2905 16.1348 76.3242 12.7796 76.3158 9.4159C76.3158 8.91009 76.5854 8.66561 77.0741 8.62346C77.0909 8.62346 77.1078 8.62346 77.1331 8.62346C78.5401 8.62346 78.8686 8.45485 78.8434 10.2252C78.8012 13.0156 78.8349 15.8145 78.8349 18.6049C78.8349 20.0465 79.4247 20.6703 80.857 20.7209C81.6321 20.7462 82.3988 20.7293 83.2666 20.7293Z" fill="#202457"/>
<path d="M25.6629 36.1409C25.5028 35.8711 25.5113 35.7362 25.823 35.6182C26.3622 35.4074 26.7835 35.0449 27.0615 34.5307C28.0135 32.7772 26.9941 30.7455 24.9636 30.4167C23.565 30.1975 22.158 30.3577 20.7594 30.324C20.1528 30.3071 20.0096 30.4673 20.0096 31.0912C20.0012 32.3641 20.0096 33.6371 20.0096 34.9185C20.0096 36.1915 20.0096 37.4644 20.0096 38.7458C20.0096 39.4624 20.136 39.5888 20.8605 39.5973C20.9954 39.5973 21.1217 39.5973 21.2565 39.5973C21.7452 39.6141 21.9811 39.395 21.9727 38.8891C21.9558 38.2737 21.9727 37.6499 21.9727 37.0345C21.9727 36.0229 21.9727 36.0481 23.009 36.0144C23.405 36.006 23.6072 36.1409 23.7841 36.4865C24.1464 37.2031 24.6266 37.8691 24.9299 38.6025C25.2922 39.4708 25.8735 39.6984 26.7413 39.6057C27.3648 39.5383 27.4828 39.3781 27.1879 38.8386C26.6739 37.9281 26.1768 37.0261 25.6629 36.1409ZM25.3933 33.3673C25.3596 34.0502 24.8794 34.5307 24.1632 34.5897C23.8852 34.615 23.5987 34.5981 23.3207 34.5981C21.9558 34.5981 21.9558 34.5981 21.9558 33.2409C21.9558 31.9342 21.9558 31.9342 23.2702 31.9342C23.6072 31.9342 23.9442 31.9342 24.2728 31.9763C24.9973 32.0944 25.427 32.6423 25.3933 33.3673Z" fill="#202457"/>
<path d="M103.352 25.7963C103.352 32.1949 103.352 38.5934 103.36 44.992C103.36 45.4388 103.267 45.6495 102.779 45.6074C102.492 45.5821 102.366 45.4809 102.383 45.2027C102.391 45.11 102.383 45.0173 102.383 44.9245C102.383 32.1611 102.383 19.4062 102.391 6.65118C102.391 6.4067 102.197 6.01891 102.711 5.96833C103.158 5.92618 103.36 6.01048 103.36 6.55845C103.343 12.957 103.352 19.3809 103.352 25.7963Z" fill="#02BAD2"/>
<path d="M29.0829 34.9513C29.0829 33.6531 29.0998 32.3632 29.0745 31.065C29.0661 30.5423 29.2514 30.3062 29.7906 30.3147C31.5178 30.3315 33.2365 30.3147 34.9637 30.3231C35.5703 30.3231 35.6798 30.458 35.6883 31.1155C35.6883 31.7731 35.5703 31.9333 34.989 31.9333C33.8095 31.9417 32.6299 31.9501 31.4504 31.9249C31.0965 31.9164 30.9954 32.0176 31.0207 32.3632C31.0544 32.8269 31.046 33.299 31.0207 33.7711C31.0039 34.0661 31.0965 34.1589 31.3914 34.1504C32.2339 34.1336 33.0765 34.142 33.919 34.142C34.5256 34.142 34.6772 34.3022 34.6772 34.9092C34.6772 35.5246 34.5256 35.6932 33.9358 35.6932C33.1523 35.7016 32.3603 35.7269 31.5768 35.6847C31.0797 35.651 30.9702 35.8281 31.0123 36.2749C31.0544 36.6627 31.046 37.0673 31.0123 37.4551C30.9786 37.8345 31.0797 37.9693 31.4925 37.9609C32.6552 37.9272 33.8179 37.9693 34.9806 37.9441C35.5198 37.9356 35.722 38.1717 35.7304 38.6775C35.7388 39.3519 35.604 39.5711 35.0311 39.5795C33.2702 39.5964 31.5094 39.588 29.7485 39.5795C29.2935 39.5795 29.0829 39.3603 29.0913 38.8798C29.0998 37.5731 29.0829 36.258 29.0829 34.9513Z" fill="#202457"/>
<path d="M18.6121 38.8812C18.2835 38.1647 17.9465 37.4565 17.6095 36.7484C16.6827 34.7673 15.7475 32.7946 14.8208 30.8219C14.6607 30.4763 14.4416 30.2402 14.0204 30.2402C13.5907 30.2402 13.3716 30.4679 13.22 30.8219C13.0768 31.1423 12.9167 31.4626 12.765 31.783C11.6529 34.1266 10.5492 36.4786 9.43707 38.8222C9.16746 39.3871 9.27699 39.581 9.90046 39.5894C11.358 39.5978 11.08 39.6821 11.5855 38.5272C11.636 38.4092 11.7119 38.2911 11.7456 38.1647C11.813 37.8949 11.9731 37.8275 12.2342 37.8359C12.8156 37.8528 13.3969 37.8443 13.9783 37.8443C14.4501 37.8443 14.9219 37.8865 15.3768 37.8359C15.9245 37.7685 16.152 38.0045 16.3457 38.485C16.8344 39.7243 16.6238 39.5894 18.0476 39.5978C18.0813 39.5978 18.1234 39.5978 18.1571 39.5978C18.7301 39.5557 18.8396 39.3871 18.6121 38.8812ZM15.0988 36.4449C14.3658 36.4449 13.6412 36.4365 12.9083 36.4449C12.5881 36.4533 12.5123 36.3775 12.6555 36.0655C13.102 35.0623 13.5317 34.0423 14.012 32.9126C14.5006 34.0676 14.9303 35.0961 15.36 36.1246C15.4695 36.4112 15.3179 36.4449 15.0988 36.4449Z" fill="#202457"/>
<path d="M5.14685 30.1708C6.42748 30.1286 7.53118 30.5586 8.49165 31.3932C8.80338 31.663 9.08141 31.958 8.71071 32.388C8.13779 33.0539 7.78393 33.1551 7.31212 32.7589C6.30952 31.9074 5.18897 31.663 3.96732 32.1772C2.34126 32.8685 1.70094 34.858 2.55189 36.4513C3.36913 37.9688 5.34063 38.4662 6.82346 37.5304C6.93299 37.463 7.04252 37.3787 7.14362 37.3028C7.78393 36.797 8.34842 36.9066 8.79496 37.6147C8.97189 37.9013 8.87921 38.1458 8.6433 38.365C7.22787 39.7054 5.55126 40.0679 3.70614 39.5537C1.89472 39.0563 0.715192 37.8676 0.319208 36.013C-0.354808 32.8516 1.88629 30.1708 5.14685 30.1708Z" fill="#202457"/>
<path d="M94.2944 18.2679C94.2944 17.0117 94.2859 15.7556 94.2944 14.4995C94.2944 13.8335 94.5134 13.6228 95.1622 13.6144C96.8051 13.5806 96.8219 13.6059 96.8219 15.2414C96.8219 17.2309 96.8388 19.212 96.8135 21.2016C96.7966 22.8286 96.5018 24.3714 95.2633 25.5685C94.4376 26.3693 93.4013 26.715 92.2976 26.892C92.2639 26.9004 92.2218 26.9004 92.1881 26.892C91.6825 26.8499 91.4551 26.4789 91.3203 25.4336C91.2613 24.9615 91.4214 24.6243 91.9016 24.4978C92.1207 24.4388 92.3397 24.3882 92.5503 24.3208C93.6288 23.9667 94.2017 23.2754 94.2354 22.1373C94.2775 20.8475 94.2438 19.5577 94.2438 18.2594C94.2607 18.2679 94.2775 18.2679 94.2944 18.2679Z" fill="#202457"/>
<path d="M47.2311 32.5244C46.3549 34.7331 45.4871 36.9334 44.5941 39.1337C44.4845 39.4035 44.4845 39.8503 44.0633 39.825C43.701 39.8081 43.6926 39.395 43.5915 39.1337C42.7658 37.102 41.957 35.0703 41.1397 33.0471C41.0807 32.9037 41.0723 32.7183 40.8533 32.5834C40.7185 33.7046 40.5921 34.7837 40.4657 35.8712C40.3393 36.9671 40.2214 38.0715 40.095 39.1674C40.0781 39.336 40.0444 39.5131 39.9686 39.6479C39.8507 39.8418 39.6316 39.8081 39.4547 39.7491C39.2188 39.6732 39.2778 39.4456 39.2946 39.2686C39.4715 37.7596 39.6485 36.2505 39.8254 34.75C39.9686 33.5444 40.1034 32.3305 40.2635 31.125C40.2972 30.8889 40.2129 30.518 40.55 30.4674C40.8954 30.4168 40.9207 30.7877 41.0133 31.0069C41.9907 33.359 42.9596 35.711 43.9285 38.0546C43.9706 38.1558 44.0211 38.2569 44.1054 38.434C44.8215 36.6805 45.5124 35.0029 46.2033 33.3253C46.5403 32.4907 46.8857 31.6645 47.2227 30.8299C47.2985 30.6444 47.3575 30.3915 47.6271 30.4421C47.8883 30.4927 47.8546 30.754 47.8714 30.9479C48.2 33.6456 48.5286 36.3433 48.8572 39.041C48.8656 39.1168 48.874 39.1927 48.8825 39.2686C48.8909 39.4962 48.9415 39.7407 48.6044 39.7744C48.2759 39.8081 48.1411 39.6564 48.0989 39.3276C47.8799 37.3549 47.6524 35.3822 47.4249 33.4096C47.3912 33.1145 47.3491 32.8194 47.3154 32.5159C47.2901 32.5244 47.2648 32.5244 47.2311 32.5244Z" fill="#202457"/>
<path d="M63.6436 30.6276C62.3461 30.4084 61.0234 30.5938 59.7175 30.518C59.2204 30.4927 59.0603 30.6697 59.0687 31.1587C59.094 32.4907 59.0771 33.8226 59.0771 35.1462C59.0771 36.495 59.0856 37.8439 59.0687 39.1927C59.0603 39.6142 59.1951 39.7997 59.6501 39.7828C60.6442 39.7575 61.63 39.7913 62.6242 39.7744C65.4213 39.7322 67.1148 38.1221 67.3001 35.3232C67.4771 32.9543 65.9774 31.0238 63.6436 30.6276ZM63.315 38.9819C62.2872 39.1253 61.2593 39.041 60.2314 39.0747C59.9112 39.0831 59.9197 38.9061 59.9197 38.6869C59.9281 37.5067 59.9197 36.3264 59.9197 35.1462C59.9197 33.9828 59.9281 32.8279 59.9112 31.6645C59.9112 31.4116 59.9365 31.2514 60.2651 31.2598C61.234 31.2936 62.2113 31.243 63.1802 31.3188C65.1349 31.4874 66.4155 32.988 66.4576 35.0619C66.5082 37.1694 65.2612 38.7122 63.315 38.9819Z" fill="#202457"/>
<path d="M143.406 40.9202C143.406 42.5136 143.406 44.0985 143.406 45.6918C143.406 46.3831 143.406 47.0828 143.414 47.774C143.423 48.1871 143.271 48.4906 142.816 48.4906C142.361 48.4906 142.209 48.1703 142.209 47.7656C142.192 46.5264 142.184 45.2871 142.176 44.0563C142.167 42.3112 142.176 40.5662 142.176 38.8211C142.344 38.7537 142.445 38.8886 142.572 38.956C144.981 40.3639 147.391 41.7717 149.792 43.1796C149.918 43.2554 150.062 43.3229 150.163 43.424C150.399 43.6432 150.449 43.913 150.281 44.1828C150.112 44.4525 149.859 44.5537 149.556 44.4272C149.337 44.3345 149.126 44.1996 148.916 44.0732C147.256 43.0953 145.588 42.1258 143.928 41.1479C143.776 41.0551 143.642 40.9118 143.406 40.9202Z" fill="#00B9D1"/>
<path d="M125.931 38.7207C125.931 41.0306 125.931 43.2562 125.931 45.4818C125.931 46.173 125.914 46.8728 125.914 47.564C125.914 47.9856 125.796 48.3312 125.299 48.3312C124.794 48.3312 124.701 47.9856 124.701 47.564C124.718 45.5576 124.726 43.5512 124.735 41.5448C124.735 41.3425 124.735 41.1402 124.735 40.9294C124.432 40.9379 124.255 41.1233 124.052 41.2413C122.418 42.194 120.792 43.155 119.157 44.1076C118.98 44.2088 118.787 44.3268 118.593 44.3437C118.365 44.369 118.155 44.251 118.037 44.0318C117.936 43.8379 117.927 43.6271 118.062 43.4416C118.138 43.3405 118.231 43.2393 118.34 43.1803C120.851 41.6966 123.353 40.2297 125.931 38.7207Z" fill="#00B9D1"/>
<path d="M139.892 32.4062C139.892 33.0132 139.892 33.519 139.892 34.0249C139.892 38.8385 139.892 43.6606 139.892 48.4743C139.892 48.6429 139.909 48.8115 139.884 48.9801C139.833 49.3173 139.623 49.5365 139.277 49.5281C138.94 49.5197 138.721 49.3173 138.687 48.9717C138.671 48.7862 138.671 48.6008 138.671 48.4069C138.671 43.8124 138.713 39.2179 138.637 34.6318C138.628 33.5865 139.092 33.0132 139.892 32.4062Z" fill="#01BAD1"/>
<path d="M128.358 32.2871C128.687 32.6496 128.982 32.9953 129.293 33.3156C129.445 33.4673 129.453 33.6444 129.453 33.8298C129.453 38.7784 129.453 43.727 129.453 48.6755C129.453 49.1055 129.319 49.4342 128.838 49.4342C128.392 49.4342 128.24 49.1139 128.24 48.7092C128.24 43.2886 128.24 37.8764 128.249 32.4557C128.24 32.4389 128.257 32.4304 128.358 32.2871Z" fill="#01BAD1"/>
<path d="M143.388 8.61625C145.174 7.5709 146.867 6.57613 148.561 5.58979C148.738 5.48863 148.915 5.37903 149.1 5.29473C149.429 5.13456 149.707 5.26101 149.867 5.54764C150.027 5.83427 149.985 6.12933 149.681 6.33165C149.479 6.46654 149.269 6.58456 149.058 6.71101C146.926 7.95869 144.795 9.20637 142.663 10.4625C142.52 10.5468 142.377 10.6227 142.191 10.7238C142.191 8.79329 142.191 6.9302 142.191 5.05868C142.191 4.13979 142.2 3.22089 142.217 2.30199C142.225 1.87205 142.377 1.56013 142.874 1.58542C143.354 1.61071 143.43 1.94792 143.421 2.33571C143.405 4.17351 143.396 6.0113 143.388 7.8491C143.379 8.05986 143.388 8.27904 143.388 8.61625Z" fill="#00B9D1"/>
<path d="M117.928 24.7936C115.4 26.252 112.965 27.6599 110.53 29.0593C110.185 29.2616 109.823 29.2869 109.604 28.8991C109.393 28.5198 109.545 28.2247 109.915 28.0139C111.524 27.095 113.125 26.1677 114.734 25.2404C114.945 25.1224 115.147 24.9875 115.366 24.861C115.282 24.625 115.063 24.5913 114.895 24.4901C113.268 23.5712 111.634 22.6607 110 21.7334C109.528 21.4636 109.41 21.0505 109.721 20.7302C109.924 20.5194 110.168 20.452 110.438 20.6037C112.906 21.9779 115.366 23.3604 117.928 24.7936Z" fill="#00B9D1"/>
<path d="M140.936 31.3605C140.961 31.293 140.961 31.2762 140.978 31.2593C141.711 30.4332 141.711 30.4332 142.646 30.9811C146.597 33.2994 150.549 35.6262 154.5 37.9445C154.643 38.0288 154.803 38.1047 154.921 38.2227C155.149 38.4503 155.174 38.7201 154.997 38.9899C154.829 39.2343 154.584 39.3018 154.306 39.2091C154.205 39.1753 154.104 39.1163 154.003 39.0657C149.698 36.5367 145.384 34.0076 141.079 31.4785C141.028 31.4448 140.986 31.4026 140.936 31.3605Z" fill="#00B9D1"/>
<path d="M125.889 10.6898C124.634 9.94797 123.378 9.21453 122.123 8.4811C121.053 7.85726 119.991 7.22499 118.921 6.61802C118.534 6.39883 118.273 6.13749 118.483 5.67383C118.652 5.31133 119.048 5.27761 119.553 5.57266C121.247 6.559 122.94 7.55377 124.693 8.58227C124.785 7.92471 124.735 7.31773 124.735 6.71918C124.735 5.29447 124.718 3.86975 124.709 2.44504C124.709 2.04039 124.836 1.72847 125.291 1.71161C125.754 1.69475 125.914 1.99824 125.914 2.40289C125.931 5.12586 125.948 7.8404 125.956 10.5634C125.956 10.5887 125.931 10.614 125.889 10.6898Z" fill="#00B9D1"/>
<path d="M90.0392 39.2174C88.7839 36.4439 87.5201 33.6703 86.2563 30.8968C86.1636 30.7029 86.1215 30.4331 85.8266 30.45C85.5486 30.4668 85.498 30.7197 85.4054 30.9221C85.001 31.8072 84.5966 32.6924 84.2006 33.5776C83.3496 35.4491 82.4903 37.3206 81.6477 39.1921C81.5635 39.3776 81.3444 39.6305 81.6477 39.757C81.8921 39.8581 82.2122 39.875 82.3639 39.5209C82.406 39.4198 82.4565 39.3186 82.5071 39.2174C82.7009 38.7959 82.9031 38.3744 83.08 37.936C83.1811 37.6916 83.3159 37.5988 83.5771 37.6073C85.0768 37.6157 86.5765 37.6157 88.0762 37.6073C88.3289 37.6073 88.4806 37.6747 88.5817 37.9276C88.7923 38.4503 89.0535 38.9477 89.2641 39.4619C89.3652 39.7064 89.5169 39.8244 89.778 39.7823C90.3425 39.816 90.1656 39.4956 90.0392 39.2174ZM83.5602 36.8485C84.3185 35.1625 85.0431 33.527 85.8266 31.7904C86.6102 33.527 87.3347 35.1625 88.093 36.8485H83.5602Z" fill="#202457"/>
<path d="M129.453 8.5645C129.453 10.9334 129.437 13.2939 129.462 15.6628C129.47 16.1349 129.335 16.1349 128.931 16.0843C128.324 16.0168 128.215 15.7471 128.215 15.1823C128.24 10.6805 128.232 6.17031 128.232 1.66855C128.232 1.49995 128.215 1.33134 128.24 1.16274C128.291 0.791805 128.527 0.589479 128.897 0.597909C129.251 0.61477 129.428 0.842387 129.453 1.18803C129.47 1.44937 129.462 1.7107 129.462 1.97204C129.453 4.17234 129.453 6.37263 129.453 8.5645Z" fill="#01B9D1"/>
<path d="M127.329 31.4033C125.72 32.339 124.136 33.2579 122.552 34.1768C119.864 35.7364 117.176 37.296 114.489 38.8556C114.278 38.9736 114.076 39.1169 113.815 39.0832C113.537 39.0411 113.377 38.8725 113.326 38.6111C113.267 38.2908 113.402 38.08 113.68 37.9198C114.784 37.2876 115.879 36.6469 116.983 36.0062C119.915 34.3033 122.855 32.6256 125.762 30.889C126.326 30.5518 126.68 30.5518 127.034 31.0829C127.11 31.1925 127.211 31.2768 127.329 31.4033Z" fill="#00B9D1"/>
<path d="M54.2156 30.5255C55.0413 30.5255 55.867 30.5255 56.6926 30.5255C56.9454 30.5255 57.1981 30.5087 57.2066 30.8627C57.215 31.2505 56.9538 31.259 56.6758 31.259C55.2856 31.259 53.9039 31.2758 52.5137 31.2505C52.084 31.2421 51.9745 31.377 51.9914 31.7901C52.0251 32.5994 52.0251 33.4002 51.9914 34.2095C51.9661 34.6732 52.143 34.7744 52.5643 34.7575C53.5163 34.7322 54.4768 34.7322 55.4289 34.7575C55.6985 34.7659 56.1366 34.572 56.1197 35.1284C56.1029 35.668 55.6732 35.4656 55.3952 35.4741C54.4178 35.4909 53.4489 35.4909 52.4716 35.4741C52.1346 35.4656 51.9745 35.5162 51.9829 35.9209C52.0166 36.7976 52.0082 37.6828 51.9829 38.568C51.9745 38.9473 52.0756 39.0822 52.48 39.0822C53.8618 39.0569 55.2519 39.0738 56.6421 39.0738C56.8948 39.0738 57.1981 38.9895 57.2066 39.4194C57.2066 39.8241 56.9201 39.7904 56.6589 39.7904C55.0076 39.7904 53.3647 39.7819 51.7133 39.7988C51.2584 39.8072 51.1404 39.6218 51.1489 39.2003C51.1657 36.5194 51.1657 33.8386 51.1489 31.1578C51.1489 30.711 51.2584 30.5171 51.747 30.5339C52.5643 30.5508 53.39 30.5255 54.2156 30.5255Z" fill="#212557"/>
<path d="M139.976 15.3095C139.976 15.849 139.445 16.2452 138.923 16.1188C138.805 16.0935 138.78 16.0176 138.78 15.9249C138.771 15.8322 138.78 15.7394 138.771 15.6467C138.746 10.9173 138.721 6.19638 138.696 1.46701C138.696 1.37428 138.696 1.28154 138.696 1.18881C138.687 0.784158 138.898 0.53125 139.294 0.53125C139.698 0.53125 139.892 0.792588 139.892 1.18881C139.9 2.16672 139.909 3.1362 139.909 4.11411C139.909 5.10888 139.909 6.10365 139.909 7.09842C139.934 7.09842 139.976 12.5781 139.976 15.3095Z" fill="#00B9D1"/>
<path d="M50.8115 15.873C50.8115 13.7908 50.8199 11.7085 50.8031 9.62622C50.8031 9.1457 50.9294 8.90122 51.4687 8.89279C52.0247 8.88436 52.1764 9.12884 52.1679 9.64308C52.1511 13.8076 52.1595 17.9722 52.1679 22.1367C52.1679 22.6257 52.0416 22.8617 51.5024 22.8702C50.9463 22.8786 50.7946 22.6425 50.8031 22.1199C50.8283 20.0292 50.8115 17.9553 50.8115 15.873Z" fill="#202457"/>
<path d="M144.24 28.0985C144.358 28.1575 144.476 28.2165 144.585 28.284C148.511 30.5264 152.437 32.7773 156.372 35.0113C156.675 35.1799 156.886 35.3822 156.819 35.7616C156.768 36.0398 156.583 36.1831 156.33 36.2337C156.069 36.2843 155.866 36.1157 155.656 35.9976C152.437 34.1598 149.227 32.3305 146.009 30.4927C145.242 30.0543 144.492 29.5991 143.717 29.1944C143.363 29.009 143.347 28.8741 143.633 28.6043C143.827 28.4357 143.953 28.1912 144.105 27.9805C144.155 28.0226 144.198 28.0563 144.24 28.0985Z" fill="#00B9D1"/>
<path d="M112.181 36.0484C111.937 36.0315 111.769 35.9219 111.651 35.6943C111.533 35.4583 111.583 35.2475 111.743 35.0705C111.853 34.9525 112.005 34.8682 112.156 34.7839C115.948 32.5836 119.73 30.3917 123.522 28.1914C123.85 27.9975 124.693 28.419 124.718 28.79C124.727 29.0007 124.499 29.0176 124.364 29.1019C121.66 30.6699 118.955 32.2379 116.251 33.806C115.088 34.4804 113.917 35.1548 112.754 35.8292C112.569 35.9388 112.401 36.0653 112.181 36.0484Z" fill="#00B9D1"/>
<path d="M73.0714 35.1452C73.0714 36.8397 73.9813 38.2813 75.4726 38.8714C77.107 39.5205 78.5899 39.2339 79.8705 38.0031C80.098 37.7839 80.3086 37.5478 80.6204 37.8598C80.9658 38.2054 80.6119 38.4077 80.4266 38.5932C79.0111 40.001 76.7111 40.3467 74.8491 39.4446C73.0882 38.5932 72.0182 36.6711 72.2373 34.7406C72.4816 32.4981 73.8128 30.9132 75.9191 30.458C77.6126 30.0955 79.1544 30.458 80.435 31.6888C80.6372 31.8827 80.9574 32.085 80.6204 32.4222C80.3086 32.7342 80.1064 32.4897 79.8874 32.2621C78.6657 31.065 76.9722 30.7531 75.422 31.4106C73.9813 32.0513 73.0714 33.4929 73.0714 35.1452Z" fill="#202457"/>
<path d="M132.604 49.899C132.41 49.899 132.225 49.899 132.031 49.899C131.77 49.7473 131.711 49.5112 131.711 49.2331C131.711 44.824 131.711 40.415 131.711 36.006C131.711 35.9723 131.736 35.9385 131.761 35.8711C132.461 36.4022 132.983 36.8912 132.958 37.9365C132.882 41.629 132.924 45.3298 132.924 49.0223C132.933 49.3511 132.983 49.7051 132.604 49.899Z" fill="#01BAD1"/>
<path d="M111.01 32.7771C110.689 32.7855 110.521 32.6422 110.403 32.3977C110.293 32.1533 110.361 31.9509 110.529 31.7823C110.664 31.6559 110.833 31.5631 110.993 31.4704C114.54 29.4471 118.078 27.4155 121.634 25.4091C121.769 25.3332 122.03 24.9538 122.139 25.3753C122.224 25.7125 122.94 26.0582 122.224 26.4628C118.626 28.5114 115.037 30.5684 111.439 32.6169C111.288 32.6928 111.153 32.8024 111.01 32.7771Z" fill="#00B9D1"/>
<path d="M143.473 16.6171C146.994 14.6022 150.449 12.6211 153.911 10.64C154.274 10.4377 154.619 10.4208 154.821 10.8171C155.015 11.188 154.872 11.4915 154.493 11.7022C151.241 13.5569 147.989 15.42 144.745 17.2831C144.56 17.3842 144.425 17.4264 144.256 17.2578C144.029 17.047 143.776 16.8616 143.473 16.6171Z" fill="#00B9D1"/>
<path d="M125.914 14.9634C124.583 14.171 123.311 13.4123 122.047 12.662C120.084 11.4986 118.129 10.3268 116.166 9.16342C115.779 8.93581 115.526 8.64075 115.77 8.2108C116.023 7.77243 116.41 7.87359 116.79 8.10121C119.224 9.52592 121.668 10.9422 124.111 12.3585C124.355 12.5018 124.6 12.6367 124.844 12.78C126.015 13.4629 126.015 13.4629 125.914 14.9634Z" fill="#00B9D1"/>
<path d="M114.102 10.6894C114.296 10.6725 114.456 10.7737 114.616 10.8748C117.818 12.721 121.028 14.5757 124.238 16.4135C124.617 16.6327 124.583 16.6917 124.288 16.9952C123.833 17.4588 123.488 17.4083 122.965 17.1048C119.983 15.3513 116.983 13.6315 113.984 11.9117C113.672 11.7263 113.42 11.5239 113.521 11.1193C113.596 10.8327 113.79 10.6725 114.102 10.6894Z" fill="#00B9D1"/>
<path d="M142.226 34.9855C142.411 34.9518 142.537 35.0951 142.672 35.1794C145.899 37.0341 149.134 38.8887 152.361 40.7518C152.429 40.7855 152.496 40.8277 152.555 40.8614C152.884 41.0553 153.06 41.3335 152.858 41.7044C152.639 42.1006 152.302 42.1091 151.948 41.9068C150.634 41.148 149.32 40.3893 148.014 39.6306C146.362 38.6695 144.745 37.6495 143.051 36.7812C142.2 36.3428 142.049 35.7864 142.226 34.9855Z" fill="#00B9D1"/>
<path d="M142.234 14.7032C141.972 13.8096 142.267 13.3206 143.051 12.8822C145.848 11.3311 148.595 9.69561 151.358 8.09386C151.518 8.00113 151.678 7.8831 151.847 7.82409C152.167 7.70607 152.445 7.77351 152.622 8.08543C152.799 8.40578 152.698 8.68398 152.42 8.86944C152.091 9.08863 151.746 9.26567 151.4 9.45956C148.485 11.1372 145.561 12.8148 142.646 14.4924C142.528 14.5683 142.394 14.6273 142.234 14.7032Z" fill="#00B9D1"/>
<path d="M122.36 19.4239C122.234 19.7274 122.141 20.0646 121.956 20.3344C121.838 20.5114 121.652 20.2922 121.526 20.2164C119.479 19.053 117.431 17.8812 115.384 16.7094C114.348 16.1193 113.311 15.5207 112.267 14.9306C111.888 14.7198 111.584 14.4501 111.837 13.9948C112.081 13.5396 112.477 13.6323 112.856 13.8515C115.923 15.605 118.99 17.3669 122.057 19.1204C122.166 19.2047 122.335 19.23 122.36 19.4239Z" fill="#00B9D1"/>
<path d="M125.89 35.0195C126.184 35.9384 125.805 36.3937 125.039 36.8236C122.241 38.3748 119.478 40.0018 116.706 41.6036C116.58 41.6794 116.453 41.7637 116.31 41.8227C115.99 41.9661 115.704 41.8818 115.535 41.5783C115.375 41.2832 115.417 40.9882 115.72 40.7858C115.973 40.6172 116.234 40.4823 116.496 40.3306C119.444 38.6614 122.393 36.9838 125.334 35.3146C125.51 35.2219 125.696 35.1291 125.89 35.0195Z" fill="#00B9D1"/>
<path d="M121.307 22.7696C120.986 22.9635 120.742 23.0984 120.515 23.2585C120.338 23.385 120.194 23.3681 120.009 23.267C116.976 21.4798 113.934 19.701 110.893 17.9306C110.539 17.7283 110.421 17.4248 110.607 17.0792C110.8 16.7167 111.137 16.683 111.474 16.8853C114.718 18.8242 117.962 20.7716 121.307 22.7696Z" fill="#00B9D1"/>
<path d="M91.8766 35.1119C91.8766 33.8221 91.8682 32.5239 91.885 31.234C91.885 30.9305 91.7334 30.509 92.3147 30.5259C92.8371 30.5427 92.7191 30.9221 92.7191 31.2172C92.7275 33.6198 92.7444 36.014 92.7107 38.4166C92.7023 38.973 92.8708 39.1079 93.4016 39.0826C94.2778 39.0404 95.1624 39.0742 96.0386 39.0657C96.3082 39.0657 96.5273 39.0826 96.5105 39.4451C96.502 39.7823 96.283 39.7823 96.0471 39.7823C94.8086 39.7823 93.5785 39.7739 92.34 39.7907C91.9608 39.7992 91.8682 39.6306 91.8682 39.2765C91.885 37.8855 91.8766 36.5029 91.8766 35.1119Z" fill="#212558"/>
<path d="M69.3728 35.1291C69.3728 33.7803 69.3728 32.423 69.3728 31.0742C69.3728 30.7707 69.3559 30.5093 69.794 30.5178C70.2153 30.5262 70.2237 30.796 70.2237 31.091C70.2237 33.7971 70.2237 36.4948 70.2237 39.2009C70.2237 39.5213 70.2069 39.8079 69.7519 39.7911C69.3054 39.7742 69.3728 39.4623 69.3728 39.1841C69.3728 37.8268 69.3728 36.478 69.3728 35.1291Z" fill="#232759"/>
<path d="M59.5743 10.2345C59.5659 9.38308 60.1641 8.7761 60.9982 8.76767C61.8491 8.75924 62.4726 9.35778 62.4894 10.1924C62.5063 11.027 61.8407 11.693 61.015 11.7014C60.1893 11.7014 59.5827 11.086 59.5743 10.2345Z" fill="#202457"/>
<path d="M74.3431 25.8555C74.3431 26.707 73.7364 27.3224 72.9108 27.314C72.0767 27.3055 71.4616 26.6817 71.4532 25.864C71.4448 25.0041 72.0682 24.3887 72.936 24.3887C73.7786 24.3887 74.3515 24.9788 74.3431 25.8555Z" fill="#202457"/>
<path d="M71.1933 25.8641C71.1849 26.7071 70.5783 27.3225 69.7442 27.3141C68.8933 27.3056 68.2782 26.6649 68.3035 25.7966C68.3203 24.9704 68.9017 24.3888 69.7273 24.3888C70.612 24.3803 71.2018 24.9704 71.1933 25.8641Z" fill="#202457"/>
<path d="M64.1991 11.7007C63.3482 11.7007 62.7163 11.06 62.7247 10.2085C62.7331 9.3908 63.3566 8.77539 64.1991 8.77539C65.0332 8.77539 65.6482 9.39923 65.6482 10.2254C65.6314 11.0684 65.0163 11.7007 64.1991 11.7007Z" fill="#202457"/>
<path d="M16.5979 25.678C16.5894 26.2176 16.2019 26.5969 15.6795 26.5801C15.1487 26.5632 14.7864 26.1754 14.8033 25.6359C14.8201 25.1048 15.1993 24.7591 15.7553 24.776C16.2609 24.7928 16.6063 25.1638 16.5979 25.678Z" fill="#212558"/>
<path d="M22.242 25.6529C22.2504 26.2092 21.8965 26.5886 21.3573 26.5886C20.8097 26.5886 20.439 26.2177 20.4474 25.6781C20.4474 25.1555 20.7844 24.8014 21.3152 24.7845C21.8713 24.7592 22.2335 25.0965 22.242 25.6529Z" fill="#212557"/>
<path d="M13.7072 25.6696C13.7072 26.226 13.3533 26.5885 12.8141 26.5801C12.3002 26.5801 11.8958 26.1586 11.9126 25.6443C11.921 25.1469 12.3002 24.776 12.8057 24.7676C13.3618 24.7676 13.7072 25.1048 13.7072 25.6696Z" fill="#222658"/>
<path d="M7.33767 9.93146C7.33767 10.5216 7.03436 10.8335 6.46145 10.8335C5.92224 10.8335 5.53468 10.4541 5.5431 9.93146C5.55153 9.43408 5.98121 9.02099 6.48673 9.02942C6.99224 9.03785 7.33767 9.40035 7.33767 9.93146Z" fill="#222658"/>
</svg>
