<svg width="189" height="50" viewBox="0 0 189 50" fill="none" xmlns="http://www.w3.org/2000/svg">
<path d="M164.125 5.74946C166.723 9.18902 169.321 12.637 171.919 16.0681C177.199 8.33756 180.868 2.90845 181.054 2.54595C181.062 2.52909 181.206 2.2256 181.383 2.2256C181.45 2.2256 181.577 2.27618 181.628 2.32676L181.636 2.33519C181.67 2.38577 181.644 2.46164 181.628 2.5038C181.594 2.59653 181.223 3.32153 180.708 4.31631C183.424 4.31631 186.14 4.30788 188.856 4.30788C188.848 4.23201 188.839 4.16456 188.831 4.08869C187.169 3.40584 185.516 2.71455 183.846 2.0317C183.863 1.99798 183.888 1.95583 183.905 1.92211C184.943 1.56803 185.98 1.21396 187.018 0.851459C186.992 0.775587 186.967 0.699714 186.942 0.615412C185.744 0.438375 184.529 0.2782 183.298 0.134885C182.918 0.0843028 182.53 0.0421515 182.151 0C180.759 0.101164 179.359 0.202327 177.95 0.29506C176.187 0.413084 174.424 0.531108 172.661 0.649132C172.543 0.691284 172.425 0.725005 172.299 0.767156C169.574 2.41949 166.849 4.08026 164.125 5.74946Z" fill="black"/>
<path d="M180.585 4.54492C182.297 4.82312 184.01 5.09289 185.73 5.37109C185.646 8.56617 185.562 11.7697 185.477 14.9648C183.765 15.6139 182.053 16.2546 180.332 16.9037C179.919 16.027 179.455 15.1081 178.915 14.1555C178.417 13.2703 177.911 12.4525 177.422 11.6938C178.468 9.30804 179.531 6.92226 180.585 4.54492Z" fill="black"/>
<path d="M182.919 20.3093C182.412 20.3093 181.915 20.3093 181.409 20.3093C181.13 19.441 180.86 18.5727 180.582 17.7044C182.126 17.148 183.669 16.5916 185.221 16.0352C185.221 16.7686 185.221 17.4936 185.221 18.227C184.445 18.9267 183.686 19.618 182.919 20.3093Z" fill="black"/>
<path d="M157.379 12.84C159.479 10.5385 161.588 8.23702 163.688 5.93555C166.21 9.80505 168.741 13.683 171.263 17.5525C171.044 18.2606 170.833 18.9688 170.613 19.6769C168.943 19.3144 166.919 18.7159 164.734 17.7127C161.453 16.2036 159.015 14.3237 157.379 12.84Z" fill="black"/>
<path d="M155.98 13.7167C156.301 13.5396 156.622 13.3626 156.942 13.1855C158.384 14.7199 160.628 16.7347 163.774 18.4713C166.389 19.9129 168.827 20.6885 170.683 21.1353C170.666 26.1851 170.649 31.2348 170.632 36.2845C165.74 28.7563 160.856 21.2449 155.98 13.7167Z" fill="black"/>
<path d="M154.006 14.314C154.512 14.2212 155.01 14.1201 155.516 14.0273C160.543 22.3312 165.562 30.6266 170.581 38.9304C170.615 42.6145 170.657 46.3069 170.691 49.9994C169.729 49.9657 168.776 49.9235 167.814 49.8898C166.608 44.6377 165.41 39.4025 164.204 34.1505C163.757 34.3781 163.276 34.5973 162.77 34.8164C162.112 35.0946 161.48 35.3307 160.881 35.533C158.561 35.5246 156.241 35.5077 153.922 35.4993C153.947 28.4347 153.972 21.3786 154.006 14.314Z" fill="black"/>
<path d="M171.754 24.6919C171.737 26.8079 171.72 28.9323 171.703 31.0483C173.955 30.062 176.216 29.0757 178.468 28.0893C179.227 27.339 179.986 26.5887 180.737 25.8384C180.737 25.9649 180.737 26.0829 180.737 26.2094C180.096 27.3306 179.463 28.4602 178.822 29.5815C178.814 31.394 178.805 33.2065 178.797 35.0274C177.599 35.0274 176.401 35.019 175.204 35.019C174.849 35.3646 174.504 35.7103 174.149 36.0559C174.149 37.3626 174.158 38.6609 174.158 39.9676C174.445 39.9676 174.731 39.9676 175.018 39.9676C176.739 38.6862 178.46 37.4132 180.189 36.1318C180.906 32.0853 181.623 28.0303 182.348 23.9922C178.814 24.2198 175.288 24.4559 171.754 24.6919Z" fill="black"/>
<path d="M24.6976 33.3763C23.8035 32.8536 23.7529 31.9853 23.2384 31.4541C22.7154 30.923 16.7603 17.4261 16.3301 16.6927C15.8999 15.9593 16.0602 14.602 16.0265 14.172C15.9927 13.7421 16.4735 13.3965 16.4735 13.3965V12.7305L7.12756 12.7389C7.12756 12.7389 7.14443 13.2953 7.12756 13.2363C8.25784 14.2479 7.72644 16.0267 7.72644 16.0267L5.09473 22.7035C5.09473 22.7035 2.90163 27.7785 2.33649 29.5405C1.77978 31.294 0.0168697 33.41 0.0168697 33.41L0 33.8315L4.68141 33.7725L4.63924 33.292C4.63924 33.292 4.47054 33.0896 4.08253 32.685C4.01505 32.2803 4.06566 31.8841 4.04035 31.5637C4.09096 31.3446 5.82013 27.1631 5.82013 27.1631C5.82013 27.1631 14.7528 27.2053 16.4482 27.18C17.6966 30.3835 18.034 31.4541 18.034 31.4541C18.034 31.4541 18.3292 32.5248 17.5785 33.3847C17.5869 33.705 17.5785 33.7978 17.5785 33.8231H24.6892C24.6976 33.8146 24.6976 33.587 24.6976 33.3763ZM6.23345 25.8396C7.74331 22.0038 9.25317 18.1596 10.7715 14.3322C12.4247 18.1427 14.078 21.9616 15.7397 25.7721C12.5681 25.7974 9.39656 25.8227 6.23345 25.8396Z" fill="black"/>
<path d="M113.475 33.3763C112.581 32.8536 112.53 31.9853 112.016 31.4541C111.493 30.923 105.538 17.4261 105.107 16.6927C104.677 15.9593 104.838 14.602 104.804 14.172C104.77 13.7421 105.251 13.3965 105.251 13.3965V12.7305L95.9049 12.7389C95.9049 12.7389 95.9218 13.2953 95.9049 13.2363C97.0352 14.2479 96.5038 16.0267 96.5038 16.0267L93.8721 22.7035C93.8721 22.7035 91.679 27.7785 91.1138 29.5405C90.5571 31.294 88.7942 33.41 88.7942 33.41L88.7773 33.8315L93.4588 33.7725L93.4166 33.292C93.4166 33.292 93.2479 33.0896 92.8599 32.685C92.7924 32.2803 92.843 31.8841 92.8177 31.5637C92.8683 31.3446 94.5975 27.1631 94.5975 27.1631C94.5975 27.1631 103.53 27.2053 105.226 27.18C106.474 30.3835 106.811 31.4541 106.811 31.4541C106.811 31.4541 107.107 32.5248 106.356 33.3847C106.364 33.705 106.356 33.7978 106.356 33.8231H113.467C113.475 33.8146 113.475 33.587 113.475 33.3763ZM95.0024 25.8396C96.5122 22.0038 98.0221 18.1596 99.5404 14.3322C101.194 18.1427 102.847 21.9616 104.509 25.7721C101.337 25.7974 98.1739 25.8227 95.0024 25.8396Z" fill="black"/>
<path d="M49.3276 17.611L50.0193 17.6194L50.0024 14.0702C50.0024 14.0702 42.4784 9.59375 35.4942 14.0028C31.3695 17.7037 35.005 22.6607 35.14 22.7028C37.1559 24.8779 40.6311 25.2319 43.1532 25.9401C47.0839 26.2014 49.9687 29.5735 46.4934 32.0436C37.8392 35.1544 34.035 26.9517 34.035 26.9517H33.3518C33.3518 26.9517 33.3349 31.6895 33.3686 32.4567C33.7651 33.4177 45.6499 36.4611 49.2686 32.2206C50.7447 31.698 52.263 26.4796 50.0277 23.8156C46.2235 19.5246 36.0847 21.4467 36.9113 16.1441C37.1222 15.5034 37.7548 14.8205 38.379 14.4665C44.41 11.4653 49.336 17.6194 49.3276 17.611Z" fill="black"/>
<path d="M78.7502 17.611L79.4419 17.6194L79.425 14.0702C79.425 14.0702 71.901 9.59375 64.9169 14.0028C60.7922 17.7037 64.4276 22.6607 64.5626 22.7028C66.5785 24.8779 70.0538 25.2319 72.5758 25.9401C76.5065 26.2014 79.3913 29.5735 75.9161 32.0436C67.2618 35.1544 63.4576 26.9517 63.4576 26.9517H62.7659C62.7659 26.9517 62.7491 31.6895 62.7828 32.4567C63.1793 33.4177 75.0641 36.4611 78.6827 32.2206C80.1589 31.698 81.6772 26.4796 79.4419 23.8156C75.6377 19.5246 65.4989 21.4467 66.3255 16.1441C66.5364 15.5034 67.169 14.8205 67.7932 14.4665C73.8411 11.4653 78.7586 17.6194 78.7502 17.611Z" fill="black"/>
<path d="M122.637 12.7385H141.961V15.8409C141.961 15.8409 141.987 15.8493 141.303 15.8493C140.856 15.2845 139.76 14.5426 139.49 14.5173C138.916 14.5004 128.212 14.5257 128.212 14.5257L128.389 23.5883H133.838L135.357 22.5514H135.719V26.2017H135.298L134.1 25.2996H128.238V31.4791L129.309 33.3759V33.8227H122.645C122.645 33.8227 122.645 33.7046 122.645 33.3674C123.033 33.3674 123.733 31.909 123.742 30.8636C123.742 29.8267 123.742 21.5313 123.733 16.1528C123.21 13.5815 122.831 13.4129 122.645 13.3961C122.645 12.9493 122.645 12.7301 122.637 12.7385Z" fill="black"/>
</svg>
