<svg width="51" height="50" viewBox="0 0 51 50" fill="none" xmlns="http://www.w3.org/2000/svg">
<path d="M25.0011 49.2236C38.3806 49.2236 49.2269 38.3798 49.2269 25.0034C49.2269 11.627 38.3806 0.783203 25.0011 0.783203C11.6216 0.783203 0.775391 11.627 0.775391 25.0034C0.775391 38.3798 11.6216 49.2236 25.0011 49.2236Z" fill="white"/>
<path d="M25.0014 42.8501C34.8602 42.8501 42.8524 34.8597 42.8524 25.0032C42.8524 15.1466 34.8602 7.15625 25.0014 7.15625C15.1426 7.15625 7.15039 15.1466 7.15039 25.0032C7.15039 34.8597 15.1426 42.8501 25.0014 42.8501Z" fill="#F9F2E7"/>
<path d="M31.5365 37.9356C31.5365 37.9356 31.1064 37.9861 30.7438 38.18C30.7438 38.18 30.8787 37.9693 31.1739 37.8681C30.221 37.455 29.4453 36.3085 29.4284 36.2917C29.1839 35.9629 29.0658 35.828 28.8213 35.5161C28.9225 35.4318 29.0489 35.3222 29.0489 35.3222C29.0489 35.3222 29.2092 35.3896 29.3778 35.3896C29.7741 35.3559 30.0692 35.0271 30.0355 34.6478C30.0018 34.2684 29.6561 34.0071 29.2598 34.0239C29.0489 34.0408 28.8803 34.1757 28.8803 34.1757C28.7201 34.2937 28.3575 34.6393 28.1889 34.7995C27.4974 33.9649 26.7891 33.1893 26.0892 32.4643C29.6055 29.3114 34.6226 26.1079 40.7191 25.8718C34.884 25.0035 29.5802 26.9931 24.8244 31.2588C20.0939 26.9846 14.7648 25.0119 8.92969 25.8718C15.0262 26.0657 20.0602 29.303 23.5596 32.4643C22.8344 33.1893 22.143 33.9565 21.46 34.7995C21.2829 34.6225 20.9372 34.2768 20.7685 34.1757C20.7685 34.1757 20.6083 34.0408 20.3891 34.0239C19.9928 34.0071 19.647 34.2684 19.6133 34.6478C19.5796 35.0271 19.8747 35.3559 20.271 35.3896C20.4481 35.4065 20.5999 35.3222 20.5999 35.3222C20.5999 35.3222 20.7517 35.4571 20.8275 35.5161C20.583 35.828 20.465 35.9629 20.2204 36.2917C20.2036 36.3085 19.4278 37.455 18.475 37.8681C18.7701 37.9693 18.905 38.18 18.905 38.18C18.5424 37.9693 18.1124 37.9356 18.1124 37.9356C17.2438 37.8007 16.1898 38.2981 16.4006 39.4446C16.5777 40.549 18.6352 41.4173 20.2289 39.2001C20.8697 38.2812 21.5274 37.3286 21.5274 37.3286C21.7214 37.0672 21.8225 36.9492 22.1008 36.6204C22.2779 36.7975 22.5646 37.0335 22.6911 37.1263C22.6911 37.1263 22.8681 37.2611 23.0705 37.2611C23.4668 37.278 23.7957 36.9829 23.8125 36.6204C23.8294 36.2579 23.5174 35.9292 23.1211 35.9123C22.944 35.8954 22.7922 35.9797 22.7922 35.9797C22.7922 35.9797 22.7585 35.946 22.7079 35.9123C23.2813 35.2379 23.9896 34.4792 24.7822 33.6783C25.5917 34.4707 26.2748 35.2379 26.8566 35.9123C26.806 35.946 26.7723 35.9797 26.7723 35.9797C26.7723 35.9797 26.612 35.8954 26.4434 35.9123C26.0471 35.9292 25.7351 36.2411 25.752 36.6204C25.7688 36.9998 26.0977 37.278 26.494 37.2611C26.7048 37.2611 26.8734 37.1263 26.8734 37.1263C27.0252 37.0251 27.2866 36.7975 27.4637 36.6204C27.7251 36.9492 27.8431 37.0672 28.0371 37.3286C28.0371 37.3286 28.6779 38.2812 29.3356 39.2001C30.9293 41.4341 32.9699 40.5658 33.1807 39.4446C33.459 38.2981 32.4134 37.8007 31.5365 37.9356Z" fill="#C29A5B"/>
<path d="M22.9102 27.7361C23.4667 27.9637 23.981 28.3262 24.3689 28.6382C25.1784 29.1187 26.0469 27.9469 27.0166 27.6181C25.9458 27.5001 25.7012 27.93 25.0098 27.9637C24.3689 27.9806 24.1919 27.635 22.9102 27.7361Z" fill="#C29A5B"/>
<path d="M21.418 25.6453C20.5326 25.7296 19.6725 25.8561 18.7871 25.9404C18.8546 26.4799 20.482 25.7633 21.3168 27.0279C22.0251 26.6316 24.1416 26.3197 24.209 26.8508C23.4164 26.834 22.6828 26.7834 22.1178 27.1122C22.6069 27.1122 22.725 27.5758 22.9526 27.4072C23.5092 26.9941 23.7453 27.5421 24.5294 27.5674C24.7234 27.5674 24.9764 27.3904 25.1197 27.3904C25.4654 27.4072 25.6762 27.6348 26.0557 27.4747C26.6291 27.1965 27.2868 27.1627 28.2396 27.2976C28.0878 27.1037 27.7168 26.8677 27.2362 26.7412C27.2531 26.5473 28.071 26.5473 28.5516 26.6738C29.437 26.8508 28.6528 26.1343 30.3139 25.8561C30.1031 25.1648 28.8046 25.679 28.3239 25.6116C26.8146 25.3671 27.0591 25.9909 25.9714 25.4936L25.4907 15.4868C25.4907 15.4868 25.575 15.04 25.7353 15.5037C25.8955 15.9673 26.2918 16.8862 26.5869 17.1982C26.882 17.5101 26.9158 17.4426 26.9158 17.4426C26.9158 17.4426 27.0675 17.1476 27.1097 16.8357C27.1097 16.8357 27.3036 17.0801 27.5566 17.2825C27.5566 17.2825 27.7084 16.9031 27.6747 16.4141C27.6241 15.9252 27.5229 15.6217 27.5229 15.6217C27.5229 15.6217 27.8517 15.883 28.0794 16.3804C28.3071 16.8694 28.3745 17.1223 28.3745 17.1223C28.3745 17.1223 29.0491 16.5153 28.8046 15.2508C28.56 13.9862 27.7674 13.6912 27.7674 13.6912C27.7674 13.6912 28.3408 13.531 28.8973 14.4162C29.4539 15.3013 29.6562 15.5627 29.6562 15.5627C29.6562 15.5627 30.1453 14.6944 29.808 13.9862C29.4623 13.2781 28.7371 12.9493 28.7371 12.9493C28.7371 12.9493 29.0997 12.7891 29.8586 13.2781C30.6175 13.767 30.6765 13.9019 30.6765 13.9019C30.6765 13.9019 30.9211 12.5868 30.3814 12.1568C29.8417 11.6932 28.4251 11.651 28.1975 11.2211C28.1975 11.2211 30.0863 11.3981 30.5163 11.7943C30.5163 11.7943 30.0525 10.69 28.8552 10.2685C27.6747 9.85538 27.0338 10.0071 27.0338 10.0071C27.0507 9.99026 27.2446 9.67834 28.3492 9.92282C29.437 10.1673 30.3224 10.1167 30.3224 10.1167C30.3224 10.1167 28.9732 8.9702 27.5313 9.06293C26.081 9.1641 25.5413 9.87224 25.5413 9.87224C25.5413 9.87224 25.1281 9.71206 25.3642 9.3327C25.5919 8.95334 25.5919 8.55712 25.2462 8.01758C25.2462 8.01758 24.3439 8.55712 24.1247 9.1641C23.9139 9.77108 24.4704 10.0493 24.0235 10.5972C24.0235 10.5972 23.8464 10.4033 23.6609 9.87224C23.4839 9.34956 22.59 8.692 20.2712 9.47602C20.2712 9.47602 20.9289 9.42543 21.418 9.90596C21.907 10.3696 21.8649 10.5298 21.8649 10.5298C21.8649 10.5298 21.2409 10.1842 20.5832 10.4118C19.9255 10.6394 19.8243 10.9682 19.8243 10.9682C19.8243 10.9682 20.6 10.867 20.9458 11.0188C21.3083 11.1705 21.3083 11.3813 21.3083 11.3813C21.3083 11.3813 20.4989 11.0356 19.6978 11.5752C18.8883 12.1316 18.922 12.924 18.922 12.924C18.922 12.924 19.4027 12.9914 19.9255 12.747C20.4651 12.5362 20.6844 12.3339 21.0301 12.4688C21.0301 12.4688 20.4736 12.6289 20.0941 12.9493C19.7315 13.2612 19.7147 13.6237 19.7147 13.6237C19.7147 13.6237 20.0772 13.5394 20.5073 13.2949C20.9373 13.0505 21.2999 12.806 21.6541 13.0673C21.6541 13.0673 21.0807 13.1853 20.4736 13.9019C19.3099 15.3182 20.2122 16.7598 20.2122 16.7598C20.2122 16.7598 20.9036 16.0854 21.1987 15.529C21.4939 14.9894 21.6625 14.7702 21.6625 14.7702C21.6625 14.7702 21.6119 15.3604 21.7637 15.7397C21.7637 15.7397 21.9408 15.5627 22.1263 15.2339C22.3033 14.9051 22.5226 14.7871 22.6153 14.7449C22.6153 14.7449 22.3539 15.158 22.3202 16.3551C22.3033 17.5522 22.5816 17.7377 22.5816 17.7377C22.5816 17.7377 23.155 17.0801 23.6019 16.2287C23.9476 15.588 24.1584 14.9979 24.1584 14.9979L23.8296 25.561C23.2225 26.0078 22.0925 25.5779 21.418 25.6453Z" fill="#C29A5B"/>
<path d="M25.0015 49.2076C11.6533 49.2076 0.775763 38.3325 0.775763 24.9874C0.775763 11.6422 11.6702 0.784016 25.0015 0.784016C38.3328 0.784016 49.2273 11.6591 49.2273 25.0042C49.2273 38.3494 38.3581 49.2076 25.0015 49.2076ZM25.0015 0C11.2401 0 0 11.2376 0 25.0042C0 38.7709 11.2401 50 25.0015 50C38.7713 50 50.0115 38.7624 50.0115 24.9958C50.0283 11.2376 38.7882 0 25.0015 0Z" fill="#00853E"/>
<path d="M7.3103 25.1556C7.3103 15.4102 15.2619 7.46041 25.0095 7.46041C34.7572 7.46041 42.7087 15.4102 42.7087 25.1556C42.7087 34.901 34.7572 42.8507 25.0095 42.8507C15.2534 42.8339 7.3103 34.8757 7.3103 25.1556ZM43.5014 25.1556C43.5014 14.9718 35.2041 6.66797 25.0095 6.66797C14.815 6.66797 6.54297 14.9634 6.54297 25.1556C6.54297 35.3478 14.8403 43.6347 25.0095 43.6347C35.1788 43.6347 43.5014 35.3225 43.5014 25.1556Z" fill="#00853E"/>
<path d="M17.2278 6.71991C17.2615 6.56817 17.2784 6.44171 17.2615 6.28997C17.2447 6.09607 17.1772 5.86002 17.0845 5.63241C16.9242 5.28676 16.705 4.85682 16.4099 4.351L16.2328 4.05594L16.1147 3.87891L16.0473 4.35943C16.0304 4.55333 16.0136 4.68821 16.0304 4.70507L17.2278 6.71991Z" fill="#00853E"/>
<path d="M17.1426 7.24138C17.1594 7.30882 17.3534 7.34254 17.7497 7.3594C18.146 7.37626 18.3905 7.37626 18.5255 7.32568C18.7531 7.24138 18.9386 7.01376 19.0145 6.61754C19.082 6.3562 19.0989 6.078 19.082 5.80823C19.0651 5.65648 19.0314 5.54689 19.0145 5.44573C18.9133 5.18439 18.77 4.95677 18.5255 4.7713C18.3484 4.63642 18.1966 4.57741 18.0364 4.56055L18.0195 5.18439C18.1797 5.23497 18.2978 5.30241 18.4327 5.36142C18.6266 5.47945 18.7616 5.55532 18.7784 5.62276C18.8459 5.7998 18.7447 6.06957 18.517 6.4405C18.399 6.61754 18.3062 6.78614 18.1882 6.90416C18.087 7.02219 17.9942 7.0812 17.893 7.09806C17.8256 7.11492 17.716 7.13178 17.5811 7.14864H17.4799H17.3618H17.1679C17.1594 7.1908 17.1426 7.20766 17.1426 7.24138Z" fill="#00853E"/>
<path d="M13.7533 5.90902C13.7533 5.89216 13.7701 5.84157 13.8039 5.74884L13.8545 5.5971H14.099C14.2592 5.5971 14.3267 5.5971 14.3435 5.58023L14.3941 5.4032L14.4278 5.24302L14.4447 5.125L13.9388 5.14186C13.9219 5.15872 13.9219 5.17558 13.905 5.2093C13.8882 5.24302 13.8882 5.27674 13.8713 5.32733C13.8376 5.42849 13.8207 5.47907 13.8039 5.47907C13.787 5.49593 13.7027 5.49593 13.5931 5.49593C13.4581 5.49593 13.3991 5.47907 13.3654 5.46221L13.3148 5.61396C13.2979 5.66454 13.2811 5.71512 13.2642 5.77413L13.2305 5.93431C13.2979 5.95117 13.3822 5.95117 13.4581 5.95117C13.6268 5.92588 13.7111 5.92588 13.7533 5.90902Z" fill="#00853E"/>
<path d="M10.6837 8.07565L12.3954 9.7027C12.3785 9.55095 12.3617 9.4245 12.2942 9.28961C12.2099 9.11257 12.1171 8.91025 11.9316 8.71635C11.6871 8.43815 11.3582 8.09251 10.945 7.67943L10.6837 7.43495L10.5234 7.2832L10.5909 7.76373C10.6331 7.9492 10.6668 8.05036 10.6837 8.07565Z" fill="#00853E"/>
<path d="M13.2976 7.89894C13.382 8.05069 13.5084 8.12656 13.6939 8.16028C13.812 8.17714 13.8879 8.17714 13.9553 8.16028L14.0228 8.14342C14.0397 8.14342 14.0734 8.12656 14.0903 8.12656L14.2252 8.05912L16.1646 6.98847C16.1814 6.93789 16.1646 6.81144 16.114 6.55853L16.0803 6.36463C16.0803 6.33091 16.0803 6.29719 16.0634 6.29719L16.0297 6.24661L15.9959 6.14544C15.9791 6.11172 15.9622 6.06114 15.9453 6.02742L15.9285 5.97684L15.8947 5.92626L15.861 5.85881C15.8273 5.80823 15.7936 5.75765 15.743 5.70707C15.6924 5.65649 15.6249 5.60591 15.5659 5.55532L15.431 5.45416L15.2961 5.38672L15.2792 5.9937L15.431 6.06114C15.5153 6.09486 15.5659 6.12858 15.6081 6.16231C15.6586 6.19603 15.6924 6.22975 15.7261 6.26347L15.7767 6.31405C15.7767 6.31405 15.7936 6.33091 15.8104 6.36463C15.8273 6.39835 15.8442 6.44893 15.8273 6.48265L14.1324 7.41842C13.9385 7.53644 13.7024 7.57016 13.5253 7.48586L13.4578 7.45214L13.3735 7.41842L13.3229 7.35097L13.2723 7.26667C13.2386 7.19923 13.188 7.08964 13.1206 6.92103L13.0868 6.83673L13.0531 6.76929L13.0194 6.7187C12.9519 6.75242 12.9519 6.89574 13.0362 7.19923C13.1121 7.51958 13.1964 7.73877 13.2976 7.89894Z" fill="#00853E"/>
<path d="M21.6787 4.26613C21.7293 4.19869 21.7968 4.16497 21.8558 4.13125C21.9064 4.11439 21.9401 4.09753 21.9739 4.08067L22.1088 4.04695C22.2268 4.03009 22.3027 4.08067 22.3702 4.20712C22.4208 4.27457 22.4376 4.32515 22.4376 4.34201L22.4714 4.42631L22.4882 4.54433L22.4376 4.56119H22.387H22.3196L22.2521 4.54433L22.1847 4.52747L21.957 4.44317L21.8558 4.40945L21.7209 4.35887L21.586 4.30829L21.6787 4.26613ZM20.5235 5.42108L20.9704 5.33678C21.1222 5.30306 21.1812 5.23562 21.215 5.10916C21.2318 5.02486 21.2656 4.95742 21.3162 4.93213L22.2015 5.22719C22.3533 5.27777 22.4461 5.32835 22.5304 5.34521C22.6147 5.37893 22.6822 5.37893 22.6906 5.37893C22.7243 5.37893 22.7581 5.31149 22.7581 5.2019C22.7749 5.08387 22.8087 5.02486 22.8593 5.02486L23.2218 4.95742L24.2927 4.94056C24.3433 4.87311 24.377 4.80567 24.4108 4.76352L24.4614 4.67922L24.512 4.56119C24.5794 4.71294 24.63 4.78881 24.6722 4.83939C24.7565 4.90684 24.8493 4.9237 24.9336 4.9237H25.3299V4.88998L26.2996 4.90684L26.5104 4.51061C26.5441 4.6455 26.6116 4.73823 26.6875 4.80567C26.7718 4.87311 26.8646 4.9237 26.9489 4.9237H27.1934V4.94056L27.8511 5.05858H27.9354L28.0029 5.04172C28.0704 5.008 28.121 4.97428 28.1631 4.94056L28.1968 4.90684L28.2137 4.94056L28.2643 5.07544C28.2812 5.10916 28.3318 5.14288 28.3992 5.15974C28.4667 5.19347 28.5763 5.21033 28.7281 5.24405L28.8124 5.26091L28.9642 5.29463L29.1244 5.31149H29.3521L29.4532 5.22719L29.487 5.19347H29.5038C29.5207 5.21033 29.5376 5.24405 29.5544 5.27777L29.5713 5.32835L29.5882 5.36207L30.3976 5.51382L30.4482 5.41265L30.5326 5.29463L30.6337 5.15974L30.6843 5.07544C30.7181 4.97428 30.7518 4.88155 30.7855 4.74666L30.9204 4.05538L30.7687 4.1734C30.7181 4.22398 30.6506 4.2577 30.5916 4.32515C30.4567 4.44317 30.4145 4.50218 30.4145 4.50218V4.60335V4.73823V4.80567L30.4314 4.90684L29.9254 4.78881C29.9254 4.77195 29.9254 4.75509 29.9254 4.72137C29.9423 4.67079 29.9592 4.60335 29.9929 4.54433L30.0604 4.38416L30.2206 4.03852L29.9423 4.21555C29.8074 4.33358 29.7484 4.37573 29.7315 4.39259C29.7146 4.42631 29.6809 4.44317 29.664 4.47689C29.6472 4.51061 29.6303 4.56119 29.6135 4.63707L29.546 4.77195L29.3689 4.78881L29.1918 4.75509L29.1075 4.73823L28.8461 4.67079L28.6943 4.62021C28.5932 4.56963 28.5594 4.5359 28.5594 4.50218L28.6269 4.38416C28.6437 4.35044 28.6775 4.31672 28.6943 4.283L28.7618 4.16497C28.863 3.98794 28.9136 3.85305 28.922 3.76875C28.7871 3.86991 28.6943 3.94578 28.5932 3.99637C28.4582 4.08067 28.4161 4.14811 28.3992 4.1734C28.3823 4.2577 28.3655 4.32515 28.3486 4.35044C28.2812 4.43474 28.2306 4.48532 28.1715 4.46846L27.3199 4.31672L27.2693 4.61178V4.283H27.2018C27.1007 4.283 27.0248 4.24927 26.9573 4.16497C26.8898 4.09753 26.8561 4.03009 26.8561 3.97107V3.93735L26.873 3.81933L26.8898 3.76875V3.71817L26.9067 3.55799L26.9236 3.34723V3.26293L26.5441 3.69288L26.5273 4.02166V4.10596L26.5104 4.19026L26.4767 4.27456L26.4598 4.29143L25.2287 4.27456V4.30829H25.0938C25.0095 4.30829 24.942 4.27456 24.8998 4.22398C24.8493 4.15654 24.8155 4.10596 24.8155 4.06381V4.0048L24.8324 3.84462L24.8493 3.70974L24.8661 3.65915V3.57485V3.47369L24.8493 3.35566V3.28822L24.4698 3.76875L24.4529 4.04695L24.4361 4.18183L24.4192 4.26613L23.205 4.283V4.43474L23.1712 4.283L23.011 4.31672C22.9436 4.33358 22.834 4.26613 22.7328 4.12282C22.6147 4.0048 22.5557 3.91206 22.4882 3.79404L22.4545 3.7266L22.4376 3.65915L22.4208 3.54113C22.4039 3.49055 22.4039 3.45683 22.3702 3.43997C22.3365 3.42311 22.2859 3.42311 22.2184 3.43997C22.1004 3.45683 21.9739 3.55799 21.7715 3.70131C21.5944 3.86148 21.4595 3.99637 21.392 4.13125C21.3752 4.16497 21.3246 4.29143 21.2571 4.49375C21.2234 4.57806 21.1728 4.62864 21.1053 4.6455L20.3127 4.79724L20.1356 4.84782L20.0345 4.86468C19.9839 4.86468 19.967 4.86468 19.9501 4.84782L19.8995 4.79724C19.8995 4.79724 19.8827 4.78038 19.8827 4.76352C19.8658 4.74666 19.8152 4.6455 19.7646 4.50218L19.4864 3.79404C19.2756 3.23764 19.1238 2.84142 19.0395 2.58008L18.7949 3.11962L19.714 5.5644L20.5235 5.42108Z" fill="#00853E"/>
<path d="M44.3619 16.3963L44.8088 16.6745C44.9269 16.7588 44.9859 16.8515 45.0365 16.9695L45.0534 17.0201L45.0702 17.0707L45.0871 17.155C45.0871 17.2224 45.0871 17.3067 45.0702 17.3826C45.0365 17.5596 44.9859 17.6608 44.9185 17.6777C44.8679 17.6777 44.8341 17.6777 44.8341 17.6777C44.7667 17.6439 44.6992 17.5765 44.6571 17.5006L44.0499 16.1855L44.3619 16.3963ZM40.0193 11.1695C39.9856 11.2032 39.9688 11.2369 39.9688 11.2706C39.9688 11.3044 39.9856 11.3381 40.0025 11.3718L40.8541 12.3413C40.8879 12.375 40.9553 12.375 41.0649 12.3244C41.2167 12.2907 41.2926 12.2738 41.3263 12.2907L41.3601 12.3076L41.3432 12.3413L41.3095 12.4087C41.3095 12.4425 41.2926 12.4593 41.2757 12.4593L41.2589 12.493L41.2252 12.5436L41.1746 12.6111C41.124 12.6954 41.124 12.7459 41.1408 12.7459L41.3516 12.9904L41.9082 13.825L42.3551 13.7913L42.2539 13.9093L42.2033 13.9936C42.1527 14.1285 42.1696 14.2381 42.2539 14.3561L42.431 14.6343L42.5659 14.55L42.8104 15.0896L43.2236 15.1401L43.0128 15.3172C42.979 15.3678 42.9622 15.4015 42.9622 15.4183L44.1933 18.0149C44.2439 18.0823 44.3113 18.116 44.3704 18.1329C44.4378 18.1498 44.5643 18.1666 44.7498 18.1666L45.0787 18.1498L45.3401 18.1329C45.475 18.0655 45.5509 17.9221 45.6352 17.6439C45.7195 17.3826 45.7195 17.1634 45.6521 17.0538C45.6015 16.9358 45.4244 16.8093 45.0955 16.607L44.3366 16.1602L43.9909 15.9494C43.9066 15.8989 43.8307 15.8314 43.8138 15.7893C43.7801 15.7556 43.7632 15.7387 43.7464 15.7218L43.7127 15.6375L43.6621 15.5532C43.6452 15.5026 43.6452 15.4521 43.6452 15.4015C43.6789 15.3509 43.7127 15.3003 43.7632 15.2835L44.421 14.921L44.0584 14.8198C43.8982 14.7692 43.797 14.7523 43.7632 14.7692L43.4175 15.0137L43.0381 14.2044L42.8863 14.2718L42.8188 14.1538C42.7682 14.0864 42.7514 14.0189 42.7682 13.943C42.7851 13.8756 42.8188 13.825 42.8694 13.7913L42.9032 13.7744L43.0549 13.707L43.173 13.6396L43.2236 13.6227L43.291 13.5721L43.3754 13.5215L43.4765 13.4541L43.5271 13.4204C43.4934 13.4204 43.3922 13.4035 43.2152 13.3866L43.0043 13.3698H42.92L42.6755 13.5215L42.5574 13.589L42.4731 13.6227L41.8491 12.6701L41.8323 12.6869L41.866 12.6532L41.7817 12.552C41.7479 12.5015 41.7648 12.4172 41.866 12.2907L42.0768 11.9956L42.5237 11.3718L42.6839 11.161L42.0599 11.3381L41.7142 11.8608C41.6468 11.9788 41.5624 12.0547 41.5034 12.1221L41.4697 12.1558L41.436 12.1727L40.6012 11.2369C40.5506 11.1863 40.5506 11.1358 40.5506 11.0852C40.5674 11.0346 40.618 10.984 40.6855 10.9334C40.6855 10.9334 40.7024 10.9166 40.7192 10.8997L40.7698 10.866L40.8035 10.8491L40.8373 10.8154L40.9047 10.7648L40.9722 10.6805L40.989 10.6468C40.9722 10.6299 40.9216 10.6299 40.8288 10.6805L40.7614 10.7142L40.6939 10.748C40.6096 10.7817 40.4831 10.866 40.2976 10.9587L40.0193 11.1695Z" fill="#00853E"/>
<path d="M34.6478 6.98014C34.7996 6.82839 34.9261 6.65136 35.0441 6.42374C35.2212 6.09496 35.4067 5.64815 35.6175 5.10861L35.7525 4.77983L35.8368 4.58594L35.4236 4.81355C35.2465 4.93158 35.1622 4.99059 35.1453 5.00745L34.3105 7.20776C34.4117 7.15717 34.5466 7.0813 34.6478 6.98014Z" fill="#00853E"/>
<path d="M43.983 12.8651C44.1432 12.9325 44.2276 12.9494 44.2444 12.9325C44.2444 12.8988 44.2613 12.8651 44.2613 12.8145C44.2782 12.7639 44.2782 12.6965 44.295 12.6374L44.3288 12.3592C44.3119 12.3255 44.2107 12.3087 44.0505 12.2581C43.8734 12.2075 43.7891 12.1906 43.7722 12.2075C43.7554 12.2244 43.7385 12.3087 43.7216 12.4688C43.7048 12.6459 43.7048 12.7302 43.7216 12.747C43.7469 12.7639 43.8312 12.8145 43.983 12.8651Z" fill="#00853E"/>
<path d="M38.1979 8.42172L38.1304 8.37114L38.063 8.32055L37.9955 8.25311L37.9618 8.18567L37.9449 8.11823L37.928 8.01706C37.928 7.98334 37.9112 7.96648 37.9112 7.93276C37.9955 7.88218 38.063 7.86532 38.0883 7.84846C38.1726 7.8316 38.24 7.8316 38.2653 7.86532C38.2991 7.88218 38.3159 7.96648 38.3328 8.05922C38.3496 8.12666 38.3496 8.17724 38.3328 8.23625C38.3328 8.28683 38.3328 8.35428 38.3159 8.39643H38.2653L38.2316 8.37957L38.1979 8.42172ZM35.6007 8.76736C35.6682 8.97812 35.8116 9.1973 36.0814 9.37434C36.0982 9.3912 36.1151 9.40806 36.1488 9.42492C36.1826 9.44178 36.2163 9.4755 36.2838 9.49236L36.4187 9.55981L36.5705 9.62725C36.7475 9.69469 36.933 9.74527 37.1438 9.78742C37.4727 9.85487 37.7004 9.87173 37.8016 9.838C37.8859 9.80428 37.9786 9.73684 38.0798 9.66097L38.2316 9.54294L38.4087 9.38277L38.4255 9.36591L38.4761 9.29847L38.611 9.08771L38.6954 8.92753L38.7628 8.76736C38.8809 8.45544 38.923 8.1941 38.923 7.99177C38.923 7.87375 38.9062 7.81474 38.8724 7.76416C38.8387 7.69671 38.805 7.64613 38.7544 7.61241C38.5942 7.49439 38.3581 7.52811 38.0292 7.69671C37.7341 7.85689 37.5233 7.99177 37.439 8.12666C37.3715 8.22782 37.3546 8.32055 37.4052 8.4723C37.4558 8.60718 37.5402 8.69992 37.6329 8.78422C37.7931 8.90224 37.928 8.94439 38.0798 8.93596C38.1304 8.93596 38.181 8.9191 38.2569 8.88538C38.2569 8.9191 38.2569 8.93596 38.2569 8.95282L38.24 9.02027C38.24 9.07085 38.2232 9.12143 38.1894 9.15515L38.1557 9.25632L38.122 9.3069L38.0377 9.46707C37.8606 9.50079 37.6076 9.46707 37.3294 9.36591C37.0511 9.26475 36.7728 9.15515 36.5367 8.96969C36.3849 8.85166 36.2753 8.74207 36.191 8.57346C36.0898 8.37957 36.1067 8.16038 36.2585 7.98334C36.2922 7.93276 36.3428 7.88218 36.4102 7.8316L36.621 7.65456L36.815 7.49439C36.8656 7.46066 36.8993 7.42694 36.9162 7.41008C36.933 7.37636 36.933 7.3595 36.9162 7.34264C36.8487 7.29206 36.7054 7.37636 36.4102 7.5534C36.2585 7.65456 36.1488 7.73043 36.0308 7.8316C35.9127 7.94962 35.8537 8.02549 35.7694 8.12666C35.6007 8.37957 35.5502 8.57346 35.6007 8.76736Z" fill="#00853E"/>
<path d="M32.5728 5.56352L32.7246 5.49608L32.9186 5.37806L32.9354 5.47922L32.9523 5.59724L32.9692 5.73213V5.79957C32.8848 5.78271 32.8174 5.76585 32.7584 5.73213L32.7246 5.71527L32.5475 5.63097L32.4632 5.58038L32.5728 5.56352ZM33.0198 6.46556L33.1378 6.27167C33.1884 6.20422 33.2221 6.11149 33.2727 6.01033C33.2727 6.01033 33.2896 5.97661 33.2896 5.94289L33.3233 5.808L33.3402 5.68998V5.55509L33.3233 5.24317C33.357 5.22631 33.4245 5.19259 33.4751 5.14201L33.6859 4.94811C33.7365 4.91439 33.7871 4.84695 33.863 4.75422C33.8967 4.72049 33.9136 4.68677 33.9304 4.66991L33.9642 4.60247L33.9979 4.53503L34.0316 4.43387L34.0822 4.50131C34.0991 4.51817 34.0991 4.53503 34.1159 4.53503L34.2003 4.56875L34.7062 4.20625C34.7062 4.17253 34.6556 4.10508 34.5544 4.01235L34.4026 3.83532C34.3352 3.73415 34.3014 3.67514 34.3014 3.64142C34.3014 3.59084 34.3183 3.52339 34.352 3.44752L34.0232 3.67514L33.7787 3.85218L33.6943 3.91962L33.7449 4.09665C33.7449 4.18096 33.7281 4.25683 33.6943 4.32427L33.6606 4.40857L33.61 4.5266L33.5426 4.66148L33.4751 4.77951C33.357 4.93125 33.298 4.99026 33.2812 5.00712L33.1631 4.54346L33.0451 4.18096C33.0113 4.06293 32.9607 4.00392 32.927 3.91962L32.8258 3.74258L32.7584 3.6077C32.7078 3.5234 32.674 3.44752 32.6234 3.4138C32.4717 3.20304 32.3789 3.06816 32.2609 3.01758L32.1259 3.15246L32.0079 3.28735C31.9067 3.42223 31.8477 3.48124 31.8308 3.56555C31.8139 3.64985 31.7802 3.72572 31.7802 3.7763C31.7802 3.86061 31.8139 3.91119 31.8983 3.95334C31.9995 4.03764 32.0753 4.14724 32.1934 4.29898L32.244 4.36642L32.3283 4.50131C32.362 4.51817 32.3958 4.48445 32.4295 4.43387C32.4632 4.38328 32.497 4.34956 32.497 4.36642C32.5138 4.36642 32.5644 4.43386 32.615 4.5266L32.6825 4.66148C32.6993 4.71206 32.7162 4.74579 32.7331 4.77951L32.8174 4.95654L32.868 5.11672L32.9186 5.26846V5.30218C32.868 5.33591 32.8174 5.35277 32.7415 5.38649L32.6066 5.43707L32.4885 5.47079L32.244 5.53823C32.1428 5.55509 32.0838 5.55509 32.05 5.53823C31.9489 5.48765 31.8898 5.43707 31.873 5.3612L31.8561 5.24317L31.8392 5.20945C31.8055 5.20945 31.7718 5.26003 31.7381 5.34434C31.7043 5.39492 31.6706 5.4455 31.6537 5.47922L31.5863 5.6394C31.5694 5.68998 31.5525 5.74056 31.5357 5.79114C31.5188 5.84172 31.5188 5.8923 31.502 5.92603C31.5188 6.01033 31.5357 6.06091 31.5694 6.06091L33.0198 6.46556Z" fill="#00853E"/>
<path d="M38.3746 6.73585L38.4084 6.83701L38.4421 6.90445C38.4758 6.95504 38.5095 6.98876 38.5264 7.00562H38.5601L38.7119 6.98876L38.8468 6.9719H38.8974L38.9649 7.12364C39.0829 7.31754 39.1251 7.43556 39.142 7.43556C39.1757 7.43556 39.2431 7.43556 39.319 7.40184C39.4034 7.38498 39.4961 7.35126 39.6142 7.31754L39.3865 6.83701L39.2347 6.85387L39.0998 6.87073C39.0661 6.88759 39.0323 6.88759 39.0155 6.87073L38.9817 6.85387C38.9649 6.83701 38.9143 6.76957 38.8637 6.67684C38.7962 6.52509 38.7625 6.46608 38.7625 6.44922L38.6023 6.48294L38.2734 6.56724L38.3072 6.66841L38.3746 6.73585Z" fill="#00853E"/>
<path d="M39.4466 9.60989C39.4804 9.57617 39.5647 9.5593 39.6406 9.5593C39.6912 9.5593 39.7418 9.5593 39.7755 9.57617C39.8092 9.59303 39.843 9.60989 39.8598 9.60989C39.8767 9.60989 39.8767 9.62675 39.8935 9.64361C39.961 9.69419 39.9779 9.77849 39.9779 9.85436C39.9779 9.93024 39.9441 10.0314 39.8767 10.0988L39.8598 10.1157L39.708 10.0483L39.6574 10.0314L39.6406 10.0145L39.59 9.98082L39.5057 9.87965L39.4213 9.74477C39.4298 9.68576 39.4298 9.62675 39.4466 9.60989ZM39.0335 9.7532C38.9829 9.80378 38.966 9.87122 38.9491 9.90495C38.8985 10.0651 38.9323 10.1831 39.0672 10.318C39.219 10.4529 39.3455 10.4951 39.4804 10.4951L39.5478 10.4782L39.5984 10.4613L39.6827 10.4276L39.8008 10.377L39.9526 10.3096C39.9357 10.3602 39.9188 10.3939 39.902 10.4108L39.8682 10.4951L39.8514 10.5119L39.8345 10.5288L39.8177 10.5625C39.6659 10.7143 39.4213 10.7733 39.0419 10.7733C38.8648 10.7733 38.6962 10.7564 38.536 10.7395C38.3757 10.7058 38.2071 10.6721 38.0469 10.6047L37.9794 10.5878L37.912 10.5541C37.8782 10.5372 37.8445 10.5204 37.7939 10.4698L37.6927 10.3518L37.6084 10.2337L37.4735 10.0398L37.406 9.95553C37.3554 9.93867 37.3217 9.92181 37.3049 9.93867C37.288 9.98925 37.3723 10.1494 37.5325 10.4445C37.5494 10.4782 37.5663 10.4951 37.5663 10.5119C37.5663 10.5288 37.5831 10.5456 37.6168 10.5794L37.6843 10.6805C37.7012 10.7143 37.7012 10.7311 37.718 10.7311C37.718 10.748 37.7349 10.748 37.7518 10.7648L37.8192 10.8491C37.8867 10.9334 37.9541 11.0093 38.03 11.0936C38.2746 11.3044 38.6371 11.3381 39.1346 11.1779C39.5478 11.0177 39.9104 10.7986 40.1887 10.5035C40.3657 10.3265 40.4838 10.0904 40.5513 9.82907C40.6187 9.56774 40.6187 9.38227 40.5175 9.3064C40.3826 9.18837 40.1718 9.17151 39.843 9.25581C39.5478 9.34012 39.337 9.41599 39.2358 9.51715L39.0335 9.7532Z" fill="#00853E"/>
<path d="M23.8807 3.06864L23.965 2.96747L24.0493 2.88317L24.1505 2.78201C24.1674 2.78201 24.2686 2.83259 24.3951 2.91689L24.6059 3.05177L24.6733 2.98433L24.7745 2.86631L24.9094 2.70613L24.4962 2.47852L24.3782 2.59654C24.277 2.6977 24.218 2.74828 24.2011 2.74828C24.1505 2.73142 24.0831 2.71456 24.0072 2.64712L23.8891 2.57968L23.7879 2.51224L23.7373 2.56282L23.6867 2.6134L23.6193 2.6977L23.4844 2.85788C23.5181 2.8916 23.5856 2.94218 23.6615 2.99276C23.712 2.98433 23.7964 3.03491 23.8807 3.06864Z" fill="#00853E"/>
<path d="M23.7969 2.2339L24.1426 2.49523L24.4209 2.21704L24.092 1.94727L23.7969 2.2339Z" fill="#00853E"/>
<path d="M25.9219 2.73979L26.0063 2.65549L26.1833 2.49531L26.4279 2.64706C26.5797 2.73136 26.6387 2.76508 26.6556 2.76508L26.7061 2.73136L26.8242 2.6302C26.9422 2.49531 27.0013 2.4363 27.0181 2.41944L26.5291 2.1581C26.4953 2.17496 26.4279 2.22555 26.3689 2.29299C26.2845 2.36043 26.2339 2.39415 26.2171 2.39415L26.1328 2.36043L25.9978 2.29299C25.8629 2.20868 25.8039 2.14124 25.787 2.13281L25.669 2.23398L25.5678 2.33514L25.416 2.49531C25.4329 2.52904 25.5172 2.57962 25.61 2.64706C25.7533 2.67235 25.8545 2.72293 25.9219 2.73979Z" fill="#00853E"/>
<path d="M8.48264 13.7162L8.96328 13.0755L8.92955 13.0586L9.73904 12.0891L9.67158 11.9121L9.60412 11.7351L9.5704 11.6845L9.63785 11.7014L9.7559 11.7182L9.85709 11.7519L10.0173 11.7857L10.3799 11.3389L11.1725 10.6138L11.2062 10.5464L11.2568 10.4958C11.2737 10.4452 11.2906 10.4284 11.2737 10.4115C11.2568 10.3609 11.24 10.3441 11.2231 10.3272C11.2062 10.3104 11.1894 10.2766 11.1557 10.2261L11.0545 10.0659C10.9701 9.931 10.9027 9.87198 10.8774 9.8214C10.8774 9.8214 10.8605 9.80454 10.8268 9.77082L10.4979 9.50948L10.3968 9.44204L10.3293 9.39146L10.2112 9.27343L10.0763 9.13855L10.0089 8.44727L9.87396 8.48099L9.69688 8.53157L9.26684 8.59901C9.18251 8.58215 9.13192 8.58215 9.10662 8.56529L9.0729 8.54843C9.05603 8.54843 9.05603 8.53157 9.03917 8.51471L8.97171 8.44727L8.98857 8.60744L9.03917 8.83506L9.14035 9.19756L9.40175 9.16384L9.7812 9.42518L10.1269 9.6528C10.3209 9.81297 10.4895 9.931 10.5907 10.0322C10.6413 10.0827 10.675 10.1333 10.675 10.167L9.96671 10.8077L9.94984 10.7909L9.70531 11.1028L9.67158 11.0691L9.62099 10.9848L9.58726 10.8668C9.57039 10.7993 9.53667 10.7487 9.5198 10.715C9.50294 10.6813 9.46921 10.6644 9.45234 10.6307C9.36802 10.5633 9.2584 10.5464 9.0729 10.5633C8.86209 10.597 8.65972 10.6982 8.53323 10.8415C8.44891 10.9595 8.37302 11.0691 8.33929 11.2545L8.30556 11.3726L8.2887 11.44L8.30556 11.4737L8.42361 11.7519L8.55853 12.0133C8.55853 11.9964 8.57539 11.9627 8.60912 11.9458L8.67658 11.8615C8.7609 11.7604 8.85366 11.7014 8.97171 11.6845C9.07289 11.6508 9.14878 11.6508 9.23311 11.6676L9.2837 11.6845L8.41518 12.7046L8.44891 12.7383L8.34772 12.8732L8.28027 12.9575C8.24654 12.9912 8.21281 12.9912 8.21281 12.9912L8.14535 12.9743C8.14535 12.9743 8.12849 12.9743 8.11162 12.9575C8.07789 12.9575 7.99357 12.9069 7.86709 12.8226L7.19251 12.4432C6.65285 12.1482 6.29026 11.9205 6.08789 11.7857L6.23967 12.3589L8.48264 13.7162Z" fill="#00853E"/>
<path d="M5.38801 16.836L5.50606 16.8528C5.53979 16.8528 5.55666 16.8697 5.59039 16.8697L5.70844 16.9034L5.79276 16.9371L5.86022 16.9708L5.82649 17.0551L5.75903 17.2069L5.67471 17.3586C5.65784 17.3755 5.64098 17.4092 5.60725 17.4598L5.53979 17.561L5.47233 17.6621L5.40488 17.7464L5.37115 17.4008C5.35428 17.2828 5.33742 17.2238 5.30369 17.1563L5.18564 17.0214C5.13505 16.9708 5.10132 16.9034 5.10132 16.8613C5.10975 16.7854 5.21093 16.8022 5.38801 16.836ZM6.56009 14.8801V14.8296V14.6694C6.56009 14.6019 6.56009 14.5514 6.57695 14.5514L6.59382 14.4839L6.64441 14.3996C6.71187 14.3322 6.80462 14.3153 6.9564 14.349C7.02386 14.3659 7.10818 14.3828 7.15034 14.4165L6.56009 14.8801ZM4.57009 16.6083L4.705 16.7854L4.80619 16.8022C4.85678 16.8022 4.89051 16.8022 4.92424 16.8191L5.02543 17.3924C5.05916 17.5525 5.07602 17.6706 5.10975 17.7211C5.14348 17.8223 5.26153 17.9319 5.42174 18.1005C5.58195 18.2691 5.71687 18.3281 5.78433 18.3618L5.81805 18.2944L5.88551 18.1932L6.06259 17.9319C6.2228 17.7211 6.29026 17.5863 6.30712 17.5694C6.34085 17.502 6.29026 17.4092 6.17221 17.2912C6.05416 17.1563 5.99513 17.0973 5.99513 17.0467V17.013H6.02886C6.06259 17.013 6.16378 17.0299 6.32399 17.0804C6.55166 17.1142 6.68657 17.0636 6.75403 16.9456L6.90581 16.5999H6.88895L7.23467 15.9592C7.2684 15.9086 7.25153 15.8243 7.18407 15.7653C7.04916 15.5714 7.007 15.4365 7.007 15.4028L7.85865 14.6272C7.85865 14.5935 7.79119 14.4755 7.69844 14.3153C7.58039 14.1383 7.52136 14.054 7.52136 14.0371C7.47077 14.0034 7.40331 13.9865 7.36115 13.9697L7.22623 13.9359L7.09132 13.9022L6.64441 13.8011L6.43361 13.7505C6.38301 13.7336 6.33242 13.7673 6.29869 13.8179C6.26496 13.8685 6.2481 13.9359 6.2481 14.0118L6.1975 14.29C6.1975 14.5176 6.23123 14.7368 6.33242 14.9307L6.4842 15.1246L6.71187 15.4534L6.72873 15.4703L6.26496 16.3217L6.28183 16.3386L6.23123 16.4735L6.21437 16.524C6.1975 16.5746 6.16377 16.6083 6.14691 16.6252L6.06259 16.6421C6.01199 16.6421 5.88551 16.6083 5.63255 16.5578L4.85678 16.3807L4.59538 16.3301L4.33398 16.2964L4.4689 16.4566L4.57009 16.6083Z" fill="#00853E"/>
<path d="M3.49934 17.6448C3.53307 17.6279 3.5668 17.6111 3.61739 17.5774L3.71858 17.5099L3.83663 17.4088C3.87036 17.375 3.88722 17.3413 3.92095 17.3076C3.90409 17.2907 3.88722 17.257 3.8535 17.1558L3.81977 17.0884L3.78604 17.0041C3.8029 16.9872 3.88722 16.9367 3.97998 16.8439C4.0643 16.7765 4.11489 16.7259 4.14019 16.6922L4.15706 16.6753C4.15706 16.6585 4.14019 16.6079 4.0896 16.4983L4.02214 16.3634L3.95468 16.2285L3.55837 16.5404L3.65955 16.7681C3.67642 16.8186 3.69328 16.8524 3.67642 16.8861C3.65956 16.9198 3.60896 16.9704 3.51621 17.0378C3.39816 17.1221 3.33913 17.1727 3.32227 17.1727L3.37286 17.3076L3.49934 17.6448Z" fill="#00853E"/>
<path d="M46.5459 25.9398C46.6471 25.7627 46.6977 25.6953 46.7062 25.6784C46.7568 25.6784 46.8242 25.7121 46.9001 25.7796C46.976 25.847 47.035 25.9145 47.035 25.9566C47.0182 26.0746 46.9001 26.1336 46.7568 26.2011C46.723 26.2179 46.6724 26.2348 46.6218 26.2517C46.6218 26.2517 46.5712 26.2517 46.4869 26.2685V26.2348C46.4785 26.1674 46.4954 26.0915 46.5459 25.9398ZM44.1934 26.9261C44.2102 26.9598 44.3283 26.9935 44.5391 27.061C44.733 27.1284 44.8679 27.1453 44.9354 27.1453H44.986L45.0703 27.0778L45.1884 27.0104C45.2052 26.9935 45.2221 26.9935 45.2558 26.9767C45.2896 26.9598 45.3233 26.943 45.357 26.9261C45.5172 26.8418 45.669 26.7912 45.8629 26.7491C46.04 26.7153 46.2424 26.6985 46.4363 26.6985C46.8832 26.6985 47.229 26.631 47.4398 26.5214C47.6674 26.3866 47.7855 26.2601 47.7855 26.0915C47.7855 25.9145 47.6084 25.729 47.2796 25.5182C46.9507 25.3075 46.6556 25.1895 46.3942 25.1895L46.234 25.2063C46.1665 25.2232 46.0822 25.2906 46.0232 25.3834C45.9051 25.5014 45.8461 25.6447 45.8292 25.847C45.8123 25.9145 45.7955 26.0072 45.7955 26.1421L45.7786 26.3023L45.7618 26.3528C45.5678 26.3866 45.3654 26.4203 45.2052 26.4709L44.9776 26.5552L44.7668 26.6395C44.3704 26.7491 44.2102 26.8586 44.1934 26.9261Z" fill="#00853E"/>
<path d="M47.4489 22.5429C47.3309 22.4249 47.2212 22.3659 47.1032 22.2984L46.9261 22.1973L46.749 22.2984L46.4202 22.4923C46.3359 22.5429 46.2262 22.5935 46.0576 22.6525L45.5685 22.8295C45.3409 22.9307 45.0457 22.9813 44.7169 23.0066C44.388 23.0572 44.2109 23.1077 44.2109 23.1667C44.2109 23.2342 44.2615 23.2848 44.3627 23.3016C44.4639 23.3185 44.6241 23.3354 44.8855 23.3354H44.9867H45.383L45.5601 23.3185L45.754 23.2848L45.9817 23.2173L46.1756 23.1499L46.2094 23.2848C46.26 23.4028 46.3612 23.5124 46.4539 23.6473L46.4202 23.7147L46.3864 23.7822L46.3359 23.917C46.3021 24.0182 46.2684 24.0941 46.2684 24.1784C46.2684 24.229 46.2684 24.2627 46.2853 24.3133C46.319 24.4482 46.4455 24.5409 46.6816 24.6252C46.8755 24.7095 47.0779 24.7601 47.2381 24.7601L47.3393 24.7432L47.4067 24.7264C47.4405 24.6926 47.4405 24.6758 47.4405 24.642C47.4236 24.5915 47.3899 24.5577 47.3224 24.5409L47.1285 24.4397C47.0779 24.3891 47.0442 24.3386 47.0442 24.288C47.0442 24.2037 47.0779 24.1278 47.1285 24.0772C47.1791 24.0266 47.2297 23.9592 47.2634 23.9592H47.3477H47.432C47.5332 23.9592 47.567 23.9255 47.567 23.858L47.2212 23.6136C47.0863 23.5124 47.0104 23.4365 46.9261 23.3185C46.9092 23.2848 46.9092 23.2511 46.9092 23.2173C46.9092 23.0993 47.0104 22.9729 47.1875 22.7705L47.4489 22.5429Z" fill="#00853E"/>
<path d="M45.3399 20.9148C45.146 20.9485 44.8761 20.9991 44.5473 21.0496C44.3702 21.1002 44.3027 21.1339 44.3027 21.1845C44.3027 21.252 44.3702 21.3025 44.4967 21.3194C44.5979 21.3531 44.7581 21.37 45.0026 21.37H45.2134H45.3483C45.5254 21.37 45.7615 21.3531 45.9892 21.3026C46.2168 21.2688 46.4529 21.2182 46.63 21.1508C46.9589 21.0328 47.2203 20.9232 47.4058 20.7883C47.5829 20.6534 47.6672 20.5944 47.6503 20.5607C47.6503 20.527 47.5154 20.4764 47.3215 20.4005C47.2877 20.3836 47.2371 20.3668 47.1865 20.3499C47.1528 20.3331 47.1022 20.3162 47.0348 20.2993L46.9336 20.2656H46.8661L46.4529 20.4932C46.3686 20.5438 46.2759 20.5944 46.141 20.6534C46.006 20.7209 45.8796 20.7714 45.7109 20.8305C45.6687 20.8473 45.5423 20.881 45.3399 20.9148Z" fill="#00853E"/>
<path d="M47.2202 28.3265C47.1865 28.3096 47.1359 28.2928 47.0684 28.2759L46.9504 28.2422H46.866L46.4529 28.4698C46.3685 28.5204 46.2758 28.571 46.1409 28.63C46.006 28.689 45.8795 28.748 45.7277 28.807C45.6434 28.8407 45.5337 28.8745 45.3145 28.9082C45.1206 28.9419 44.8507 28.9925 44.5219 29.0431C44.3448 29.0936 44.2773 29.1274 44.2773 29.1779C44.2773 29.2454 44.3448 29.296 44.4713 29.3128C44.5725 29.3466 44.7327 29.3466 44.9772 29.3466H45.188H45.3229C45.5 29.3466 45.7361 29.3297 45.9638 29.2791C46.1915 29.2454 46.4276 29.1948 46.6046 29.1274C46.9335 29.0093 47.1949 28.8998 47.3804 28.7649C47.5575 28.63 47.6418 28.571 47.6249 28.5372C47.6249 28.5204 47.49 28.4529 47.2961 28.3771C47.2961 28.3771 47.2539 28.3602 47.2202 28.3265Z" fill="#00853E"/>
<path d="M5.19369 22.0627L5.27801 21.6074V21.5906L4.94915 20.8824L4.93229 20.8656L4.40106 20.7812L4.67932 21.3882L2.6303 21.0426H2.5797L2.47852 21.6074L5.1431 22.0627H5.19369Z" fill="#00853E"/>
<path d="M3.77706 23.4446C3.86138 23.3771 3.95413 23.3265 4.10591 23.3265C4.12278 23.3265 4.13964 23.3265 4.15651 23.3265C4.45163 23.3434 4.63714 23.5204 4.63714 23.8155C4.63714 23.9672 4.56969 24.06 4.47693 24.1443C4.37574 24.2286 4.28299 24.2623 4.13121 24.2623C4.11435 24.2623 4.09748 24.2623 4.08062 24.2623C3.9457 24.2454 3.83608 24.1949 3.76862 24.1106C3.6843 24.0094 3.65057 23.8998 3.65057 23.7649C3.63371 23.6216 3.6843 23.512 3.77706 23.4446ZM3.58312 24.8524L3.7349 24.8693C3.78549 24.8693 3.83608 24.8693 3.88668 24.8693C4.62871 24.8693 5.05032 24.5068 5.08405 23.8661C5.11778 23.2422 4.77206 22.8292 4.1818 22.7786C4.16494 22.7786 4.13121 22.7786 4.11435 22.7786C3.60841 22.7786 3.24583 23.1242 3.2121 23.6638C3.19523 23.9588 3.31329 24.1696 3.4229 24.2876C2.93384 24.2202 2.68087 24.0431 2.69773 23.7143C2.7146 23.4867 2.83265 23.3518 3.02659 23.3013H3.06032L3.09405 22.7617H3.04346C2.55439 22.8123 2.25083 23.1411 2.22553 23.6975C2.20023 24.3635 2.69773 24.8103 3.58312 24.8524Z" fill="#00853E"/>
<path d="M4.98399 27.2717H5.07674L4.96713 25.3496L4.48649 25.3665L4.57081 26.5804L2.30255 25.8891L2.25195 25.8723L2.28568 26.4455V26.4793L4.98399 27.2717Z" fill="#00853E"/>
<path d="M5.27891 28.419V28.4021L4.71395 27.8626L4.69709 27.8457L4.19116 27.9469L4.67179 28.419L2.54688 28.7983L2.66493 29.3716L5.3548 28.8995L5.27891 28.419Z" fill="#00853E"/>
<path d="M6.29091 33.0038L6.44269 33.3326C6.59447 33.6445 6.54388 33.8721 6.24875 34.007L6.23189 34.0239C5.95362 34.1588 5.70909 34.0576 5.57417 33.7288L5.42239 33.4L6.29091 33.0038ZM6.51015 34.6477C7.13413 34.3695 7.26905 33.83 6.95706 33.1387L6.51015 32.1523L3.63477 33.4337L3.91303 34.0744L4.95019 33.5939L5.1104 33.9564C5.42239 34.614 5.90303 34.909 6.51015 34.6477Z" fill="#00853E"/>
<path d="M7.65759 36.2072L6.51081 36.9153C6.23255 37.0924 5.97115 36.9996 5.83624 36.7636C5.68446 36.536 5.75191 36.3336 6.01331 36.1903L7.21069 35.4653L6.88183 34.9258L5.617 35.7014C5.0942 36.0133 5.06047 36.4432 5.28814 36.8226C5.48208 37.1345 5.76878 37.2525 6.01331 37.2357L5.70132 37.4127L6.03018 37.9523L7.98645 36.7383L7.65759 36.2072Z" fill="#00853E"/>
<path d="M8.53483 39.2679L8.5011 39.2848C8.15538 39.563 7.84339 39.563 7.61572 39.3016C7.40491 39.0403 7.43864 38.7284 7.79279 38.4333L7.82652 38.4164C8.18911 38.1214 8.5011 38.1551 8.72877 38.4164C8.92271 38.6441 8.88898 38.9728 8.53483 39.2679ZM8.93958 39.7569C9.52983 39.2763 9.56356 38.6694 9.21784 38.231C9.0239 37.9696 8.67818 37.8853 8.42521 37.9191L9.51297 37.0339L9.09979 36.5449L6.51953 38.6609L6.93271 39.1499L7.21097 38.9223C7.09292 39.1499 7.12665 39.4787 7.36275 39.7569C7.72534 40.2037 8.31559 40.2627 8.92271 39.7906L8.93958 39.7569Z" fill="#00853E"/>
<path d="M10.8942 38.6198L8.52539 40.9727L8.96518 41.4152L11.334 39.0623L10.8942 38.6198Z" fill="#00853E"/>
<path d="M11.4513 39.7072C11.3164 39.859 11.3332 40.0697 11.5019 40.213C11.6621 40.3648 11.8813 40.3479 12.0078 40.1962C12.1427 40.0444 12.1258 39.8337 11.9572 39.6903C11.8139 39.5639 11.5862 39.5808 11.4513 39.7072Z" fill="#00853E"/>
<path d="M11.0651 40.2315L9.53516 41.9512L10.0014 42.3658L11.5313 40.6461L11.0651 40.2315Z" fill="#00853E"/>
<path d="M12.8518 41.6284C12.3121 41.2322 11.6207 41.2996 11.1738 41.8898L11.1569 41.9235C10.71 42.5305 10.8787 43.1712 11.4183 43.5674C11.958 43.9636 12.5061 43.8962 12.8518 43.4662L12.388 43.1206C12.1941 43.3313 11.9243 43.3313 11.7303 43.188C11.4521 42.9941 11.4183 42.6653 11.6797 42.286L11.7135 42.2691C11.9748 41.9066 12.2868 41.8392 12.5651 42.0584C12.759 42.2185 12.8265 42.404 12.7169 42.6485L13.206 43.011C13.5432 42.4377 13.2818 41.9403 12.8518 41.6284Z" fill="#00853E"/>
<path d="M15.403 42.315L13.9277 45.1016L14.5686 45.4407L16.0439 42.6542L15.403 42.315Z" fill="#00853E"/>
<path d="M17.5232 44.1923C17.1606 44.0405 16.8655 44.1248 16.6715 44.3103L16.8233 43.9815L16.233 43.7539L15.3477 45.8699L15.9379 46.0975L16.4438 44.8667C16.5788 44.5548 16.8233 44.4705 17.0678 44.5885C17.3124 44.7065 17.3798 44.8836 17.2618 45.1618L16.739 46.4432L17.3124 46.6708L17.8689 45.3219C18.1472 44.7402 17.9279 44.3777 17.5232 44.1923Z" fill="#00853E"/>
<path d="M20.1955 45.1023L19.2427 46.5439L19.1499 44.8241L18.4922 44.6387L18.6861 47.0919L19.3776 47.2689L20.811 45.2625L20.1955 45.1023Z" fill="#00853E"/>
<path d="M21.4181 46.2648C21.5193 45.9529 21.7301 45.7843 22.0083 45.818C22.3035 45.8686 22.4721 46.0456 22.4384 46.3913L21.4181 46.2648ZM22.0758 45.3965C21.4181 45.2953 20.8278 45.6916 20.7435 46.3997V46.4334C20.6254 47.1584 21.0723 47.6642 21.7638 47.7654C22.3709 47.8666 22.8178 47.6305 22.9612 47.1584L22.3709 47.0741C22.3035 47.2512 22.1601 47.3692 21.8481 47.3186C21.5024 47.268 21.3253 47.0235 21.3675 46.6442L23.0118 46.8718L23.0455 46.6948C23.1214 45.9023 22.666 45.4892 22.0758 45.3965Z" fill="#00853E"/>
<path d="M24.5199 46.5265C24.1911 46.459 24.073 46.3916 24.073 46.2651C24.073 46.1303 24.2079 46.0375 24.4019 46.0375C24.6127 46.0375 24.7307 46.1387 24.7476 46.3157L25.321 46.3326C25.2704 45.793 24.8909 45.6076 24.385 45.5907C23.9044 45.5739 23.4659 45.8015 23.449 46.282C23.4322 46.7457 23.6598 46.9058 24.2838 47.0239C24.6127 47.0913 24.7476 47.1587 24.7476 47.3021C24.7476 47.4622 24.6127 47.5465 24.385 47.5297C24.1067 47.5297 24.0056 47.3948 23.9887 47.2009L23.3984 47.184C23.4153 47.6899 23.761 47.9765 24.3681 47.9933C24.9753 48.0102 25.3378 47.7657 25.3547 47.2683C25.3884 46.7878 25.0764 46.6276 24.5199 46.5265Z" fill="#00853E"/>
<path d="M26.949 47.4284C26.7887 47.4453 26.7044 47.3441 26.6876 47.1839L26.6032 46.0796L27.0923 46.0459L27.0586 45.5822L26.5695 45.6159L26.5358 45.127L25.9118 45.1775L25.9455 45.6665L25.6504 45.6834L25.6841 46.147L25.9792 46.1302L26.0636 47.2935C26.0973 47.7741 26.3587 48.0017 26.8562 47.968C27.0333 47.9511 27.1513 47.9174 27.2356 47.8837L27.2019 47.3947C27.1345 47.4031 27.0501 47.4116 26.949 47.4284Z" fill="#00853E"/>
<path d="M30.2042 44.9676C29.9259 45.0351 29.6476 45.1952 29.5296 45.524C29.3694 45.2795 29.1164 45.2121 28.8213 45.2795C28.4924 45.3639 28.2816 45.5746 28.2142 45.8191L28.1298 45.4734L27.5059 45.6083L27.9865 47.8592L28.6105 47.7243L28.3153 46.3755C28.2479 46.0804 28.4165 45.8697 28.6442 45.8191C28.855 45.7685 29.0237 45.8865 29.0911 46.1647L29.3694 47.5304L29.9765 47.3956L29.6982 46.0636C29.6308 45.7685 29.7994 45.5577 30.0271 45.5072C30.2379 45.4566 30.4065 45.5746 30.474 45.8528L30.7523 47.2185L31.3594 47.0836L31.0643 45.6336C31.0137 45.0857 30.6342 44.8833 30.2042 44.9676Z" fill="#00853E"/>
<path d="M32.5746 44.6384C32.8529 44.5203 33.0806 44.6215 33.2155 44.9334L32.2626 45.2959C32.1783 44.984 32.2964 44.7564 32.5746 44.6384ZM33.4769 45.5741C33.5106 45.7511 33.4094 45.9366 33.148 46.0546C32.8192 46.1895 32.5578 46.0546 32.3891 45.6921L33.9322 45.102L33.8648 44.9418C33.5696 44.1663 32.9457 44.0229 32.406 44.2506C31.782 44.4782 31.47 45.1189 31.7314 45.7933L31.7483 45.827C32.0097 46.5183 32.6505 46.7459 33.2914 46.4846C33.8648 46.2738 34.143 45.8607 34.0503 45.3634L33.4769 45.5741Z" fill="#00853E"/>
<path d="M35.0528 43.0113C34.724 43.1883 34.5722 43.4918 34.5891 43.7363L34.412 43.4243L33.8555 43.7194L34.9432 45.7595L35.4998 45.4645L34.8758 44.3011C34.7156 44.006 34.8083 43.7447 35.0528 43.6267C35.2974 43.4749 35.4829 43.5592 35.6094 43.8374L36.2502 45.0514L36.8067 44.7563L36.1153 43.4581C35.8792 42.8848 35.4492 42.7836 35.0528 43.0113Z" fill="#00853E"/>
<path d="M38.079 43.323C37.9273 43.4242 37.8345 43.4073 37.7165 43.2387L37.0925 42.3198L37.4888 42.0585L37.2443 41.6791L36.8479 41.9404L36.5697 41.5273L36.0469 41.8898L36.3251 42.3029L36.0806 42.4631L36.3251 42.8425L36.5697 42.6654L37.2274 43.6181C37.4888 44.0143 37.8514 44.0817 38.2477 43.7951C38.3995 43.6939 38.4754 43.6181 38.5259 43.5338L38.2477 43.1207C38.1971 43.2218 38.1634 43.2724 38.079 43.323Z" fill="#00853E"/>
<path d="M40.4506 40.3472L40.0881 39.9594L39.3123 40.6591L38.7726 40.0522L39.7086 39.167L39.3292 38.7539L37.8535 40.1196L40.0037 42.4211L40.5097 41.9406L39.6917 41.0554L40.4506 40.3472Z" fill="#00853E"/>
<path d="M41.1064 37.987L42.1436 38.8553C42.405 39.0661 42.3881 39.3443 42.2279 39.5466C42.0677 39.7405 41.8485 39.7405 41.6208 39.5635L40.5499 38.6614L40.1367 39.1504L41.2666 40.103C41.7304 40.4992 42.152 40.3981 42.4303 40.0524C42.658 39.7742 42.6917 39.4792 42.5905 39.2347L42.8688 39.4623L43.2819 38.9733L41.5196 37.498L41.1064 37.987Z" fill="#00853E"/>
<path d="M42.5501 35.8461C42.3562 36.1749 42.373 36.47 42.4995 36.6976L42.1875 36.5037L41.8418 37.0432L43.7812 38.2909L44.1269 37.7514L43.0054 37.0432C42.7272 36.8662 42.6935 36.5964 42.8284 36.3688C42.9886 36.1412 43.1741 36.1243 43.4186 36.2677L44.5823 37.0095L44.928 36.47L43.6969 35.6775C43.191 35.3403 42.7946 35.4752 42.5501 35.8461Z" fill="#00853E"/>
<path d="M44.9699 33.73L45.0037 33.7469C45.4337 33.9408 45.5433 34.2527 45.4 34.5562C45.2651 34.8344 44.9699 34.9524 44.5483 34.7501L44.5146 34.7332C44.1014 34.5562 43.9581 34.2527 44.1183 33.9239C44.2616 33.6457 44.5736 33.5446 44.9699 33.73ZM43.0137 32.8617L44.2785 33.435C44.0171 33.4518 43.7726 33.5951 43.6208 33.9239C43.3931 34.4466 43.6039 35.0283 44.2785 35.3402L44.3122 35.3571C45.0037 35.669 45.5602 35.4582 45.7879 34.944C45.9397 34.6489 45.8722 34.3033 45.7036 34.0925L46.0493 34.2527L46.3107 33.6963L43.2666 32.2969L43.0137 32.8617Z" fill="#00853E"/>
</svg>
