<svg width="39" height="50" viewBox="0 0 39 50" fill="none" xmlns="http://www.w3.org/2000/svg">
<path d="M5.04601 44.5107H4.70838C4.56488 44.5107 4.46359 44.4686 4.41294 44.3927C4.3623 44.3168 4.31165 44.1735 4.25257 43.9795C4.15972 44.0639 4.10063 44.1229 4.05843 44.1566C4.01622 44.1903 3.96557 44.2072 3.89805 44.2072C3.77143 44.2072 3.67858 44.1903 3.61106 44.1566C3.54353 44.1229 3.50977 44.0892 3.50977 44.047C3.50977 43.929 3.56885 43.8025 3.69547 43.676C3.82208 43.5495 3.97402 43.4315 4.14283 43.3303C4.14283 43.2207 4.15127 43.1448 4.1766 43.0942C4.20192 43.0436 4.2188 43.0015 4.23568 42.9509L4.3623 43.7266C4.39606 43.9205 4.42983 44.047 4.47203 44.1145C4.51423 44.1819 4.56488 44.2156 4.61553 44.2156H4.69993H5.03757L5.04601 44.5107ZM3.59417 42.4956L3.74611 42.2342L3.9909 42.4113L4.15127 42.1836L4.39606 42.3438L4.24413 42.5967L3.9909 42.4365L3.83896 42.6642L3.59417 42.4956ZM4.1766 43.4905C4.04998 43.5327 3.97402 43.5664 3.94869 43.6001C3.92337 43.6254 3.85584 43.7013 3.76299 43.8278C3.82208 43.8446 3.87272 43.8531 3.91493 43.8615C3.95713 43.8699 3.99934 43.8784 4.0331 43.8784C4.10063 43.8784 4.16816 43.8615 4.23568 43.8362L4.1766 43.4905Z" fill="black"/>
<path d="M4.59766 44.2162H5.04503C5.07879 44.2162 5.12099 44.2077 5.1632 44.1993C5.2054 44.1909 5.25605 44.174 5.30669 44.1403C5.35734 44.115 5.40798 44.0813 5.44175 44.0391C5.47551 43.9969 5.52616 43.9464 5.5768 43.8789L5.61057 43.8958C5.64433 44.0391 5.68653 44.1234 5.72874 44.1572C5.77094 44.1909 5.83003 44.2077 5.88912 44.2162H6.28584V44.5113H5.87224C5.78783 44.5113 5.71186 44.486 5.63589 44.427C5.56836 44.3679 5.50928 44.3089 5.48395 44.2415C5.45019 44.2921 5.3911 44.3511 5.29825 44.4185C5.2054 44.486 5.12099 44.5197 5.05347 44.5197H4.6061L4.59766 44.2162ZM5.03658 45.1099L5.18852 44.857L5.43331 45.0425L5.59368 44.8064L5.83847 44.9835L5.66965 45.2364L5.43331 45.0678L5.28981 45.2954L5.03658 45.1099Z" fill="black"/>
<path d="M5.87305 44.2162H6.32041C6.35418 44.2162 6.39638 44.2077 6.43859 44.1993C6.48079 44.1909 6.53144 44.174 6.58208 44.1403C6.63273 44.115 6.68338 44.0813 6.71714 44.0391C6.7509 43.9969 6.80155 43.9464 6.85219 43.8789L6.88596 43.8958C6.91972 44.0391 6.95348 44.1234 6.99569 44.1572C7.03789 44.1909 7.0801 44.2077 7.13074 44.2162H7.55279V44.5113H7.13074C7.04633 44.5113 6.97037 44.486 6.90284 44.427C6.83531 44.3679 6.78467 44.3089 6.7509 44.2415C6.71714 44.2921 6.65805 44.3511 6.5652 44.4185C6.47235 44.486 6.38794 44.5197 6.32041 44.5197H5.87305V44.2162ZM6.54832 45.0846L6.71714 44.8233L6.96192 45.0003L6.79311 45.2617L6.54832 45.0846Z" fill="black"/>
<path d="M7.0957 44.2157H7.6106C7.74565 44.2157 7.83006 44.182 7.88071 44.1061C7.93135 44.0302 7.94824 43.8532 7.94824 43.5749C7.94824 43.3473 7.93135 43.1196 7.88915 42.8751C7.84694 42.6306 7.80474 42.3945 7.76254 42.15C7.76254 42.1078 7.77098 42.0572 7.7963 42.0235C7.81318 41.9813 7.84694 41.9307 7.88915 41.8633L8.08329 42.15C8.01576 42.2511 7.982 42.3186 7.97356 42.3439C7.96512 42.3692 7.95668 42.4029 7.95668 42.4535C7.95668 42.5294 7.97356 42.6896 8.00732 42.9341C8.04108 43.1786 8.05797 43.3388 8.05797 43.44C8.05797 43.6086 8.04108 43.7857 8.00732 43.9965C8.15926 43.8532 8.32808 43.7014 8.50534 43.5496C8.69104 43.3978 8.8683 43.322 9.054 43.322C9.15529 43.322 9.2397 43.3641 9.30722 43.44C9.36631 43.5159 9.40007 43.6086 9.40007 43.7098C9.40007 43.87 9.35787 43.9881 9.26502 44.0639C9.17217 44.1398 9.054 44.2073 8.9105 44.2663C8.99491 44.2663 9.16373 44.2663 9.40851 44.2579C9.6533 44.2494 9.7968 44.2494 9.83056 44.2494V44.5446H7.80474C7.77098 44.6204 7.74565 44.671 7.72877 44.7132C7.71189 44.7469 7.69501 44.8144 7.67813 44.9156L7.62748 44.8144C7.63592 44.7553 7.64436 44.7048 7.66124 44.671C7.66969 44.6289 7.68657 44.5951 7.69501 44.553H7.0957V44.2157ZM8.82609 43.6592C8.63195 43.6592 8.47157 43.7183 8.33652 43.8279C8.20146 43.9375 8.07485 44.0724 7.96512 44.2157C8.20146 44.2157 8.47157 44.1736 8.767 44.0977C9.06244 44.0218 9.21437 43.9375 9.21437 43.8447C9.21437 43.8026 9.17217 43.7604 9.0962 43.7183C9.01179 43.6761 8.92738 43.6592 8.82609 43.6592Z" fill="black"/>
<path d="M9.42773 44.2167H9.85822C9.90042 44.2083 9.95107 44.1999 9.99328 44.1999C10.1537 44.1661 10.2381 44.1155 10.2634 44.0565C10.2803 43.9975 10.2971 43.9553 10.2971 43.9216C10.2887 43.8795 10.2887 43.8373 10.2803 43.8204L10.1114 42.8086C10.0946 42.7327 10.0861 42.64 10.0861 42.5304C10.0777 42.4292 10.0777 42.328 10.0777 42.2268C10.0777 42.1763 10.0861 42.1257 10.1114 42.0751C10.1368 42.0245 10.1705 41.9823 10.2043 41.957L10.3984 42.2606C10.3394 42.3196 10.3056 42.3618 10.2803 42.3955C10.2549 42.4292 10.2465 42.4882 10.2465 42.5641L10.2634 42.7243C10.3056 42.9182 10.3394 43.1122 10.3816 43.3145C10.4153 43.5169 10.4406 43.6349 10.4406 43.6602C10.4406 43.9638 10.4153 44.183 10.3562 44.3095C10.2972 44.4359 10.1452 44.5034 9.89199 44.5034H9.45306V44.2167H9.42773Z" fill="black"/>
<path d="M10.9631 44.4938C10.9631 44.4517 10.9716 44.4011 10.98 44.3421C10.9884 44.283 10.9884 44.2493 10.9884 44.2324C10.9884 44.1734 10.9884 44.1144 10.98 44.0385C10.9716 43.9626 10.9631 43.8952 10.9631 43.8362L10.8112 42.6051L10.8027 42.4365C10.8027 42.3943 10.8196 42.3353 10.8449 42.2594C10.8703 42.1835 10.9125 42.0992 10.9547 41.998C10.9547 42.2173 10.9631 42.4196 10.9884 42.6136L11.0982 43.541C11.1066 43.6085 11.1066 43.6844 11.115 43.7603C11.1235 43.8362 11.1235 43.9036 11.1235 43.9626C11.1235 44.0385 11.115 44.106 11.0982 44.1734C11.0813 44.2409 11.0475 44.3505 10.9969 44.5023L10.9631 44.4938Z" fill="black"/>
<path d="M14.7347 44.5117H14.3549C14.1945 44.5117 14.0848 44.4696 14.0257 44.3853C13.9666 44.301 13.9075 44.166 13.8484 43.9805C13.7556 44.1492 13.6543 44.2672 13.553 44.3515C13.4517 44.4274 13.2913 44.4696 13.0634 44.4696C12.9621 44.4696 12.8693 44.4527 12.7933 44.4274C12.7174 44.3937 12.6836 44.3431 12.6836 44.2757C12.6836 44.2166 12.692 44.1576 12.7089 44.0986C12.7427 44.0227 12.768 43.9637 12.7764 43.93L12.8271 43.9384C12.8355 44.0058 12.8609 44.0649 12.9031 44.107C12.9453 44.1492 13.055 44.166 13.2069 44.166C13.4348 44.166 13.5868 44.1323 13.6627 44.0733C13.7471 44.0143 13.7809 43.8878 13.7809 43.6939C13.7809 43.618 13.7556 43.4915 13.7134 43.306C13.6712 43.1205 13.6459 43.0025 13.6459 42.9434C13.6459 42.9013 13.6543 42.8676 13.6627 42.8423C13.6712 42.817 13.7134 42.7495 13.7894 42.623C13.8231 42.935 13.8653 43.247 13.8991 43.559C13.9751 43.9553 14.127 44.1745 14.3465 44.2166H14.3887H14.7263V44.5117H14.7347Z" fill="black"/>
<path d="M14.2891 44.2151H14.6773C14.8208 44.2151 14.9221 44.2067 14.9728 44.1983C15.0234 44.1814 15.0825 44.173 15.1416 44.1561C15.2176 43.979 15.3189 43.7851 15.4539 43.5743C15.589 43.3635 15.6987 43.2539 15.7831 43.2539C15.8338 43.2539 15.8675 43.2876 15.8844 43.3467C15.9013 43.4057 15.9097 43.4816 15.9097 43.5574C15.9097 43.7092 15.8844 43.8273 15.8253 43.9116C15.7747 44.0043 15.6565 44.1055 15.4792 44.232L16.1967 44.2067H16.3233H16.6272V44.5102H16.3402L15.7071 44.4934C15.7747 44.5693 15.8422 44.6536 15.9182 44.7379C15.9435 44.7969 15.9604 44.8728 15.9604 44.9824C15.9604 45.092 15.9182 45.2016 15.8422 45.2944C15.7578 45.3871 15.6818 45.4377 15.5974 45.4377C15.4455 45.4377 15.3442 45.345 15.2851 45.1595C15.226 44.974 15.1754 44.7632 15.15 44.5271H14.7027H14.3144V44.2151H14.2891ZM15.8506 45.0161C15.8506 44.8981 15.7915 44.8053 15.6818 44.7379C15.5721 44.6704 15.4201 44.6114 15.2344 44.5608C15.2767 44.7547 15.3357 44.8897 15.4033 44.974C15.4708 45.0583 15.5468 45.1004 15.6312 45.1004C15.6987 45.1004 15.7578 45.092 15.8 45.0836C15.8338 45.0752 15.8506 45.0499 15.8506 45.0161ZM15.6565 43.608C15.589 43.608 15.5214 43.6502 15.4539 43.7345C15.3864 43.8188 15.3189 43.9537 15.2513 44.1224C15.3864 44.0886 15.513 44.0381 15.6227 43.9706C15.7325 43.9031 15.7831 43.8441 15.7831 43.7767C15.7831 43.7176 15.7662 43.6755 15.7409 43.6502C15.7156 43.6249 15.6818 43.608 15.6565 43.608Z" fill="black"/>
<path d="M16.1875 44.2163H16.5336C16.6095 44.2163 16.6686 44.2163 16.7193 44.2079C16.7699 44.1995 16.8965 44.1742 17.0907 44.1236C17.2848 44.073 17.3861 44.0056 17.3861 43.9297C17.3861 43.9044 17.3777 43.8791 17.3692 43.8622C17.3608 43.8454 17.327 43.8032 17.2933 43.7526C17.2511 43.8201 17.2089 43.8706 17.1582 43.9044C17.1076 43.9381 17.0485 43.955 16.9809 43.955C16.9134 43.955 16.8543 43.9381 16.7952 43.9044C16.7446 43.8706 16.7108 43.8201 16.7108 43.7357C16.7108 43.5755 16.753 43.4153 16.829 43.2804C16.905 43.1371 16.9894 43.0696 17.0654 43.0696C17.1244 43.0696 17.2004 43.1455 17.3101 43.3057C17.4199 43.4659 17.4705 43.643 17.4705 43.8369C17.4705 44.0814 17.3777 44.2585 17.2004 44.3597C17.0232 44.4609 16.8375 44.5115 16.6433 44.5115H16.1875V44.2163ZM16.7193 42.471L16.8712 42.2012L17.1244 42.3698L16.9641 42.6481L16.7193 42.471ZM16.9556 43.3985C16.9219 43.3985 16.8965 43.4069 16.8712 43.4322C16.8459 43.4575 16.829 43.4828 16.829 43.5249C16.829 43.5671 16.8375 43.6093 16.8628 43.643C16.8881 43.6767 16.9219 43.6936 16.9556 43.6936C17.0063 43.6936 17.0569 43.6683 17.0907 43.6261C17.1329 43.584 17.1498 43.5502 17.1498 43.5249C17.1498 43.4828 17.1244 43.4575 17.0822 43.4322C17.0485 43.4153 17.0063 43.3985 16.9556 43.3985Z" fill="black"/>
<path d="M22.3324 44.5112H21.961C21.7921 44.5112 21.6824 44.4606 21.6318 44.3594C21.5811 44.2583 21.5389 44.1318 21.5052 43.9632C21.4123 44.2077 21.2519 44.41 21.024 44.5787C20.7961 44.7473 20.3825 44.8316 19.7916 44.8316C19.4962 44.8316 19.2599 44.7895 19.0826 44.7051C18.9054 44.6208 18.8125 44.4859 18.8125 44.292C18.8125 44.1739 18.8209 44.0643 18.8463 43.98C18.8716 43.8957 18.8969 43.803 18.9307 43.6933L18.9813 43.7018C18.9644 43.7692 18.956 43.8198 18.9476 43.8535C18.9391 43.8873 18.9391 43.921 18.9391 43.9463C18.9391 44.1318 19.0151 44.2667 19.167 44.351C19.319 44.4353 19.53 44.4775 19.817 44.4775C20.391 44.4775 20.813 44.41 21.0662 44.2751C21.3195 44.1402 21.4545 43.921 21.4545 43.609C21.4545 43.4488 21.4376 43.2043 21.4123 42.8755C21.387 42.5466 21.3701 42.3021 21.3701 42.1335C21.3701 42.066 21.387 42.007 21.4207 41.9648C21.5136 42.0407 21.5642 42.3611 21.5896 42.9261C21.6149 43.491 21.6318 43.8198 21.6486 43.9126C21.6655 44.0053 21.6993 44.0812 21.7415 44.1234C21.7837 44.1655 21.8597 44.1992 21.9525 44.2077H22.3408V44.5112H22.3324ZM20.0702 43.3308C20.0702 43.3055 20.0111 43.2886 19.9014 43.2633C19.7832 43.2465 19.7326 43.1959 19.7326 43.1284C19.7326 43.0188 19.7832 42.9008 19.8761 42.7743C19.9689 42.6478 20.0702 42.5551 20.1715 42.496L20.163 42.7153C20.1124 42.7406 20.0618 42.7659 20.0196 42.7911C19.9689 42.8249 19.9436 42.867 19.9436 42.9092C19.9436 42.9345 20.0027 42.9598 20.1293 42.9935C20.2559 43.0272 20.315 43.0863 20.315 43.179C20.315 43.2549 20.2728 43.3476 20.1968 43.4488C20.1124 43.55 20.0196 43.6006 19.9014 43.6006C19.8423 43.6006 19.7832 43.5922 19.7241 43.5669C19.665 43.5416 19.5975 43.5163 19.5384 43.4741C19.6482 43.4572 19.7663 43.4404 19.8761 43.4235C20.0111 43.3982 20.0702 43.3729 20.0702 43.3308Z" fill="black"/>
<path d="M21.8776 44.2167H22.2659C22.384 44.2167 22.4769 44.1914 22.5529 44.1408C22.6288 44.0902 22.6626 43.9469 22.6626 43.7277L22.5866 42.2521C22.5866 42.0582 22.6119 41.957 22.6626 41.957C22.6879 41.957 22.7217 42.1425 22.747 42.5051C22.7723 42.8677 22.8061 43.2555 22.8314 43.6602C22.8652 43.9048 22.9158 44.065 22.9665 44.124C23.0171 44.1914 23.0846 44.2167 23.1606 44.2167H23.5658V44.5118H23.169C23.034 44.5118 22.9411 44.4781 22.8989 44.4191C22.8567 44.3601 22.7892 44.2252 22.7132 44.0312C22.6626 44.1661 22.6119 44.2842 22.5529 44.3769C22.4938 44.4697 22.4094 44.5118 22.2996 44.5118H21.8691V44.2167H21.8776Z" fill="black"/>
<path d="M23.1504 44.2162H23.564C23.6315 44.2162 23.7075 44.1993 23.7919 44.1656C23.8763 44.1318 23.9607 44.0981 24.0367 44.0644C23.986 43.9463 23.9185 43.6175 23.8425 43.0779C23.7666 42.5382 23.7328 42.2178 23.7328 42.1167C23.7328 42.0661 23.7413 42.0155 23.7666 41.9649C23.7919 41.9143 23.8257 41.8637 23.8679 41.8047L24.062 42.1167C23.9692 42.2094 23.927 42.319 23.927 42.4286C23.927 42.7828 23.9607 43.0947 24.0282 43.373C24.0958 43.6512 24.1633 43.8199 24.2224 43.9042C24.2899 43.9801 24.3659 44.0559 24.4587 44.115C24.5516 44.1824 24.6022 44.2499 24.6022 44.3258C24.6022 44.3595 24.5938 44.4016 24.5685 44.4522C24.5431 44.4944 24.5263 44.545 24.5094 44.5787C24.425 44.4944 24.3574 44.4354 24.3068 44.3932C24.2562 44.3595 24.1802 44.3426 24.0958 44.3426C24.0282 44.3426 23.9354 44.3764 23.8172 44.4354C23.6991 44.4944 23.6146 44.5281 23.564 44.5281H23.1504V44.2162Z" fill="black"/>
<path d="M25.092 44.4938C25.092 44.4517 25.1005 44.4011 25.1089 44.3421C25.1173 44.283 25.1173 44.2493 25.1173 44.2324C25.1173 44.1734 25.1173 44.1144 25.1089 44.0385C25.1005 43.9626 25.092 43.8952 25.092 43.8362L24.9401 42.6051L24.9316 42.4365C24.9316 42.3943 24.9485 42.3353 24.9738 42.2594C24.9992 42.1835 25.0414 42.0992 25.0836 41.998C25.0836 42.2173 25.092 42.4196 25.1173 42.6136L25.2271 43.541C25.2355 43.6085 25.2355 43.6844 25.244 43.7603C25.2524 43.8362 25.2524 43.9036 25.2524 43.9626C25.2524 44.0385 25.244 44.106 25.2271 44.1734C25.2102 44.2409 25.1764 44.3505 25.1258 44.5023L25.092 44.4938Z" fill="black"/>
<path d="M28.13 44.5107H27.7924C27.6489 44.5107 27.5476 44.4686 27.4969 44.3927C27.4463 44.3168 27.3956 44.1735 27.3365 43.9795C27.2437 44.0639 27.1846 44.1229 27.1424 44.1566C27.1002 44.1903 27.0496 44.2072 26.982 44.2072C26.8554 44.2072 26.7626 44.1903 26.695 44.1566C26.6275 44.1229 26.5938 44.0892 26.5938 44.047C26.5938 43.929 26.6528 43.8025 26.7794 43.676C26.9061 43.5495 27.058 43.4315 27.2268 43.3303C27.2268 43.2207 27.2353 43.1448 27.2606 43.0942C27.2859 43.0436 27.3028 43.0015 27.3197 42.9509L27.4463 43.7266C27.48 43.9205 27.5138 44.047 27.556 44.1145C27.5982 44.1819 27.6489 44.2156 27.6995 44.2156H27.7839H28.1216L28.13 44.5107ZM26.6782 42.4956L26.8301 42.2342L27.0749 42.4113L27.2353 42.1836L27.48 42.3438L27.3281 42.5967L27.0749 42.4365L26.9229 42.6642L26.6782 42.4956ZM27.2606 43.4905C27.134 43.5327 27.058 43.5664 27.0327 43.6001C27.0074 43.6254 26.9398 43.7013 26.847 43.8278C26.9061 43.8446 26.9567 43.8531 26.9989 43.8615C27.0411 43.8699 27.0833 43.8784 27.1171 43.8784C27.1846 43.8784 27.2521 43.8615 27.3197 43.8362L27.2606 43.4905Z" fill="black"/>
<path d="M27.6836 44.2151H28.131C28.1647 44.2151 28.2069 44.2066 28.2491 44.1982C28.2913 44.1898 28.342 44.1729 28.3926 44.1476C28.4433 44.1223 28.4939 44.0886 28.5277 44.0464C28.5614 44.0043 28.6121 43.9537 28.6543 43.8862L28.6881 43.9031C28.7218 44.038 28.7556 44.1308 28.7978 44.1645C28.84 44.1982 28.8822 44.2151 28.9328 44.2235H29.3549V44.5186H28.9328C28.8484 44.5186 28.7725 44.4933 28.7049 44.4343C28.6374 44.3753 28.5868 44.3162 28.553 44.2488C28.5192 44.2994 28.4602 44.3584 28.3673 44.4174C28.2745 44.4849 28.19 44.5186 28.1225 44.5186H27.6836V44.2151ZM28.342 43.3213L28.4939 43.0684L28.7387 43.237L28.5868 43.4899L28.342 43.3213Z" fill="black"/>
<path d="M28.9258 44.2162H29.4322C29.542 44.2162 29.6517 44.2078 29.7614 44.1825C29.8712 44.1572 29.9218 44.115 29.9218 44.0391C29.9218 44.0223 29.9134 43.997 29.888 43.9633L29.7952 43.7778C29.7783 43.7525 29.7699 43.7272 29.7614 43.7019C29.7614 43.6597 29.7783 43.6176 29.8036 43.567L29.9218 43.373C29.9556 43.4489 29.9809 43.5332 30.0062 43.6091C30.0231 43.6934 30.04 43.7693 30.04 43.8536C30.04 44.0897 29.9809 44.2584 29.8712 44.3595C29.7614 44.4607 29.6095 44.5029 29.4322 44.5029H28.9258V44.2162ZM29.3647 45.0341L29.5166 44.7811L29.7614 44.9498L29.9218 44.7137L30.175 44.8739L30.0231 45.1437L29.7614 44.9835L29.6179 45.2027L29.3647 45.0341Z" fill="black"/>
<path d="M32.824 44.5117H32.4441C32.2837 44.5117 32.174 44.4696 32.1149 44.3853C32.0558 44.301 31.9967 44.166 31.9377 43.9805C31.8448 44.1492 31.7435 44.2672 31.6507 44.3515C31.5494 44.4274 31.389 44.4696 31.1611 44.4696C31.0598 44.4696 30.9669 44.4527 30.891 44.4274C30.815 44.3937 30.7812 44.3431 30.7812 44.2757C30.7812 44.2166 30.7897 44.1576 30.815 44.0986C30.8488 44.0227 30.8741 43.9637 30.8825 43.93L30.9332 43.9384C30.9416 44.0058 30.9669 44.0649 31.0092 44.107C31.0514 44.1492 31.1611 44.166 31.313 44.166C31.5409 44.166 31.6929 44.1323 31.7688 44.0733C31.8532 44.0143 31.887 43.8878 31.887 43.6939C31.887 43.618 31.8617 43.4915 31.8195 43.306C31.7773 43.1205 31.752 43.0025 31.752 42.9434C31.752 42.9013 31.7604 42.8676 31.7688 42.8423C31.7773 42.817 31.8195 42.7495 31.8955 42.623C31.9292 42.935 31.9714 43.247 32.0052 43.559C32.0812 43.9553 32.2331 44.1745 32.4526 44.2166H32.4948H32.8324V44.5117H32.824Z" fill="black"/>
<path d="M32.377 44.2156H32.7737C32.8243 44.2156 32.8665 44.2072 32.9003 44.1987C32.9341 44.1903 32.9678 44.165 33.0185 44.1228L33.086 44.0554C33.1198 44.0217 33.2042 43.9036 33.3308 43.6928C33.4574 43.482 33.5756 43.3809 33.6853 43.3809C33.7613 43.3809 33.8372 43.4483 33.8963 43.5832C33.9554 43.7181 33.9892 43.8446 33.9892 43.9542C33.9892 44.0217 33.9638 44.0976 33.9132 44.165C33.8626 44.2409 33.8119 44.2746 33.7613 44.2746C33.7359 44.2746 33.7022 44.2662 33.6684 44.2493C33.6347 44.2325 33.6093 44.224 33.5924 44.2156L33.2632 44.0638L33.0353 44.3505C33.0016 44.3842 32.9678 44.418 32.9172 44.4601C32.8665 44.4938 32.8243 44.5107 32.7906 44.5107H32.377V44.2156ZM33.5671 43.6928C33.5249 43.6928 33.4912 43.7097 33.4658 43.735C33.4405 43.7603 33.4236 43.8024 33.4236 43.8446C33.4236 43.9036 33.4574 43.9458 33.5334 43.9626C33.6093 43.9795 33.6937 43.9879 33.8035 43.9879C33.7866 43.9205 33.7697 43.8615 33.7444 43.794C33.7022 43.7266 33.6515 43.6928 33.5671 43.6928Z" fill="black"/>
<path d="M4.25809 48.2467L4.99245 48.9802C5.11062 49.0983 5.22035 49.1826 5.30476 49.2247C5.38917 49.2669 5.47358 49.2922 5.55799 49.3006V49.3512H4.60416V49.3006C4.66325 49.3006 4.70546 49.2922 4.73078 49.2753C4.7561 49.2585 4.76454 49.2332 4.76454 49.2079C4.76454 49.1826 4.7561 49.1657 4.74766 49.1404C4.73922 49.1151 4.70546 49.0898 4.65481 49.0392L3.96265 48.3563V48.9971C3.96265 49.0983 3.9711 49.1657 3.97954 49.1994C3.98798 49.2247 4.0133 49.2416 4.03862 49.2669C4.08083 49.2922 4.12303 49.3006 4.17368 49.3006H4.24121V49.3512H3.38867V49.3006H3.4562C3.54061 49.3006 3.5997 49.2753 3.63346 49.2247C3.65878 49.191 3.66722 49.1151 3.66722 48.9971V47.707C3.66722 47.6058 3.65878 47.5384 3.65034 47.5047C3.6419 47.4794 3.61658 47.4625 3.59125 47.4456C3.54905 47.4203 3.50684 47.4119 3.4562 47.4119H3.38867V47.3613H4.24121V47.4119H4.17368C4.13147 47.4119 4.08083 47.4203 4.03862 47.4456C4.00486 47.4625 3.98798 47.4878 3.9711 47.5131C3.96266 47.5468 3.95421 47.6058 3.95421 47.707V48.3225C3.97109 48.3057 4.03862 48.2382 4.1568 48.137C4.45223 47.8672 4.62949 47.6902 4.68857 47.6058C4.7139 47.5637 4.73078 47.53 4.73078 47.5047C4.73078 47.4794 4.72234 47.4625 4.69701 47.4456C4.68013 47.4288 4.63793 47.4204 4.59572 47.4204H4.55352V47.3698H5.28788V47.4204C5.24567 47.4204 5.20347 47.4288 5.16971 47.4372C5.13594 47.4456 5.09374 47.4709 5.04309 47.4962C4.99245 47.53 4.92492 47.5805 4.85739 47.648C4.83207 47.6649 4.73922 47.766 4.55352 47.9515L4.25809 48.2467Z" fill="black"/>
<path d="M6.10613 47.9602V49.0479C6.10613 49.1322 6.11457 49.1912 6.12301 49.2165C6.13146 49.2418 6.15678 49.2671 6.17366 49.2756C6.19898 49.2924 6.24119 49.2924 6.30871 49.2924V49.343H5.65032V49.2924C5.71785 49.2924 5.76006 49.284 5.78538 49.2756C5.8107 49.2587 5.82758 49.2418 5.83602 49.2081C5.8529 49.1828 5.8529 49.1238 5.8529 49.0395V48.5251C5.8529 48.3818 5.84446 48.2806 5.83602 48.2385C5.82758 48.2047 5.81914 48.1879 5.80226 48.171C5.78538 48.1626 5.7685 48.1541 5.74317 48.1541C5.71785 48.1541 5.68409 48.1626 5.64188 48.1794L5.625 48.1288L6.03016 47.9602H6.10613ZM5.97952 47.252C6.02172 47.252 6.05549 47.2688 6.08925 47.2941C6.11457 47.3194 6.13146 47.3616 6.13146 47.3953C6.13146 47.4374 6.11457 47.4712 6.08925 47.5049C6.06393 47.5386 6.02172 47.5471 5.97952 47.5471C5.93731 47.5471 5.90355 47.5302 5.86979 47.5049C5.83602 47.4796 5.82758 47.4374 5.82758 47.3953C5.82758 47.3531 5.84446 47.3194 5.86979 47.2941C5.90355 47.2688 5.93731 47.252 5.97952 47.252Z" fill="black"/>
<path d="M6.86597 48.2457C7.02634 48.0517 7.17828 47.959 7.32178 47.959C7.39774 47.959 7.45683 47.9758 7.51592 48.018C7.56656 48.0517 7.60877 48.1192 7.64253 48.2035C7.66785 48.2625 7.67629 48.3553 7.67629 48.4733V49.0467C7.67629 49.131 7.68473 49.19 7.69318 49.2237C7.70162 49.249 7.7185 49.2659 7.74382 49.2828C7.76914 49.2996 7.81135 49.2996 7.87888 49.2996V49.3502H7.21204V49.2996H7.23737C7.29645 49.2996 7.3471 49.2912 7.37242 49.2743C7.39774 49.2575 7.41463 49.2237 7.42307 49.19C7.42307 49.1731 7.43151 49.131 7.43151 49.0551V48.4986C7.43151 48.3721 7.41463 48.2878 7.38086 48.2288C7.3471 48.1698 7.29645 48.1445 7.22048 48.1445C7.10231 48.1445 6.98414 48.2119 6.87441 48.3384V49.0467C6.87441 49.1394 6.88285 49.1984 6.89129 49.2153C6.90817 49.2406 6.92505 49.2659 6.95037 49.2743C6.9757 49.2912 7.02634 49.2912 7.09387 49.2912V49.3418H6.42704V49.2912H6.4608C6.52833 49.2912 6.57897 49.2743 6.6043 49.2406C6.62962 49.2069 6.63806 49.1394 6.63806 49.0382V48.5408C6.63806 48.3806 6.63806 48.2794 6.62962 48.2457C6.62118 48.2119 6.61274 48.1866 6.59586 48.1698C6.57897 48.1529 6.56209 48.1529 6.53677 48.1529C6.51145 48.1529 6.47768 48.1613 6.43548 48.1782L6.41016 48.1276L6.81532 47.959H6.88285V48.2457H6.86597Z" fill="black"/>
<path d="M8.35124 48.8625C8.26683 48.8203 8.20775 48.7698 8.1571 48.6939C8.1149 48.618 8.08957 48.5421 8.08957 48.4578C8.08957 48.3229 8.14022 48.2133 8.24151 48.1121C8.3428 48.0193 8.46941 47.9688 8.62979 47.9688C8.75641 47.9688 8.87458 48.0025 8.96743 48.0615H9.25442C9.29662 48.0615 9.32195 48.0615 9.33039 48.0615C9.33883 48.0615 9.33883 48.0699 9.34727 48.0699C9.35571 48.0784 9.35571 48.0952 9.35571 48.1205C9.35571 48.1458 9.35571 48.1627 9.34727 48.1711C9.34727 48.1795 9.33883 48.1795 9.33039 48.1795C9.32195 48.1795 9.29662 48.188 9.25442 48.188H9.07716C9.13625 48.2554 9.16157 48.3482 9.16157 48.4578C9.16157 48.5843 9.11092 48.6939 9.01807 48.7782C8.92522 48.8709 8.79017 48.9131 8.62979 48.9131C8.56226 48.9131 8.49474 48.9047 8.42721 48.8878C8.385 48.9215 8.35124 48.9553 8.3428 48.989C8.32592 49.0143 8.31748 49.0396 8.31748 49.0564C8.31748 49.0733 8.32592 49.0902 8.3428 49.107C8.35968 49.1239 8.39345 49.1323 8.43565 49.1408C8.46097 49.1408 8.5285 49.1492 8.63823 49.1492C8.84081 49.1576 8.97587 49.1576 9.03496 49.166C9.12781 49.1829 9.20377 49.2166 9.25442 49.2672C9.30506 49.3262 9.33883 49.3937 9.33883 49.4696C9.33883 49.5792 9.28818 49.6888 9.17845 49.7816C9.02651 49.9249 8.82393 50.0008 8.57915 50.0008C8.39345 50.0008 8.22463 49.9586 8.09801 49.8743C8.02205 49.8237 7.98828 49.7731 7.98828 49.7225C7.98828 49.6972 7.99672 49.672 8.00516 49.6551C8.02204 49.6214 8.05581 49.5708 8.10645 49.5033C8.1149 49.4949 8.16554 49.4443 8.25839 49.3431C8.20774 49.3094 8.17398 49.2841 8.14866 49.2588C8.13178 49.2335 8.1149 49.2082 8.1149 49.1745C8.1149 49.1408 8.13178 49.0986 8.1571 49.0564C8.18242 49.0143 8.24995 48.9468 8.35124 48.8625ZM8.33436 49.3515C8.29215 49.4021 8.24995 49.4443 8.23307 49.4949C8.20775 49.537 8.1993 49.5792 8.1993 49.6129C8.1993 49.6635 8.22463 49.6972 8.28371 49.7394C8.385 49.7984 8.5285 49.8321 8.7142 49.8321C8.89146 49.8321 9.01807 49.7984 9.10248 49.7394C9.18689 49.6804 9.2291 49.6129 9.2291 49.537C9.2291 49.4865 9.20377 49.4527 9.15313 49.4274C9.10248 49.4021 9.00119 49.3937 8.84925 49.3853C8.62135 49.3853 8.45253 49.3684 8.33436 49.3515ZM8.60447 48.0362C8.5285 48.0362 8.46941 48.0615 8.41877 48.1205C8.36812 48.1795 8.3428 48.2639 8.3428 48.3903C8.3428 48.5421 8.37656 48.6686 8.44409 48.7529C8.49474 48.8203 8.56226 48.8541 8.63823 48.8541C8.7142 48.8541 8.77329 48.8288 8.82393 48.7698C8.87458 48.7107 8.8999 48.6264 8.8999 48.5084C8.8999 48.3482 8.86614 48.2301 8.79861 48.1374C8.74796 48.0615 8.68888 48.0362 8.60447 48.0362Z" fill="black"/>
<path d="M10.783 47.4612V48.2453H11.1459C11.2303 48.2453 11.2894 48.2285 11.3316 48.1863C11.3738 48.1526 11.3992 48.0767 11.4076 47.9671H11.4582V48.6416H11.4076C11.4076 48.5657 11.3992 48.5067 11.3738 48.473C11.3569 48.4393 11.3316 48.4055 11.2979 48.3887C11.2641 48.3718 11.2135 48.3634 11.1459 48.3634H10.783V48.9957C10.783 49.0969 10.7914 49.1644 10.7998 49.1981C10.8083 49.2234 10.8336 49.2403 10.8589 49.2656C10.9011 49.2909 10.9433 49.2993 10.994 49.2993H11.07V49.3499H10.209V49.2993H10.2765C10.3609 49.2993 10.42 49.274 10.4538 49.2234C10.4791 49.1897 10.4875 49.1138 10.4875 48.9957V47.7057C10.4875 47.6045 10.4791 47.5371 10.4707 47.5033C10.4622 47.478 10.4369 47.4612 10.4116 47.4359C10.3694 47.4106 10.3272 47.4022 10.2765 47.4022H10.209V47.3516H11.6946L11.7115 47.79H11.6608C11.6355 47.6973 11.6017 47.6298 11.568 47.5877C11.5342 47.5455 11.492 47.5118 11.4414 47.4949C11.3907 47.478 11.3147 47.4696 11.2135 47.4696H10.783V47.4612Z" fill="black"/>
<path d="M12.7083 49.1569C12.5732 49.2665 12.4804 49.3255 12.4466 49.3424C12.396 49.3677 12.3369 49.3761 12.2778 49.3761C12.1849 49.3761 12.109 49.3424 12.0499 49.2834C11.9908 49.2159 11.957 49.1316 11.957 49.0304C11.957 48.963 11.9739 48.904 11.9992 48.8618C12.0414 48.7943 12.109 48.7353 12.2103 48.6763C12.3115 48.6173 12.4719 48.5414 12.7083 48.4571V48.4065C12.7083 48.2716 12.6829 48.1788 12.6407 48.1282C12.5985 48.0776 12.5395 48.0524 12.455 48.0524C12.396 48.0524 12.3453 48.0692 12.3115 48.1029C12.2778 48.1367 12.2525 48.1788 12.2525 48.221V48.3053C12.2525 48.3475 12.244 48.3896 12.2187 48.4065C12.1934 48.4318 12.1681 48.4402 12.1258 48.4402C12.0921 48.4402 12.0583 48.4233 12.033 48.3981C12.0077 48.3728 11.9992 48.339 11.9992 48.2969C11.9992 48.2126 12.0414 48.1367 12.1258 48.0608C12.2103 47.9933 12.3369 47.9512 12.4888 47.9512C12.607 47.9512 12.7083 47.968 12.7842 48.0102C12.8433 48.0439 12.8855 48.0861 12.9109 48.1535C12.9277 48.1957 12.9362 48.28 12.9362 48.4149V48.8702C12.9362 48.9967 12.9362 49.081 12.9446 49.1063C12.9531 49.1316 12.9615 49.1569 12.9699 49.1653C12.9784 49.1738 12.9953 49.1822 13.0121 49.1822C13.029 49.1822 13.0375 49.1822 13.0544 49.1738C13.0712 49.1569 13.1134 49.1232 13.1725 49.0642V49.1485C13.0628 49.2918 12.9531 49.3677 12.8602 49.3677C12.8096 49.3677 12.7758 49.3508 12.742 49.3171C12.7167 49.2918 12.7083 49.2412 12.7083 49.1569ZM12.7083 49.0642V48.5498C12.5563 48.6088 12.4635 48.651 12.4213 48.6763C12.3453 48.7185 12.2862 48.7606 12.2525 48.8112C12.2187 48.8618 12.2018 48.9124 12.2018 48.963C12.2018 49.0304 12.2187 49.0894 12.2693 49.14C12.3115 49.1906 12.3622 49.2075 12.4128 49.2075C12.4804 49.2075 12.5817 49.1569 12.7083 49.0642Z" fill="black"/>
<path d="M13.6785 47.252V48.2385C13.7882 48.1204 13.8726 48.0445 13.9401 48.0108C14.0077 47.9771 14.0667 47.9602 14.1343 47.9602C14.2102 47.9602 14.2778 47.9855 14.3284 48.0277C14.3875 48.0698 14.4213 48.1373 14.455 48.23C14.4719 48.289 14.4804 48.4071 14.4804 48.5757V49.0563C14.4804 49.1406 14.4888 49.1997 14.4972 49.2334C14.5057 49.2587 14.5226 49.2756 14.5479 49.2924C14.5732 49.3093 14.6154 49.3093 14.6745 49.3093V49.3599H14.0077V49.3093H14.0414C14.1005 49.3093 14.1512 49.3009 14.1765 49.284C14.2018 49.2671 14.2187 49.2334 14.2271 49.1997C14.2271 49.1828 14.2356 49.1407 14.2356 49.0648V48.5842C14.2356 48.4408 14.2271 48.3396 14.2102 48.2975C14.1934 48.2553 14.168 48.2132 14.1343 48.1963C14.1005 48.171 14.0583 48.1626 14.0161 48.1626C13.9655 48.1626 13.9148 48.1794 13.8642 48.2047C13.8135 48.23 13.746 48.2806 13.6785 48.3565V49.0732C13.6785 49.1659 13.6869 49.225 13.6953 49.2418C13.7038 49.2671 13.7207 49.284 13.7544 49.3009C13.7798 49.3177 13.8304 49.3261 13.8979 49.3261V49.3767H13.2311V49.3261C13.2902 49.3261 13.3408 49.3177 13.3746 49.3009C13.3915 49.2924 13.4084 49.2756 13.4252 49.2418C13.4337 49.2165 13.4421 49.1575 13.4421 49.0732V47.8506C13.4421 47.6988 13.4421 47.5976 13.4337 47.5639C13.4252 47.5302 13.4168 47.5049 13.3999 47.488C13.383 47.4712 13.3662 47.4712 13.3408 47.4712C13.3239 47.4712 13.2902 47.4796 13.2395 47.4965L13.2227 47.4459L13.6278 47.2772H13.6785V47.252Z" fill="black"/>
<path d="M15.5615 49.1569C15.4265 49.2665 15.3336 49.3255 15.2999 49.3424C15.2492 49.3677 15.1901 49.3761 15.1311 49.3761C15.0382 49.3761 14.9622 49.3424 14.9032 49.2834C14.8441 49.2159 14.8103 49.1316 14.8103 49.0304C14.8103 48.963 14.8272 48.904 14.8525 48.8618C14.8947 48.7943 14.9622 48.7353 15.0635 48.6763C15.1648 48.6173 15.3336 48.5414 15.5615 48.4571V48.4065C15.5615 48.2716 15.5362 48.1788 15.494 48.1282C15.4518 48.0776 15.3927 48.0524 15.3083 48.0524C15.2492 48.0524 15.1986 48.0692 15.1648 48.1029C15.1311 48.1367 15.1057 48.1788 15.1057 48.221V48.3053C15.1057 48.3475 15.0973 48.3896 15.072 48.4065C15.0466 48.4318 15.0213 48.4402 14.9791 48.4402C14.9454 48.4402 14.9116 48.4233 14.8863 48.3981C14.8609 48.3728 14.8525 48.339 14.8525 48.2969C14.8525 48.2126 14.8947 48.1367 14.9791 48.0608C15.0635 47.9933 15.1901 47.9512 15.3421 47.9512C15.4603 47.9512 15.5615 47.968 15.6375 48.0102C15.6966 48.0439 15.7388 48.0861 15.7641 48.1535C15.781 48.1957 15.7894 48.28 15.7894 48.4149V48.8702C15.7894 48.9967 15.7895 49.081 15.7979 49.1063C15.8063 49.1316 15.8148 49.1569 15.8232 49.1653C15.8317 49.1738 15.8485 49.1822 15.8654 49.1822C15.8823 49.1822 15.8907 49.1822 15.9076 49.1738C15.9245 49.1569 15.9667 49.1232 16.0258 49.0642V49.1485C15.9161 49.2918 15.8063 49.3677 15.7135 49.3677C15.6628 49.3677 15.6291 49.3508 15.5953 49.3171C15.5784 49.2918 15.5615 49.2412 15.5615 49.1569ZM15.5615 49.0642V48.5498C15.4096 48.6088 15.3168 48.651 15.2746 48.6763C15.1986 48.7185 15.1395 48.7606 15.1057 48.8112C15.072 48.8618 15.0551 48.9124 15.0551 48.963C15.0551 49.0304 15.072 49.0894 15.1226 49.14C15.1648 49.1906 15.2155 49.2075 15.2661 49.2075C15.3421 49.2075 15.4349 49.1569 15.5615 49.0642Z" fill="black"/>
<path d="M17.0886 49.1983C17.0211 49.2658 16.962 49.3164 16.8944 49.3501C16.8354 49.3838 16.7594 49.3923 16.6919 49.3923C16.5484 49.3923 16.4133 49.3332 16.3036 49.2068C16.1939 49.0803 16.1348 48.9285 16.1348 48.7346C16.1348 48.5407 16.1939 48.3636 16.3205 48.2034C16.4386 48.0432 16.599 47.9589 16.7932 47.9589C16.9113 47.9589 17.0126 48.001 17.0886 48.0685V47.8155C17.0886 47.6638 17.0886 47.5626 17.0801 47.5289C17.0717 47.4951 17.0633 47.4698 17.0464 47.453C17.0295 47.4361 17.0126 47.4361 16.9873 47.4361C16.962 47.4361 16.9282 47.4446 16.886 47.4614L16.8691 47.4108L17.2743 47.2422H17.3418V48.802C17.3418 48.9623 17.3418 49.055 17.3503 49.0887C17.3587 49.1225 17.3671 49.1477 17.384 49.1646C17.4009 49.1815 17.4178 49.1815 17.4431 49.1815C17.4684 49.1815 17.5022 49.173 17.5528 49.1562L17.5697 49.2068L17.1646 49.3754H17.097V49.1983H17.0886ZM17.0886 49.0972V48.3973C17.0801 48.3299 17.0633 48.2709 17.0379 48.2118C17.0126 48.1528 16.9704 48.1191 16.9198 48.0854C16.8691 48.0601 16.8269 48.0432 16.7763 48.0432C16.6919 48.0432 16.6159 48.0854 16.5484 48.1612C16.4555 48.2624 16.4133 48.4142 16.4133 48.6081C16.4133 48.8105 16.4555 48.9623 16.5399 49.0634C16.6243 49.173 16.7256 49.2236 16.8269 49.2236C16.9198 49.2321 17.0042 49.1899 17.0886 49.0972Z" fill="black"/>
<path d="M19.5449 49.3505L18.7684 47.6642V48.9964C18.7684 49.1228 18.7853 49.1987 18.8106 49.224C18.8443 49.2662 18.9034 49.283 18.9794 49.283H19.0469V49.3336H18.3463V49.283H18.4139C18.4983 49.283 18.5574 49.2577 18.5911 49.2071C18.6164 49.1734 18.6249 49.106 18.6249 48.9879V47.681C18.6249 47.5967 18.6164 47.5292 18.5911 47.4871C18.5742 47.4618 18.5489 47.4365 18.5152 47.4196C18.4814 47.4028 18.4223 47.3943 18.3379 47.3943V47.3438H18.9034L19.6294 48.912L20.3468 47.3438H20.9124V47.3943H20.8448C20.7604 47.3943 20.7013 47.4196 20.6591 47.4702C20.6338 47.504 20.6254 47.5714 20.6254 47.6894V48.9964C20.6254 49.1228 20.6423 49.1987 20.6676 49.224C20.7013 49.2662 20.7604 49.283 20.8364 49.283H20.9039V49.3336H20.0852V49.283H20.1527C20.2371 49.283 20.2962 49.2577 20.3299 49.2071C20.3553 49.1734 20.3637 49.106 20.3637 48.9879V47.6557L19.5956 49.3421L19.5449 49.3505Z" fill="black"/>
<path d="M21.3184 48.507C21.3184 48.7094 21.3691 48.8612 21.4619 48.9792C21.5632 49.0973 21.673 49.1479 21.808 49.1479C21.8924 49.1479 21.9768 49.1226 22.0359 49.072C22.1035 49.0214 22.1541 48.9371 22.2047 48.819L22.2469 48.8443C22.2301 48.9792 22.1625 49.1057 22.0697 49.2153C21.9684 49.3249 21.8418 49.3839 21.6983 49.3839C21.5379 49.3839 21.3944 49.3249 21.2847 49.1984C21.1665 49.072 21.1074 48.9033 21.1074 48.6925C21.1074 48.4649 21.1665 48.2794 21.2847 48.1529C21.4029 48.0264 21.5548 47.959 21.732 47.959C21.884 47.959 22.0106 48.0096 22.1034 48.1108C22.2047 48.2119 22.2469 48.3468 22.2469 48.507H21.3184ZM21.3184 48.4227H21.9431C21.9346 48.3384 21.9262 48.2794 21.9093 48.2372C21.884 48.1782 21.8502 48.136 21.7996 48.1108C21.7489 48.077 21.6983 48.0602 21.6476 48.0602C21.5632 48.0602 21.4957 48.0939 21.4282 48.1529C21.3691 48.2204 21.3269 48.3131 21.3184 48.4227Z" fill="black"/>
<path d="M23.3855 49.1983C23.3179 49.2658 23.2589 49.3164 23.1913 49.3501C23.1322 49.3838 23.0563 49.3923 22.9887 49.3923C22.8452 49.3923 22.7102 49.3332 22.6005 49.2068C22.4907 49.0803 22.4316 48.9285 22.4316 48.7346C22.4316 48.5407 22.4907 48.3636 22.6173 48.2034C22.7355 48.0432 22.8959 47.9589 23.09 47.9589C23.2082 47.9589 23.3095 48.001 23.3855 48.0685V47.8155C23.3855 47.6638 23.3855 47.5626 23.377 47.5289C23.3686 47.4951 23.3601 47.4698 23.3433 47.453C23.3264 47.4361 23.3095 47.4361 23.2842 47.4361C23.2589 47.4361 23.2251 47.4446 23.1829 47.4614L23.166 47.4108L23.5712 47.2422H23.6387V48.802C23.6387 48.9623 23.6387 49.055 23.6471 49.0887C23.6556 49.1225 23.664 49.1477 23.6809 49.1646C23.6978 49.1815 23.7147 49.1815 23.74 49.1815C23.7653 49.1815 23.7991 49.173 23.8497 49.1562L23.8666 49.2068L23.4614 49.3754H23.3939V49.1983H23.3855ZM23.3855 49.0972V48.3973C23.377 48.3299 23.3601 48.2709 23.3348 48.2118C23.3095 48.1528 23.2673 48.1191 23.2166 48.0854C23.166 48.0601 23.1238 48.0432 23.0732 48.0432C22.9887 48.0432 22.9128 48.0854 22.8452 48.1612C22.7524 48.2624 22.7102 48.4142 22.7102 48.6081C22.7102 48.8105 22.7524 48.9623 22.8368 49.0634C22.9212 49.173 23.0225 49.2236 23.1238 49.2236C23.2166 49.2321 23.3011 49.1899 23.3855 49.0972Z" fill="black"/>
<path d="M24.4147 47.9602V49.0479C24.4147 49.1322 24.4232 49.1912 24.4316 49.2165C24.44 49.2418 24.4654 49.2671 24.4823 49.2756C24.5076 49.2924 24.5498 49.2924 24.6173 49.2924V49.343H23.9589V49.2924C24.0264 49.2924 24.0686 49.284 24.094 49.2756C24.1193 49.2587 24.1362 49.2418 24.1446 49.2081C24.1615 49.1828 24.1615 49.1238 24.1615 49.0395V48.5251C24.1615 48.3818 24.1531 48.2806 24.1446 48.2385C24.1362 48.2047 24.1277 48.1879 24.1109 48.171C24.094 48.1626 24.0771 48.1541 24.0518 48.1541C24.0264 48.1541 23.9927 48.1626 23.9505 48.1794L23.9336 48.1288L24.3388 47.9602H24.4147ZM24.2881 47.252C24.3303 47.252 24.3641 47.2688 24.3894 47.2941C24.4147 47.3194 24.4316 47.3616 24.4316 47.3953C24.4316 47.4374 24.4147 47.4712 24.3894 47.5049C24.3641 47.5386 24.3219 47.5471 24.2881 47.5471C24.2459 47.5471 24.2121 47.5302 24.1784 47.5049C24.1531 47.4796 24.1362 47.4374 24.1362 47.3953C24.1362 47.3531 24.1531 47.3194 24.1784 47.2941C24.2121 47.2688 24.2459 47.252 24.2881 47.252Z" fill="black"/>
<path d="M25.9344 48.8359C25.9007 49.0129 25.8247 49.1479 25.7234 49.249C25.6137 49.3418 25.4955 49.3924 25.3689 49.3924C25.217 49.3924 25.0819 49.3249 24.9637 49.1984C24.8456 49.072 24.7949 48.8949 24.7949 48.6757C24.7949 48.4649 24.854 48.2878 24.9806 48.1613C25.1072 48.0264 25.2592 47.959 25.4364 47.959C25.5715 47.959 25.6812 47.9927 25.7656 48.0686C25.85 48.136 25.8922 48.2119 25.8922 48.2878C25.8922 48.3215 25.8838 48.3553 25.8585 48.3806C25.8332 48.4059 25.7994 48.4143 25.7572 48.4143C25.6981 48.4143 25.6559 48.3974 25.6221 48.3553C25.6053 48.3384 25.5968 48.2963 25.5884 48.2372C25.5799 48.1782 25.563 48.1361 25.5293 48.1023C25.4955 48.077 25.4449 48.0602 25.3858 48.0602C25.2845 48.0602 25.2085 48.0939 25.1494 48.1698C25.0735 48.2625 25.0313 48.3974 25.0313 48.5492C25.0313 48.7094 25.0735 48.8527 25.1494 48.9792C25.2254 49.1057 25.3351 49.1647 25.4702 49.1647C25.563 49.1647 25.6559 49.131 25.7319 49.0635C25.7825 49.0214 25.8416 48.9371 25.8922 48.819L25.9344 48.8359Z" fill="black"/>
<path d="M26.8977 49.1569C26.7627 49.2665 26.6698 49.3255 26.6361 49.3424C26.5854 49.3677 26.5263 49.3761 26.4672 49.3761C26.3744 49.3761 26.2984 49.3424 26.2393 49.2834C26.1802 49.2244 26.1465 49.1316 26.1465 49.0304C26.1465 48.963 26.1634 48.904 26.1887 48.8618C26.2309 48.7943 26.2984 48.7353 26.3997 48.6763C26.501 48.6173 26.6614 48.5414 26.8977 48.4571V48.4065C26.8977 48.2716 26.8724 48.1788 26.8302 48.1282C26.788 48.0776 26.7289 48.0524 26.6445 48.0524C26.5854 48.0524 26.5348 48.0692 26.501 48.1029C26.4672 48.1367 26.4419 48.1788 26.4419 48.221V48.3053C26.4419 48.3475 26.4335 48.3896 26.4082 48.4065C26.3828 48.4318 26.3575 48.4402 26.3153 48.4402C26.2815 48.4402 26.2478 48.4233 26.2225 48.3981C26.1971 48.3728 26.1887 48.339 26.1887 48.2969C26.1887 48.2126 26.2309 48.1367 26.3153 48.0608C26.3997 47.9933 26.5263 47.9512 26.6783 47.9512C26.7964 47.9512 26.8977 47.968 26.9737 48.0102C27.0328 48.0439 27.075 48.0861 27.1003 48.1535C27.1172 48.1957 27.1256 48.28 27.1256 48.4149V48.8702C27.1256 48.9967 27.1256 49.081 27.1341 49.1063C27.1425 49.1316 27.151 49.1569 27.1594 49.1653C27.1678 49.1738 27.1847 49.1822 27.2016 49.1822C27.2185 49.1822 27.2269 49.1822 27.2438 49.1738C27.2607 49.1569 27.3029 49.1232 27.362 49.0642V49.1485C27.2522 49.2918 27.1425 49.3677 27.0497 49.3677C26.999 49.3677 26.9653 49.3508 26.9315 49.3171C26.9062 49.2918 26.8977 49.2412 26.8977 49.1569ZM26.8977 49.0642V48.5498C26.7458 48.6088 26.6529 48.651 26.6107 48.6763C26.5348 48.7185 26.4757 48.7606 26.4419 48.8112C26.4082 48.8618 26.3913 48.9124 26.3913 48.963C26.3913 49.0304 26.4082 49.0894 26.4588 49.14C26.501 49.1906 26.5517 49.2075 26.6023 49.2075C26.6698 49.2075 26.7711 49.1569 26.8977 49.0642Z" fill="black"/>
<path d="M27.9362 47.252V49.0479C27.9362 49.1322 27.9447 49.1912 27.9531 49.2165C27.9615 49.2418 27.9869 49.2671 28.0122 49.2756C28.0375 49.2924 28.0881 49.3009 28.1557 49.3009V49.3514H27.4888V49.3009C27.5479 49.3009 27.5901 49.2924 27.6155 49.284C27.6408 49.2671 27.6577 49.2503 27.6661 49.2165C27.683 49.1912 27.683 49.1322 27.683 49.0479V47.8169C27.683 47.6651 27.683 47.5724 27.6745 47.5386C27.6661 47.5049 27.6577 47.4796 27.6408 47.4712C27.6239 47.4543 27.607 47.4543 27.5817 47.4543C27.5564 47.4543 27.5226 47.4627 27.4804 47.4796L27.4551 47.429L27.8602 47.2604H27.9362V47.252Z" fill="black"/>
<path d="M30.7877 47.3105L30.8299 47.9935H30.7877C30.7286 47.7912 30.6358 47.6394 30.5261 47.5551C30.4163 47.4623 30.2728 47.4202 30.1209 47.4202C29.9858 47.4202 29.8677 47.4539 29.7579 47.5213C29.6482 47.5888 29.5638 47.6984 29.5047 47.8417C29.4456 47.9851 29.4119 48.1706 29.4119 48.3898C29.4119 48.5669 29.4372 48.7271 29.4963 48.862C29.5554 48.9969 29.6398 49.0981 29.7579 49.1655C29.8761 49.233 30.0112 49.2751 30.1547 49.2751C30.2813 49.2751 30.3994 49.2498 30.5007 49.1908C30.602 49.1318 30.7118 49.0222 30.8299 48.862L30.8721 48.8957C30.7708 49.0728 30.6527 49.2077 30.5176 49.2836C30.3826 49.3594 30.2222 49.41 30.0449 49.41C29.7157 49.41 29.4541 49.2836 29.2768 49.039C29.1417 48.8535 29.0742 48.6428 29.0742 48.3898C29.0742 48.1874 29.1164 48.0104 29.2093 47.8417C29.3021 47.6731 29.4203 47.5466 29.5807 47.4539C29.7411 47.3611 29.9099 47.319 30.0956 47.319C30.2391 47.319 30.3826 47.3527 30.5261 47.4286C30.5683 47.4539 30.5936 47.4623 30.6105 47.4623C30.6358 47.4623 30.6611 47.4539 30.678 47.437C30.7033 47.4117 30.7202 47.3696 30.7286 47.3274H30.7877V47.3105Z" fill="black"/>
<path d="M31.5495 47.9602V49.0479C31.5495 49.1322 31.5579 49.1912 31.5664 49.2165C31.5748 49.2418 31.6001 49.2671 31.617 49.2756C31.6423 49.2924 31.6845 49.2924 31.7521 49.2924V49.343H31.0937V49.2924C31.1612 49.2924 31.2034 49.284 31.2287 49.2756C31.2541 49.2587 31.2709 49.2418 31.2794 49.2081C31.2963 49.1828 31.2963 49.1238 31.2963 49.0395V48.5251C31.2963 48.3818 31.2878 48.2806 31.2794 48.2385C31.2709 48.2047 31.2625 48.1879 31.2456 48.171C31.2287 48.1626 31.2119 48.1541 31.1865 48.1541C31.1612 48.1541 31.1274 48.1626 31.0852 48.1794L31.0684 48.1288L31.4735 47.9602H31.5495ZM31.4313 47.252C31.4735 47.252 31.5073 47.2688 31.5326 47.2941C31.5579 47.3194 31.5748 47.3616 31.5748 47.3953C31.5748 47.4374 31.5579 47.4712 31.5326 47.5049C31.5073 47.5386 31.4651 47.5471 31.4313 47.5471C31.3891 47.5471 31.3554 47.5302 31.3216 47.5049C31.2963 47.4796 31.2794 47.4374 31.2794 47.3953C31.2794 47.3531 31.2963 47.3194 31.3216 47.2941C31.3469 47.2688 31.3891 47.252 31.4313 47.252Z" fill="black"/>
<path d="M32.3158 47.5547V48.0016H32.6281V48.1027H32.3158V48.9796C32.3158 49.064 32.3327 49.123 32.3496 49.1567C32.3749 49.1904 32.4087 49.1989 32.4424 49.1989C32.4762 49.1989 32.51 49.1904 32.5353 49.1651C32.569 49.1483 32.5859 49.1145 32.6028 49.0724H32.6619C32.6281 49.1651 32.5775 49.241 32.5184 49.2916C32.4593 49.3422 32.3918 49.3675 32.3243 49.3675C32.282 49.3675 32.2314 49.3591 32.1892 49.3338C32.147 49.3085 32.1132 49.2747 32.0963 49.2242C32.0795 49.1736 32.0626 49.1061 32.0626 49.0049V48.1027H31.8516V48.0522C31.9022 48.0269 31.9613 47.9931 32.0204 47.9425C32.0795 47.892 32.1301 47.8329 32.1723 47.757C32.1976 47.7233 32.223 47.6474 32.2652 47.5547H32.3158Z" fill="black"/>
<path d="M32.6881 48.0026H33.3212V48.0532H33.2874C33.2452 48.0532 33.2115 48.0616 33.1861 48.0785C33.1608 48.0953 33.1524 48.1206 33.1524 48.1459C33.1524 48.1881 33.1693 48.2387 33.203 48.3061L33.5322 48.9891L33.8361 48.2387C33.853 48.1965 33.8614 48.1543 33.8614 48.1206C33.8614 48.1038 33.8614 48.0869 33.853 48.0785C33.8445 48.07 33.8361 48.0616 33.8192 48.0532C33.8023 48.0447 33.777 48.0447 33.7264 48.0447V47.9941H34.1653V48.0447C34.1315 48.0447 34.0978 48.0532 34.0809 48.07C34.064 48.0785 34.0387 48.1038 34.0134 48.1375C34.0049 48.1543 33.988 48.1881 33.9627 48.2471L33.414 49.5962C33.3634 49.7311 33.2874 49.8238 33.203 49.8913C33.1186 49.9587 33.0342 49.9925 32.9582 49.9925C32.8992 49.9925 32.8485 49.9756 32.8147 49.9419C32.781 49.9081 32.7557 49.866 32.7557 49.8238C32.7557 49.7817 32.7725 49.7479 32.7979 49.7226C32.8232 49.6973 32.8654 49.6889 32.9076 49.6889C32.9414 49.6889 32.9836 49.6973 33.0426 49.7226C33.0849 49.7395 33.1102 49.7479 33.1186 49.7479C33.1439 49.7479 33.1777 49.7311 33.2115 49.7058C33.2452 49.6805 33.279 49.613 33.3128 49.5287L33.4056 49.2926L32.916 48.2724C32.8992 48.2387 32.8738 48.2049 32.8485 48.1628C32.8232 48.129 32.8063 48.1038 32.7894 48.0953C32.7641 48.0785 32.7303 48.07 32.6797 48.0532L32.6881 48.0026Z" fill="black"/>
<path d="M11.1336 3.80365C11.3108 3.80365 11.4712 3.75306 11.6063 3.66031C11.4965 3.7109 11.3699 3.74462 11.2349 3.74462C10.7368 3.74462 10.3317 3.3399 10.3317 2.84243C10.3317 2.70753 10.357 2.58105 10.4077 2.47144C10.3232 2.60635 10.2642 2.76655 10.2642 2.94361C10.2726 3.41579 10.6609 3.80365 11.1336 3.80365ZM9.21748 5.47312C9.42851 5.47312 9.63109 5.4141 9.79147 5.30449C9.65641 5.36351 9.49603 5.39723 9.33566 5.39723C8.72791 5.39723 8.2299 4.89976 8.2299 4.29268C8.2299 4.13248 8.26366 3.98071 8.33119 3.8458C8.22145 4.00601 8.16237 4.20837 8.16237 4.41916C8.16237 5.00094 8.63506 5.47312 9.21748 5.47312ZM5.79891 6.21511C5.79891 5.99588 5.84956 5.78509 5.93397 5.59959C5.79047 5.82725 5.69762 6.09706 5.69762 6.38374C5.69762 6.83062 5.9002 7.22691 6.22096 7.49672C6.30537 7.53888 6.38133 7.5979 6.4573 7.65693C6.65988 7.76654 6.89623 7.82556 7.14102 7.82556C7.42801 7.82556 7.69812 7.74124 7.92602 7.58947C7.74032 7.67379 7.5293 7.72438 7.30984 7.72438C6.47419 7.72438 5.79891 7.04984 5.79891 6.21511ZM3.28352 15.4731C3.68868 15.4731 4.06852 15.3551 4.38084 15.1443C4.11917 15.2623 3.82374 15.3298 3.51142 15.3298C2.34658 15.3298 1.40119 14.3854 1.40119 13.2218C1.40119 12.9183 1.46872 12.6232 1.58689 12.3618C1.38431 12.6822 1.2577 13.0532 1.2577 13.4579C1.27458 14.5709 2.16932 15.4731 3.28352 15.4731ZM14.4255 1.89808C14.071 1.89808 13.784 1.61141 13.784 1.24885C13.784 1.1561 13.8009 1.06335 13.8431 0.987463C13.784 1.08021 13.7418 1.19825 13.7418 1.32473C13.7418 1.662 14.0204 1.94024 14.358 1.94024C14.4846 1.94024 14.6028 1.90652 14.6956 1.83906C14.6112 1.87279 14.5184 1.89808 14.4255 1.89808ZM12.1718 1.86436C12.1718 1.75475 12.1971 1.64513 12.2393 1.54395C12.1634 1.662 12.1212 1.80534 12.1212 1.94867C12.1212 2.36183 12.4588 2.69066 12.864 2.69066C13.0159 2.69066 13.151 2.6485 13.2691 2.57262C13.1678 2.61478 13.0665 2.64007 12.9484 2.64007C12.5179 2.64007 12.1718 2.28594 12.1718 1.86436ZM17.6922 0.742944C17.7597 0.742944 17.8188 0.72608 17.8694 0.692354C17.8272 0.709217 17.7766 0.72608 17.7259 0.72608C17.5402 0.72608 17.3967 0.582742 17.3967 0.397245C17.3967 0.346655 17.4052 0.304496 17.4305 0.253906C17.3967 0.304496 17.3799 0.363518 17.3799 0.430971C17.3714 0.599605 17.5149 0.742944 17.6922 0.742944ZM16.713 0.987463C16.7974 0.987463 16.8734 0.962168 16.9325 0.920009C16.8818 0.945304 16.8228 0.962168 16.7552 0.962168C16.5273 0.962168 16.3416 0.776671 16.3416 0.549015C16.3416 0.489993 16.3585 0.42254 16.3838 0.37195C16.3416 0.439403 16.3163 0.515288 16.3163 0.591174C16.3163 0.810397 16.4936 0.987463 16.713 0.987463ZM3.74777 20.7092C3.42701 20.8525 3.08094 20.9284 2.70954 20.9284C1.30834 20.9284 0.168818 19.7901 0.168818 18.3989C0.168818 18.0279 0.244787 17.6738 0.388283 17.3618C0.143496 17.7412 0 18.1965 0 18.6771C0 20.0178 1.08888 21.097 2.42254 21.097C2.91212 21.097 3.36793 20.9537 3.74777 20.7092ZM15.6326 1.39218C15.7423 1.39218 15.8436 1.35846 15.9365 1.29944C15.8605 1.33316 15.7845 1.35846 15.7001 1.35846C15.3878 1.35846 15.143 1.10551 15.143 0.801966C15.143 0.717649 15.1599 0.633332 15.1937 0.565878C15.1346 0.650195 15.1008 0.751376 15.1008 0.869419C15.1008 1.1561 15.3456 1.39218 15.6326 1.39218ZM5.08987 11.1223C5.45283 11.1223 5.78203 11.0127 6.06902 10.8357C5.83267 10.9369 5.57945 11.0043 5.3009 11.0043C4.26266 11.0043 3.42701 10.1696 3.42701 9.13247C3.42701 8.85422 3.4861 8.60127 3.59583 8.36519C3.41013 8.64343 3.3004 8.9807 3.3004 9.34326C3.3004 10.3213 4.10229 11.1223 5.08987 11.1223ZM29.712 31.7547C29.712 31.5355 29.7627 31.3247 29.8471 31.1392C29.6952 31.3668 29.6107 31.6366 29.6107 31.9233C29.6107 32.7243 30.2607 33.3651 31.0541 33.3651C31.3496 33.3651 31.6197 33.2724 31.8476 33.129C31.6534 33.2134 31.4509 33.2639 31.223 33.2639C30.3873 33.2639 29.712 32.5894 29.712 31.7547ZM25.7532 33.9638C25.7532 33.6771 25.8123 33.4073 25.9305 33.1628C25.7364 33.4579 25.6266 33.8036 25.6266 34.183C25.6266 35.2201 26.4623 36.0548 27.5005 36.0548C27.8804 36.0548 28.2264 35.9452 28.5219 35.7513C28.2771 35.8609 28.007 35.9284 27.7115 35.9284C26.6395 35.9199 25.7532 35.043 25.7532 33.9638ZM32.4216 29.4444C32.4216 29.2673 32.4638 29.0987 32.5313 28.9469C32.4131 29.1324 32.3456 29.3516 32.3456 29.5793C32.3456 30.2285 32.8689 30.7513 33.5189 30.7513C33.7552 30.7513 33.9747 30.6839 34.152 30.5574C34 30.6248 33.8312 30.667 33.6539 30.667C32.9702 30.667 32.4216 30.1189 32.4216 29.4444ZM34.3883 27.1425C34.3883 27.0161 34.4136 26.8896 34.4643 26.78C34.3799 26.9065 34.3292 27.0667 34.3292 27.2353C34.3292 27.699 34.7006 28.07 35.1649 28.07C35.3337 28.07 35.4941 28.0194 35.6207 27.9351C35.5109 27.9857 35.3843 28.011 35.2577 28.011C34.785 28.011 34.3883 27.6232 34.3883 27.1425ZM4.98014 26.4006C4.63406 26.5608 4.24578 26.6451 3.84062 26.6451C2.29593 26.6451 1.04667 25.3972 1.04667 23.8626C1.04667 23.4579 1.13108 23.07 1.29146 22.7243C1.02135 23.1459 0.860973 23.6434 0.860973 24.1746C0.860973 25.6417 2.05114 26.839 3.5283 26.839C4.06008 26.8306 4.5581 26.6704 4.98014 26.4006ZM36.2959 25.785C35.9499 25.785 35.6713 25.5068 35.6713 25.1611C35.6713 25.0684 35.6882 24.984 35.7304 24.8997C35.6713 24.9925 35.6376 25.1021 35.6376 25.2286C35.6376 25.5574 35.9077 25.8272 36.2369 25.8272C36.355 25.8272 36.4732 25.7935 36.5661 25.726C36.4732 25.7682 36.3804 25.785 36.2959 25.785ZM8.4156 33.4326C8.4156 33.0026 8.50845 32.5894 8.67726 32.2184C8.39027 32.6653 8.22145 33.1965 8.22145 33.7614C8.22145 35.3297 9.49603 36.6029 11.066 36.6029C11.64 36.6029 12.1718 36.4343 12.6192 36.1476C12.2478 36.3162 11.8342 36.409 11.4037 36.409C9.74926 36.4005 8.4156 35.0683 8.4156 33.4326ZM20.7309 35.4731C20.7309 35.1274 20.8069 34.7985 20.9335 34.5034C20.7056 34.8575 20.5705 35.2876 20.5705 35.7429C20.5705 37.0076 21.5919 38.0279 22.858 38.0279C23.3138 38.0279 23.7443 37.8929 24.0988 37.6569C23.8034 37.7918 23.4742 37.8677 23.1281 37.8677C21.8029 37.8677 20.7309 36.7968 20.7309 35.4731ZM3.70556 29.183C3.70556 28.753 3.79841 28.3398 3.96723 27.9689C3.68024 28.4157 3.51142 28.9469 3.51142 29.5119C3.51142 31.0801 4.786 32.3533 6.35601 32.3533C6.92999 32.3533 7.46177 32.1847 7.9007 31.898C7.5293 32.0666 7.11569 32.1594 6.68521 32.1594C5.03923 32.151 3.70556 30.8188 3.70556 29.183ZM14.5521 35.4646C14.5521 35.0599 14.6366 34.672 14.7969 34.3263C14.5268 34.7395 14.3664 35.2454 14.3664 35.7766C14.3664 37.2437 15.5651 38.441 17.0338 38.441C17.574 38.441 18.072 38.2808 18.4856 38.011C18.1395 38.1712 17.7513 38.2555 17.3461 38.2555C15.8014 38.2471 14.5521 36.9992 14.5521 35.4646Z" fill="#E6B557"/>
<path d="M5.78939 26.8796C5.41799 27.0229 5.08879 27.2506 4.82712 27.5541C4.54857 27.8661 4.37132 28.2286 4.27847 28.6081C4.23626 28.7936 4.21094 28.9875 4.21094 29.1814C4.21094 29.5356 4.28691 29.8897 4.43884 30.2101C4.54013 30.4293 4.67519 30.6317 4.83557 30.8172C5.24073 31.2725 5.79783 31.5676 6.40558 31.6266C6.49843 31.635 6.59128 31.6435 6.68413 31.6435C6.86983 31.6435 7.06397 31.6182 7.25811 31.576C7.63795 31.4833 8.00091 31.3062 8.31322 31.028C8.6171 30.7666 8.845 30.4293 8.9885 30.0667C9.09823 29.7885 9.15732 29.485 9.15732 29.1814C9.15732 29.0887 9.14888 28.9959 9.14043 28.9032C9.07291 28.3045 8.77748 27.7396 8.32167 27.3349C8.13597 27.1663 7.93338 27.0398 7.71392 26.9386C7.38472 26.7868 7.03865 26.7109 6.68413 26.7109C6.37181 26.7109 6.07638 26.77 5.78939 26.8796Z" fill="#F6B452"/>
<path d="M10.5003 31.1296C10.1289 31.2729 9.79973 31.5006 9.53806 31.8041C9.25951 32.1161 9.08225 32.4786 8.9894 32.8581C8.9472 33.0436 8.92188 33.2375 8.92188 33.4314C8.92188 33.7856 8.99784 34.1397 9.14978 34.4601C9.25107 34.6709 9.38613 34.8817 9.5465 35.0672C9.95167 35.5225 10.5088 35.8092 11.1165 35.8766C11.2094 35.885 11.3022 35.8935 11.3951 35.8935C11.5892 35.8935 11.7749 35.8682 11.969 35.826C12.3489 35.7333 12.7118 35.5562 13.0242 35.278C13.328 35.0166 13.5559 34.6793 13.6994 34.3167C13.8007 34.0554 13.8598 33.7771 13.8683 33.4989V33.364C13.8683 33.2965 13.8598 33.2206 13.8514 33.1532C13.7838 32.5545 13.4884 31.9896 13.0326 31.5849C12.8469 31.4162 12.6443 31.2898 12.4249 31.1886C12.0957 31.0368 11.7496 30.9609 11.3951 30.9609C11.0912 30.9609 10.7873 31.02 10.5003 31.1296Z" fill="#F6B452"/>
<path d="M16.5013 33.3549C16.1552 33.4898 15.8513 33.7006 15.6066 33.9788C15.3449 34.2655 15.1845 34.6028 15.1001 34.9569C15.0579 35.1256 15.041 35.311 15.041 35.4881C15.041 35.8169 15.1085 36.1458 15.252 36.4409C15.3449 36.6348 15.4715 36.8287 15.6234 37.0058C15.9948 37.4274 16.5182 37.6972 17.0753 37.7562C17.1597 37.7647 17.2441 37.7731 17.3369 37.7731C17.5142 37.7731 17.6915 37.7478 17.8687 37.7141C18.2232 37.6298 18.5524 37.4611 18.8479 37.2082C19.1264 36.9637 19.3374 36.6517 19.4725 36.3144C19.5653 36.0699 19.6244 35.8169 19.6329 35.5556V35.4291C19.6329 35.3701 19.6244 35.2942 19.616 35.2352C19.5569 34.6787 19.2784 34.1559 18.8563 33.7849C18.6875 33.6247 18.4934 33.5151 18.2908 33.4139C17.9869 33.2706 17.6661 33.2031 17.3369 33.2031C17.05 33.2031 16.763 33.2537 16.5013 33.3549Z" fill="#F6B452"/>
<path d="M3.00513 21.7033C2.65906 21.8383 2.34674 22.0575 2.10195 22.3357C1.84873 22.6308 1.67147 22.9681 1.58706 23.3222C1.54485 23.4993 1.51953 23.6764 1.51953 23.8534C1.51953 24.1823 1.58706 24.5195 1.73055 24.8231C1.8234 25.0254 1.95002 25.2194 2.10195 25.3964C2.4818 25.818 3.00513 26.0963 3.57067 26.1637C3.65508 26.1721 3.73949 26.1806 3.83234 26.1806C4.0096 26.1806 4.1953 26.1637 4.36412 26.1131C4.72708 26.0288 5.06472 25.8602 5.36015 25.5988C5.64714 25.3543 5.85816 25.0423 5.99322 24.6966C6.09451 24.4352 6.15359 24.1485 6.15359 23.8619C6.15359 23.7775 6.14515 23.6848 6.13671 23.6005C6.07763 23.0356 5.79908 22.5128 5.36859 22.1334C5.19133 21.9816 5.00563 21.8551 4.80305 21.7624C4.49917 21.619 4.16154 21.5516 3.83234 21.5516C3.55379 21.5431 3.2668 21.6022 3.00513 21.7033Z" fill="#F6B452"/>
<path d="M22.4107 33.6256C22.1152 33.7436 21.8451 33.9291 21.6341 34.1652C21.4146 34.4182 21.2627 34.7048 21.1952 35.0168C21.1614 35.1686 21.1445 35.3204 21.1445 35.4806C21.1445 35.7672 21.2036 36.0455 21.3218 36.3069C21.4062 36.4839 21.5075 36.6441 21.6425 36.7959C21.9633 37.1585 22.4191 37.3946 22.9087 37.4536C22.9847 37.462 23.0606 37.462 23.1281 37.462C23.2801 37.462 23.4405 37.4451 23.5924 37.4114C23.8963 37.3355 24.1917 37.1922 24.4449 36.973C24.6897 36.7622 24.8754 36.4924 24.9851 36.1973C25.0611 35.9865 25.1118 35.7672 25.1202 35.548V35.43C25.1202 35.3709 25.1118 35.3204 25.1118 35.2698C25.0527 34.7807 24.8163 34.3338 24.4534 34.005C24.3014 33.8701 24.1411 33.7689 23.9638 33.6846C23.7021 33.5666 23.4151 33.5075 23.1281 33.5075C22.8749 33.4907 22.6301 33.5328 22.4107 33.6256Z" fill="#F6B452"/>
<path d="M1.94953 16.4327C1.63721 16.5507 1.35022 16.7531 1.13076 17.006C0.894413 17.2759 0.742476 17.5794 0.666508 17.9082C0.624303 18.0684 0.607422 18.2286 0.607422 18.3973C0.607422 18.7008 0.666509 18.9959 0.801563 19.2742C0.885972 19.4597 0.995704 19.6367 1.1392 19.7969C1.48528 20.1848 1.96641 20.4293 2.48131 20.4883C2.55727 20.4968 2.64168 20.4968 2.71765 20.4968C2.87803 20.4968 3.04685 20.4799 3.20722 20.4462C3.53642 20.3703 3.84029 20.2101 4.1104 19.9824C4.36363 19.7548 4.56621 19.4765 4.68439 19.1561C4.77724 18.92 4.82788 18.6587 4.82788 18.3973C4.82788 18.313 4.81944 18.2371 4.811 18.1612C4.75191 17.6469 4.50713 17.1662 4.11884 16.829C3.95847 16.6856 3.78121 16.576 3.60395 16.4917C3.3254 16.3652 3.02997 16.2978 2.72609 16.2978C2.44754 16.2894 2.18587 16.3399 1.94953 16.4327Z" fill="#F6B452"/>
<path d="M27.1287 32.4462C26.8839 32.5389 26.6645 32.6907 26.4872 32.8931C26.3099 33.0954 26.1833 33.34 26.1242 33.5929C26.0989 33.7194 26.082 33.8459 26.082 33.9723C26.082 34.2 26.1327 34.4361 26.234 34.6553C26.3015 34.7986 26.3859 34.9335 26.4956 35.0516C26.7657 35.3551 27.1287 35.5406 27.5339 35.5912C27.593 35.5996 27.652 35.5996 27.7196 35.5996C27.8462 35.5996 27.9728 35.5828 28.0994 35.5575C28.3526 35.4985 28.589 35.3804 28.8 35.1949C29.0026 35.0179 29.1545 34.7986 29.2474 34.5625C29.3149 34.3939 29.3487 34.2168 29.3571 34.0314V33.9302C29.3571 33.888 29.3487 33.8374 29.3487 33.7953C29.3065 33.399 29.1123 33.028 28.8084 32.7582C28.6903 32.6486 28.5468 32.5642 28.4033 32.4968C28.1923 32.3956 27.9559 32.345 27.7196 32.345C27.517 32.3366 27.3144 32.3703 27.1287 32.4462Z" fill="#F6B452"/>
<path d="M2.88631 11.5927C2.62465 11.6938 2.3883 11.854 2.2026 12.0733C2.00846 12.2925 1.88185 12.5539 1.81432 12.8237C1.78055 12.9586 1.76367 13.0935 1.76367 13.2284C1.76367 13.4813 1.81432 13.7259 1.92405 13.962C1.99158 14.1137 2.08443 14.2655 2.2026 14.392C2.48959 14.7124 2.88631 14.9232 3.3168 14.9653C3.38433 14.9738 3.44342 14.9738 3.51094 14.9738C3.646 14.9738 3.78105 14.9569 3.91611 14.9232C4.18622 14.8557 4.44788 14.7292 4.66735 14.5353C4.87837 14.3498 5.04719 14.1137 5.14848 13.8523C5.22445 13.65 5.26665 13.4392 5.26665 13.22C5.26665 13.1525 5.25821 13.0851 5.25821 13.026C5.20757 12.596 4.99654 12.1997 4.68423 11.9131C4.54918 11.795 4.40568 11.7023 4.25374 11.6348C4.02584 11.5252 3.77261 11.4746 3.51938 11.4746C3.29992 11.4746 3.0889 11.5168 2.88631 11.5927Z" fill="#F6B452"/>
<path d="M4.74408 7.67215C4.50773 7.7649 4.30515 7.90823 4.13633 8.09373C3.95907 8.28766 3.84934 8.51532 3.79025 8.75983C3.76493 8.87788 3.74805 8.99592 3.74805 9.1224C3.74805 9.34162 3.79869 9.56928 3.89154 9.77164C3.95063 9.90654 4.03504 10.0415 4.14477 10.1595C4.398 10.4462 4.75252 10.6317 5.13236 10.6738C5.14924 10.6738 5.15768 10.6738 5.17456 10.6823H5.43623C5.5122 10.6738 5.58817 10.6654 5.66414 10.6485C5.90048 10.5895 6.12839 10.4799 6.33097 10.3028C6.51667 10.1426 6.6686 9.92341 6.75301 9.69575C6.82054 9.51869 6.8543 9.32476 6.8543 9.13926C6.8543 9.08024 6.85431 9.02122 6.84586 8.9622C6.80366 8.58277 6.61796 8.22864 6.33097 7.97569C6.2128 7.87451 6.08618 7.79019 5.95113 7.72274C5.74854 7.62999 5.52064 7.5794 5.30118 7.5794C5.10704 7.57097 4.91289 7.60469 4.74408 7.67215Z" fill="#F6B452"/>
<path d="M6.85462 5.0504C6.66892 5.12628 6.5001 5.2359 6.36505 5.38767C6.22999 5.54787 6.13714 5.73337 6.0865 5.92729C6.06118 6.02004 6.05273 6.12122 6.05273 6.21397C6.05273 6.39104 6.0865 6.5681 6.16247 6.73674C6.21311 6.84635 6.28064 6.95596 6.36505 7.04871C6.56763 7.27636 6.85462 7.42813 7.1585 7.46186C7.20914 7.47029 7.25134 7.47029 7.30199 7.47029C7.40328 7.47029 7.49613 7.46186 7.58898 7.43657C7.78312 7.39441 7.96882 7.30166 8.1292 7.15832C8.28114 7.02341 8.39931 6.85478 8.46684 6.66928C8.52592 6.52594 8.55125 6.37417 8.55125 6.21397C8.55125 6.16338 8.55125 6.12122 8.54281 6.07063C8.50904 5.76709 8.36555 5.48042 8.1292 5.26962C8.03635 5.18531 7.93506 5.11785 7.82533 5.06726C7.65651 4.99138 7.47925 4.94922 7.30199 4.94922C7.15849 4.96608 6.99812 4.99138 6.85462 5.0504Z" fill="#F6B452"/>
<path d="M9.01406 3.43925C8.87901 3.48984 8.7524 3.57415 8.65955 3.6922C8.55826 3.80181 8.49073 3.94515 8.45696 4.08848C8.44008 4.15594 8.43164 4.23182 8.43164 4.29928C8.43164 4.42575 8.45696 4.56066 8.51605 4.6787C8.54981 4.76302 8.60046 4.8389 8.66799 4.90636C8.81992 5.07499 9.02251 5.1846 9.25041 5.2099C9.28417 5.2099 9.31794 5.21833 9.3517 5.21833C9.41923 5.21833 9.4952 5.2099 9.56272 5.19304C9.70622 5.15931 9.84127 5.09186 9.95945 4.99067C10.0692 4.88949 10.1536 4.76302 10.2127 4.63654C10.2549 4.53536 10.2718 4.41732 10.2718 4.30771C10.2718 4.27398 10.2718 4.24026 10.2633 4.20653C10.238 3.9873 10.1283 3.77651 9.95945 3.62474C9.89192 3.56572 9.81595 3.51513 9.73154 3.4814C9.61337 3.43081 9.47832 3.39709 9.3517 3.39709C9.22509 3.38022 9.11536 3.39709 9.01406 3.43925Z" fill="#F6B452"/>
<path d="M35.0053 26.4594C34.8955 26.5016 34.8027 26.569 34.7183 26.6533C34.6423 26.7461 34.5832 26.8557 34.5579 26.9653C34.5495 27.0159 34.541 27.0749 34.541 27.1339C34.541 27.2351 34.5663 27.3447 34.6085 27.4375C34.6423 27.5049 34.6761 27.564 34.7267 27.6146C34.8449 27.7495 35.0137 27.8338 35.191 27.8591C35.2163 27.8591 35.2416 27.8591 35.2754 27.8591C35.3345 27.8591 35.3851 27.8506 35.4442 27.8422C35.5539 27.8169 35.6637 27.7579 35.7565 27.682C35.8409 27.6061 35.9169 27.5049 35.9591 27.3953C35.9929 27.311 36.0097 27.2267 36.0097 27.1339C36.0097 27.1087 36.0097 27.0834 36.0013 27.0496C35.9844 26.8726 35.9 26.7039 35.7649 26.5859C35.7059 26.5353 35.6468 26.5016 35.5877 26.4678C35.4948 26.4257 35.3935 26.4004 35.2838 26.4004C35.1741 26.4088 35.0897 26.4257 35.0053 26.4594Z" fill="#F6B452"/>
<path d="M10.9636 2.14196C10.8538 2.18412 10.7525 2.25158 10.6681 2.34432C10.5837 2.43707 10.5331 2.54668 10.4993 2.66473C10.4909 2.72375 10.4824 2.78277 10.4824 2.84179C10.4824 2.94297 10.5077 3.05259 10.5499 3.15377C10.5837 3.22122 10.6175 3.28024 10.6681 3.33926C10.7863 3.47417 10.9636 3.56692 11.1408 3.58378C11.1661 3.58378 11.1915 3.59221 11.2252 3.59221C11.2843 3.59221 11.3434 3.58378 11.394 3.57535C11.5122 3.55005 11.6219 3.49103 11.7148 3.40672C11.8076 3.33083 11.8752 3.22965 11.9174 3.11161C11.9511 3.02729 11.968 2.93454 11.968 2.84179C11.968 2.8165 11.968 2.78277 11.9596 2.75748C11.9427 2.57198 11.8498 2.40335 11.7148 2.2853C11.6557 2.23471 11.5966 2.19255 11.5291 2.16726C11.4278 2.1251 11.3265 2.0998 11.2168 2.0998C11.1408 2.09137 11.048 2.10824 10.9636 2.14196Z" fill="#F6B452"/>
<path d="M12.7124 1.25669C12.6196 1.29042 12.5267 1.35787 12.4592 1.43376C12.3832 1.51807 12.341 1.61082 12.3157 1.712C12.3073 1.76259 12.2988 1.81318 12.2988 1.86377C12.2988 1.95652 12.3157 2.04927 12.3579 2.13359C12.3832 2.19261 12.417 2.2432 12.4592 2.29379C12.5605 2.41183 12.7124 2.48772 12.8728 2.50458C12.8981 2.50458 12.9235 2.51301 12.9403 2.51301C12.991 2.51301 13.0416 2.50458 13.0923 2.49615C13.1936 2.47085 13.2864 2.4287 13.3708 2.35281C13.4468 2.28536 13.5059 2.20104 13.5481 2.09986C13.5734 2.04084 13.5903 1.97339 13.5903 1.90593V1.83848C13.5903 1.82162 13.5903 1.81318 13.5903 1.79632C13.5734 1.63612 13.4974 1.49278 13.3793 1.3916C13.3286 1.34944 13.278 1.31571 13.2189 1.29042C13.1345 1.24826 13.0416 1.2314 12.9488 1.2314C12.8644 1.21453 12.7884 1.2314 12.7124 1.25669Z" fill="#F6B452"/>
<path d="M14.3912 0.717416C14.3321 0.717416 14.2815 0.734279 14.2308 0.751143C14.1549 0.78487 14.0789 0.835459 14.0198 0.894481C13.9607 0.961935 13.9185 1.04625 13.9016 1.12214C13.8932 1.1643 13.8848 1.20645 13.8848 1.24861C13.8848 1.3245 13.9016 1.40038 13.9354 1.46784C13.9523 1.51843 13.9861 1.56058 14.0198 1.60274C14.1042 1.70392 14.2308 1.76294 14.3659 1.77981C14.3828 1.77981 14.4081 1.77981 14.425 1.77981C14.4672 1.77981 14.5094 1.77138 14.5516 1.76294C14.636 1.74608 14.712 1.70392 14.7795 1.6449C14.847 1.58588 14.8977 1.51843 14.923 1.43411C14.9483 1.37509 14.9568 1.30763 14.9568 1.24018C14.9568 1.21488 14.9568 1.19802 14.9568 1.18116C14.9399 1.05468 14.8808 0.928208 14.7795 0.843891C14.7373 0.810164 14.6951 0.776438 14.6444 0.759574C14.5854 0.734279 14.5178 0.717416 14.4503 0.708984H14.3912V0.717416Z" fill="#F6B452"/>
<path d="M15.5298 0.363186C15.4623 0.388481 15.3948 0.430639 15.3525 0.489661C15.3019 0.548683 15.2681 0.616136 15.2513 0.692021C15.2428 0.725748 15.2344 0.759475 15.2344 0.801633C15.2344 0.869087 15.2513 0.93654 15.2766 0.995562C15.2935 1.03772 15.3188 1.07145 15.3525 1.11361C15.4285 1.19792 15.5298 1.25694 15.648 1.26538C15.6649 1.26538 15.6817 1.26538 15.6986 1.26538C15.7324 1.26538 15.7746 1.26538 15.8084 1.25694C15.8759 1.24008 15.9519 1.20635 16.0025 1.15576C16.0616 1.10517 16.1038 1.04615 16.1291 0.970267C16.146 0.919677 16.1629 0.860655 16.1629 0.801633C16.1629 0.78477 16.1629 0.767907 16.1629 0.751043C16.1544 0.641431 16.0953 0.531819 16.0109 0.455934C15.9772 0.430639 15.935 0.396912 15.8928 0.380049C15.8337 0.354754 15.7662 0.337891 15.6986 0.337891C15.6395 0.337891 15.5805 0.346322 15.5298 0.363186Z" fill="#F6B452"/>
<path d="M16.6374 0.227086C16.5868 0.24395 16.5361 0.277676 16.5024 0.319835C16.4686 0.361993 16.4433 0.412583 16.4264 0.471605C16.418 0.4969 16.418 0.522195 16.418 0.54749C16.418 0.59808 16.4264 0.64867 16.4517 0.690829C16.4686 0.724555 16.4855 0.74985 16.5108 0.775145C16.5699 0.842599 16.6459 0.884757 16.7303 0.893189C16.7472 0.893189 16.7556 0.893189 16.7725 0.893189C16.7978 0.893189 16.8231 0.893189 16.8569 0.884758C16.9075 0.867894 16.9582 0.851031 17.0004 0.808872C17.0426 0.775146 17.0764 0.724556 17.0932 0.673965C17.1017 0.640239 17.1101 0.606512 17.1186 0.572785V0.522195C17.1186 0.513763 17.1186 0.513763 17.1186 0.505332C17.1101 0.421015 17.0679 0.34513 17.0088 0.286108C16.9835 0.260813 16.9582 0.24395 16.9244 0.227086C16.8822 0.210223 16.8316 0.193359 16.7809 0.193359C16.7218 0.201791 16.6796 0.210223 16.6374 0.227086Z" fill="#F6B452"/>
<path d="M17.7077 0.117188C17.6824 0.117188 17.657 0.125619 17.6317 0.134051C17.5895 0.150914 17.5557 0.176209 17.5304 0.209936C17.4967 0.243663 17.4798 0.285821 17.4713 0.32798C17.4629 0.344843 17.4629 0.370138 17.4629 0.387001C17.4629 0.42916 17.4713 0.462886 17.4882 0.505045C17.4967 0.53034 17.5135 0.555635 17.5304 0.572499C17.5726 0.623089 17.6401 0.656815 17.7077 0.665247C17.7161 0.665247 17.7246 0.665247 17.7414 0.665247C17.7668 0.665247 17.7836 0.665247 17.8005 0.656815C17.8427 0.648384 17.8849 0.63152 17.9187 0.597793C17.9525 0.564067 17.9778 0.53034 17.9947 0.488182C18.0031 0.454455 18.0116 0.420728 18.0116 0.387001C18.0116 0.378569 18.0116 0.370138 18.0116 0.361706C18.0031 0.294253 17.9693 0.235231 17.9187 0.184641C17.8934 0.167778 17.8765 0.150914 17.8512 0.142482C17.8174 0.134051 17.7921 0.125619 17.7583 0.117188H17.7077Z" fill="#F6B452"/>
<path d="M36.1011 24.6711C36.0251 24.7048 35.9576 24.7469 35.8985 24.8144C35.8394 24.8819 35.8056 24.9577 35.7803 25.0336C35.7719 25.0758 35.7634 25.1095 35.7634 25.1517C35.7634 25.2276 35.7803 25.3034 35.8056 25.3709C35.831 25.4131 35.8563 25.4636 35.89 25.4974C35.9745 25.5901 36.0926 25.6491 36.2192 25.666C36.2361 25.666 36.2614 25.666 36.2783 25.666C36.3205 25.666 36.3543 25.6576 36.3965 25.6491C36.4725 25.6323 36.5569 25.5901 36.616 25.5311C36.675 25.4721 36.7257 25.4046 36.7595 25.3287C36.7763 25.2781 36.7932 25.2276 36.7932 25.177V25.1179C36.7932 25.1095 36.7932 25.0926 36.7932 25.0842C36.7763 24.9577 36.7173 24.8397 36.6244 24.7554C36.5906 24.7217 36.54 24.6879 36.4978 24.6711C36.4303 24.6373 36.3543 24.6289 36.2783 24.6289C36.2277 24.6373 36.1602 24.6542 36.1011 24.6711Z" fill="#F6B452"/>
<path d="M36.7094 23.1365C36.6335 23.1618 36.5744 23.2124 36.5153 23.2714C36.4646 23.3305 36.4224 23.4063 36.4056 23.4822C36.3971 23.516 36.3887 23.5581 36.3887 23.5918C36.3887 23.6593 36.4056 23.7267 36.4309 23.7942C36.4478 23.8364 36.4815 23.8785 36.5068 23.9122C36.5828 24.005 36.6925 24.064 36.8192 24.0724C36.836 24.0724 36.8529 24.0724 36.8698 24.0724C36.9036 24.0724 36.9458 24.0724 36.9795 24.0556C37.0555 24.0387 37.123 24.005 37.1906 23.946C37.2496 23.8954 37.2919 23.8279 37.3256 23.752C37.3425 23.7015 37.3594 23.6424 37.3594 23.575C37.3594 23.5581 37.3594 23.5412 37.3594 23.516C37.3425 23.3979 37.2834 23.2883 37.199 23.204C37.1652 23.1703 37.123 23.145 37.0808 23.1281C37.0133 23.1028 36.9458 23.0859 36.8782 23.0859C36.8276 23.1028 36.7601 23.1112 36.7094 23.1365Z" fill="#F6B452"/>
<path d="M37.1491 22.0397C37.09 22.065 37.0393 22.0987 36.9971 22.1493C36.9549 22.1999 36.9212 22.2589 36.9127 22.3179C36.9043 22.3432 36.9043 22.377 36.9043 22.4107C36.9043 22.4613 36.9127 22.5203 36.9381 22.5709C36.9549 22.6046 36.9803 22.6384 37.0056 22.6721C37.0731 22.748 37.1575 22.7901 37.2588 22.7986C37.2757 22.7986 37.2926 22.7986 37.301 22.7986C37.3263 22.7986 37.3601 22.7986 37.3939 22.7901C37.453 22.7733 37.512 22.748 37.5627 22.7058C37.6133 22.6636 37.6471 22.6046 37.6724 22.554C37.6893 22.5203 37.6977 22.4781 37.6977 22.436V22.3938C37.6977 22.3854 37.6977 22.377 37.6893 22.3685C37.6809 22.2758 37.6302 22.183 37.5627 22.1156C37.5289 22.0903 37.5036 22.065 37.4698 22.0566C37.4192 22.0313 37.3601 22.0228 37.301 22.0228C37.2419 22.0144 37.1913 22.0228 37.1491 22.0397Z" fill="#F6B452"/>
<path d="M37.3757 21.0636C37.3251 21.0805 37.2744 21.1142 37.2407 21.1564C37.1985 21.1986 37.1731 21.2491 37.1647 21.2997C37.1562 21.325 37.1563 21.3503 37.1563 21.384C37.1563 21.4346 37.1647 21.4768 37.19 21.5274C37.2069 21.5611 37.2238 21.5864 37.2491 21.6117C37.2997 21.6792 37.3842 21.7129 37.4686 21.7213C37.4854 21.7213 37.4939 21.7213 37.5108 21.7213C37.5361 21.7213 37.5614 21.7213 37.5952 21.7129C37.6458 21.696 37.6965 21.6707 37.7471 21.637C37.7893 21.6033 37.8231 21.5527 37.84 21.5021C37.8568 21.4599 37.8653 21.4178 37.8653 21.3756C37.8653 21.3588 37.8653 21.3503 37.8653 21.3335C37.8568 21.2491 37.8146 21.1733 37.7556 21.1142C37.7302 21.0889 37.6965 21.0721 37.6711 21.0552C37.6289 21.0383 37.5783 21.0215 37.5276 21.0215C37.4601 21.0468 37.4179 21.0552 37.3757 21.0636Z" fill="#F6B452"/>
<path d="M37.5796 20.2532C37.5374 20.2701 37.5036 20.2954 37.4699 20.3291C37.4361 20.3628 37.4192 20.405 37.4108 20.4471C37.4023 20.4724 37.4023 20.4893 37.4023 20.5146C37.4023 20.5567 37.4108 20.5989 37.4277 20.6326C37.4361 20.6579 37.453 20.6832 37.4699 20.7001C37.5121 20.7507 37.5796 20.7844 37.6471 20.7928C37.6556 20.7928 37.6725 20.7928 37.6809 20.7928C37.7062 20.7928 37.7231 20.7928 37.7484 20.7844C37.7906 20.776 37.8328 20.7507 37.8666 20.7254C37.9004 20.6916 37.9257 20.6579 37.9426 20.6158C37.951 20.5905 37.9594 20.5652 37.9594 20.5399V20.4977C37.9594 20.4893 37.9594 20.4893 37.9594 20.4808C37.951 20.4134 37.9172 20.3459 37.8666 20.3038C37.8497 20.2869 37.8244 20.2701 37.7991 20.2616C37.7653 20.2448 37.7231 20.2363 37.6809 20.2363C37.6471 20.2363 37.6134 20.2448 37.5796 20.2532Z" fill="#F6B452"/>
<path d="M37.7567 19.5703C37.7398 19.5703 37.7314 19.5787 37.7145 19.5787C37.6807 19.5956 37.6554 19.6125 37.6385 19.6378C37.6217 19.6631 37.6048 19.6884 37.5963 19.7221C37.5879 19.7389 37.5879 19.7558 37.5879 19.7642C37.5879 19.798 37.5963 19.8233 37.6048 19.8486C37.6132 19.8654 37.6217 19.8823 37.6385 19.8991C37.6723 19.9329 37.7145 19.9582 37.7652 19.9666C37.7736 19.9666 37.782 19.9666 37.7905 19.9666C37.8074 19.9666 37.8242 19.9666 37.8411 19.9582C37.8749 19.9497 37.9002 19.9329 37.9255 19.916C37.9509 19.8907 37.9677 19.8654 37.9846 19.8401C37.9931 19.8148 37.9931 19.7895 37.9931 19.7642C37.9931 19.7558 37.9931 19.7474 37.9931 19.7474C37.9846 19.6968 37.9677 19.6546 37.9255 19.6209C37.9086 19.6125 37.8918 19.5956 37.8749 19.5872C37.858 19.5787 37.8411 19.5703 37.8242 19.5703H37.7567Z" fill="#F6B452"/>
<path d="M37.7894 18.9635C37.7641 18.9719 37.7388 18.9888 37.7219 19.0141C37.705 19.0394 37.6881 19.0647 37.6797 19.09C37.6797 19.0984 37.6797 19.1153 37.6797 19.1321C37.6797 19.1574 37.6797 19.1827 37.6966 19.208C37.705 19.2249 37.7135 19.2333 37.7219 19.2502C37.7557 19.2839 37.7894 19.3008 37.8316 19.3092H37.8485C37.8654 19.3092 37.8738 19.3092 37.8907 19.3008C37.916 19.2923 37.9414 19.2839 37.9667 19.2586C37.9836 19.2418 38.0004 19.2165 38.0089 19.1912C38.0173 19.1743 38.0258 19.149 38.0258 19.1321C38.0258 19.1237 38.0258 19.1153 38.0258 19.1153C38.0258 19.0731 38.0004 19.031 37.9667 19.0057C37.9498 18.9888 37.9414 18.9804 37.9245 18.9719C37.8991 18.9635 37.8738 18.9551 37.8485 18.9551C37.8316 18.9551 37.8063 18.9551 37.7894 18.9635Z" fill="#F6B452"/>
<path d="M37.8155 18.4147C37.7902 18.4231 37.7733 18.44 37.7564 18.4568C37.7395 18.4737 37.7311 18.499 37.7227 18.5243C37.7227 18.5327 37.7227 18.5496 37.7227 18.558C37.7227 18.5749 37.7311 18.6002 37.7395 18.617C37.748 18.6255 37.7564 18.6423 37.7649 18.6508C37.7902 18.6761 37.8239 18.6929 37.8577 18.7014C37.8661 18.7014 37.8662 18.7014 37.8746 18.7014C37.883 18.7014 37.8999 18.7014 37.9084 18.7014C37.9337 18.6929 37.9506 18.6845 37.9759 18.6676C37.9928 18.6508 38.0096 18.6339 38.0181 18.6086C38.0265 18.5917 38.0265 18.5749 38.0265 18.558C38.0265 18.5496 38.0265 18.5496 38.0265 18.5412C38.0265 18.5074 38.0012 18.4737 37.9759 18.4484C37.9674 18.44 37.9506 18.4315 37.9421 18.4231C37.9252 18.4147 37.8999 18.4062 37.883 18.4062C37.8493 18.4063 37.8324 18.4063 37.8155 18.4147Z" fill="#F6B452"/>
<path d="M37.8572 17.959C37.8487 17.959 37.8403 17.9674 37.8234 17.9674C37.8065 17.9758 37.7896 17.9843 37.7812 18.0011C37.7643 18.018 37.7559 18.0349 37.7559 18.0517C37.7559 18.0602 37.7559 18.0686 37.7559 18.077C37.7559 18.0939 37.7559 18.1108 37.7643 18.1276C37.7643 18.136 37.7727 18.1529 37.7812 18.1613C37.7981 18.1782 37.8318 18.1951 37.8572 18.2035C37.8656 18.2035 37.8656 18.2035 37.874 18.2035C37.8825 18.2035 37.8909 18.2035 37.8994 18.1951C37.9162 18.1866 37.9331 18.1782 37.95 18.1698C37.9669 18.1613 37.9753 18.1445 37.9838 18.1276C37.9838 18.1192 37.9922 18.1108 37.9922 18.1023V18.077C37.9922 18.0517 37.9753 18.018 37.95 18.0011C37.9416 17.9927 37.9331 17.9843 37.9247 17.9843C37.9162 17.9758 37.8994 17.9758 37.8909 17.9758H37.8572V17.959Z" fill="#F6B452"/>
<path d="M37.841 17.6476C37.8241 17.6561 37.8072 17.6645 37.7988 17.6813C37.7819 17.6982 37.7734 17.7066 37.7734 17.7319C37.7734 17.7404 37.7734 17.7488 37.7734 17.7572C37.7734 17.7741 37.7734 17.791 37.7819 17.8078C37.7819 17.8163 37.7903 17.8247 37.7988 17.8331C37.8072 17.85 37.8241 17.8584 37.841 17.8668H37.9169C37.9338 17.8668 37.9423 17.8584 37.9507 17.85C37.9676 17.8416 37.976 17.8247 37.976 17.8078C37.976 17.7994 37.9845 17.791 37.9845 17.7825V17.7572C37.9845 17.7319 37.9676 17.7066 37.9507 17.6898C37.9423 17.6813 37.9338 17.6729 37.9254 17.6729C37.9085 17.6645 37.8916 17.6645 37.8832 17.6645C37.8663 17.6392 37.8494 17.6392 37.841 17.6476Z" fill="#F6B452"/>
<path d="M37.8143 17.3776C37.7974 17.3776 37.789 17.386 37.7805 17.4029C37.7721 17.4113 37.7637 17.4282 37.7637 17.4366C37.7637 17.445 37.7637 17.445 37.7637 17.4535C37.7637 17.4619 37.7637 17.4788 37.7721 17.4872C37.7721 17.4956 37.7805 17.504 37.7805 17.504C37.789 17.5125 37.7974 17.5209 37.8143 17.5293H37.8734C37.8818 17.5293 37.8903 17.5209 37.8987 17.5125C37.9072 17.504 37.9156 17.4956 37.924 17.4788C37.924 17.4703 37.9325 17.4619 37.9325 17.445V17.4366C37.9325 17.4197 37.924 17.3944 37.9072 17.386C37.8987 17.386 37.8903 17.3776 37.8903 17.3776C37.8818 17.3691 37.865 17.3691 37.8565 17.3691C37.8312 17.3691 37.8228 17.3691 37.8143 17.3776Z" fill="#F6B452"/>
<path d="M37.7818 17.1074C37.7734 17.1074 37.7649 17.1159 37.7649 17.1243C37.7565 17.1327 37.7565 17.1411 37.748 17.1496V17.158C37.748 17.1664 37.748 17.1749 37.7565 17.1833C37.7565 17.1917 37.7565 17.1917 37.7649 17.2002C37.7734 17.2086 37.7818 17.217 37.7987 17.217C37.7987 17.217 37.7987 17.217 37.8071 17.217C37.8156 17.217 37.8156 17.217 37.824 17.217C37.8325 17.217 37.8409 17.2086 37.8493 17.2002C37.8578 17.1917 37.8578 17.1917 37.8662 17.1833C37.8662 17.1749 37.8662 17.1664 37.8662 17.1664C37.8662 17.1664 37.8662 17.1664 37.8662 17.158C37.8662 17.1411 37.8578 17.1327 37.8493 17.1243C37.8493 17.1243 37.8409 17.1159 37.8325 17.1159C37.824 17.1159 37.8156 17.1159 37.8071 17.1159C37.7987 17.1074 37.7902 17.1074 37.7818 17.1074Z" fill="#F6B452"/>
<path d="M19.6076 0C19.5991 0 19.5991 -1.28783e-07 19.5907 0.00843156C19.5654 0.0168632 19.5401 0.0337266 19.5232 0.05059C19.5063 0.075885 19.4894 0.10118 19.481 0.126475C19.481 0.143339 19.4725 0.15177 19.4725 0.168634C19.4725 0.193929 19.481 0.219224 19.4894 0.244519C19.4979 0.261382 19.5063 0.269814 19.5147 0.286677C19.5401 0.320404 19.5823 0.337267 19.6245 0.345699C19.6329 0.345699 19.6414 0.345699 19.6414 0.345699C19.6582 0.345699 19.6667 0.345699 19.6836 0.337267C19.7089 0.328836 19.7342 0.320404 19.7595 0.295109C19.7764 0.278246 19.7933 0.252951 19.8102 0.227656C19.8186 0.210792 19.8186 0.185497 19.8186 0.168634C19.8186 0.160202 19.8186 0.15177 19.8186 0.15177C19.8186 0.109612 19.7933 0.0674535 19.7595 0.0421584C19.7426 0.0337267 19.7342 0.0168634 19.7173 0.0168634C19.7089 0.00843175 19.7004 0.00843156 19.692 0.00843156H19.6076V0Z" fill="#F6B452"/>
<path d="M19.0856 0.00843155C19.0518 0.0168632 19.0265 0.0421584 19.0096 0.0674534C18.9843 0.0927485 18.9759 0.126475 18.9674 0.15177C18.9674 0.168634 18.959 0.185497 18.959 0.202361C18.959 0.227656 18.9674 0.261382 18.9759 0.286677C18.9843 0.303541 18.9927 0.320404 19.0096 0.337267C19.0434 0.370994 19.0856 0.396289 19.1362 0.404721C19.1447 0.404721 19.1531 0.404721 19.1616 0.404721C19.1784 0.404721 19.1953 0.404721 19.2122 0.396289C19.246 0.387858 19.2713 0.370994 19.2966 0.354131C19.3219 0.337267 19.3388 0.303541 19.3473 0.278245C19.3557 0.25295 19.3641 0.227656 19.3641 0.202361C19.3641 0.193929 19.3641 0.185497 19.3641 0.177065C19.3557 0.126475 19.3388 0.0843167 19.2966 0.05059C19.2797 0.0337266 19.2629 0.0252951 19.246 0.0168634C19.2207 6.40774e-08 19.1953 0 19.1616 0C19.1362 0 19.1109 -1.28783e-07 19.0856 0.00843155Z" fill="#F6B452"/>
<path d="M18.4697 0.0754572C18.4359 0.0923206 18.4021 0.109184 18.3853 0.134479C18.3599 0.159774 18.3431 0.193501 18.3346 0.235659C18.3346 0.252522 18.3262 0.269386 18.3262 0.286249C18.3262 0.319976 18.3346 0.353703 18.3515 0.378998C18.3599 0.395861 18.3684 0.421156 18.3853 0.43802C18.419 0.480178 18.4697 0.505473 18.5288 0.513905C18.5372 0.513905 18.5456 0.513905 18.5541 0.513905C18.571 0.513905 18.5878 0.513905 18.6047 0.505473C18.6385 0.497041 18.6722 0.480178 18.706 0.454883C18.7313 0.429588 18.7567 0.395861 18.7651 0.362134C18.7735 0.336839 18.782 0.311544 18.782 0.277817C18.782 0.269386 18.782 0.260954 18.782 0.252522C18.7735 0.201932 18.7482 0.14291 18.706 0.109184C18.6891 0.0923204 18.6722 0.0838889 18.6554 0.0754572C18.6216 0.0670255 18.5963 0.0585938 18.5625 0.0585938C18.5203 0.0585937 18.495 0.0585938 18.4697 0.0754572Z" fill="#F6B452"/>
<path d="M20.0733 0.0162444C20.048 0.0246761 20.0311 0.0415394 20.0142 0.0584028C19.9974 0.0752662 19.9889 0.100561 19.9805 0.125856C19.9805 0.134288 19.9805 0.14272 19.9805 0.159583C19.9805 0.176446 19.9805 0.201741 19.9889 0.218605C19.9973 0.235468 20.0058 0.2439 20.0142 0.252331C20.0396 0.277627 20.0733 0.29449 20.1071 0.302921H20.124C20.1408 0.302921 20.1493 0.302921 20.1577 0.302921C20.183 0.29449 20.1999 0.286058 20.2168 0.269195C20.2337 0.252332 20.2506 0.235468 20.259 0.210173C20.2675 0.201741 20.2675 0.184878 20.2675 0.176446V0.134288C20.259 0.100561 20.2421 0.075266 20.2168 0.0499709C20.2084 0.0415392 20.1915 0.0331076 20.1831 0.0246759C20.1662 0.0162442 20.1408 0.0078125 20.1155 0.0078125C20.1155 0.0078125 20.0902 0.00781269 20.0733 0.0162444Z" fill="#F6B452"/>
<path d="M20.5207 0.0431236C20.5038 0.0515553 20.4869 0.0599871 20.4784 0.0768505C20.4616 0.0937138 20.4531 0.110577 20.4531 0.12744C20.4531 0.135872 20.4531 0.144304 20.4531 0.152735C20.4531 0.169599 20.4531 0.186462 20.4616 0.203326C20.47 0.211757 20.47 0.228621 20.4784 0.237052C20.4953 0.262347 20.5207 0.270779 20.5544 0.279211H20.5713C20.5797 0.279211 20.5882 0.279211 20.5966 0.279211C20.6135 0.270779 20.6304 0.262347 20.6473 0.253916C20.6641 0.237052 20.6726 0.220189 20.681 0.211757C20.6895 0.194894 20.6895 0.178031 20.6895 0.169599V0.152735C20.6895 0.12744 20.6726 0.0937138 20.6473 0.0768505C20.6388 0.0684188 20.6304 0.059987 20.6219 0.059987C20.6051 0.0515554 20.5882 0.0515552 20.5713 0.0515552C20.546 0.0346918 20.5291 0.0431236 20.5207 0.0431236Z" fill="#F6B452"/>
<path d="M20.9667 0.135385C20.9582 0.143816 20.9413 0.143817 20.9329 0.16068C20.9245 0.169112 20.916 0.185975 20.916 0.194407C20.916 0.202838 20.916 0.202838 20.916 0.21127C20.916 0.219702 20.916 0.236565 20.9245 0.244997C20.9329 0.253429 20.9329 0.26186 20.9413 0.26186C20.9498 0.270292 20.9582 0.278724 20.9751 0.287155H21.0342C21.0426 0.287155 21.0511 0.278723 21.0595 0.270292C21.068 0.26186 21.0764 0.253428 21.0848 0.236565C21.0933 0.228133 21.0933 0.219702 21.0933 0.21127V0.202838C21.0933 0.185975 21.0848 0.16068 21.068 0.152248C21.0595 0.143816 21.0595 0.143816 21.0511 0.135385C21.0426 0.126953 21.0257 0.126953 21.0173 0.126953C20.992 0.126953 20.9751 0.126953 20.9667 0.135385Z" fill="#F6B452"/>
<path d="M30.7745 30.581C30.5888 30.6569 30.42 30.7665 30.285 30.9267C30.1499 31.0869 30.0571 31.2724 30.0064 31.4664C29.9811 31.5591 29.9727 31.6603 29.9727 31.753C29.9727 31.9301 30.0064 32.1156 30.0824 32.2758C30.133 32.3854 30.2006 32.4866 30.285 32.5793C30.4876 32.8154 30.7745 32.9588 31.0869 32.9925C31.1291 32.9925 31.1797 33.0009 31.2304 33.0009C31.3316 33.0009 31.4245 32.9841 31.5173 32.9672C31.7115 32.9166 31.8972 32.8239 32.0576 32.689C32.2095 32.554 32.3277 32.3854 32.4036 32.1999C32.4627 32.0566 32.4881 31.9048 32.4881 31.7446C32.4881 31.7024 32.488 31.6519 32.4796 31.6097C32.4458 31.3062 32.2939 31.0195 32.066 30.8087C31.9732 30.7244 31.8719 30.6569 31.7537 30.6063C31.5933 30.5304 31.4076 30.4883 31.2304 30.4883C31.07 30.4967 30.918 30.5304 30.7745 30.581Z" fill="#F5BA55"/>
<path d="M33.2828 28.4983C33.1308 28.5573 32.9958 28.6501 32.886 28.7766C32.7763 28.903 32.7003 29.0548 32.6581 29.215C32.6413 29.2909 32.6328 29.3752 32.6328 29.4511C32.6328 29.5944 32.6666 29.7378 32.7257 29.8727C32.7679 29.957 32.8185 30.0413 32.886 30.1256C33.0549 30.3111 33.2828 30.4292 33.5276 30.4629H33.7555C33.7977 30.4545 33.8399 30.4545 33.8736 30.4376C34.034 30.4039 34.1775 30.328 34.3126 30.2184C34.4392 30.1088 34.532 29.9739 34.5911 29.8221C34.6333 29.7209 34.6502 29.6113 34.6586 29.5017V29.4005C34.6586 29.3836 34.6586 29.3584 34.6502 29.3415C34.6249 29.097 34.4983 28.8609 34.3126 28.7007C34.2366 28.6332 34.1522 28.5826 34.0593 28.5405C33.9243 28.4815 33.7808 28.4477 33.6373 28.4477C33.5191 28.4309 33.3925 28.4477 33.2828 28.4983Z" fill="#F6B452"/>
<path d="M30.8002 22.5214C30.8002 22.4961 30.7833 22.4877 30.7664 22.4793C30.5554 22.3528 30.3359 22.2432 30.108 22.1589C29.4412 21.9143 28.7406 21.8047 28.0315 21.7794C27.5926 21.7626 27.1537 21.7541 26.7148 21.7963C26.4447 21.8216 26.1745 21.8385 25.9044 21.8722C25.6174 21.9059 25.3304 21.9565 25.0519 22.0324C24.6636 22.1336 24.2753 22.2432 23.8955 22.3781C23.4059 22.5552 22.9248 22.7491 22.4605 22.9767C21.8697 23.2634 21.2873 23.5585 20.7302 23.8958C20.3419 24.1319 19.9451 24.3595 19.5569 24.6041C19.1686 24.8401 18.7887 25.0847 18.4173 25.3376C17.6408 25.8435 16.8727 26.3494 16.0876 26.8385C16.0201 26.8806 16.0117 26.9059 16.0708 26.9649C16.248 27.1251 16.4168 27.2938 16.5941 27.4624C16.7038 27.5636 16.7038 27.572 16.822 27.4877C17.2778 27.1757 17.7336 26.8722 18.2063 26.5771C18.8141 26.1892 19.4218 25.8098 20.038 25.4472C20.4854 25.1774 20.9412 24.916 21.4054 24.6799C22.1651 24.2837 22.9417 23.9127 23.7267 23.5754C24.3513 23.314 24.9844 23.0442 25.6428 22.8671C26.0057 22.766 26.3856 22.6901 26.757 22.6395C27.0018 22.6057 27.255 22.5805 27.4998 22.5552C27.8458 22.513 28.2004 22.4877 28.5464 22.4877C29.0191 22.4793 29.4918 22.4708 29.9645 22.4961C30.2431 22.4877 30.5216 22.513 30.8002 22.5214Z" fill="#FEFEFE"/>
<path d="M30.7995 22.52C30.521 22.5116 30.2424 22.4863 29.9723 22.4694C29.4996 22.4441 29.0269 22.4526 28.5543 22.461C28.2082 22.4694 27.8537 22.4947 27.5076 22.5284C27.2628 22.5537 27.0096 22.579 26.7648 22.6128C26.3849 22.6633 26.0135 22.7392 25.6506 22.8404C24.9922 23.0175 24.3676 23.2873 23.7345 23.5487C22.941 23.8859 22.1729 24.2569 21.4132 24.6532C20.949 24.8893 20.4932 25.1507 20.0458 25.4205C19.4296 25.7831 18.8134 26.1625 18.2141 26.5504C17.7499 26.8455 17.2856 27.149 16.8298 27.461C16.7116 27.5453 16.7116 27.5369 16.6019 27.4357C16.4331 27.267 16.2558 27.0984 16.0786 26.9382C16.0195 26.8876 16.0279 26.8539 16.0955 26.8117C16.8805 26.3227 17.657 25.8168 18.4251 25.3109C18.805 25.0664 19.1848 24.8219 19.5647 24.5773C19.953 24.3413 20.3497 24.1136 20.738 23.8691C21.2951 23.5318 21.8775 23.2283 22.4684 22.95C22.9326 22.7224 23.4137 22.5284 23.9033 22.3514C24.2831 22.2165 24.6714 22.1069 25.0597 22.0057C25.3383 21.9298 25.6253 21.8876 25.9122 21.8455C26.1824 21.8117 26.4525 21.7949 26.7226 21.7696C27.1615 21.7274 27.6004 21.7443 28.0394 21.7527C28.7484 21.778 29.449 21.8792 30.1158 22.1322C30.3437 22.2165 30.5632 22.3261 30.7742 22.4526C30.7827 22.4863 30.7995 22.4947 30.7995 22.52Z" fill="#E8913E"/>
<path d="M22.6041 26.8889C22.5957 26.8721 22.5872 26.8636 22.5872 26.8636C22.1314 26.577 21.6756 26.2903 21.2198 26.0036C20.3588 25.4387 19.4894 24.8738 18.6031 24.3341C17.9025 23.9126 17.2019 23.4825 16.4591 23.1284C16.0709 22.9429 15.691 22.7574 15.2943 22.5972C14.9229 22.4454 14.5515 22.3105 14.1717 22.2094C13.9353 22.1419 13.699 22.0576 13.4542 22.007C13.1165 21.9395 12.7873 21.8805 12.4413 21.8384C12.1627 21.8046 11.8757 21.7793 11.5887 21.7709C11.268 21.754 10.9472 21.7625 10.6265 21.7793C10.2213 21.7962 9.82458 21.8299 9.42786 21.9058C9.14931 21.9564 8.8792 22.0239 8.60909 22.1166C8.42339 22.1756 8.25457 22.2599 8.06887 22.3358C7.96758 22.378 7.87473 22.4454 7.77344 22.5213C7.84096 22.5213 7.88317 22.5298 7.91693 22.5213C8.16172 22.4792 8.41495 22.4707 8.65973 22.4707C9.00581 22.4707 9.34345 22.4286 9.68953 22.4623C9.91743 22.4876 10.1453 22.4623 10.3817 22.4792C10.6602 22.496 10.9388 22.5129 11.2173 22.5466C11.5465 22.5804 11.8757 22.6309 12.2049 22.69C12.8042 22.7996 13.3866 22.9598 13.9522 23.179C14.7456 23.491 15.5222 23.8367 16.2903 24.2077C16.8305 24.469 17.3623 24.7473 17.8857 25.0424C18.4681 25.3712 19.0336 25.7085 19.5992 26.0542C20.3251 26.5011 21.0426 26.9733 21.7516 27.4539C21.8107 27.496 21.8613 27.5466 21.9373 27.5635C22.1399 27.3105 22.3931 27.125 22.6041 26.8889Z" fill="#FEFEFE"/>
<path d="M22.6041 26.8882C22.3931 27.1243 22.1399 27.3098 21.9373 27.5459C21.8613 27.5375 21.8022 27.4784 21.7516 27.4363C21.051 26.9472 20.3335 26.4835 19.5992 26.0366C19.0336 25.6825 18.4681 25.3452 17.8857 25.0248C17.3623 24.7297 16.8305 24.4515 16.2903 24.1901C15.5222 23.8191 14.7456 23.4734 13.9522 23.1614C13.3866 22.9422 12.8042 22.782 12.2049 22.6724C11.8757 22.6134 11.5465 22.5628 11.2173 22.529C10.9388 22.5038 10.6602 22.4869 10.3817 22.4616C10.1538 22.4447 9.91743 22.47 9.68953 22.4447C9.34345 22.411 9.00581 22.4532 8.65973 22.4532C8.41495 22.4532 8.16172 22.4616 7.91693 22.5038C7.87473 22.5122 7.84096 22.5038 7.77344 22.5038C7.87473 22.4194 7.96758 22.3604 8.06887 22.3183C8.24613 22.2424 8.42339 22.1581 8.60909 22.099C8.8792 22.0063 9.14931 21.9388 9.42786 21.8882C9.82458 21.8124 10.2213 21.7786 10.6265 21.7618C10.9472 21.7449 11.268 21.7365 11.5887 21.7533C11.8673 21.7618 12.1543 21.7955 12.4413 21.8208C12.7789 21.8545 13.1165 21.9135 13.4542 21.9894C13.699 22.04 13.9353 22.1243 14.1717 22.1918C14.5515 22.293 14.9229 22.4363 15.2943 22.5796C15.691 22.7398 16.0793 22.9253 16.4591 23.1108C17.2019 23.4734 17.9025 23.895 18.6031 24.3166C19.4894 24.8478 20.3504 25.4211 21.2198 25.986C21.6672 26.2811 22.1314 26.5594 22.5872 26.8461C22.5872 26.8629 22.5957 26.8714 22.6041 26.8882Z" fill="#EA8F40"/>
<mask id="mask0_2464_451" style="mask-type:luminance" maskUnits="userSpaceOnUse" x="20" y="25" width="5" height="4">
<path d="M23.0325 26.4842L21.2937 28.2549C20.7197 28.8114 20.3398 28.3982 20.3398 28.3982C20.3398 28.3982 20.8379 29.098 21.8254 28.1453L23.5727 26.383C24.1467 25.8265 24.5181 26.2313 24.5181 26.2313C24.5181 26.2313 24.3408 25.9867 23.9948 25.9867C23.7584 25.9783 23.4377 26.0964 23.0325 26.4842Z" fill="white"/>
</mask>
<g mask="url(#mask0_2464_451)">
<path d="M24.5201 25.8262H20.3418V29.0977H24.5201V25.8262Z" fill="url(#paint0_radial_2464_451)"/>
</g>
<mask id="mask1_2464_451" style="mask-type:luminance" maskUnits="userSpaceOnUse" x="22" y="27" width="4" height="4">
<path d="M22.5312 27.9942C23.0715 28.2725 23.5948 28.5844 24.0759 28.9386C24.346 29.1325 24.633 29.3517 24.8272 29.63C25.0044 29.8829 25.0213 30.2202 24.92 30.4984C25.1733 30.4226 25.3505 30.1865 25.3843 29.9335C25.4349 29.5204 25.2155 29.0819 24.9791 28.7615C24.5317 28.1544 23.8649 27.6738 23.2065 27.3281C22.9871 27.5473 22.7592 27.775 22.5312 27.9942Z" fill="white"/>
</mask>
<g mask="url(#mask1_2464_451)">
<path d="M25.433 27.3184H22.5293V30.4971H25.433V27.3184Z" fill="url(#paint1_radial_2464_451)"/>
</g>
<mask id="mask2_2464_451" style="mask-type:luminance" maskUnits="userSpaceOnUse" x="14" y="25" width="5" height="4">
<path d="M14.0703 26.2315C14.0703 26.2315 14.4417 25.8267 15.0157 26.3832L16.763 28.1455C17.7506 29.0982 18.2486 28.3984 18.2486 28.3984C18.2486 28.3984 17.8687 28.8116 17.2947 28.2551L15.5559 26.4844C15.1507 26.0966 14.83 25.9785 14.5936 25.9785C14.2476 25.9785 14.0703 26.2315 14.0703 26.2315Z" fill="white"/>
</mask>
<g mask="url(#mask2_2464_451)">
<path d="M18.2486 25.8262H14.0703V29.0977H18.2486V25.8262Z" fill="url(#paint2_radial_2464_451)"/>
</g>
<mask id="mask3_2464_451" style="mask-type:luminance" maskUnits="userSpaceOnUse" x="13" y="27" width="4" height="4">
<path d="M13.6315 28.7602C13.3867 29.089 13.1757 29.519 13.2263 29.9322C13.2601 30.1936 13.4289 30.4212 13.6821 30.4971C13.5808 30.2189 13.6062 29.8816 13.775 29.6286C13.9691 29.3504 14.2561 29.1396 14.5262 28.9372C15.0158 28.5831 15.5391 28.2711 16.0709 27.9929C15.8514 27.7652 15.6235 27.546 15.3956 27.3184C14.7457 27.6725 14.0873 28.1531 13.6315 28.7602Z" fill="white"/>
</mask>
<g mask="url(#mask3_2464_451)">
<path d="M16.0795 27.3184H13.1758V30.4971H16.0795V27.3184Z" fill="url(#paint3_radial_2464_451)"/>
</g>
<path d="M19.0977 5.67411C19.0133 5.94392 19.0555 6.55943 19.0555 6.55943C19.0555 6.55943 18.2789 6.09569 17.4432 6.09569C15.485 6.09569 14.9616 7.01474 14.9616 7.01474C14.9616 7.01474 15.5103 6.70277 16.3881 6.70277C17.266 6.70277 17.8991 7.10749 17.8991 7.10749C17.8991 7.10749 16.5485 6.84611 15.6116 7.16651C12.6319 8.20361 12.0664 10.2609 12.0664 10.2609C12.0664 10.2609 12.4293 9.70445 13.5098 9.09737C14.5902 8.49029 15.7551 8.72638 15.7551 8.72638C15.7551 8.72638 14.9869 8.93717 13.8981 9.76347C11.3489 11.7028 11.7794 13.836 11.7794 13.836C11.7794 13.836 11.7963 13.1614 13.0033 11.9641C14.2019 10.7584 16.5738 10.3958 16.5738 10.3958C16.5738 10.3958 15.4934 10.8596 14.5143 12.0822C13.5351 13.3048 13.6533 15.1598 13.6533 15.1598C13.6533 15.1598 13.6364 14.207 14.7506 13.0856C15.8732 11.9641 17.342 11.7786 17.342 11.7786C17.342 11.7786 16.5063 12.3689 16.2446 13.9793C16.0674 15.0586 16.6498 16.3486 16.6498 16.3486C16.6498 16.3486 16.3966 14.9827 17.0128 13.8528C17.6289 12.723 19.0639 12.0822 19.0639 12.0822L19.047 14.5105H18.9711L19.0048 16.0619H18.9204L18.9542 17.6218H18.8444L18.8866 19.1817H18.7432L18.7938 20.7415H18.625V22.9L19.4437 23.5324L20.2625 22.9V20.7415H20.0937L20.1443 19.1817H19.9924L20.0346 17.6218H19.9249L19.9586 16.0619H19.8742L19.908 14.5105H19.832L19.8151 12.0822C19.8151 12.0822 21.2501 12.723 21.8663 13.8528C22.4825 14.9827 22.2292 16.3486 22.2292 16.3486C22.2292 16.3486 22.8117 15.0586 22.6344 13.9793C22.3727 12.3689 21.5371 11.7786 21.5371 11.7786C21.5371 11.7786 23.0058 11.9641 24.1285 13.0856C25.2511 14.207 25.2258 15.1598 25.2258 15.1598C25.2258 15.1598 25.3439 13.3048 24.3648 12.0822C23.3857 10.8596 22.3052 10.3958 22.3052 10.3958C22.3052 10.3958 24.6687 10.7584 25.8757 11.9641C27.0828 13.1699 27.0997 13.836 27.0997 13.836C27.0997 13.836 27.5217 11.6943 24.9725 9.76347C23.8837 8.93717 23.1155 8.72638 23.1155 8.72638C23.1155 8.72638 24.2804 8.48186 25.3608 9.09737C26.4413 9.70445 26.8127 10.2609 26.8127 10.2609C26.8127 10.2609 26.2471 8.19518 23.2675 7.16651C22.3305 6.83768 20.98 7.10749 20.98 7.10749C20.98 7.10749 21.6131 6.70277 22.4909 6.70277C23.3688 6.70277 23.9174 7.01474 23.9174 7.01474C23.9174 7.01474 23.3857 6.09569 21.4274 6.09569C20.5917 6.09569 19.8151 6.55943 19.8151 6.55943C19.8151 6.55943 19.8658 5.93549 19.7729 5.67411C19.6801 5.40429 19.4269 5.05859 19.4269 5.05859C19.4269 5.05859 19.1905 5.40429 19.0977 5.67411Z" fill="url(#paint4_radial_2464_451)"/>
<defs>
<radialGradient id="paint0_radial_2464_451" cx="0" cy="0" r="1" gradientUnits="userSpaceOnUse" gradientTransform="translate(19.1527 28.0844) scale(4.72748 4.72231)">
<stop stop-color="#2A774D"/>
<stop offset="1" stop-color="#133B25"/>
</radialGradient>
<radialGradient id="paint1_radial_2464_451" cx="0" cy="0" r="1" gradientUnits="userSpaceOnUse" gradientTransform="translate(19.1708 28.0841) scale(4.72748 4.72231)">
<stop stop-color="#2A774D"/>
<stop offset="1" stop-color="#133B25"/>
</radialGradient>
<radialGradient id="paint2_radial_2464_451" cx="0" cy="0" r="1" gradientUnits="userSpaceOnUse" gradientTransform="translate(19.16 28.0851) scale(4.72818 4.72301)">
<stop stop-color="#2A774D"/>
<stop offset="1" stop-color="#133B25"/>
</radialGradient>
<radialGradient id="paint3_radial_2464_451" cx="0" cy="0" r="1" gradientUnits="userSpaceOnUse" gradientTransform="translate(19.1615 28.0856) scale(4.72757 4.7224)">
<stop stop-color="#2A774D"/>
<stop offset="1" stop-color="#133B25"/>
</radialGradient>
<radialGradient id="paint4_radial_2464_451" cx="0" cy="0" r="1" gradientUnits="userSpaceOnUse" gradientTransform="translate(19.269 11.4755) scale(3.4312 3.42745)">
<stop stop-color="#2A774D"/>
<stop offset="1" stop-color="#133B25"/>
</radialGradient>
</defs>
</svg>
