<svg width="118" height="50" viewBox="0 0 118 50" fill="none" xmlns="http://www.w3.org/2000/svg">
<path d="M75.3428 5.56369C77.7365 5.56369 79.5487 7.42665 79.5487 9.85441C79.5487 12.2822 77.7365 14.1451 75.3428 14.1451C72.949 14.1451 71.1369 12.2822 71.1369 9.85441C71.1369 7.42665 72.9406 5.56369 75.3428 5.56369ZM74.9551 17.5086C76.5818 17.5086 78.04 17.0028 79.2453 16.0334L80.0123 15.4096V17.0365H83.5692V2.74817H80.105V4.49312L79.3043 3.8356C78.1158 2.83247 76.6071 2.29297 74.9466 2.29297C72.8142 2.29297 70.8924 3.06007 69.527 4.42568C68.17 5.81658 67.3945 7.74698 67.3945 9.90498C67.3945 12.0714 68.1278 14.0271 69.527 15.418C70.9346 16.733 72.831 17.5086 74.9551 17.5086Z" fill="black"/>
<path d="M114.623 19.5488C113.266 19.5488 112.195 20.6363 112.195 21.9766C112.195 23.3338 113.283 24.4043 114.623 24.4043C115.98 24.4043 117.05 23.3169 117.05 21.9766C117.059 20.6447 115.963 19.5488 114.623 19.5488Z" fill="black"/>
<path d="M85.6853 24.4121C87.0423 24.4121 88.1127 23.3247 88.1127 21.9844C88.1127 20.6272 87.0254 19.5566 85.6853 19.5566C84.3451 19.5566 83.2578 20.6441 83.2578 21.9844C83.2578 23.3416 84.3451 24.4121 85.6853 24.4121Z" fill="black"/>
<path d="M112.465 32.1759C112.465 34.4519 110.602 36.298 108.343 36.298H100.226C98.0263 36.298 96.2563 34.5194 96.2563 32.3276C96.2563 30.0516 98.1528 28.2055 100.429 28.2055C102.561 28.2055 104.339 29.9505 104.339 32.0663H108.663C108.663 27.5396 104.845 23.8811 100.311 23.8811C95.7759 23.8811 91.9577 27.5564 91.9577 32.0663V32.3023C91.9577 33.7775 92.3454 35.1516 93.045 36.357H91.3508C89.3364 36.357 87.7096 34.7301 87.7096 32.7154V30.9705V30.9367V26.1908H83.4194V32.5299C83.4194 34.6627 81.6073 36.3486 79.4748 36.3486C77.2328 36.3486 75.3026 34.5362 75.3026 32.2939V19.3965H70.709V32.2265C70.709 36.8544 74.7295 40.5803 79.3231 40.5803C82.2563 40.5803 84.2707 39.4592 85.5772 37.7648C86.7656 39.5097 88.7127 40.5803 91.1401 40.5803H95.582V39.1557C96.8885 40.0745 98.5152 40.5803 100.26 40.5803H108.41C113.038 40.5803 116.763 36.846 116.763 32.2265V26.2077H112.473L112.465 32.1759Z" fill="black"/>
<path d="M61.5637 26.8903C63.6456 26.8903 65.3482 28.433 65.5842 30.4477H69.8744C69.6384 26.0895 66.1405 22.5996 61.6901 22.5996C57.0965 22.5996 53.194 26.334 53.194 30.9534V31.0715C53.194 33.2716 54.0453 35.2442 55.4361 36.7025C52.8569 37.9417 51.8791 39.9564 51.7021 42.0722C51.4324 44.854 52.9749 47.6358 55.9418 48.9508C58.6895 50.1394 63.6709 50.8138 69.0062 48.1837L68.1549 43.9436C63.4096 46.6074 55.2085 46.3376 55.7985 41.9795C56.0682 39.8973 58.4957 39.3494 61.0496 39.3494C62.592 39.3494 64.9605 39.3157 64.9605 39.3157H69.0484V34.9491H61.2856C59.1531 34.9491 57.4674 33.2547 57.4674 31.1305V30.9787C57.5095 28.7027 59.3217 26.8903 61.5637 26.8903Z" fill="black"/>
<path d="M56.4972 8.61555C56.4972 7.07291 57.7362 5.83375 59.2786 5.83375C60.8211 5.83375 62.0601 7.07291 62.0601 8.61555V16.9947H66.2323V8.20249C66.2323 4.61144 64.1841 2.36914 60.9307 2.36914C57.3738 2.36914 55.629 5.06664 55.629 5.06664V2.81591H52.207V16.9862H56.4972V8.61555Z" fill="black"/>
<path d="M89.9765 8.61555C89.9765 7.07291 91.2155 5.83375 92.7579 5.83375C94.3004 5.83375 95.5394 7.07291 95.5394 8.61555V16.9947H99.7453V8.20249C99.7453 4.61144 97.6971 2.36914 94.4437 2.36914C90.8868 2.36914 89.142 5.06664 89.142 5.06664V2.81591H85.7031V16.9862H89.9933L89.9765 8.61555Z" fill="black"/>
<path d="M108.552 5.59741C110.946 5.59741 112.758 7.46037 112.758 9.88812C112.758 12.3159 110.946 14.1788 108.552 14.1788C106.158 14.1788 104.346 12.3159 104.346 9.88812C104.346 7.42665 106.158 5.59741 108.552 5.59741ZM108.172 17.5086C109.799 17.5086 111.257 17.0028 112.463 16.0334L113.23 15.4096V17.0365H116.787V2.74817H113.314V4.49312L112.513 3.8356C111.325 2.83247 109.816 2.29297 108.156 2.29297C106.023 2.29297 104.101 3.06007 102.736 4.42568C101.379 5.81658 100.604 7.74698 100.604 9.90498C100.604 12.0714 101.337 14.0271 102.736 15.418C104.11 16.733 106.04 17.5086 108.172 17.5086Z" fill="black"/>
<path d="M34.4143 0H9.54127C4.23963 0 0 4.29072 0 9.54242V34.4184C0 37.7397 1.69417 40.6396 4.23963 42.3845L4.27334 42.4182C5.78208 43.4214 7.59424 43.9946 9.52441 43.9946H34.4059C39.7075 43.9946 43.9472 39.7039 43.9472 34.4522V9.58456C43.9893 4.29072 39.716 0 34.4143 0Z" fill="black"/>
<path d="M34.3815 33.2642C33.2268 33.3485 32.0215 33.3485 30.7909 33.2305C30.6729 33.5002 30.4874 33.7362 30.2852 33.9639H30.3189C31.1196 34.0481 31.9456 34.0819 32.7463 34.0819C33.3363 34.0819 33.9348 34.0481 34.5248 33.9976C34.4995 33.77 34.4152 33.5002 34.3815 33.2642Z" fill="#ABFF01"/>
<path d="M26.1884 34.9242C25.8344 36.3151 25.3877 37.6723 24.7977 38.9789C24.0307 40.7913 23.1035 42.5025 22.0162 44.1126H9.39004C7.42616 44.1126 5.60556 43.5225 4.0884 42.5363L4.05469 42.5025C5.59714 42.2328 7.02158 41.7017 8.4966 40.7239C13.5622 37.4363 15.9054 31.4512 16.0234 30.6504C16.4954 31.6198 17.3299 32.3448 18.4509 32.6651C18.4846 32.6651 18.4846 32.6651 18.5352 32.6988C19.1589 33.9717 20.2799 35.0085 21.7381 35.4469C23.2131 35.8684 24.705 35.6492 25.9103 34.8568H25.944C26.0367 34.8905 26.121 34.8905 26.1884 34.9242Z" fill="#ABFF01"/>
<path d="M34.4478 20.0544C34.1781 20.4759 33.6808 20.712 33.1414 20.5602C32.6019 20.4085 32.2564 19.869 32.3406 19.3211L30.5959 18.6973C30.1745 20.2399 31.1016 21.8668 32.6441 22.3389C33.0318 22.4569 33.4448 22.4906 33.8325 22.4232C34.49 22.3389 35.139 22.0354 35.611 21.5381C35.847 21.302 36.0324 20.9986 36.201 20.653L34.4478 20.0544Z" fill="#ABFF01"/>
<path d="M20.2027 18.6964C21.7451 19.1685 23.3718 18.2749 23.8776 16.766L22.0148 16.3782C21.7788 16.8503 21.2141 17.0695 20.7084 16.9177C20.2364 16.7997 19.9414 16.3782 19.9077 15.9483L18.0449 15.5605C18.0449 15.7629 18.0449 15.9146 18.0449 16.1C18.1292 16.8334 18.4326 17.5247 18.9636 17.9967C19.3092 18.3086 19.7475 18.5447 20.2027 18.6964Z" fill="#ABFF01"/>
<path d="M30.2093 28.9399C31.0943 29.4794 31.482 30.2465 31.5663 30.4151C32.9907 28.7882 34.2635 26.5037 35.0389 24.1603C33.5639 24.3963 31.8697 23.8062 30.8667 22.7356C31.0184 20.839 28.9028 19.7684 29.6782 17.9391L38.1744 20.3416C38.5958 18.7652 38.2081 17.172 37.2556 15.9834C36.8679 15.5114 36.0166 14.6768 34.7945 14.3565C34.7945 14.3565 35.7638 14.0868 36.8763 14.4745C38.9245 13.817 40.5175 10.7739 40.998 8.57375C40.998 8.57375 37.1798 7.77293 33.8589 11.1195C31.8444 8.18598 28.0599 7.17442 24.8233 8.72548C23.5506 3.86155 20.2971 3.5918 20.2971 3.5918C19.4121 5.75823 19.606 7.91623 20.2128 9.84663C21.6879 9.88035 22.379 10.7655 22.379 10.7655C21.494 10.5294 20.7523 10.5294 19.8673 10.7992C18.6788 11.187 16.9678 12.4936 16.5126 14.1205L25.0088 16.582C24.6547 18.4786 22.2273 18.2426 21.3676 19.937C19.9431 20.291 18.2321 19.8527 17.1279 18.8495C16.5885 21.1593 16.2766 23.5955 16.7739 25.6102C16.7739 25.6102 17.5409 25.1044 18.5861 25.1381H18.6198C17.3471 25.6776 16.4199 26.9505 16.4199 28.4257C16.4199 30.3898 17.9961 31.983 19.9768 31.983H20.0105C21.435 31.983 22.674 31.0979 23.2134 29.8503C23.2977 29.6986 23.3314 29.4962 23.4157 29.3445C24.1069 27.3298 24.9245 24.1687 24.9919 24.0085C25.3459 22.9211 25.1942 22.0444 23.2472 21.1593L23.5506 20.468C24.8233 21.0918 25.565 21.7746 25.7926 22.6345C26.4501 22.0444 27.4194 21.9432 28.8438 22.1624L28.7258 22.9295C26.5933 22.5755 26.0286 23.1655 25.6746 24.3204C25.5903 24.5564 24.0985 29.1506 23.9299 29.9515C23.8456 30.2549 23.7782 30.609 23.7782 30.9209C23.7782 32.885 25.3543 34.4782 27.3351 34.4782C29.299 34.4782 30.892 32.9018 30.892 30.9209C30.8583 30.2128 30.6307 29.5131 30.2093 28.9399Z" fill="#ABFF01"/>
<path d="M16.141 26.6886C15.2222 25.9974 14.6659 25.5 14.4805 25.382C17.8351 20.8553 7.8387 18.7394 6.17825 16.4634L6.14453 16.4297C6.14453 16.4297 6.14453 16.4634 6.17825 16.514C7.33298 19.3295 6.09396 23.4685 8.63942 25.6349C10.0639 26.8235 11.9603 27.1101 13.3848 26.3262C11.3029 24.8172 8.67314 21.3779 7.82184 19.4138C7.82184 19.4138 11.6063 24.0417 13.9242 25.9384C14.0759 26.0901 14.7755 26.6718 15.8207 27.4473C15.9218 27.1944 16.023 26.9247 16.141 26.6886Z" fill="#ABFF01"/>
</svg>
