<svg width="226" height="50" viewBox="0 0 226 50" fill="none" xmlns="http://www.w3.org/2000/svg">
<path fill-rule="evenodd" clip-rule="evenodd" d="M57.8629 32.5209H63.0813C65.1214 32.5209 65.8886 33.1954 65.8886 34.8481C65.8886 36.4417 65.113 37.1078 63.0813 37.1078H57.8629V32.5209ZM49.7782 49.2326H57.8629V42.4366H66.5293C72.2619 42.4366 74.3273 39.1988 74.3273 34.9998C74.3273 30.1263 72.2029 27.386 66.4787 27.386H49.7866V49.2326H49.7782ZM76.9829 27.3775H98.7415V32.698H85.0675V35.6322H97.7636V40.9611H85.0675V43.8953H98.7415V49.2242H76.9829V27.3775ZM110.207 32.5209H115.425C117.465 32.5209 118.232 33.1954 118.232 34.8481C118.232 36.4417 117.457 37.1078 115.425 37.1078H110.207V32.5209ZM102.114 49.2326H110.198V42.4366H118.848C124.58 42.4366 126.646 39.1988 126.646 34.9998C126.646 30.1263 124.521 27.386 118.789 27.386H102.105V49.2326H102.114ZM134.478 39.9577C130.524 39.3169 128.888 36.8633 128.888 33.8025C128.888 28.1364 134.073 26.6102 140.725 26.6102C149.838 26.6102 153.589 29.1482 153.884 33.7688H144.484C144.484 32.8835 143.996 32.327 143.254 32.0234C142.537 31.6862 141.618 31.5681 140.725 31.5681C138.313 31.5681 137.487 32.2089 137.487 33.128C137.487 33.7435 137.74 34.1398 138.541 34.2663L148.202 35.8009C152.274 36.4417 154.795 38.4653 154.795 42.1668C154.795 47.4957 150.723 49.9999 141.635 49.9999C135.422 49.9999 128.627 49.0809 128.593 42.6474H138.339C138.364 43.381 138.625 43.87 139.199 44.2073C139.806 44.5109 140.691 44.6626 141.947 44.6626C144.476 44.6626 145.159 43.9291 145.159 42.8835C145.159 42.2427 144.788 41.6019 143.7 41.4164L134.478 39.9577ZM157.442 27.3775H165.527V49.2326H157.442V27.3775ZM195.479 40.725C194.965 43.6002 194.046 45.9274 192.04 47.521C190.067 49.1146 186.965 49.9999 182.033 49.9999C177.135 49.9999 168.047 49.6374 168.047 38.3135C168.047 26.9897 177.135 26.6271 182.033 26.6271C186.906 26.6271 194.409 27.3016 195.479 35.9611H186.366C186.139 34.4012 185.161 32.133 182.033 32.133C178.728 32.133 176.646 33.8784 176.646 38.3219C176.646 42.757 178.686 44.5024 181.637 44.5024C184.191 44.5024 185.709 43.3641 186.366 40.7419H195.479V40.725ZM206.06 38.3051C206.06 33.87 208.15 32.1162 211.447 32.1162C214.743 32.1162 216.834 33.8615 216.834 38.3051C216.834 42.7402 214.743 44.4856 211.447 44.4856C208.15 44.4856 206.06 42.7402 206.06 38.3051ZM197.461 38.3051C197.461 49.6289 206.549 49.9915 211.447 49.9915C216.345 49.9915 225.432 49.6289 225.432 38.3051C225.432 26.9812 216.345 26.6187 211.447 26.6187C206.549 26.6187 197.461 26.9812 197.461 38.3051ZM37.5542 27.5968C38.0769 17.1077 28.6603 5.31164 15.8293 3.84451L15.8462 3.70117C28.5001 3.70117 38.1949 14.9491 38.1949 23.8193C38.1865 25.6659 38.0348 26.8126 37.765 27.6389L37.5542 27.5968ZM36.7871 28.929C35.9441 29.9155 34.8818 30.9104 33.651 31.8548C31.3664 19.2493 21.7305 8.22902 14.9104 5.01653L14.7671 5.10927C21.6209 10.514 29.7983 21.0116 32.985 32.3438C31.358 33.4906 29.6129 34.4518 27.7582 35.2191C21.2921 28.128 15.256 14.4685 13.3086 5.79225L13.1063 5.85127C13.1485 14.2746 19.3785 28.5664 26.9658 35.531C25.2207 36.1887 23.4166 36.6778 21.5703 36.9644C14.3034 34.1988 9.12719 25.337 9.12719 16.2392C9.12719 10.3117 11.0156 6.64385 11.3781 5.89343L11.2263 5.8344C10.788 6.47522 8.03125 10.143 8.03125 16.5343C8.03125 26.8042 13.3002 34.6457 20.3058 37.1162C17.8104 37.386 15.2729 37.2595 12.8112 36.7789L12.7607 36.9307C13.511 37.2005 16.0485 38.2208 19.9264 38.2208C28.6855 38.2208 34.6121 32.9931 36.9978 29.0217L36.7871 28.929Z" fill="#28458E"/>
<path fill-rule="evenodd" clip-rule="evenodd" d="M19.0154 0C12.3723 0 4.57422 4.60374 4.57422 8.81118C4.57422 10.4385 6.1254 11.8213 9.33735 11.8213C16.7898 11.8213 23.7111 6.90561 23.7111 3.07759C23.7111 1.0624 21.7046 0 19.0154 0ZM21.6625 2.95954C21.6625 6.18047 15.2217 10.1181 9.83474 10.1181C7.44896 10.1181 6.16755 9.2159 6.16755 7.73192C6.16755 4.46883 12.6842 0.590223 17.734 0.590223C21.0386 0.590223 21.6625 2.20912 21.6625 2.95954Z" fill="#0096D6"/>
<path fill-rule="evenodd" clip-rule="evenodd" d="M1.93577 10.7601C1.7503 11.072 1 12.4717 1 13.9135C1 16.5864 3.81573 19.0653 8.98352 19.0653C18.9397 19.0653 30.4218 12.0248 30.4218 5.50708C30.4218 2.58126 27.5302 0.987661 25.5322 0.650391L25.4985 0.760004C26.1224 0.953934 28.407 1.97418 28.407 4.57959C28.407 9.78198 18.2569 16.8647 8.14891 16.8647C4.2794 16.8647 1.84303 15.0265 1.84303 12.3621C1.84303 11.5105 2.02007 10.9624 2.07908 10.8022L1.93577 10.7601Z" fill="#EB7B30"/>
<path fill-rule="evenodd" clip-rule="evenodd" d="M34.5277 6.00391C34.7975 6.20627 36.4414 7.51319 36.4414 10.0006C36.4414 18.4576 22.6409 26.7797 10.4423 26.7797C3.16689 26.7797 -0.154655 23.3312 0.00552093 20.262H0.131976C0.418607 21.8556 2.7791 24.6971 9.14399 24.6971C21.3595 24.6971 34.9914 16.0883 34.9914 8.5503C34.9914 7.26024 34.6204 6.45079 34.4265 6.08822L34.5277 6.00391Z" fill="#00984A"/>
<path fill-rule="evenodd" clip-rule="evenodd" d="M39.1389 13.8945C39.1895 14.08 39.493 14.881 39.493 16.1542C39.493 25.5641 25.5324 33.6164 13.3927 33.6164C7.13742 33.6164 3.88331 30.7074 3.18359 29.5186L3.29319 29.4427C5.02983 30.9014 8.42726 31.9975 12.4064 31.9975C23.1382 31.9975 39.1305 24.1644 38.9872 13.9367L39.1389 13.8945Z" fill="#DF002C"/>
</svg>
