<svg width="81" height="50" viewBox="0 0 81 50" fill="none" xmlns="http://www.w3.org/2000/svg">
<path d="M48.2813 7.24164C48.2813 6.92129 48.2729 6.91286 47.9357 6.91286C46.8062 6.91286 45.6768 6.91286 44.5473 6.91286C44.1764 6.91286 44.1764 6.91286 44.1764 7.30065C44.1764 8.98671 44.1764 10.6643 44.1764 12.3504C44.1764 12.7551 44.1511 13.1597 44.109 13.5644C43.932 15.006 43.0807 15.8574 41.6393 16.0597C41.26 16.1103 40.8891 16.1019 40.5098 16.1019C39.5574 16.1019 38.6049 16.1019 37.644 16.1019C37.6271 15.8743 37.7451 15.7225 37.7957 15.5455C38.529 13.2777 38.234 11.1786 36.6999 9.33236C35.3429 7.69688 33.5307 6.94658 31.4234 6.92129C29.4089 6.90443 27.3944 6.92129 25.3799 6.91286C25.2366 6.91286 25.0764 6.95501 24.9078 6.85384C26.7622 4.57766 28.6081 2.32677 30.4288 0.101163C30.3951 -2.61293e-07 30.3445 0.00843018 30.3108 0.00843018C28.9959 0.00843018 27.6725 0.00843031 26.3576 0C26.1469 0 26.0458 0.118024 25.9362 0.252909C23.9807 2.64712 22.0336 5.0329 20.0696 7.41867C19.9179 7.60414 19.8673 7.78118 19.8673 8.01723C19.8758 8.72537 19.8673 9.43352 19.8673 10.1501C19.8673 10.7234 19.7999 10.6812 20.4068 10.6812C24.0312 10.6812 27.6557 10.6981 31.2801 10.6728C32.5445 10.6643 33.6571 11.4821 33.9015 12.8562C34.1291 14.1545 33.5222 15.3853 32.3927 15.8827C31.9882 16.0597 31.5583 16.1019 31.12 16.1019C25.8856 16.1019 20.6597 16.1019 15.4253 16.1019H15.0123C14.9617 15.9417 15.0544 15.849 15.105 15.7478C15.6697 14.7193 15.931 13.6234 15.9647 12.46C16.0237 10.0405 15.1303 8.04252 13.2759 6.49977C10.4691 4.173 6.35573 4.0044 3.30445 6.04453C-0.497008 8.59049 -0.918454 13.6234 1.52594 16.7595C2.89143 18.5045 4.70365 19.4572 6.87832 19.7607C7.00476 19.7775 7.16491 19.7354 7.27448 19.8871C5.83313 21.6659 4.38335 23.4194 2.89986 25.2572H3.25387C4.56036 25.2572 5.86685 25.2488 7.16491 25.2656C7.44306 25.2656 7.61164 25.1729 7.78022 24.9622C9.05299 23.3857 10.351 21.8261 11.6238 20.2412C11.8683 19.9377 12.1211 19.8365 12.5004 19.8365C21.9493 19.845 31.3981 19.845 40.847 19.845C41.9427 19.845 43.0132 19.7354 44.0668 19.415C46.663 18.6226 48.2392 16.6161 48.2813 13.9859C48.3066 11.735 48.2897 9.49253 48.2813 7.24164ZM11.5058 13.6318C10.9748 15.2926 9.4913 16.2874 7.71279 16.1946C6.11129 16.1103 4.70365 14.8795 4.37492 13.2609C4.21477 12.4853 4.2232 11.7097 4.44236 10.9425C4.92281 9.31549 6.33887 8.26171 8.03309 8.27014C9.89589 8.287 11.4384 9.66957 11.666 11.5242C11.7587 12.2492 11.725 12.949 11.5058 13.6318Z" fill="#1C2346"/>
<path d="M80.5483 7.16597C80.5567 6.9805 80.4808 6.90463 80.2954 6.91306C80.0341 6.92149 79.7728 6.91306 79.5115 6.91306C78.6012 6.91306 77.6824 6.91306 76.7721 6.91306C76.4181 6.91306 76.4181 6.92149 76.4097 7.27556C76.4097 7.35986 76.4097 7.4526 76.4097 7.5369C76.4097 9.2061 76.4097 10.8753 76.4097 12.5361C76.4097 13.1178 76.3759 13.691 76.1905 14.2474C75.8871 15.1326 75.2886 15.7143 74.3699 15.9504C73.9906 16.0515 73.6028 16.0852 73.2067 16.0852C71.1079 16.0852 69.009 16.0852 66.9018 16.0852C66.7922 16.0852 66.6742 16.1105 66.5647 16.0515C66.5309 15.9166 66.6152 15.8323 66.6742 15.7312C67.2053 14.7617 67.475 13.7163 67.5255 12.6204C67.6267 10.4201 66.9271 8.51482 65.3593 6.95521C63.0414 4.63687 59.341 3.97088 56.2476 5.29444C52.3029 6.9805 50.7098 11.0776 52.0079 14.728C52.994 17.5015 55.0929 19.0527 57.925 19.6681C58.2284 19.7356 58.5487 19.7187 58.8775 19.8536C57.4108 21.6492 55.9695 23.4112 54.5113 25.1984C54.6798 25.2827 54.8063 25.249 54.9327 25.249C56.1886 25.249 57.453 25.2406 58.7173 25.2574C59.0123 25.2574 59.1893 25.1647 59.3663 24.9455C60.656 23.3437 61.9709 21.7588 63.2605 20.1571C63.4544 19.921 63.6482 19.8283 63.9517 19.8283C67.0198 19.8367 70.0964 19.8367 73.1645 19.8367C74.3277 19.8367 75.4741 19.7018 76.5782 19.314C78.1713 18.7576 79.3766 17.7544 80.051 16.178C80.4134 15.3434 80.523 14.4498 80.523 13.5477C80.523 11.6762 80.523 9.80466 80.523 7.94156C80.5399 7.68865 80.5314 7.42731 80.5483 7.16597ZM63.0751 13.6657C62.5356 15.3097 61.0353 16.3044 59.2568 16.1948C57.6384 16.0937 56.2392 14.8207 55.9357 13.1852C55.8009 12.4518 55.8093 11.7183 56.0116 10.9933C56.4752 9.34099 57.8997 8.26191 59.6108 8.27034C61.4483 8.27877 62.9655 9.61076 63.2436 11.4317C63.3532 12.1989 63.3111 12.9407 63.0751 13.6657Z" fill="#1C2346"/>
<path d="M48.3733 35.8461C47.9856 33.3255 46.6454 31.4708 44.3106 30.4339C41.7987 29.3211 39.2532 29.4138 36.7919 30.6025C35.1062 31.4118 33.9935 32.7691 33.4878 34.59C33.2181 35.5764 33.0916 36.5796 33.0916 37.5996C33.0832 41.2415 33.0916 44.875 33.0916 48.5169C33.0916 48.8794 33.0916 49.2419 33.0916 49.6044C33.0916 49.9922 33.0916 50.0006 33.4625 50.0006C34.5667 50.0006 35.6625 50.0006 36.7667 50.0006C37.1207 50.0006 37.1291 49.9922 37.1291 49.6381C37.1291 48.0026 37.1291 46.3587 37.1291 44.7233V44.2427C37.2808 44.1837 37.3483 44.2596 37.4241 44.2933C38.9413 45.0099 40.5344 45.2122 42.1696 44.9172C44.6309 44.4703 46.4768 43.1468 47.6569 40.9296C48.4998 39.3194 48.6431 37.5996 48.3733 35.8461ZM43.4255 40.154C41.6049 42.1942 38.3682 41.5787 37.4073 39.0159C37.0111 37.9621 37.0195 36.8831 37.3651 35.8208C37.8456 34.3624 39.2448 33.2665 40.9221 33.3592C42.5995 33.4519 43.9144 34.6237 44.2769 36.2677C44.3527 36.6217 44.378 36.9842 44.3864 37.4226C44.3864 38.3921 44.1336 39.3616 43.4255 40.154Z" fill="#1C2346"/>
<path d="M78.4239 32.1279C75.5497 29.1688 70.6693 28.8653 67.3483 31.4113C63.7491 34.168 63.5131 39.4201 66.438 42.4803C68.0732 44.1916 70.1046 45.001 72.4647 45.0178C73.1221 45.0262 73.7712 44.9588 74.4033 44.8155C78.0362 43.964 80.194 41.1483 80.4806 38.2567C80.725 35.9046 80.0844 33.8392 78.4239 32.1279ZM76.0891 38.6445C75.6255 40.28 74.1842 41.3591 72.4731 41.3591C70.644 41.3506 69.1268 40.0692 68.8149 38.2651C68.6716 37.4642 68.7054 36.6802 68.9667 35.9046C69.4893 34.3366 70.9306 33.3165 72.5658 33.3503C74.2179 33.384 75.6508 34.4799 76.0976 36.0732C76.3251 36.9247 76.3251 37.7846 76.0891 38.6445Z" fill="#1C2346"/>
<path d="M30.69 35.3568C30.6647 36.5623 30.749 38.0376 30.6479 39.5129C30.4793 41.9662 29.2065 43.6101 26.9223 44.4784C25.4388 45.0432 23.8963 45.1191 22.3454 44.9589C21.4941 44.8746 20.6596 44.6639 19.8841 44.3014C17.9623 43.4162 16.8666 41.9324 16.6137 39.8249C16.5715 39.4455 16.5547 39.0746 16.5547 38.6952C16.5547 35.9891 16.5547 33.2745 16.5547 30.5684C16.5547 30.4672 16.5547 30.366 16.5547 30.2649C16.5547 30.1553 16.6137 30.1047 16.7148 30.1047C16.7907 30.1047 16.8581 30.1047 16.934 30.1047C18.0382 30.1047 19.1339 30.1047 20.2381 30.1047C20.6174 30.1047 20.6259 30.1047 20.6259 30.5178C20.6259 32.9541 20.6259 35.3905 20.6259 37.8184C20.6259 38.299 20.6343 38.7711 20.7523 39.2432C21.0389 40.4234 21.8059 41.1231 23.045 41.3086C23.5929 41.3929 24.1407 41.3676 24.6802 41.2159C25.7844 40.9039 26.3491 40.1283 26.5514 39.0408C26.6189 38.6952 26.6357 38.3496 26.6357 38.0039C26.6273 35.5507 26.6357 33.1059 26.6357 30.6527C26.6357 30.5684 26.6441 30.4756 26.6357 30.3913C26.6104 30.1721 26.6863 30.0878 26.9223 30.0963C27.5629 30.1131 28.1951 30.1047 28.8357 30.1047C29.3583 30.1047 29.8809 30.1047 30.4034 30.1047C30.7069 30.1047 30.7069 30.1131 30.7069 30.4251C30.69 31.9847 30.69 33.5274 30.69 35.3568Z" fill="#1C2346"/>
<path d="M14.1275 39.6982C14.1275 41.1735 14.1275 42.6572 14.1275 44.1325C14.1275 44.2337 14.1275 44.3348 14.1275 44.436C14.1359 44.5877 14.0516 44.6467 13.9168 44.6299C13.8999 44.6299 13.8915 44.6299 13.8746 44.6299C12.703 44.6299 11.5229 44.6215 10.3513 44.6383C10.0732 44.6383 10.09 44.495 10.09 44.3095C10.09 42.8595 10.09 41.4095 10.09 39.9595C10.09 38.872 10.09 37.7845 10.09 36.697C10.09 36.2417 10.0395 35.8033 9.92145 35.365C9.64329 34.3365 8.98583 33.6873 7.94064 33.4597C7.32533 33.3248 6.70159 33.3333 6.08628 33.4934C5.16752 33.7295 4.57749 34.3112 4.27405 35.1964C4.09704 35.7106 4.07176 36.2417 4.07176 36.7813C4.07176 39.2008 4.07176 41.6203 4.07176 44.0398C4.07176 44.1409 4.06333 44.2421 4.07176 44.3433C4.08862 44.5372 4.02118 44.6299 3.80203 44.6299C2.61355 44.6215 1.42507 44.6215 0.236587 44.6299C0.0764371 44.6299 -0.00785266 44.5793 0.000576292 44.4023C0.00900524 44.3264 0.000576292 44.259 0.000576292 44.1831C0.000576292 41.3674 0.000576292 38.5601 0.000576292 35.7443C0.000576292 34.7327 0.177584 33.7548 0.658034 32.8527C1.34078 31.5545 2.41126 30.703 3.77674 30.2309C6.00199 29.4638 8.25252 29.4385 10.4609 30.2815C12.7704 31.1582 14.0011 32.878 14.1022 35.3397C14.1612 36.7897 14.1106 38.2397 14.1106 39.6897C14.1191 39.6982 14.1275 39.6982 14.1275 39.6982Z" fill="#1C2346"/>
<path d="M62.2143 34.2769C61.4894 33.906 60.7392 33.6278 59.9301 33.476C57.1064 32.9533 55.0581 35.1283 55.37 37.8851C55.5302 39.3182 56.2213 40.3889 57.5447 41.0127C58.396 41.4174 59.281 41.4005 60.1829 41.215C60.7983 41.0886 61.3798 40.8778 61.9362 40.5996C62.2396 40.4479 62.2396 40.4479 62.4166 40.7514C62.8802 41.5522 63.3438 42.3531 63.799 43.1624C63.9928 43.4997 64.0771 43.4659 63.6641 43.7104C62.7538 44.2499 61.7676 44.5703 60.7477 44.7895C58.101 45.3459 55.6482 44.8907 53.4566 43.272C49.4107 40.2877 49.4276 34.26 53.6252 31.3178C55.842 29.7667 58.2864 29.3704 60.9078 29.9859C61.9024 30.2135 62.8549 30.5423 63.7315 31.0649C63.9085 31.1661 63.9928 31.242 63.8664 31.4612C63.3354 32.3548 62.8212 33.2653 62.307 34.1673C62.2817 34.201 62.248 34.2347 62.2143 34.2769Z" fill="#1C2346"/>
<path d="M69.4121 5.40337C69.4121 4.25685 70.3477 3.32952 71.4856 3.33795C72.6151 3.34638 73.5254 4.25685 73.5339 5.38651C73.5507 6.52461 72.6151 7.47723 71.4772 7.47723C70.3477 7.48566 69.4121 6.54147 69.4121 5.40337Z" fill="#1C2346"/>
<path d="M37.1212 24.2379C37.1127 23.083 38.023 22.1641 39.1778 22.1641C40.3157 22.1641 41.226 23.0577 41.2429 24.1873C41.2598 25.3423 40.3494 26.2781 39.2115 26.2949C38.0568 26.3033 37.1296 25.3844 37.1212 24.2379Z" fill="#1C2346"/>
</svg>
