<svg width="97" height="50" viewBox="0 0 97 50" fill="none" xmlns="http://www.w3.org/2000/svg">
<path d="M65.7347 5.04887H62.5406C62.0687 5.04887 61.6895 4.66957 61.6895 4.19756V0.851312C61.6895 0.379297 62.0687 0 62.5406 0H65.7347C66.2067 0 66.5859 0.379297 66.5859 0.851312V4.19756C66.5943 4.66957 66.2067 5.04887 65.7347 5.04887Z" fill="#0A603D"/>
<path d="M43.0146 39.211H39.8121C39.3402 39.211 38.9609 38.8317 38.9609 38.3597V35.0134C38.9609 34.5414 39.3402 34.1621 39.8121 34.1621H43.0146C43.4866 34.1621 43.8658 34.5414 43.8658 35.0134V38.3597C43.8658 38.8317 43.4866 39.211 43.0146 39.211Z" fill="#0A603D"/>
<path d="M55.2602 32.3506H51.4172C50.979 32.3506 50.625 31.9966 50.625 31.5583V1.45051C50.625 1.01221 50.979 0.658203 51.4172 0.658203H55.2602C55.6984 0.658203 56.0524 1.01221 56.0524 1.45051V31.5583C56.0524 31.9966 55.6984 32.3506 55.2602 32.3506Z" fill="#0A603D"/>
<path d="M48.2975 22.3278C47.775 31.4646 36.1702 31.7259 35.2853 32.2822C31.299 32.8722 29.032 37.6008 28.0965 38.8904C26.6807 39.8091 26.1245 37.9379 26.1329 37.5502C26.2677 37.0698 26.2593 32.1726 30.5827 28.4218C31.4929 27.6295 32.6053 26.8878 33.9453 26.2472C34.7544 25.8679 36.0016 25.261 36.6253 25.2188C36.8697 25.1936 37.0804 25.202 37.2995 25.1851C44.7326 24.5867 42.4825 16.672 41.429 16.259C41.1509 15.9218 40.8812 15.6943 40.6874 15.551C39.7688 14.8598 38.808 14.7165 38.4372 14.666C38.2771 14.6407 38.1423 14.6322 38.0496 14.6238C35.2769 14.6238 32.5042 14.6238 29.7315 14.6238C29.6556 14.6238 29.5798 14.6154 29.504 14.5985C29.0067 14.4974 28.6275 14.0506 28.6275 13.5196V10.696C28.6275 10.0891 29.1247 9.5918 29.7315 9.5918H38.3867C41.2352 10.0301 43.2915 11.0584 44.7579 12.348C48.7021 15.8207 48.5082 21.173 48.2975 22.3278Z" fill="#0A603D"/>
<path d="M38.3966 9.60125H35.8262C36.4582 9.55911 37.1409 9.53382 37.8741 9.52539C38.0511 9.55068 38.228 9.57596 38.3966 9.60125Z" fill="#0A603D"/>
<path d="M86.7947 7.40039C81.2241 7.40039 76.7153 12.6347 76.7153 19.0912C76.7153 20.7517 77.0103 22.3363 77.5496 23.7607C75.4427 25.7668 71.8273 27.1913 67.0236 21.6873V7.79655H61.5709L61.4613 27.756C60.981 29.9391 60.5849 31.5743 58.183 32.257C57.9133 32.3329 57.6858 32.1559 57.2897 32.4509C56.034 34.6086 56.6155 37.1289 57.3992 37.7526C59.0679 37.8116 60.45 37.4323 61.5709 36.8676C64.0402 35.6032 65.2369 33.4033 65.4645 32.8723C66.2314 31.1191 66.737 29.7874 66.8382 28.3797C66.855 28.4219 66.8719 28.464 66.8887 28.5146C71.3975 31.8777 76.9344 31.2624 80.2802 28.0173C82.0331 29.7452 84.317 30.7904 86.7947 30.7904C92.357 30.7904 96.8742 25.5561 96.8742 19.0996C96.8742 12.6347 92.357 7.40039 86.7947 7.40039ZM91.767 20.6336C91.767 23.3562 89.559 25.5729 86.8285 25.5729C84.1063 25.5729 81.8899 23.3646 81.8899 20.6336V19.3356C81.8814 19.2597 81.8814 19.1923 81.8814 19.1165C81.8814 19.0406 81.8814 18.9647 81.8899 18.8973V17.515C81.8899 14.7925 84.0979 12.5757 86.8285 12.5757C89.5506 12.5757 91.767 14.784 91.767 17.515V20.6336Z" fill="#0A603D"/>
<path d="M10.4924 49.8567C10.4755 47.0583 10.4587 44.2599 10.4334 41.47C9.39679 41.4616 8.36862 41.4616 7.33202 41.4531C6.65781 42.7427 5.98361 44.0239 5.30097 45.3135C4.56777 44.0408 3.83456 42.7596 3.09293 41.4868H0.0337106C0.025283 44.2852 0.00842761 47.0836 0 49.8904C0.471946 49.8819 0.943893 49.882 1.42427 49.8735C1.41584 48.1878 1.39898 46.5104 1.39056 44.8247C2.1069 45.9963 2.83168 47.1594 3.54803 48.3226H5.52851C6.09316 47.2016 6.64939 46.0806 7.21404 44.9511C7.19718 46.5779 7.18033 48.213 7.16347 49.8398C8.27592 49.8482 9.38836 49.8567 10.4924 49.8567Z" fill="#0A603D"/>
<path d="M15.1531 48.6423V46.3412C16.274 46.3328 17.3949 46.3244 18.5157 46.3159V44.8662C17.3696 44.8578 16.2234 44.8493 15.0857 44.8409V42.759C16.451 42.7506 17.8163 42.7421 19.1815 42.7337V41.4609C16.7291 41.4694 14.2767 41.4778 11.8242 41.4862C11.8326 44.3267 11.8411 47.1588 11.8495 49.9993C14.4199 49.9909 16.9988 49.9825 19.5692 49.9741V48.6254C18.0944 48.6254 16.628 48.6339 15.1531 48.6423Z" fill="#0A603D"/>
<path d="M24.3978 48.5911C25.586 46.6862 26.7828 44.7729 27.9711 42.8595C27.9795 42.3959 27.9795 41.9323 27.9879 41.4688C25.4765 41.4856 22.9651 41.5025 20.4536 41.5193C20.4621 41.9492 20.4621 42.3706 20.4705 42.7921C21.6925 42.7836 22.9229 42.7668 24.1534 42.7584C23.8837 43.1882 23.614 43.6265 23.3359 44.0648C22.3751 45.5736 21.4144 47.0149 20.4368 48.3972C20.4284 48.903 20.4283 49.4087 20.4199 49.9144C22.9903 49.906 25.5608 49.8891 28.1312 49.8723V48.5827H24.3978V48.5911Z" fill="#0A603D"/>
<path d="M34.2154 41.377C33.4485 41.377 32.6815 41.377 31.9231 41.377C30.7938 44.2343 29.6645 47.0833 28.5352 49.9406C28.9987 49.9406 29.4538 49.9322 29.9173 49.9322C30.128 49.4012 30.3387 48.8618 30.5494 48.3307C31.5354 48.3307 32.5298 48.3223 33.5159 48.3223C33.7518 48.8618 33.9962 49.4012 34.2322 49.9491C35.3278 49.9406 36.415 49.9322 37.5106 49.9238C36.4065 47.0748 35.311 44.2259 34.2154 41.377ZM31.0382 47.058C31.3837 46.1308 31.7292 45.2036 32.0832 44.2765C32.4119 45.2036 32.7405 46.1308 33.0776 47.0664C32.395 47.0664 31.7208 47.058 31.0382 47.058Z" fill="#0A603D"/>
<path d="M43.3515 41.5117H40.1911C40.1995 43.2818 40.1995 45.0518 40.208 46.8219C40.2164 47.1759 40.1742 47.4625 40.1321 47.6648C40.0563 48.0272 39.9636 48.1452 39.8793 48.2295C39.7613 48.3306 39.6265 48.3644 39.5337 48.3812C39.3568 48.4065 39.1039 48.4149 38.8174 48.3728C38.5477 48.3306 38.3286 48.2548 38.16 48.1874C38.1516 48.6678 38.1432 49.1398 38.1348 49.6203C38.573 49.7298 38.9438 49.7888 39.2219 49.831C39.795 49.9068 41.0086 50.0164 42.1632 49.6371C42.3991 49.5612 42.6941 49.4432 42.9217 49.1735C42.9217 49.1735 43.1492 48.9038 43.2419 48.4908C43.3767 47.8502 43.4273 45.1614 43.3515 41.5117Z" fill="#0A603D"/>
<path d="M1.17578 13.8759C1.28556 13.9717 1.43245 14.0506 1.61646 14.1124C1.80046 14.1743 1.97518 14.2052 2.14062 14.2052C2.64469 14.2052 2.89673 14.0258 2.89673 13.6671C2.89673 13.5666 2.86967 13.4762 2.81555 13.3958C2.76143 13.3153 2.68722 13.2442 2.5929 13.1824C2.49858 13.1205 2.32153 13.0254 2.06177 12.8971C1.7015 12.7177 1.46415 12.5515 1.34973 12.3984C1.23531 12.2438 1.1781 12.0675 1.1781 11.8696C1.1781 11.5712 1.29793 11.3346 1.5376 11.1599C1.77726 10.9852 2.07955 10.8978 2.44446 10.8978C2.80164 10.8978 3.06372 10.9411 3.23071 11.0277V11.5333C3.01424 11.3833 2.74056 11.3083 2.40967 11.3083C2.1901 11.3083 2.01074 11.3547 1.87158 11.4475C1.73397 11.5387 1.66516 11.6663 1.66516 11.8302C1.66516 11.9755 1.71309 12.0938 1.80896 12.1851C1.90483 12.2763 2.11279 12.4008 2.43286 12.5585C2.7854 12.727 3.03202 12.8955 3.17273 13.0641C3.31344 13.2326 3.38379 13.422 3.38379 13.6323C3.38379 13.9478 3.26937 14.1897 3.04053 14.3583C2.81169 14.5268 2.49394 14.6111 2.08728 14.6111C1.94503 14.6111 1.77881 14.591 1.58862 14.5508C1.39998 14.5121 1.26237 14.4634 1.17578 14.4047V13.8759ZM4.5481 10.9581V14.5508H4.08423V10.9581H4.5481ZM8.41443 14.5508H7.86475L6.05798 11.756C6.00696 11.6771 5.96598 11.599 5.93506 11.5217H5.92114C5.93351 11.6021 5.9397 11.7699 5.9397 12.025V14.5508H5.48047V10.9581H6.06262L7.82068 13.7042C7.90417 13.8341 7.95365 13.9168 7.96912 13.9524H7.97839C7.96293 13.8503 7.9552 13.6756 7.9552 13.4282V10.9581H8.41443V14.5508ZM11.803 14.4023C11.5386 14.5415 11.2069 14.6111 10.808 14.6111C10.2931 14.6111 9.8818 14.448 9.5741 14.1217C9.2664 13.7939 9.11255 13.361 9.11255 12.8229C9.11255 12.2446 9.28573 11.7792 9.63208 11.4266C9.97843 11.0741 10.4183 10.8978 10.9518 10.8978C11.295 10.8978 11.5788 10.9465 11.803 11.0439V11.5287C11.5463 11.3864 11.2641 11.3153 10.9564 11.3153C10.5559 11.3153 10.2297 11.4491 9.97766 11.7166C9.72563 11.9825 9.59961 12.342 9.59961 12.795C9.59961 13.2249 9.71712 13.5666 9.95215 13.8202C10.1872 14.0722 10.4949 14.1982 10.8752 14.1982C11.2309 14.1982 11.5401 14.1178 11.803 13.957V14.4023ZM14.454 14.5508H12.522V10.9581H14.3728V11.371H12.9858V12.5214H14.2708V12.9319H12.9858V14.1403H14.454V14.5508Z" fill="#0A603D"/>
<path d="M2.70164 17.0558C2.70164 16.88 2.64609 16.7422 2.535 16.6423C2.42391 16.5411 2.27273 16.4905 2.08148 16.4905C1.94648 16.4905 1.81008 16.5249 1.67227 16.5938C1.53445 16.6627 1.40578 16.7612 1.28625 16.8891V16.4884C1.39313 16.3773 1.51406 16.2922 1.64906 16.2331C1.78547 16.1741 1.94508 16.1445 2.12789 16.1445C2.4232 16.1445 2.66086 16.224 2.84086 16.3829C3.02086 16.5404 3.11086 16.7541 3.11086 17.0241C3.11086 17.2646 3.05531 17.4727 2.94422 17.6485C2.83453 17.8243 2.64609 18.0043 2.37891 18.1885C2.10609 18.377 1.92328 18.512 1.83047 18.5935C1.73906 18.6751 1.67508 18.7531 1.63852 18.8277C1.60195 18.9022 1.58367 18.9929 1.58367 19.0998H3.20789V19.4668H1.15336V19.3044C1.15336 19.1159 1.17867 18.9563 1.2293 18.8255C1.28133 18.6934 1.36641 18.5654 1.48453 18.4416C1.60266 18.3165 1.78688 18.1667 2.03719 17.9923C2.29313 17.8123 2.4675 17.6548 2.56031 17.5198C2.65453 17.3834 2.70164 17.2287 2.70164 17.0558ZM3.62766 17.8974C3.62766 17.3209 3.72328 16.8849 3.91453 16.5896C4.10578 16.2929 4.38281 16.1445 4.74563 16.1445C5.4375 16.1445 5.78344 16.7028 5.78344 17.8194C5.78344 18.3706 5.6857 18.7925 5.49023 19.085C5.29617 19.3761 5.02336 19.5216 4.6718 19.5216C4.33992 19.5216 4.08258 19.3831 3.89977 19.1061C3.71836 18.8291 3.62766 18.4262 3.62766 17.8974ZM4.04953 17.8784C4.04953 18.7461 4.26961 19.1799 4.70977 19.1799C5.14289 19.1799 5.35945 18.7391 5.35945 17.8573C5.35945 16.9447 5.14711 16.4884 4.72242 16.4884C4.27383 16.4884 4.04953 16.9517 4.04953 17.8784ZM6.16313 17.8974C6.16313 17.3209 6.25875 16.8849 6.45 16.5896C6.64125 16.2929 6.91828 16.1445 7.28109 16.1445C7.97297 16.1445 8.31891 16.7028 8.31891 17.8194C8.31891 18.3706 8.22117 18.7925 8.0257 19.085C7.83164 19.3761 7.55883 19.5216 7.20727 19.5216C6.87539 19.5216 6.61805 19.3831 6.43523 19.1061C6.25383 18.8291 6.16313 18.4262 6.16313 17.8974ZM6.585 17.8784C6.585 18.7461 6.80508 19.1799 7.24523 19.1799C7.67836 19.1799 7.89492 18.7391 7.89492 17.8573C7.89492 16.9447 7.68258 16.4884 7.25789 16.4884C6.8093 16.4884 6.585 16.9517 6.585 17.8784ZM8.89898 19.0238C9.07898 19.1279 9.27305 19.1799 9.48117 19.1799C9.77367 19.1799 10.0001 19.0646 10.1604 18.834C10.3221 18.6034 10.403 18.2757 10.403 17.851L10.3988 17.8531L10.3945 17.851C10.2511 18.1238 10.0099 18.2602 9.67102 18.2602C9.3968 18.2602 9.16969 18.166 8.98969 17.9776C8.80969 17.7891 8.71969 17.5445 8.71969 17.2435C8.71969 16.9229 8.81812 16.6599 9.015 16.4546C9.21187 16.2479 9.46711 16.1445 9.7807 16.1445C10.1055 16.1445 10.3594 16.2725 10.5422 16.5284C10.725 16.783 10.8164 17.1542 10.8164 17.6422C10.8164 18.2455 10.6983 18.7095 10.462 19.0344C10.2258 19.3592 9.89883 19.5216 9.48117 19.5216C9.25195 19.5216 9.05789 19.4844 8.89898 19.4098V19.0238ZM9.13734 17.1908C9.13734 17.4102 9.19359 17.5845 9.30609 17.7139C9.41859 17.8419 9.57398 17.9059 9.77227 17.9059C9.94383 17.9059 10.088 17.8475 10.2047 17.7308C10.3214 17.6127 10.3798 17.4699 10.3798 17.3026C10.3798 17.0677 10.3214 16.8737 10.2047 16.7204C10.0894 16.5657 9.9368 16.4884 9.74695 16.4884C9.57117 16.4884 9.42562 16.5552 9.31031 16.6887C9.195 16.8223 9.13734 16.9897 9.13734 17.1908Z" fill="#0A603D"/>
</svg>
