<svg width="71" height="50" viewBox="0 0 71 50" fill="none" xmlns="http://www.w3.org/2000/svg">
<path d="M20.0491 38.1266C19.7786 35.9409 18.5954 34.6667 17.9531 33.1224C17.7756 32.6582 17.5981 32.0422 17.5981 31.2068C17.5981 30.1266 18.1474 28.5823 19.4067 28.4726C20.5984 28.3797 20.4886 29.9241 20.1336 30.8354C19.9561 31.2996 19.5842 31.654 19.5842 31.9156C22.1282 32.4641 23.9538 29.1814 22.4071 27.6371C21.6803 26.8186 19.9561 26.8186 18.7644 27.0886C15.9415 27.73 13.8624 29.9072 13.7526 32.6245C13.6596 35.443 15.7556 37.519 16.0261 40.076C16.2965 41.7975 15.9331 43.4262 15.0288 44.616C13.8371 46.1603 11.2086 46.1603 10.4817 44.7089C9.11256 42.0844 11.5636 39.7046 14.0315 39.443C13.4821 38.6245 12.0284 38.6245 10.8536 38.8017C8.75759 39.1561 6.5686 40.8945 6.85596 43.6962C7.12641 46.1435 9.59431 47.3333 11.9523 47.3333C17.1417 47.2996 20.6069 43.308 20.0491 38.1266ZM62.8823 11.0633C64.074 9.78903 65.6207 7.8903 65.7982 6.16878C66.1531 2.17722 60.9807 4.07595 61.8005 6.89451C62.8823 5.52743 64.4205 7.24895 62.8823 11.0633ZM68.9676 8.87764C67.5139 8.4135 66.4236 9.14768 65.9672 9.6962C64.1585 12.0591 67.5984 14.962 66.6095 17.3249C66.2546 18.1435 64.2431 19.3249 63.6937 17.8734C64.1585 17.6962 64.8854 17.3249 65.2404 16.6835C65.7052 15.9578 66.0602 14.4979 65.2404 13.9494C62.6964 12.8692 61.0483 18.135 62.9668 19.8565C63.6092 20.4979 64.4205 20.6751 65.5108 20.5823C67.8773 20.4895 70.3283 18.5823 70.4128 15.6878C70.4973 12.8017 68.2407 11.5274 68.9676 8.87764ZM61.2427 17.789C60.3384 19.5949 58.9692 20.0591 58.9692 18.9789C59.1467 17.5274 60.9722 11.5274 61.4202 9.98312L58.3269 10.3376C58.0564 10.5148 58.1494 10.9789 57.9719 11.1561C57.6169 9.96624 56.1632 10.0759 54.9715 10.692C53.2474 11.5949 51.4218 14.0422 50.6865 15.7806C49.9597 17.5865 48.768 20.6751 47.7707 20.6751C46.7734 20.6751 47.6777 18.6751 48.1256 17.5865C48.768 16.0422 50.5766 12.1435 48.3031 11.5949C46.3846 11.1308 44.8379 13.0464 43.9336 14.135C43.7561 13.4937 43.6631 12.9451 43.2068 12.7679C41.6601 11.865 39.3021 14.2194 38.6597 14.9536C38.8372 14.4895 38.9302 14.0506 39.0147 13.5865C37.9329 13.7637 36.8257 14.0506 35.6594 14.2278C35.1945 16.0338 34.6621 17.865 34.1127 19.6709C33.8423 20.4895 32.921 23.4852 31.7462 23.4852C30.8419 23.4852 33.1999 16.5823 33.8423 14.4051L30.6644 15.0464L30.1996 15.9494C30.1066 15.0464 29.2952 14.8692 28.281 15.1308C26.6499 15.5949 25.2807 17.0464 24.1989 18.5907C23.117 20.2194 22.2803 22.135 22.2803 23.8565C22.1874 25.5781 22.7452 26.9451 23.827 27.2068C25.83 27.7553 27.5542 25.4008 28.112 24.211C28.205 25.2068 28.5768 25.8397 29.0163 26.0169C30.6475 26.8354 32.4815 24.9367 32.8365 24.3882L32.4815 25.6624L36.1242 24.9367C36.4792 23.3924 36.944 21.5865 37.4934 19.9325C37.9582 18.3882 38.7696 15.8565 39.9444 15.654C40.2994 15.5612 39.9444 17.1983 39.7669 17.8397C39.1246 20.1097 38.4907 22.2954 37.7639 24.6498L41.3136 23.9241C41.7784 22.7342 42.0404 21.384 42.3954 20.0253C42.7504 18.6582 43.1222 17.1139 43.5871 16.1266C43.8575 15.5781 44.4069 14.7595 45.1337 14.7595C45.9536 14.7595 43.3251 19.3924 43.5871 21.8397C43.7646 23.0295 44.8633 23.6456 46.0381 23.4684C48.2271 23.1139 49.5033 21.1055 49.9428 20.3797C50.2977 23.9241 54.7602 21.9241 55.6815 19.5612C55.859 20.9283 56.5858 21.654 57.8705 21.5612C60.8877 21.2405 61.6146 17.8734 61.2427 17.789ZM28.3317 21.1392C27.8669 22.4135 26.7006 24.6835 26.1428 24.5992C25.5934 24.5063 25.7878 23.4093 25.9653 22.5992C26.3202 20.8776 27.3344 17.5949 28.7036 16.9789C29.7854 16.4219 28.7712 19.789 28.3317 21.1392ZM53.7883 19.6793C52.5121 19.9494 54.2531 15.0464 55.242 13.5949C55.8843 12.692 56.4337 12.0506 56.8732 12.0506C57.6 12.4473 55.149 19.3249 53.7883 19.6793ZM62.8823 24.3291C62.333 24.5992 61.8005 25.6962 61.3357 26.8692L61.2427 27.1392L61.1497 27.4093C60.6849 28.5992 59.958 30.0338 58.9607 30.9536C57.6845 32.1435 55.411 32.5823 55.6054 29.9578C57.5239 29.0549 60.0679 27.2236 60.3299 24.9536C60.5074 23.2321 59.5101 22.4135 57.9634 22.5907C56.2393 22.7679 54.8701 24.135 53.8813 25.4093C52.7994 26.8608 52.2501 28.4979 52.1571 30.3038C51.8867 30.6582 51.5148 31.2996 51.0753 31.7553C50.3484 32.5738 49.5286 33.2996 48.3369 33.2068C47.7876 33.2068 47.4326 32.6582 47.3396 32.1266C47.1622 30.8523 47.6946 29.308 48.244 28.0506C48.7933 26.7932 49.3258 25.5105 50.34 24.962C49.4357 25.6878 48.8863 28.0506 50.433 27.9578C52.529 27.865 52.622 24.0591 51.0753 23.5021C50.7203 23.3249 50.078 23.4093 49.7061 23.5021C47.8975 23.8565 46.5283 25.308 45.5141 26.6751C44.4323 28.2194 43.8829 30.7511 43.7054 31.9409C43.6124 32.1181 42.7081 34.0338 41.7023 33.9409C40.8825 33.9409 43.156 27.038 43.7984 24.8608C42.6067 25.038 41.4319 25.3249 40.2487 25.5865C39.6063 27.9494 37.4258 35.0211 36.4285 35.1308C35.4312 35.2236 37.9751 28.3207 38.702 26.0506L35.1523 26.7764C34.4254 29.4008 33.7831 32.2194 32.6083 34.3122C32.1435 35.038 31.2391 36.4051 30.6898 36.3122C29.9629 36.3122 32.0589 29.4093 32.7858 27.2321L29.608 27.8734L29.1431 28.7764C29.0501 27.8734 28.2388 27.6962 27.2246 27.9578C25.5934 28.4219 24.2242 29.8734 23.1424 31.4177C22.0606 33.0464 21.2239 34.962 21.2239 36.6835C21.1309 38.4051 21.6887 39.7722 22.7705 40.0338C24.7736 40.5823 26.4977 38.2278 27.0555 37.038C27.1485 38.0338 27.5204 38.6667 27.9599 38.8439C30.1489 39.8397 32.2449 36.6582 32.9717 35.8481C33.0647 37.1224 33.7916 37.8481 34.7804 37.7637C36.5046 37.5865 37.7808 35.8481 38.3301 34.6751C38.4231 35.4008 38.6006 35.9494 38.8795 36.3038C40.4261 37.7553 43.5195 34.9367 44.1533 33.5696C44.5083 34.3882 45.0577 35.0211 45.7845 35.1983C47.8805 35.9241 50.0695 34.2954 50.0695 34.2954C50.9739 33.7468 52.343 32.0253 52.5205 31.8481C52.9854 33.2996 54.0672 34.0338 55.5209 33.9409C59.4256 33.7637 61.5216 29.7553 62.3414 26.9536C62.4344 26.6835 62.6119 26.4895 62.6964 26.4051C63.6007 25.7637 63.2458 28.0338 63.0514 28.4051C61.7752 31.9494 60.6849 34.4895 51.0415 36.1181C45.5901 37.0211 36.9356 38.5654 34.2226 39.1139C28.8558 40.0169 24.9511 40.9198 22.6776 42.2869C19.2124 44.2869 18.8574 46.9198 19.9392 50C20.0322 46.9114 23.9369 45.3671 31.3997 44.0928C38.0428 43.0127 50.864 40.7426 51.219 40.6329C61.5892 38.9114 63.5838 32.1013 64.5051 27.5612C64.8009 25.3249 63.9811 23.865 62.8823 24.3291ZM57.338 24.5992C57.693 24.2447 58.2423 23.7806 58.7917 24.2447C58.9692 24.4219 58.8847 24.9705 58.7917 25.2405C58.4367 26.0591 57.4225 27.3333 55.8759 28.4135C55.7913 27.4177 56.6112 25.4093 57.338 24.5992ZM27.3175 34.0506C26.8527 35.3249 25.6864 37.6878 25.1286 37.5106C24.5792 37.3333 24.7736 36.3207 24.9511 35.5105C25.306 33.789 26.4048 30.7004 27.6894 29.8903C28.7712 29.0464 27.6894 32.6835 27.3175 34.0506ZM60.1609 0C60.0679 3.08861 56.1632 4.63291 48.7004 5.90717C46.5114 6.2616 28.3233 9.45148 28.2388 9.45148C20.0491 10.903 20.0491 10.9958 19.3222 13.173C18.1305 15.7131 15.857 20.4473 14.5977 23.5274C14.6907 17.7131 16.3219 11.4515 9.78025 12.9958C6.23053 13.8143 2.31739 18 2.68927 21.9916C2.68927 22.4557 2.95972 23.443 3.50908 23.9072C5.05574 25.097 7.15177 23.1814 7.32925 21.4599C6.86441 21.6371 6.33195 21.5527 6.13756 21.1899C5.23323 20 6.95738 16.4726 8.14062 15.3755C8.49559 15.0211 9.22244 14.557 9.59431 14.557C10.1437 14.827 10.0592 15.5527 10.0592 16.4726C10.2366 20.4641 7.14332 29.9156 4.86981 31.4599C2.95127 32.827 1.1426 32.0084 1.51448 29.4599C-1.84085 33.9156 0.965118 36.7342 4.25283 35.9156C9.15482 34.7257 10.431 23.1139 11.3438 19.6709C11.1663 23.8565 10.7945 26.7511 10.617 30.557L12.8905 30.2869C15.3415 25.4768 17.26 21.4684 19.449 17.308C18.8996 19.4008 17.26 23.2152 16.2712 26.8523C16.998 26.4979 17.7249 26.1266 18.5447 25.9494C19.0095 25.8565 19.542 25.7722 20.0913 25.7722H20.7337C20.8266 23.038 22.3648 18.4135 23.734 14.7764C25.0102 14.4219 26.4724 14.0506 28.281 13.7806C29.8277 13.5105 45.0999 10.8692 45.0999 10.8692C45.3704 10.8692 45.5648 10.7764 45.7423 10.7764C51.1091 9.87342 55.0138 8.97047 57.2873 7.60338C60.8877 5.70464 61.2427 3.08017 60.1609 0Z" fill="#AB1D15"/>
</svg>
