<svg width="51" height="50" viewBox="0 0 51 50" fill="none" xmlns="http://www.w3.org/2000/svg">
<path d="M30.1626 15.377V15.4191H30.1289C30.1458 15.4107 30.1626 15.3938 30.1626 15.377Z" fill="#006FC1"/>
<path d="M34.5409 22.6348H29.7109V27.3894H34.5409V22.6348Z" fill="#006FC1"/>
<path d="M42.2152 8.35547H36.8457V13.1186H42.2152V8.35547Z" fill="#006FC1"/>
<path d="M47.5329 0H2.49508C1.11267 0 0 1.12123 0 2.49536V47.5131C0 48.8872 1.11267 50 2.49508 50H47.5329C48.9069 50 50.0196 48.8872 50.0196 47.5131V2.48693C50.0196 1.12123 48.9069 0 47.5329 0ZM45.6279 44.6383H5.25146V4.79683H45.6279V44.6383Z" fill="#006FC1"/>
<path d="M30.1626 15.377V15.4191H30.1289C30.1458 15.4107 30.1626 15.3938 30.1626 15.377Z" fill="#006FC1"/>
<path d="M34.5409 22.6348H29.7109V27.3894H34.5409V22.6348Z" fill="#006FC1"/>
<path d="M42.2152 8.35547H36.8457V13.1186H42.2152V8.35547Z" fill="#006FC1"/>
<path d="M13.3521 20.7396V29.1445H34.9901V33.9498H8.99414V15.6224H29.6797C29.8483 15.6224 30.0169 15.5465 30.118 15.4285H30.1517V15.3863C30.236 15.2852 30.2866 15.1503 30.2866 15.0154V13.9447C30.2866 13.852 30.2613 13.7593 30.2192 13.675C30.2023 13.6413 30.1854 13.6075 30.1517 13.5738C30.0421 13.4305 29.8736 13.3378 29.6797 13.3378H8.99414V8.35547H34.9901V20.748L13.3521 20.7396Z" fill="#006FC1"/>
<path d="M34.5409 22.6348H29.7109V27.3894H34.5409V22.6348Z" fill="#006FC1"/>
<path d="M42.2152 8.35547H36.8457V13.1186H42.2152V8.35547Z" fill="#006FC1"/>
<path d="M42.2138 15.5195V41.7546L8.91797 41.6703V36.3255H36.8443V15.5195H42.2138Z" fill="#006FC1"/>
</svg>
