<?xml version="1.0" encoding="utf-8"?>
<!-- Generator: Adobe Illustrator 24.0.1, SVG Export Plug-In . SVG Version: 6.00 Build 0)  -->
<svg version="1.1" id="Layer_1" xmlns="http://www.w3.org/2000/svg" xmlns:xlink="http://www.w3.org/1999/xlink" x="0px" y="0px"
	 viewBox="0 0 704.5 710" style="enable-background:new 0 0 704.5 710;" xml:space="preserve">
<style type="text/css">
	.st0{fill:#00B258;}
	.st1{fill:#007DC5;}
	.st2{fill:#F15A31;}
</style>
<title>A559FDA9-A4D7-4945-829E-0BAD8C274FDC</title>
<g>
	<path class="st0" d="M391.6,339.4c4-0.2,7.9,1.8,10.1,5.1l-4.6,2.2c-0.6-1-1.5-1.8-2.5-2.4c-2.3-1-4.9-0.8-7,0.5
		c-1,0.5-1.6,1.6-1.6,2.7c0,1.5,1.3,2.7,4.1,3.6l3.8,1.3c2.5,0.7,4.8,1.9,6.6,3.7c1.4,1.4,2.2,3.3,2.1,5.3c0,2.8-1.3,5.4-3.5,7
		c-5,3.5-11.6,3.7-16.7,0.4c-2.1-1.6-3.5-4-3.9-6.6l5.7-1c0.1,1.3,0.6,2.6,1.3,3.7c1.3,1.4,3.2,2.1,5.1,2c1.6,0.1,3.1-0.4,4.4-1.4
		c1.6-1.3,2.2-3.4,1.5-5.3c-0.2-0.5-0.5-1-0.9-1.4c-0.5-0.4-1.1-0.8-1.7-1.2c-0.8-0.4-1.6-0.7-2.4-1l-3.6-1.2
		c-5.1-1.8-7.7-4.3-7.7-7.7c0-2.4,1.3-4.5,3.3-5.8C385.9,340.1,388.7,339.3,391.6,339.4"/>
	<polygon class="st0" points="427.3,344.3 414.2,344.3 414.2,351.6 426.9,351.6 426.9,356 414.2,356 414.2,370.5 408.6,370.5 
		408.6,340 427.3,340 	"/>
	<path class="st0" d="M440.3,366.2h2.6c2.1,0,4.1-0.2,6.1-0.7c1.6-0.4,3.2-1.2,4.5-2.2c2.7-1.8,4.3-4.9,4.2-8.1
		c0-3.2-1.5-6.3-4.1-8.2c-3.3-2.1-7.1-3-10.9-2.8h-2.6L440.3,366.2z M434.7,370.5v-30.5h7.9c3-0.1,6,0.2,9,0.9
		c2.2,0.6,4.3,1.6,6.1,3c6.3,4.3,7.9,12.9,3.6,19.1c-1,1.4-2.2,2.6-3.6,3.6c-1.8,1.4-3.9,2.4-6.1,3c-2.9,0.6-5.9,0.9-8.8,0.9
		L434.7,370.5z"/>
	<path class="st0" d="M486.6,358.8l-5.6-10.4l-6.1,10.4H486.6z M489,363.1h-16.1l-4.2,7.4h-6.1l18.6-32.5l17.9,32.5H493L489,363.1z"
		/>
	<path class="st1" d="M364.2,197.2C293.6,151,159.3,304.1,159.3,304.1v5.6l41.5-40.2c81.2-71,119.3-30.5,119.3-30.5
		c58.6,63.3-177.9,216.5-177.9,216.5l0.9,2.1c51.3-20.1,157.4-107.8,157.4-107.8c121.9-111.6,63.7-152.4,63.7-152.4"/>
	<path class="st0" d="M562.3,220.7v-2.2c-51.9,18-102.6,39.3-151.9,63.7c0,0-5.5-44.1,73.6-67l-0.4-4.3c0,0-109.1,23.5-112.1,95.8
		c0,0-117.2,86.8-75.3,142.1c0,0,33.8,42.3,131.8-14.1c0,0,65.9-40.2,89-59.5l-0.4-4.7c0,0-126.3,105.1-170.3,41.8
		S535.7,228,562.3,220.7"/>
	<path class="st2" d="M408.5,138.2c-16.8,0-30.5,13.6-30.5,30.5s13.6,30.5,30.5,30.5s30.5-13.6,30.5-30.5S425.3,138.2,408.5,138.2"
		/>
</g>
<g>
	<path class="st1" d="M121.4,523.7c-0.4-0.4-0.7-0.8-0.7-2.3c0.2-3,2.7-5.3,5.8-5.3c1.1,0.1,2.2,0.4,3.2,0.8l-0.7,1.5
		c-0.8-0.4-1.6-0.7-2.5-0.7c-1.9,0-4.2,1.6-4.2,3.1c0,1.1,0,1.7,0.5,2.1c0.6,0.8,1.8,0.7,3.5,0.7h3.8l-0.9,1.7h-8.6v-1.7H121.4z"/>
	<rect x="133.5" y="497.1" class="st1" width="3.6" height="28.1"/>
	<path class="st1" d="M165,520.3c0,11.5-4.7,12.6-12.9,12.8c-1,0-3.9,0-3.9,0s-1-1.3-2.3-3.6c6.4,0,12.1,0.6,13.7-1.8
		c0.8-1.1,1.8-2.8,1.8-7c0-6.6-2.5-12.3-8.5-12.2c-4,0-8.5,1.8-8.5,9.2c0,3.2,1.7,4,4.6,4h9.6l-2.4,3.6h-5.3c-7.3,0-10-0.9-10-7.6
		c-0.2-6.9,5.2-12.6,12.1-12.8C161.7,504.9,165,513.2,165,520.3"/>
	<path class="st1" d="M170,525.3l-1.8-3.6h13.7c3.8,0,6,0.3,7.4-1.5c0.9-1.1,1.2-2.1,1.2-4.7c0-3.3-4.5-6.9-8.8-6.9
		c-6,0-7.6,3.6-9.2,8.1h-3.8c0,0,0.5-1.9,0.9-3c1.6-5.3,6.6-8.8,12.1-8.5c7.1,0,12.6,6.2,12.6,11.6c-0.1,1.7-0.5,3.4-1.2,5h3.9v3.6
		H170z"/>
	<polygon class="st1" points="200.5,521.7 200.5,497.1 204.1,497.1 204.1,525.3 195,525.3 195,521.7 	"/>
	<rect x="208.9" y="497.1" class="st1" width="3.6" height="28.1"/>
	<path class="st1" d="M240.4,520.3c0,11.5-4.7,12.6-12.9,12.8c-1,0-3.9,0-3.9,0s-0.9-1.3-2.3-3.6c6.4,0,12,0.6,13.7-1.8
		c0.8-1.1,1.8-2.8,1.8-7c0-6.6-2.5-12.3-8.5-12.2c-3.9,0-8.5,1.8-8.5,9.2c0,3.2,1.7,4,4.6,4h9.6l-2.4,3.6h-5.3c-7.3,0-10-0.9-10-7.6
		c-0.2-6.9,5.2-12.6,12.1-12.8C237.1,504.9,240.4,513.2,240.4,520.3"/>
	<path class="st1" d="M255.1,523.7c-0.4-0.4-0.7-0.8-0.7-2.3c0.2-3,2.8-5.4,5.8-5.3c1.1,0.1,2.2,0.4,3.2,0.8l-0.7,1.5
		c-0.8-0.4-1.6-0.7-2.5-0.7c-1.9,0-4.1,1.7-4.1,3.2c0,1.1,0,1.7,0.5,2.1c0.6,0.8,1.8,0.7,3.5,0.7h3.7l-0.9,1.7h-8.6v-1.7H255.1z"/>
	<rect x="267.2" y="497.1" class="st1" width="3.6" height="28.1"/>
	<path class="st1" d="M288.8,500c0.2,1.3-0.7,2.5-2,2.8c0,0,0,0-0.1,0c-1.3,0.2-2.6-0.8-2.8-2.1c-0.2-1.3,0.8-2.6,2.1-2.8
		C287.4,497.8,288.6,498.7,288.8,500C288.8,500,288.8,500,288.8,500 M275.9,525.3l-1.8-3.6h13.7c3.8,0,6,0.3,7.4-1.5
		c0.9-1.1,1.2-2.1,1.2-4.7c0-3.3-4.5-6.9-8.8-6.9c-6,0-7.6,3.6-9.2,8.1h-3.8c0,0,0.5-1.9,0.9-3c1.6-5.3,6.6-8.8,12.1-8.5
		c7.1,0,12.6,6.2,12.6,11.6c-0.1,1.7-0.5,3.4-1.2,5h3.9v3.6H275.9z"/>
	<path class="st1" d="M316.9,499.6c0.2,1.3-0.8,2.6-2.1,2.7s-2.6-0.8-2.7-2.1c-0.2-1.3,0.8-2.5,2.1-2.7
		C315.5,497.3,316.7,498.2,316.9,499.6C316.9,499.5,316.9,499.5,316.9,499.6 M327,515.6c0-3.3-4.2-6.9-10.3-6.9
		c-4.3,0-10.2,3.6-10.2,6.9c0,2.6,0,3.6,0.9,4.7c1.4,1.7,5.5,1.5,9.2,1.5c3.8,0,8,0.3,9.4-1.5C326.9,519.2,327,518.2,327,515.6
		 M300.9,521.7h3.6c-0.9-0.8-1.5-1.6-1.5-5c0.1-3.1,1.5-6.1,3.9-8.1h-3.7l3.2-3.6H318c7.1,0,12.6,6.2,12.6,11.6c0,3.4-0.6,4.1-1.5,5
		h3.6v3.6h-31.8V521.7z"/>
	<polygon class="st1" points="336.9,521.7 336.9,497.2 340.5,497.2 340.5,521.7 345,521.7 345,525.3 331.4,525.3 331.4,521.7 	"/>
	<polygon class="st1" points="349.3,521.7 349.3,497.1 352.8,497.1 352.8,525.3 343.7,525.3 343.7,521.7 	"/>
	<path class="st1" d="M384.1,498.9c0.2,1.3-0.8,2.5-2.1,2.7c-1.3,0.2-2.5-0.8-2.7-2.1c-0.2-1.3,0.8-2.5,2.1-2.7
		C382.7,496.6,383.9,497.5,384.1,498.9C384.1,498.9,384.1,498.9,384.1,498.9 M378.9,498.9c0.2,1.3-0.7,2.5-2,2.7c0,0,0,0,0,0
		c-1.3,0.2-2.6-0.7-2.8-2c-0.2-1.3,0.7-2.6,2-2.8C377.4,496.6,378.6,497.5,378.9,498.9C378.9,498.9,378.9,498.9,378.9,498.9
		 M370.4,515.6c0,2.6-0.2,3.7,0.6,4.8c1.3,1.7,4.4,1.4,8.1,1.4h8.1c3,0,1.4-5.8,1.4-5.8c-1.7-4.5-3.3-7.3-9.2-7.3
		C375.2,508.7,370.5,512.2,370.4,515.6 M392.4,505.1v16.6h2.9v3.6h-22.7c-1.8-0.5-3.4-1.6-4.5-3.2c-0.9-1.7-1-2-1-5.4
		c0-5.4,5.4-11.6,12.6-11.6c3.4,0,6.7,1.3,9.2,3.8v-3.8L392.4,505.1z"/>
	<path class="st1" d="M410.4,514.4c2.1,2.3,3,5.6,2.2,8.7c-0.2,0.9-0.6,1.8-1.2,2.5c-1.2,1.7-3,3.6-4.8,2.5
		c-2.9-1.7-6.1-3.5-6.1-3.5l0.5-3.9c0.2,0,4.8,3.3,6.3,3.6c0,0,2-0.1,2-3.8c0.1-2.6-1.9-4.8-4.5-4.9c-0.2,0-0.4,0-0.6,0
		c-3.1,0-3.9,1.5-4.5,4c-0.5,2.2-0.2,4.2-2.4,5.3c-0.8,0.3-1.6,0.4-2.4,0.4h-1v-3.6h1c0.7,0,1.4,0,1.4-0.6c0-3.7,1.5-8.9,8.6-8.9
		C406.8,512.2,408.8,513,410.4,514.4"/>
	<polygon class="st1" points="424.9,525.3 415.8,525.3 415.8,497.1 419.4,497.1 419.4,521.7 424.9,521.7 	"/>
	<path class="st1" d="M449.5,515.6c0-3.3-4.2-6.9-10.3-6.9c-4.3,0-10.2,3.6-10.2,6.9c0,2.6,0.1,3.6,0.9,4.7c1.3,1.7,5.4,1.5,9.2,1.5
		c3.8,0,8,0.3,9.4-1.5C449.4,519.2,449.5,518.2,449.5,515.6 M423.4,521.7h3.6c-0.9-0.8-1.5-1.6-1.5-5c0.1-3.1,1.5-6.1,3.9-8.1h-3.7
		l3.2-3.6h11.6c7.1,0,12.6,6.2,12.6,11.6c0,3.4-0.6,4.1-1.5,5h3.6v3.6h-31.8L423.4,521.7z"/>
	<polygon class="st1" points="459.4,521.7 459.4,497.1 463,497.1 463,525.3 453.9,525.3 453.9,521.7 	"/>
	<rect x="467.8" y="497.1" class="st1" width="3.6" height="28.1"/>
	<path class="st1" d="M501.7,498.9c0.1,1.3-0.9,2.5-2.2,2.6c-1.3,0.1-2.4-0.8-2.6-2c-0.2-1.3,0.7-2.6,2-2.8c1.3-0.2,2.6,0.7,2.8,2
		C501.7,498.8,501.7,498.9,501.7,498.9 M496.5,498.9c0.2,1.3-0.7,2.5-2,2.7c0,0,0,0,0,0c-1.3,0.2-2.6-0.8-2.7-2.1s0.8-2.6,2.1-2.7
		C495.1,496.6,496.3,497.6,496.5,498.9C496.5,498.9,496.5,498.9,496.5,498.9 M488.1,515.5c0,2.6-0.2,3.7,0.6,4.8
		c1.3,1.7,4.4,1.4,8.1,1.4h8.1c3,0,1.3-5.8,1.3-5.8c-1.7-4.5-3.3-7.3-9.2-7.3C492.8,508.7,488.1,512.2,488.1,515.5 M509.9,505.1
		v16.6h2.9v3.6h-22.7c-1.8-0.5-3.4-1.6-4.5-3.2c-0.9-1.7-1-2-1-5.4c0-5.4,5.4-11.6,12.6-11.6c3.4,0,6.7,1.3,9.1,3.6v-3.8
		L509.9,505.1z"/>
	<path class="st1" d="M515.9,506.2c-0.3-0.3-0.5-0.6-0.5-1.7c0.2-2.2,2-3.8,4.1-3.8c0.8,0.1,1.6,0.3,2.3,0.6l-0.5,1.1
		c-0.6-0.3-1.2-0.5-1.8-0.5c-1.4,0-3,1.2-3,2.3c0,0.8,0,1.2,0.4,1.5c0.4,0.6,1.3,0.5,2.5,0.5h2.7l-0.6,1.1h-6.2v-1.1H515.9z
		 M516.9,521.7v-11.1h3.5v11.1h4.5v3.6h-13.6v-3.6H516.9z"/>
	<path class="st1" d="M534.8,529.6c0.2,1.3-0.7,2.5-2,2.7c0,0,0,0,0,0c-1.3,0.2-2.6-0.7-2.8-2.1c-0.2-1.3,0.7-2.6,2.1-2.8
		C533.3,527.3,534.6,528.2,534.8,529.6C534.8,529.6,534.8,529.6,534.8,529.6 M529.6,529.6c0.2,1.3-0.8,2.6-2.1,2.7s-2.6-0.8-2.7-2.1
		c-0.2-1.3,0.8-2.5,2.1-2.7C528.2,527.3,529.4,528.2,529.6,529.6C529.6,529.6,529.6,529.6,529.6,529.6 M528.7,521.7v-11.1h3.6v11.1
		h4.5v3.6h-13.6v-3.6H528.7z"/>
	<path class="st1" d="M561.2,515.6c0-3.1-5-6.8-9-6.8v13c3.9,0,6.8,0.1,8-1.5C561.1,519.1,561.2,518.1,561.2,515.6 M548.6,508.9
		c-4.1,0-7.9,3.8-7.9,6.6s0.1,3.6,0.9,4.7c1.1,1.5,7,1.5,7,1.5V508.9z M548.6,503.8l3.6-1.6v3c7.1,0,12.5,6.2,12.5,11.6
		c0,3.4-0.6,4.1-1.5,5h3.6v3.6h-31.7v-3.6h3.6c-0.9-0.8-1.5-1.6-1.5-5c0-4.7,4.3-10,11.5-11.3L548.6,503.8z"/>
	<polygon class="st1" points="570.9,521.7 570.9,497.1 574.5,497.1 574.5,525.3 565.4,525.3 565.4,521.7 	"/>
	<rect x="579.3" y="497.1" class="st1" width="3.6" height="28.1"/>
	<path class="st1" d="M136.2,550.4l-2.9,1.7c-0.4-0.7-0.9-1.3-1.5-1.8c-0.6-0.3-1.3-0.5-2-0.5c-0.9,0-1.8,0.3-2.4,0.8
		c-0.6,0.5-1,1.3-1,2.1c0,1.1,0.8,2.1,2.5,2.7l2.3,1c1.6,0.6,3,1.5,4.2,2.8c0.9,1.2,1.4,2.6,1.3,4.1c0.1,2-0.7,3.9-2.1,5.3
		c-1.4,1.4-3.4,2.2-5.4,2.1c-1.8,0.1-3.6-0.6-5-1.8c-1.4-1.4-2.3-3.2-2.5-5.1l3.6-0.8c0.1,1,0.3,1.9,0.9,2.8c0.7,1,1.9,1.6,3.2,1.5
		c1,0,2-0.4,2.7-1.1c0.7-0.7,1.1-1.8,1.1-2.8c0-0.4-0.1-0.8-0.2-1.2c-0.1-0.4-0.3-0.7-0.6-1c-0.3-0.3-0.7-0.6-1-0.9
		c-0.5-0.3-1-0.6-1.5-0.8l-2.3-0.9c-3.2-1.4-4.8-3.4-4.8-6c0-1.7,0.7-3.3,2-4.4c1.4-1.2,3.2-1.8,5-1.7
		C132.5,546.5,135,548,136.2,550.4"/>
	<path class="st1" d="M144.4,562.8c-0.1,1.2,0.3,2.5,1.1,3.4c0.7,0.9,1.8,1.4,2.9,1.4c1.1,0,2.2-0.4,3-1.3c1.6-2,1.6-4.8,0-6.8
		c-0.8-0.9-1.9-1.3-3-1.3c-1.1,0-2.2,0.5-2.9,1.3C144.7,560.4,144.3,561.6,144.4,562.8 M152.5,555.6h3.4v14.8h-3.4v-1.5
		c-2.5,2.6-6.7,2.6-9.3,0.1c-0.1-0.1-0.2-0.2-0.3-0.3c-1.4-1.6-2.1-3.7-2-5.8c-0.1-2,0.6-4,2-5.5c1.2-1.4,3.1-2.3,5-2.2
		c1.8,0,3.5,0.8,4.6,2.1V555.6z"/>
	<path class="st1" d="M166.1,555.6v8.4c0,2.4,1,3.6,2.9,3.6s2.9-1.2,2.9-3.6v-8.4h3.4v8.5c0,1-0.1,2-0.4,3c-0.3,0.8-0.8,1.5-1.5,2.1
		c-1.2,1-2.8,1.6-4.4,1.5c-1.6,0.1-3.2-0.5-4.4-1.5c-0.7-0.6-1.2-1.3-1.5-2.1c-0.3-1-0.5-2-0.4-3v-8.5H166.1z"/>
	<path class="st1" d="M184.2,562.8c-0.1,1.2,0.3,2.5,1.1,3.4c0.7,0.9,1.8,1.4,3,1.4c1.1,0,2.2-0.4,3-1.3c1.6-2,1.6-4.8,0-6.8
		c-1.5-1.7-4-1.8-5.7-0.3c-0.1,0.1-0.2,0.2-0.3,0.3C184.5,560.4,184.1,561.6,184.2,562.8 M192.3,544.7h3.5v25.7h-3.5v-1.5
		c-1.2,1.2-2.8,1.9-4.5,2c-1.9,0-3.8-0.8-5-2.2c-1.4-1.6-2.1-3.7-2-5.8c-0.1-2,0.6-4,2-5.5c2.3-2.7,6.3-3,8.9-0.7
		c0.2,0.2,0.4,0.4,0.6,0.6L192.3,544.7z"/>
	<path class="st1" d="M205.5,570.4H202v-14.8h3.4V570.4z M201.5,549.5c0-1.2,1-2.2,2.2-2.2c1.2,0,2.2,1,2.2,2.2
		c0,0.6-0.2,1.1-0.6,1.5c-0.4,0.4-0.9,0.6-1.5,0.6C202.6,551.6,201.6,550.7,201.5,549.5C201.6,549.4,201.6,549.4,201.5,549.5"/>
	<polygon class="st1" points="235.5,550.3 227.4,550.3 227.4,555.9 235.2,555.9 235.2,559.2 227.4,559.2 227.4,570.3 223.9,570.3 
		223.9,547 235.5,547 	"/>
	<path class="st1" d="M244.2,562.8c-0.1,1.3,0.4,2.5,1.2,3.5c1.8,1.7,4.6,1.7,6.4,0c1.6-2,1.6-4.9,0-6.9c-0.8-0.9-2-1.4-3.2-1.3
		c-1.2,0-2.3,0.4-3.2,1.3C244.6,560.4,244.2,561.6,244.2,562.8 M240.8,562.8c0-2.1,0.8-4,2.3-5.4c3.1-3,8.1-3,11.2,0
		c3,3.1,3,8,0,11.1c-1.5,1.5-3.6,2.3-5.7,2.2c-2.1,0-4.1-0.8-5.6-2.3C241.5,567,240.7,564.9,240.8,562.8"/>
	<path class="st1" d="M264.7,562.8c-0.1,1.3,0.4,2.5,1.2,3.5c1.8,1.7,4.6,1.7,6.4,0c1.6-2,1.6-4.9,0-6.9c-0.8-0.9-2-1.4-3.2-1.3
		c-1.2,0-2.3,0.4-3.2,1.3C265.1,560.4,264.6,561.6,264.7,562.8 M261.2,562.8c0-2.1,0.8-4,2.3-5.4c3.1-3,8.1-3,11.2,0
		c3,3.1,3,8,0,11.1c-1.5,1.5-3.6,2.3-5.7,2.2c-2.1,0-4.1-0.8-5.6-2.3C262,567,261.2,564.9,261.2,562.8"/>
	<path class="st1" d="M285.8,562.8c-0.1,1.2,0.3,2.5,1.1,3.4c0.7,0.9,1.8,1.4,3,1.4c1.1,0,2.2-0.4,3-1.3c1.5-2,1.5-4.8,0-6.8
		c-0.8-0.9-1.9-1.3-3-1.3c-1.2,0-2.3,0.5-3,1.3C286.2,560.4,285.7,561.6,285.8,562.8 M293.9,544.7h3.4v25.7h-3.4v-1.5
		c-1.2,1.2-2.8,1.9-4.5,2c-2,0-3.8-0.8-5.1-2.3c-1.4-1.6-2.1-3.6-2-5.7c-0.1-2,0.7-4,2-5.4c2.3-2.7,6.3-3,8.9-0.7
		c0.2,0.2,0.4,0.4,0.6,0.6V544.7z"/>
	<path class="st1" d="M322.1,554.8l0.3-0.2c0.5-0.4,0.9-0.7,1.2-1c0.3-0.2,0.5-0.4,0.7-0.7c0.3-0.4,0.5-0.9,0.5-1.4
		c0-0.6-0.2-1.1-0.6-1.5c-0.5-0.4-1-0.6-1.7-0.6c-0.6,0-1.2,0.2-1.6,0.6c-0.4,0.4-0.7,0.9-0.6,1.5c0,0.7,0.3,1.5,0.8,2l0.9,1.1
		L322.1,554.8 M321.3,559.4l-0.2,0.1c-1.1,0.7-2.1,1.5-3,2.4c-0.5,0.5-0.7,1.2-0.8,1.9c0.1,2.1,1.8,3.7,3.8,3.8
		c1.4,0,2.9-0.9,4.7-2.7L321.3,559.4z M324.1,557.4l4.2,5.1l0.1-0.2c0.5-0.5,0.9-1,1.3-1.5s0.8-0.9,1.2-1.5l2.3,2.4
		c-0.3,0.4-0.7,0.9-1.1,1.4s-1,1.1-1.6,1.8l4.3,5.4h-4.4l-2.3-2.9c-1.7,2-4.1,3.2-6.7,3.3c-1.9,0.1-3.8-0.7-5.3-2
		c-1.4-1.3-2.2-3.1-2.1-4.9c0-2.4,1.3-4.6,3.3-5.9l1.5-1h0.1l0.2-0.2c-1.4-1.3-2.2-3-2.3-4.9c-0.1-1.4,0.5-2.8,1.5-3.8
		c2.3-2,5.7-2,8,0c1,0.9,1.6,2.3,1.5,3.6c0,1-0.3,1.9-0.9,2.7c-0.9,1.1-1.9,2.2-3.1,3"/>
	<path class="st1" d="M354.4,567h1.6c1.3,0,2.7-0.1,4-0.5c3.4-1.1,5.6-4.3,5.4-7.9c0.1-2.3-0.9-4.6-2.6-6.2
		c-1.9-1.6-4.4-2.3-6.9-2.1h-1.6L354.4,567z M350.9,570.4V547h4.9c1.9-0.1,3.8,0.2,5.6,0.7c1.5,0.5,2.9,1.3,4,2.3
		c2.4,2.2,3.8,5.4,3.6,8.7c0.1,5-3,9.4-7.7,11c-1.8,0.5-3.6,0.7-5.5,0.7L350.9,570.4z"/>
	<path class="st1" d="M374.6,555.6h3.4v1.2c0.5-0.5,1-1,1.7-1.3c0.5-0.3,1.1-0.4,1.8-0.4c1,0,2,0.3,2.8,0.9l-1.5,3.1
		c-0.5-0.4-1.2-0.7-1.9-0.7c-1.8,0-2.8,1.4-2.8,4.2v7.7h-3.4L374.6,555.6z"/>
	<path class="st1" d="M392.5,555.6v8.4c0,2.4,1,3.6,2.9,3.6s2.9-1.2,2.9-3.6v-8.4h3.4v8.5c0,1-0.1,2-0.4,3c-0.3,0.8-0.8,1.5-1.5,2.1
		c-2.6,2-6.2,2-8.8,0c-0.7-0.6-1.2-1.3-1.5-2.1c-0.3-1-0.5-2-0.4-3v-8.5H392.5z"/>
	<path class="st1" d="M418.7,563c0.1-1.2-0.4-2.5-1.2-3.4c-0.8-0.9-1.9-1.4-3-1.3c-1.2,0-2.3,0.5-3,1.5c-1.3,2-1.3,4.6,0,6.6
		c0.7,0.9,1.8,1.4,3,1.4c1.2,0.1,2.3-0.5,3.1-1.4C418.3,565.4,418.7,564.2,418.7,563 M421.9,570c0,0.7,0,1.3-0.1,1.8s-0.1,1-0.2,1.4
		c-0.2,1.1-0.8,2-1.5,2.9c-1.4,1.6-3.4,2.4-5.5,2.3c-1.8,0.1-3.5-0.5-4.9-1.6c-1.3-1.1-2.2-2.8-2.3-4.5h3.4c0.1,0.6,0.3,1.2,0.7,1.7
		c0.7,0.9,1.9,1.5,3.1,1.4c2.5,0,3.7-1.5,3.7-4.6v-2.1c-1.2,1.3-2.9,2.1-4.7,2.1c-1.9,0-3.6-0.8-4.9-2.2c-1.3-1.5-2-3.5-1.9-5.5
		c-0.1-2,0.6-3.9,1.8-5.5c1.2-1.6,3.1-2.5,5.1-2.4c1.8,0,3.5,0.7,4.6,2.1v-1.7h3.4L421.9,570z"/>
	<path class="st1" d="M452.9,561.3l-3.5-8l-3.6,8H452.9z M454.4,564.7h-10.1l-2.6,5.7h-3.8l11.5-24.9l11.2,24.9h-3.9L454.4,564.7z"
		/>
	<path class="st1" d="M468.1,555.6v8.4c0,2.4,1,3.6,2.9,3.6c1.9,0,2.9-1.2,2.9-3.6v-8.4h3.4v8.5c0,1-0.1,2-0.5,3
		c-0.3,0.8-0.8,1.5-1.5,2.1c-2.6,2-6.2,2-8.8,0c-0.7-0.6-1.2-1.3-1.5-2.1c-0.3-1-0.5-2-0.4-3v-8.5H468.1z"/>
	<polygon class="st1" points="487.8,558.8 487.8,570.3 484.4,570.3 484.4,558.8 482.9,558.8 482.9,555.6 484.4,555.6 484.4,550.2 
		487.8,550.2 487.8,555.6 490.5,555.6 490.5,558.8 	"/>
	<path class="st1" d="M495,544.7h3.4v12c1.1-1,2.5-1.6,4-1.6c1.5,0,3,0.6,4,1.7c1,1.3,1.4,2.9,1.3,4.5v9h-3.4v-8.8
		c0.1-0.9-0.1-1.8-0.6-2.6c-0.5-0.6-1.3-0.9-2-0.8c-1-0.1-1.9,0.3-2.5,1.1c-0.6,1.2-0.8,2.5-0.7,3.8v7.2H495V544.7z"/>
	<path class="st1" d="M516.5,562.8c-0.1,1.3,0.4,2.5,1.2,3.5c0.8,0.9,2,1.3,3.2,1.3c1.2,0.1,2.4-0.4,3.2-1.3c1.6-2,1.6-4.8,0-6.9
		c-0.8-0.9-2-1.4-3.2-1.3c-1.2,0-2.3,0.4-3.2,1.3C516.9,560.4,516.4,561.6,516.5,562.8 M513,562.8c0-2.1,0.8-4,2.3-5.4
		c3.1-3,8.1-3,11.2,0c3.1,3.1,3.1,8,0,11.1c-1.5,1.5-3.5,2.3-5.6,2.2c-2.1,0-4.1-0.8-5.6-2.3C513.7,567,512.9,564.9,513,562.8"/>
	<path class="st1" d="M534.4,555.6h3.4v1.2c0.5-0.5,1-1,1.7-1.3c0.5-0.3,1.1-0.4,1.8-0.4c1,0,2,0.3,2.8,0.9l-1.5,3.1
		c-0.5-0.4-1.2-0.7-1.9-0.7c-1.9,0-2.8,1.4-2.8,4.2v7.7h-3.4L534.4,555.6z"/>
	<path class="st1" d="M551.9,570.4h-3.4v-14.8h3.4L551.9,570.4z M548,549.5c0-1.2,1-2.2,2.2-2.2c0.6,0,1.2,0.2,1.6,0.6
		c0.4,0.4,0.6,0.9,0.6,1.5c0,0.6-0.2,1.1-0.6,1.5c-0.4,0.4-0.9,0.6-1.5,0.6c-0.6,0-1.1-0.2-1.5-0.6c-0.4-0.4-0.7-1-0.6-1.6"/>
	<polygon class="st1" points="561.6,558.8 561.6,570.3 558.2,570.3 558.2,558.8 556.7,558.8 556.7,555.6 558.2,555.6 558.2,550.2 
		561.6,550.2 561.6,555.6 564.3,555.6 564.3,558.8 	"/>
	<polygon class="st1" points="573.9,567.6 567.3,555.6 571.2,555.6 575.7,564.1 579.9,555.6 583.8,555.6 572,578.3 568.2,578.3 	"/>
	<rect x="120.8" y="538.9" class="st0" width="461.7" height="1.1"/>
</g>
</svg>
