<?xml version="1.0" encoding="utf-8"?>
<!-- Generator: Adobe Illustrator 24.0.1, SVG Export Plug-In . SVG Version: 6.00 Build 0)  -->
<svg version="1.1" id="Layer_1" xmlns="http://www.w3.org/2000/svg" xmlns:xlink="http://www.w3.org/1999/xlink" x="0px" y="0px"
	 viewBox="0 0 704.5 710" style="enable-background:new 0 0 704.5 710;" xml:space="preserve">
<style type="text/css">
	.st0{fill:#006A46;}
	.st1{fill:#8BA0D0;}
	.st2{fill:#FFFFFF;}
	.st3{fill:#0D6B30;}
</style>
<title>A559FDA9-A4D7-4945-829E-0BAD8C274FDC</title>
<g>
	<path class="st0" d="M351.8,137.2c-72.4,0-131.3,58.9-131.3,131.3c0,35,13.7,68,38.5,92.8c24.8,24.8,57.8,38.5,92.8,38.5l0,0
		c35,0,67.9-13.7,92.8-38.5c24.8-24.8,38.5-57.8,38.5-92.8s-13.7-67.9-38.5-92.8C419.8,150.9,386.8,137.2,351.8,137.2L351.8,137.2
		L351.8,137.2z M351.8,401.5L351.8,401.5c-35.4,0-68.8-13.9-94-39c-25.2-25.2-39-58.6-39-94c0-73.3,59.7-133,133-133l0,0
		c35.4,0,68.8,13.9,94,39c25.2,25.2,39,58.6,39,94s-13.9,68.8-39,94C420.7,387.7,387.3,401.5,351.8,401.5"/>
	<path class="st1" d="M446.9,238.3c0,53.3-43.3,96.6-96.6,96.6s-96.6-43.3-96.6-96.6s43.3-96.6,96.6-96.6S446.9,185,446.9,238.3"/>
	<path class="st0" d="M351.7,303.7c-44.2,0-80.1-35.9-80.1-80.2s35.9-80.2,80.2-80.1c44.3,0,80.1,35.9,80.1,80.2
		S396.1,303.7,351.7,303.7 M351.8,142.4c-69.6,0-126.1,56.4-126.1,126.1c0,69.6,56.4,126.1,126.1,126.1
		c69.6,0,126.1-56.4,126.1-126.1C478,198.9,421.6,142.4,351.8,142.4"/>
	<path class="st0" d="M351.7,303.4L351.7,303.4c44,0,79.8-35.8,79.8-79.8c0-21.3-8.3-41.4-23.4-56.4c-15-15-35.1-23.4-56.4-23.4l0,0
		c-21.3,0-41.4,8.3-56.4,23.4S272,202.3,272,223.6C272,267.6,307.7,303.4,351.7,303.4 M351.7,304.2L351.7,304.2
		c-44.4,0-80.6-36.1-80.6-80.6c0-21.5,8.4-41.7,23.6-57c15.3-15.2,35.4-23.6,57-23.6l0,0c21.5,0,41.7,8.4,57,23.6
		c15.2,15.3,23.6,35.4,23.6,57C432.3,268.1,396.2,304.2,351.7,304.2 M351.8,142.8c-69.3,0-125.7,56.4-125.7,125.7
		c0,33.6,13.1,65.2,36.8,88.9c23.7,23.7,55.3,36.8,88.9,36.8l0,0c69.3,0,125.7-56.4,125.7-125.7s-56.4-125.8-125.7-125.8l0,0V142.8z
		 M351.8,395.1L351.8,395.1c-33.8,0-65.6-13.2-89.5-37c-23.9-23.9-37-55.7-37-89.5c0-69.7,56.7-126.5,126.5-126.5l0,0
		c69.7,0,126.5,56.7,126.5,126.6c0,69.7-56.7,126.5-126.6,126.5"/>
	<path class="st2" d="M401,304.7c0,0,6.8,1.8,14-2.2c0,0,0,3.2,0.7,4.1c0.6,0.6,26.6,25.2,26.6,25.2l-5.2,7l-35.9-33.5
		c0,0-0.3-0.6,0-0.5"/>
	<path class="st2" d="M397.8,308.5c0,0,1.4,7.3-1.6,14.2l3.6,0.3l10.1,9.2c0,0-8.1,7.2-14.2,10.7c0,0-0.6,0.3-0.7,0
		c-0.2-0.3-7.2-10.9-7.2-10.9s-1.1,9.3-4.3,12.8v0.9c0,0,1.4,0,2.4,0.3c1,0.5,1.3,0.8,1.3,0.8l7.3,11.3c0,0,0.3,3.4-0.1,4.8
		c-0.5,1.3-1,4-7.4,5.5c0,0-0.5,1.9,6.8,1.4c7.2-0.5,11.3-8.1,9.5-15.2c0-0.1,0-0.3-0.1-0.5c0,0,16.6-10.5,22.9-18.8
		c0,0,0,0,0.1-0.1c0,0-25.8-25.1-28.3-26.8"/>
	<path class="st2" d="M373.1,335.2c0,0,0.6,0,0.6,0.6c0,0.7,9,27.8,9,27.8s-30.5,12.4-67.2-1.7l14.8-45.2c0,0,0.2-0.2,0.2,0
		s2.8,8.3,7.7,11.4v0.5c0,0-2.6,0.2-3.5,3.4c-1,3.2-6.3,19-6.3,19.5s0.9,0.6,1.5,0.7c0.6,0.1,8.4,2.5,19.3,2.7
		c10.8,0.2,20.6-1.7,20.6-1.7s-0.2-4.2-4.3-5.9l-0.2-0.7C365.3,346.5,371.8,342.5,373.1,335.2"/>
	<path class="st2" d="M309.1,337.6c-0.6,2.2-1.3,4.8-1.8,5l-9.6-6.8c0,0,4.7-1.7,9.6-1C307.3,334.7,309.7,335.3,309.1,337.6
		 M312,327.3c-10.8-0.7-17.8,3.5-17.8,3.5c1.3-3.1,1.1-8.8,1.1-8.8c-4.9,3.3-9.5,2.4-11.1,2.2c-1.6-0.3-0.8,0.8-0.8,0.8
		s0,0.2,0.1,0.2c4,9.3-5.1,10.6-5.1,10.6c-7.9-0.8-6.6-7.4-6.5-8.2c0-0.8,1.3-6.7,11.4-9.1c10.1-2.4,8-2.4,8.3-2.7
		c0.3-0.3,1.9-1.8,1.4-2.7c-0.7-0.9-1.8,0-1.8,0c-0.3,0.1-1.5,0.3-1.5,0.3c-10.9,1.7-13.9,3.2-13.9,3.2c-12.8,6.8-9.8,18-9.8,18
		c4.7,17.2,19.5,8.4,19.5,8.4c10.8,11.1,26.2,16.6,26.2,16.6s7.4-22.7,7.6-23.4c0.2-0.7,3.6-8.3-7.2-9"/>
	<path class="st2" d="M304.7,317.4c0-3,2.4-5.4,5.4-5.4c3,0,5.4,2.4,5.4,5.4s-2.4,5.4-5.4,5.4C307.1,322.8,304.7,320.4,304.7,317.4"
		/>
	<path class="st2" d="M337.5,376.5c0-3,2.4-5.4,5.4-5.4c3,0,5.4,2.4,5.4,5.4c0,3-2.4,5.4-5.4,5.4
		C339.9,381.9,337.5,379.5,337.5,376.5"/>
	<path class="st2" d="M355.6,376.3c0-3,2.4-5.4,5.4-5.4c3,0,5.4,2.4,5.4,5.4c0,3-2.4,5.4-5.4,5.4C358,381.7,355.6,379.3,355.6,376.3
		"/>
	<path class="st2" d="M396.7,253l6.6-27c0,0,2.2-1.6,8.1-1.6s8.2,1.5,8.2,1.5l4.2,19c0,0-5.1,15.4-10.9,22.6
		C408.5,273,396.7,253,396.7,253"/>
	<path class="st3" d="M397,252.9c0.7,1.1,9.2,15.3,14,15.3c0.7,0,1.3-0.3,1.7-0.9c5.6-6.8,10.6-21.4,10.9-22.4l-4.1-18.9
		c-0.5-0.2-3.2-1.5-8-1.5c-5.4,0-7.6,1.4-8,1.6L397,252.9z M411,268.6c-5.2,0-14-14.9-14.5-15.5l0,0l6.7-27.2l0,0
		c0,0,2.3-1.7,8.2-1.7s8.2,1.5,8.3,1.5l0,0l4.2,19.3l0,0c0,0.2-5.2,15.6-10.9,22.7C412.5,268.3,411.8,268.6,411,268.6"/>
	<path class="st3" d="M420.3,225.3c0,0-3.8-1.7-8.9-1.7c-5.1,0-8.9,1.7-8.9,1.7l0.8,0.6c0,0,2.8-1.5,8.1-1.5c5.2,0,8.1,1.5,8.1,1.5
		l0.7-0.5L420.3,225.3z"/>
	<path class="st2" d="M420.1,225l-2.3-10.6h-0.5v0.9h-0.5v0.3h-0.3c0-0.1-0.3-0.1-0.3-0.1V215l-0.2-0.2h-0.3v-1h-0.5v0.8h-0.3
		l-0.2,0.2v0.3h-0.3c0-0.1-0.2-0.1-0.2-0.1v-0.5l-0.2-0.2h-0.2v-1H413v0.9l-0.5,0.2v0.5h-0.7v-0.5l-0.2-0.2h-0.2v-1H411v1h-0.2
		l-0.2,0.2v0.3H410v-0.5h-0.1c0-0.1-0.3-0.1-0.3-0.1v-0.8H409v0.9h-0.2l-0.2,0.2v0.3h-0.3v0.2H408v-0.3h-0.1c0-0.1-0.3-0.1-0.3-0.1
		v-0.8h-0.5v1h-0.2l-0.2,0.2v0.5h-0.3l0,0h-0.2v-0.3h-0.5v-0.9h-0.5l-2.2,10.6c0,0,3.3-1.5,8.5-1.5c5.2,0,8.7,1.5,8.7,1.5"/>
	<path class="st3" d="M405.2,214.5l-2.1,10.1c1-0.3,4-1.4,8.3-1.4c4.3,0,7.4,1,8.4,1.4l-2.2-10.1h-0.1v0.9h-0.5v0.3h-0.7
		c0-0.1-0.3-0.1-0.3-0.1V215l0,0h-0.5v-1l0,0v0.8h-0.6v0.6h-0.8c0-0.1-0.2-0.1-0.2-0.1v-0.6l0,0h-0.3v-1h-0.1v0.9l-0.5,0.2v0.5h-1
		v-0.6l0,0h-0.3v-1l0,0v1h-0.6v0.6h-0.9v-0.6l0,0h-0.5v-0.8l0,0v0.9h-0.5c0,0.1,0,0.6,0,0.6H409v0.2h-0.7v-0.5l0,0h-0.5v-0.8l0,0v1
		h-0.5v0.7h-0.3h-0.6v-0.3h-0.5v-0.9H406L405.2,214.5z M402.7,225.3l2.3-11.2h0.9v0.9h0.5v0.2h0.2V215l0.3-0.3h0.1v-1h0.8v0.8h0.2
		l0.2,0.2l0,0h0.2v-0.2l0.3-0.3h0.1v-0.9h0.9v0.8h0.2l0.2,0.2v0.3h0.2v-0.2l0.3-0.3h0.1v-1h0.9v1h0.1l0.3,0.3v0.3h0.2v-0.3l0.5-0.2
		v-1h0.9v1h0.1l0.3,0.3v0.3h0.1l0,0l0.3-0.3h0.2v-0.8h0.8v1h0.2l0.3,0.3v0.5h0.3v-0.2h0.5v-0.9h0.8l2.4,11.2h-0.3
		c0-0.1-3.4-1.6-8.5-1.6s-8.4,1.4-8.4,1.5h-0.3H402.7z"/>
	<rect x="410.5" y="221.8" class="st2" width="1.9" height="1.8"/>
	<path class="st3" d="M410.8,223.4h1.6V222h-1.6V223.4z M412.7,223.7h-2.4v-2.2h2.4V223.7z"/>
	<path class="st2" d="M306,253l-6.6-27c0,0-2.2-1.6-8.1-1.6c-5.5,0-8.2,1.5-8.2,1.5l-4.2,19c0,0,5.1,15.4,10.9,22.6
		C294.3,273,306,253,306,253"/>
	<path class="st3" d="M279,244.9c0.3,1,5.4,15.6,10.9,22.4c0.5,0.6,1,0.9,1.7,0.9c4.9,0,13.4-14.1,14-15.3l-6.6-26.9
		c-0.3-0.2-2.6-1.6-8-1.6c-4.9,0-7.5,1.3-8,1.5L279,244.9z M291.7,268.6L291.7,268.6c-0.8,0-1.5-0.3-2.1-1
		c-5.8-7.1-10.9-22.4-10.9-22.6l0,0l4.2-19.3l0,0c0,0,2.8-1.6,8.2-1.6c5.4,0,8.2,1.6,8.2,1.7l0,0l0,0l6.6,27.1l0,0
		c-0.3,0.7-9.1,15.6-14.5,15.6"/>
	<path class="st3" d="M282.3,225.2c0,0,3.9-1.7,8.9-1.7c5.1,0,8.9,1.7,8.9,1.7l-0.8,0.6c0,0-2.8-1.5-8.1-1.6c-5.2,0-8.1,1.5-8.1,1.5
		l-0.7-0.5H282.3z"/>
	<path class="st2" d="M282.6,225l2.3-10.6h0.5v0.9h0.5v0.3h0.3c0-0.1,0.3-0.1,0.3-0.1V215l0.2-0.2h0.3v-1h0.5v0.8h0.3l0.2,0.2v0.3
		h0.3c0-0.1,0.2-0.1,0.2-0.1v-0.5l0.2-0.2h0.2v-1h0.6v0.9l0.5,0.2v0.5h0.7v-0.5l0.2-0.2h0.2v-1h0.5v1h0.2l0.2,0.2v0.3h0.6v-0.5h0.1
		c0-0.1,0.3-0.1,0.3-0.1v-0.8h0.5v0.9h0.2l0.2,0.2v0.3h0.3v0.2h0.2v-0.3h0.1c0-0.1,0.3-0.1,0.3-0.1v-0.8h0.5v1h0.2l0.2,0.2v0.5h0.3
		h0.2v-0.3h0.5v-0.9h0.6l2.2,10.6c0,0-3.3-1.5-8.5-1.5c-5.2,0-8.7,1.5-8.7,1.5"/>
	<path class="st3" d="M291.2,223.3c4.3,0,7.3,1,8.3,1.4l-2.1-10.1h-0.1v0.9h-0.5v0.3h-0.6H296v-0.6h-0.1c0-0.1-0.3-0.1-0.3-0.1v-1
		l0,0v0.8h-0.5v0.5h-0.7v-0.2h-0.3v-0.5H294c0-0.1-0.3-0.1-0.3-0.1v-0.9l0,0v0.8h-0.5v0.7h-0.9v-0.5h-0.1c0-0.1-0.3-0.1-0.3-0.1v-1
		l0,0v1h-0.5v0.7h-1v-0.5l-0.5-0.2v-0.9h-0.1v1h-0.5v0.7h-0.2c0,0.1-0.7,0.1-0.7,0.1V215l0,0h-0.5v-0.8l0,0v1h-0.5v0.7h-0.3
		c0,0.1-0.7,0.1-0.7,0.1v-0.3H286v-0.9h-0.1l-2.2,10.1c1-0.3,4.1-1.4,8.4-1.4 M300.1,225.3h-0.3c0-0.1-3.3-1.6-8.4-1.6
		c-5.1,0-8.5,1.4-8.5,1.5h-0.3c0,0.1,2.4-10.9,2.4-10.9h0.8v0.9h0.5v0.2h0.3V215l0.3-0.3h0.2v-1h0.8v0.8h0.2l0.3,0.3l0,0h0.1v-0.3
		l0.3-0.3h0.1v-1h0.9v1l0.5,0.2v0.3h0.2v-0.3l0.3-0.3h0.1v-1h0.9v1h0.1l0.3,0.3v0.2h0.2v-0.3l0.2-0.2h0.2v-0.8h0.9v0.9h0.1l0.3,0.3
		v0.2h0.2l0.2-0.3h0.2v-0.8h0.8v1h0.1l0.3,0.3v0.3h0.2V215h0.5V214h0.9l2.3,11.2L300.1,225.3z"/>
	<rect x="290.2" y="221.7" class="st2" width="1.9" height="1.8"/>
	<path class="st3" d="M290.4,223.3h1.6v-1.4h-1.6V223.3z M292.4,223.7H290v-2.2h2.4V223.7z"/>
	<path class="st2" d="M380.6,216.8l-57.7,0.6L292,233.8l-3.1,30.4c0,0,14.9,34.2,66.8,34.9"/>
	<path class="st3" d="M355.7,299.4c-26.9-0.3-43.8-9.8-53.1-17.8c-10.1-8.5-14-17.2-14-17.3l0,0v-0.2l3.1-30.7l31.1-16.5l0,0
		l57.7-0.6v0.8l-57.5,0.6L292.2,234l-3.1,30.1c0.5,0.9,4.3,9,13.8,17c9.2,7.9,25.9,17.2,52.5,17.5v0.8L355.7,299.4z"/>
	<path class="st2" d="M355.7,298.9c0,0,37.6,0,59.3-34.5l-3.4-30.9l-31-16.9"/>
	<path class="st3" d="M355.7,299.4v-0.8c0,0,9.5,0,21.4-4.3c10.9-3.9,26.3-12.3,37.5-29.9l-3.4-30.5l-30.9-16.8l0.3-0.7l31.2,17
		l3.4,31.2l0,0c-11.2,18-26.8,26.6-37.9,30.4C365.3,299.4,355.8,299.4,355.7,299.4"/>
	<path class="st2" d="M376.9,201.3c0,0-8.3-4.7-25-4.7c-18.2,0-24.8,5-24.8,5l-20.3,82.6c12.6,9.2,28.1,14.8,45,14.8
		c17.4,0,32.5-5.1,45.4-14.9L377,201.4L376.9,201.3z"/>
	<path class="st3" d="M307.2,284c13,9.6,28.4,14.6,44.6,14.6c17,0,32-5,44.9-14.7l-20.1-82.4c-1.1-0.6-9.5-4.4-24.6-4.4l0,0
		c-16.6,0-23.6,4.2-24.5,4.8L307.3,284H307.2z M351.7,299.4c-16.4,0-32-5.1-45.2-14.8h-0.2c0-0.1,0-0.5,0-0.5l20.4-82.7l0,0
		c0.2-0.3,7-5.1,25.1-5.1l0,0c16.5,0,25.1,4.7,25.2,4.7h0.1v0.2l20.3,83h-0.2c-13,10.1-28.3,15.2-45.6,15.2"/>
	<path class="st3" d="M379,199.5c0,0-11.6-5.4-27.2-5.4c-15.5,0-27,5.4-27,5.4l2.4,1.8c0,0,8.9-4.7,24.8-4.7c16,0,24.8,4.4,24.8,4.4
		l2.3-1.5L379,199.5z"/>
	<path class="st2" d="M378.6,199.1l-7.3-33h-1.5v2.7h-1.3v1h-0.9v-0.3h-1.1v-1.6l-0.6-0.7h-0.9v-3.1h-1.4v2.5h-1l-0.6,0.6v1h-1v-0.3
		h-0.6v-1.4l-0.6-0.6h-0.8v-3h-1.6v2.8l-1.4,0.6v1.3h-1.9v-1.5l-0.6-0.6h-0.8v-3h-1.5v3.1h-0.8l-0.8,0.8v1h-1.7v-1.5l-0.5-0.5h-1
		V163h-1.5v3h-0.8l-0.8,0.8v1h-1.1v0.6h-0.8v-1l-0.5-0.5h-0.9v-2.6h-1.4v3.1h-0.8l-0.7,0.7v1.5h-1.1v0.2h-0.7v-1.1h-1.5V166h-1.6
		l-7.1,33.3c0,0,10.6-5.2,26.7-5.2s26.9,5,26.9,5"/>
	<path class="st3" d="M332.5,166.5l-6.8,32.1c2.6-1.1,12.4-4.9,26.1-4.9c13.7,0,23.7,3.6,26.3,4.8l-7.1-32h-0.8v2.7h-1.3v1h-1.7
		v-0.3h-1.1v-1.8l-0.3-0.3h-1.1v-3.1h-0.7v2.6h-1.3l-0.3,0.3v1.3h-1.8v-0.3h-0.6V167l-0.3-0.3h-1v-3h-0.8v2.7l-1.4,0.6v1.4h-2.7
		v-1.7l-0.3-0.3h-1v-3h-0.7v3.1h-1L350,167v1.3h-2.5v-1.7l-0.2-0.2H346v-2.5h-0.7v3h-1l-0.6,0.6v1.3h-1.1v0.6H341v-1.3l-0.2-0.2
		h-1.1V165h-0.6v3.1h-1l-0.5,0.5v1.7h-1.1v0.2H335v-1.1h-1.5v-2.6h-0.9L332.5,166.5z M324.6,200l7.3-34.3h2.3v2.6h1.5v0.9h1v-1.4
		l0.9-0.9h0.6v-3.1h2.2v2.6h0.7l0.7,0.7v0.8l0,0v-0.6h1.1v-0.8l1-1h0.6v-3h2.3v2.5h0.8l0.7,0.7v1.3h0.9v-0.8l1-1h0.6v-3.1h2.3v3h0.6
		l0.8,0.8v1.3h1.1v-1l1.4-0.6v-3h2.4v3h0.6l0.8,0.8v1.1h0.6v0.3h0.3v-0.8l0.8-0.8h0.8v-2.5h2.2v3.1h0.7l0.8,0.8v1.4h1.1v0.3h0.1v-1
		h1.3v-2.7h2.2l7.5,34.1l-0.7-0.3c0,0-10.9-5-26.8-5c-15.8,0-26.3,5.1-26.4,5.1l-0.7,0.3L324.6,200z"/>
	<path class="st3" d="M349.3,193.8h5.2v-4.7h-5.2V193.8z M355.3,194.6h-6.7v-6.3h6.7V194.6z"/>
	<path class="st3" d="M376,247.5c0,0-9.3-1.1-24.2,9.8c0,0-12.8-10.3-23.6-10.9c0,0,19,8.9,21.7,12.6c0,0-3.6,4.4-5,4.9
		c0,0-2.1-4.7-4.2-2.4c0,0-1.3,0.9,0,2.2c0,0,1.1,1.3,2.1,0.5l0.6,0.7c0,0-0.8,1.1-2.2,1.5c0,0-2.7-1.5-2.8,1.8c0,0,1.6,3.5,6.8-1
		c0,0,2.4,2.8,4.1,2.4c0,0,3.3-1,0.6-3.3c0,0-0.9-0.8-2.3,0.8l-1.1-0.9c0,0,4.9-4.6,5.2-4.8c0.3-0.2,5.1,4.8,5.1,4.8l-0.7,0.9
		c0,0-1.9-2.1-3.3,0.5c0,0,0.5,4,3.9,1.4l1.7-1.6c0,0,3.9,4,6.2,2.3c0,0,1.7-1.5,0.6-2.6c0,0-0.9-1.3-2.3-0.3c0,0-0.9,0.2-2.5-1.5
		l0.8-0.8c0,0,1.6,1.4,2.5-0.9c0,0,0.7-2.1-2.5-2.1c0,0-1,0.5-2.1,2.8l-4.9-4.8c0,0,6.6-7.1,22-12"/>
	<path class="st3" d="M351.2,231.5c0,0-1.5,1.8-1,4.2c0,0-3.1-3.2-0.7-6.6c0,0-2.4,0.3-3.2,5.1c0,0-1.7-4,1.3-7.6c0,0-3.2,1.9-4,4.7
		c0,0-0.2-4.8,4.1-6.7c0,0-2.4,0-3.8,1c0,0,1.3-3.8,6.2-2.7c0,0-1.8-2.3-3-2.3c0,0,3.2-0.5,4.7,1.1c0,0-0.1-1.3,0.7-2.1
		c0,0,0.9,1.8,1.4,2.2c0,0,1.9-1.5,3.9-1c0,0-1.7,1.3-2.1,2.1c0,0,5-0.1,5.8,3.5c0,0-3-2.2-4.6-1.6c0,0,4.4,1.6,4.9,6.6
		c0,0-2.8-4.3-4.4-4.6c0,0,2.7,4.4,1.1,7.2c0,0-1.1-4.8-2.5-5.5c0,0,0.7,5.4-1,7.1c0,0-0.7-3.9-1.9-4.3l-0.2,15.6
		c0.1,1.3,0.5,1.7,0.5,1.7c-0.1,0.8,0,1.5,0,1.5c0.3,0.5,0.3,0.9,0.3,0.9c0.2,0.9,0,1.5,0,1.5c0.3,0.9,0.9,1.6,0.9,1.6l-5.2,0.2
		c0.5-0.2,1-2.2,1-2.2c-0.3-0.9,0.3-2.3,0.3-2.3c0-0.9,0.7-3,0.7-3v-15.4L351.2,231.5z"/>
	<path class="st0" d="M351.7,148.3c-41.4,0-75,33.6-75,75s33.6,75,75,75s75-33.6,75-75S393.1,148.3,351.7,148.3 M351.7,300.3
		c-42.5,0-77-34.5-77-77s34.5-77,77-77s77,34.5,77,77S394.2,300.3,351.7,300.3"/>
	<path class="st2" d="M351.7,145.9c-43,0-77.8,34.9-77.8,77.8s34.9,77.8,77.8,77.8c43,0,77.8-34.9,77.8-77.8
		C429.6,180.8,394.7,145.9,351.7,145.9 M351.7,303.7c-44.1,0-80-35.9-80-80s35.9-80,80-80s80,35.9,80,80S395.8,303.7,351.7,303.7"/>
	<path class="st2" d="M351.7,147c-42.3,0-76.8,34.4-76.8,76.7c0,20.5,8,39.8,22.4,54.2c14.5,14.5,33.7,22.6,54.2,22.6l0,0
		c42.3,0,76.7-34.4,76.8-76.7c0-20.5-8-39.8-22.4-54.2C391.5,155.1,372.2,147,351.7,147L351.7,147L351.7,147z M351.7,304.9
		L351.7,304.9c-44.7,0-81-36.3-81-81s36.3-81,81-81l0,0c44.7,0,81,36.3,81,81c0,21.7-8.4,41.9-23.8,57.3
		c-15.3,15.3-35.7,23.7-57.3,23.7"/>
	<path class="st0" d="M73.9,459.6c-1-1.1-1.6-2.5-1.6-4.1s0.6-3,1.6-4.1c1-1.1,2.3-1.6,3.8-1.6c1.5,0,2.7,0.6,3.9,1.6
		c1,1.1,1.6,2.5,1.6,4.1s-0.6,3-1.6,4.1c-1,1.1-2.3,1.7-3.9,1.7C76.1,461.3,74.9,460.7,73.9,459.6 M72.9,491.6
		c6.5,0,9.7-3.1,9.7-9.1s-2.1-8.1-6.2-8.1s-5.9,1.7-8.5,5c-2.5,3.3-4.2,7.3-5.1,12.1h10.1V491.6z M25.1,496.5
		c0-4.1,0.6-8.3,1.6-12.6l11.3-2.2c-1.4,4.7-1.9,9.2-1.9,13.7c0,8.8,2.7,13.2,8.2,13.2s7.9-4.4,7.9-13.2v-29.2H63v1.1
		c0,3.5-0.2,6.7-0.8,9.5h0.1c1.4-3.6,3.6-6.5,6.7-8.5c3-1.9,6.2-3,9.7-3s8.8,1.5,11.4,4.4c2.5,2.8,3.8,7,3.8,12.2s-1.7,10.3-5,13.4
		c-3.8,3.6-9.3,5.4-16.8,5.4h-9.7c-1.3,11.3-7.5,16.9-18.9,16.9s-18.2-7.1-18.2-21.2"/>
	<polygon class="st0" points="101.3,449 112.2,449 112.2,491.6 118.7,491.6 118.7,500.7 101.3,500.7 	"/>
	<rect x="117.7" y="491.6" class="st0" width="17.1" height="9.1"/>
	<rect x="134.1" y="491.6" class="st0" width="17.1" height="9.1"/>
	<path class="st0" d="M172.3,515.8c-1,1.1-2.3,1.6-3.6,1.6c-1.4,0-2.7-0.6-3.8-1.6s-1.5-2.4-1.5-4s0.5-2.8,1.5-4s2.3-1.6,3.8-1.6
		c1.5,0,2.6,0.6,3.6,1.6c1,1.1,1.5,2.4,1.5,4S173.3,514.8,172.3,515.8 M160.1,515.8c-1,1.1-2.2,1.6-3.6,1.6c-1.5,0-2.6-0.6-3.6-1.6
		c-1-1.1-1.5-2.4-1.5-4s0.5-2.8,1.5-4s2.3-1.6,3.6-1.6c1.4,0,2.6,0.6,3.6,1.6c1,1.1,1.5,2.4,1.5,4S161.1,514.8,160.1,515.8
		 M150.5,491.6h12.4v-25.4h10.8v34.5h-23.2V491.6z"/>
	<path class="st0" d="M178,518.9l0.8-9.2c1.4,0.3,3,0.6,4.7,0.6s3.6-0.6,4.7-1.8c1-1.4,1.6-3.6,1.6-7v-35.3h10.9v25.4h6.3v9.1h-6.3
		v0.3c0,12.2-5.9,18.2-17.8,18.2s-3.3-0.1-4.9-0.5"/>
	<polygon class="st0" points="205.8,491.6 213.6,491.6 213.6,449 224.6,449 224.6,500.7 205.8,500.7 	"/>
	<rect x="235.3" y="449" class="st0" width="10.9" height="51.8"/>
	<path class="st0" d="M287.7,459.7c-1-1.1-1.5-2.4-1.5-4c0-1.6,0.5-3,1.5-4c1-1.1,2.3-1.6,3.8-1.6c1.5,0,2.6,0.6,3.6,1.6
		c1,1.1,1.5,2.5,1.5,4c0,1.5-0.5,3-1.5,4c-1,1.1-2.3,1.7-3.6,1.7C290.1,461.4,288.7,460.9,287.7,459.7 M290.5,475.4
		c-1.4-0.8-3.2-1.1-5.4-1.1s-3.9,0.8-5.1,2.4c-1.1,1.6-1.8,3.5-1.8,6c0,5.9,3,8.9,8.9,8.9h3.3v-16.2L290.5,475.4z M275.4,459.7
		c-1-1.1-1.5-2.4-1.5-4c0-1.6,0.5-2.8,1.5-4s2.3-1.6,3.6-1.6s2.6,0.6,3.6,1.6c1,1.1,1.5,2.5,1.5,4c0,1.5-0.5,3-1.5,4
		c-1,1.1-2.3,1.7-3.6,1.7S276.4,460.9,275.4,459.7 M286.1,500.7c-12.4,0-18.6-5.6-18.6-16.9c0-11.3,1.5-9.6,4.4-13
		c3.3-3.8,8.1-5.7,14.4-5.7c6.3,0,10.7,0.8,14.9,2.5v23.9h6.3v9.1h-21.2H286.1z"/>
	<rect x="306.3" y="491.6" class="st0" width="17.1" height="9.1"/>
	<path class="st0" d="M346.1,459.7c-1-1.1-1.5-2.4-1.5-4c0-1.6,0.5-3,1.5-4c1-1.1,2.3-1.6,3.6-1.6s2.6,0.6,3.6,1.6
		c1,1.1,1.5,2.5,1.5,4c0,1.5-0.5,3-1.5,4c-1,1.1-2.3,1.7-3.6,1.7S347.1,460.9,346.1,459.7 M348.2,489.5c1.1-1.6,1.8-3.8,1.8-6.5
		c0-5.8-2.1-8.7-6.3-8.7c-4.2,0-3.3,0.7-4.4,1.9c-1.4,1.5-2.1,3.6-2.1,6.4c0,6,2.1,9,6.3,9c4.2,0,3.5-0.8,4.7-2.3 M334,459.7
		c-1-1.1-1.5-2.4-1.5-4c0-1.6,0.5-2.8,1.5-4s2.3-1.6,3.6-1.6s2.6,0.6,3.6,1.6c1,1.1,1.5,2.5,1.5,4c0,1.5-0.5,3-1.5,4
		c-1,1.1-2.2,1.7-3.6,1.7C336.1,461.4,335,460.9,334,459.7 M322.7,491.6h2.2c1.4,0,2.6,0.1,3.8,0.3c-1.5-2.1-2.3-4.8-2.3-8.3
		c0-5.5,1.7-9.9,5.1-13.3s7.6-5.1,13-5.1c5.4,0,9.3,1.5,12.2,4.3c2.8,3,4.3,7.2,4.3,12.8s-1,7.7-3.1,9.8c1.7-0.2,3.3-0.3,4.8-0.3
		h3.1v9.1h-42.8v-9.1L322.7,491.6z"/>
	<path class="st0" d="M393.7,491.6c6-0.1,9.1-3.2,9.1-9.1s-2.1-8.1-6.2-8.1c-4.1,0-5.8,1.7-8.4,5c-2.6,3.3-4.3,7.4-5.1,12.1h10.6
		L393.7,491.6z M364.6,491.6h7.7v-42.7h10.9v18.3c0,3.6-0.3,6.7-0.9,9.5h0.1c1.4-3.6,3.6-6.4,6.8-8.5c3-1.9,6.2-3,9.7-3
		s8.7,1.5,11.3,4.4c2.5,2.8,3.8,7,3.8,12.2c0,5.2-0.7,7.1-2.2,9.8h6.8v9.1h-54.1L364.6,491.6L364.6,491.6z"/>
	<path class="st0" d="M428.2,459.6c-1-1.1-1.6-2.5-1.6-4.1s0.6-3,1.6-4.1s2.3-1.6,3.8-1.6s2.8,0.6,3.9,1.6c1,1.1,1.6,2.5,1.6,4.1
		s-0.6,3-1.6,4.1s-2.4,1.7-3.9,1.7C430.5,461.3,429.2,460.7,428.2,459.6 M417.2,491.6h9.3v-25.4h10.9v25.4h6.2v9.1h-26.4V491.6z"/>
	<path class="st0" d="M470.1,483.6c0-6.2-2.1-9.2-6.2-9.2c-4.1,0-3.9,0.8-5.1,2.4c-1.1,1.6-1.8,3.5-1.8,6c0,5.9,3,8.9,8.9,8.9h4.2
		V483.6z M442.7,500.7v-9.1h3c1.6,0,2.8,0.2,3.8,0.6c-2.1-1.8-3.1-4.9-3.1-9.2c0-4.3,1.5-9.1,4.6-12.3c3.4-3.6,8-5.5,13.8-5.5
		s9.6,1.6,12.3,4.8c2.5,3,3.8,7.1,3.8,12.3v18.5h-38.2L442.7,500.7z"/>
	<path class="st0" d="M520.8,459.7c-1-1.1-1.5-2.4-1.5-4c0-1.6,0.5-3,1.5-4c1-1.1,2.3-1.6,3.6-1.6s2.6,0.6,3.6,1.6
		c1,1.1,1.5,2.5,1.5,4c0,1.5-0.5,3-1.5,4c-1,1.1-2.3,1.7-3.6,1.7S521.7,460.9,520.8,459.7 M523.7,475.4c-1.4-0.8-3.2-1.1-5.4-1.1
		c-2.2,0-3.9,0.8-5.1,2.4c-1.1,1.6-1.8,3.5-1.8,6c0,5.9,3,8.9,8.9,8.9h3.3v-16.2L523.7,475.4z M508.6,459.7c-1-1.1-1.5-2.4-1.5-4
		c0-1.6,0.5-2.8,1.5-4c1-1.1,2.3-1.6,3.6-1.6c1.4,0,2.6,0.6,3.6,1.6c1,1.1,1.5,2.5,1.5,4c0,1.5-0.5,3-1.5,4c-1,1.1-2.3,1.7-3.6,1.7
		C510.9,461.4,509.7,460.9,508.6,459.7 M519.2,500.7c-12.4,0-18.6-5.6-18.6-16.9c0-11.3,1.5-9.6,4.4-13c3.3-3.8,8.1-5.7,14.4-5.7
		s10.7,0.8,14.9,2.5v23.9h6.3v9.1h-21.2H519.2z"/>
	<rect x="539.4" y="491.6" class="st0" width="17.1" height="9.1"/>
	<path class="st0" d="M566.7,459.6c-1-1.1-1.6-2.5-1.6-4.1s0.6-3,1.6-4.1s2.3-1.6,3.8-1.6s2.8,0.6,3.9,1.6c1,1.1,1.6,2.5,1.6,4.1
		s-0.6,3-1.6,4.1s-2.4,1.7-3.9,1.7C569,461.3,567.8,460.7,566.7,459.6 M555.8,491.6h9.3v-25.4h10.9v34.5h-20.3V491.6z"/>
	<polygon class="st0" points="586,449 596.8,449 596.8,491.6 603.3,491.6 603.3,500.7 586,500.7 	"/>
	<rect x="602.3" y="491.6" class="st0" width="17.1" height="9.1"/>
	<path class="st0" d="M646.3,483.6c0-6.2-2.1-9.2-6.2-9.2s-3.9,0.8-5.1,2.4c-1.1,1.6-1.8,3.5-1.8,6c0,5.9,3,8.9,8.9,8.9h4.2V483.6z
		 M618.7,500.7v-9.1h3c1.6,0,2.8,0.2,3.8,0.6c-2.1-1.8-3.1-4.9-3.1-9.2c0-4.3,1.5-9.1,4.6-12.3c3.4-3.6,8-5.5,13.8-5.5
		s9.6,1.6,12.3,4.8c2.5,3,3.8,7.1,3.8,12.3v18.5h-38.2L618.7,500.7z"/>
	<path class="st0" d="M665,451.2h10.9v49.6H665V451.2z M660.8,441.5c1.5,0,2.6,0.1,3.6,0.3c-0.8-0.6-1.3-1.6-1.3-3
		c0-2.1,0.8-3.8,2.5-5.2c1.9-1.7,4.7-2.5,8.3-2.5s1.8,0,2.8,0.2l1.5,0.2l-1,5.7l-1.1-0.2c-0.8,0-1.6-0.1-2.4-0.1
		c-2.2,0-3.2,0.7-3.2,2.2c0,1.5,1.5,2.3,4.6,2.3h4.2v5.9h-18.5v-5.9L660.8,441.5z"/>
	<path class="st0" d="M36.5,548c-0.8,0-1.4,0-1.9,0v8.1c0.5,0,1,0,1.7,0c1.5,0,2.6-0.3,3.4-1.1c0.9-0.8,1.3-1.8,1.3-3.2
		c0-2.6-1.5-4-4.6-4 M41.9,573.8l-6.8-12.4h-0.5v12.4h-6.8v-31.6c2.1-0.1,5.1-0.2,9.2-0.2c7.4,0,11.2,3.1,11.2,9.3s-0.6,4-1.8,5.6
		c-1.1,1.6-2.7,2.6-4.7,3.2c1,1.5,1.8,2.7,2.3,3.5l6.2,10.1h-8.3H41.9z"/>
	<rect x="55.7" y="542.2" class="st0" width="6.8" height="31.6"/>
	<path class="st0" d="M83.8,562.7v11.1H77v-10.9l-9.2-20.6h7.5l3.4,8.1c0.8,1.8,1.4,3.5,1.9,5l0,0c0.3-1.3,1.1-3.1,2.3-5.7l3.2-7.4
		h7.2l-9.3,20.5L83.8,562.7z"/>
	<path class="st0" d="M107.1,554.4c-0.5-1.3-0.8-2.7-1.1-4.4l0,0c-0.5,2.1-0.8,3.5-1,4.4l-2.4,7.7h7.1l-2.4-7.7H107.1z M112.9,573.8
		l-1.8-5.8h-10.4l-1.7,5.8h-6.8l9.8-31.6h8.1l10.3,31.6h-7.5H112.9z"/>
	<path class="st0" d="M141.4,550.9c-1.3-1.8-3.3-2.6-6.3-2.6s-2.3,0-2.8,0v19.4c0.8,0.1,1.6,0.2,2.5,0.2c2.5,0,4.4-0.8,5.9-2.4
		c1.6-1.7,2.4-4.2,2.4-7.4C143.1,554.9,142.5,552.5,141.4,550.9 M145.9,569.8c-2.8,2.8-6.7,4.3-11.7,4.3c-5,0-5.1,0-8.8-0.2v-31.5
		c3.1-0.2,6.5-0.3,10.1-0.3c9.9,0,14.8,5.1,14.8,15.4c0,10.3-1.5,9.5-4.4,12.4"/>
	<polygon class="st0" points="174.4,573.8 174.4,560.7 163.6,560.7 163.6,573.8 156.8,573.8 156.8,542.2 163.6,542.2 163.6,554.3 
		174.4,554.3 174.4,542.2 181.3,542.2 181.3,573.8 	"/>
	<path class="st0" d="M209.2,548c-0.8,0-1.4,0-1.9,0v8.1c0.5,0,1,0,1.7,0c1.5,0,2.6-0.3,3.4-1.1c0.9-0.8,1.3-1.8,1.3-3.2
		c0-2.6-1.5-4-4.6-4 M214.5,573.8l-6.8-12.4h-0.5v12.4h-6.8v-31.6c2.1-0.1,5.1-0.2,9.2-0.2c7.4,0,11.2,3.1,11.2,9.3s-0.6,4-1.8,5.6
		c-1.1,1.6-2.7,2.6-4.7,3.2c1,1.5,1.8,2.7,2.3,3.5l6.2,10.1h-8.3H214.5z"/>
	<polygon class="st0" points="228.2,573.8 228.2,542.2 245,542.2 245,548.4 235,548.4 235,554.6 244.4,554.6 244.4,560.6 235,560.6 
		235,567.5 245,567.5 245,573.8 	"/>
	<path class="st0" d="M276.5,572.3c-3.2,1.4-6.6,2.1-10.4,2.1s-8.7-1.4-11.3-4.1c-2.5-2.6-3.8-6.4-3.8-11.1s1.5-9.6,4.3-12.6
		c3-3.2,7.1-4.8,12.4-4.8c5.4,0,5.9,0.5,8.5,1.3l-1.4,6.6c-2.4-0.9-4.9-1.5-7.5-1.5c-2.6,0-5.4,0.9-7,2.8c-1.5,1.7-2.2,4.1-2.2,7.1
		c0,3,0.7,5.4,2.1,7c1.5,1.7,3.5,2.5,6.4,2.5c2.8,0,2.1-0.1,2.8-0.5v-10.4h6.8V572L276.5,572.3z"/>
	<rect x="284.3" y="542.2" class="st0" width="6.8" height="31.6"/>
	<path class="st0" d="M311.5,548.3c-2.1,0-3.8,0.8-5,2.5c-1.4,1.7-1.9,4.1-1.9,7.1c0,6.6,2.3,9.9,6.8,9.9s3.8-0.8,5-2.5
		c1.4-1.7,1.9-4.1,1.9-7.1C318.3,551.6,316.1,548.3,311.5,548.3 M321.3,569.9c-2.7,3.1-6.3,4.6-10.4,4.6c-4.1,0-8-1.5-10.3-4.3
		c-2.3-2.7-3.4-6.6-3.4-11.6c0-5,1.5-9.2,4.3-12.4c2.7-3.1,6.3-4.6,10.4-4.6c4.1,0,8,1.5,10.3,4.3c2.3,2.7,3.4,6.6,3.4,11.6
		C325.6,562.5,324.2,566.7,321.3,569.9"/>
	<path class="st0" d="M348.1,573.8l-7.6-15.5c-1-2.3-1.8-4.3-2.3-6c0.2,3.6,0.3,8.1,0.3,13.2v8.4H332v-31.6h9l7.4,15
		c0.9,1.9,1.8,4.1,2.5,6.3c-0.2-3.2-0.3-7.6-0.3-13.4v-7.9h6.6v31.6h-9L348.1,573.8z"/>
	<path class="st0" d="M404,573.8l-1.9-13.3c-0.3-2.2-0.7-4.8-0.9-7.9l0,0c-0.6,3.1-1.1,5.7-1.7,8.1l-3.8,13.1h-6.4l-3.6-12.1
		c-0.9-3.3-1.6-6.4-1.9-9.1l0,0c-0.2,3.4-0.6,6.3-0.8,8.5l-1.5,12.6h-7l4.8-31.6h7.9l4.1,14c0.6,1.7,1,4,1.6,6.8l0,0
		c0.6-2.6,1-4.9,1.7-6.8l4.2-14h7.7l4.8,31.6h-7.1L404,573.8z"/>
	<path class="st0" d="M441.5,561.4c0,8.7-4.2,13-12.5,13c-8.3,0-11.7-3.9-11.7-11.7v-20.5h6.8v20.1c0,2.1,0.3,3.4,1.1,4.4
		c0.8,1,2.3,1.6,4.2,1.6s3.3-0.5,4.1-1.5c0.8-1,1.3-2.6,1.3-5v-19.6h6.7v19.1V561.4z"/>
	<path class="st0" d="M465.7,573.8l-7.6-15.5c-1-2.3-1.8-4.3-2.3-6c0.2,3.6,0.3,8.1,0.3,13.2v8.4h-6.5v-31.6h9l7.4,15
		c0.9,1.9,1.8,4.1,2.5,6.3c-0.2-3.2-0.3-7.6-0.3-13.4v-7.9h6.6v31.6h-9L465.7,573.8z"/>
	<rect x="482.5" y="542.2" class="st0" width="6.8" height="31.6"/>
	<path class="st0" d="M517,572.9c-2.3,0.9-4.7,1.4-7.4,1.4c-5,0-8.7-1.6-11.1-4.9c-1.9-2.6-2.8-6-2.8-10.3c0-4.2,1.3-9.3,3.9-12.4
		c2.6-3.2,6.4-4.8,11.2-4.8c4.8,0,4.3,0.3,6,0.9l-0.9,6.6c-1.7-0.7-3.4-1-5.4-1s-4.2,0.8-5.5,2.5s-1.9,4-1.9,6.8
		c0,6.4,2.6,9.7,7.7,9.7c5.1,0,3.5-0.3,5-1.1l0.9,6.5L517,572.9z"/>
	<rect x="523.9" y="542.2" class="st0" width="6.8" height="31.6"/>
	<path class="st0" d="M547.2,548c-0.6,0-1.1,0-1.7,0v9.5c0.6,0.1,1.3,0.2,1.9,0.2c3.1,0,4.7-1.6,4.7-4.9S550.5,548,547.2,548
		 M556.2,560.3c-2.2,2.3-5.2,3.4-9,3.4s-1.1,0-1.6,0v10.1h-6.8v-31.6c2.8-0.1,5.8-0.2,8.9-0.2c7.7,0,11.6,3.4,11.6,10.1
		c0,6.7-1,6-3.1,8.2"/>
	<path class="st0" d="M574.4,554.4c-0.5-1.3-0.8-2.7-1.1-4.4l0,0c-0.5,2.1-0.8,3.5-1,4.4l-2.4,7.7h7.1l-2.4-7.7H574.4z M580.3,573.8
		l-1.8-5.8h-10.4l-1.7,5.8h-6.8l9.8-31.6h8.1l10.3,31.6h-7.5H580.3z"/>
	<polygon class="st0" points="592.7,573.8 592.7,542.2 599.6,542.2 599.6,567.4 608.6,567.4 608.6,573.8 	"/>
	<rect x="614.3" y="542.2" class="st0" width="6.8" height="31.6"/>
	<polygon class="st0" points="640.9,548.5 640.9,573.8 634.1,573.8 634.1,548.5 627,548.5 627,542.2 648,542.2 648,548.5 	"/>
	<path class="st0" d="M668.3,562.7v11.1h-6.8v-10.9l-9.2-20.6h7.4l3.4,8.1c0.8,1.8,1.4,3.5,1.9,5l0,0c0.3-1.3,1.1-3.1,2.3-5.7
		l3.2-7.4h7.2L668.3,562.7L668.3,562.7z"/>
</g>
</svg>
