<?xml version="1.0" encoding="utf-8"?>
<!-- Generator: Adobe Illustrator 24.0.1, SVG Export Plug-In . SVG Version: 6.00 Build 0)  -->
<svg version="1.1" id="Layer_1" xmlns="http://www.w3.org/2000/svg" xmlns:xlink="http://www.w3.org/1999/xlink" x="0px" y="0px"
	 viewBox="0 0 704.5 710" style="enable-background:new 0 0 704.5 710;" xml:space="preserve">
<style type="text/css">
	.st0{fill:#36302B;}
	.st1{fill:#00665E;}
	.st2{fill:#85AF9A;}
</style>
<g>
	<title>A559FDA9-A4D7-4945-829E-0BAD8C274FDC</title>
	<g>
		<path class="st0" d="M66.4,505.8v-2c0-0.3,0.2-0.5,0.5-0.5h5.8c0.3,0,0.5,0.2,0.5,0.5v14.6c0,1,0.2,1.6,0.5,2
			c0.4,0.4,0.9,0.5,1.7,0.5h1.5c1.3,0,1.9,1,1.9,2.9c0,1.1-0.2,1.9-0.5,2.3c-0.3,0.4-0.8,0.6-1.5,0.6h-4.9c-1.6,0-2.8-0.2-3.6-0.7
			c-0.9-0.5-1.5-1.4-1.7-2.8c-0.7,0.6-1.5,1-2.4,1.3c-0.9,0.3-1.9,0.4-2.9,0.4c-1.2,0-2.4-0.2-3.5-0.5c-1.1-0.3-2.1-0.9-3-1.6
			c-0.9-0.7-1.5-1.7-2-2.8c-0.5-1.2-0.7-2.6-0.7-4.3c0-1.9,0.3-3.5,0.8-4.7c0.6-1.2,1.3-2.3,2.2-3c0.9-0.7,1.9-1.3,3.1-1.6
			s2.3-0.5,3.5-0.5L66.4,505.8L66.4,505.8z M56.7,499.9c-0.3,0-0.5-0.2-0.5-0.5v-4.7c0-0.3,0.2-0.5,0.5-0.5h4.8
			c0.3,0,0.5,0.2,0.5,0.5v4.7c0,0.3-0.2,0.5-0.5,0.5H56.7z M62.4,519c1.2,0,2.1-0.3,2.9-1c0.7-0.7,1.1-1.8,1.1-3.2v-3.3h-3.8
			c-1.2,0-2.2,0.3-2.9,0.9c-0.7,0.6-1.1,1.6-1.1,3.1c0,1.3,0.4,2.2,1.1,2.7S61.3,519,62.4,519L62.4,519z M64,499.9
			c-0.3,0-0.5-0.2-0.5-0.5v-4.7c0-0.3,0.2-0.5,0.5-0.5h4.8c0.3,0,0.5,0.2,0.5,0.5v4.7c0,0.3-0.2,0.5-0.5,0.5H64z"/>
		<path class="st0" d="M82.6,507.1c0-0.3,0.2-0.5,0.5-0.5h5.7c0.3,0,0.5,0.2,0.5,0.5v11.2c0.1,0.8,0.4,1.4,1,1.9
			c0.6,0.5,1.5,0.7,2.6,0.7h1.1c0.6,0,1.1,0.2,1.4,0.7c0.3,0.4,0.5,1.2,0.5,2.2c0,1.9-0.6,2.9-1.9,2.9c-1.3,0-2.3-0.1-3.1-0.4
			c-0.9-0.3-1.6-0.9-2.2-1.9c-0.5,1-1.3,1.7-2.2,1.9c-1,0.3-2.3,0.4-4.1,0.4h-4.9c-0.6,0-1.1-0.2-1.4-0.6c-0.3-0.4-0.5-1.1-0.5-2.2
			c0-1.1,0.2-1.8,0.5-2.3c0.3-0.4,0.8-0.7,1.5-0.7h2.9c1,0,1.6-0.3,1.9-0.9c0.3-0.6,0.4-1.6,0.4-3L82.6,507.1L82.6,507.1z
			 M79.6,536.3c-0.3,0-0.5-0.2-0.5-0.5v-4.7c0-0.3,0.2-0.5,0.5-0.5h4.8c0.3,0,0.5,0.2,0.5,0.5v4.7c0,0.3-0.2,0.5-0.5,0.5H79.6z
			 M86.9,536.3c-0.3,0-0.5-0.2-0.5-0.5v-4.7c0-0.3,0.2-0.5,0.5-0.5h4.8c0.3,0,0.5,0.2,0.5,0.5v4.7c0,0.3-0.2,0.5-0.5,0.5H86.9z"/>
		<path class="st0" d="M99.4,507.1c0-0.3,0.2-0.5,0.5-0.5h5.7c0.3,0,0.5,0.2,0.5,0.5v11.2c0.1,0.8,0.4,1.4,1,1.9
			c0.6,0.5,1.5,0.7,2.6,0.7h1.1c0.6,0,1.1,0.2,1.4,0.7c0.3,0.4,0.5,1.2,0.5,2.2c0,1.9-0.6,2.9-1.9,2.9c-1.3,0-2.3-0.1-3.1-0.4
			c-0.9-0.3-1.6-0.9-2.2-1.9c-0.5,1-1.3,1.7-2.2,1.9c-1,0.3-2.3,0.4-4.1,0.4h-4.9c-0.6,0-1.1-0.2-1.4-0.6c-0.3-0.4-0.5-1.1-0.5-2.2
			c0-1.1,0.2-1.8,0.5-2.3c0.3-0.4,0.8-0.7,1.5-0.7h2.9c1,0,1.6-0.3,1.9-0.9c0.3-0.6,0.4-1.6,0.4-3L99.4,507.1L99.4,507.1z
			 M96.6,501.8c-0.3,0-0.5-0.2-0.5-0.5v-4.7c0-0.3,0.2-0.5,0.5-0.5h4.8c0.3,0,0.5,0.2,0.5,0.5v4.7c0,0.3-0.2,0.5-0.5,0.5H96.6z
			 M103.9,501.8c-0.3,0-0.5-0.2-0.5-0.5v-4.7c0-0.3,0.2-0.5,0.5-0.5h4.8c0.3,0,0.5,0.2,0.5,0.5v4.7c0,0.3-0.2,0.5-0.5,0.5H103.9z"/>
		<path class="st0" d="M139.4,526.6c-1.2,0-2.2-0.2-3-0.7c-0.8-0.5-1.4-1.1-1.8-1.8c-0.4,1-1.1,1.6-2,2c-0.9,0.3-2.1,0.5-3.7,0.5
			h-1.9c-1.2,0-2.3-0.2-3-0.7c-0.8-0.5-1.4-1.1-1.8-1.8c-0.4,1-1.1,1.7-2,2c-0.9,0.3-2.1,0.5-3.8,0.5h-5.7c-0.6,0-1.1-0.2-1.4-0.5
			c-0.3-0.4-0.5-1.1-0.5-2.1c0-1.1,0.2-1.9,0.5-2.4c0.3-0.5,0.8-0.7,1.5-0.7h3.2c0.9,0,1.5-0.2,1.8-0.7c0.3-0.5,0.4-1.3,0.4-2.5
			v-7.1c0-0.3,0.2-0.5,0.5-0.5h5.8c0.3,0,0.5,0.2,0.5,0.5v7.8c0,1,0.3,1.7,1,2c0.6,0.3,1.3,0.5,2.1,0.5c0.6,0,1.1-0.1,1.5-0.2
			c0.4-0.1,0.6-0.3,0.8-0.6c0.2-0.3,0.3-0.6,0.3-1c0-0.4,0.1-1,0.1-1.6v-7c0-0.3,0.2-0.5,0.5-0.5h5.8c0.3,0,0.5,0.2,0.5,0.5v7.7
			c0,1.1,0.3,1.8,1,2.1c0.6,0.3,1.4,0.5,2.2,0.5c0.6,0,1.1-0.1,1.4-0.2s0.6-0.3,0.7-0.6c0.2-0.3,0.3-0.6,0.3-1c0-0.4,0-1,0-1.6
			v-10.4c0-0.3,0.2-0.5,0.5-0.5h5.8c0.3,0,0.5,0.2,0.5,0.5v11.2c0.1,0.8,0.4,1.4,1,1.9c0.6,0.5,1.5,0.7,2.6,0.7h1.1
			c0.6,0,1.1,0.2,1.4,0.7c0.3,0.4,0.5,1.2,0.5,2.2c0,1.9-0.6,2.9-1.9,2.9c-1.3,0-2.3-0.1-3.1-0.4c-0.9-0.3-1.6-0.9-2.2-1.9
			c-0.4,0.9-1.1,1.5-1.9,1.9c-0.9,0.3-1.8,0.5-2.9,0.5L139.4,526.6L139.4,526.6z"/>
		<path class="st0" d="M152.3,526.6c-0.6,0-1.1-0.2-1.4-0.6c-0.3-0.4-0.5-1.1-0.5-2.2c0-1,0.2-1.8,0.5-2.3c0.3-0.5,0.8-0.7,1.5-0.7
			h11.8c0.8,0,1.4-0.1,1.9-0.2c0.5-0.1,0.8-0.3,1.1-0.6c0.3-0.3,0.5-0.7,0.6-1.3c0.1-0.5,0.2-1.2,0.2-2c0-0.7-0.1-1.3-0.2-1.9
			c-0.2-0.6-0.4-1.2-0.8-1.7c-0.4-0.5-0.9-0.9-1.5-1.2c-0.6-0.3-1.4-0.5-2.3-0.5c-1,0-1.9,0.2-2.7,0.6c-0.8,0.4-1.5,0.9-2.2,1.5
			c-0.2,0.2-0.4,0.2-0.7,0l-2.8-3.4c-0.3-0.3-0.3-0.5-0.1-0.7c1.1-1.1,2.4-2,3.8-2.7c1.4-0.7,3.2-1.1,5.4-1.1c2,0,3.8,0.3,5.2,0.9
			c1.4,0.6,2.6,1.4,3.5,2.4c0.9,1,1.5,2.2,1.9,3.6c0.4,1.4,0.6,2.8,0.6,4.3c0,2-0.2,3.6-0.5,4.8c-0.4,1.2-0.9,2.2-1.6,2.9
			c-0.7,0.7-1.5,1.2-2.5,1.5c-1,0.3-2.1,0.4-3.4,0.4L152.3,526.6L152.3,526.6L152.3,526.6z M160.9,536.2c-0.3,0-0.5-0.2-0.5-0.5
			v-4.7c0-0.3,0.2-0.5,0.5-0.5h5.9c0.3,0,0.5,0.2,0.5,0.5v4.7c0,0.3-0.2,0.5-0.5,0.5H160.9z"/>
		<path class="st0" d="M183.6,536.3c-0.3,0-0.5-0.2-0.5-0.5v-4.8c0-0.3,0.2-0.5,0.5-0.5h5.5c0.7,0,1.3-0.1,1.8-0.2
			c0.5-0.1,1-0.3,1.3-0.6c0.3-0.3,0.6-0.7,0.8-1.2c0.2-0.5,0.3-1.2,0.3-2h-4.6c-3.1,0-5.5-0.7-7.1-2.2c-1.7-1.5-2.5-4-2.5-7.6
			c0-2,0.3-3.7,0.9-5.1c0.6-1.4,1.4-2.5,2.3-3.4c1-0.9,2.1-1.5,3.3-1.9c1.3-0.4,2.5-0.6,3.9-0.6c1.3,0,2.7,0.2,4,0.5
			c1.3,0.3,2.4,0.9,3.3,1.7c1,0.8,1.7,1.9,2.3,3.3c0.6,1.4,0.8,3.1,0.8,5.1v4.4h3.2c1.3,0,1.9,1,1.9,2.8c0,1.2-0.2,2-0.5,2.4
			c-0.3,0.4-0.8,0.5-1.5,0.5h-3.2v0.9c0,3-0.8,5.2-2.3,6.7c-1.5,1.5-3.9,2.2-7.1,2.2H183.6z M189.5,511.5c-1.3,0-2.2,0.4-2.9,1.3
			c-0.7,0.9-1,2.1-1,3.6c0,1.7,0.4,2.9,1.1,3.5c0.7,0.6,1.7,0.9,2.9,0.9h3.7v-4.6C193.3,513.1,192,511.5,189.5,511.5L189.5,511.5z"
			/>
		<path class="st0" d="M207.1,494.8c0-0.3,0.2-0.5,0.5-0.5h5.8c0.3,0,0.5,0.2,0.5,0.5v23.5c0.1,0.8,0.4,1.5,1,1.9
			c0.6,0.4,1.5,0.7,2.6,0.7h1.1c0.6,0,1.1,0.2,1.4,0.7c0.3,0.4,0.5,1.2,0.5,2.2c0,1.9-0.6,2.9-1.9,2.9c-1.3,0-2.3-0.1-3.1-0.4
			c-0.9-0.3-1.6-0.9-2.2-1.9c-0.5,0.9-1.2,1.5-2.1,1.9c-0.9,0.3-2.1,0.5-3.7,0.5h-4.3c-0.6,0-1.1-0.1-1.4-0.3
			c-0.3-0.2-0.5-0.7-0.5-1.3c0-0.4,0-0.8,0.1-1.3c0.1-0.5,0.2-0.9,0.3-1.3c0.1-0.4,0.3-0.8,0.6-1c0.2-0.3,0.5-0.4,0.9-0.4h1.7
			c0.5,0,1-0.1,1.3-0.3c0.3-0.2,0.5-0.5,0.7-0.8c0.1-0.4,0.2-0.8,0.3-1.4c0-0.5,0-1.2,0-1.9V494.8L207.1,494.8z"/>
		<path class="st0" d="M218.5,526.6c-0.6,0-1.1-0.1-1.4-0.3c-0.3-0.2-0.5-0.7-0.5-1.3c0-0.4,0-0.8,0.1-1.3c0.1-0.5,0.2-0.9,0.3-1.3
			c0.1-0.4,0.3-0.8,0.6-1c0.2-0.3,0.5-0.4,0.9-0.4h1.7c0.8,0,1.4-0.2,1.7-0.5c0.4-0.4,0.5-1,0.5-2v-23.6c0-0.3,0.2-0.5,0.5-0.5h5.8
			c0.3,0,0.5,0.2,0.5,0.5v25.8c0,2.1-0.4,3.6-1.3,4.5c-0.9,1-2.3,1.5-4.3,1.5L218.5,526.6L218.5,526.6z"/>
		<path class="st0" d="M241.5,526.1c0,0.3-0.2,0.5-0.5,0.5h-5.7c-0.3,0-0.5-0.2-0.5-0.5v-31.4c0-0.3,0.2-0.5,0.5-0.5h5.7
			c0.3,0,0.5,0.2,0.5,0.5V526.1z"/>
		<path class="st0" d="M286.6,520.3c0.4-0.4,0.5-1,0.5-2v-11.3c0-0.3,0.2-0.5,0.5-0.5h5.8c0.3,0,0.5,0.2,0.5,0.5v13.5
			c0,2.1-0.4,3.6-1.3,4.5c-0.9,1-2.3,1.5-4.4,1.5h-24.7c-2,0-3.4-0.5-4.3-1.5c-0.9-1-1.3-2.5-1.3-4.5v-10.5c0-0.3,0.2-0.5,0.5-0.5
			h5.8c0.3,0,0.5,0.2,0.5,0.5v8.2c0,1,0.2,1.6,0.5,2c0.4,0.4,0.9,0.5,1.7,0.5h17.8C285.6,520.8,286.2,520.7,286.6,520.3z
			 M269.9,504.6c-0.3,0-0.5-0.2-0.5-0.5v-4.7c0-0.3,0.2-0.5,0.5-0.5h4.8c0.3,0,0.5,0.2,0.5,0.5v4.7c0,0.3-0.2,0.5-0.5,0.5H269.9z
			 M277.2,504.6c-0.3,0-0.5-0.2-0.5-0.5v-4.7c0-0.3,0.2-0.5,0.5-0.5h4.8c0.3,0,0.5,0.2,0.5,0.5v4.7c0,0.3-0.2,0.5-0.5,0.5H277.2z"/>
		<path class="st0" d="M299.1,494.8c0-0.3,0.2-0.5,0.5-0.5h5.7c0.3,0,0.5,0.2,0.5,0.5v23.6c0,1,0.2,1.6,0.5,2
			c0.4,0.4,0.9,0.5,1.7,0.5h1.3c0.6,0,1.1,0.2,1.4,0.7c0.3,0.5,0.5,1.2,0.5,2.3c0,1.1-0.2,1.9-0.5,2.2c-0.3,0.3-0.8,0.5-1.5,0.5
			h-4.7c-2,0-3.4-0.5-4.2-1.5c-0.8-1-1.3-2.5-1.3-4.5L299.1,494.8L299.1,494.8z"/>
		<path class="st0" d="M324.2,526.9c-1.7,0-3.2-0.2-4.6-0.6c-1.4-0.4-2.6-1.2-3.5-2.3c-0.4,0.6-1,1.1-1.5,1.5
			c-0.6,0.3-1.2,0.6-1.8,0.8c-0.6,0.2-1.2,0.3-1.8,0.3c-0.6,0-1.1,0-1.5,0c-0.6,0-1.1-0.2-1.4-0.6c-0.3-0.4-0.5-1.1-0.5-2.2
			c0-1.1,0.2-1.9,0.5-2.3c0.3-0.4,0.8-0.6,1.5-0.6h1.4c0.7,0,1.3-0.3,1.9-0.9c0.6-0.6,0.9-1.7,1-3.4v-1c0-1.9,0.3-3.4,0.9-4.7
			c0.6-1.3,1.4-2.3,2.3-3c1-0.8,2.1-1.3,3.3-1.6c1.3-0.3,2.6-0.5,3.9-0.5c1.4,0,2.7,0.2,4,0.5c1.3,0.3,2.4,0.9,3.4,1.8
			c1,0.8,1.7,1.9,2.3,3.3c0.6,1.4,0.9,3.1,0.9,5.2c0,1.9-0.3,3.6-0.8,4.9c-0.5,1.3-1.3,2.4-2.2,3.2c-0.9,0.8-2,1.4-3.3,1.7
			C327.1,526.8,325.7,526.9,324.2,526.9L324.2,526.9L324.2,526.9z M324.1,511.5c-2.6,0-3.9,1.6-3.9,4.8c0,1.8,0.3,3.1,1,3.8
			c0.7,0.7,1.6,1.1,2.9,1.1c1.3,0,2.3-0.4,2.9-1.1c0.6-0.7,1-2,1-3.8C328,513.1,326.7,511.5,324.1,511.5z"/>
		<path class="st0" d="M347.6,520.8c0.8,0,1.4-0.1,1.9-0.2c0.5-0.1,0.8-0.3,1.1-0.5c0.2-0.3,0.4-0.6,0.5-1c0.1-0.4,0.1-0.9,0.1-1.5
			V515c0-1.2-0.4-2.1-1.1-2.7c-0.7-0.6-1.8-0.8-3.2-0.8h-5.5c-0.3,0-0.5-0.2-0.5-0.5v-4.8c0-0.3,0.2-0.5,0.5-0.5h7.5
			c2.9,0,5.2,0.6,6.8,1.9c1.6,1.3,2.4,3.5,2.4,6.6v3.9c0.1,0.8,0.4,1.4,1,1.9c0.6,0.5,1.5,0.7,2.6,0.7h1c0.6,0,1.1,0.2,1.4,0.7
			c0.3,0.4,0.5,1.2,0.5,2.2c0,1.9-0.6,2.9-1.9,2.9c-1.3,0-2.4-0.2-3.4-0.5c-1-0.3-1.8-1.1-2.4-2.2c-0.6,1-1.4,1.7-2.4,2.1
			c-1,0.4-2.2,0.6-3.7,0.6h-11.5c-0.3,0-0.5-0.2-0.5-0.5v-4.8c0-0.3,0.2-0.5,0.5-0.5L347.6,520.8L347.6,520.8z"/>
		<path class="st0" d="M364.9,509.6c1.1-1.1,2.4-2,3.8-2.7c1.4-0.7,3.1-1.1,5.2-1.1c2,0,3.9,0.3,5.3,0.9c1.4,0.6,2.6,1.4,3.5,2.5
			c0.9,1.1,1.6,2.3,2,3.8c0.4,1.4,0.6,3,0.6,4.7v0.8c0.1,0.8,0.4,1.4,1,1.8s1.4,0.7,2.5,0.7h1.1c0.6,0,1.1,0.2,1.4,0.7
			c0.3,0.4,0.5,1.2,0.5,2.2c0,1.9-0.6,2.9-1.9,2.9c-1.3,0-2.5-0.2-3.5-0.5c-1-0.4-1.8-1.1-2.4-2.4c-0.6,1.1-1.5,1.9-2.7,2.3
			c-1.2,0.4-2.5,0.6-4.1,0.6h-14.4c-0.6,0-1.1-0.2-1.4-0.6c-0.3-0.4-0.5-1.1-0.5-2.2s0.1-1.8,0.4-2.2c0.3-0.5,0.8-0.7,1.5-0.7h11.8
			c0.8,0,1.4-0.1,1.9-0.2c0.5-0.1,0.8-0.3,1.1-0.6c0.3-0.3,0.5-0.6,0.6-1.1c0.1-0.5,0.2-1,0.2-1.7c0-0.8-0.1-1.5-0.2-2.2
			c-0.2-0.7-0.4-1.3-0.8-1.8c-0.4-0.5-0.9-0.9-1.5-1.2c-0.6-0.3-1.4-0.5-2.3-0.5c-1,0-1.9,0.2-2.7,0.6c-0.8,0.4-1.5,0.9-2.2,1.5
			c-0.2,0.2-0.4,0.2-0.7,0l-2.8-3.4C364.7,510,364.6,509.8,364.9,509.6L364.9,509.6z M371.1,501.8c-0.3,0-0.5-0.2-0.5-0.5v-4.7
			c0-0.3,0.2-0.5,0.5-0.5h5.9c0.3,0,0.5,0.2,0.5,0.5v4.7c0,0.3-0.2,0.5-0.5,0.5H371.1z"/>
		<path class="st0" d="M389.8,526.6c-0.6,0-1.1-0.1-1.4-0.3c-0.3-0.2-0.5-0.7-0.5-1.3c0-0.4,0-0.8,0.1-1.3c0.1-0.5,0.2-0.9,0.3-1.3
			c0.1-0.4,0.3-0.8,0.6-1c0.2-0.3,0.5-0.4,0.9-0.4h1.7c0.8,0,1.4-0.2,1.7-0.5c0.4-0.4,0.5-1,0.5-2v-23.6c0-0.3,0.2-0.5,0.5-0.5h5.8
			c0.3,0,0.5,0.2,0.5,0.5v25.8c0,2.1-0.4,3.6-1.3,4.5c-0.9,1-2.3,1.5-4.3,1.5L389.8,526.6L389.8,526.6z"/>
		<path class="st0" d="M412.9,526.1c0,0.3-0.2,0.5-0.5,0.5h-5.7c-0.3,0-0.5-0.2-0.5-0.5v-31.4c0-0.3,0.2-0.5,0.5-0.5h5.7
			c0.3,0,0.5,0.2,0.5,0.5V526.1z"/>
		<path class="st0" d="M422.4,536.3c-0.3,0-0.5-0.2-0.5-0.5v-4.8c0-0.3,0.2-0.5,0.5-0.5h5.5c0.6,0,1.2,0,1.7-0.1
			c0.5-0.1,0.9-0.3,1.3-0.5c0.4-0.3,0.6-0.7,0.9-1.2c0.2-0.5,0.3-1.2,0.3-2.1h-2c-1.9,0-3.6-0.1-5.1-0.3c-1.5-0.2-2.8-0.7-3.8-1.4
			c-1.1-0.7-1.9-1.7-2.4-3c-0.6-1.3-0.8-3-0.8-5.2c0-2,0.3-3.7,0.9-5.1c0.6-1.4,1.4-2.5,2.3-3.4c1-0.9,2.1-1.5,3.3-1.9
			c1.3-0.4,2.5-0.6,3.9-0.6c1.3,0,2.7,0.2,4,0.5c1.3,0.3,2.4,0.9,3.3,1.7c1,0.8,1.7,1.9,2.3,3.3c0.6,1.4,0.8,3.1,0.8,5.1v11.1
			c0,3-0.8,5.2-2.3,6.7c-1.5,1.5-3.9,2.2-7.1,2.2L422.4,536.3L422.4,536.3L422.4,536.3z M428.3,511.5c-1.3,0-2.3,0.4-2.9,1.3
			c-0.7,0.9-1,2.1-1,3.6c0,1.7,0.4,2.9,1.1,3.5c0.7,0.6,1.7,0.9,2.9,0.9h3.7v-4.6C432.1,513.1,430.8,511.5,428.3,511.5z"/>
		<path class="st0" d="M478.7,525.5c0,2-0.3,3.7-0.9,5.1c-0.6,1.4-1.5,2.6-2.5,3.5c-1.1,0.9-2.3,1.6-3.8,2c-1.5,0.4-3,0.6-4.7,0.6
			c-1.7,0-3.2-0.2-4.7-0.6c-1.5-0.4-2.8-1.1-3.9-2c-1.1-0.9-2-2.1-2.6-3.5c-0.6-1.4-1-3.2-1-5.2c0-1.6,0.2-3.2,0.7-4.8
			c0.5-1.6,1.1-3.2,1.9-4.6c0.1-0.2,0.4-0.2,0.7-0.1l5.1,1.7c0.2,0.1,0.2,0.2,0.3,0.3c0,0.1,0,0.2-0.1,0.4c-0.4,0.9-0.9,1.9-1.2,3
			c-0.4,1.1-0.6,2.4-0.6,3.8c0,1.1,0.2,2,0.5,2.8c0.3,0.8,0.7,1.4,1.3,1.9c0.5,0.5,1.1,0.8,1.8,1c0.6,0.2,1.3,0.3,2,0.3
			c1.6,0,2.9-0.5,3.8-1.4c0.9-0.9,1.4-2.3,1.4-4.3v-30.5c0-0.3,0.2-0.5,0.5-0.5h5.7c0.3,0,0.5,0.2,0.5,0.5v23.5
			c0.1,0.8,0.4,1.4,1,1.9c0.6,0.5,1.5,0.7,2.6,0.7h1.1c0.6,0,1.1,0.2,1.4,0.7c0.3,0.4,0.5,1.2,0.5,2.2c0,1.9-0.6,2.9-1.9,2.9
			c-1,0-1.9-0.1-2.7-0.3c-0.8-0.2-1.4-0.6-2-1.2L478.7,525.5L478.7,525.5L478.7,525.5z"/>
		<path class="st0" d="M496.8,505.8c1.6,0,3.1,0.2,4.4,0.5c1.3,0.4,2.4,0.9,3.3,1.6s1.6,1.5,2.1,2.5c0.5,1,0.7,2.2,0.7,3.5
			c0,1.5-0.3,2.8-1,4c-0.7,1.2-1.6,2.2-2.6,2.9c0.3,0,0.5,0,0.8,0h5.6c0.6,0,1.1,0.2,1.4,0.6c0.3,0.4,0.5,1.1,0.5,2.3
			c0,1.1-0.2,1.8-0.5,2.3c-0.3,0.4-0.8,0.6-1.5,0.6H503c-1.1,0-2.2,0-3.2-0.1c-1-0.1-2-0.4-2.9-1c-1,0.6-2.2,0.9-3.3,1
			c-1.2,0.1-2.2,0.1-3.2,0.1h-6.9c-0.7,0-1.1-0.2-1.5-0.7c-0.3-0.4-0.5-1.2-0.5-2.3c0-1,0.2-1.7,0.5-2.2c0.3-0.4,0.8-0.6,1.5-0.6
			h6.5c-1.1-0.7-1.9-1.7-2.6-2.9c-0.7-1.2-1-2.5-1-4c0-1.3,0.2-2.5,0.7-3.5c0.5-1,1.2-1.9,2.1-2.5c0.9-0.7,2-1.2,3.3-1.6
			C493.7,506,495.2,505.8,496.8,505.8L496.8,505.8L496.8,505.8z M490.9,501.8c-0.3,0-0.5-0.2-0.5-0.5v-4.7c0-0.3,0.2-0.5,0.5-0.5
			h4.8c0.3,0,0.5,0.2,0.5,0.5v4.7c0,0.3-0.2,0.5-0.5,0.5H490.9z M496.8,510.5c-1,0-1.9,0.3-2.7,1c-0.8,0.6-1.2,1.6-1.2,3
			c0,1.4,0.4,2.6,1.1,3.5c0.8,0.9,1.7,1.6,2.7,2.1c1-0.5,2-1.2,2.7-2.1c0.8-0.9,1.1-2,1.1-3.5c0-1.5-0.4-2.4-1.2-3
			C498.7,510.8,497.8,510.5,496.8,510.5z M498.2,501.8c-0.3,0-0.5-0.2-0.5-0.5v-4.7c0-0.3,0.2-0.5,0.5-0.5h4.8
			c0.3,0,0.5,0.2,0.5,0.5v4.7c0,0.3-0.2,0.5-0.5,0.5H498.2z"/>
		<path class="st0" d="M520.2,524.2c-0.5,1-1.3,1.6-2.2,1.9c-1,0.3-2.3,0.5-4,0.5h-3.8c-0.6,0-1.1-0.1-1.4-0.3s-0.5-0.7-0.5-1.4
			c0-0.4,0-0.9,0.1-1.3c0.1-0.5,0.2-0.9,0.3-1.3c0.2-0.4,0.4-0.7,0.6-1c0.3-0.3,0.6-0.4,1-0.4h1.6c1,0,1.6-0.3,1.9-0.8
			c0.3-0.6,0.4-1.5,0.4-3v-10c0-0.3,0.2-0.4,0.7-0.4c0.5,0,0.9,0,1.2,0h4.4c0.3,0,0.5,0.2,0.5,0.5v11.2c0.1,0.8,0.4,1.4,1,1.9
			c0.6,0.5,1.5,0.7,2.6,0.7h1.1c0.6,0,1.1,0.2,1.4,0.7c0.3,0.4,0.5,1.2,0.5,2.2c0,1.9-0.6,2.9-1.9,2.9c-1.3,0-2.3-0.1-3.1-0.4
			C521.6,525.9,520.9,525.2,520.2,524.2L520.2,524.2L520.2,524.2z M514.6,501.8c-0.3,0-0.5-0.2-0.5-0.5v-4.7c0-0.3,0.2-0.5,0.5-0.5
			h5.9c0.3,0,0.5,0.2,0.5,0.5v4.7c0,0.3-0.2,0.5-0.5,0.5H514.6z"/>
		<path class="st0" d="M525.4,526.6c-0.6,0-1.1-0.1-1.4-0.3c-0.3-0.2-0.5-0.7-0.5-1.3c0-0.4,0-0.8,0.1-1.3c0.1-0.5,0.2-0.9,0.3-1.3
			c0.1-0.4,0.3-0.8,0.6-1c0.2-0.3,0.5-0.4,0.9-0.4h1.7c0.8,0,1.4-0.2,1.7-0.5c0.4-0.4,0.5-1,0.5-2v-23.6c0-0.3,0.2-0.5,0.5-0.5h5.8
			c0.3,0,0.5,0.2,0.5,0.5v25.8c0,2.1-0.4,3.6-1.3,4.5c-0.9,1-2.3,1.5-4.3,1.5L525.4,526.6L525.4,526.6z"/>
		<path class="st0" d="M548.4,526.1c0,0.3-0.2,0.5-0.5,0.5h-5.7c-0.3,0-0.5-0.2-0.5-0.5v-31.4c0-0.3,0.2-0.5,0.5-0.5h5.7
			c0.3,0,0.5,0.2,0.5,0.5V526.1z"/>
		<path class="st0" d="M575.1,526.9c-1.5,0-2.9-0.2-4.2-0.5c-1.3-0.3-2.4-0.9-3.3-1.7c-0.9-0.8-1.7-1.9-2.2-3.2
			c-0.5-1.3-0.8-3-0.8-4.9c0-2.1,0.3-3.8,0.9-5.2c0.6-1.4,1.3-2.5,2.3-3.3c1-0.8,2.1-1.4,3.4-1.8c1.3-0.3,2.6-0.5,4-0.5
			c1.4,0,2.7,0.2,4,0.5c1.3,0.3,2.4,0.9,3.4,1.8c1,0.8,1.7,1.9,2.3,3.3c0.6,1.4,0.9,3.1,0.9,5.2c0,1.9-0.3,3.6-0.8,4.9
			c-0.5,1.3-1.3,2.4-2.2,3.2c-0.9,0.8-2.1,1.4-3.3,1.7C578,526.8,576.6,526.9,575.1,526.9z M569,501.8c-0.3,0-0.5-0.2-0.5-0.5v-4.7
			c0-0.3,0.2-0.5,0.5-0.5h4.7c0.3,0,0.5,0.2,0.5,0.5v4.7c0,0.3-0.2,0.5-0.5,0.5H569z M575.1,511.5c-2.6,0-3.9,1.6-3.9,4.8
			c0,1.8,0.3,3.1,1,3.8c0.7,0.7,1.6,1.1,2.9,1.1c1.3,0,2.3-0.4,2.9-1.1c0.6-0.7,0.9-2,0.9-3.8C578.9,513.1,577.7,511.5,575.1,511.5z
			 M576.3,501.8c-0.3,0-0.5-0.2-0.5-0.5v-4.7c0-0.3,0.2-0.5,0.5-0.5h4.8c0.3,0,0.5,0.2,0.5,0.5v4.7c0,0.3-0.2,0.5-0.5,0.5H576.3z"/>
		<path class="st0" d="M588.4,536.3c-0.3,0-0.5-0.2-0.5-0.5v-4.8c0-0.3,0.2-0.5,0.5-0.5h1c1.3,0,2.2-0.3,2.8-1
			c0.6-0.7,0.8-1.7,0.8-3v-19.5c0-0.3,0.2-0.5,0.5-0.5h5.8c0.3,0,0.5,0.2,0.5,0.5v19.7c0,3.3-0.8,5.7-2.3,7.2
			c-1.5,1.5-3.8,2.3-6.9,2.3L588.4,536.3L588.4,536.3z"/>
		<path class="st0" d="M612,526.1c0,0.3-0.2,0.5-0.5,0.5h-5.7c-0.3,0-0.5-0.2-0.5-0.5v-31.4c0-0.3,0.2-0.5,0.5-0.5h5.7
			c0.3,0,0.5,0.2,0.5,0.5V526.1z"/>
		<path class="st0" d="M615.5,536.3c-0.3,0-0.5-0.2-0.5-0.5v-4.8c0-0.3,0.2-0.5,0.5-0.5h1c1.3,0,2.2-0.3,2.8-1
			c0.6-0.7,0.8-1.7,0.8-3v-19.5c0-0.3,0.2-0.5,0.5-0.5h5.8c0.3,0,0.5,0.2,0.5,0.5v19.7c0,3.3-0.8,5.7-2.3,7.2
			c-1.5,1.5-3.8,2.3-6.9,2.3L615.5,536.3L615.5,536.3z M620.6,501.8c-0.3,0-0.5-0.2-0.5-0.5v-4.7c0-0.3,0.2-0.5,0.5-0.5h5.9
			c0.3,0,0.5,0.2,0.5,0.5v4.7c0,0.3-0.2,0.5-0.5,0.5H620.6z"/>
		<path class="st0" d="M636.2,536.3c-0.3,0-0.5-0.2-0.5-0.5v-4.8c0-0.3,0.2-0.5,0.5-0.5h5.5c0.6,0,1.2,0,1.7-0.1
			c0.5-0.1,0.9-0.3,1.3-0.5c0.4-0.3,0.6-0.7,0.9-1.2c0.2-0.5,0.3-1.2,0.3-2.1h-2c-1.9,0-3.6-0.1-5.1-0.3c-1.5-0.2-2.8-0.7-3.9-1.4
			c-1.1-0.7-1.9-1.7-2.4-3c-0.6-1.3-0.8-3-0.8-5.2c0-2,0.3-3.7,0.9-5.1c0.6-1.4,1.4-2.5,2.3-3.4c1-0.9,2.1-1.5,3.3-1.9
			c1.3-0.4,2.5-0.6,3.9-0.6c1.3,0,2.7,0.2,4,0.5c1.3,0.3,2.4,0.9,3.3,1.7c1,0.8,1.7,1.9,2.3,3.3c0.6,1.4,0.8,3.1,0.8,5.1v11.1
			c0,3-0.8,5.2-2.3,6.7c-1.5,1.5-3.9,2.2-7.1,2.2L636.2,536.3L636.2,536.3L636.2,536.3z M642.1,511.5c-1.3,0-2.3,0.4-2.9,1.3
			c-0.7,0.9-1,2.1-1,3.6c0,1.7,0.4,2.9,1.1,3.5c0.7,0.6,1.7,0.9,2.9,0.9h3.7v-4.6C645.9,513.1,644.6,511.5,642.1,511.5z"/>
		<path class="st0" d="M52.1,547.3c0-0.2,0.1-0.3,0.3-0.3h3.5c0.2,0,0.4,0.1,0.5,0.3l5,11.3h0.1l4.9-11.3c0.1-0.2,0.2-0.3,0.5-0.3
			h3.4c0.2,0,0.3,0.1,0.3,0.3v19.2c0,0.2-0.1,0.3-0.3,0.3h-3.3c-0.2,0-0.3-0.1-0.3-0.3v-11.1h-0.1l-3.7,8.3
			c-0.1,0.3-0.3,0.4-0.5,0.4h-2c-0.3,0-0.4-0.1-0.5-0.4l-3.7-8.3H56v11.1c0,0.2-0.1,0.3-0.3,0.3h-3.3c-0.2,0-0.3-0.1-0.3-0.3V547.3z
			"/>
		<path class="st0" d="M75.8,550.5c-0.2,0-0.3-0.1-0.3-0.3v-2.8c0-0.2,0.1-0.3,0.3-0.3h3.5c0.2,0,0.3,0.1,0.3,0.3v2.8
			c0,0.2-0.1,0.3-0.3,0.3H75.8z M75.8,566.7c-0.2,0-0.3-0.1-0.3-0.3V553c0-0.2,0.1-0.3,0.3-0.3h3.5c0.2,0,0.3,0.1,0.3,0.3v13.5
			c0,0.2-0.1,0.3-0.3,0.3H75.8z"/>
		<path class="st0" d="M93.2,566.7c-0.2,0-0.3-0.1-0.3-0.3v-8.1c0-0.8-0.2-1.4-0.5-1.9c-0.4-0.5-0.9-0.7-1.6-0.7
			c-0.7,0-1.2,0.2-1.6,0.7c-0.4,0.5-0.6,1.1-0.6,1.9v8.1c0,0.2-0.1,0.3-0.3,0.3h-3.5c-0.2,0-0.3-0.1-0.3-0.3V553
			c0-0.2,0.1-0.3,0.3-0.3h3.5c0.2,0,0.3,0.1,0.3,0.3v1h0c0.3-0.4,0.8-0.8,1.4-1.1c0.6-0.3,1.3-0.5,2.3-0.5c0.8,0,1.5,0.1,2.1,0.4
			c0.6,0.2,1.1,0.6,1.5,1.1c0.4,0.5,0.7,1,0.9,1.7c0.2,0.6,0.3,1.3,0.3,2.1v8.8c0,0.2-0.1,0.3-0.3,0.3H93.2z"/>
		<path class="st0" d="M102,550.5c-0.2,0-0.3-0.1-0.3-0.3v-2.8c0-0.2,0.1-0.3,0.3-0.3h3.5c0.2,0,0.3,0.1,0.3,0.3v2.8
			c0,0.2-0.1,0.3-0.3,0.3H102z M102,566.7c-0.2,0-0.3-0.1-0.3-0.3V553c0-0.2,0.1-0.3,0.3-0.3h3.5c0.2,0,0.3,0.1,0.3,0.3v13.5
			c0,0.2-0.1,0.3-0.3,0.3H102z"/>
		<path class="st0" d="M116.2,567.1c-1.5,0-2.7-0.2-3.8-0.7c-1.1-0.4-1.9-0.9-2.6-1.5c-0.1-0.1-0.1-0.3,0-0.4l1.9-2.1
			c0.1-0.1,0.3-0.1,0.4,0c0.6,0.5,1.3,0.9,2.1,1.1c0.8,0.3,1.5,0.4,2.2,0.4c0.7,0,1.3-0.1,1.6-0.4c0.4-0.3,0.5-0.6,0.5-1
			c0-0.3-0.1-0.6-0.4-0.8c-0.3-0.2-0.8-0.3-1.6-0.4l-1.6-0.2c-1.5-0.2-2.6-0.6-3.4-1.3c-0.8-0.7-1.2-1.7-1.2-3
			c0-1.4,0.5-2.5,1.5-3.3c1-0.8,2.4-1.2,4.3-1.2c1.2,0,2.3,0.2,3.3,0.5c1,0.3,1.8,0.7,2.4,1.3c0.1,0.1,0.1,0.3,0,0.4l-1.6,2
			c-0.1,0.1-0.3,0.2-0.4,0.1c-0.5-0.3-1.1-0.6-1.7-0.8c-0.7-0.2-1.4-0.3-2.1-0.3c-0.6,0-1,0.1-1.3,0.3c-0.3,0.2-0.4,0.5-0.4,0.8
			c0,0.3,0.1,0.6,0.4,0.8c0.3,0.2,0.8,0.3,1.6,0.4l1.5,0.2c1.7,0.2,2.9,0.6,3.6,1.4c0.7,0.8,1.1,1.7,1.1,2.9c0,1.5-0.6,2.6-1.6,3.5
			C119.8,566.6,118.3,567.1,116.2,567.1L116.2,567.1L116.2,567.1z"/>
		<path class="st0" d="M131.4,566.9c-1.6,0-2.8-0.4-3.5-1.1c-0.7-0.8-1-1.9-1-3.5v-6.4c0-0.1-0.1-0.2-0.2-0.2h-0.9
			c-0.2,0-0.3-0.1-0.3-0.3V553c0-0.2,0.1-0.3,0.3-0.3h0.9c0.1,0,0.2-0.1,0.2-0.2v-3.8c0-0.2,0.1-0.3,0.3-0.3h3.5
			c0.2,0,0.3,0.1,0.3,0.3v3.8c0,0.1,0.1,0.2,0.2,0.2h1.8c0.2,0,0.3,0.1,0.3,0.3v2.4c0,0.2-0.1,0.3-0.3,0.3h-1.8
			c-0.1,0-0.2,0.1-0.2,0.2v6.2c0,0.5,0.1,0.9,0.3,1.1s0.5,0.3,1,0.3h0.7c0.2,0,0.3,0.1,0.3,0.3v2.8c0,0.2-0.1,0.3-0.3,0.3
			L131.4,566.9L131.4,566.9z"/>
		<path class="st0" d="M137.8,566.7c-0.2,0-0.3-0.1-0.3-0.3V553c0-0.2,0.1-0.3,0.3-0.3h3.5c0.2,0,0.3,0.1,0.3,0.3v1.2h0
			c0.3-0.6,0.8-1,1.4-1.3c0.6-0.3,1.4-0.5,2.2-0.5c0.5,0,0.9,0.1,1.3,0.2c0.4,0.1,0.8,0.4,1.1,0.6c0.1,0.1,0.2,0.3,0.1,0.4l-1.6,3
			c-0.1,0.1-0.2,0.1-0.4,0.1c-0.7-0.4-1.4-0.7-2-0.6c-0.8,0-1.3,0.3-1.7,0.8c-0.3,0.5-0.5,1.3-0.5,2.2v7.4c0,0.2-0.1,0.3-0.3,0.3
			H137.8L137.8,566.7z"/>
		<path class="st0" d="M152,572c-0.2,0-0.3-0.1-0.3-0.3v-2.8c0-0.2,0.1-0.3,0.3-0.3h0.6c0.5,0,0.9-0.1,1.2-0.3
			c0.3-0.2,0.5-0.6,0.7-1.1l0.4-1l-5.2-13.1c-0.1-0.2,0-0.3,0.2-0.3h3.7c0.2,0,0.3,0.1,0.3,0.3l2.8,8.1h0.1l2.6-8.1
			c0.1-0.2,0.2-0.3,0.3-0.3h3.6c0.2,0,0.3,0.1,0.2,0.3l-5.7,15c-0.3,0.8-0.6,1.4-0.9,1.9c-0.3,0.5-0.7,0.9-1.1,1.2
			c-0.4,0.3-0.8,0.5-1.3,0.7c-0.5,0.1-1,0.2-1.7,0.2L152,572L152,572z"/>
		<path class="st0" d="M181,567.1c-1.5,0-2.8-0.3-3.9-1c-1.1-0.7-1.8-1.7-2.2-2.9c-0.2-0.5-0.3-1-0.3-1.6c-0.1-0.5-0.1-1.1-0.1-1.8
			c0-0.7,0-1.3,0.1-1.8c0.1-0.5,0.2-1,0.3-1.6c0.4-1.3,1.2-2.3,2.2-2.9c1.1-0.7,2.4-1,3.9-1c1.5,0,2.8,0.3,3.9,1
			c1.1,0.7,1.8,1.7,2.2,2.9c0.2,0.5,0.3,1,0.3,1.6c0.1,0.5,0.1,1.1,0.1,1.8c0,0.7,0,1.3-0.1,1.8c-0.1,0.5-0.2,1-0.3,1.6
			c-0.4,1.3-1.2,2.3-2.2,2.9C183.8,566.7,182.5,567.1,181,567.1z M181,563.6c1.1,0,1.8-0.5,2.2-1.5c0.1-0.3,0.2-0.7,0.2-1
			c0-0.3,0.1-0.8,0.1-1.4c0-0.6,0-1.1-0.1-1.4c0-0.3-0.1-0.7-0.2-1c-0.3-1-1.1-1.5-2.2-1.5c-1.1,0-1.8,0.5-2.2,1.5
			c-0.1,0.3-0.2,0.7-0.2,1c0,0.3-0.1,0.8-0.1,1.4c0,0.6,0,1.1,0.1,1.4c0,0.3,0.1,0.7,0.2,1C179.2,563.1,179.9,563.6,181,563.6z"/>
		<path class="st0" d="M192.6,566.7c-0.2,0-0.3-0.1-0.3-0.3v-10.6c0-0.1-0.1-0.2-0.2-0.2h-0.9c-0.2,0-0.3-0.1-0.3-0.3V553
			c0-0.2,0.1-0.3,0.3-0.3h0.9c0.1,0,0.2-0.1,0.2-0.2v-0.7c0-1.7,0.4-3,1.2-3.7c0.8-0.8,2.1-1.1,3.8-1.1h1.6c0.2,0,0.3,0.1,0.3,0.3
			v2.7c0,0.2-0.1,0.3-0.3,0.3H198c-0.6,0-1.1,0.1-1.3,0.3c-0.2,0.2-0.3,0.6-0.3,1.2v0.7c0,0.1,0.1,0.2,0.2,0.2h2.3
			c0.2,0,0.3,0.1,0.3,0.3v2.4c0,0.2-0.1,0.3-0.3,0.3h-2.3c-0.1,0-0.2,0.1-0.2,0.2v10.6c0,0.2-0.1,0.3-0.3,0.3L192.6,566.7
			L192.6,566.7z"/>
		<path class="st0" d="M215.1,566.7c-0.2,0-0.3-0.1-0.3-0.3V551c0-0.1-0.1-0.2-0.2-0.2h-5c-0.2,0-0.3-0.1-0.3-0.3v-3.2
			c0-0.2,0.1-0.3,0.3-0.3h14.6c0.2,0,0.3,0.1,0.3,0.3v3.2c0,0.2-0.1,0.3-0.3,0.3h-5c-0.1,0-0.2,0.1-0.2,0.2v15.5
			c0,0.2-0.1,0.3-0.3,0.3H215.1L215.1,566.7z"/>
		<path class="st0" d="M228.4,566.7c-0.2,0-0.3-0.1-0.3-0.3V553c0-0.2,0.1-0.3,0.3-0.3h3.5c0.2,0,0.3,0.1,0.3,0.3v1.2h0
			c0.3-0.6,0.8-1,1.4-1.3c0.6-0.3,1.4-0.5,2.2-0.5c0.5,0,0.9,0.1,1.3,0.2c0.4,0.1,0.8,0.4,1.1,0.6c0.1,0.1,0.2,0.3,0.1,0.4l-1.6,3
			c-0.1,0.1-0.2,0.1-0.4,0.1c-0.7-0.4-1.4-0.7-2-0.6c-0.8,0-1.3,0.3-1.7,0.8c-0.3,0.5-0.5,1.3-0.5,2.2v7.4c0,0.2-0.1,0.3-0.3,0.3
			H228.4L228.4,566.7z"/>
		<path class="st0" d="M249.2,566.7c-0.2,0-0.3-0.1-0.3-0.3v-0.9h0c-0.4,0.5-0.9,0.8-1.5,1.1c-0.6,0.3-1.4,0.4-2.4,0.4
			c-0.6,0-1.2-0.1-1.8-0.2c-0.6-0.2-1.1-0.4-1.5-0.8c-0.4-0.3-0.8-0.8-1-1.3c-0.3-0.5-0.4-1.2-0.4-1.9c0-1.5,0.5-2.7,1.6-3.4
			c1.1-0.7,2.5-1.1,4.2-1.1h2.5c0.1,0,0.2-0.1,0.2-0.2v-0.5c0-0.7-0.2-1.1-0.6-1.5c-0.4-0.3-1.2-0.5-2.3-0.5c-0.7,0-1.3,0.1-1.9,0.3
			c-0.5,0.2-1,0.4-1.3,0.6c-0.2,0.1-0.3,0.1-0.4-0.1l-1.3-2.3c-0.1-0.2-0.1-0.3,0.1-0.4c0.6-0.4,1.3-0.8,2.2-1
			c0.9-0.3,1.9-0.4,3-0.4c1.2,0,2.1,0.1,2.9,0.3c0.8,0.2,1.4,0.5,1.9,0.9c0.5,0.4,0.9,0.9,1.1,1.6c0.2,0.6,0.3,1.4,0.3,2.3v9
			c0,0.2-0.1,0.3-0.3,0.3L249.2,566.7L249.2,566.7z M246.3,564c1.7,0,2.6-0.6,2.6-1.9v-1c0-0.1-0.1-0.2-0.2-0.2h-2
			c-1.7,0-2.5,0.5-2.5,1.6C244.2,563.5,244.9,564,246.3,564L246.3,564z"/>
		<path class="st0" d="M266.3,566.7c-0.2,0-0.3-0.1-0.3-0.3v-8.1c0-0.8-0.2-1.4-0.5-1.9c-0.4-0.5-0.9-0.7-1.6-0.7
			c-0.7,0-1.2,0.2-1.6,0.7c-0.4,0.5-0.6,1.1-0.6,1.9v8.1c0,0.2-0.1,0.3-0.3,0.3h-3.5c-0.2,0-0.3-0.1-0.3-0.3V553
			c0-0.2,0.1-0.3,0.3-0.3h3.5c0.2,0,0.3,0.1,0.3,0.3v1h0c0.3-0.4,0.8-0.8,1.4-1.1c0.6-0.3,1.3-0.5,2.3-0.5c0.8,0,1.5,0.1,2.1,0.4
			c0.6,0.2,1.1,0.6,1.5,1.1c0.4,0.5,0.7,1,0.9,1.7c0.2,0.6,0.3,1.3,0.3,2.1v8.8c0,0.2-0.1,0.3-0.3,0.3H266.3z"/>
		<path class="st0" d="M280.4,567.1c-1.5,0-2.7-0.2-3.8-0.7c-1.1-0.4-1.9-0.9-2.6-1.5c-0.1-0.1-0.1-0.3,0-0.4l1.9-2.1
			c0.1-0.1,0.3-0.1,0.4,0c0.6,0.5,1.3,0.9,2.1,1.1c0.8,0.3,1.5,0.4,2.2,0.4c0.7,0,1.3-0.1,1.6-0.4c0.4-0.3,0.5-0.6,0.5-1
			c0-0.3-0.1-0.6-0.4-0.8s-0.8-0.3-1.6-0.4l-1.6-0.2c-1.5-0.2-2.6-0.6-3.4-1.3c-0.8-0.7-1.2-1.7-1.2-3c0-1.4,0.5-2.5,1.5-3.3
			c1-0.8,2.4-1.2,4.3-1.2c1.2,0,2.3,0.2,3.3,0.5c1,0.3,1.8,0.7,2.4,1.3c0.1,0.1,0.1,0.3,0,0.4l-1.6,2c-0.1,0.1-0.3,0.2-0.4,0.1
			c-0.5-0.3-1.1-0.6-1.7-0.8c-0.7-0.2-1.4-0.3-2.1-0.3c-0.6,0-1,0.1-1.3,0.3c-0.3,0.2-0.4,0.5-0.4,0.8c0,0.3,0.1,0.6,0.4,0.8
			c0.3,0.2,0.8,0.3,1.6,0.4l1.5,0.2c1.7,0.2,2.9,0.6,3.6,1.4c0.7,0.8,1.1,1.7,1.1,2.9c0,1.5-0.6,2.6-1.6,3.5
			C284,566.6,282.4,567.1,280.4,567.1L280.4,567.1L280.4,567.1z"/>
		<path class="st0" d="M291.1,572c-0.2,0-0.3-0.1-0.3-0.3V553c0-0.2,0.1-0.3,0.3-0.3h3.5c0.2,0,0.3,0.1,0.3,0.3v1h0
			c0.3-0.5,0.8-0.9,1.4-1.2c0.6-0.3,1.4-0.5,2.3-0.5c1.2,0,2.2,0.3,3,0.8c0.8,0.6,1.4,1.4,1.8,2.5c0.2,0.6,0.3,1.1,0.4,1.7
			c0.1,0.6,0.1,1.3,0.1,2.3c0,0.9,0,1.7-0.1,2.3c-0.1,0.6-0.2,1.2-0.4,1.7c-0.4,1.1-1,1.9-1.8,2.5c-0.8,0.6-1.8,0.9-3,0.9
			c-0.9,0-1.7-0.2-2.3-0.5c-0.6-0.3-1.1-0.7-1.4-1.2h0v6.2c0,0.2-0.1,0.3-0.3,0.3L291.1,572L291.1,572z M297.3,563.6
			c1.1,0,1.8-0.5,2.2-1.5c0.1-0.3,0.2-0.6,0.2-0.9c0-0.4,0.1-0.8,0.1-1.5c0-0.6,0-1.1-0.1-1.5c0-0.4-0.1-0.7-0.2-0.9
			c-0.3-1-1-1.5-2.2-1.5c-1.1,0-1.8,0.5-2.1,1.5c-0.1,0.3-0.2,0.6-0.2,0.9c0,0.4-0.1,0.8-0.1,1.5c0,0.6,0,1.1,0.1,1.5
			c0,0.4,0.1,0.7,0.2,0.9C295.4,563.1,296.2,563.6,297.3,563.6z"/>
		<path class="st0" d="M313.9,567.1c-1.5,0-2.8-0.3-3.9-1c-1.1-0.7-1.8-1.7-2.2-2.9c-0.2-0.5-0.3-1-0.3-1.6
			c-0.1-0.5-0.1-1.1-0.1-1.8c0-0.7,0-1.3,0.1-1.8c0.1-0.5,0.2-1,0.3-1.6c0.4-1.3,1.2-2.3,2.2-2.9c1.1-0.7,2.4-1,3.9-1s2.8,0.3,3.9,1
			c1.1,0.7,1.8,1.7,2.2,2.9c0.2,0.5,0.3,1,0.3,1.6c0.1,0.5,0.1,1.1,0.1,1.8c0,0.7,0,1.3-0.1,1.8c-0.1,0.5-0.2,1-0.3,1.6
			c-0.4,1.3-1.2,2.3-2.2,2.9C316.7,566.7,315.4,567.1,313.9,567.1z M313.9,563.6c1.1,0,1.8-0.5,2.2-1.5c0.1-0.3,0.2-0.7,0.2-1
			c0-0.3,0.1-0.8,0.1-1.4c0-0.6,0-1.1-0.1-1.4c0-0.3-0.1-0.7-0.2-1c-0.3-1-1.1-1.5-2.2-1.5c-1.1,0-1.8,0.5-2.2,1.5
			c-0.1,0.3-0.2,0.7-0.2,1c0,0.3-0.1,0.8-0.1,1.4c0,0.6,0,1.1,0.1,1.4c0,0.3,0.1,0.7,0.2,1C312,563.1,312.8,563.6,313.9,563.6z"/>
		<path class="st0" d="M325,566.7c-0.2,0-0.3-0.1-0.3-0.3V553c0-0.2,0.1-0.3,0.3-0.3h3.5c0.2,0,0.3,0.1,0.3,0.3v1.2h0
			c0.3-0.6,0.8-1,1.4-1.3c0.6-0.3,1.4-0.5,2.2-0.5c0.5,0,0.9,0.1,1.3,0.2c0.4,0.1,0.8,0.4,1.1,0.6c0.1,0.1,0.2,0.3,0.1,0.4l-1.6,3
			c-0.1,0.1-0.2,0.1-0.4,0.1c-0.7-0.4-1.4-0.7-2-0.6c-0.8,0-1.3,0.3-1.7,0.8s-0.5,1.3-0.5,2.2v7.4c0,0.2-0.1,0.3-0.3,0.3H325
			L325,566.7z"/>
		<path class="st0" d="M343.1,566.9c-1.6,0-2.8-0.4-3.5-1.1c-0.7-0.8-1-1.9-1-3.5v-6.4c0-0.1-0.1-0.2-0.2-0.2h-0.9
			c-0.2,0-0.3-0.1-0.3-0.3V553c0-0.2,0.1-0.3,0.3-0.3h0.9c0.1,0,0.2-0.1,0.2-0.2v-3.8c0-0.2,0.1-0.3,0.3-0.3h3.5
			c0.2,0,0.3,0.1,0.3,0.3v3.8c0,0.1,0.1,0.2,0.2,0.2h1.8c0.2,0,0.3,0.1,0.3,0.3v2.4c0,0.2-0.1,0.3-0.3,0.3h-1.8
			c-0.1,0-0.2,0.1-0.2,0.2v6.2c0,0.5,0.1,0.9,0.3,1.1c0.2,0.2,0.5,0.3,1,0.3h0.7c0.2,0,0.3,0.1,0.3,0.3v2.8c0,0.2-0.1,0.3-0.3,0.3
			L343.1,566.9L343.1,566.9z"/>
		<path class="st0" d="M365.5,566.7c-0.2,0-0.3-0.1-0.3-0.3v-0.9h0c-0.4,0.5-0.9,0.8-1.5,1.1c-0.6,0.3-1.4,0.4-2.4,0.4
			c-0.6,0-1.2-0.1-1.8-0.2c-0.6-0.2-1.1-0.4-1.5-0.8c-0.4-0.3-0.8-0.8-1-1.3c-0.3-0.5-0.4-1.2-0.4-1.9c0-1.5,0.5-2.7,1.6-3.4
			c1.1-0.7,2.5-1.1,4.2-1.1h2.5c0.1,0,0.2-0.1,0.2-0.2v-0.5c0-0.7-0.2-1.1-0.6-1.5c-0.4-0.3-1.2-0.5-2.3-0.5c-0.7,0-1.3,0.1-1.9,0.3
			c-0.5,0.2-1,0.4-1.3,0.6c-0.2,0.1-0.3,0.1-0.4-0.1l-1.3-2.3c-0.1-0.2-0.1-0.3,0.1-0.4c0.6-0.4,1.3-0.8,2.2-1
			c0.9-0.3,1.9-0.4,3-0.4c1.2,0,2.1,0.1,2.9,0.3c0.8,0.2,1.4,0.5,1.9,0.9c0.5,0.4,0.9,0.9,1.1,1.6c0.2,0.6,0.3,1.4,0.3,2.3v9
			c0,0.2-0.1,0.3-0.3,0.3L365.5,566.7L365.5,566.7z M362.5,564c1.7,0,2.6-0.6,2.6-1.9v-1c0-0.1-0.1-0.2-0.2-0.2h-2
			c-1.7,0-2.5,0.5-2.5,1.6C360.5,563.5,361.2,564,362.5,564L362.5,564z"/>
		<path class="st0" d="M382.5,566.7c-0.2,0-0.3-0.1-0.3-0.3v-8.1c0-0.8-0.2-1.4-0.5-1.9c-0.4-0.5-0.9-0.7-1.6-0.7
			c-0.7,0-1.2,0.2-1.6,0.7c-0.4,0.5-0.6,1.1-0.6,1.9v8.1c0,0.2-0.1,0.3-0.3,0.3h-3.5c-0.2,0-0.3-0.1-0.3-0.3V553
			c0-0.2,0.1-0.3,0.3-0.3h3.5c0.2,0,0.3,0.1,0.3,0.3v1h0c0.3-0.4,0.8-0.8,1.4-1.1c0.6-0.3,1.3-0.5,2.3-0.5c0.8,0,1.5,0.1,2.1,0.4
			c0.6,0.2,1.1,0.6,1.5,1.1c0.4,0.5,0.7,1,0.9,1.7c0.2,0.6,0.3,1.3,0.3,2.1v8.8c0,0.2-0.1,0.3-0.3,0.3H382.5z"/>
		<path class="st0" d="M399.7,566.7c-0.2,0-0.3-0.1-0.3-0.3v-1h0c-0.3,0.5-0.8,0.9-1.4,1.2c-0.6,0.3-1.4,0.5-2.3,0.5
			c-1.2,0-2.2-0.3-3-0.9c-0.8-0.6-1.4-1.4-1.8-2.5c-0.2-0.6-0.3-1.1-0.4-1.7c-0.1-0.6-0.1-1.3-0.1-2.3c0-0.9,0-1.7,0.1-2.3
			c0.1-0.6,0.2-1.2,0.4-1.7c0.4-1.1,1-2,1.8-2.5c0.8-0.6,1.8-0.8,3-0.8c0.9,0,1.7,0.2,2.3,0.5c0.6,0.3,1.1,0.7,1.4,1.2h0v-6.7
			c0-0.2,0.1-0.3,0.3-0.3h3.5c0.2,0,0.3,0.1,0.3,0.3v19.2c0,0.2-0.1,0.3-0.3,0.3L399.7,566.7L399.7,566.7z M397,563.6
			c1.1,0,1.8-0.5,2.1-1.5c0.1-0.3,0.2-0.6,0.2-0.9c0-0.4,0.1-0.8,0.1-1.5c0-0.6,0-1.1-0.1-1.5c0-0.4-0.1-0.7-0.2-0.9
			c-0.3-1-1-1.5-2.1-1.5c-1.1,0-1.9,0.5-2.2,1.5c-0.1,0.3-0.2,0.6-0.2,0.9c0,0.4-0.1,0.8-0.1,1.5c0,0.6,0,1.1,0.1,1.5
			c0,0.4,0.1,0.7,0.2,0.9C395.1,563.1,395.9,563.6,397,563.6z"/>
		<path class="st0" d="M416.5,547.3c0-0.2,0.1-0.3,0.3-0.3h3.7c0.2,0,0.3,0.1,0.3,0.3v15.5c0,0.1,0.1,0.2,0.2,0.2h8.7
			c0.2,0,0.3,0.1,0.3,0.3v3.2c0,0.2-0.1,0.3-0.3,0.3h-12.9c-0.2,0-0.3-0.1-0.3-0.3L416.5,547.3L416.5,547.3z"/>
		<path class="st0" d="M439.5,567.1c-1.5,0-2.8-0.3-3.9-1c-1.1-0.7-1.8-1.7-2.2-2.9c-0.2-0.5-0.3-1-0.3-1.6
			c-0.1-0.5-0.1-1.1-0.1-1.8c0-0.7,0-1.3,0.1-1.8c0.1-0.5,0.2-1,0.3-1.6c0.4-1.3,1.2-2.3,2.2-2.9c1.1-0.7,2.4-1,3.9-1
			c1.5,0,2.8,0.3,3.9,1c1.1,0.7,1.8,1.7,2.2,2.9c0.2,0.5,0.3,1,0.3,1.6c0.1,0.5,0.1,1.1,0.1,1.8c0,0.7,0,1.3-0.1,1.8
			c-0.1,0.5-0.2,1-0.3,1.6c-0.4,1.3-1.2,2.3-2.2,2.9C442.3,566.7,441,567.1,439.5,567.1z M439.5,563.6c1.1,0,1.8-0.5,2.2-1.5
			c0.1-0.3,0.2-0.7,0.2-1c0-0.3,0.1-0.8,0.1-1.4c0-0.6,0-1.1-0.1-1.4c0-0.3-0.1-0.7-0.2-1c-0.3-1-1.1-1.5-2.2-1.5
			c-1.1,0-1.8,0.5-2.2,1.5c-0.1,0.3-0.2,0.7-0.2,1c0,0.3-0.1,0.8-0.1,1.4c0,0.6,0,1.1,0.1,1.4c0,0.3,0.1,0.7,0.2,1
			C437.7,563.1,438.4,563.6,439.5,563.6z"/>
		<path class="st0" d="M455.4,572.3c-0.5,0-1-0.1-1.6-0.2c-0.5-0.1-1-0.3-1.5-0.4c-0.5-0.2-0.9-0.4-1.3-0.7c-0.4-0.3-0.7-0.5-1-0.9
			c-0.1-0.2-0.1-0.3,0-0.4l2.1-2.1c0.1-0.1,0.3-0.1,0.4,0c0.4,0.4,0.9,0.7,1.4,0.9c0.5,0.2,1,0.3,1.5,0.3c1,0,1.7-0.3,2.1-0.8
			c0.4-0.5,0.7-1.3,0.7-2.3v-1.2h0c-0.3,0.5-0.8,0.9-1.4,1.2c-0.6,0.3-1.3,0.4-2.2,0.4c-1.2,0-2.1-0.3-2.9-0.9
			c-0.8-0.6-1.4-1.4-1.8-2.5c-0.2-0.5-0.3-1-0.3-1.6c-0.1-0.5-0.1-1.2-0.1-1.9c0-0.8,0-1.4,0.1-1.9c0.1-0.5,0.2-1.1,0.3-1.6
			c0.4-1.1,1-2,1.8-2.5c0.8-0.6,1.8-0.9,2.9-0.9c0.9,0,1.6,0.1,2.2,0.4c0.6,0.3,1.1,0.7,1.4,1.2h0v-1c0-0.2,0.1-0.3,0.3-0.3h3.5
			c0.2,0,0.3,0.1,0.3,0.3v12.3C462.4,569.9,460.1,572.3,455.4,572.3L455.4,572.3L455.4,572.3z M456,562.8c0.6,0,1-0.1,1.3-0.4
			c0.3-0.3,0.6-0.6,0.7-1.1c0.1-0.3,0.2-0.6,0.2-0.9c0-0.3,0.1-0.7,0.1-1.1s0-0.8-0.1-1.1c0-0.3-0.1-0.6-0.2-0.9
			c-0.2-0.5-0.4-0.9-0.7-1.1c-0.3-0.3-0.8-0.4-1.3-0.4c-0.6,0-1,0.1-1.3,0.4c-0.3,0.3-0.6,0.6-0.8,1.1c-0.1,0.3-0.1,0.6-0.2,0.9
			c0,0.3-0.1,0.7-0.1,1.1s0,0.8,0.1,1.1c0,0.3,0.1,0.6,0.2,0.9c0.2,0.5,0.4,0.9,0.8,1.1C455,562.6,455.4,562.8,456,562.8z"/>
		<path class="st0" d="M467.6,550.5c-0.2,0-0.3-0.1-0.3-0.3v-2.8c0-0.2,0.1-0.3,0.3-0.3h3.5c0.2,0,0.3,0.1,0.3,0.3v2.8
			c0,0.2-0.1,0.3-0.3,0.3H467.6z M467.6,566.7c-0.2,0-0.3-0.1-0.3-0.3V553c0-0.2,0.1-0.3,0.3-0.3h3.5c0.2,0,0.3,0.1,0.3,0.3v13.5
			c0,0.2-0.1,0.3-0.3,0.3H467.6z"/>
		<path class="st0" d="M481.8,567.1c-1.5,0-2.7-0.2-3.8-0.7c-1.1-0.4-1.9-0.9-2.6-1.5c-0.1-0.1-0.1-0.3,0-0.4l1.9-2.1
			c0.1-0.1,0.3-0.1,0.4,0c0.6,0.5,1.3,0.9,2.1,1.1s1.5,0.4,2.2,0.4c0.7,0,1.3-0.1,1.6-0.4c0.4-0.3,0.5-0.6,0.5-1
			c0-0.3-0.1-0.6-0.4-0.8c-0.3-0.2-0.8-0.3-1.6-0.4l-1.6-0.2c-1.5-0.2-2.6-0.6-3.4-1.3c-0.8-0.7-1.2-1.7-1.2-3
			c0-1.4,0.5-2.5,1.5-3.3c1-0.8,2.4-1.2,4.3-1.2c1.2,0,2.3,0.2,3.2,0.5c1,0.3,1.8,0.7,2.4,1.3c0.1,0.1,0.1,0.3,0,0.4l-1.6,2
			c-0.1,0.1-0.3,0.2-0.4,0.1c-0.5-0.3-1.1-0.6-1.7-0.8c-0.7-0.2-1.4-0.3-2.1-0.3c-0.6,0-1,0.1-1.3,0.3c-0.3,0.2-0.4,0.5-0.4,0.8
			c0,0.3,0.1,0.6,0.4,0.8s0.8,0.3,1.6,0.4l1.5,0.2c1.7,0.2,2.9,0.6,3.6,1.4c0.7,0.8,1.1,1.7,1.1,2.9c0,1.5-0.6,2.6-1.6,3.5
			C485.4,566.6,483.8,567.1,481.8,567.1L481.8,567.1L481.8,567.1z"/>
		<path class="st0" d="M497,566.9c-1.6,0-2.8-0.4-3.5-1.1c-0.7-0.8-1-1.9-1-3.5v-6.4c0-0.1-0.1-0.2-0.2-0.2h-0.9
			c-0.2,0-0.3-0.1-0.3-0.3V553c0-0.2,0.1-0.3,0.3-0.3h0.9c0.1,0,0.2-0.1,0.2-0.2v-3.8c0-0.2,0.1-0.3,0.3-0.3h3.5
			c0.2,0,0.3,0.1,0.3,0.3v3.8c0,0.1,0.1,0.2,0.2,0.2h1.8c0.2,0,0.3,0.1,0.3,0.3v2.4c0,0.2-0.1,0.3-0.3,0.3h-1.8
			c-0.1,0-0.2,0.1-0.2,0.2v6.2c0,0.5,0.1,0.9,0.3,1.1c0.2,0.2,0.5,0.3,1,0.3h0.7c0.2,0,0.3,0.1,0.3,0.3v2.8c0,0.2-0.1,0.3-0.3,0.3
			L497,566.9L497,566.9z"/>
		<path class="st0" d="M503.3,550.5c-0.2,0-0.3-0.1-0.3-0.3v-2.8c0-0.2,0.1-0.3,0.3-0.3h3.5c0.2,0,0.3,0.1,0.3,0.3v2.8
			c0,0.2-0.1,0.3-0.3,0.3H503.3z M503.3,566.7c-0.2,0-0.3-0.1-0.3-0.3V553c0-0.2,0.1-0.3,0.3-0.3h3.5c0.2,0,0.3,0.1,0.3,0.3v13.5
			c0,0.2-0.1,0.3-0.3,0.3H503.3z"/>
		<path class="st0" d="M517.8,567.1c-1.5,0-2.8-0.3-3.8-1c-1.1-0.7-1.8-1.7-2.2-3c-0.2-0.4-0.3-0.9-0.3-1.5
			c-0.1-0.5-0.1-1.2-0.1-1.9c0-0.7,0-1.4,0.1-1.9c0.1-0.5,0.2-1,0.3-1.5c0.4-1.3,1.2-2.3,2.2-3c1.1-0.7,2.3-1,3.8-1
			c1.2,0,2.3,0.2,3.2,0.7c0.9,0.5,1.6,1.1,2.1,1.9c0.1,0.2,0.1,0.3-0.1,0.4l-2.5,1.7c-0.2,0.1-0.3,0.1-0.4-0.1
			c-0.3-0.4-0.6-0.7-1-0.9c-0.3-0.2-0.8-0.3-1.3-0.3c-0.5,0-1,0.1-1.4,0.4c-0.4,0.3-0.6,0.6-0.8,1.1c-0.1,0.3-0.2,0.6-0.2,1
			c0,0.4-0.1,0.8-0.1,1.4c0,0.6,0,1.1,0.1,1.4c0,0.4,0.1,0.7,0.2,1c0.2,0.5,0.4,0.9,0.8,1.1c0.4,0.3,0.8,0.4,1.4,0.4
			c0.5,0,0.9-0.1,1.3-0.3c0.3-0.2,0.7-0.5,1-0.9c0.1-0.2,0.3-0.2,0.4-0.1l2.5,1.7c0.1,0.1,0.2,0.3,0.1,0.4c-0.5,0.8-1.2,1.4-2.1,1.9
			C520.1,566.8,519,567.1,517.8,567.1z"/>
		<path class="st0" d="M542,567.1c-0.8,0-1.5-0.1-2.3-0.2c-0.7-0.1-1.4-0.3-2.1-0.6c-0.7-0.2-1.3-0.5-1.8-0.9c-0.5-0.3-1-0.7-1.4-1
			c-0.2-0.2-0.2-0.3,0-0.5l2.2-2.5c0.1-0.2,0.3-0.2,0.4,0c0.7,0.5,1.4,1,2.3,1.4c0.9,0.4,1.8,0.6,2.9,0.6c1,0,1.8-0.2,2.4-0.7
			c0.5-0.4,0.8-1,0.8-1.7c0-0.6-0.2-1.1-0.6-1.4c-0.4-0.4-1.2-0.6-2.4-0.8l-1-0.1c-2-0.3-3.6-0.9-4.6-1.8s-1.6-2.3-1.6-4.1
			c0-0.9,0.2-1.7,0.5-2.5c0.3-0.7,0.8-1.4,1.4-1.9s1.3-0.9,2.2-1.2c0.9-0.3,1.8-0.4,2.9-0.4c1.3,0,2.6,0.2,3.7,0.6
			c1.2,0.4,2.2,0.9,3,1.5c0.2,0.1,0.2,0.3,0.1,0.4l-1.8,2.6c-0.1,0.2-0.2,0.2-0.4,0.1c-0.8-0.5-1.5-0.9-2.2-1.1
			c-0.7-0.3-1.5-0.4-2.3-0.4c-0.9,0-1.5,0.2-2,0.6c-0.4,0.4-0.7,0.9-0.7,1.5c0,0.6,0.2,1,0.7,1.4c0.5,0.4,1.3,0.6,2.4,0.8l1,0.1
			c2,0.3,3.6,0.9,4.6,1.8c1,1,1.6,2.3,1.6,4.1c0,0.9-0.2,1.7-0.5,2.5c-0.3,0.8-0.8,1.4-1.5,2c-0.6,0.5-1.5,1-2.4,1.3
			C544.4,566.9,543.3,567.1,542,567.1L542,567.1L542,567.1z"/>
		<path class="st0" d="M559.9,567.1c-1.6,0-2.9-0.3-4-1s-1.8-1.7-2.2-3c-0.2-0.4-0.3-0.9-0.4-1.5c-0.1-0.5-0.1-1.2-0.1-1.9
			c0-0.7,0-1.4,0.1-1.9c0.1-0.5,0.2-1,0.3-1.5c0.4-1.3,1.1-2.3,2.2-2.9c1.1-0.7,2.3-1,3.8-1c1.5,0,2.9,0.3,3.9,1
			c1,0.7,1.8,1.7,2.2,2.9c0.1,0.2,0.1,0.5,0.2,0.7c0.1,0.3,0.1,0.6,0.1,0.9c0,0.3,0.1,0.7,0.1,1.1c0,0.4,0,1,0,1.6
			c0,0.2-0.1,0.3-0.3,0.3h-8.5c-0.1,0-0.2,0.1-0.2,0.2c0,0.3,0.1,0.5,0.2,0.8c0.2,0.6,0.5,1.1,1,1.4c0.5,0.3,1.1,0.5,1.9,0.5
			c0.7,0,1.3-0.1,1.8-0.3c0.5-0.2,1-0.5,1.4-0.9c0.2-0.1,0.3-0.1,0.4,0l1.9,1.8c0.2,0.1,0.2,0.3,0,0.4c-0.7,0.7-1.5,1.3-2.5,1.7
			C562.3,566.9,561.2,567.1,559.9,567.1L559.9,567.1L559.9,567.1z M562,558.2c0.1,0,0.2-0.1,0.2-0.2c0-0.2,0-0.4,0-0.6
			s-0.1-0.3-0.1-0.5c-0.2-0.5-0.4-0.9-0.9-1.1c-0.4-0.3-0.9-0.4-1.5-0.4c-0.6,0-1.1,0.1-1.5,0.4c-0.4,0.3-0.7,0.6-0.9,1.1
			c0,0.2-0.1,0.3-0.1,0.5c0,0.2,0,0.4,0,0.6c0,0.1,0.1,0.2,0.2,0.2H562L562,558.2z"/>
		<path class="st0" d="M570.7,566.7c-0.2,0-0.3-0.1-0.3-0.3V553c0-0.2,0.1-0.3,0.3-0.3h3.5c0.2,0,0.3,0.1,0.3,0.3v1.2h0
			c0.3-0.6,0.8-1,1.4-1.3c0.6-0.3,1.4-0.5,2.2-0.5c0.5,0,0.9,0.1,1.3,0.2c0.4,0.1,0.8,0.4,1.1,0.6c0.1,0.1,0.2,0.3,0.1,0.4l-1.6,3
			c-0.1,0.1-0.2,0.1-0.4,0.1c-0.7-0.4-1.4-0.7-2-0.6c-0.8,0-1.3,0.3-1.6,0.8c-0.3,0.5-0.5,1.3-0.5,2.2v7.4c0,0.2-0.1,0.3-0.3,0.3
			H570.7L570.7,566.7z"/>
		<path class="st0" d="M588,566.7c-0.2,0-0.3-0.1-0.3-0.3l-5-13.5c-0.1-0.2,0-0.3,0.2-0.3h3.7c0.2,0,0.3,0.1,0.4,0.3l2.7,8.3h0.1
			l2.6-8.3c0.1-0.2,0.2-0.3,0.4-0.3h3.6c0.2,0,0.3,0.1,0.2,0.3l-5,13.5c-0.1,0.2-0.2,0.3-0.3,0.3H588L588,566.7z"/>
		<path class="st0" d="M600.3,550.5c-0.2,0-0.3-0.1-0.3-0.3v-2.8c0-0.2,0.1-0.3,0.3-0.3h3.5c0.2,0,0.3,0.1,0.3,0.3v2.8
			c0,0.2-0.1,0.3-0.3,0.3H600.3z M600.3,566.7c-0.2,0-0.3-0.1-0.3-0.3V553c0-0.2,0.1-0.3,0.3-0.3h3.5c0.2,0,0.3,0.1,0.3,0.3v13.5
			c0,0.2-0.1,0.3-0.3,0.3H600.3z"/>
		<path class="st0" d="M614.8,567.1c-1.5,0-2.8-0.3-3.8-1c-1.1-0.7-1.8-1.7-2.2-3c-0.2-0.4-0.3-0.9-0.3-1.5
			c-0.1-0.5-0.1-1.2-0.1-1.9c0-0.7,0-1.4,0.1-1.9c0.1-0.5,0.2-1,0.3-1.5c0.4-1.3,1.2-2.3,2.2-3c1.1-0.7,2.3-1,3.8-1
			c1.2,0,2.3,0.2,3.2,0.7c0.9,0.5,1.6,1.1,2.1,1.9c0.1,0.2,0.1,0.3-0.1,0.4l-2.5,1.7c-0.2,0.1-0.3,0.1-0.4-0.1
			c-0.3-0.4-0.6-0.7-1-0.9c-0.3-0.2-0.8-0.3-1.3-0.3c-0.5,0-1,0.1-1.4,0.4c-0.4,0.3-0.7,0.6-0.8,1.1c-0.1,0.3-0.2,0.6-0.2,1
			c0,0.4-0.1,0.8-0.1,1.4c0,0.6,0,1.1,0.1,1.4c0,0.4,0.1,0.7,0.2,1c0.2,0.5,0.4,0.9,0.8,1.1c0.4,0.3,0.8,0.4,1.4,0.4
			c0.5,0,0.9-0.1,1.3-0.3c0.3-0.2,0.7-0.5,1-0.9c0.1-0.2,0.3-0.2,0.4-0.1l2.5,1.7c0.1,0.1,0.2,0.3,0.1,0.4c-0.5,0.8-1.2,1.4-2.1,1.9
			C617.1,566.8,616,567.1,614.8,567.1z"/>
		<path class="st0" d="M630.2,567.1c-1.6,0-2.9-0.3-4-1s-1.8-1.7-2.2-3c-0.2-0.4-0.3-0.9-0.4-1.5c-0.1-0.5-0.1-1.2-0.1-1.9
			c0-0.7,0-1.4,0.1-1.9c0.1-0.5,0.2-1,0.3-1.5c0.4-1.3,1.1-2.3,2.2-2.9c1.1-0.7,2.3-1,3.9-1c1.5,0,2.9,0.3,3.9,1
			c1,0.7,1.8,1.7,2.2,2.9c0.1,0.2,0.1,0.5,0.2,0.7s0.1,0.6,0.1,0.9c0,0.3,0.1,0.7,0.1,1.1c0,0.4,0,1,0,1.6c0,0.2-0.1,0.3-0.3,0.3
			h-8.5c-0.1,0-0.2,0.1-0.2,0.2c0,0.3,0.1,0.5,0.2,0.8c0.2,0.6,0.5,1.1,1,1.4c0.5,0.3,1.1,0.5,1.9,0.5c0.7,0,1.3-0.1,1.8-0.3
			c0.5-0.2,1-0.5,1.4-0.9c0.2-0.1,0.3-0.1,0.4,0l1.9,1.8c0.2,0.1,0.2,0.3,0,0.4c-0.7,0.7-1.5,1.3-2.5,1.7
			C632.6,566.9,631.5,567.1,630.2,567.1L630.2,567.1L630.2,567.1z M632.3,558.2c0.1,0,0.2-0.1,0.2-0.2c0-0.2,0-0.4,0-0.6
			c0-0.2-0.1-0.3-0.1-0.5c-0.2-0.5-0.4-0.9-0.9-1.1c-0.4-0.3-0.9-0.4-1.5-0.4c-0.6,0-1.1,0.1-1.5,0.4c-0.4,0.3-0.7,0.6-0.9,1.1
			c0,0.2-0.1,0.3-0.1,0.5s0,0.4,0,0.6c0,0.1,0.1,0.2,0.2,0.2H632.3L632.3,558.2z"/>
		<path class="st0" d="M646.2,567.1c-1.5,0-2.7-0.2-3.8-0.7c-1.1-0.4-1.9-0.9-2.6-1.5c-0.1-0.1-0.1-0.3,0-0.4l1.9-2.1
			c0.1-0.1,0.2-0.1,0.4,0c0.6,0.5,1.3,0.9,2.1,1.1c0.8,0.3,1.5,0.4,2.2,0.4c0.7,0,1.3-0.1,1.6-0.4c0.4-0.3,0.5-0.6,0.5-1
			c0-0.3-0.1-0.6-0.4-0.8c-0.3-0.2-0.8-0.3-1.6-0.4l-1.6-0.2c-1.5-0.2-2.6-0.6-3.4-1.3c-0.8-0.7-1.2-1.7-1.2-3
			c0-1.4,0.5-2.5,1.5-3.3c1-0.8,2.4-1.2,4.3-1.2c1.2,0,2.3,0.2,3.2,0.5c1,0.3,1.8,0.7,2.4,1.3c0.1,0.1,0.1,0.3,0,0.4l-1.6,2
			c-0.1,0.1-0.2,0.2-0.4,0.1c-0.5-0.3-1.1-0.6-1.7-0.8c-0.7-0.2-1.4-0.3-2.1-0.3c-0.6,0-1,0.1-1.3,0.3c-0.3,0.2-0.4,0.5-0.4,0.8
			c0,0.3,0.1,0.6,0.4,0.8c0.2,0.2,0.8,0.3,1.6,0.4l1.5,0.2c1.7,0.2,2.9,0.6,3.6,1.4c0.7,0.8,1.1,1.7,1.1,2.9c0,1.5-0.6,2.6-1.6,3.5
			C649.8,566.6,648.3,567.1,646.2,567.1L646.2,567.1L646.2,567.1z"/>
	</g>
	<g>
		<path class="st1" d="M360.8,318.6h-17.2v44.9h17.2V318.6z"/>
		<path class="st1" d="M360.8,263h-17.2v49.5h17.2V263z"/>
		<path class="st1" d="M359.3,223.6l-1.3-2.3c-0.8-1.3-1.6-2.6-2.4-4c-0.9-1.7-1.9-3.3-3-4.9c-1.1,1.6-2.1,3.2-3,4.9
			c-0.8,1.3-1.6,2.6-2.3,3.9l-2.2,4l-1.4,2.7v29.6h17.2v-31l-0.7-1.3L359.3,223.6L359.3,223.6z"/>
		<path class="st1" d="M393.2,383.7v19.6c0,19.7-13.9,36.1-32.4,40.1v-32.6h-17.2v32.6c-18.5-4-32.4-20.4-32.4-40.1v-19.6
			l-15.6,28.2l0.1,0.6c4.1,25.3,24,44.2,48.8,47.5l7.9,5.4l8-5.5c24.5-3.5,44.3-22.4,48.3-47.5l0.1-0.6L393.2,383.7L393.2,383.7
			L393.2,383.7z"/>
		<path class="st1" d="M354.8,183l-2-2.3l-0.7-0.8l-0.7-0.8c-1.1-1.2-2.2-2.3-3.3-3.5c-2.3-2.3-4.6-4.6-6.9-6.7
			c-2.4-2.1-4.7-4.1-7.1-6c-2.4-1.9-4.7-3.7-7.1-5.4c-2.3-1.7-4.7-3.2-6.9-4.7c-2.3-1.5-4.4-2.9-6.7-4.1c-2.2-1.2-4.3-2.4-6.2-3.4
			c-2-1.1-4-2-5.8-2.8c-3.7-1.7-6.9-3.2-9.6-4.1c-5.4-2-8.6-3-8.6-3s2.5,2.3,6.8,6c2.2,1.8,4.8,4.1,7.8,6.7c3,2.5,6.2,5.5,9.8,8.7
			c1.8,1.5,3.6,3.3,5.4,5.1c1.8,1.8,3.9,3.5,5.7,5.5c1.9,1.9,3.8,3.9,5.8,5.9c1.7,1.9,3.5,3.8,5.4,5.8c5.6,0.9,10.9,1.9,15.9,3.3
			l2.2,0.6l0.7,0.2l0.4,0.1l1.1,0.3l1.4,0.4l0.9,0.3l0.9-0.3l1.8-0.5L354.8,183L354.8,183L354.8,183z"/>
		<path class="st1" d="M356.4,181.7l0.1,0.1l0.9,1.1l1.7-0.4c5.3-1.4,10.9-2.5,16.9-3.4c1.7-1.8,3.5-3.6,5.1-5.4c2-2,4-4,5.9-5.9
			c1.8-2,3.9-3.7,5.7-5.5c1.8-1.8,3.6-3.5,5.4-5c3.6-3.2,6.8-6.2,9.9-8.7c3-2.5,5.6-4.9,7.8-6.6c4.4-3.6,6.9-5.9,6.9-5.9
			s-3.2,1-8.6,2.9c-2.7,0.9-6,2.4-9.6,4c-1.8,0.9-3.8,1.7-5.8,2.8c-2,1.1-4.1,2.2-6.3,3.4c-2.2,1.2-4.4,2.6-6.7,4
			c-2.3,1.5-4.7,2.9-7,4.6c-2.3,1.7-4.7,3.5-7.1,5.3c-2.4,1.9-4.7,3.9-7.1,6c-2.4,2.1-4.6,4.4-7,6.6c-1.1,1.1-2.2,2.3-3.3,3.5
			l1.4,1.5L356.4,181.7L356.4,181.7L356.4,181.7z"/>
		<path class="st1" d="M390.1,269.1c-0.2-5-0.9-10.5-1.8-16.2c-1-5.7-2.4-11.7-4.3-17.8c-1.5-4.7-3.3-9.5-5.4-14.3l-9.3-4.5
			c-1.2-0.5-2.4-1.1-3.6-1.6c-2-0.9-4.1-1.8-6.2-2.6l-3-1.2l-2.3-0.9l-0.8-0.3l0.5,0.8c1.3,1.9,2.5,3.8,3.6,5.8
			c0.7,1.3,1.5,2.6,2.3,4c0.7,1.3,1.4,2.7,2.2,4c1.5,2.7,2.7,5.4,4.1,8c1.3,2.7,2.5,5.4,3.7,8c2.3,5.3,4.3,10.6,6.1,15.7
			c1.7,5.1,3.3,10,4.4,14.5c2.5,9.1,4,17,5,22.6c0.4,2.8,0.8,5,0.9,6.6c0.2,1.5,0.3,2.4,0.3,2.4s0.3-0.8,0.7-2.3
			c0.4-1.5,1-3.7,1.5-6.6c0.5-2.9,1-6.4,1.3-10.4C390.2,278.7,390.3,274.1,390.1,269.1"/>
		<path class="st1" d="M352,209.6l-1,0.4l-2.7,1.1l-3,1.2c-2.1,0.8-4.2,1.7-6.2,2.6c-1.2,0.5-2.4,1.1-3.5,1.5l-9,4.3
			c-2.1,4.7-3.9,9.5-5.4,14.2c-2,6-3.4,12-4.5,17.7c-1,5.7-1.7,11.1-1.9,16.2c-0.3,5-0.2,9.6,0,13.7c0.2,4.1,0.7,7.6,1.2,10.5
			c0.4,2.9,1,5.1,1.4,6.6c0.4,1.5,0.7,2.3,0.7,2.3s0.1-0.8,0.3-2.3c0.2-1.5,0.6-3.7,1-6.5c1-5.6,2.6-13.4,5.1-22.6
			c1.2-4.6,2.8-9.4,4.6-14.5c1.8-5.1,3.9-10.3,6.2-15.6c1.2-2.7,2.5-5.3,3.7-8c1.4-2.6,2.7-5.3,4.2-8c0.7-1.3,1.5-2.7,2.2-4
			c0.8-1.3,1.6-2.6,2.3-3.9c1.1-2,2.4-3.8,3.6-5.7L352,209.6L352,209.6L352,209.6L352,209.6z"/>
		<path class="st2" d="M347.7,185.1l-1.1-0.3l-1.3-0.3c-4.4-1.2-8.8-2.1-13.3-2.8l-1.6-0.3l-1.6-0.3c-2-0.3-4.1-0.6-6.1-0.8
			c-6.4-0.8-12.7-1-18.6-1l-2.7,0c-6.7,0.2-13.1,0.7-18.9,1.6c-5.8,0.8-11.1,2-15.7,3.2c-4.6,1.2-8.5,2.6-11.7,3.8
			c-3.2,1.2-5.6,2.4-7.2,3.1c-1.6,0.8-2.5,1.3-2.5,1.3s1-0.1,2.7-0.2c1.8-0.2,4.4-0.2,7.7-0.4c2.1,0,4.4-0.1,7-0.1
			c5.7,0,12.5,0.2,20,0.7c5.5,0.3,11.4,1.1,17.6,1.9c6.1,0.9,12.4,2,19,3.4c1.9-1,3.8-2,5.8-3c1.2-0.5,2.4-1.1,3.7-1.7
			c2.3-1.1,4.7-2.2,7.2-3.2l0,0l1-0.4l1-0.4l1.1-0.4c1.8-0.7,3.7-1.4,5.6-2l1.8-0.6l0.7-0.3l1.1-0.4l0.1-0.1L347.7,185.1
			L347.7,185.1L347.7,185.1z"/>
		<path class="st2" d="M454,264.2c-1.7-2.9-4.1-6.3-6.9-10.1c-1.4-1.9-2.8-4-4.5-6c-1.7-2-3.5-4.2-5.4-6.4c-1.8-2.3-4-4.4-6.1-6.7
			c-2.2-2.2-4.4-4.7-6.9-6.9c-2.5-2.3-5-4.6-7.7-6.9c-2.7-2.2-5.6-4.4-8.5-6.7c-3-2.2-6.1-4.3-9.2-6.4c-3.2-2.1-6.5-4-9.8-6
			c-1.3-0.7-2.7-1.5-4.1-2.2c-3.2,0.7-6.5,1.5-9.4,2.3c-1.2,0.4-2.4,0.7-3.7,1l-0.2,0.1l-0.8,0.2l-1,0.3c-1.5,0.4-2.9,0.8-4.4,1.3
			l-5,1.6c-1.8,0.7-3.4,1.2-4.9,1.8c1.6,0.6,3.2,1.3,4.8,1.9c3.3,1.3,6.6,2.8,9.9,4.2c2.4,1.1,4.8,2.3,7.1,3.4l1.5,0.7l1.1,0.5
			l0.4,0.2c3,1.6,6,3.2,9,4.7c3,1.7,6,3.5,9,5.2c2.9,1.8,5.7,3.6,8.6,5.3c2.8,1.8,5.5,3.6,8.1,5.4c2.7,1.7,5.1,3.6,7.6,5.3
			c2.5,1.7,4.9,3.3,7,5.1c4.5,3.3,8.6,6.4,12.2,9.3c3.6,2.8,6.8,5.2,9.4,7.4c5.2,4.2,8.3,6.5,8.3,6.5S457.4,270,454,264.2"/>
		<path class="st2" d="M456.8,191c-1.6-0.8-4-2-7.2-3.1c-3.2-1.2-7.1-2.6-11.7-3.8c-4.6-1.2-9.8-2.3-15.6-3.2
			c-5.8-0.9-12.2-1.4-18.9-1.6l-2.7,0c-6,0-12.2,0.3-18.6,1c-1.7,0.2-3.4,0.4-5.1,0.7l-1.6,0.2l-1.6,0.3c-4.7,0.8-9.5,1.7-14.2,3
			l-0.8,0.2l-1.1,0.3l-1.1,0.3l-0.6,0.2l-1.9,0.5l-0.3,0.1l-1.5,0.5c-1.4,0.4-2.8,0.9-4.2,1.3l-2,0.6l-1.8,0.6l-1.8,0.7l-2.9,1.1
			l-1,0.4l-1,0.4l-0.6,0.2c-3.7,1.5-7.2,3.2-10.8,4.8c-1.2,0.6-2.4,1.2-3.6,1.8l-1.4,0.7l-1.4,0.7c-1.4,0.7-2.7,1.5-4,2.2
			c-3.4,2-6.7,3.9-9.8,6c-3.1,2.2-6.2,4.2-9.2,6.4c-2.9,2.3-5.8,4.5-8.5,6.7c-2.7,2.3-5.2,4.6-7.7,6.9c-2.5,2.2-4.7,4.6-6.9,6.9
			c-2.2,2.3-4.3,4.4-6.1,6.7c-1.9,2.2-3.7,4.4-5.4,6.4c-1.7,2-3.1,4.1-4.5,6c-2.7,3.8-5.1,7.2-6.8,10.1c-3.5,5.8-5.3,9.2-5.3,9.2
			s3.1-2.3,8.3-6.5c2.5-2.1,5.8-4.6,9.4-7.4c3.5-2.9,7.7-5.9,12.2-9.3c2.2-1.7,4.6-3.4,7-5.1c2.5-1.7,4.8-3.6,7.6-5.3
			c2.6-1.7,5.3-3.5,8.1-5.3c2.8-1.7,5.7-3.5,8.6-5.3c3-1.7,6-3.4,9-5.1c3.1-1.6,6.2-3.3,9.3-4.9h0l1.4-0.7l1.5-0.7
			c2.2-1.1,4.5-2.1,6.7-3.2c3.3-1.4,6.5-2.9,9.9-4.2c1.6-0.6,3.2-1.3,4.8-1.9l0.5-0.2l1-0.4l0,0l0.9-0.4l0.6-0.2l1.6-0.5l0.7-0.2
			l1-0.3l1.7-0.6l2.4-0.9c1.7-0.5,3.4-1.1,5.1-1.6c1.3-0.4,2.6-0.8,3.8-1.2l1-0.3l1-0.3c1.4-0.4,2.8-0.8,4.2-1.2
			c2.4-0.6,4.9-1.2,7.3-1.7l1.5-0.4l1.2-0.3l0.3-0.1c6.5-1.4,12.9-2.5,19-3.4c6.2-0.8,12.1-1.5,17.6-1.9c7.5-0.6,14.4-0.7,20-0.7
			c2.6,0,4.9,0,7,0.1c3.3,0.1,5.9,0.2,7.7,0.4c1.8,0.1,2.8,0.2,2.8,0.2S458.4,191.8,456.8,191"/>
		<path class="st2" d="M367,340.8L367,340.8l0,29.4h-29.5v-29.4l-132.6-81.2c0,2.1,1,4,2.6,5.2L320.3,348v53.3
			c0,11.7,6.3,22.7,16.7,27.9l0.2,0.1l0.2,0.1v-25.1H367v25.1l0.2-0.1l0.2-0.1c10.4-5.3,16.7-16.2,16.7-27.9V348L497,264.8
			c1.7-1.2,2.6-3.2,2.6-5.2L367,340.8L367,340.8z M337.5,379.8H367v14.9h-29.5V379.8z"/>
	</g>
</g>
</svg>
