<?xml version="1.0" encoding="utf-8"?>
<!-- Generator: Adobe Illustrator 24.0.1, SVG Export Plug-In . SVG Version: 6.00 Build 0)  -->
<svg version="1.1" id="Layer_1" xmlns="http://www.w3.org/2000/svg" xmlns:xlink="http://www.w3.org/1999/xlink" x="0px" y="0px"
	 viewBox="0 0 704.5 710" style="enable-background:new 0 0 704.5 710;" xml:space="preserve">
<style type="text/css">
	.st0{fill:#8D3C43;}
</style>
<title>A559FDA9-A4D7-4945-829E-0BAD8C274FDC</title>
<g>
	<path class="st0" d="M635.8,175.7c0-9.3-0.3-19-12.8-19.2c-13.5-0.3-13.5,10-13.5,19.7c-0.1,15.2,0.3,30.4-0.3,45.6
		c-0.8,18.9-13.5,35.4-31,36.2c-32,1.4-64,0.4-95.8,0.4c-1.4-3.5,0.6-5.5,1.6-7.7c13.7-30.6,7.1-62.1-17.2-81.1
		c-23.1-18.1-55.6-18.3-78.9-0.6c-24.7,18.8-32.2,50.6-18.1,80.7c4.6,9.7,0.2,9.3-6.8,9.3c-41.4-0.1-82.8,0.1-124.2-0.1
		c-24.9-0.2-40.2-15.5-40.6-40.3c-0.3-14.8-0.2-29.6,0-44.3c0.1-9.2-1-17.7-12.7-17.9c-12.5-0.2-13.4,8.8-13.4,18.4
		c0.2,31.3,0.3,62.5,0.1,93.8c-0.1,24.4-15.9,41.9-37.8,42.4c-22.1,0.5-38.6-17.3-39-42.4c-0.2-11.4,0.1-22.8-0.3-34.2
		c-0.3-8.3-4.4-13.8-13.3-13.6c-8.2,0.2-12.5,5.5-12.6,13.1c-0.2,16.4-1.7,33,1.3,49.3c5.5,30,31.1,52.6,60.7,53.7
		c30.2,1.1,56.8-18.7,64.7-48.5c1.2-4.3,2-8.8,3.5-15.1c19.7,14.3,41.5,12,63,12.1c29.6,0.1,59.2,0,88.7,0
		c71.8,0,143.7,0.2,215.5-0.1c42.2-0.2,68.8-27.1,69.2-69.1C635.9,202.8,635.8,189.2,635.8,175.7z M426.2,259
		c-21.3-0.3-38.6-18.3-37.9-39.3c0.7-21.3,18.5-37.9,40-37.3c20.7,0.6,37.5,18,37.2,38.8C465.2,242.5,447.8,259.3,426.2,259z"/>
	<path class="st0" d="M488.9,432.4c-1.3-32.4-29.7-58.6-61.5-59.5c-33.5-1-61.3,23.2-66.1,57.4c-4.3,31.7,17.1,62.3,49,70.1
		c18.2,4.4,35,0.3,53.5-10.1c0,17.8,0,33.3,0,48.9c0,8.4,3.5,14,12.5,14.2c8.8,0.2,13.1-4.7,13.1-13.4
		C489.4,504.1,490.4,468.2,488.9,432.4z M424.3,476.2c-21-0.6-37.2-17.5-37.3-38.6c0-21.6,17.2-39,38.5-38.8
		c21.1,0.2,38.5,18.1,38.2,39.3C463.4,459.3,445.3,476.8,424.3,476.2z"/>
	<path class="st0" d="M95.3,421.6c0,19.3,0,37.4,0,55.5c0,4.2,0.1,8.5-0.3,12.7c-0.9,7.8-5.1,12.4-13.4,12.1
		C74,501.7,69.4,497,69.3,490c-0.3-35-0.2-70.1,0-105.1c0-5.5,3.4-9.6,8.8-11.3c6.5-2,11.3,1.2,15.7,5.6
		c22.3,22.5,44.7,44.9,67.1,67.3c2.8,2.8,4.8,7,11.2,7.4c0-19.1,0-37.9,0-56.7c0-4.2-0.2-8.5,0.3-12.7c0.9-7.3,5.4-11.4,12.8-11.3
		c7.4,0.1,12.4,4.2,12.4,11.6c0.3,35.1,0.2,70.1,0.1,105.2c0,5.7-2.9,9.7-8.3,11.5c-6.4,2.1-11.4-0.7-15.9-5.2
		c-21.7-21.9-43.5-43.8-65.3-65.5C105.1,427.5,102.7,423.2,95.3,421.6z"/>
	<path class="st0" d="M342.3,425.2c-8.7-43.3-56.3-65.6-94.3-43.9c-30.1,17.1-41.6,54.9-26,85.6c15.8,31,52.3,43.7,84.3,29.6
		c4.2-1.9,8.8-8.3,13.7-0.2c3.5,5.9,9.4,7.1,15.6,5c6.6-2.2,8.4-7.8,8.4-14.1c0.1-8.4,0-16.9,0-25.3
		C343.9,449.5,344.7,437.3,342.3,425.2z M278.9,476.2c-20.6-0.3-37.7-17.6-37.9-38.3c-0.2-21.2,17.3-39.1,38.4-39.1
		c21.3-0.1,38.4,17.3,38.3,38.9C317.5,459.4,300.2,476.6,278.9,476.2z"/>
	<path class="st0" d="M506.8,414.4c0-9.3-0.1-18.6,0-27.9c0.1-8.6,4.6-13.7,13.3-13.4c8.1,0.2,12.2,5.3,12.3,13.2
		c0.2,15.6,0,31.2,0.1,46.9c0.2,22.7,12.4,38.6,32.2,42.4c18.1,3.5,34.7-6.6,43.1-27.1c3.5-8.6,9-12.5,17.6-9.8
		c9.5,3,9.3,10.5,6.8,18.7c-8.8,28.8-38.4,48-68.8,44.4c-29.6-3.5-54.5-29.5-56.5-59.5c-0.6-9.2-0.1-18.6-0.1-27.9
		C506.9,414.4,506.9,414.4,506.8,414.4z"/>
	<path class="st0" d="M350,169.6c-1,7.7-5.5,12.4-13.2,12.1c-7.6-0.3-12.4-5.2-12.2-13.1c0.3-7.8,5.1-12.3,13-12
		C345.7,156.8,349.6,161.6,350,169.6z"/>
	<path class="st0" d="M299.1,156.4c7.8,1,12.4,5.4,12.1,13.2c-0.3,7.8-5.5,12.4-13.1,12.1c-7.6-0.3-12.2-5.2-12-13.2
		C286.4,160.4,291.4,156.8,299.1,156.4z"/>
	<path class="st0" d="M570.5,156.4c7.8,0.4,12.7,4.2,12.9,12.2c0.3,8-4.4,12.8-12,13.1c-7.7,0.3-12.8-4.5-13.1-12.2
		C558.1,161.8,562.7,157.3,570.5,156.4z"/>
</g>
</svg>
