<?xml version="1.0" encoding="utf-8"?>
<!-- Generator: Adobe Illustrator 24.0.1, SVG Export Plug-In . SVG Version: 6.00 Build 0)  -->
<svg version="1.1" id="Layer_1" xmlns="http://www.w3.org/2000/svg" xmlns:xlink="http://www.w3.org/1999/xlink" x="0px" y="0px"
	 viewBox="0 0 1041 1000" style="enable-background:new 0 0 1041 1000;" xml:space="preserve">
<g>
	<path d="M4930.2-441.4c166.6,99.2,331.7,197.5,495.9,295.3c0,138,0,273.3,0,406.6c-41,25-80.5,49.4-120.4,73.1
		c-30.1,17.9-61,34.5-91,52.6c-50.6,30.5-100.3,62.5-151.1,92.6c-45.1,26.7-91.3,51.8-137.4,77.8
		c-166-102.8-335.9-197.9-499.4-299.5c0-135.6,0-267.2,0-401.3c20.5-12.1,42.2-24.7,63.8-37.6c53.8-32.2,107.5-64.7,161.4-96.8
		c30.1-18,60.8-35.1,90.8-53.2c37.7-22.8,74.6-46.7,112.4-69.1C4880-415.5,4905.8-428.2,4930.2-441.4z M4909.2,160.4
		c-148.3-89-296.7-178.2-445.5-267.5c-6.5,34.4-8.3,225-3.5,352.3c24.4,13.8,48.9,26.3,72,41.1c64.5,41.1,131.4,78.1,197.4,116.7
		c36.9,21.6,72.2,45.9,108.9,67.9c22.2,13.3,45.6,24.5,70.7,37.7C4909.2,392.5,4909.2,278.8,4909.2,160.4z M5218.2,351.6
		c64.1-41.9,128.1-73.4,184.5-112.6c0-116.2,0-227.6-0.1-339c0-1.1-0.8-2.4-1.5-3.4c-0.8-1-1.9-1.7-5.2-4.4
		c-59.3,35.8-119.4,72.1-178.5,107.9c0,40,0,77.5,0,116c-24.1,24.2-55.6,36.6-87.9,55.8c-3.4-41.7,2.6-79.7-4.3-118.7
		c-63.2,38-123.3,74.1-180.6,108.6c0,117.1,0,230.8,0,350c63.7-36.9,123.8-71.7,184.2-106.6c0-40.1,0-80.3,0-121
		c26.9-19.8,55.8-36.1,89.4-54.5C5218.2,272,5218.2,308.9,5218.2,351.6z M5113.5,25.1c-152.6-90-303.8-179.2-457.9-270.1
		c-29.2,17.1-59.5,34.3-89.4,52.4c-30.7,18.6-61,38-92.5,57.7c152.8,91,302.7,180.2,454.9,270.7C4987.3,100.7,5048.5,64,5113.5,25.1
		z M5383.1-139.8c-48.5-22.8-88.6-52.1-132.7-75.2c-51-26.7-98.7-59.9-147.9-90.1c-34.2-21-68.4-42-102.9-62.5
		c-22.5-13.3-45.5-25.8-68.7-38.8c-65.2,31-123.1,70.8-185.1,107.3c154.7,93.5,305.6,184.8,453.7,274.3c33.4-20,64.2-37.1,93.5-56.5
		C5321.7-100.3,5354.8-113.1,5383.1-139.8z"/>
	<path d="M4960.5,300.7c37.1-23.2,72.3-45.2,107.7-67.2c0.5,0.4,1.7,1.1,2.4,2.1c0.7,1,1.4,2.3,1.4,3.4
		c0.1,61.6,0.1,123.2,0.1,183.2c-38,23-74.2,45-111.5,67.5C4960.5,427.1,4960.5,364.3,4960.5,300.7z"/>
	<path d="M5394.6,45.8c-29.9,17.4-57.7,33.6-87.4,50.9c0-46,0-89.9,0-136.8c25.4-15.8,53.1-33,84.4-52.5c5.6,23.9,2.2,46,2.8,67.6
		C5395.1-2.3,5394.6,20.5,5394.6,45.8z"/>
	<path d="M4842.6-336c33.9-19.6,63-36.4,90.9-52.6c34.4,20.9,67.2,40.9,104.7,63.7c-33.4,21-62.4,39.2-89,55.9
		C4914.3-290.8,4880.3-312.2,4842.6-336z"/>
</g>
<g>
	<path d="M513.7,451.7c105,73.9,138.3,113.7,160.5,194.1c-23.6,7.6-47.3,15.3-73.7,23.9c-5.5-10.6-10.4-20.2-15.3-29.8
		c-47.6-92.8-126.9-135.6-227.9-135.9c-104-0.3-181.4,48.5-226.2,143.4c-11.1,23.5-19.4,50.5-20.6,76.2c-2.9,64.1-1,128.5-1,199
		c63.2,0,125.7,0,188.3,0c61.6,0,123.2,0,186.2,0c0,27.9,0,50.4,0,76.4c-151.8,0-303.8,0-464,0c4.3-109.2,0.8-219.5,15.1-327.5
		c13.2-99.5,80.2-169.1,172.7-218.9c-74.5-60.1-108.1-136.7-98.1-229.6c6.8-62.5,34.1-116.2,82.6-157.2
		c109.9-93,254.9-84.6,351,15.9C621,163,652.6,334.9,513.7,451.7z M525.9,252.2c0.2-93-72-166.6-164.5-167.9
		c-92.7-1.3-169.8,74.7-169.8,167.4c0.1,94.1,74.7,167.9,169.2,167.2C454,418.2,525.7,345.8,525.9,252.2z"/>
	<path d="M954.4,520.7c23.8,17.6,43.7,32.4,66.6,49.2C916.9,707.8,814.5,843.5,710.5,981.3c-69.7-53.1-137.8-105-208.3-158.8
		c16.5-22.1,32.1-43,49.7-66.5c48,35.9,94.1,70.5,143,107.1C781.6,748.7,866.8,636.3,954.4,520.7z"/>
</g>
</svg>
