<?xml version="1.0" encoding="utf-8"?>
<!-- Generator: Adobe Illustrator 24.0.1, SVG Export Plug-In . SVG Version: 6.00 Build 0)  -->
<svg version="1.1" id="Layer_1" xmlns="http://www.w3.org/2000/svg" xmlns:xlink="http://www.w3.org/1999/xlink" x="0px" y="0px"
	 viewBox="0 0 1017.7 1000" style="enable-background:new 0 0 1017.7 1000;" xml:space="preserve">
<g>
	<path d="M559.9,597.5c-111.8,24.9-176.5-39-148.5-145.3c-27.6-27.5-56.6-57-86.4-85.6c-5.6-5.4-14.4-8.1-22.3-10.5
		c-8.1-2.4-17.1-2-25.2-4.5c-35.4-10.8-56.9-40.7-53.6-73.7c3.1-31.2,30.5-58.7,61.9-62c37.2-3.9,73.8,16.3,76.2,52.9
		c2.6,40.1,27.7,60.2,50.8,84.6c14.8,15.6,28.7,32,42.7,47.6c15.5-3,26.4-5.5,37.4-7.2c72.6-11.2,134.5,51,119.8,123
		c-4.7,23-1.3,38,16.2,52.6c15.3,12.9,29.1,27.6,42.8,42.4c16.8,18.2,34.3,30.3,61.5,33.2c43.2,4.5,63.8,36.4,58.7,79.5
		c-3.8,32.1-35.3,59.7-68.4,59.7c-35.5,0-67.2-29-70.1-67.9c-1.3-17.1-6.1-29.4-18.2-41.2C609.5,650.2,585.2,623.8,559.9,597.5z"/>
	<path d="M846.2,596.4c15.2-16.8,29.5-32.5,47.7-52.6c28.4,33.7,59.2,62.7,80.8,97.4c60.9,97.9,38.3,224.8-49.6,300.3
		c-86.9,74.6-211.5,77-301,5.3c-14.5-11.6-28.1-24.5-41.3-37.7c-71.2-71-142.1-142.3-213-213.6c-8.9-9-17.2-18.5-25.9-27.9
		c15.5-17.3,29.6-33,45.5-50.8c13.4,12.6,24,22,34,31.9c75.1,75.2,150.3,150.3,225.2,225.7c46.7,47,100.9,61.2,165.4,44.3
		c109.3-28.6,159.3-157.1,94.5-250.2C889.9,641.8,865.8,618.8,846.2,596.4z"/>
	<path d="M672.8,334.7c-15.1,14.5-29.5,28.3-46.2,44.2c-8.6-7.6-17.3-14.3-25-22c-72-72.3-143.2-145.3-216.1-216.7
		c-20.2-19.8-43.7-37.4-68.2-51.5C255.4,53,164.2,72.3,113.9,139.8c-46.1,61.9-42.6,150.6,8.6,206.7c16.3,17.9,35.8,32.8,55.5,50.6
		c-21.2,19.3-37.6,34.2-55.2,50.2C64.5,399.8,19.4,342.2,10.1,260.5C-4.1,135.1,95.6,12.4,221.3,2.3c72.9-5.9,137.2,13.4,189.5,64.3
		c86.5,84.2,171.3,170,256.7,255.3C669.3,323.7,669.7,327,672.8,334.7z"/>
	<path d="M268.4,415.5c12.7,12.3,28,26.9,45.2,43.5c-49.2,49.6-98.7,99.3-148,149.2c-15.1,15.3-30.1,30.7-44.3,46.8
		c-59.5,67.3-48.4,166.1,7,223.1c57.2,58.8,157.3,64.1,224.3,11.3c20.1-15.8,37.8-34.6,59.2-54.5c13.2,18,25.5,34.9,39,53.3
		c-57.4,85.7-155.4,126.5-262.2,103.9C103.8,974.1,27,889.7,13.5,799.7C2.5,726,18,658.4,70.2,604.9
		C134.2,539.3,202.5,478.1,268.4,415.5z"/>
	<path d="M750.8,590.1c-14.7-16.9-28.8-33-44.7-51.4c42-42.4,85.3-86,128.4-129.7c22.1-22.5,45.2-44.3,65.5-68.3
		c50.1-59.4,49.7-149.7,0.5-205.7c-59.1-67.3-142.1-84.4-212.2-40.1c-29.9,18.9-55.4,44.9-85.3,69.7c-14.2-14.8-28.9-30.2-44.6-46.6
		C620,42.1,692.5-6.5,795,2c107.7,8.9,202.4,101.7,211.8,209.4c6.3,72.9-13.4,136.8-63.8,189.4c-56.6,59-115.5,115.9-173.4,173.6
		C764.5,579.3,758.7,583.4,750.8,590.1z"/>
</g>
</svg>
