<?xml version="1.0" encoding="utf-8"?>
<!-- Generator: Adobe Illustrator 24.0.1, SVG Export Plug-In . SVG Version: 6.00 Build 0)  -->
<svg version="1.1" id="Layer_1" xmlns="http://www.w3.org/2000/svg" xmlns:xlink="http://www.w3.org/1999/xlink" x="0px" y="0px"
	 viewBox="0 0 901.1 1000" style="enable-background:new 0 0 901.1 1000;" xml:space="preserve">
<g>
	<path d="M546.5,263.8c-19.6,0-39.2,0-61.3,0c-10.4-53.5-49.7-66.7-97.3-64.5C374,102.5,341.8,65.2,277.4,69
		c-59.7,3.5-90.7,44.2-95.4,128.8c-10.8,0.9-22.3,1.5-33.6,2.9c-38.7,4.9-63,30-63.2,65.1c-0.2,37.9,23.7,63.9,65.3,65.9
		c42.5,2,85.1,0.4,130.7,0.4c0,23.4,0,42.6,0,67.7c-54.8-1.6-109.2,6.3-162.8-5.3c-56.6-12.3-93.9-58.2-99.3-116.8
		C14,223.4,43,169.8,93.7,147.4c19.1-8.4,28.3-18.7,35.2-38.4C150.9,46.6,214.1,3,279.6,1.1c65.6-1.9,129.8,38.1,154.8,101.2
		c9.6,24.3,22.5,38.3,46.3,49.4C523.9,171.8,544.8,211.4,546.5,263.8z"/>
	<path d="M450.7,368.2c73.9,0.1,132.4,58.4,132.8,132.5c0.4,71.2-61.8,132.5-134,132.2c-73.7-0.3-131.2-58.8-131.2-133.5
		C318.3,424.7,375.6,368,450.7,368.2z M515.8,498.9c-1-36.4-32.5-66.4-68.1-64.8c-36.3,1.6-65.4,33.5-63.5,69.4
		c1.9,35.6,29.9,61.6,66.1,61.5C488.2,564.7,516.8,535.9,515.8,498.9z"/>
	<path d="M416.6,700.3c23.3,0,41.6,0,66.4,0c0,21.2,1.1,42-0.3,62.5c-1.7,25.6,4.7,42.6,28,59.4c52.1,37.5,51.9,111.3,3.9,152.5
		c-41.8,35.9-103.7,31.4-139.8-10.1c-35.3-40.6-33.5-108.8,10.7-138.9c28.6-19.4,33.5-40.4,31.3-69.6
		C415.6,739.1,416.6,721.8,416.6,700.3z M481.7,899.7c0.4-19-13.1-32.9-32-32.6c-18,0.2-33.9,15.8-32,33.1
		c1.9,17.8,12.2,29.2,30.5,31C466,933,481.3,918.1,481.7,899.7z"/>
	<path d="M709.7,383.6c-7,4-20.9,11.9-34.8,19.8c-12.6,7.2-25.2,14.3-40.7,23.1c-10.9-17.9-21-34.8-32.5-53.7
		c10.7-7.1,19.8-14.8,30.2-19.8c32.5-15.6,53.1-35.1,56.9-76.3c4.4-47.6,55.2-80,102.1-75.9c49,4.3,88.4,43.3,91.3,90.4
		c3.1,50.8-29.9,100.5-77.7,105.8C777.1,400.1,748.1,389.6,709.7,383.6z M815.9,298.6c-0.8-16.5-18.6-32.6-34.7-31.6
		c-17.1,1.1-31.4,18-29.4,35.8c2.1,18.6,13.2,28.2,31.7,28.6C801.2,331.7,816.8,315.5,815.9,298.6z"/>
	<path d="M266.4,573.8c11.6,19.6,20.9,35.4,32,54.2c-27.8,17.2-53.5,33.1-80.6,49.8c-0.8,11.2-1,23.1-2.6,34.8
		c-7.5,56-59.7,93.6-116.1,83.9c-54.9-9.4-90.7-64.2-78.4-120c11.7-52.7,68.8-92,119.2-70.4c40.2,17.3,65.2,2.6,94.6-15.4
		C243.6,585.3,253.1,580.9,266.4,573.8z M149.9,698.6c-0.3-17-17.3-33.2-34.3-31.2c-17.8,2.1-29,12.2-29.8,31.1
		c-0.7,18.8,13.3,33.2,31.6,33.1C134.9,731.6,150.2,716.1,149.9,698.6z"/>
	<path d="M600.1,627.2c12.1-20.9,21.9-37.8,32.6-56.2c21.7,12.6,40.5,22.3,57.9,34.2c17.9,12.2,33,15.3,54.8,5.1
		c42.8-20.1,85.5-7.4,114.7,28.3c26,31.9,30.3,72.7,9.5,108.3c-21.4,36.6-53.9,54.5-96.8,50.9c-40.9-3.5-78.7-29.1-82.3-69.3
		c-4.2-47.4-29.8-69.7-67.9-86.4C615.5,638.9,609.4,633.5,600.1,627.2z M815.8,700.7c0.9-16.9-15-34-32.2-33.3
		c-18.2,0.7-29.5,10.9-31.6,29.1c-2.2,18.4,11.5,34.1,29.4,35.1C799,732.7,814.8,718.5,815.8,700.7z"/>
</g>
</svg>
