<?xml version="1.0" encoding="utf-8"?>
<!-- Generator: Adobe Illustrator 24.0.1, SVG Export Plug-In . SVG Version: 6.00 Build 0)  -->
<svg version="1.1" id="Layer_1" xmlns="http://www.w3.org/2000/svg" xmlns:xlink="http://www.w3.org/1999/xlink" x="0px" y="0px"
	 viewBox="0 0 1409 1000" style="enable-background:new 0 0 1409 1000;" xml:space="preserve">
<g>
	<path d="M1395.1,518.4c-0.2-13.6-8.1-28.9-16.6-40.3c-49.1-66.6-100.4-131.7-148.9-198.7c-16.5-22.8-35.8-29.2-62.3-28.3
		c-46.5,1.6-93,0.4-145.4,0.4V1h-61.3C742.1,1,523.8,1,305.4,1.1c-16.9,0-34.1-0.7-50.7,1.8c-63,9.4-102.1,57.9-97.4,126.1h735.6
		v559.3c-93.1,0-181.4,0.7-269.7-0.7c-13.6-0.2-28.7-7.5-40.3-15.5c-87.9-60.6-158.3-60.8-244.2-2.1c-16.1,11-37.1,14.7-60.5,23.5
		c-3.3-39.5-5.7-66.8-8.1-96.1H152.7v214.3h116.5c26.9,121.4,88.2,182,182.1,187c95.1,5.1,152.9-46.7,203-182.6h239.8
		c24.4,117,89.4,180.3,185.3,182.9c96.5,2.7,159.6-55.6,198.3-187.5h118.1C1395.9,709.7,1396.5,614.1,1395.1,518.4z M457.3,905.2
		c-50.2-1.5-91.1-45.7-89.6-96.8c1.5-48.8,42.1-87.7,92-88c51.5-0.3,92.8,41.4,92.4,93.3C551.6,864.2,507.6,906.7,457.3,905.2z
		 M1082.8,905.4c-49.3-0.6-92.2-44.2-92.4-93.9c-0.2-49.8,42.8-91.5,94.1-91.2c50.5,0.3,93,43,92.8,93.2
		C1177,861.8,1131.6,906,1082.8,905.4z M1025.7,497.5V346.4c46.8,0,91.2-1.3,135.5,0.9c11,0.5,24.1,10.1,31.7,19.3
		c33.2,40.1,64.7,81.5,103.5,130.9H1025.7z"/>
	<path d="M656,315.5c-192.5,0-380.2-0.5-567.9,0.3c-61.2,0.3-46.9-56.7-75.1-81.1c1.9-4.5,3.9-9,5.8-13.5h59.1c154,0,308,0,461.9,0
		C626,221.2,626,221.2,656,315.5z"/>
	<path d="M724.2,500H569.1c-125.9,0-251.8,0-377.7,0c-85.9,0-85.9,0-113-92.2c192.4,0,383.8-0.3,575.3,0.7
		c10.8,0.1,25.8,7.1,31.5,15.7C699.2,445.4,708.9,469.5,724.2,500z"/>
</g>
</svg>
