<svg width="1080" height="1080" viewBox="0 0 1080 1080" fill="none" xmlns="http://www.w3.org/2000/svg">
<g clip-path="url(#clip0_2274_2)">
<path d="M1080.3 0H0.299988V1080H1080.3V0Z" fill="#171994"/>
<path d="M199.7 547.6C167.1 547.6 136.4 547.5 103.8 547.5C100.3 547.8 101.1 550.7 100.9 551.1C100.9 561.4 101.3 582.9 100.6 583.8C98.5 583.9 54.3 584.5 54.3 584.5C52.8 583.6 52.8 581.6 52.8 581.6C52.8 530.7 53.8 480 53.8 429.1C53.6 425 54.4 424.4 57.3 424.4C57.3 424.4 155.7 424.9 200.1 424.6C261.8 428.5 276.9 537.2 199.7 547.6Z" fill="#FEFEFE"/>
<path d="M469.3 584.6H406.4C389.2 567.5 377 555.3 374.1 552.1C373.8 551.8 373.1 551 371.8 550.1C368.4 547.9 364.8 547.7 363.1 547.7C344.1 547.4 322.9 547.7 322.9 547.7C318.8 547.8 317.6 550.3 317.4 555C317.4 559.9 317.5 564.8 317.5 569.7C317.5 570.3 317.5 572.5 317.5 572.7C317.5 576 317.7 576.7 317.5 578.2C317.4 579.1 317.1 580.4 316.3 582C315.5 582.5 314.5 583.1 313.2 583.6C311.1 584.4 309.3 584.6 308 584.6C297.9 584.6 287.8 584.6 277.7 584.6C276.1 584.7 274.1 584.6 272.9 583.4C271.6 582.1 271.6 580.1 271.6 579.5C271.5 575.3 271.6 513.3 271.9 428.2C271.9 427.7 272 427.1 272.3 426.6C273.2 425.1 275.2 424.7 276.2 424.6H419.6C432.8 425.6 441.6 431.9 447.9 437.4C453.3 442 462 452 466 470.7C466.9 474.1 467.1 480.2 467.3 487C467.5 493.8 466.6 501.6 466 510.7C464.6 516.2 462.9 523.3 458.3 529C451.1 539.2 441.5 544 436.5 546C434.7 547.2 438.4 550.2 438.4 550.2C448.7 560.2 459 570.2 469.3 580.3C469.3 581.6 469.3 583.1 469.3 584.6Z" fill="#FEFEFE"/>
<path d="M685.3 481C685.6 477.9 687.1 456.5 670.6 439.6C660.7 429.4 649 425.7 640.5 424.5H537.3C528.9 425.6 516 429.1 505 440.2C488.5 456.8 488.8 477.5 488.9 481V527.6C488.7 530.9 488 552 504.6 568.7C517.1 581.3 532.2 584 540.2 584.5H636.1C644.6 583.8 658.3 580.8 669.8 569.3C686.7 552.4 685.4 530.7 685.2 527.6V481H685.3ZM639.5 523.4C639.5 530.9 633.4 537 625.9 537H548.7C541.2 537 535.1 530.9 535.1 523.4V485.4C535.1 477.9 541.2 471.8 548.7 471.8H625.9C633.4 471.8 639.5 477.9 639.5 485.4V523.4Z" fill="#FEFEFE"/>
<path d="M815.1 547.4V576C815.1 580 811.6 583.3 807.2 583.3H713.6C712.1 583.2 709.9 582.7 708.1 581.2C707.9 581 707.6 580.8 707.4 580.5C707.2 580.3 707 580 706.8 579.8C706.6 579.6 706.5 579.3 706.3 579.1C705.8 578.2 705.5 577.3 705.3 576.6V576.5C705.3 576.4 705.2 576.3 705.2 576.1C705.2 576 705.2 576 705.2 575.9C705.2 575.9 705.2 575.9 705.2 575.8C705.2 575.7 705.1 575.4 705.1 575.1V430.7C705.6 427.2 708.5 424.5 712.2 424.5H744.3C748 424.5 751 427.3 751.4 430.9V534.8C751.4 536.7 751.4 538.1 751.4 539V540.1H807.3C811.5 540.1 815.1 543.4 815.1 547.4Z" fill="#E71039"/>
<path d="M1031 481C1031.3 477.9 1032.8 456.5 1016.3 439.6C1006.4 429.4 994.7 425.7 986.2 424.5H883.1C874.7 425.6 861.8 429.1 850.8 440.2C834.3 456.8 834.6 477.5 834.7 481V527.6C834.5 530.9 833.8 552 850.4 568.7C862.9 581.3 878 584 886 584.5H981.9C990.4 583.8 1004.1 580.8 1015.6 569.3C1032.5 552.4 1031.2 530.7 1031 527.6V481ZM985.3 523.4C985.3 530.9 979.2 537 971.7 537H894.5C887 537 880.9 530.9 880.9 523.4V485.4C880.9 477.9 887 471.8 894.5 471.8H971.7C979.2 471.8 985.3 477.9 985.3 485.4V523.4Z" fill="#E71039"/>
<path d="M52 432.3C55 433.1 48.8 450.6 57 460.7C63.5 468.8 76.1 468.6 80.7 468.6C106.6 468.4 211.2 472.5 355.6 478.2C355.6 472.9 355.7 467.6 355.7 462.4C355.5 460.8 355.4 458.9 356.5 458.1C358.5 456.7 363.3 460.2 365.2 461.6C372.1 466.7 382.7 473.8 398 483.6C398.4 483.8 398.8 484 399.1 484.5C399.7 485.6 398.9 487 398.3 488.1C397.3 489.8 396.2 490.8 396.2 490.8C383 502.4 375.7 506.8 361.1 515.8C360.6 516.1 359.2 517 358 516.5C356.1 515.8 355.7 512.3 355.6 510.7C355.7 505.6 355.7 500.4 355.8 495.3C328.8 496.5 301.7 497.7 274.7 498.9C205.8 502 136.8 504.9 67.8 507.8C65.6 508.5 59.2 510.7 56.1 516.6C54.5 519.7 54 523.9 53.7 526.3C53.4 528.8 53.4 529.9 53.3 531.8C53 536.6 51.4 546.9 47.8 547.7C44.7 548.4 40.7 541.8 39.7 540.1C26.2 517.4 30.1 478.4 43.1 446.4C42.9 446.7 49 431.5 52 432.3Z" fill="#171994"/>
<path d="M504.1 643.6L501.6 658.5H489.9L496.6 617.8H510C513.1 617.8 515.4 617.9 516.8 618.2C518.2 618.5 519.7 619.1 521.2 620.1C522.7 621.1 523.9 622.5 524.8 624.2C525.7 625.9 526.1 627.8 526.1 629.7C526.1 633.5 524.9 636.8 522.4 639.4C519.9 642.1 516.4 643.4 511.8 643.4H504.1V643.6ZM505.5 634.9H508.3C512.5 634.9 514.7 633.5 514.7 630.6C514.7 628 512.9 626.7 509.4 626.7H507L505.5 634.9Z" fill="white"/>
<path d="M546.8 646.6L549.9 658.5H541.6L539.1 647.7H535.8L534 658.5H526L530.7 630H543C546.3 630 548.8 630.7 550.4 632.2C552 633.7 552.8 635.7 552.8 638.2C552.7 642.4 550.7 645.1 546.8 646.6ZM536.6 641.8H539.8C542.8 641.8 544.4 640.8 544.4 638.7C544.4 636.9 543.1 636.1 540.6 636.1H537.7L536.6 641.8Z" fill="white"/>
<path d="M566.7 659.2C563.4 659.2 560.5 658.1 558 655.9C555.5 653.7 554.3 650.5 554.3 646.4C554.3 641.6 555.7 637.6 558.4 634.3C561.1 631 564.7 629.3 569.1 629.3C572.6 629.3 575.5 630.5 577.8 632.8C580.1 635.1 581.2 638.2 581.2 641.9C581.2 646.7 579.9 650.8 577.2 654.1C574.6 657.6 571.1 659.2 566.7 659.2ZM566.8 652.6C568.3 652.6 569.4 652 570.1 650.7C570.9 649.5 571.5 647.6 571.9 645.2C572.3 642.8 572.6 641.2 572.6 640.3C572.6 638.8 572.3 637.7 571.6 637C570.9 636.2 570 635.9 568.9 635.9C566.8 635.9 565.3 637.4 564.5 640.3C563.7 643.2 563.2 645.9 563.2 648.2C563.2 651.2 564.4 652.6 566.8 652.6Z" fill="white"/>
<path d="M602.5 641.5L601.5 647.7H592.5L590.7 658.5H582.5L587.2 630H607L605.9 636.4H594.3L593.5 641.4H602.5V641.5Z" fill="white"/>
<path d="M626.9 652L625.8 658.5H605L609.7 630H630L629 636.2H616.9L616.2 640.7H626.4L625.4 646.9H615.3L614.5 651.9H626.9V652Z" fill="white"/>
<path d="M654.9 636.7L647.7 638.6C647.5 637.8 647 637.1 646.2 636.6C645.4 636.1 644.5 635.9 643.5 635.9C641.6 635.9 640.7 636.5 640.7 637.8C640.7 638.2 640.8 638.6 641.1 638.8C641.4 639.1 642.1 639.5 643.3 639.9L647.8 641.5C649 641.9 650.1 642.5 651.1 643.3C652.1 644.1 652.8 645 653.3 646C653.7 647 654 648 654 649.1C654 652 652.9 654.4 650.6 656.2C648.4 658.1 645.4 659 641.6 659C638.4 659 635.6 658.3 633.2 657C630.8 655.7 629.2 653.7 628.2 651L636.3 649.4C637 651.4 638.7 652.4 641.5 652.4C642.7 652.4 643.5 652.2 644 651.8C644.5 651.4 644.8 650.9 644.8 650.4C644.8 650.1 644.7 649.7 644.5 649.5C644.3 649.2 644.1 649 643.9 648.9C643.7 648.8 642.6 648.4 640.7 647.7C638.1 646.7 636.3 646 635.3 645.4C634.3 644.8 633.4 644 632.7 642.9C632 641.8 631.7 640.5 631.7 639C631.7 636.4 632.6 634.2 634.5 632.4C636.4 630.6 639.3 629.7 643.2 629.7C646.2 629.7 648.7 630.3 650.8 631.6C652.8 632.8 654.2 634.5 654.9 636.7Z" fill="white"/>
<path d="M681 636.7L673.8 638.6C673.6 637.8 673.1 637.1 672.3 636.6C671.5 636.1 670.6 635.9 669.6 635.9C667.7 635.9 666.8 636.5 666.8 637.8C666.8 638.2 666.9 638.6 667.2 638.8C667.5 639.1 668.2 639.5 669.4 639.9L673.9 641.5C675.1 641.9 676.2 642.5 677.2 643.3C678.2 644.1 678.9 645 679.4 646C679.8 647 680.1 648 680.1 649.1C680.1 652 679 654.4 676.7 656.2C674.5 658.1 671.5 659 667.7 659C664.5 659 661.7 658.3 659.3 657C656.9 655.7 655.3 653.7 654.3 651L662.4 649.4C663.1 651.4 664.8 652.4 667.6 652.4C668.8 652.4 669.6 652.2 670.1 651.8C670.6 651.4 670.9 650.9 670.9 650.4C670.9 650.1 670.8 649.7 670.6 649.5C670.4 649.2 670.2 649 670 648.9C669.8 648.8 668.7 648.4 666.8 647.7C664.2 646.7 662.4 646 661.4 645.4C660.4 644.8 659.5 644 658.8 642.9C658.1 641.8 657.8 640.5 657.8 639C657.8 636.4 658.7 634.2 660.6 632.4C662.5 630.6 665.4 629.7 669.3 629.7C672.3 629.7 674.8 630.3 676.9 631.6C678.9 632.8 680.4 634.5 681 636.7Z" fill="white"/>
<path d="M694.2 630.1L689.5 658.6H681.5L686.2 630.1H694.2Z" fill="white"/>
<path d="M707.7 659.2C704.4 659.2 701.5 658.1 699 655.9C696.5 653.7 695.3 650.5 695.3 646.4C695.3 641.6 696.7 637.6 699.4 634.3C702.1 631 705.7 629.3 710.1 629.3C713.6 629.3 716.5 630.5 718.8 632.8C721.1 635.1 722.2 638.2 722.2 641.9C722.2 646.7 720.9 650.8 718.2 654.1C715.6 657.6 712.1 659.2 707.7 659.2ZM707.8 652.6C709.3 652.6 710.4 652 711.1 650.7C711.9 649.5 712.5 647.6 712.9 645.2C713.3 642.8 713.6 641.2 713.6 640.3C713.6 638.8 713.3 637.7 712.6 637C711.9 636.2 711 635.9 709.9 635.9C707.8 635.9 706.3 637.4 705.5 640.3C704.7 643.2 704.2 645.9 704.2 648.2C704.2 651.2 705.4 652.6 707.8 652.6Z" fill="white"/>
<path d="M752.1 630.1L747.4 658.6H741.1L735.7 647.7C734.2 644.7 733.3 642.3 732.9 640.6C732.9 641 732.9 641.3 732.9 641.6C732.9 642.4 732.8 643.4 732.6 644.7L730.3 658.6H723.4L728.1 630.1H735.7L738.8 636.7C740.9 641.3 742.3 644.6 743 646.8C743 646.2 742.9 645.8 742.9 645.5C742.9 644.7 743.1 643.2 743.5 640.9L745.3 630.1H752.1Z" fill="white"/>
<path d="M767 652.7H759.5L756.9 658.5H749.9L762.9 630H771.7L776.1 658.5H767.8L767 652.7ZM766.5 646.8L765.4 638.6L761.7 646.8H766.5Z" fill="white"/>
<path d="M798.9 651.7L797.8 658.5H778.5L783.2 630H791.8L788.2 651.6H798.9V651.7Z" fill="white"/>
<path d="M845.4 648.8L843.8 658.6H816.3L823 617.9H835.2L830.1 648.8H845.4Z" fill="white"/>
<path d="M861.1 659.2C857.8 659.2 854.9 658.1 852.4 655.9C849.9 653.7 848.7 650.5 848.7 646.4C848.7 641.6 850.1 637.6 852.8 634.3C855.5 631 859.1 629.3 863.5 629.3C867 629.3 869.9 630.5 872.2 632.8C874.5 635.1 875.6 638.2 875.6 641.9C875.6 646.7 874.3 650.8 871.6 654.1C869 657.6 865.5 659.2 861.1 659.2ZM861.2 652.6C862.7 652.6 863.8 652 864.5 650.7C865.3 649.5 865.9 647.6 866.3 645.2C866.7 642.8 867 641.2 867 640.3C867 638.8 866.7 637.7 866 637C865.3 636.2 864.4 635.9 863.3 635.9C861.2 635.9 859.7 637.4 858.9 640.3C858.1 643.2 857.6 645.9 857.6 648.2C857.6 651.2 858.8 652.6 861.2 652.6Z" fill="white"/>
<path d="M891.2 642.9H903.6L901 658.5H897L896.8 655.4C895.2 657.9 892.7 659.1 889.2 659.1C886.6 659.1 884.5 658.5 882.9 657.4C881.3 656.3 880 654.9 879.1 653.1C878.2 651.3 877.8 649.3 877.8 646.9C877.8 642.1 879.1 638 881.8 634.6C884.5 631.2 888.1 629.4 892.5 629.4C898.8 629.4 902.8 632.5 904.4 638.6L896.7 639.9C896.2 637.4 894.8 636.1 892.5 636.1C890.4 636.1 889 637.4 888.1 640C887.2 642.6 886.8 645.1 886.8 647.6C886.8 650.9 888.1 652.6 890.7 652.6C892.7 652.6 894.2 651.4 895 649.1H890.4L891.2 642.9Z" fill="white"/>
<path d="M918.4 630.1L913.7 658.6H905.7L910.4 630.1H918.4Z" fill="white"/>
<path d="M944.2 636.7L937 638.6C936.8 637.8 936.3 637.1 935.5 636.6C934.7 636.1 933.8 635.9 932.8 635.9C930.9 635.9 930 636.5 930 637.8C930 638.2 930.1 638.6 930.4 638.8C930.7 639.1 931.4 639.5 932.6 639.9L937.1 641.5C938.3 641.9 939.4 642.5 940.4 643.3C941.4 644.1 942.1 645 942.6 646C943 647 943.3 648 943.3 649.1C943.3 652 942.2 654.4 939.9 656.2C937.7 658.1 934.7 659 930.9 659C927.7 659 924.9 658.3 922.5 657C920.1 655.7 918.5 653.7 917.5 651L925.6 649.4C926.3 651.4 928 652.4 930.8 652.4C932 652.4 932.8 652.2 933.3 651.8C933.8 651.4 934.1 650.9 934.1 650.4C934.1 650.1 934 649.7 933.8 649.5C933.6 649.2 933.4 649 933.2 648.9C933 648.8 931.9 648.4 930 647.7C927.4 646.7 925.6 646 924.6 645.4C923.6 644.8 922.7 644 922 642.9C921.3 641.8 921 640.5 921 639C921 636.4 921.9 634.2 923.8 632.4C925.7 630.6 928.6 629.7 932.5 629.7C935.5 629.7 938 630.3 940.1 631.6C942.1 632.8 943.5 634.5 944.2 636.7Z" fill="white"/>
<path d="M960.5 636.5L956.8 658.5H948.6L952.3 636.5H946.3L947.4 630H967.8L966.7 636.5H960.5Z" fill="white"/>
<path d="M978.6 630.1L973.9 658.6H965.9L970.6 630.1H978.6Z" fill="white"/>
<path d="M996.5 647.5L1004.1 648.5C1003.2 651.6 1001.7 654.2 999.6 656.2C997.5 658.2 994.8 659.2 991.5 659.2C988 659.2 985.1 658 983.1 655.6C981 653.2 980 650.1 980 646.2C980 641.8 981.3 637.9 983.9 634.5C986.5 631.1 990 629.4 994.5 629.4C997.8 629.4 1000.4 630.4 1002.5 632.4C1004.5 634.4 1005.6 637.1 1005.6 640.4L997.6 641C997.6 639.2 997.3 637.9 996.8 637.1C996.3 636.2 995.4 635.8 994.2 635.8C992.1 635.8 990.7 637.4 989.9 640.5C989.1 643.6 988.8 646.1 988.8 647.9C988.8 650.8 989.9 652.3 992.2 652.3C993.3 652.3 994.2 651.9 994.9 651.2C995.4 650.4 996 649.2 996.5 647.5Z" fill="white"/>
<path d="M1031.2 636.7L1024 638.6C1023.8 637.8 1023.3 637.1 1022.5 636.6C1021.7 636.1 1020.8 635.9 1019.8 635.9C1017.9 635.9 1017 636.5 1017 637.8C1017 638.2 1017.1 638.6 1017.4 638.8C1017.7 639.1 1018.4 639.5 1019.6 639.9L1024.1 641.5C1025.3 641.9 1026.4 642.5 1027.4 643.3C1028.4 644.1 1029.1 645 1029.6 646C1030 647 1030.3 648 1030.3 649.1C1030.3 652 1029.2 654.4 1026.9 656.2C1024.7 658.1 1021.7 659 1017.9 659C1014.7 659 1011.9 658.3 1009.5 657C1007.1 655.7 1005.5 653.7 1004.5 651L1012.6 649.4C1013.3 651.4 1015 652.4 1017.8 652.4C1019 652.4 1019.8 652.2 1020.3 651.8C1020.8 651.4 1021.1 650.9 1021.1 650.4C1021.1 650.1 1021 649.7 1020.8 649.5C1020.6 649.2 1020.4 649 1020.2 648.9C1020 648.8 1018.9 648.4 1017 647.7C1014.4 646.7 1012.6 646 1011.6 645.4C1010.6 644.8 1009.7 644 1009 642.9C1008.3 641.8 1008 640.5 1008 639C1008 636.4 1008.9 634.2 1010.8 632.4C1012.7 630.6 1015.6 629.7 1019.5 629.7C1022.5 629.7 1025 630.3 1027.1 631.6C1029.1 632.8 1030.5 634.5 1031.2 636.7Z" fill="white"/>
</g>
<defs>
<clipPath id="clip0_2274_2">
<rect width="1080" height="1080" fill="white"/>
</clipPath>
</defs>
</svg>
