<?xml version="1.0" encoding="utf-8"?>
<!-- Generator: Adobe Illustrator 24.0.1, SVG Export Plug-In . SVG Version: 6.00 Build 0)  -->
<svg version="1.1" id="Layer_1" xmlns="http://www.w3.org/2000/svg" xmlns:xlink="http://www.w3.org/1999/xlink" x="0px" y="0px"
	 viewBox="0 0 1000 1000" style="enable-background:new 0 0 1000 1000;" xml:space="preserve">
<g>
	<path d="M892,481.3c-60.2-158-224.3-269.3-392.6-267.9c-171.2,1.5-331.6,112.1-390.6,270.6c-4,10.9-3.2,26.3,1.3,37.2
		c65.1,159.3,221.4,265.8,389.7,266.6c167.3,0.8,326.7-106.6,390.8-264.7C895.6,510.9,896.6,493.5,892,481.3z M832.7,521.9
		c-20.1,44.1-43,77.5-65.3,96.3C635.8,729,500.6,728.5,500.6,728.5c-153.9-0.5-316.3-99.2-332.3-207.6c-0.6-4-9.2-21.9,0.2-40.6
		c69.3-136.7,181.2-213,334.9-212.1c151.8,0.9,262,77.4,329.8,212.8C838.7,492.1,838,510.4,832.7,521.9z"/>
	<path d="M170.2,53.9c-114.8,0.4-115.8,1.4-115.9,118c0,35.2-8.7,52.4-50,39.3c0-47.5-3.4-96.6,1-145.1C9.1,24.3,41.3,4.6,81,2.3
		c41.8-2.4,83.9-0.5,127.6-0.5C222,44,206,53.8,170.2,53.9z"/>
	<path d="M998.4,213.4h-48.8c0-37.3-1.7-72.9,0.4-108.3c2.4-39.7-15.4-54-53.4-52.2c-34.2,1.7-68.6,0.4-106.4,0.4
		c-0.9-18.5-1.6-32.6-2.5-51.3c47.8,0,92.7-2.6,137.1,0.8c41.7,3.2,70.9,26.8,73.1,71.3C1000.1,118.7,998.4,163.4,998.4,213.4z"/>
	<path d="M993.9,940.1c-3.7,21.5-33.7,50.6-55.5,54.4c-47.7,8.3-97.9,2.6-148.8,2.6v-48c37.2,0,74.4-1.1,111.5,0.3
		c34.9,1.3,49.6-14.3,48.7-48.4c-0.9-35.9-0.2-71.8-0.2-111.6c16.5-1,30.6-1.9,47-2.9C996.5,840,1002.2,891.2,993.9,940.1z"/>
	<path d="M213.6,949.1c-1.1,20.3-1.8,33.4-2.6,48.4c-50.3,0-98.1,2.8-145.3-0.9c-40.3-3.1-60.1-33.9-62.9-70.9
		c-3.4-44.4-0.8-89.3-0.8-136.4h51.8c0,36.2,1.4,71.8-0.4,107.2c-1.9,37.9,12,55.8,52,53.1C139.5,947.3,173.9,949.1,213.6,949.1z"/>
	<path d="M502.4,357.9c-80-0.8-144.9,62.5-145.4,141.8c-0.5,80,62.2,143.3,142.5,143.9c80.7,0.6,143.8-60.9,144.7-141.1
		C645.1,422,583.1,358.7,502.4,357.9z M590.8,505c-1.5,48.9-41.6,86.3-91.8,85.5c-48.9-0.8-89.9-41.7-89.4-89.1
		c0.5-50,44-92.8,93.1-91.7C553.4,410.9,592.3,453,590.8,505z"/>
</g>
</svg>
