<?xml version="1.0" encoding="utf-8"?>
<!-- Generator: Adobe Illustrator 24.0.1, SVG Export Plug-In . SVG Version: 6.00 Build 0)  -->
<svg version="1.1" id="Layer_1" xmlns="http://www.w3.org/2000/svg" xmlns:xlink="http://www.w3.org/1999/xlink" x="0px" y="0px"
	 viewBox="0 0 1000 1000" style="enable-background:new 0 0 1000 1000;" xml:space="preserve">
<g>
	<g>
		<path d="M799.1,535.2h-87.4c-18.7,0-33.9-15.2-33.9-33.9v0c0-18.7,15.2-33.9,33.9-33.9h87.4c18.7,0,33.9,15.2,33.9,33.9v0
			C833,520,817.8,535.2,799.1,535.2z"/>
		<path d="M280.7,535.2h-87.4c-18.7,0-33.9-15.2-33.9-33.9v0c0-18.7,15.2-33.9,33.9-33.9h87.4c18.7,0,33.9,15.2,33.9,33.9v0
			C314.6,520,299.4,535.2,280.7,535.2z"/>
	</g>
	<path d="M506.2,1.2C237-6.9,5.2,221.7,1.1,499c-4,268.2,223,496.9,496.3,500c267.9,3,495-217.7,501.5-487.6
		C1005.5,238,784.9,9.6,506.2,1.2z M503.4,929.2C272,933.7,72.8,736.7,72.6,503.1C72.3,263.4,258.1,75,497.1,72.6
		C734.5,70.2,929.6,264.4,930,503.4C930.4,731.8,737.2,924.6,503.4,929.2z"/>
	<g>
		<path d="M462.3,804.2v-87.4c0-18.7,15.2-33.9,33.9-33.9h0c18.7,0,33.9,15.2,33.9,33.9v87.4c0,18.7-15.2,33.9-33.9,33.9h0
			C477.4,838.1,462.3,822.9,462.3,804.2z"/>
		<path d="M462.3,285.8v-87.4c0-18.7,15.2-33.9,33.9-33.9h0c18.7,0,33.9,15.2,33.9,33.9v87.4c0,18.7-15.2,33.9-33.9,33.9h0
			C477.4,319.7,462.3,304.5,462.3,285.8z"/>
	</g>
</g>
</svg>
