<?xml version="1.0" encoding="utf-8"?>
<!-- Generator: Adobe Illustrator 24.0.1, SVG Export Plug-In . SVG Version: 6.00 Build 0)  -->
<svg version="1.1" id="Layer_1" xmlns="http://www.w3.org/2000/svg" xmlns:xlink="http://www.w3.org/1999/xlink" x="0px" y="0px"
	 viewBox="0 0 1000 1000" style="enable-background:new 0 0 1000 1000;" xml:space="preserve">
<style type="text/css">
	.st0{fill:#CFCFCF;}
</style>
<g>
	<g>
		<g>
			<path class="st0" d="M930.2,531.9c-10.5-0.3-21.7-0.6-33.3,0c-54.5-2-90.6,10.9-95-30.8c5.3-44.7,46.3-27.4,100.2-30.8
				c10,0.4,19.3,0.3,27.8,0C931.4,490.9,931.5,511.4,930.2,531.9z"/>
			<path class="st0" d="M93,531.9c-7.8-0.3-15.2-0.3-22.2-0.1c-1.4-20.2-1.4-40.6,0.1-61.1c8.6,0.2,17.7,0.3,27.2-0.3
				c53.9,2,86.5-10.1,94.7,26.2C193.9,545.9,146.8,529,93,531.9z"/>
		</g>
	</g>
	<g>
		<path class="st0" d="M528.7,929.4c-0.2,0-0.3,0-0.5,0c-20.6,1.5-41.2,1.5-61.7,0v-93.1c-2.2-44,59.5-46.5,61.7-3.9
			C527.6,874.6,528.5,906,528.7,929.4z"/>
		<path d="M856,848.3C636.3,1070.6,274,1042.9,93.8,792C30.1,702.6,3.1,606,1.1,514.4C0.9,505.5,1,496.8,1.2,488
			c4.5-152.3,76.3-287.3,158.9-347.3c30.4-16.5,95.1,77,130,105.5c148.6,150.9,232.6,230.1,237.5,244.5
			c21.7,45.9-37.1,53.5-64.6,21.8c-55.3-55.7-139.2-144.1-284.3-294.8c-67.2,77-101.4,165.3-107.9,253c-1.5,20.4-1.5,40.9-0.1,61.1
			c14.1,198,166.5,378,395.6,397.7c20.5,1.4,41.2,1.4,61.7,0c0.2,0,0.3,0,0.5,0c257.8-28,389.5-208.8,401.5-397.5
			c1.3-20.5,1.2-41-0.3-61.5c-14.5-198-159.8-387.4-428.4-401c0,0,0,0,0,0c-16-3.2-29.3-10.6-34.2-32.5v0c-1-7.4,0.2-14.6,2.7-19.9
			c5.1-12.8,20.8-16.7,42.8-15.9C978.9,37.3,1144.8,550.8,856,848.3z"/>
		<path d="M501.5,69.5c-0.2,0-0.3,0-0.5,0c-22.6-4.3-31.9-18.8-33.7-32.5C472.2,58.9,485.5,66.3,501.5,69.5z"/>
		<path class="st0" d="M527.2,172.2c-8.6,31-49.3,29.4-58.9,2.9c-3.8,3.4-1.2-137.1-1.9-142.6c0.3,1.5,0.5,3,0.9,4.4v0
			c4.9,21.9,18.2,29.3,34.2,32.5c0,0,0,0,0,0c8.4,1.7,17.6,2.2,26.7,3C527.7,78.4,529.3,168.8,527.2,172.2z"/>
	</g>
</g>
</svg>
