<?xml version="1.0" encoding="utf-8"?>
<!-- Generator: Adobe Illustrator 24.0.1, SVG Export Plug-In . SVG Version: 6.00 Build 0)  -->
<svg version="1.1" id="Layer_1" xmlns="http://www.w3.org/2000/svg" xmlns:xlink="http://www.w3.org/1999/xlink" x="0px" y="0px"
	 viewBox="0 0 500 500" style="enable-background:new 0 0 500 500;" xml:space="preserve">
<style type="text/css">
	.st0{fill:#1671A2;}
	.st1{fill:#FFFFFF;}
</style>
<g>
	<path d="M435.2,381.1c-0.9-0.4-1.5-2-1.6-3.2c-0.3-2.7-0.3-5.5-0.3-8.2c0-8.6-0.2-17.2,0.1-25.7c0.2-5.8-0.4-11.2-4.9-15.2
		c-3-2.7-6.5-4.9-9.9-7.1c-3.3-2.1-7-3.5-9.5-6.8c-2.1-2.9-4.4-5.7-6.4-8.7c-3.9-5.7-7.5-11.5-11.5-17.1c-4.3-6-8.6-12-13.3-17.6
		c-4.1-4.8-9.3-8.3-15.9-9.1c-14.1-1.9-28.2-0.6-42.3-0.8c-4.6-0.1-5.3-0.4-5.2-5.1c0.1-5.4-0.8-10.5-4.4-14.9
		c-3.7-4.6-8.5-7.2-14.2-7.5c-9.8-0.5-19.7-0.5-29.6-0.5c-27.4,0.1-54.7,0.2-82.1,0.3c-3.6,0-7.2,0-10.8,0c-1,0-2.1,0.1-3.1,0.4
		c-2.4,0.7-4.3,3.1-4.2,5.3c0.1,2.1,1.9,3.6,4.8,3.9c1.4,0.2,2.7,0.1,4.1,0.1c13-0.3,26-0.7,39-0.8c12.9-0.1,25.8,0.3,38.7,0.3
		c11.4,0.1,22.8,0.1,34.2,0c3.7,0,7.2-0.5,10.9,1.1c5.1,2.2,7.1,4.4,7.1,10c0.1,25.8,0.3,51.7,0.4,77.5c0.1,14.8,0.2,29.5,0.3,44.3
		c0,2.1-1.1,3.4-3.1,3.4c-2.4,0-4.8,0-7.2,0c-30.1,0-60.2,0-90.2,0.1c-2.5,0-4.3-1.2-5.9-2.8c-7.2-6.8-15.7-10.8-25.6-10.7
		c-3.5,0-7.1,1.1-10.6,1.9c-6.2,1.4-11,5.1-15.6,9.3c-1.7,1.5-3.3,2.9-5.9,2.5c-3.7-0.6-7.4-1-11.2-1.1c-4.9-0.1-9.9,0.2-14.9,0.2
		c-2.4,0-3.6-1.5-3.5-3.9c0.1-1.6,0.3-3.2,0.3-4.8c0-16.3,0-32.6,0-48.9h0.1c0-16.7,0-33.4,0-50.1c0-1.4-0.2-2.7-0.5-4
		c-0.4-2-1.8-3-3.7-3.3c-3.3-0.6-6,1.9-6,5.8c0,4.7,0.4,9.3,0.4,13.9c0,28,0,56,0,84c0,2-0.1,4,0.2,6c0.5,4,0.4,4.7-3.6,5.7
		c-4.7,1.2-6.1,4.6-6.6,8.7c-0.2,1.6,0.1,3.2,0.1,4.8c0,1.8,0,3.7,0,5.5c0,6.7,2.6,11.5,9.8,12.2c1.3,0.1,2.6,0.1,3.8,0.1
		c9.3-0.1,18.6-0.3,27.9-0.4c1,0,2.3,0.4,2.9,1.1c1.1,1.2,1.9,2.8,2.5,4.3c2.1,5.7,5.8,10.3,10.3,14.2c7.7,6.5,16.5,9.8,26.6,8.4
		c2.7-0.4,5.3-1.6,8-2.3c4-1,7.3-3.3,10.3-5.9c4.8-4.2,8.8-9,11.1-15.1c0.8-2.2,1.8-4.9,5.4-4.8c31.5,0.3,62.9,0.4,94.3,0.5
		c5.1,0,10.1,0,15.2,0.1c2.3,0,4.7,0.3,6.9,0.1c1.7-0.1,2.9,0.3,3.7,1.7c2,3.5,3.8,7.2,5.8,10.7c5.1,8.6,13.4,13,22.7,15
		c6.8,1.5,13.8,0.4,20.2-2.7c3.1-1.5,6.1-3.1,8.8-5.2c6-4.5,9.5-11,12.3-17.8c0.9-2,2-2.5,4-2.4c8.1,0.1,16.2,0,24.3,0
		c1.2,0,2.4-0.3,3.5-0.6c2.7-0.7,4.6-2.3,4.8-5.1c0.4-5.6,0.7-11.2,0.8-16.8C439.1,385,438.1,382.5,435.2,381.1z M138.7,391
		c-0.5,2.7-1,5.3-1.3,8c-0.2,1.9-1.2,2.6-3,2.6c-4.8,0-9.6,0-14.4,0c-4.6,0-9.3,0-13.9,0c-2.8,0-3.4-0.7-3.4-3.4
		c-0.1-2.1-0.2-4.2-0.2-6.2c-0.1-3.3,1.2-4.4,4.5-4.3c5.4,0.2,10.9,0.1,16.3,0.2c4.5,0.1,8.9,0.2,13.4,0.4
		C138.7,388.2,139,389.3,138.7,391z M200.1,402.1c0.4,13.4-11.7,26.9-27.2,26.7c-16-0.2-26.8-12-26.7-26.8
		c0.1-13.1,11.7-27.1,27.1-27C188.2,375,200.8,388.1,200.1,402.1z M331.9,393.2c-0.4,1.4-0.4,3-0.3,4.5c0.3,3.3-0.2,3.9-3.4,3.9
		h-31.8v0c-9.7,0-19.4,0-29.1,0c-18.2-0.1-36.4-0.2-54.6-0.4c-3.6,0-3.8-0.4-4.1-4c-0.1-1.6-0.5-3.2-0.9-4.7
		c-0.8-2.6-0.3-3.4,2.4-3.4c7.5,0,15.1,0,22.6,0c8.8,0,17.7,0,26.5,0c8.4-0.1,16.8-0.3,25.3-0.3c8.2,0,16.5,0.3,24.7,0.3
		c6.6,0.1,13.1,0,19.7,0C332.8,389.1,333.1,389.6,331.9,393.2z M393.6,402.4c0.2,15.7-11.3,26.6-27.2,26.5
		c-15.8-0.1-26.4-10.9-26.1-27.2c0.3-15.6,10.5-25.5,25.2-26.2C380.2,374.9,395,389.8,393.6,402.4z M392.7,377.9
		c-7.3-7.4-16.4-11.2-26.6-11.4c-5.5-0.1-10.9,1.4-16.1,4c-4.4,2.2-8.1,5.1-11.7,8.2c-1.7,1.4-3.3,1.6-5.3,1.4
		c-4.5-0.3-8.9-0.5-13.4-0.3c-4.3,0.2-5.5-0.8-5.5-5c0.1-20,0.1-40,0-59.9c0-13.6,0-27.3-0.1-40.9c0-2,0.7-3,2.8-3
		c1.8,0,3.5,0,5.3,0c0-0.1,0-0.2,0-0.4c8.6,0,17.2,0,25.7,0c4.3,0,8.7,0.2,13,0.5c3.9,0.2,6.6,2.9,9.1,5.4
		c7.3,7.1,12.6,15.6,18.4,23.9c5.1,7.3,10.4,14.4,15.9,21.3c1.8,2.3,4.5,3.8,6.9,5.5c3.6,2.6,7.4,5,10.9,7.8
		c2.6,2.1,2.1,5.4,2.2,8.3c0.2,10.7,0.3,21.3,0.5,32c0.1,3-1.3,4.3-4.2,4.2c-6.4-0.2-12.8-0.1-19.2-0.1c-0.4,0-0.9,0-1.2,0.3
		C396.9,382.1,394.9,380.1,392.7,377.9z M430,398c-0.1,2.1-1.1,3.3-3.3,3.2c-1.6,0-3.2,0-4.8,0h-4.8v0.3c-4.1,0-8.2-0.1-12.2,0
		c-2,0-3.1-0.7-3.1-2.7c0-2.5,0-4.9-1.5-7.1c-0.9-1.5,0.2-2.4,1.8-2.5c1.7-0.1,3.4-0.1,5-0.1c6-0.1,12-0.2,18-0.4
		c4.1-0.1,5,0.8,5,4.8C430.1,394.9,430.1,396.5,430,398z"/>
	<path d="M269.3,123.3c-6.3-5.5-14.3-7.7-21.6-11.2c-3.8-1.8-7.7-3.2-11.5-4.7c-2.7-1.1-5.4-2.4-8.1-3.5c-3.8-1.6-7.6-3.2-11.5-4.8
		c-4.2-1.7-8.5-3.3-12.7-5.1c-3.7-1.5-7.3-3.3-10.9-4.8c-6.4-2.6-12.9-5.2-19.3-7.8c-2.6-1.1-5.1-2.2-7.7-3.3
		c-6.3-2.8-12.5-5.6-18.8-8.3c-4-1.7-8.2-3.1-12.2-5.1c-6.5-3.2-12.9-4.8-20.1-2.6c-4.2,1.3-7.3,3.7-9.5,7.2
		c-1.9,3.2-3.1,6.8-4.6,10.2c-0.2,0.4-0.4,0.9-0.6,1.3c-1.7,4.1-3.4,8.1-5,12.2c-1.7,4.6-3.3,9.2-4.8,13.8c-1,3.1-2,6.3-2.3,9.5
		c-0.3,3.4,0.2,6.7,2.4,9.8c2.3,3.3,4.9,6.3,8.2,8.6c2.4,1.6,2.4,2.8,0.8,5.2c-0.6,0.9-0.9,1.8-1.4,2.8c-1.7,3.5-3.4,7.1-5.1,10.6
		c-1.4,2.9-3,5.8-4.4,8.8c-2.7,5.8-5.2,11.7-7.8,17.5c-1.1,2.4-2.3,4.8-3.4,7.1c-1.8,3.7-3.8,7.4-5.6,11.1
		c-2.7,5.5-5.2,11.2-8.1,16.6c-4.1,7.7-3.9,17.9,2.8,25.2c4,4.3,9.5,5.9,14.4,8.5c3.5,1.8,7.3,3.1,11,4.7c2.4,1,4.9,2.1,7.2,3.2
		c5.1,2.5,10,5.3,15.3,7.3c2.5,1,5.9,1.3,8.4,0.5c4.8-1.5,8.7-4.8,10.7-9.7c1.1-2.7,2.9-3.5,5.8-2.8c2.4,0.6,4.9,1,7.3,1.5
		c9.6,0.8,16.5-8.6,16.1-16.2c-0.1-1.4,0-2.7-0.1-4.1c-0.1-2.1,0.7-3.1,2.8-3.8c3.4-1.2,7.1-2.5,8.2-6.4c0.8-2.9,1-6,1.1-9
		c0-2.5,0.6-4.3,3.2-5.2c1.3-0.5,2.4-1.5,3.5-2.5c6.5-5.5,7.1-14.1,1.8-20.7c-0.7-0.9-1-2.8-0.6-3.9c0.9-2.8,2.3-5.4,3.6-8.1
		c1.1-2.3,2.1-2.5,4.4-1.4c5.4,2.5,10.9,5,16.4,7.3c3.7,1.5,7.5,2.8,11.2,4.2c0.8,0.3,1.5,0.9,2.3,1.3c3.1,1.5,6.1,3.1,9.3,4.4
		c2.8,1.1,5.7,2,8.7,2.6c2.6,0.5,5.6,1,7.9,0.2c4.2-1.4,6.8-5,8.4-9c3.1-7.6,6-15.3,8.8-23c3.1-8.6,6-17.2,8.9-25.8
		C273.5,129.6,272.3,126,269.3,123.3z M146.9,243.2c-1.3,0-2.7-0.2-4-0.6c-5.8-2.1-11.6-4.1-17.2-6.4c-1.9-0.8-3.7-2.3-5-4
		c-1.6-2.1-1.4-4.6-0.1-7c1.3-2.2,2.7-4,5.6-3.6c0.1-0.2,0.1-0.4,0.2-0.6c2.4,1,4.8,1.8,7.2,2.9c3.5,1.5,7,3.1,10.4,4.8
		c2.6,1.2,5.2,2.4,7.7,3.8c0.6,0.3,1.1,1.1,1.4,1.8C154.9,238.4,151.4,243.4,146.9,243.2z M157.1,222.3c-6.7-2.3-13.3-5.1-19.9-7.6
		c-2.4-0.9-4.3-2.1-5.9-4.3c-2.8-4-1.6-9.2,3.1-10.6c1.4-0.4,3.3,0.3,4.8,0.8c4.3,1.5,8.5,3.2,12.7,4.8c3.4,1.3,6.9,2.5,10.1,4.2
		c2.4,1.3,3,3.8,2.9,6.5C165.5,220.3,161.5,223.8,157.1,222.3z M166.4,201.3c-6.4-2.9-13-5.1-19.5-7.8c-2-0.8-4.1-2.1-5.6-3.7
		c-1.1-1.2-2-3.3-1.8-4.9c0.6-3.8,3.6-8,8.9-6.3c5.5,1.7,10.8,3.8,16.1,5.9c3.2,1.3,6.2,3,9.4,4.2c2.3,0.9,3.3,2.4,3,4.6
		C177.5,198.6,171,203.4,166.4,201.3z M229.5,159.5c-1.6,4.2-3.3,8.3-5.1,12.4c-1.2,2.7-2.7,3.2-5.5,2c-6.8-2.9-13.5-5.8-20.3-8.6
		c-2.7-1.1-5.4-2.1-8-3.2c-5-2.1-9.9-4.5-14.9-6.5c-3.8-1.6-7.8-2.9-11.6-4.4c-3-1.1-5.9-2.4-9-3.3c-2.7-0.8-4.9,0.3-5.5,2.1
		c-0.7,2.1,0.6,5.4,2.7,6.3c5.4,2.3,10.9,4.4,16.4,6.7c2.7,1.1,5.3,2.2,7.8,3.7c0.8,0.4,1.4,2.4,1,3.2c-1,2.3-2.5,4.5-4.1,6.5
		c-0.5,0.6-2.2,0.6-3.2,0.3c-7.2-2.5-14.4-5.3-21.7-7.7c-4.3-1.4-7.9,1-11.1,3.3c-5.6,4.1-8.3,9.4-6.2,16.5c0.7,2.5-0.4,3.7-2.7,4.8
		c-4.2,1.9-6.8,5.4-7.4,9.9c-0.3,2.6,0.6,5.3,0.8,8c0.1,0.9-0.2,2-0.7,2.7c-0.5,0.8-1.5,1.3-2.3,1.7c-6.9,3.6-10.4,11.9-7.5,19.1
		c1,2.5,3.4,4.6,5.5,6.5c1.7,1.5,4,2.3,6,3.4c0.9,0.5,2.1,0.9,2.6,1.6c0.6,0.9,1.3,2.4,0.9,3.1c-1.2,2.1-2.7,4.3-5.5,4.1
		c-2.8-0.2-5.8-0.6-8.4-1.6c-3.7-1.3-7.3-3.2-10.9-4.8c-5-2.2-10-4.3-14.9-6.5c-2.8-1.3-5.8-2.3-8.4-3.9c-8-5.1-10.3-9.8-6.4-18.2
		c2.9-6.1,5.4-12.3,8.2-18.4c2.8-5.8,5.8-11.5,8.6-17.3c1.2-2.4,2.2-4.8,3.3-7.2c1.6-3.4,3.1-6.8,4.7-10.2c1.1-2.2,2.2-4.4,3.3-6.6
		c3.7-7.2,7.3-14.4,11.1-21.5c2-3.8,1-7.4-3.1-8.6c-4.7-1.3-7.9-4.2-10-8.3c-0.8-1.6-1-3.8-0.5-5.5c2-7.8,4.6-15.5,8-22.8
		c1.7-3.8,2.8-7.8,4.4-11.6c1.1-2.6,2.4-5.1,3.9-7.4c1.8-2.7,4.7-3.1,7.3-2.8c3.9-0.1,7.1,0.7,10.3,2.4c3.6,1.9,7.5,3.1,11.3,4.7
		c3.6,1.6,7.2,3.4,10.8,5c3.3,1.5,6.6,2.9,9.9,4.2c4.7,2,9.4,3.9,14.2,5.8c3.9,1.5,7.7,3,11.6,4.6c3.8,1.6,7.6,3.3,11.4,5
		c3.3,1.4,6.6,2.8,9.9,4.2c5,2.1,10,4.3,15,6.3c3.3,1.4,6.7,2.6,10,4c2.1,0.9,4.2,2,6.2,3.1c1.5,0.8,2,2.1,1.4,3.7
		c-1.8,4.8-3.8,9.5-5.6,14.3c-1.3,3.3-2.6,6.5-3.8,9.8C232.2,151.5,231,155.5,229.5,159.5z M262.9,133.7c-2,5.7-4.1,11.2-6.2,16.8
		c-1.5,4.1-2.9,8.3-4.5,12.4c-1.7,4.3-3.5,8.6-5.2,12.8c-0.2,0.5-0.6,1-0.7,1.5c-0.3,3.6-2.2,3.8-6.4,4.3c-1.5-0.3-3.6-0.7-5.5-1.3
		c-2.8-0.9-3.3-3.1-2-5.7c1.9-4.2,3.6-8.5,5.3-12.7c1.9-4.8,3.7-9.7,5.5-14.5c1.4-3.8,2.8-7.6,4.3-11.4c1.3-3.3,2.6-6.7,4-10
		c0.6-1.4,1.7-1.6,3-1c1.9,0.9,3.8,1.7,5.7,2.5C262.8,128.7,263.9,130.9,262.9,133.7z"/>
	<path class="st0" d="M265.4,298.1c-0.9-5.9-2.1-11.7-5.6-16.7c-5.5-7.9-11.9-14.7-20.9-19c-7.1-3.5-14.3-5.5-24.2-5.8
		c-4.3-0.5-10.2,1.6-15.8,4.1c-4.6,2-8.8,5.2-12.6,8.6c-12.8,11.3-18.3,25.5-15.8,42.4c0.7,5,2.2,10.1,4.4,14.7
		c3.5,7.2,8.3,13.7,14.8,18.6c4.3,3.3,8.9,6.1,13.9,7.9c5.8,2,11.9,3,18,2.1c4.3-0.6,8.6-1.2,12.7-2.7c5.2-1.9,10-4.8,14.4-8.5
		c7.5-6.4,12.7-14.2,15.5-23.7C266.4,312.8,266.5,305.5,265.4,298.1z M257.5,312.9c-1.7,8.5-5.6,15.7-11.7,21.6
		c-3.2,3.1-7.2,5.5-11,7.9c-8.4,5.1-17.7,4-26.7,2.6c-5.8-0.9-10.8-4.4-15.2-8.4c-5.4-4.9-9.3-10.8-12.1-17.6c-3.3-8-3.2-16-1.7-24
		c0.7-3.8,3.4-7.1,5.2-10.7c2.2-4.4,5.6-7.7,9.3-10.8c7-5.8,14.8-8.8,24.4-8.1c4.8-0.9,9.8,0.7,14.4,2.8c4.1,1.8,7.8,4.7,11.2,7.6
		c5.1,4.3,9.3,9.7,11.6,15.9C257.8,298.4,259,305.5,257.5,312.9z"/>
	<path class="st0" d="M306.2,168.7c-1.8,7.4-4.9,14.3-9.8,20.4c-4.5,5.5-9.4,10.5-15.4,14.4c-3.9,2.6-7.9,5.2-12.8,5.9
		c-1.2,0.2-2.4,0.3-3.6,0.2c-2.3-0.3-3.6-2.8-2.4-4.7c0.9-1.4,2.1-3,3.5-3.5c4.9-1.6,9.2-4,13.3-7c5.3-3.9,9.8-8.5,13.2-14.1
		c4.9-8.1,7.3-16.8,7-24.1c-0.1-8.2-0.4-14.2-3.2-19.8c-1.1-2.2-2.2-4.7-1.1-7.4c0.7-1.6,1.4-3.1,3.5-3.2c2.1,0,3.5,1.3,4,3
		c2,6.3,4.5,12.4,5.1,19.2C308.2,155,307.9,161.9,306.2,168.7z"/>
	<path class="st0" d="M285,154.9c-0.3,9.1-2.9,17.1-9.7,23.3c-2.7,2.4-5.8,4.5-8.9,6.5c-2.2,1.4-5.5,0.9-6.4-0.6
		c-1-1.7,0.3-4.9,2.7-6c12.2-5.6,16.5-19.9,12.6-31.9c-0.5-1.4-0.7-3-0.6-4.5c0.3-2.7,2.9-3.7,5-2c2,1.6,3.7,3.6,4,6.3
		C284,149,284.6,151.9,285,154.9z"/>
	<path class="st1" d="M417.1,401.5c-4.1,0-8.2-0.1-12.2,0c-2,0-3.1-0.7-3.1-2.7c0-2.5-0.1-4.9-1.5-7.1c-0.9-1.5,0.2-2.4,1.8-2.5
		c1.7-0.1,3.4-0.1,5-0.1c6-0.1,12-0.2,18-0.4c4.1-0.1,5,0.8,5,4.8c0,1.5,0,3,0,4.6c-0.1,2.1-1.1,3.3-3.3,3.2c-1.6,0-3.2,0-4.8,0
		c-1.6,0-3.2,0-4.8,0C417.1,401.3,417.1,401.4,417.1,401.5z"/>
	<path d="M393.8,321.4c-2.8-5.5-5.8-10.8-9.2-16c-4-6-8.6-11.5-12.7-17.4c-3.3-4.7-7.3-7.3-13.4-6.9c-7.6,0.5-15.2,0.1-22.8,0.1
		c-6.2,0-8.1,1.7-8.1,8c0,12,0.2,24,0.4,36c0.1,3.4,1.4,5,4.8,5.1c5.3,0.2,10.5,0.1,15.8,0.1c10.8,0,21.6,0,32.5,0v0.4
		c2.2,0,4.5,0,6.7,0C393.1,330.8,396.2,326.1,393.8,321.4z M379.5,322c-2.1,0-4.1-0.3-6.2-0.3c-10.8,0-21.6,0-32.5,0
		c-3.6,0-4-0.4-4.1-4c0-3.9,0-7.9,0-11.8c0-4.1,0-8.2,0-12.3c0-1.9,0.7-2.8,2.7-2.8c7.3,0,14.6,0,21.9,0.1c0.9,0,2.2,0.5,2.7,1.2
		c4.8,7.1,9.4,14.4,14.1,21.6c1.1,1.7,2.3,3.4,3.4,5.2c0.4,0.7,0.5,1.6,0.7,2.4C381.2,321.5,380.4,322,379.5,322z"/>
	<path d="M350.3,345.3c0.1,1.8-1.6,2.8-3.2,3c-2.9,0.3-5.8,0.3-8.6,0.5c0,0,0-0.1,0-0.1c-2.3,0-4.6,0.1-7,0c-2.3-0.1-4.4-1.2-5-3.5
		c-0.3-1.3,0.5-3,1.3-4.3c0.4-0.7,1.8-1.3,2.7-1.3c5-0.1,10.1-0.1,15.1,0c1,0,2.3,0.4,2.8,1.1C349.3,342.1,350.2,343.7,350.3,345.3z
		"/>
	<path d="M191.8,401.7c0.8-9.3-8-18-18.1-18.1c-10.9-0.1-18.8,10.1-18.9,19.3c-0.1,7.8,7.4,17.3,18.3,17.3
		C183.2,420.1,192.8,410.2,191.8,401.7z M173.5,410.8c-5.9-0.1-8.5-2.8-8.7-8.4c-0.1-5.7,5.3-9.6,9.4-9.5c4.3,0.1,9.1,5,8.9,9.1
		C182.9,406.8,178.4,410.9,173.5,410.8z"/>
	<path d="M382.6,394.1c-2.2-4-5.4-7.5-9.6-9c-6.1-2.2-12.1-1.5-17.4,2.8c-6.2,5.1-10.4,15.3-5.2,23.1c4,6,14.8,13.2,23.2,8.9
		c6-3,11.7-10,11.8-16.8c0.2-0.1,0.4-0.2,0.7-0.3C384.9,399.9,384.1,396.9,382.6,394.1z M366.7,411.3c-5,0.7-9.4-5.4-9.3-8.8
		c0.2-5.1,5.3-9.4,9.6-9.3c3.6,0.1,8.5,3.2,8.2,9C375,407.9,371.9,411.3,366.7,411.3z"/>
	<path d="M186.8,116.7c-0.6,2-2,2.8-4.3,2.9c-0.3-0.1-1.1-0.1-1.7-0.4c-2.5-1-5-2-7.5-3c-2.8-1.2-5.6-2.3-8.4-3.5
		c-4.1-1.8-8.2-3.5-12.3-5.3c-1.7-0.7-2.7-1.9-2.6-3.9c0.1-3.5,2.2-5.3,5.6-4.3c3.7,1.1,7.3,2.7,10.9,4.2c4.3,1.8,8.6,3.7,12.9,5.7
		c1.9,0.8,3.8,1.6,5.6,2.7C186.8,112.8,187.4,114.6,186.8,116.7z"/>
	<path class="st0" d="M244.6,318c-1.1,2-1.8,4.3-2.9,6.4c-1.6,3.1-3.4,3.3-5.7,0.9c-0.9-0.9-1.5-2.1-2.3-3c-2.2-2.6-4.5-5.1-6.8-7.7
		c-0.3-0.3-0.8-0.6-1.2-0.7c-0.9-0.2-2.2-0.7-2.7-0.2c-0.6,0.6-1,1.9-0.7,2.8c1,3.6,2.1,7.3,3.5,10.7c1.6,3.7,1.9,4.9,0.1,6.5
		c-2.7,2.5-5.7,2.8-8.5,0.8c-1.5-1.1-2.5-0.9-3.8,0.3c-1.9,1.9-4.4,2-5.8,0.4c-1.2-1.4-1-3.8,1-5.5c4.2-3.7,4.4-8.9,5.4-13.8
		c0.4-2.1-1.4-3.2-3.2-1.9c-3,2.2-5.8,4.7-8.6,7.3c-0.6,0.5-0.8,1.5-1,2.4c-0.3,1.6-0.6,3.3-2.7,3.4c-2.1,0.1-3.7-1-4.5-3
		c-0.4-0.9-0.3-1.9-0.7-2.8c-0.5-1.2-0.9-2.7-1.9-3.5c-2-1.5-3-3.3-2.1-5.6c0.9-2.4,3.3-2.3,5.8-2.5c4,1.3,7.6-0.4,11.1-2.8
		c0.6-0.4,1-1.1,1.5-1.7c-0.5-0.4-1-0.9-1.6-1.3c-0.7-0.4-1.6-0.5-2.2-1c-2.7-2.2-5.2-2.9-8.1-0.3c-1.3,1.1-3.7-0.1-5.1-2.1
		c-1.1-1.5-0.5-2.8,0.7-3.8c1.3-1,1.7-2.2,1.3-3.8c-0.3-1-0.2-2.1-0.2-3.1c0-1.9,0.8-3.5,2.8-4c2-0.4,4-0.4,5.3,1.7
		c2.4,4,5.9,6.9,9.8,9.3c2,1.2,3.2,0.7,3.2-1.6c0.1-3.3,0.1-6.7-3.4-8.6c-0.7-0.4-1.3-1.2-1.9-1.8c-1.3-1.2-2.5-2.7-1.5-4.4
		c0.9-1.3,2.5-2.8,3.9-3c1.1-0.2,2.7,1.3,3.6,2.5c2,2.8,3.7,2.9,5.3,0c1.6-3,3.5-3.7,5.9-2.4c2,1.1,2.8,4.2,1.6,6.6
		c-0.4,0.8-1.2,1.5-1.6,2.4c-1.2,2.9-2.3,5.9-3.2,8.9c-0.2,0.6,0.2,1.9,0.6,2.1c0.7,0.3,1.8,0.1,2.4-0.4c2.3-1.9,4.5-4.1,6.8-6.1
		c0.8-0.8,1.6-1.6,2.5-2.2c3.9-2.7,8.1-0.7,8.8,4.1c0.1,0.8,0.1,1.6,0.2,2.4c0.5,4.5-2.1,7-6.6,7c-3,0.1-6.1,1.1-9.1,1.8
		c-1.3,0.3-1.4,1.4-0.4,2.2c2.7,2.3,5.6,3.9,9.3,3.6c1.7-0.2,3.6-0.3,5.2,0.3C245.7,311.7,246.4,314.6,244.6,318z"/>
</g>
</svg>
