<?xml version="1.0" encoding="utf-8"?>
<!-- Generator: Adobe Illustrator 24.0.1, SVG Export Plug-In . SVG Version: 6.00 Build 0)  -->
<svg version="1.1" id="Layer_1" xmlns="http://www.w3.org/2000/svg" xmlns:xlink="http://www.w3.org/1999/xlink" x="0px" y="0px"
	 viewBox="0 0 500 500" style="enable-background:new 0 0 500 500;" xml:space="preserve">
<style type="text/css">
	.st0{fill:#FFFFFF;}
	.st1{fill:#1671A2;}
</style>
<g>
	<path d="M402.1,98.9c0-1.6-0.2-3.3-0.4-4.9c-0.5-3.2-3.4-5.7-6.7-5.7c-4.6,0-9.2,0-13.9,0c-3.3,0-5.6,1.5-6.7,4.5
		c-0.4,1.2-0.5,2.5-0.5,3.8c0,30.3,0,60.7,0,91c0,1.4,0.2,2.7-0.1,4c-0.2,0.9-0.8,1.9-1.6,2.3c-2.7,1.3-6.1-1.3-6-4.3
		c0.2-2.6,0.3-5.3,0.3-7.9c-0.1-10.5-0.2-21.1-0.3-31.6c0-4,0.1-8-0.1-11.9c-0.2-4.3-1-5.2-5.1-6c-0.8-0.2-1.7-0.3-2.5-0.3
		c-8.3-0.2-16.6-0.3-24.9-0.4c-8.4-0.1-16.8-0.1-25.2,0c-11.4,0-22.8,0.2-34.2,0.3c-9.7,0-19.5-0.2-29.2-0.3c-1.8,0-2.8-1.1-2.8-2.8
		c0-11.3,0.1-22.6,0-33.9c0-3.9-0.2-7.8-0.4-11.7c-0.3-4.4-1.8-5.7-6.2-5.8c-5.9,0-11.8,0-17.7-0.1c-7.5-0.1-14.9-0.3-22.4-0.3
		c-3.8,0-7.7,0.3-11.5,0.3c-4.8,0-9.5-0.3-14.3-0.2c-6.8,0-13.5,0.2-20.3,0.3c-1.3,0-2.6-0.1-3.8,0c-3.9,0.2-5.2,1.6-5.2,5.5
		c0,8.4,0,16.8,0,25.2c0,6,0,12,0,18c0,1.1,0.1,2.3,0,3.4c-0.1,1.3-0.8,2.2-2.3,2.2c-4.8-0.1-9.7-0.2-14.5-0.3
		c-2.8-0.1-4.7,1.2-5.9,3.7c-1.5,3-0.8,6.1-0.8,9.2c0,13.2-0.2,26.5-0.2,39.7c0,1.7,0,3.4,0.4,5.1c0.4,2.2-0.4,3.6-2.7,3.9
		c-1.1,0.1-2.3,0.2-3.4,0.3c-2.1,0.3-3.3-0.7-3.2-2.9c0-1.1,0.2-2.1,0.2-3.2c0-30.5,0-61,0-91.5c0-4.8-2.5-7.4-7.4-7.5
		c-4.3-0.1-8.7,0-13,0c-4.2,0-6.5,2-6.9,6.2c-0.3,2.3-0.4,4.5-0.4,6.8c0.1,52,0.2,104,0.3,156c0,15.3,0,30.5,0.1,45.7
		c0.1,35.1,0.3,70.2,0.4,105.4c0,1.1,0,2.1,0.2,3.2c0.4,2.3,1.8,4,3.8,4.1c6.1,0.1,12.2,0.2,18.3,0c3-0.1,4.6-1.9,4.6-4.6
		c0.1-8.9,0.1-17.8,0-26.7c0-3.3,0.1-3.6,3.3-3.6c16,0,32.1,0,48.1,0c46,0,92,0,138.1,0c1.5,0,3.2-0.2,4.6-0.7
		c2.2-0.7,2.5-2.8,2.5-4.8c-0.1-1.8-1.3-2.9-2.9-3.2c-1.5-0.3-3.1-0.4-4.7-0.4c-15.2,0.1-30.5,0.3-45.7,0.4c-9.8,0-19.7,0-29.5,0
		c-31.2,0-62.4,0-93.6,0c-5.9,0-11.8,0.1-17.7,0c-0.7,0-2.1-0.9-2.1-1.5c-0.2-2.5-0.2-5.1,0-7.7c0.1-1.4,1-2,2.6-1.8
		c1.5,0.2,3,0.3,4.5,0.3c10.6-0.1,21.2-0.3,31.8-0.4c3.6,0,7.3,0.3,10.9,0.3c17,0,34,0,51.1,0c29.3,0,58.6,0.1,87.8,0
		c1.9,0,4-0.4,5.8-1.2c1-0.4,1.9-2,2-3.1c0.3-3.1-1.3-4.8-4.7-5c-3.7-0.2-7.4,0-11.1-0.1c-2,0-2.6-0.8-2.5-2.8
		c0.1-1.3,0.3-2.5,0.3-3.8c-0.1-15.7-0.2-31.5-0.3-47.2c0-0.4,0-0.7,0-1.1c-0.2-3.9-2.3-6.1-6.2-6.1c-8.8-0.2-17.6-0.3-26.5-0.4
		c-4.4,0-4.2,0-4.2-4.5c0-14-0.2-28.1-0.3-42.1c0-2.5-1.4-4-3.7-4.7c-1.3-0.4-2.7-0.5-4-0.5c-20.2-0.1-40.5-0.1-60.7-0.2
		c-9.6,0-19.2-0.2-28.8-0.2c-4.1,0-5.5,1.3-5.8,5.4c0,0.6,0,1.3,0,1.9c0,12,0,23.9,0,35.9c0,1.8,0.1,3.6,0.3,5.3
		c0.4,3.3-0.2,3.9-3.5,3.9c-6.4-0.1-12.8-0.3-19.2-0.3c-4.5,0-7.5,3-7.5,7.5c0,14.2,0,28.4,0,42.5c0,1.7-0.1,3.4,0.1,5.1
		c0.4,5.8,0.4,5.8-5.5,6.2c-0.1,0-0.3,0-0.4,0c-1.9,0-2.7-0.9-2.5-2.9c0.1-1.1,0.2-2.3,0.2-3.4c0-37.6,0-75.2,0-112.9
		c0-2.9,0-5.8-0.1-8.8c0-1.9,0.8-2.6,2.6-2.5c2.1,0.1,4.1,0.1,6.2,0.1h124v-0.1c43.5,0,86.9,0,130.4,0c2.1,0,2.8,0.6,2.8,2.8
		c0,1.8-0.1,3.7,0.1,5.5c0.3,2.8,2.5,4.9,5,5c2.6,0.1,4-1.3,4.5-4.6c0.2-1,0.2-2.1,0.2-3.2c0-7.2,0-14.4,0-21.6
		c-0.1-18.1-0.2-36.3-0.3-54.4c0-11.2,0-22.4-0.1-33.6c0-5.6-0.2-11.1-0.3-16.7c0-1.8,1.4-3.5,3.2-3.6c1.1-0.1,2.1-0.1,3.2,0
		c2.5,0.2,4,2.1,3.8,4.6c-0.1,1.9-0.1,3.8-0.1,5.8c0,35.1,0,70.2,0,105.4c0,1.8-0.1,3.6-0.1,5.3c-0.1,3.9-0.3,7.8-0.2,11.7
		c0,1.2,0.5,2.5,1.1,3.6c1.2,2.4,3.8,2.7,5.7,0.8c1.4-1.4,2.1-3.1,2.1-5.2c0.1-12.1,0.3-24.2,0.3-36.3
		C402.2,161.4,402.1,130.2,402.1,98.9z M95.1,406.8c-0.3,0-0.7,0-1.1,0v0c-0.8,0-1.7,0.1-2.6,0c-1.4-0.2-2.1-1-2.1-2.5
		c0.1-8.9,0.3-17.8,0.3-26.7c0-46.2,0-92.3,0-138.5c0-15.5-0.3-30.9-0.3-46.4c0-11.2,0.2-22.4,0.3-33.5c0-3.7-0.3-7.4-0.3-11.1
		c0.1-14.2,0.2-28.5,0.3-42.7c0-1.3-0.1-2.7-0.2-4c-0.3-3.1,1-4.6,4.2-4.6c0.6,0,1.1-0.2,1.7-0.1c3.5,0.4,5.2,1.9,4.5,5.2
		c-0.2,0.8-0.2,1.7-0.2,2.5c0,12.4,0,24.8-0.1,37.2c-0.1,18.3-0.3,36.6-0.3,54.9c0,31.1,0.3,62.2,0.3,93.3c0,20.8-0.3,41.6-0.3,62.4
		c0,16.3,0.3,32.6,0.4,48.9c0,0.3,0,0.6,0,0.9C100.6,405.8,100,406.6,95.1,406.8z M252.8,325.2c2.1-0.1,3.5-1.1,3.7-3.1
		c0.3-2.9,0.2-5.8,0.2-8.7c0-3.7-0.2-7.4-0.2-11c0-2,1.5-3.3,3.8-3.2c3.1,0,6.2,0.3,9.4,0.3c1.6,0,3.3-0.1,4.9-0.2
		c3.2-0.3,3.8,0.2,3.8,3.4c0,6-0.1,12-0.1,17.9c0,8.3,0,16.5,0,24.8c0,1.1,0.1,2.1,0.2,3.2c0.3,2.4-0.3,3.2-2.7,3.2
		c-6.3,0-12.7,0-19,0h-15v0c-11.1,0-22.2,0-33.3,0c-0.8,0-1.9,0.1-2.5-0.3c-0.7-0.5-1.4-1.4-1.4-2.2c-0.1-2,0.2-4.1,0.2-6.1
		c0-10,0-19.9,0-29.9c0-3.5,0-7.1,0-10.6c0-2.8,1.2-3.8,3.9-3.8c4.9,0.1,9.8,0.2,14.7,0.2c1.3,0,2.1,0.3,2.3,1.6
		c0.1,1.1,0.2,2.1,0.2,3.2c0,5.8-0.1,11.5,0.1,17.3c0.2,4.3,4.3,5.8,7.8,3.1c3.4-2.6,7.3-3.1,11.3-2.2c1.1,0.2,2.3,0.9,3.1,1.7
		C249.5,324.9,251,325.3,252.8,325.2z M245.1,299.6c1.8-0.1,2.6,0.6,2.7,2.2c0.1,1.6,0,3.3,0,4.9c0,0,0,0,0,0c0,1.6,0.1,3.1,0,4.7
		c-0.1,2-1.1,2.6-2.8,1.5c-2.7-1.7-5.2-1.2-7.9,0.1c-0.8,0.4-2.1,0.9-2.4,0.6c-0.6-0.5-0.8-1.7-0.9-2.6c-0.1-2.9,0-5.8,0-8.7
		c0-3,0.8-3.5,3.7-3.1C240,299.6,242.6,299.7,245.1,299.6z M194.4,247.8c1,0,2,0,3,0v0.1c1.7-0.1,3.4-0.2,5.1-0.4
		c2.6-0.2,3.8,1.3,3.6,3.9c-0.2,2.8,0.2,5.6,0.2,8.4c0,0.8,0.1,2.1-0.4,2.4c-0.6,0.4-1.7,0-2.5-0.2c-0.5-0.1-0.9-0.5-1.2-0.8
		c-1.6-1.5-3.2-1.3-4.9-0.3c-0.9,0.5-1.9,1.1-2.9,1.4c-2.3,0.8-3-0.1-2.8-2.5c0.2-2.9,0.2-5.8,0-8.6
		C191.3,248.6,191.8,247.8,194.4,247.8z M154.5,286.7c0.2-1.8,0.2-3.6,0.2-5.3c0-10.3,0-20.5,0-30.8c0-3.2,0.4-3.6,3.7-3.7
		c7.5,0,15.1-0.1,22.6-0.2c1.6,0,2.2,1,2.2,2.3c0.1,1.6-0.2,3.3-0.2,4.9c0,5.1-0.1,10.2-0.1,15.4c0,0.8,0.1,1.6,0.3,2.3
		c0.7,3.3,3.3,4.5,6.3,3c1.4-0.7,2.6-1.7,3.8-2.8c3-2.6,7.8-2.5,10.7,0.2c1.3,1.3,2.8,2.4,4.4,3.4c2.2,1.3,5.2-0.1,6.3-2.9
		c0.4-1.1,0.6-2.4,0.6-3.6c0-6.1-0.1-12.2-0.2-18.3c0-2.3,1.1-3.2,3.3-2.9c1.8,0.2,3.5,0.2,5.3,0.2c4.8,0,9.5,0,14.3,0
		c2.5,0,3.1,0.6,3,3.2c0,11,0,22.1,0,33.1c0,0.6,0.1,1.3,0.1,1.9c0.5,3.9,0.4,4.1-3.7,4.1c-13.3,0-26.5,0-39.7,0v0.1
		c-13.4,0-26.8,0-40.2,0C154.5,290.2,154.2,289.7,154.5,286.7z M154,303c-0.1-2.7,0.8-3.5,3.5-3.3c2.3,0.2,4.7,0.2,7,0
		c2.2-0.1,3,0.4,2.6,2.7c0.1,2.5,0.3,5.1,0.4,7.6c0.1,2.5-0.5,2.9-2.9,2.2c-2.8-0.9-5.4-1-7.7,1.3c-0.5,0.5-1.8,0.7-2.5,0.4
		c-0.4-0.2-0.6-1.4-0.6-2.2C153.9,308.8,154.1,305.9,154,303z M128.7,298.8c4.6,0.3,9.2,0.5,13.8,0.7c2.5,0.1,3.1,1,3.1,3.5
		c-0.2,6-0.4,11.9-0.2,17.9c0.1,3.9,3.3,5.4,6.7,3.5c2.2-1.2,4.3-2.7,6.6-3.4c1.7-0.5,3.8-0.3,5.5,0.3c2,0.7,3.8,2.1,5.7,3.2
		c3.3,1.8,6.3,0,6.3-3.7c-0.1-5.9-0.2-11.8-0.5-17.7c-0.1-2.9,0.7-3.7,3.6-3.6c4.3,0.1,8.7,0.1,13-0.1c2.4-0.1,3.7,1,3.7,3.4
		c-0.1,14.2-0.2,28.5-0.3,42.7c0,1,0.1,2,0.3,3c0.4,2.3-0.3,3.2-2.7,3.2c-1.1,0-2.1,0-3.2,0h-24.6v0h-36.7c-2.8,0-3.5-1-3.1-3.8
		c0.3-2.2-0.1-4.5-0.1-6.8c0-11.3,0-22.5-0.1-33.8c0-1.8-0.3-3.5-0.4-5.3C125.1,299.7,126.3,298.7,128.7,298.8z M315.6,144.4
		c-0.2-2.3,0.7-3.5,3.1-3.1c2.3-0.1,4.5-0.2,6.8-0.3c1.8-0.1,2.7,0.9,2.7,2.5c-0.1,3-0.2,6-0.2,8.9c0,2-0.7,2.5-2.6,2.4
		c-2.1-0.1-4.2-0.1-6.3,0.1c-2.9,0.3-3.7-0.5-3.4-3.4C315.8,149.3,315.8,146.8,315.6,144.4z M285.4,141c6.2,0,12.4,0,18.6,0
		c2,0,2.8,1.1,2.7,3.2c-0.1,6.4-0.3,12.8-0.2,19.2c0,2.8,2.7,4.6,5.5,3.7c1.4-0.5,2.7-1.3,3.7-2.3c1.3-1.2,2.5-1.7,4.2-1.5
		c1.6,0.2,3.3-0.2,4.9,0.1c1.2,0.2,2.4,0.9,3.4,1.7c1.9,1.6,4,2.1,6.2,1.2c1.2-0.5,2.3-1.9,2.7-3.2c0.6-1.8,0.5-3.8,0.5-5.7
		c0-4.5-0.2-9.1-0.3-13.7c0-1.7,0.9-2.7,2.6-2.7c5.3-0.1,10.7,0,16-0.1c1.9,0,2.3,1.2,2.3,2.9c0,7.7,0,15.4,0,23.1h0
		c0,7.5,0,15,0,22.4c0,0.7,0,1.4-0.2,2.1c-0.3,1.5-1.2,2.1-2.8,1.8c-1.8-0.3-3.7-0.5-5.5-0.5c-21.2,0-42.3,0-63.5,0
		c-2.8,0-3.1-0.5-3-3.3c0.1-6.8,0.1-13.5,0.1-20.3c0-7,0-14,0-20.9c0-1.5-0.2-3-0.3-4.5C282.8,141.9,283.5,141,285.4,141z
		 M251.9,165.5c2-0.5,2.6-2.3,2.6-4c0.1-5.6,0.2-11.3,0-16.9c-0.1-2.7,0.4-3.7,3.2-3.7c4.8,0,9.7,0,14.5,0c1.9,0,2.7,0.7,2.7,2.7
		c-0.1,7.8-0.2,15.7-0.2,23.5c0,7.6,0.1,15.2,0.1,22.8c0,2-0.8,2.8-2.8,2.8c-6.9-0.1-13.8,0-20.7,0v-0.4c-13.6,0-27.2,0-40.8,0
		c-1.6,0-3.1,0-4.7,0.2c-1.9,0.2-2.4-0.8-2.4-2.4c0.1-14.5,0.3-29.1,0.4-43.6c0-0.4,0-0.7,0-1.1c-0.4-4.9-0.4-4.9,4.5-5
		c4.3,0,8.7-0.1,13-0.2c1.9,0,2.6,1.2,2.6,2.7c0.1,4.3,0,8.7-0.1,13c0,1.8-0.2,3.7-0.3,5.5c0,1.7,0,3.4,1.9,4.1c2,0.8,4.1,1,5.8-0.6
		c3.2-3,7.1-3,11-2.6c1.4,0.1,2.9,1.2,4,2.1C248,166.1,249.9,166,251.9,165.5z M244.4,141.1c2.1,0.1,2.2,1.1,1.7,3.1
		c-0.5,2.4-0.4,4.9-0.7,7.3c-0.1,0.8,0,2.2-0.4,2.3c-0.8,0.3-2,0.3-2.8-0.2c-1.9-1-3.6-0.9-5.5-0.1c-3.2,1.5-4.1,0.8-3.9-2.5
		c0-0.6,0-1.1,0-1.7c0.1,0,0.2,0,0.3,0c-0.3-1.9-0.5-3.8-0.8-5.6c-0.3-1.7,0.6-2.5,2-2.6C237.7,140.9,241,140.9,244.4,141.1z
		 M185.7,86.2c1.9-0.1,3.8,0,5.8,0v0c1.8,0,3.5,0,5.3,0c1.5,0,2.4,0.8,2.3,2.4c-0.1,3.3-0.3,6.5-0.3,9.8c-0.1,2.7-0.6,3.1-2.9,1.8
		c-2.5-1.4-5-1.1-7.6-0.2c-3.7,1.4-4.5,0.7-4.5-3.3c0-2.7-0.1-5.4-0.3-8.1C183.3,86.9,184.4,86.3,185.7,86.2z M151.2,86.2
		c7.2,0,14.4,0,21.6,0c1.5,0,2.7,0.5,2.6,2.4c-0.2,3.8-0.4,7.7-0.5,11.5c-0.1,2.6-0.3,5.3,0,7.9c0.2,1.6,0.9,3.5,2,4.7
		c1.2,1.4,3,1.3,4.6,0c1-0.8,2.1-1.5,3-2.3c4.3-3.6,10.4-3.1,14.3,1.4c1.4,1.6,3,2.5,5.2,2.3c2.1-0.1,3.3-1.2,3.6-3.3
		c0.1-1.1,0.1-2.1,0.1-3.2c-0.3-6.3-0.5-12.6-0.8-19c-0.1-1.6,0.7-2.4,2.3-2.4c7.3,0,14.7-0.1,22,0c2.2,0,2.6,1,2.5,3
		c-0.3,4.5-0.5,9-0.5,13.4c0,7.3,0.1,14.7,0.2,22c0,1.1,0.1,2.1,0.2,3.2c0.3,2.2-0.5,3.2-2.8,3.3c-2.4,0.1-4.7,0-7.1,0
		c-5,0-10.1,0-15.2,0h-15.2c0,0,0,0,0,0c-11.9,0-23.8,0-35.7,0c-2.3,0-4.7,0-7-0.1c-1.5-0.1-2-1.1-1.9-2.5c0.2-3.3,0.4-6.5,0.4-9.8
		c0-7.2,0-14.4,0-21.6c0-2.7-0.2-5.4-0.4-8.1C148.5,87.2,149.2,86.2,151.2,86.2z M153.5,143.1c0-1.5,0.9-2.5,2.6-2.5
		c2.6,0.1,5.1,0.2,7.7,0.3c2.5,0.1,3,1,2.5,3.4c-0.3,1.4-0.1,2.9-0.1,4.4c0,1,0.3,2,0.4,3c0,1.2-0.6,1.7-1.8,1.4
		c-1-0.2-1.9-0.5-2.9-0.7c-2-0.4-3.9-0.4-5.6,1.1c-0.5,0.4-1.5,0.7-2.1,0.5c-0.5-0.2-0.7-1.2-1-1.8c0.1,0,0.3-0.1,0.4-0.1
		C153.5,149,153.4,146,153.5,143.1z M130,140.1c3.8,0.1,7.7,0.2,11.5,0.4c2.8,0.1,3.7,1.4,3.5,4.3c-0.2,3-0.1,6-0.1,9
		c0,2.7-0.3,5.4,0.1,8c0.5,3.6,3.4,4.8,6.5,2.9c3.3-2.1,7.1-2.6,10.8-2.7c2,0,4.2,1.2,6,2.3c1.8,1.1,3.5,1.7,5.4,0.8
		c2-0.8,1.9-2.7,1.9-4.4c0-5.8-0.1-11.5-0.2-17.3c0-1.9,0.8-3,2.5-2.9c4.8,0.1,9.5,0.2,14.3,0.3c2.6,0.1,3,0.6,2.8,3.3
		c-0.2,2-0.1,4-0.1,6c0,11.5,0,23.1,0,34.6c0,1.5,0.1,3,0.3,4.5c0.4,2.7-0.3,3.5-3.1,3.5c-10.3,0-20.5,0-30.8,0
		c-9.8,0-19.5,0-29.3,0c-1,0-2,0.1-3,0.2c-2,0.2-3-0.8-3-2.8c0-9.5,0-19.1,0-28.6c0-5.8,0-11.7,0-17.5
		C126,140.9,126.9,140,130,140.1z M374.3,205.7c-0.2,1.5-0.2,3-0.1,4.5c0.1,2.3-0.6,3.1-2.9,3c-6.3-0.1-12.5-0.4-18.8-0.4
		c-57.3,0-114.5,0-171.8,0h-38.9v0c-8.7,0-17.4,0-26.1,0c-1.7,0-3.4,0.2-5.1,0.4c-2.3,0.2-3-0.6-2.8-2.8c0.1-1.6,0.1-3.3,0-4.9
		c-0.2-2.6,0.8-3.6,3.3-3.3c1.6,0.2,3.1,0.3,4.7,0.3c22.6,0,45.2,0,67.7,0c47.3-0.1,94.5-0.2,141.8-0.3c13.4,0,26.8,0.2,40.1,0.3
		c1.8,0,3.5-0.2,5.3-0.3C373.4,201.9,374.5,203.2,374.3,205.7z"/>
	<path d="M419.3,389.8c0-21.3,0-42.6,0-63.9c0.1-22.6,0.3-45.3,0.3-67.9c0-9.4-8-19.2-18.8-19.2c-15.5,0-30.9-0.3-46.4-0.3
		c-8.4,0-16.8,0-25.2,0.5c-3.3,0.2-7.1,0.9-9.7,2.8c-6.1,4.3-9.8,10.5-10.1,18.1c-0.2,3.8,0.3,7.7,0.3,11.5
		c-0.1,10.6-0.3,21.2-0.4,31.8c-0.1,16.8,0,33.6,0,50.4h0c0,16.8-0.1,33.6,0,50.4c0,5.2,1.7,9.9,5.8,13.5c4,3.5,8.7,5.5,14.2,5.5
		c14.3,0,28.6,0,42.9,0.1c10,0,19.9,0,29.9-0.1c1.9,0,4-0.3,5.6-1.1c9.1-4.7,11.4-10.6,11.8-20C419.8,397.9,419.3,393.8,419.3,389.8
		z M319.2,256c0.4-1.3,0.8-2.6,1.4-3.8c1.9-3.8,5.6-4.6,9.4-4.8c8.5-0.4,17.1-0.8,25.6-0.8c15.1,0,30.1,0.3,45.2,0.3
		c5.8,0,9.6,4.9,10,9.7c0.2,2.1-0.9,3.1-3.3,3.2c-8.5,0.1-17.1,0.3-25.6,0.4c-8.5,0.1-17.1,0.3-25.6,0.4c-6.7,0.1-13.4,0-20.1,0
		v-0.4c-4.6,0-9.3,0-13.9,0C319.3,260.2,318.3,258.9,319.2,256z M360.7,414.4c-0.8,0-1.6,0.2-2.5,0.1c-7.9,0-15.8,0-23.7-0.1
		c-2.9-0.1-5.8-0.5-8.7-0.9c-5.6-0.8-7.6-5.3-8.2-10c-0.2-1.7-0.2-3.4-0.3-5.1c-0.1-1.6,0.7-2.5,2.2-2.6c1.6-0.1,3.3,0,4.9,0
		c9.3,0,18.5,0,27.8-0.1c1.5,0,3-0.3,4.5-0.3c0.7,0,1.4,0.5,2.1,0.7c-0.3,0.6-0.5,1.5-1,1.9c-2.7,2.3-3.5,5.2-2.6,8.4
		c0.3,1.1,1,2.2,1.7,3.1c1.3,1.5,2.7,2.8,4.1,4.2C360.9,414,360.8,414.2,360.7,414.4z M364.3,406.4c-0.5-1-0.9-1.6-0.8-2
		c0.1-0.5,0.8-0.8,1.2-1.2c0.4,0.4,1.1,0.9,1.1,1.3C365.6,405,365,405.4,364.3,406.4z M411.1,399.2c-0.1,2.1-0.3,4.1-0.5,6.2
		c-0.5,6.5-7.2,9.5-12.5,9.4c-8.4-0.1-16.8,0-25.2,0h-4.4c-0.1-0.2-0.3-0.5-0.4-0.7c0.8-0.9,1.5-1.8,2.3-2.6
		c5.1-4.3,5.1-9.7-0.1-13.9c-0.5-0.4-0.8-1.2-1.3-1.8c0.7-0.2,1.4-0.6,2.1-0.6c12,0,24.1,0,36.1,0
		C410.4,395.3,411.3,396.2,411.1,399.2z M411.3,378.8c0,1.6,0,3.3-0.1,4.9c-0.3,2.8-1.6,3.7-4.3,3.3c-1.1-0.1-2.3-0.3-3.4-0.3
		c-14.5,0-29.1,0-43.6,0c-11,0.1-21.9,0.3-32.9,0.4c-1.6,0-3.3,0.3-4.9,0.3c-4,0.1-4.8-0.6-4.8-4.6c0-4.1,0-8.3,0-12.4v-5.1
		c-0.1,0-0.3,0-0.4,0c0-6.9-0.1-13.8,0-20.7c0.3-12,0.8-24,1.1-36.1c0.2-6.2,0.4-12.4,0.5-18.6c0.1-5.8,0.1-11.5,0-17.3
		c-0.1-2.9,1.6-5.3,4.8-4.3c1.7,0.5,3.5,0.2,5.3,0.2c11.3,0,22.5,0,33.8,0c13.3-0.1,26.6-0.3,39.9-0.5c1.8,0,3.5-0.3,5.3-0.5
		c1.9-0.3,3.1,0.5,3.3,2.4c0.1,1.6,0,3.3,0,4.9c0.1,19.6,0.2,39.3,0.4,59c0.1,6.3,0.7,12.5,0.7,18.8
		C411.9,361.4,411.5,370.1,411.3,378.8z"/>
	<path class="st0" d="M161.3,192.6c-9.8,0-19.5,0-29.3,0c-1,0-2,0.1-3,0.1c-2,0.2-3-0.8-3-2.8c0-9.5,0-19.1,0-28.6
		c0-5.8,0-11.7,0-17.5c0-3.1,0.9-3.9,4-3.8c3.8,0.1,7.7,0.2,11.5,0.4c2.8,0.1,3.7,1.4,3.5,4.3c-0.2,3-0.1,6-0.2,9
		c0,2.7-0.3,5.4,0.1,8.1c0.5,3.6,3.4,4.8,6.5,2.9c3.4-2.1,7.1-2.6,10.9-2.7c2,0,4.2,1.2,6,2.3c1.8,1.1,3.5,1.7,5.4,0.8
		c2-0.8,1.9-2.7,1.9-4.4c0-5.8-0.1-11.5-0.2-17.3c0-1.9,0.8-3,2.5-2.9c4.8,0.1,9.5,0.2,14.3,0.3c2.6,0.1,3,0.6,2.8,3.3
		c-0.2,2-0.1,4-0.1,6c0,11.5,0,23.1,0,34.6c0,1.5,0.1,3,0.3,4.5c0.4,2.7-0.3,3.4-3.1,3.5C181.9,192.7,171.6,192.6,161.3,192.6z"/>
	<path class="st0" d="M141.8,212.8c-8.7,0-17.4,0-26.1,0c-1.7,0-3.4,0.2-5.1,0.4c-2.3,0.2-3-0.6-2.8-2.8c0.1-1.6,0.1-3.3,0-4.9
		c-0.2-2.6,0.8-3.6,3.3-3.3c1.6,0.2,3.1,0.3,4.7,0.3c22.6,0,45.2,0,67.7,0c47.3-0.1,94.5-0.2,141.8-0.3c13.4,0,26.8,0.2,40.2,0.3
		c1.8,0,3.5-0.2,5.3-0.3c2.5-0.2,3.7,1,3.4,3.6c-0.2,1.5-0.2,3-0.1,4.5c0.1,2.3-0.6,3.1-2.9,3c-6.3-0.1-12.5-0.4-18.8-0.4
		c-57.3,0-114.5,0-171.8,0C167.8,212.8,154.8,212.8,141.8,212.8C141.8,212.8,141.8,212.8,141.8,212.8z"/>
	<path class="st0" d="M191.5,86.2c1.8,0,3.5,0,5.3,0c1.6,0,2.4,0.8,2.3,2.4c-0.1,3.3-0.3,6.5-0.3,9.8c-0.1,2.7-0.6,3.1-2.9,1.8
		c-2.5-1.4-5-1.1-7.6-0.2c-3.7,1.4-4.5,0.7-4.5-3.3c0-2.7-0.1-5.4-0.3-8.1c-0.1-1.8,0.9-2.3,2.3-2.4
		C187.7,86.1,189.6,86.2,191.5,86.2C191.5,86.2,191.5,86.2,191.5,86.2z"/>
	<path class="st0" d="M153.5,152c0-3-0.1-6,0-8.9c0-1.5,0.9-2.5,2.6-2.4c2.6,0.1,5.1,0.2,7.7,0.3c2.5,0.1,3.1,1,2.5,3.4
		c-0.3,1.4-0.1,2.9-0.1,4.4c0,1,0.3,2,0.3,2.9c0,1.2-0.6,1.7-1.8,1.4c-1-0.2-1.9-0.5-2.9-0.7c-2-0.4-3.9-0.4-5.6,1.1
		c-0.5,0.4-1.5,0.7-2.1,0.5c-0.5-0.2-0.7-1.2-1-1.8C153.3,152.1,153.4,152,153.5,152z"/>
	<path class="st0" d="M360.7,414.4c-0.8,0.1-1.6,0.2-2.5,0.2c-7.9,0-15.8,0-23.7-0.1c-2.9-0.1-5.8-0.5-8.7-0.9
		c-5.6-0.8-7.6-5.3-8.2-10c-0.2-1.7-0.2-3.4-0.3-5.1c-0.1-1.6,0.7-2.5,2.2-2.6c1.6-0.1,3.3,0,4.9,0c9.3,0,18.5,0,27.8-0.1
		c1.5,0,3-0.3,4.5-0.3c0.7,0,1.4,0.5,2.1,0.7c-0.3,0.7-0.5,1.5-1,1.9c-2.7,2.3-3.5,5.2-2.6,8.5c0.3,1.1,1,2.2,1.7,3.1
		c1.3,1.5,2.7,2.8,4.1,4.2C360.8,414,360.8,414.2,360.7,414.4z"/>
	<path class="st0" d="M364.3,406.4c-0.4-1-0.9-1.6-0.8-2c0.1-0.5,0.8-0.8,1.2-1.2c0.4,0.4,1.1,0.9,1.1,1.3
		C365.6,405,365,405.4,364.3,406.4z"/>
	<path d="M351.4,187.9c-3.2,0.2-6.4,0-9.6,0c0-0.1,0-0.2,0-0.3c-3.8,0-7.7,0.1-11.5,0c-3-0.1-3.9-1.4-3.8-4.5c0.1-2.8,1-3.6,4.1-3.7
		c6.5-0.3,12.9-0.6,19.4-0.8c3.6-0.1,5,1.2,5.4,4.7C355.6,186.1,354.5,187.7,351.4,187.9z"/>
	<path class="st1" d="M406.8,338c-0.9-7.8-1.1-15.7-4.2-23c-1.1-2.7-2.4-5.3-3.8-7.8c-0.4-0.8-1.4-1.6-2.3-1.8
		c-4.5-1-9-1.9-13.5-2.5c-2.3-0.3-3.5-0.9-3.5-3c0-1.9-0.9-3.2-2.6-3.7c-2.3-0.7-4.7-1.5-7-1.7c-6.3-0.5-12.6-0.7-19-0.9
		c-2.6-0.1-5.3,0-7.9,0.4c-5.8,0.7-7.8,2.9-8.7,8.4c-0.1,0.5-0.1,1-0.2,1.5c-0.5,2.8-0.9,3-3.7,2.3c-4-1.1-5.6-0.3-7,3.6
		c-0.6,1.5-1.1,3.1-1.1,4.8c-0.2,6.4-0.1,12.8-0.3,19.2c-0.1,1.9-0.5,4-1.4,5.7c-2,4-0.4,7.4,4.1,7.8c2.7,0.3,4.4,1.6,5.5,4.1
		c2,4.8,6.3,6.1,11.2,7.5c2.4-1,4.9-2,7.5-3c2.1-0.8,3.6-2.1,4.2-4.2c0.5-1.7,1.7-2.2,3.4-2.3c5-0.1,10.1-0.5,15.1-0.7
		c1.9-0.1,3.6,0.5,4.4,2.4c2.5,5.4,7.7,6.3,12.7,7.3c1,0.2,2.4-0.2,3.2-0.8c2.4-1.7,4.5-3.6,6.8-5.4c1.1-0.9,2.2-2,3.5-2.7
		c2.3-1.3,4.2-3.1,4.7-5.8C407.1,341.9,407,339.9,406.8,338z M345,348.6c-3,2.2-5.8,1.8-7.9-1.3c-0.4-0.6-0.5-2.3-0.1-2.6
		c1.7-1.3,3.7-2.2,4.8-2.8c3.2-0.1,4,1.5,4.7,3.1C347,346.5,346.2,347.7,345,348.6z M367.2,340.6c-3.9,0.2-7.8,0.3-11.7,0.5
		c-2.3,0.1-4.2-0.6-4.9-2.9c-1.1-3.4-3.8-4.5-6.8-4.3c-2.9,0.1-5.7,0.9-8.5,1.8c-2.8,0.9-3.6,0.4-3.6-2.6c0-1.8,0-3.7,0-5.5h0
		c0-2.1-0.1-4.3,0-6.4c0.1-2.2,0.9-2.5,3-2.4c5.2,0.3,10.5,0.4,15.7,0.4c2.4,0,4.4-2.2,4.7-4.5c0.3-1.9-0.9-3.8-3.5-4.5
		c-1.8-0.5-3.8-0.4-5.6-0.4c-1.8,0-3.7,0.2-5.5,0.2c-0.5,0-1.2-0.6-1.3-1.1c-0.1-0.4,0.4-1.1,0.8-1.5c2.9-3,6.3-4.2,10.5-3.9
		c2.3,0.2,4.7-0.7,7-0.7c3.5,0,7,0.3,10.4,0.4c1.9,0.1,2.2,1.4,2.2,3c0.1,10.4,0.1,20.7,0.3,31.1
		C370.4,339.5,369.6,340.5,367.2,340.6z M387.8,349.8c-2.2,0-4.6-1.9-4.4-3.8c0.4-3.1,1.6-5.4,5.1-5.4c2.3,0,5,2.6,5.1,4.8
		C393.7,347.1,390.1,349.8,387.8,349.8z M397.8,335.2c-0.7-0.2-1.6-0.2-2.1-0.6c-4.3-3.8-11.2-3-15-0.7c-2,1.2-2.4,1-2.4-1.3
		c0-2.6,0-5.1,0-7.7c0,0,0.1,0,0.2,0c-0.2-3.3-0.3-6.5-0.5-9.8c-0.1-2.3,0.7-3.3,3-3.2c2.9,0.1,5.8,0.4,8.7,0.8
		c0.8,0.1,1.8,0.6,2.1,1.2c1.2,2.5,2.3,5.2,3.2,7.8c1.2,3.8,2.2,7.6,3.2,11.5C398.3,333.9,397.9,334.6,397.8,335.2z"/>
	<path d="M378.2,253.4c0,2.4-1.4,3.7-4.2,3.8c-3.9,0.1-7.8,0-11.7,0v0.5c-2.8-0.1-5.7-0.2-8.5-0.5c-2-0.2-3-1.3-2.9-3.4
		c0.1-2.1,1.3-3.3,3.2-3.4c6.7-0.3,13.5-0.5,20.2-0.5C377,250,378.2,251.4,378.2,253.4z"/>
	<path class="st0" d="M388.6,340.5c2.3,0,5,2.6,5.1,4.8c0,1.7-3.5,4.4-5.8,4.4c-2.2,0-4.6-1.9-4.4-3.8
		C383.9,342.9,385.1,340.5,388.6,340.5z"/>
	<path class="st0" d="M341.7,341.9c3.2-0.1,4,1.5,4.7,3.1c0.6,1.5-0.1,2.8-1.4,3.7c-3,2.2-5.8,1.8-7.9-1.3c-0.4-0.6-0.5-2.3-0.1-2.6
		C338.7,343.4,340.6,342.5,341.7,341.9z"/>
</g>
</svg>
