<?xml version="1.0" encoding="utf-8"?>
<!-- Generator: Adobe Illustrator 24.0.1, SVG Export Plug-In . SVG Version: 6.00 Build 0)  -->
<svg version="1.1" id="Layer_1" xmlns="http://www.w3.org/2000/svg" xmlns:xlink="http://www.w3.org/1999/xlink" x="0px" y="0px"
	 viewBox="0 0 500 500" style="enable-background:new 0 0 500 500;" xml:space="preserve">
<g>
	<path d="M459.9,276c0.1,4.8-2.9,7.8-7.3,9.4c-7.5,2.9-15.3,3-23.2,2.5c-6.3-0.3-12.5-1-18.8-1.1c-17.4-0.4-34.7-0.6-52.1-0.8
		c-8.6-0.1-17.2,0-25.8,0.1c-4.5,0-7.8-1.9-9.7-6c-3.1-6.8,0.6-13.1,8-13.4c7.6-0.3,15.2,0.1,22.8,0.3c1.1,0,2.2,0.2,3.3,0.2
		c14.9,0.3,29.8,0.4,44.7,0.8c8.2,0.2,16.3,0.9,24.5,1.2c2.6,0.1,5.2,0.1,7.7-0.2c5.4-0.8,8.7-4.1,8.4-9.6
		c-0.5-8.9-1.3-17.8-2.6-26.7c-1.1-7.5-2.9-15-5-22.3c-3.9-13.2-7.6-26.4-14.7-38.4c-3.8-6.4-7-13.2-10.9-19.6
		c-2.6-4.3-5.5-8.4-8.8-12.2c-6.6-7.8-13.3-15.7-20.5-23.1c-8.4-8.7-18.2-15.8-28.7-21.9c-7.4-4.3-14.5-9.4-22.2-13
		c-9.7-4.4-20-7.5-30-11.4c-14.6-5.7-29.9-6.4-45.3-6.6c-12.8-0.1-25.7,0.5-38.5,1.6c-6.7,0.6-13.3,3.1-19.8,4.8
		c-4.9,1.3-9.7,2.6-14.5,4.4c-4.2,1.5-8.1,3.7-12.3,5.3c-9.9,3.8-18.4,9.9-27.3,15.4c-20.2,12.4-36.2,29.2-50.3,47.8
		c-6.7,8.9-13.1,18.2-18.4,28c-4.8,8.9-7.9,18.7-11.7,28.1c-1.2,3-2.9,5.9-3.6,9c-2,8.8-3.7,17.7-5.3,26.6c-1.1,6-2.2,12.1-2.9,18.2
		c-0.3,2.9-0.2,6.1,0.6,9c0.6,2,2.4,4.2,4.2,5.2c2.1,1.2,4.9,1.6,7.4,1.6c27.5,0.1,55.1,0.1,82.6,0c6.6,0,13.2-0.2,19.8-0.7
		c7.2-0.5,9.9,4.9,9.8,10.4c0,5.7-3.7,9.2-9.6,9.2c-19.7,0-39.4,0-59.1,0v-0.1c-19.5,0-39,0-58.5,0c-10.6,0-15.9-5-15.9-15.5
		c0-19.9,1.6-39.6,7.4-58.7c3.3-11,6.3-22.2,10.7-32.8c4-9.5,9.8-18.3,14.7-27.5c8.1-15.1,18.9-28.2,30.2-40.9
		c10.4-11.6,22.5-21.5,35.3-30.4c7.8-5.4,15.5-11.3,24.1-15c7.8-3.4,14.9-8.5,23.7-10c5.2-0.9,10.1-3.8,15.2-5.1
		c7.6-1.9,15.2-3.5,23-4.7c8-1.2,16-2.2,24-2.5c6.7-0.3,13.4,0,20.1,0.7c12,1.2,24,2.9,36,4.4c1.8,0.2,3.6,0.4,5.3,1.1
		c10.4,4.2,21.6,6.1,31.3,12.1c2,1.3,4.7,1.4,6.9,2.6c8.9,5.1,17.6,10.4,26.5,15.6c10.9,6.3,20.5,14.4,29.4,23.3
		c7.8,7.8,15.2,16.1,22.2,24.7c4.7,5.9,8.4,12.6,12.4,19.1c6.9,11.2,12.2,23.2,16.8,35.6c6.8,18.5,11.5,37.5,13.7,56.9
		C460.2,252.7,459.8,264.4,459.9,276z"/>
	<path d="M427.9,376.2c-1.6-7.2-9.1-13.5-16.5-13.4c-5.9,0.1-11.8,1.2-17.7,1.3c-12.2,0.2-24.4,0.1-36.6,0c-1.3,0-2.7-0.2-4-0.3
		c-9.1-0.9-18.1-2.5-27.4-0.5c-3.1,0.7-5.5,0.5-7.3-0.5c-3.2-1.9-4-5.8-4.3-6.9c-2.3-9.1-19-27.1-38.4-34.5
		c-5.8-2.2-22.9-7.8-41.8-1.4c-2.5,0.8-25.3,8.9-35.8,30c-4.2,8.5-9.5,25.2-16.8,28c-3.6,1.4-7.4,1.7-7.4,1.7
		c-2.4-0.1-4.7-0.4-7-0.4c-15.1,0.4-30.2,0.9-45.3,1.3c0-0.1,0-0.3,0-0.4c-8.5,0-17,0-25.5,0c-5.7,0-9.2,3.6-9.1,9.3
		c0.1,5.8,3.7,9.7,9.2,9.6c3.5,0,6.9-0.1,10.4-0.1c9.4-0.1,18.8-0.1,28.2-0.2c13.9-0.1,27.8-0.4,41.6-0.3c5,0,8.8,2.2,11.4,7.3
		c4.1,8.1,9.2,15.8,13.9,23.6c0.7,1.1,1.5,2.2,2.5,3.2c7.7,7.5,16.3,13.6,26.3,17.6c16.7,6.8,33.5,5.9,50-0.4
		c9.1-3.5,17.2-8.9,23.5-16.3c5.2-6.2,9.2-13.4,13.8-20.2c2.6-3.9,4.6-7.9,3.1-12.8c-0.2-0.6,0-1.3,0-2c0.2-8.6,4-12.5,12.6-12.6
		c8.8-0.1,17.7-0.1,26.5-0.2c19.1-0.3,38.3,0.1,57.3,2.6C425,389.2,429.6,383.8,427.9,376.2z M304.6,395.7
		c-6,30.9-43.5,45.6-69.6,36.1c-1-0.4-22.3-8.5-28.3-29.7c-7.7-27.7,14.4-65,46.7-66.1C283.2,335.1,310.6,365.4,304.6,395.7z"/>
	<path d="M403.5,236.6c-0.7,3.7-1.4,7.5-5.7,8.7c-4,1.1-6.2-1.8-8.6-4.5c-3.4-3.8-3-8.8-4.4-13.2c-0.7-2.2-0.8-4.7-1.8-6.8
		c-4-8.6-8.3-17-12.4-25.6c-1.3-2.8-2.1-6-3.7-8.6c-4.5-6.9-8.9-14-14.3-20.2c-7.2-8.4-14.9-16.4-23.2-23.7
		c-5.6-5-12.5-8.6-18.9-12.7c-9.5-6-20.1-10.2-30.9-12.5c-21.8-4.5-43.8-4.9-65.5,1.5c-5.8,1.7-11.5,3.6-17.1,6
		c-3.5,1.4-6.4,4.1-9.8,5.7c-10.9,5-19.9,12.7-28.9,20.4c-9.8,8.4-18,18.1-25.7,28.3c-4.7,6.3-7.8,13.8-11.9,20.6
		c-6.2,10.2-8.6,21.8-12.3,32.9c-0.4,1.2-0.8,2.3-1.4,3.4c-1.4,2.5-3.7,4.1-6.4,3.4c-2.1-0.6-4.8-2.2-5.5-4
		c-1.2-3.1-1.8-6.9-1.2-10.1c1.5-8.2,3.1-16.6,6.1-24.3c3.2-8.1,7.9-15.7,12.2-23.4c8-14.2,18.6-26.3,30.3-37.4
		c6.5-6.1,13.5-11.8,20.7-17.1c5.8-4.3,12-8.1,18.4-11.5c5.1-2.7,10.9-4.1,15.9-7c7.4-4.2,15.7-5.3,23.7-6.8
		c9.8-1.8,19.6-2.9,29.5-4.3c0,0.3,0.1,0.7,0.1,1c12.1-0.9,23.6,2.1,35.2,4.7c13.2,2.9,25,9,36.7,15.7c19.9,11.4,35,27.7,49,45.3
		c5.3,6.6,9.1,14.3,13.9,21.2c6.6,9.6,10.2,20.6,14.2,31.3c2.5,6.7,2.6,14.2,3.8,21.4C403.7,235,403.7,235.8,403.5,236.6z"/>
	<path d="M469.4,371.3c3.2,21-4.4,37.5-8.4,44.6c-2.6,4.7-11.5,20.1-30.1,28.7c-16.7,7.6-34,7.7-51.1,0.2c-9-4-16.7-9.4-22.2-17.7
		c-3.4-5-6.8-9.9-10-15c-0.4-0.6-1.5-2.1-1-3.5c0.5-1.4,2.4-1.9,3.2-2.1c35.1-0.1,60.6-0.2,63.7-0.2c0.6,0,1.9,0,2.2,0.7
		c0.4,0.9-1.2,2.7-1.7,2.9c-3.8,1-7.8,1.7-11.7,2.3c-6.3,0.9-12.6,1.4-18.8,2.5c-3.2,0.6-4.3,8-1.4,10.8c2.2,2.1,5,3.8,7.9,4.8
		c7.8,2.6,15.7,2,23.5-0.1c15.2-4.1,25.9-13.6,33-27.4c4.9-9.6,5.4-12.6,5.5-24.9c1.5-11.2-5.1-19.8-13.6-27.3
		c-14.7-12.8-31.7-15.1-50.2-10.7c-7.2,1.7-14.7,2.6-22.2,3.2c-5.8,0.5-8.4-3.9-5.7-9.1c0.5-0.9,1.4-2.7,4.8-5.4
		c3.7-2.8,7.1-4.3,9-5c7.1-2.8,13-3.7,14.1-3.9c9.8-1.5,22.1-3.3,36.9,0.7c5.2,1.4,14.2,3.9,23,11
		C465.5,345.6,468.6,366,469.4,371.3z"/>
	<path d="M291.3,156.7c-2.7,21.8-19.9,44.9-35.1,68.2c-1.7,2.6-4.9,8-9.9,8.1c-4.2,0.1-11.3-5-12.5-9c-0.3-1.1-0.4-2.1-0.2-3.1
		c0.4-2,1.6-3.3,2-3.7c4.2-4.5,22.5-34.7,29-47c2.5-4.7,5.4-9.1,7.5-13.9c1.3-2.9,1.7-4.4,3.4-6c3.9-3.6,10.9-4.8,14.1-1.8
		C291.9,150.6,291.6,154.4,291.3,156.7z"/>
</g>
</svg>
