<?xml version="1.0" encoding="utf-8"?>
<!-- Generator: Adobe Illustrator 24.0.1, SVG Export Plug-In . SVG Version: 6.00 Build 0)  -->
<svg version="1.1" id="Layer_1" xmlns="http://www.w3.org/2000/svg" xmlns:xlink="http://www.w3.org/1999/xlink" x="0px" y="0px"
	 viewBox="0 0 500 500" style="enable-background:new 0 0 500 500;" xml:space="preserve">
<g>
	<path d="M325,224.8c0.2,2.5,1.7,5.3,3.4,7.3c0.8,1,4.3,1.1,5.2,0.2c2.4-2.4,5.3-5.3,5.8-8.4c1.3-8.7,1.9-17.5,2.1-26.2
		c0.3-14.3,0.1-28.6,0.1-43h-0.5c0-11.4-0.1-22.8,0.1-34.2c0.1-5.4-1.4-10.1-4.6-14.4c-3.6-4.9-7.4-9.7-13.8-10.7
		c-13.8-2-27.8-2.6-41.7-1.2c-5.6,0.5-9.3-1.2-10.8-6.5c-1.4-5.2-5.2-8.1-9.6-10.1c-8.2-3.7-17-4.4-25.9-3.2
		c-9.1,1.3-12.4-0.4-15-9.1c-2.4-7.8-7.6-13.5-14.4-17.1c-7.1-3.7-15.2-3.3-23.1-1.6c-0.9,0.2-1.8,0.6-2.5,1.2
		c-7.9,5.9-15.5,12-17.8,22.5c-1.3,5.9-3.5,7.1-9.5,6.2c-6.2-0.9-12.2-0.2-18,2c-4.6,1.8-9.9,2.9-11.9,8.4
		c-1.8,4.9-5.3,7.1-10.6,6.9c-8.9-0.4-17.8-0.7-26.7-0.6c-5.2,0.1-11.1-0.3-15.5,1.8c-8.7,4.1-14,11.6-14.7,21.6
		c-0.3,4.2-0.1,8.4-0.1,12.6c-0.2,40.6-0.4,81.3-0.4,121.9c0,40.1,0.3,80.3,0.5,120.4c0.1,19.4,0,38.8,0.1,58.1
		c0,7.8,9.8,20.2,17.3,22.2c0.4,0.1,0.9,0.2,1.4,0.3c6.5,0.5,13.1,1.4,19.6,1.4c17.5,0.2,35,0,52.5,0c53.1,0.2,106.2,0.5,159.2,0.7
		c4.2,0,8.4-0.8,12.6-1c9.8-0.6,16.1-5.6,19.5-14.7c1.1-3,2.9-6.1,3.2-9.2c0.4-5.2-0.1-10.5-0.3-15.8c-0.2-7.4-0.5-14.8-0.7-22.2
		c-0.1-3.3,0.1-6.6-0.2-9.8c-0.4-4-3.4-7.3-6.3-7.4c-2.8-0.2-5,2.2-5.8,6.8c-0.6,3.8-1.1,7.7-1.1,11.6c-0.2,10.7,0.2,21.4-0.1,32
		c-0.3,8.2-4.1,14.8-14.2,15c-5.4,0.1-10.8,0.1-16.2,0.1c-33.8-0.2-67.6-0.5-101.4-0.6c-23-0.1-46-0.1-69.1-0.1
		c-13.1,0-26.3,0.2-39.4,0.4c-9.3,0.2-13.3-2.5-15.9-11.5c-0.8-2.8-0.8-5.8-0.8-8.7c0-4.3,0.4-8.7,0.4-13c0-47.9-0.1-95.8-0.1-143.7
		c0-24.9,0.2-49.8,0.1-74.7c-0.1-21.1-0.3-42.3-1-63.4c-0.3-11,5.1-17.9,16.1-18.1c8.3-0.1,16.7,0.3,25,0.8c4.7,0.3,8.4,2.4,9.4,7.5
		c0.9,4.6,1.9,9.2,2.7,13.8c0.7,4.7,3.2,7.9,7.7,9.1c3.1,0.9,6.4,1.5,9.7,1.6c14.4,0.4,28.9,0.6,43.3,0.8
		c23.4,0.3,46.7,0.4,70.1,0.8c10.6,0.2,21.5-7.9,20.2-20.2c-0.2-2.2,0.1-4.5,0.8-6.6c0.8-2.9,2.9-4.9,6.1-4.9
		c12.1,0,24.2-0.2,36.3,0.1c7,0.1,11.9,5.2,11.8,11.9c-0.4,29.6-0.9,59.1-1.4,88.7C325.4,215,324.7,219.9,325,224.8z M245.8,124.9
		c-11.5,0.1-23,0-34.5,0.1c-5.2,0-10.3,0-15.5,0v-0.1c-15.3,0-30.5,0-45.8,0c-2.1,0-4.2,0-6.3,0.3c-7.3,0.9-11.3-2.6-11.1-9.9
		c0.1-3.9,0.5-7.7,0.4-11.6c-0.3-10.9,10.1-15.2,17.5-13.6c2.9,0.6,5.6,1.7,8.5,2.3c2,0.5,4.2,0.7,6.3,0.6c4.6-0.2,7.3-2.7,8.2-7.2
		c0.7-3.7,1-7.4,1.8-11c1.6-6.9,6.6-11,12.6-13.9c4.5-2.2,9.2-1.4,13.2,2c5.3,4.6,8.3,10.4,9.4,17.2c1.2,7.3,4.5,9.7,11.9,9.1
		c7-0.5,14.1-1,21.1-1c7.4,0,13.4,6.4,13.6,13.8c0.1,3.8,0.1,7.5,0.1,11.3C257.2,121.4,253.9,124.8,245.8,124.9z"/>
	<path d="M440.1,221.8c4.3-5,6-10.8,5.4-17.3c-0.9-9.2-7.1-15.6-12.4-22.4c-5.5-7.1-22.3-12.4-31.2-6.3c-5.7,3.9-10.9,8.5-15.7,13.4
		c-4.6,4.7-8.2,10.3-12.5,15.2c-12.6,14.5-25.5,28.8-38.1,43.4c-9.6,11.2-18.8,22.8-28.1,34.2c-7.7,9.5-14.9,19.3-22.9,28.5
		c-13.1,15.1-27.4,29.3-37.2,47c-0.5,0.9-1.1,1.8-1.5,2.8c-6,13-3.9,27.5-7,40.2c-0.1,7.3,2.7,9.7,9,8.4c2.5-0.5,4.8-1.7,7.3-2.5
		c3.4-1.2,6.8-2.5,10.2-3.7c2-0.7,4.1-1.2,5.8-2.2c6.1-3.7,12.4-7.1,18-11.4c7.4-5.7,14.6-11.9,21-18.6
		c9.8-10.1,18.9-20.8,28.3-31.3c6.7-7.5,13.3-15.1,20.3-22.5c2.6-2.7,5.9-4.7,8.8-7.2c1.2-1,2.3-2.3,3.1-3.6
		c1.1-1.6,1.6-3.5,2.8-4.9c6.2-7.5,12.6-14.8,18.9-22.2c1.4-1.6,2.7-3.3,4-4.8c4.5-5.1,8.9-10.2,13.5-15.2c1.6-1.7,4.2-3.5,6.1-1.3
		c1.2,1.3,1.3,4.7,0.4,6.5c-2,3.9-4.6,7.6-7.4,11c-6.3,7.6-12.7,15-19.2,22.4c-4.4,5-9.1,9.4-16,11c-1.3,0.3-3.1,1.6-3.2,2.6
		c-0.4,3.5-0.9,7.3,0.1,10.6c1.3,4.2,4.5,7.6,9.2,8.3c4,0.6,6.7-1.9,9.1-5c6-7.9,12.1-15.7,18.3-23.5c3.9-4.8,8.1-9.5,12.1-14.2
		c2.4-2.9,4.7-5.8,7.2-8.7c6-6.8,8.3-14.8,7.1-23.5c-0.6-4.3-2.8-8.4-4.6-12.5c-1.9-4.6-1.7-7,1.1-10
		C433.5,229,436.9,225.5,440.1,221.8z M278.2,379.4c-0.2,1.5-1,3.4-2.2,4.1c-2.8,1.8-5.8,3.5-9,4.5c-3.9,1.2-6.9-0.7-8.3-4.5
		c-1.5-4-1.4-8,0.3-12c1.4-3.3,3.9-5.2,7.4-5C272.1,366.6,278.9,374,278.2,379.4z M402.1,245.8c-15.7,18.1-31.3,36.2-47.1,54.1
		c-16.4,18.5-33,36.9-49.4,55.4c-1.9,2.2-3.7,4.5-5.4,6.9c-3.4,4.9-8.7,5.5-12.8,1.2c-3.3-3.6-6.7-7.2-9.7-11.1
		c-3.6-4.7-3.4-7,0.4-11.6c14.6-18,29.1-36.1,44-54c12.4-14.9,25.2-29.4,37.6-44.2c5.2-6.2,10.2-12.5,15-19
		c3.7-4.9,5.6-5.5,10.3-1.6c5.8,4.8,11.3,9.9,16.8,15c1.2,1.1,1.8,2.9,2.9,4.6C403.7,243,403.1,244.6,402.1,245.8z M422.7,223.2
		c-3.5,3.8-9.1,4.2-13,0.8c-5-4.3-9.8-8.7-14.7-13.1c-2.4-2.2-3.2-4.9-1.5-7.6c4.3-6.7,9.7-12.3,17.6-14.8c0.8-0.3,1.6-0.2,2.6-0.4
		c1,0.2,2.2,0.2,3.3,0.7c6.7,3,11.6,8,14.8,14.4c1.9,3.9,0.6,7.9-1.9,11.3C427.7,217.6,425.2,220.5,422.7,223.2z"/>
	<path d="M281.7,187.5c-0.3,3.6-4.4,7-8.8,7.1c-8.1,0.1-16.2,0-24.3,0c-4.1,0-8.2,0-12.3,0v0.5c-13.8,0-27.7,0-41.5,0
		c-10.8,0-21.6,0.1-32.3,0.1c-1.6,0-3.3-0.4-4.7-1.1c-2.6-1.5-5-3.5-4.7-6.9c0.3-3.3,2.9-5,5.7-5.4c6.5-1,13-1.7,19.5-1.9
		c13.1-0.3,26.3-0.2,39.4-0.3c10-0.1,19.9-0.5,29.9-0.5c7.6,0,15.2,0.4,22.9,0.7c1.2,0,2.3,0.2,3.5,0.4
		C278.7,181.1,281.9,184.1,281.7,187.5z"/>
	<path d="M276.1,275.5c0.1,3.8-3.5,7.5-8.1,7.9c-4,0.4-8,0.6-11.9,0.6c-13.6-0.1-27.2-0.4-40.8-0.4c-17.4,0-34.7,0.2-52.1,0.2
		c-2.3,0-4.6-0.6-6.8-1.3c-2.6-0.8-5.1-2.7-4.5-5.5c0.4-2,2.3-4.6,4.2-5.4c3.5-1.4,7.4-1.5,12-2.4c18.9,0,38.5,0.1,58.1-0.1
		c12.3-0.1,24.6-0.8,36.9-1.2c1.5,0,3.1-0.2,4.6-0.1C272.1,268.2,276,271.7,276.1,275.5z"/>
	<path d="M273.5,236.8c-2.6,0.8-5.5,1.4-8.2,1.4c-15.8,0.1-31.7,0.1-47.5,0.1v0.1c-15.8,0-31.7,0-47.5,0c-4.5,0-9.1-0.1-13.6-0.5
		c-3.3-0.3-5.3-2.2-5.2-5.9c0.1-3.6,1.6-5.8,5.2-6.5c2.2-0.4,4.4-0.7,6.6-0.7c19.4-0.1,38.7,0,58.1-0.1c14.6-0.1,29.1-0.4,43.6-0.6
		c2.5,0,4.9,0,7.4,0.3c2.7,0.3,5,1.4,5.4,4.6C278.1,232.7,276.6,235.8,273.5,236.8z"/>
	<path d="M250.2,325c-1.3,3.2-7.1,6.4-11.5,6.3c-13.2-0.2-26.5-0.5-39.7-0.5c-11.9,0-23.7,0.4-35.6,0.5c-2.4,0-4.9-0.3-7.3-0.7
		c-2.8-0.5-4.7-2.2-5.2-5.1c-0.5-3,0.8-5.6,3.5-6.7c3.2-1.2,6.7-1.7,10.1-2.3c1.7-0.3,3.5,0,5.3,0v0.1c10.3-0.4,20.6-0.9,30.9-1.1
		c14.1-0.3,28.1-0.4,42.2-0.3C249.3,315.2,252.3,319.7,250.2,325z"/>
	<path d="M128.3,231.5c0.1,5.7-5.2,9.7-12.8,9.7c-5.3,0-8.4-3.4-8.4-9.1c0-5.7,3.8-9.2,9.7-9.2C123.8,222.8,128.2,226.1,128.3,231.5
		z"/>
	<path d="M126.8,277.6c-0.1,5.1-5.3,9.3-11.3,9.3c-5.4,0-8.5-3.2-8.5-8.6c0-5.6,3.8-9.8,8.8-9.8
		C120.8,268.5,126.9,273.5,126.8,277.6z"/>
	<path d="M126.7,326.4c0,4.9-3.5,7.7-10,7.8c-6,0.1-9.5-3.3-9.6-9.1c0-4.8,4.1-9.1,8.9-9.1C120.6,316,126.6,321.9,126.7,326.4z"/>
	<path d="M125.9,186.9c-0.1,4.7-5.7,10.3-10.3,10.4c-4.8,0.1-8.3-3.7-8.3-9c0-5.5,4.3-9.8,9.9-9.8
		C121.8,178.5,125.9,182.5,125.9,186.9z"/>
</g>
</svg>
