<?xml version="1.0" encoding="utf-8"?>
<!-- Generator: Adobe Illustrator 24.0.1, SVG Export Plug-In . SVG Version: 6.00 Build 0)  -->
<svg version="1.1" id="Layer_1" xmlns="http://www.w3.org/2000/svg" xmlns:xlink="http://www.w3.org/1999/xlink" x="0px" y="0px"
	 viewBox="0 0 500 500" style="enable-background:new 0 0 500 500;" xml:space="preserve">
<style type="text/css">
	.st0{fill:#FFFFFF;}
</style>
<g>
	<path d="M408.8,399.4c-0.8-4.6-1.5-9.3-2.5-13.8c-1.4-6.8-3.1-13.5-4.6-20.3c-0.9-4.4-1.4-8.9-2.5-13.2c-2.5-9.5-3.4-19.2-2.8-28.9
		c0.8-12.2,2.2-24.5,3.2-36.7c0.5-5.4,0.4-10.9,1-16.3c0.7-7.3,0.1-14.5-1.2-21.6c-1.3-7.6-3-15.1-4.3-22.7
		c-0.8-4.3-1.1-8.8-1.9-13.1c-1.5-7.8-3.4-15.6-5-23.4c-0.7-3.2-1.2-6.4-2.5-9.5c-1.8-4.5-3.8-8.8-6.7-12.4c-3.3-4-6.6-8-11.3-10.5
		c-2.3-1.2-2.9-4.5-1.1-6.6c2.7-3.1,5.1-6.3,6.8-10.1c2.3-5,4.3-10,5-15.4c0.2-1.8,0.5-3.6,0.4-5.4c-0.3-5.1-0.1-10.3-1.3-15.2
		c-1-4.3-3.1-8.6-6-12.1c-4.2-5-9.2-9-15.9-10.5c-4.4-1-8.8-0.7-13.2-0.1c-2.4,0.3-4.9,0.7-7.3,1.4c-6.6,2.1-13.1,4.4-20.1,3.3
		c-2.5-0.4-5-1.3-7.5-2c-3.9-1.2-6.3,0.4-6.4,4.4c-0.1,2.3-0.2,4.6,0.1,6.8c0.3,2.5,0.4,5.3,1.6,7.4c2.3,4,5.3,7.5,9.4,10
		c2.1,1.3,3.2,3.2,2.8,6.1c-0.5,3.7-0.6,7.6-0.4,11.4c0.3,6.4,2.1,12.5,5.5,17.9c3.2,5.1,7,9.3,13.1,11c1,0.3,1.9,0.8,2.7,1.4
		c1,0.8,1.1,1.9,0.1,2.9c-3.1,2.9-5.8,6-7.3,10.1c-0.6,1.5-1.7,3-1.7,4.5c-0.1,11,0,21.9,0.2,32.9c0,1.7-0.3,3-2.1,3.5
		c-7.1,2-14.1,4.1-21.2,6c-2.1,0.6-2.8-0.2-2.8-2.5c0-5,0.1-9.9,0-14.9c0-1.1-0.1-2.2-0.3-3.3c-0.8-3.7-2-4.6-5.7-4.6
		c-17.6,0-35.2,0-52.8,0c-14.5,0-29,0-43.5,0c-2.6,0-3.7,0.7-4.4,3.2c-0.4,1.2-0.4,2.6-0.4,3.9c-0.1,2.2,0,4.4,0,6.6
		c0,4.7-0.1,9.4,0,14.1c0.1,2.5-0.6,3-3,2.2c-5.4-1.8-10.8-3.6-16.2-5.2c-2.8-0.8-3.9-2.3-3.6-5.3c1.4-11.8,0.7-23.6,0.2-35.4
		c-0.1-1.3-0.7-2.5-1.2-3.7c-1.6-3.7-3.7-7.2-6.4-10.3c-1.1-1.2-0.7-2.9,0.6-2.9c3.4-0.2,5.9-2.1,8.6-3.8c5.6-3.5,9.2-8.6,11.2-14.8
		c0.5-1.7,0.8-3.5,1.3-5.2c1.5-4.7,2-9.7,1-14.3c-0.9-4.5,0.5-7,4-9.1c0.2-0.1,0.3-0.3,0.5-0.4c8.3-6.4,10.7-14.8,8.7-24.8
		c-0.8-4-4.4-5.3-7.9-3.3c-1.3,0.8-2.9,1-4.5,1.3c-1.3,0.3-2.7,0.3-4.1,0.3c-4.5,0.1-8.9-0.2-13.3-1.6c-5-1.6-10-3.2-15.2-4
		c-7-1-13.7,0.6-19.8,4.7c-6.6,4.4-10.2,10.6-12.2,18c-0.4,1.6-0.9,3.2-1.1,4.8c-0.3,2.2-0.6,4.5-0.5,6.8c0.2,3.2,0.9,6.4,1,9.7
		c0.3,5.9,2.4,11.3,4.7,16.6c1.8,4.2,4.7,8,7.2,11.9c0.9,1.4,1.5,2.8,0.1,4.1c-1.4,1.2-2.8,2.6-4.5,3.3c-8.5,4-12.1,11.9-15.7,19.7
		c-1.5,3.3-2.2,7.1-3,10.7c-1.2,5.5-2.3,11.1-3.3,16.6c-1.3,7.5-2.4,14.9-3.7,22.4c-0.9,5.2-2,10.4-2.8,15.6
		c-0.5,3.4-0.6,6.9-1.1,10.3c-0.8,4.9-1.2,9.7-0.1,14.6c0.2,0.8,0.1,1.7,0.1,2.5c0.4,7.9,0.7,15.9,1.2,23.8c0.4,6,1.3,11.9,1.8,17.9
		c0.3,4.4,0.4,8.8,0.4,13.2c0,3.9,0,7.9-0.7,11.7c-1.3,7.9-3.2,15.8-4.7,23.7c-1.5,7.9-2.8,15.7-4.2,23.6c-0.3,1.6-0.7,3.1-1,4.7
		c-0.7,4.1-1.5,8.1-1.9,12.2c-0.3,3.7,3.7,9.2,7.2,10.2c2.5,0.8,5.1,1.4,7.7,1.8c6.6,0.9,13.8-1.4,16-8.8c1.5-4.9,3.4-9.7,5-14.6
		c1.1-3.5,1.9-7.2,2.8-10.8c1.5-6.2,2.9-12.4,4.3-18.7c0.1-0.6,0.4-1.2,0.5-1.8c1.6-6.1,3.6-12.2,4.7-18.4
		c0.9-5.2,0.9-10.6,1.3-15.9c0.1-0.8,0.1-1.6,0.2-2.7c0.5,0.5,0.8,0.6,0.9,0.8c3.2,6,4.9,12.4,6.3,18.9c0.4,2.1,0.6,4.2,0.8,6.4
		c0.6,5.7,1.4,11.4,1.8,17c0.5,6.5,0.7,13,1.2,19.4c0.5,5.7,1.6,11.4,2,17.1c0.6,7.7,6.2,12.2,13.2,12.9c2.5,0.3,5.1,0.2,7.7,0
		c4.4-0.2,9-4,9.5-8.4c0.4-3.6,0.1-7.3,0-10.9c-0.1-13.8-0.3-27.6-0.4-41.4c0-3.5,0.1-6.9-0.1-10.4c-0.2-3.6-0.3-7.3-1-10.9
		c-1.6-8-3.4-16-5.3-24c-0.8-3.5-2-6.8-3-10.3c-0.4-1.4-0.8-2.8-1.2-4.1c-0.6-2-1.2-3.9-1.8-5.9c-0.4-1.3-0.6-2.6-1-3.8
		c-2.2-6.1-4.1-12-2.7-18.8c1.2-5.6,1.2-11.5,1.7-17.3c0.2-2.1,0.8-2.7,2.9-2.4c0.6,0.1,1.2,0.4,1.8,0.6c2,0.6,3.9,1.3,5.8,1.8
		c1.9,0.5,3.9,1,5.8,1.5c2,0.5,4,1.2,6,1.6c3.2,0.6,3.4,0.9,3.4,4.2c0,9.2,0,18.4,0.1,27.6c0,5.3,3,8.3,8.4,8.3
		c18.9-0.1,37.8-0.3,56.7-0.4c10.6-0.1,21.3,0,31.9-0.1c1.9,0,3.8-0.6,5.6-1.2c1.7-0.5,2.6-1.8,2.6-3.6c0-2.1,0-4.3,0-6.4
		c0-8.6,0.1-17.1-0.1-25.7c-0.2-7.1-0.5-5.4,5.8-7.4c4.1-1.3,8.5-1.8,12.7-2.7c2.4-0.5,4.8-1.4,7.2-1.8c2.5-0.4,3,0.5,3.4,2.9
		c0.8,5.3,1.6,10.6,2.7,15.9c1,4.6,1.5,9.1-0.2,13.6c-0.7,1.8-1.2,3.7-1.8,5.5c-1.4,4.5-2.7,8.9-4.2,13.4c-1.5,4.6-3.4,9-4.6,13.6
		c-1.7,6.1-2.9,12.3-4.3,18.5c-1.4,6-2.4,12-2.3,18.2c0.2,13.3,0,26.7,0,40c0,4.9-0.1,9.8,0,14.7c0.1,5.2,3.4,9.4,8.4,10.1
		c4,0.5,8.1,0.3,12.2,0.2c1.6-0.1,3.4-0.5,4.7-1.4c4-2.8,6-6.9,6.6-11.7c0.5-4.2,0.7-8.4,1.1-12.6c0.6-5.9,1.3-11.8,1.8-17.7
		c1-10.5,0.3-21.3,3.6-31.6c1.4-4.4,2.5-8.9,3.8-13.3c0.1-0.4,0.5-0.8,0.7-1.2c0.3,0,0.5,0,0.8,0c0.2,1.7,0.5,3.3,0.7,5
		c0.4,4,0.8,8.1,1.3,12.1c0.3,2.7,0.8,5.3,1.3,8c0.3,1.5,0.7,3.1,1.1,4.6c0.6,2.1,1.2,4.2,1.8,6.4c1.4,5.1,2.7,10.2,4,15.4
		c0,0.2,0.2,0.4,0.3,0.6c0.8,2.6,1.6,5.1,2.3,7.7c0.4,1.5,0.8,2.9,1.2,4.4c1.5,4.8,2.9,9.7,4.7,14.5c1.1,2.9,2.5,5.6,4.1,8.2
		c0.7,1,2.3,1.8,3.6,2.1c5,1.2,10,1.1,15,0.1C405.3,411.7,409.8,405.2,408.8,399.4z M319.5,106.9c-4-1.9-7-5-9.3-8.7
		c-0.3-0.5-0.4-1.8,0-2c0.6-0.5,1.6-0.7,2.4-0.7c3.8-0.1,7.6,0.4,11.3-0.3c4.4-0.8,8.7-2.2,12.8-3.8c5.2-2,10.6-2.5,15.9-1.6
		c5.1,0.9,9.5,3.8,12.4,8.5c4.5,7.5,5.9,15.6,4.7,24.2c-0.5,3.2-1.4,6.3-2.2,9.5c-0.2,0.6-0.5,1.1-0.8,1.6c-0.2,0-0.4,0-0.6,0
		c-0.3-0.7-0.6-1.3-0.8-2c-0.6-1.7-1-3.5-1.8-5.1c-2.5-5-4.9-10-7.7-14.8c-2.5-4.4-6.8-4.7-11.3-4.6c-7.6,0.2-15.3,0.2-22.9,0.2
		C320.8,107.4,320.1,107.2,319.5,106.9z M334.7,150.7c-2.8-0.9-5.1-3-6.8-5.6c-1.5-2.4-3-4.7-3.5-7.6c-0.5-3-1.1-6.1-1.5-8.8
		c0.5-3.9,0.9-7.4,1.4-10.9c0.3-2,1.7-2.3,3.5-2.2c5.4,0.1,10.7,0.2,16.1,0.1c3.5-0.1,4.3-0.5,5.3,3.2c0.7,2.5,1.3,5.2,2.7,7.3
		c2,2.9,3.2,5.9,4,9.2c0.4,1.5,1.6,2.9,2.4,4.3c1.3,2.4,0.5,5.8-1.5,7.6c-3.5,2.9-7.6,4.4-11.9,4.6
		C341.5,152.2,338,151.7,334.7,150.7z M357.5,158.5c-0.1,0.5-0.4,1.4-0.8,1.4c-1.7,0.3-3.5,0.4-5.2,0.5c-0.1-0.4-0.1-0.7-0.2-1.1
		c1.8-0.5,3.6-1.1,5.5-1.6C357,157.7,357.6,158.3,357.5,158.5z M241.6,204c3.6,0,7.3,0,10.9,0c1.5,0,2.7,1.4,2.7,3.3
		c0,3.8-0.1,7.6-0.3,11.3c-0.1,2.9-0.9,3.2-3.5,2c-2.7-1.3-5.7-2.2-8.5-0.6c-3,1.7-5,0.8-4.4-3.4c-0.2-3-0.5-6-0.7-9
		C237.5,205.3,238.8,204,241.6,204z M176.1,140.3c-0.9,4.7-3.7,8.2-7.5,11c-6.5,4.9-13.7,4.2-20.7,2.1c-2.5-0.7-4.7-3-6.8-4.9
		c-1.4-1.2-1.5-3.1-0.3-4.5c3.4-3.8,4-8.7,5.2-13.3c0.3-1.1,1.2-2,1.8-3c0.7-1.2,1.5-2.3,2.2-3.6c0.3-0.7,0.2-1.5,0.5-2.2
		c2.5-5.3,2.5-4.7,6.8-4.3c5.2,0.5,10.5,0.4,15.7,0.5c2.5,0,3.3,0.6,3.5,3c0.2,3,0.4,5.9,0.6,9.4C176.8,133.5,176.7,137,176.1,140.3
		z M151.9,163.6c-2.6,1.5-7.3-0.7-10.5-3.4C142.6,159.4,151.1,162.1,151.9,163.6z M134.3,136.6c-0.4-0.4-1-0.8-1.1-1.3
		c-1-3.4-2.4-6.9-2.7-10.4c-0.4-4.9-0.4-9.9,0.2-14.8c0.8-6.8,4-12.7,9.9-16.4c3.5-2.2,7.7-2.5,11.8-2c4.6,0.6,9.1,1.8,13.6,3.2
		c7.4,2.2,15,3.7,22.8,1.5c2.2-0.6,3.1,0.3,2.6,2.6c-1.2,5.3-7.4,11.1-13,10.8c-1.2-0.1-2.3,0-3.5,0c0,0.1,0,0.2,0,0.4
		c-6.9-0.6-13.7-1.2-20.6-1.9c-4.5-0.5-7.9,1.6-9.2,6c-0.1,0.2-0.1,0.4-0.2,0.6c-1.8,2.6-3.8,5.1-5.5,7.7c-1.9,2.8-3.2,5.9-3.4,9.4
		c0,1-0.1,2.1-0.4,3.1C135.3,135.7,134.7,136.1,134.3,136.6z M169,315.2c3.5,13.8,6,27.8,6.1,42.2c0,15.3,0.5,30.6,0.8,46
		c0,0.2,0,0.4,0,0.6c0.4,2.3,0.2,4.2-2.1,5.5c-2.7,1.5-5.1,1.3-7.8-0.2c-3.3-1.8-4-4.5-4.2-7.9c-0.6-8.6-1.5-17.2-2.2-25.8
		c-0.5-5.6-0.5-11.3-1.2-16.9c-0.6-5.6-1.4-11.2-2.7-16.7c-1.3-5.5-3.4-10.7-5.2-16.1c-1.4-4.1-2.9-8.2-4.4-12.2
		c-1.5-4-3.1-7.9-4.6-11.8c-0.7-1.9-1.3-3.8-1.7-5.7c-0.4-2.1-1.3-3.7-3.4-4.5c-2.1-0.8-3.6-0.1-4.1,2.1c-0.3,1.7-0.3,3.4-0.4,5.1
		c0,0,0.1,0,0.1,0c0,10.4,0.3,20.8-0.1,31.2c-0.2,5.9-1.4,11.8-2.5,17.6c-1.2,6.5-2.5,13-4.1,19.4c-1.9,7.9-4,15.8-6.2,23.5
		c-1.6,5.5-3.6,10.8-5.5,16.2c-0.3,0.8-1.4,1.6-2.3,1.7c-2.3,0.2-4.7,0.2-7,0c-3-0.3-4.8-2.9-4.5-5.9c0.1-0.6,0.2-1.2,0.3-1.8
		c1.6-7.3,3.2-14.7,4.7-22c0.4-2.1,0.5-4.3,0.9-6.4c1.7-8.2,3.6-16.4,5.2-24.6c0.7-3.8,1.1-7.7,1.2-11.5c0.3-13.5-0.3-26.9-2.2-40.3
		c-0.9-6.3-1-12.8-1.4-19.2c-0.2-2.9,0.8-3.3,3.6-2.8c3.1,0.6,6.3,0.8,9.4,1.1c9.7,1,19.4,1.9,29,2.8c1.5,0.1,3,0.1,4.5,0.1
		c1.6,0,2.5,0.7,3,2.3c1.4,4.5,3.1,8.9,4.5,13.5c1.5,5,2.8,10.2,4.3,15.2C167.5,311.1,168.5,313.1,169,315.2z M192.6,246.8
		c-1.9-0.5-3.9-1-5.8-1.5c-3.5-1-7-1.9-10.5-2.9c-3-0.8-5.9-1.7-8.9-2.5c-0.7-0.2-1.3-0.6-2-0.6c-4,0-7.5-1.8-10.4-4.1
		c-2.5-2-4.4-4.9-6.1-7.7c-2.8-4.6-5.2-9.4-7.7-14.1c-1.4-2.7-2.8-5.4-4.1-8.1c-1.4-2.9-2.6-5.8-4-8.6c-1-2-3-2.8-5.3-2.2
		c-2.1,0.5-2.5,2.2-2.2,3.9c0.4,2,1,4.1,1.8,6c1.5,3.5,3.3,6.9,5,10.4c1.1,2.3,2.3,4.5,3.5,6.7c2.9,5.1,5.7,10.4,9,15.3
		c3.2,4.7,7,9.1,13.1,10.4c2.1,0.5,3.3,2.3,3,4.5c-0.6,4.4-1.3,8.9-1.9,13.3c-0.1,0.9-0.4,1.7-0.7,2.6c-0.6,1.8-1.8,2.4-3.7,2.2
		c-8.4-0.8-16.9-1.5-25.3-2.3c-6.1-0.6-12.2-1.3-18.3-2.1c-2.5-0.3-3.3-1.7-2.9-4.1c1.3-9.1,2.5-18.3,4.1-27.4
		c1.5-8.8,3.4-17.6,5.1-26.4c1.3-6.5,2.3-13,4-19.4c1.4-4.9,2.8-10,6.6-13.8c1.8-1.8,4-3.3,6.2-4.6c0.9-0.5,2.3-0.3,3.4,0
		c5.5,1.1,10.9,2.2,16.3,3.4c2.8,0.6,5,1.8,6.6,4.8c2.1,4,2.5,8.1,2.5,12.4c0.1,3,0.3,6.1,0.4,9.1c0,0.8-0.3,1.6-0.4,2.5
		c-0.2,0-0.4,0-0.6,0c-0.3-0.3-0.6-0.6-0.7-0.9c-1.2-2.8-2.1-5.7-3.5-8.4c-1.9-3.7-4-7.3-6.3-10.8c-1.2-1.9-3.5-2.1-5.3-1
		c-1.8,1.2-2.6,4.1-1.4,6.3c2.3,4.4,5,8.6,7.2,13c1.8,3.7,3.2,7.6,4.9,11.3c1.7,3.8,3.1,7.7,5.1,11.4c1.6,2.8,4.8,3.7,7.7,5
		c1.8,0.8,3.6,1.4,5.4,2c0.9,0.3,1.8,0.7,2.7,1c2.7,0.9,5.4,1.7,8,2.6c0.9,0.3,1.9,0.5,2.8,0.7c2.8,0.8,5.5,1.6,8.3,2.3
		c1.3,0.4,2.7,0.6,4,1c2.2,0.6,4.3,1.3,6.5,1.9c1.1,0.3,2.2,0.9,3.3,1c3.2,0.5,5.3,2.6,7.1,5c1.5,2-1.1,6.1-4,6
		c-3.8-0.1-7.5-0.9-11.2-1.5c-1.7-0.3-3.3-0.8-5-1.3C196.5,247.8,194.5,247.3,192.6,246.8z M288.8,286.4c-16.5,0-33,0-49.5,0.1
		c-9.5,0-19,0.2-28.6,0.3c-0.9,0-1.8,0-2.7-0.1c-3.7-0.4-4.4-1.3-4.5-5c-0.1-6.4-0.3-12.8-0.5-19.2c0-2.7,0.4-3,3-2.7
		c0.5,0.1,1,0,1.4,0.1c0.8,0.2,1.5,0.6,2.2,0.9c-0.4,0.7-0.7,1.4-1.2,2c-1.6,1.9-1.8,4.1-0.9,6.2c0.4,0.9,1.8,1.9,2.8,1.9
		c5.8,0.2,11.6,0.2,17.4-0.1c1.6-0.1,3.4-1.1,4.7-2.3c1.8-1.5,1.5-4.1-0.5-5.5c-1.7-1.3-3.7-1.9-5.9-1.2c-3.4,1.1-6.8,0.8-10.2,0.3
		c-0.8-0.1-1.4-0.5-2.2-0.8c0-0.2,0-0.4,0-0.6c1.1-0.3,2.3-0.8,3.4-1c4.1-0.4,7.2-2.2,9.1-5.9c0.5-1,1-2,1.2-3.1
		c0.3-2.3,0.3-4.5,0.6-6.8c0.5-4-1.5-6.4-4.5-8.3c-5.6-3.6-11.6-6-18.2-6.5c-2.2-0.2-2.9-1.7-2.9-3.6c0-2.8,0.3-5.6,0.3-8.5
		c0-3.2-0.3-6.5-0.3-9.7c0-3,1.2-3.7,3.9-3.6c6.9,0.4,13.8,0.3,20.7,0.3c1.9,0,2.8,1,2.8,3.4c0,3.4,0,6.7,0,10.1
		c0,3.6,0,7.2,0.1,10.8c0,1,0,2.2,0.4,3c0.6,1.1,1.4,2.5,2.5,2.9c1.5,0.6,3.5,0.4,4.5-1.3c1.5-2.5,3.6-2.5,6.1-2.1
		c2.1,0.3,4.4,0.3,6.5,0c2.4-0.3,4.4-0.2,5.9,1.9c0.5,0.6,1.1,1,1.8,1.3c3.8,1.9,6.7,0.2,6.7-4c0-4.5-0.2-9-0.4-13.4
		c-0.1-3-0.2-6-0.4-9c-0.1-1.5,0.5-2.6,2-3c0.7-0.2,1.5-0.4,2.2-0.3c6.1,0.1,12.3,0.2,18.4,0.3c1,0,2.1-0.1,3.1-0.2
		c2.3-0.3,3.4,0.5,3.5,2.9c0.2,4.6,0.3,9.2,0.2,13.8c0,0.8-1.2,2-2.2,2.3c-3.5,1.2-7,2.1-10.5,3c-9.1,2.3-13.9,12.1-9.5,20.3
		c2.6,4.9,6.9,7.5,12.7,7.3c2-0.1,4,0,6,0c1.4,0,2.1,0.6,2.1,2c0,4.2,0,8.4,0.1,12.6c0.1,4.8,0.2,9.5,0.4,14.3
		C292.1,285.6,291.6,286.4,288.8,286.4z M327.8,237.3c-2.9,0.6-5.9,0.9-8.8,1.5c-4,0.9-8,2-12,2.9c-3.5,0.8-6.9,1.8-10.5,2.3
		c-4.4,0.6-8.9,0.9-13.4,1.3c-1.8,0.2-3.1-0.7-3.9-2.2c-0.9-1.8-1.9-3.9-0.2-5.6c1.4-1.4,3.2-2.8,5-3.2c7.2-1.6,14.5-2.7,21.7-4.4
		c6.6-1.5,13.1-3.8,19.7-5.3c5-1.2,8.7-3.9,11.3-8.2c1.3-2.1,2.1-4.6,3.3-6.8c3-5.3,6.4-10.4,8.9-15.9c1.6-3.4,3.9-6.1,6.1-9
		c1.3-1.8,1.1-3.8-0.4-5.2c-2.8-2.7-4-2.9-6.2-1.2c-0.8,0.6-1.6,1.4-2.1,2.3c-3.6,6.2-7,12.4-10.6,18.6c-0.1,0.2-0.3,0.2-0.8,0.5
		c-0.1-1.2-0.4-2.3-0.4-3.3c0-4.4,0.2-8.8,0.1-13.3c-0.1-6.3,6.3-14.2,13.2-14.4c4.5-0.1,8.9-0.6,13.2-2.3c1.2-0.5,2.9-0.2,4.1,0.3
		c3.7,1.6,5.9,4.8,8.3,7.8c2.7,3.5,3.3,7.7,4.5,11.7c0.5,1.6,1.1,3.3,1.4,5c1.4,7.2,2.8,14.5,4.2,21.7c1.6,8.3,3.3,16.6,4.8,24.9
		c1.3,6.9,2.3,13.9,3.4,20.8c0.6,3.9-0.2,5.1-4,5.4c-14.5,1.3-29,3.4-43.7,3.4c-3.7,0-3.6,0-4.2-3.7c-0.7-4.7-1.7-9.3-2.6-14
		c-0.8-4.1-0.1-5.2,3.9-6.1c3.6-0.8,6.5-3.1,8.5-5.8c3.5-4.7,6.4-9.9,9.5-14.9c1.8-2.9,3.4-5.8,5.2-8.6c1-1.7,2-3.4,3-5.1
		c2.2-3.7,4.5-7.4,6.6-11.1c1.9-3.4,0.2-6.7-3.6-6.9c-1.1,0-2.5,0.6-3.2,1.4c-1.4,1.8-2.3,3.9-3.4,5.9c-1.6,2.6-3.2,5.3-4.8,7.9
		c-1.5,2.5-3,5-4.4,7.4c-1.8,3-3.6,6-5.4,9c-1.2,2-2.5,3.9-3.7,6c-2.7,4.7-6.6,7.1-12.1,7.4C331.8,236.1,329.8,236.9,327.8,237.3z
		 M394.7,405c-0.5,0.1-1,0.2-1.4,0.2c-6,0.4-7.7-1-8.8-7c-0.3-1.7-1.1-3.4-1.6-5.1c-0.8-3.1-1.5-6.2-2.4-9.2
		c-1.9-6.8-3.8-13.5-5.7-20.2c-1.6-5.6-3.4-11.2-4.6-16.9c-1.1-5-1.5-10.1-2.1-15.1c-0.5-4.1-0.9-8.2-1.1-12.3
		c-0.2-4.1-0.1-8.3-0.1-12.4h-0.1c0-3.5,0.1-6.9,0-10.4c-0.1-1.8-0.4-3.6-1-5.2c-0.7-1.9-2.7-2.3-4.3-1c-1.8,1.5-2.9,3.4-3.4,5.7
		c-0.4,1.9-1.2,3.6-1.9,5.4c-0.4,1-0.8,2-1.2,3.1c-1.5,4.3-3.1,8.7-4.6,13c-1.8,5.3-3.5,10.5-5.2,15.8c-0.9,2.9-2.2,5.7-2.5,8.7
		c-1.3,11.3-2.2,22.6-3.3,34c-0.8,8-1.6,16-2.5,24.1c-0.4,3.7-1.3,4.4-4.9,4.9c-1.4,0.2-2.8,0.3-4.1,0.2c-3-0.1-5.1-2.9-4.7-5.9
		c0.3-2.3,0.5-4.7,0.5-7c0.1-13.3-0.1-26.6,0.1-40c0.2-7.3,0.6-14.6,1.8-21.8c1-6.1,3.2-12,4.9-18.1c0.3-1,0.4-2,0.7-3
		c1.8-5.8,3.6-11.5,5.4-17.3c0.3-0.9,0.6-1.8,0.8-2.8c1.1-3.7,2.2-7.3,3.4-11c0.5-1.4,1.5-1.9,3-2c11.7-0.8,23.4-1.5,35.1-2.4
		c2.7-0.2,5.3-0.8,7.9-1.4c3.7-0.8,5,0.3,4.7,4.1c-1,10.7-1.8,21.4-2.8,32.1c-0.4,5-1,9.9-1.4,14.8c-0.5,6-0.6,12,1,17.9
		c0.5,1.9,0.6,4,1,5.9c1.8,8.6,3.6,17.2,5.4,25.9c0.2,0.9,0.3,1.9,0.5,2.9c1.4,7.4,2.8,14.9,4.1,22.3
		C400.1,402.6,398.8,404.4,394.7,405z"/>
	<path class="st0" d="M351.3,159.4c1.8-0.5,3.6-1.1,5.4-1.6c0.2-0.1,0.8,0.5,0.8,0.7c-0.1,0.5-0.4,1.4-0.8,1.4
		c-1.7,0.3-3.5,0.4-5.2,0.5C351.4,160.1,351.4,159.7,351.3,159.4z"/>
	<path d="M241,282.3c-0.7,0.2-1.4,0.2-2,0.3c-8.2,0.1-16.4,0.3-24.6,0.4c-1.3,0-2.6-0.1-3.9-0.3c-2.5-0.3-3.5-1.5-3.5-4
		c0-2.8,1-4.4,3.5-4.5c3.9-0.2,7.7,0,11.6,0v-0.5c4.3,0,8.5,0,12.8,0c2.9,0,5.8-0.3,8.1,2.1C245.3,278.4,244.5,281.4,241,282.3z"/>
</g>
</svg>
