<?xml version="1.0" encoding="utf-8"?>
<!-- Generator: Adobe Illustrator 24.0.1, SVG Export Plug-In . SVG Version: 6.00 Build 0)  -->
<svg version="1.1" id="Layer_1" xmlns="http://www.w3.org/2000/svg" xmlns:xlink="http://www.w3.org/1999/xlink" x="0px" y="0px"
	 viewBox="0 0 500 500" style="enable-background:new 0 0 500 500;" xml:space="preserve">
<style type="text/css">
	.st0{fill:#FFFFFF;}
</style>
<g>
	<path d="M431.9,262c-0.4-1.4-1.4-3.1-2.6-3.7c-4.8-2.6-9.8-5-14.8-7.3c-6.4-3-12.8-5.9-19.2-8.9c-2.9-1.4-5.8-2.9-8.6-4.4
		c-3.2-1.7-6.4-3.5-9.7-5c-1.2-0.5-2.7-0.7-4-0.5c-2.6,0.3-3.8,2.5-2.4,4.7c1,1.7,2.3,3.6,3.9,4.6c4.2,2.7,8.6,5.2,13,7.5
		c3,1.6,6.2,2.9,9.3,4.4c6.5,3.1,12.8,6.4,19.4,9.3c4.7,2.1,5.3,2.7,5.3,7.9c0,57,0,114,0,171c0,2.3,0.5,4.5,0.4,6.8
		c-0.1,2.4-1.3,3-3.3,2.1c-6.1-2.9-12.2-5.9-18.5-8.4c-2.8-1.1-3.7-2.6-3.7-5.5c0.1-15.6,0.1-31.2,0.1-46.8c0-40.7,0-81.4,0-122.1
		c0-5-1.6-6.6-6.5-6.7c-1,0-2,0.1-3,0.1c-12.5,0.1-25.1,0.4-37.6,0.3c-5.8-0.1-10.1,3.9-9.6,9.6c0.2,2.2,0.3,4.3,0.4,6.5
		c0.2,16.4,0.5,32.8,0.5,49.2c0,28.7-0.1,57.5-0.2,86.2c0,0.8-1.2,2.2-1.7,2.1c-4.2-0.2-8,0.8-11.5,3.3c-0.5,0.4-1.7,0.3-2.2,0
		c-0.4-0.3-0.3-1.4-0.3-2.1c0.1-1.5,0.5-2.9,0.5-4.4c0-23.9,0.1-47.8,0-71.7c0-2-0.4-4.1-0.9-6.1c-0.5-2.2-2.1-3.4-4.3-3.5
		c-6-0.2-12-0.4-18-0.4c-7.7-0.1-15.4,0.3-23-0.1c-7.1-0.3-10.7,2.6-10.6,9.7c0.2,34.1,0.4,68.2,0.6,102.2c0,1.1-0.3,2.7-1,3.2
		c-4.4,2.7-8.9,5.4-13.6,7.6c-2.5,1.2-3.8-0.3-3.3-3.2c0.2-0.9,0.4-1.7,0.4-2.6c0-6.9-0.2-13.8-0.2-20.7c0.1-13,0.4-26.1,0.4-39.1
		c0-10.8-0.3-21.5-0.4-32.3c0-2-0.4-4.2-2.5-4.4c-1.9-0.2-4.7,0.2-5.8,1.5c-1.4,1.6-2.2,4.4-2.2,6.7c-0.1,8.4,0.3,16.8,0.4,25.1
		c0.1,19.9,0.1,39.7,0.1,59.6c0,2.1,0.2,4.1,0.2,6.2c0,1-0.1,2.6-0.7,2.9c-0.8,0.4-2.3,0.3-3.2-0.1c-1.9-0.8-3.6-2-5.5-2.8
		c-4.2-1.8-8.4-3.4-12.5-5.1c-2.9-1.2-5.8-2.4-8.6-3.8c-6.7-3.1-13.3-6.4-20-9.4c-6.7-3-13.7-5.6-20.3-8.8c-2.5-1.2-5.8-2-5.8-6.2
		c0.1-21.9,0-43.9,0-65.8c0-1.8,0.4-3.6-0.1-5.3c-0.4-1.5-1.4-3.7-2.6-4c-1.6-0.5-4.2,0-5.3,1.1c-1.4,1.3-2.2,3.7-2.4,5.7
		c-0.3,2.3,0.4,4.7,0.4,7.1c0.2,18.6,0.4,37.1,0.6,55.7c0,1.8,0,3.6,0.3,5.3c0.3,2.2-0.4,3.7-2.3,4.7c-2.9,1.4-5.9,2.7-8.8,4.1
		c-4.1,1.9-8.2,3.9-12.3,5.8c-4.1,1.9-8.3,3.6-12.4,5.5c-4.4,2-8.8,4-13.2,5.9c-3.7,1.6-7.4,3.2-11,4.9c-4.8,2.2-9.6,4.6-14.4,6.7
		c-2.8,1.2-3.5,0.7-3.6-2.4c-0.1-5.4,0-10.9,0-16.3c0-54.3,0-108.7-0.1-163c0-4.4,1.7-6.8,5.4-8.5c6.1-2.7,12.2-5.6,18.2-8.4
		c9.4-4.3,18.7-8.7,28-13.1c3.1-1.5,6.3-2.9,9.4-4.3c3.8-1.7,7.5-3.5,11.3-5.2c0.8-0.4,1.9-0.7,2.7-0.4c0.5,0.2,0.8,1.5,0.8,2.3
		c0.1,10.5,0,21.1,0.1,31.7c0,1.2,0,2.4,0.1,3.6c0.1,2.4,1.3,4,3.5,4.5c2.4,0.6,4.2-0.6,5-2.7c1-2.5,1.8-5.2,2-7.9
		c0.3-3.7,0.1-7.5,0.1-11.3c0-6.1,0-12.2,0-18.3c0-1.9,0.4-3.5,2.7-2.4c5,2.3,9.9,4.7,14.9,7.1c6.7,3.1,13.3,6.3,20,9.3
		c1.5,0.7,3.2,1.2,4.8,1.2c1.5,0,3-0.8,4.5-1.3c-0.5-1.6-0.6-3.5-1.5-4.7c-4.2-5.2-10.4-7.6-16.2-10.5c-4.4-2.2-9-4-13.5-6
		c-6.2-2.7-12.4-5.6-18.7-8.2c-1.2-0.5-2.8-0.5-4-0.1c-3.4,1.1-6.8,2.5-10.1,4c-3.8,1.7-7.6,3.7-11.4,5.6c-2.7,1.3-5.4,2.7-8.2,4
		c-6.7,3-13.5,5.8-20.3,8.8c-2.7,1.2-5.3,2.5-8,3.8c-4.3,2-8.5,4-12.8,6c-5.6,2.7-11.2,5.2-16.7,8.1c-1.1,0.6-1.8,2.3-2.2,3.6
		c-0.4,1.4-0.2,2.9-0.2,4.4c0,31.7,0,63.4,0,95.1h0.2c0,32.2,0,64.4,0,96.6c0,1.4,0.1,2.8,0.3,4.1c0.8,4.1,4,6.1,7.9,4.5
		c5-2,10-4.2,14.9-6.5c6.4-2.9,12.8-6.1,19.2-9c6.9-3.1,14-5.9,20.9-8.9c2.8-1.2,5.6-2.5,8.3-3.7c4.9-2.2,10.1-4,14.7-6.7
		c5-2.9,9.4-2.7,14.3,0.2c3.6,2.1,7.7,3.4,11.6,5.1c7.3,3.3,14.6,6.7,22,10c3.7,1.7,7.4,3.2,11.1,4.8c4.7,2.1,9.5,4.3,14.2,6.4
		c3.7,1.7,7.4,3.3,10.9,5.2c4.4,2.5,8.9,3.8,13.8,1.6c3.4-1.5,6.7-3.3,10-4.9c4.4-2.1,8.8-4.3,13.2-6.4c3.6-1.7,7.2-3.2,10.7-4.9
		c3.8-1.8,7.5-3.8,11.4-5.5c6.3-2.9,12.7-5.7,19.1-8.6c3-1.3,5.9-2.7,8.8-4.1c5.8-3,11.4-7.6,18.3-2.3c0.2,0.2,0.6,0.1,0.8,0.2
		c3.7,1.5,7.5,2.9,11.2,4.6c4.5,1.9,8.9,4.1,13.4,6.1c3.9,1.7,8,3.3,11.9,5c6.7,3,13.4,6.2,20,9.2c3.2,1.5,6.5,2.7,9.8,4.2
		c4.5,2,9.1,3.8,13.4,6.1c3.9,2.1,7.1,1,8-3.4c0.2-1.2,0.3-2.5,0.3-3.8c0-6.5,0-13,0-19.6c0.2-56.1,0.4-112.2,0.5-168.3
		C432.6,266.5,432.5,264.2,431.9,262z M311.3,426.2c-8.1,3.6-16.1,7.2-24.2,10.9c-2,0.9-3.8,2.1-5.7,3c-0.7,0.3-1.9,0.6-2.5,0.2
		c-0.6-0.3-0.9-1.5-0.9-2.2c0.1-16.3,0.4-32.6,0.5-48.9c0.1-13.3,0-26.7,0-40c0-1.7-0.2-3.3-0.3-5c-0.2-2.9,0.9-4.3,3.8-4.3
		c4.9-0.1,9.9,0,14.8,0v0c4.6,0,9.3,0,13.9,0c3.7,0,4.2,1.1,4.2,4.7c-0.1,11.8,0.1,23.5,0.1,35.3c0,6.4-0.3,12.8-0.2,19.2
		c0.1,7.2,0.6,14.4,1,21.6C315.9,422.7,313.9,425,311.3,426.2z M387.1,431.6c0,3.5-0.6,4-3.7,2.7c-7.8-3.3-15.5-6.7-23.2-10
		c-1.5-0.7-3.2-1-4.8-1.6c-4.2-1.3-6-4.3-5.5-8.5c0.2-1.6,0.3-3.1,0.3-4.7c0.1-34.6,0.1-69.1,0.2-103.7c0-10.5,0.3-20.9,0.5-31.4
		c0.1-3,1.3-4,4.2-4c8.8,0.2,17.6,0.4,26.3,0.5c5.2,0,5.6,0.4,5.6,5.5c0,25.8,0,51.6,0,77.3h0.1V431.6z"/>
	<path d="M420.6,142.8c-4,0.6-8,1.3-11.9,2.2c-14.7,3.3-29.4,6.7-44.1,10.1c-2.1,0.5-4.1,0.9-4.7,3.4c-0.6,2.5,0.4,4.4,2.4,5.9
		c2.4,1.8,4.8,3.7,7.1,5.7c2.2,1.9,1.9,3.9,0.1,5.9c-1.1,1.2-2.2,2.3-3.3,3.4c-7.6,7-15.5,13.8-22.8,21.2
		c-9.3,9.4-17.9,19.4-27.3,28.8c-7.3,7.3-15.5,13.7-23,20.9c-13.3,12.6-26.4,25.5-39.6,38.3c-2.3,2.3-4.8,4.4-7.2,6.6
		c-1.9,1.7-3.8,2.2-6.2,0.7c-2.8-1.8-5.8-3.4-8.6-5.1c-6.4-3.9-12.8-7.8-19.2-11.7c-9-5.5-17.9-11-27.1-16.3
		c-2.6-1.5-5.6-1.3-8.1,0.8c-5.7,4.9-11.6,9.6-17.1,14.7c-14.8,13.8-29.4,27.8-44.1,41.7c-6.8,6.4-13.8,12.7-20.5,19.3
		c-2.8,2.7-5.4,6.1-4.1,10.2c2.2,6.9,6.3,12.6,12.7,16.5c6.7,4.1,11,2.8,15.9-1.6c13.8-12.5,27.3-25.4,41.1-38
		c6.8-6.3,13.9-12.2,20.9-18.3c1.9-1.7,4-1.8,6.3-0.4c6,3.7,12.1,7.4,18.1,11.1c10.6,6.7,21.1,13.4,31.7,20c2.1,1.3,4.6,1.9,7.1,2.9
		c2.1-0.9,4.2-1.5,5.8-2.5c2.1-1.3,4-2.9,5.8-4.6c9-8.6,18-17.1,26.9-25.8c12.1-11.8,24-23.7,36.2-35.5c13.9-13.5,28-26.8,41.9-40.2
		c11.5-11,22.9-22,34.3-33.1c1.8-1.7,3.2-1.8,5.2-0.4c3.5,2.5,7.1,5,10.8,7.2c4.4,2.7,8.4,0.8,8.9-4.2c0.8-7.9,1-16,1.9-23.9
		c1.1-9.8,2.7-19.5,4-29.3C427.6,144.6,425.3,142.2,420.6,142.8z M416.2,159.7c-1.4,10.2-2.4,20.4-3.7,30.5
		c-0.2,1.4-0.9,3.5-1.8,3.8c-1,0.4-2.7-0.8-3.9-1.6c-1-0.6-1.6-1.7-2.3-2.7c-2.8-3.8-6.7-4.2-10-1.1c-12.6,11.9-25.2,23.9-37.8,35.9
		c-12.2,11.5-24.5,22.9-36.6,34.6c-10.8,10.5-21.2,21.6-32,32.1c-13.1,12.7-26.5,25.1-39.9,37.6c-2.9,2.7-4.6,2.6-7.9,0.4
		c-6.8-4.4-13.6-8.6-20.4-13c-8.4-5.5-16.7-11.1-25.1-16.7c-2-1.3-3.8-2.7-5.8-4.1c-2.2-1.5-6-1.4-8,0.4c-7,6.1-14,12.2-20.8,18.4
		c-15.1,13.9-30.2,27.8-45.3,41.8c-1.9,1.8-4.4,2.1-6.3,0.7c-2.3-1.6-4.2-3.8-5.9-6.1c-1.6-2.2-0.7-4.4,1.1-6.1
		c6.7-6.3,13.4-12.5,20.1-18.8c4.5-4.2,8.9-8.4,13.5-12.5c14.2-12.8,28.4-25.7,42.7-38.4c2.3-2.1,4.9-2,7.6-0.3
		c7.7,4.8,15.4,9.6,23.1,14.3c6.5,4.1,12.9,8.2,19.5,12.2c3.7,2.3,7.5,4.4,11.3,6.3c3.1,1.6,5.6,1,8.1-1.4
		c11.1-10.8,22.1-21.7,33.2-32.5c9.8-9.6,19.8-19,29.6-28.6c10.1-9.9,20-20,30-29.9c9.7-9.5,19.7-18.9,29.4-28.4
		c3.8-3.7,7.3-7.7,10.8-11.8c2.5-3,1.8-6.3-1.5-8.6c-1.7-1.3-3.2-2.8-4.8-4.3c0.1-0.3,0.3-0.6,0.4-0.9c1.2-0.3,2.4-0.6,3.6-0.9
		c9.9-2,19.7-3.9,29.5-6.2C416.1,152.7,417.1,153.5,416.2,159.7z"/>
	<path d="M319.5,116.7c0.7-16.7-4.8-32.8-14-46.8c-9.8-15-23.7-24.7-39.6-31.7c-8.9-3.9-18.6-5.8-28.6-5.5c-9.2,0.3-18.2,0.8-27.1,4
		c-6.5,2.3-12.8,5.2-18.6,8.8C181.4,52.1,173,60.7,166.3,71c-6.8,10.3-10.7,21.5-12.7,33.4c-2.8,17.1,1.2,33.3,8.4,48.6
		c5.2,11,11.4,21.6,17.4,32.2c4.8,8.3,9.8,16.4,15.1,24.3c6.7,9.9,13.8,19.5,20.8,29.1c4.6,6.3,9.2,12.6,14,18.7
		c2,2.6,4.7,4.5,8.2,4.7c1.7,0.1,2.9-0.6,2.3-2.5c-0.8-2.8,0.5-4.8,2.1-6.7c7.9-9.6,15.9-19.1,23.5-28.9c7.8-10.1,15.4-20.5,22.7-31
		c4.7-6.8,9-13.9,12.9-21.2c4.4-8.1,8.2-16.5,11.9-25C317.2,137.1,320.2,127,319.5,116.7z M310.1,114c0.1,14.6-3.8,26.8-9.6,38.5
		c-8.8,17.8-19.4,34.6-31.2,50.5c-9,12.1-18.6,23.8-27.9,35.7c-1.6,2.1-3,4.4-4.5,6.6c-1.8,2.6-3.9,2.6-5.6,0
		c-5.8-8.5-11.6-16.9-17.3-25.3c-5.5-8.2-11.1-16.3-16.5-24.5c-5.4-8.2-10.7-16.5-15.7-25c-3.6-6.2-6.8-12.6-9.9-19.1
		c-2-4.1-3.6-8.3-5.3-12.5c-0.5-1.1-0.9-2.2-1.1-3.4c-2.7-13.4-4-26.8,0.1-40.1c3-9.7,7.5-18.8,14.3-26.6c5.9-6.7,12.6-12.5,20.3-17
		c8.8-5.1,18.5-7.7,28.6-9c10.8-1.5,21.4,0.3,31.4,3.8c10,3.5,19,8.9,26.9,16.3c6.3,5.9,11.4,12.7,15,20.3
		C307,93.3,310.5,103.9,310.1,114z"/>
	<path d="M294.2,235c0.9,0.6,2.1,1,2.4,1.7c0.3,0.9,0.2,2.3-0.3,3c-4,5.2-9,9.3-14.8,12.4c-2.4,1.3-4.8,2.7-7.2,3.9
		c-3.9,1.9-7.7,3.8-11.7,5.6c-2,0.9-4.1,1.4-6.2,2c-5,1.2-6.7,3.6-5.5,8.5c0.9,3.5,1,6.8-0.3,10.1c-0.9,2.3-2.4,3.9-5.1,3.6
		c-2.6-0.3-4.4-1.9-4.6-4.3c-0.3-5.8-0.2-11.6-0.2-17.5c0-0.7,0.9-1.5,1.5-1.9c5.1-3.3,10.3-6.5,15.5-9.6c3-1.8,6.1-3.5,9.3-5
		c6.5-2.9,13.2-5.7,19.7-8.5c1-0.4,1.8-1.2,2.8-1.7C291,236.5,292.6,235.8,294.2,235z"/>
	<path class="st0" d="M296.8,339.8c4.6,0,9.3,0,13.9,0c3.7,0,4.2,1.1,4.2,4.7c-0.1,11.7,0.1,23.5,0.1,35.3c0,6.4-0.3,12.8-0.2,19.2
		c0.1,7.2,0.6,14.4,0.9,21.6c0.1,2.1-1.9,4.5-4.5,5.6c-8.1,3.6-16.1,7.2-24.2,10.9c-2,0.9-3.8,2.1-5.7,3c-0.7,0.3-1.9,0.5-2.5,0.2
		c-0.5-0.3-0.9-1.5-0.9-2.2c0.1-16.3,0.4-32.6,0.5-48.9c0.1-13.3,0-26.7,0-40c0-1.7-0.2-3.3-0.3-5c-0.3-2.9,0.9-4.3,3.8-4.3
		C286.9,339.7,291.9,339.8,296.8,339.8C296.8,339.8,296.8,339.8,296.8,339.8z"/>
	<path d="M236.9,72.7c-27.1-0.4-46.1,21.6-46,46.1c0.1,23.9,19.5,43.5,44.9,43.7c27.6-0.3,45.4-19.9,45.9-43.4
		C282.1,94.3,262.2,73.1,236.9,72.7z M263.5,140.7c-4.1,4.8-9.3,8-15.2,9.8c-8,2.4-16.3,2.7-24.2,0c-8.7-2.9-15.2-8.5-19.5-16.9
		c-4.4-8.6-4.5-17.5-2.2-26.2c2.5-9.6,8.2-17.4,17.9-21.5c5.2-2.2,10.3-4.1,14-3.6c17.1,0.3,28.4,7.1,34.7,20.8
		c3.1,6.8,4.3,14.4,2.3,22.2C269.7,131.1,267.3,136.2,263.5,140.7z"/>
</g>
</svg>
