<?xml version="1.0" encoding="utf-8"?>
<!-- Generator: Adobe Illustrator 24.0.1, SVG Export Plug-In . SVG Version: 6.00 Build 0)  -->
<svg version="1.1" id="Layer_1" xmlns="http://www.w3.org/2000/svg" xmlns:xlink="http://www.w3.org/1999/xlink" x="0px" y="0px"
	 viewBox="0 0 500 500" style="enable-background:new 0 0 500 500;" xml:space="preserve">
<style type="text/css">
	.st0{fill:none;stroke:#1671A2;stroke-width:9;stroke-miterlimit:10;}
</style>
<g>
	<path d="M423.6,135c-3.2-1.7-6.6-3.1-9.9-4.6c-3.5-1.6-7-3-10.5-4.6c-2.8-1.3-5.5-2.6-8.3-4c-3.4-1.6-6.7-3.3-10.1-4.8
		c-3.6-1.7-7.3-3.2-10.9-4.9c-2.4-1.1-4.8-2.3-7.2-3.4c-5.9-2.9-11.7-5.9-17.6-8.7c-3.4-1.7-7-3.1-10.4-4.8
		c-5.8-2.8-11.4-5.7-17.3-8.4c-6.2-2.9-12.4-5.5-18.6-8.3c-2.3-1.1-4.7-2.2-7-3.3c-5.9-2.9-11.7-5.9-17.6-8.8
		c-2.6-1.3-5.3-2.4-7.9-3.7c-3.9-1.9-7.9-4-11.8-5.9c-3.5-1.7-7-3.6-11.1-1.6c-2.7,1.3-5.4,2.6-8.1,3.9c-3.3,1.6-6.6,3.1-9.9,4.7
		c-3.3,1.7-6.6,3.4-10,5.1c-2.5,1.2-4.9,2.4-7.4,3.5c-3.6,1.6-7.2,3.1-10.7,4.7c-2.6,1.1-5.2,2.3-7.7,3.5c-3.6,1.8-7.2,3.8-10.9,5.5
		c-3.3,1.6-6.7,2.9-10,4.4c-4.4,2-8.7,4.1-13,6.2c-3,1.4-6,2.8-9,4.2c-4.1,2-8.3,3.9-12.4,5.9c-3.1,1.4-6.2,2.8-9.2,4.3
		c-3.6,1.7-7.1,3.7-10.7,5.3c-6.2,2.8-12.5,5.4-18.7,8.3c-6.2,2.9-12.4,6-18.5,9c-0.5,0.2-0.9,0.3-1.4,0.5c-4.2,1.1-6.9,4.4-6.9,8.7
		c0,7.4-0.1,14.7,0.2,22.1c0.1,2,1.1,4.2,2.2,5.9c1.1,1.6,3.1,1.8,5,0.8c3.8-1.9,7.6-3.9,11.4-5.7c4.9-2.4,5.4-2.1,5.4,3.4
		c0.1,20.9,0.3,41.8,0.4,62.7c0.2,42.3,0.4,84.6,0.6,126.9c0,3.7-1.3,4.6-4.9,4.5c-4-0.2-8,0-12,0.2c-2.2,0.1-3.7,1.5-4.1,3.8
		c-0.3,2.1,1.1,4.5,3.2,5.1c1.1,0.3,2.3,0.4,3.5,0.4c16.8,0,33.6,0,50.4,0v0h50.9c3.6,0,4.3,0.6,4.2,4.2c-0.1,3.9-0.2,7.8-0.2,11.8
		c0,4.1,0.2,8.2-0.1,12.3c-0.4,4.7,1.7,7.8,6.3,9c1.3,0.3,2.6,1.2,3.8,1.8c0.8,0.4,1.5,1.1,2.3,1.4c4.6,2,9.2,3.8,13.8,5.8
		c3.3,1.4,6.6,2.9,9.8,4.3c2.6,1.1,5.1,2.3,7.7,3.4c4.2,1.7,8.6,3.2,12.7,5c5.9,2.6,11.6,5.6,17.5,8.2c4.4,2,8.9,3.7,13.5,5.3
		c1.4,0.5,3.4,0.5,4.8-0.1c5.8-2.3,11.5-4.9,17.2-7.3c6.5-2.8,13.1-5.4,19.6-8.2c2.8-1.2,5.6-2.5,8.4-3.8c4.1-1.9,8.1-3.8,12.2-5.7
		c3.5-1.6,7-3.2,10.4-4.8c3.9-1.8,7.7-3.9,11.7-5.5c4.4-1.7,5.8-3.1,5.8-7.8c0-8.7,0-17.4,0-26.1c0-2.8,0.6-3.5,3.5-3.8
		c1.2-0.1,2.3-0.1,3.5-0.1c15.4,0,30.8,0,46.1,0c3.4,0,5.3-1.7,5.4-4.6c0.1-2.6-2-4.7-4.8-4.8c-3.6-0.1-7.2-0.1-10.7-0.2
		c-6.2,0-6.2,0-5.9-6.1c0-0.4,0-0.8,0-1.3c-0.2-63.6-0.3-127.2-0.5-190.8c0-2.1,1.2-2.9,3.1-2.1c0.8,0.3,1.4,0.9,2.1,1.3
		c4.6,2.4,9.1,4.8,13.8,7c2.2,1,4.2-0.1,4.9-2.5c0.3-0.9,0.5-1.8,0.5-2.7c0-8.2,0.1-16.4,0.1-24.6
		C427.3,138.4,425.9,136.3,423.6,135z M194.4,343.9c-4.1-1.6-8.1-3.4-12.2-5.1c-1.2-0.5-2.5-1-3.7-1.4c-2.1-0.7-2.5-1.9-1.1-3.5
		c5.4-6.6,10.8-13.1,16.3-19.7c0.9-1,2.1-1.8,3-2.5c1,0.3,1.5,0.3,1.9,0.5c3.8,1.8,7.6,3.7,11.5,5.4c3.2,1.4,6.4,2.6,9.6,4
		c4.6,2,9.1,4.1,13.6,6.1c3.4,1.5,6.9,2.9,10.3,4.4c4,1.8,8,3.6,12,5.5c3.5,1.7,7,3.5,10.5,5.1c3.1,1.3,3.6,2.9,1.3,5.4
		c-4.6,5.1-9.2,10.2-13.7,15.3c-3.4,3.8-3.4,3.8-8.2,1.8c-6.5-2.7-12.9-5.3-19.3-8.1c-6.5-2.8-13-5.9-19.5-8.7
		C202.5,346.7,198.4,345.5,194.4,343.9z M273.9,384.6L273.9,384.6c-0.1,12.5-0.1,24.9-0.1,37.3c0,2.9-0.1,5.8-0.1,8.7
		c0,2.6-1.1,3.4-3.4,2.4c-4.6-2-9-4.2-13.6-6.2c-3.8-1.7-7.7-3.2-11.5-4.8c-3.8-1.7-7.6-3.4-11.4-5.1c-3.7-1.6-7.5-3.2-11.2-4.8
		c-4.3-1.9-8.7-3.8-13-5.8c-3-1.4-6.1-2.7-8.9-4.3c-1-0.6-2.3-2-2.3-3.1c-0.1-7.6,0.2-15.2,0.2-22.8c0-4.7,0-9.4,0-14
		c0-0.9-0.3-1.8-0.3-2.7c0-1-0.1-2.6,0.3-2.8c0.9-0.4,2.3-0.3,3.3,0.1c2.3,0.8,4.5,1.9,6.8,2.9c4.1,1.8,8.2,3.6,12.3,5.4
		c2.7,1.2,5.3,2.4,8,3.5c3.8,1.6,7.7,3,11.6,4.7c2.7,1.1,5.3,2.5,7.9,3.5c4.1,1.6,6.3,0.7,9-2.8c4.3-5.5,8.9-10.8,13.4-16.2
		c0.5-0.5,1.4-0.7,2.1-1.1c0.3,0.7,0.8,1.4,0.8,2.2C274,367.4,273.9,376,273.9,384.6z M354.6,402.2c-3.4,1.3-6.5,3.2-9.8,4.8
		c-3.4,1.6-6.7,3.2-10.1,4.8c-4.4,2-8.9,4.1-13.4,6c-3.8,1.7-7.7,3.2-11.5,4.9c-2.8,1.2-5.6,2.5-8.4,3.7c-5.2,2.3-10.5,4.8-15.7,7.1
		c-2.5,1.1-3.3,0.5-3.3-2.3c0.3-20.8,0.7-41.6,1-62.3c0-3.7,0-7.3,0.1-11c0-0.9,0.4-1.7,0.8-3.3c3.2,3.6,5.8,6.6,8.4,9.6
		c3.3,3.8,6.5,7.6,9.8,11.4c1.8,2,6.1,1.8,9.1,0.1c4-2.2,8.3-4.1,12.5-6c4-1.9,8-3.7,12-5.5c3.2-1.4,6.4-2.9,9.6-4.2
		c2.8-1.2,5.5-2.3,8.3-3.4c2-0.8,3.1-0.1,3.1,2c-0.1,10.1-0.3,20.2-0.3,30.3c0,3.3,0.2,6.5,0.4,9.8
		C357.3,400.5,356.6,401.5,354.6,402.2z M358.1,344.8c-3.8,1.5-7.4,3.4-11.1,5c-4.2,1.8-8.5,3.3-12.7,5c-3.7,1.5-7.3,3.2-10.9,4.9
		c-0.9,0.4-1.8,0.8-2.7,1.2c-3.4,1.5-6.9,2.8-10.2,4.5c-1.8,0.9-3.2,1.1-4.5-0.3c-5.2-5.6-10.3-11.3-15.4-17.1
		c-1-1.1-2.4-2.6-2.3-3.8c0.1-0.9,2.2-1.8,3.5-2.4c4.1-2.1,8.3-4.2,12.5-6.2c3.9-1.9,7.8-3.6,11.8-5.5c2.6-1.2,5.1-2.4,7.7-3.5
		c3.8-1.6,7.7-3.2,11.5-4.8c3.6-1.6,7.2-3.4,10.8-5.1c3.5-1.6,7-3.1,10.5-4.6c1.7-0.7,3.1-0.1,4.4,1.4c5.5,6.5,11,12.9,16.5,19.4
		c0.6,0.7,0.9,1.5,1.6,2.7c-1,0.8-1.7,1.7-2.7,2.1C370.3,340,364.2,342.3,358.1,344.8z M390.4,362.9c-6.6,0.3-13.2,0.6-19.8,0.9
		c-3.3,0.2-4.1-0.3-4.6-3.7c-0.3-1.7-0.5-3.5-0.4-5.2c0-0.9,0.7-2,1.4-2.6c0.9-0.8,2.1-1.4,3.2-1.9c4.2-1.6,8.4-3.1,12.5-4.8
		c2.9-1.2,5.8-2.4,8.5-4c2-1.1,2-4.8,0.4-6.7c-9-10.2-17.8-20.5-27-30.6c-1.4-1.6-4-2.5-6.2-3c-3.4-0.7-6.5-1.7-9.5-3.7
		c-2.3-1.6-5-2.6-7.6-3.8c-2.6-1.2-5.2-2.3-7.8-3.3c-3.8-1.5-7.6-2.8-11.3-4.5c-3.5-1.6-6.9-3.6-10.4-5.3c-2.7-1.3-5.5-2.3-8.4-3.2
		c-1.7-0.5-3.4,0.1-3.9,1.9c-0.3,1.2,0,3.1,0.7,4c3.1,3.7,7,6.3,11.5,8.1c3.9,1.6,7.7,3.6,11.5,5.3c3.6,1.6,7.2,3,10.8,4.4
		c3.4,1.3,6.9,2.4,10.3,3.7c0.4,0.1,1,0.6,1,0.9c0,0.5-0.4,1.1-0.8,1.4c-0.9,0.5-1.8,0.9-2.7,1.3c-7.1,3-14.3,5.9-21.4,9
		c-3.4,1.5-6.6,3.4-10,5c-3.5,1.7-7.1,3.1-10.6,4.8c-3.4,1.6-6.7,3.3-10,4.9c-1.2,0.6-2.5,1-3.7,1.5c-5.7,2.8-11.4,2.4-17-0.1
		c-3.5-1.5-7-3.1-10.4-4.7c-3.5-1.7-6.9-3.5-10.4-5.2c-3.6-1.7-7.3-3.3-10.9-4.8c-4.2-1.8-8.5-3.5-12.7-5.3c-4.6-2-9.3-4.2-13.9-6.3
		c-0.5-0.2-1.1-1-1.1-1.5c0-0.5,0.8-1,1.4-1.2c4.3-1.9,8.6-3.8,13-5.6c3.8-1.6,7.7-3,11.6-4.6c3.6-1.5,7.2-3,10.8-4.5
		c1.6-0.7,3.3-1.3,4.9-1.8c3.3-1.1,4.8-3.6,4.1-7c-0.5-2.7-3.3-4-6-2.9c-6.8,2.9-13.7,5.6-20.4,8.6c-3.6,1.5-7,3.4-10.6,4.9
		c-3.8,1.7-7.7,3.2-11.5,4.8c-2.5,1-5,2.2-7.6,3.1c-1.3,0.5-2.8,0.8-4.2,0.8c-2.9-0.1-4.6,1.4-6.2,3.5c-5.7,7.4-11.5,14.8-17.3,22
		c-2.4,3-5,5.7-7.5,8.6c-1.7,2-1,6,1.5,7.2c3.2,1.5,6.4,2.7,9.7,4c3.4,1.3,6.9,2.5,10.2,3.9c3.1,1.3,3.9,3.5,3,6.8
		c-0.4,1.5-0.5,3-0.8,4.4c-0.3,1.9-1.4,2.5-3.4,2.5c-10-0.1-20-0.1-30.1,0.1c-2.3,0-3.1-0.9-3.1-2.9c0-3.8,0-7.5,0-11.3
		c0.1-34.9,0.2-69.9,0.3-104.8c0-2.7-0.3-5.3-0.3-8c0-2,1-3,3.1-3c4.4,0.1,8.8,0.2,13.3,0.2c24.8,0,49.7,0,74.5,0
		c2.6,0,5.2-0.2,7.8-0.5c3.3-0.3,5.2-2.5,5.1-5.6c-0.1-2.6-2.5-4.5-5.7-4.4c-4.1,0.2-8.2,0.9-12.2,0.9c-24.6,0.1-49.1,0-73.7,0
		c-3,0-6,0-9,0.1c-1.7,0-2.7-0.7-2.8-2.5c-0.1-2.5-0.2-5-0.1-7.5c0.2-3.2,0.9-3.6,4.1-3.6c17.6,0.1,35.3,0.3,52.9,0.4
		c12.2,0.1,24.4,0.1,36.6,0.1c2.1,0,4.2,0.1,6.2,0c2.5-0.1,3.7-1.5,3.8-4.1c0.1-3.1-1-5-3.4-5.7c-1-0.3-2.2-0.3-3.2-0.3
		c-20.6,0-41.1,0.1-61.7,0.1c-12.6,0-25.2-0.1-37.8-0.1c-4.8,0-6.2,1.5-6.3,6.7c-0.1,11.4,0,22.9-0.1,34.3c0,8.9,0,17.7,0,26.6h0
		c0,19.2,0,38.5,0,57.7c0,9.3-0.2,18.5-0.3,27.8c0,2.2,0.1,4.3,0.1,6.5c0,1.8-0.9,2.7-2.8,2.7c-10,0-19.9,0-29.8,0.1
		c-1.7,0-2.7-0.9-2.7-2.6c0-2.5,0-5,0-7.5c-0.1-26.7-0.3-53.3-0.4-80c0-4.7,0.3-9.4,0.3-14c-0.1-29.9-0.3-59.8-0.5-89.8
		c0-2.3-0.3-4.5-0.6-6.7c-0.4-3.3,1.1-5.9,4-7.2c8.5-3.8,17-7.5,25.5-11.3c7.4-3.4,14.8-6.9,22.2-10.3c7.2-3.3,14.4-6.4,21.5-9.8
		c6-2.8,11.9-5.9,17.9-8.8c3.3-1.6,6.7-3,10-4.5c5.7-2.7,11.3-5.6,17-8.4c3-1.5,6-2.8,9.1-4.2c4.7-2.2,9.5-4.5,14.2-6.8
		c2.8-1.3,5.3-0.7,7.9,0.7c3.4,1.8,6.8,3.4,10.3,5c6.6,3.1,13.3,6.2,19.9,9.3c2.6,1.2,5.1,2.4,7.7,3.6c3.6,1.6,7.2,3.1,10.8,4.7
		c2.6,1.2,5.1,2.4,7.7,3.6c3.6,1.8,7.3,3.6,10.9,5.4c2.5,1.2,5.1,2.5,7.7,3.6c6.1,2.7,12.2,5.3,18.3,8c2.2,1,4.3,2.1,6.5,3.2
		c3.6,1.8,7.1,3.6,10.7,5.3c3.4,1.6,6.8,3,10.2,4.5c3.6,1.6,7.2,3.3,10.8,5c1.1,0.5,2.2,1.3,3.3,1.7c3.4,1.3,4.1,2.4,4.1,6
		c-0.2,13.2-0.4,26.4-0.5,39.6c-0.1,27.1,0,54.2,0,81.2c0.1,25.5,0.3,51,0.5,76.5C394.4,362.2,393.7,362.8,390.4,362.9z
		 M418.2,155.6c0,1.5-0.9,2.3-2.4,2.2c-0.7-0.1-1.5-0.3-2.1-0.6c-3.2-1.7-6.4-3.6-9.6-5.3c-3-1.6-6.1-2.9-9.2-4.4
		c-3.9-1.8-7.8-3.7-11.7-5.6c-2.8-1.4-5.7-2.8-8.5-4.1c-2.2-1-4.4-2-6.6-3c-8.4-3.9-16.8-7.8-25.1-11.7c-8.7-4.1-17.3-8.2-25.9-12.2
		c-6-2.8-12.2-5.4-18.2-8.2c-6-2.8-11.8-5.7-17.8-8.5c-3.5-1.6-7-3.1-10.5-4.7c-3.5-1.6-6.9-3.3-10.4-4.9c-2.5-1.2-4.9-2.5-7.6-3.3
		c-3.3-1-5.9,1.3-8.6,2.5c-4.1,1.8-8.1,3.8-12.2,5.7c-4,1.9-8,3.7-11.9,5.6c-2.4,1.1-4.8,2.3-7.2,3.4c-3.5,1.6-7.1,3.1-10.7,4.7
		c-3.4,1.5-6.7,3.2-10.1,4.8c-3.5,1.6-6.9,3.3-10.3,5c-6.6,3.1-13.2,6.2-19.8,9.3c-3.6,1.7-7.3,3.2-11,4.8c-2.7,1.2-5.5,2.4-8.2,3.7
		c-3.5,1.7-6.9,3.6-10.5,5.3c-3.4,1.6-7,3.1-10.5,4.7c-3.7,1.7-7.3,3.5-11,5.3c-3.1,1.5-6.1,3-9.2,4.4c-3.2,1.5-6.5,2.9-9.7,4.4
		c-1.9,1-3.7,2.2-5.7,3.2c-2.4,1.2-3.2,0.6-3.3-2c-0.1-1.8,0-3.5,0-5.3c-2.2-6.9,2.6-9.2,7.5-11.4c5.9-2.7,11.9-5.3,17.7-8
		c5.9-2.8,11.7-5.9,17.7-8.7c3.5-1.7,7.2-3.1,10.8-4.7c3.5-1.6,6.9-3.3,10.3-4.9c3.8-1.7,7.6-3.3,11.4-5.1c3.4-1.6,6.7-3.3,10-5
		c2.8-1.4,5.7-2.7,8.6-4c3.6-1.7,7.3-3.2,10.9-4.9c3.4-1.6,6.7-3.3,10.1-4.9c3.1-1.5,6.3-2.9,9.5-4.4c4-1.9,7.9-3.9,11.9-5.7
		c5.9-2.8,11.8-5.4,17.6-8.2c3.5-1.7,7.1-3.3,10.5-5.2c2.6-1.4,5-1.3,7.6,0.2c2.6,1.5,5.4,2.7,8.1,3.9c3.6,1.7,7.3,3.3,10.9,4.9
		c2.3,1.1,4.7,2.2,7,3.3c3.6,1.8,7.3,3.6,10.9,5.4c2.5,1.2,5,2.4,7.5,3.5c3.4,1.5,6.8,3,10.2,4.6c3.7,1.7,7.3,3.6,10.9,5.4
		c2.3,1.1,4.6,2.3,7,3.3c6.1,2.8,12.1,5.5,18.2,8.2c2.8,1.3,5.5,2.7,8.3,4c7.1,3.4,14.3,6.7,21.4,10c7.4,3.4,14.8,6.8,22.1,10.3
		c6.4,3.1,12.8,6.2,19.2,9.5c0.9,0.5,1.7,1.9,1.8,3C418.4,148.6,418.3,152.1,418.2,155.6z"/>
	<path d="M280,123.2c-6-6.8-13.9-11-22.9-12.4c-13.1-2.1-24.5,1.9-34.2,10.9c-4.2,3.9-7.1,8.8-9.1,14.4c-2.2,6-3,11.9-2.2,18.1
		c0.8,5.4,2.6,10.4,5.5,15.1c7.3,12,18.1,18.7,32.1,18.9c9.4,0.1,18.4-2.7,26.1-8.7c9.3-7.3,14.6-16.6,15.1-27.5
		C290.2,140.5,287,131.1,280,123.2z M269.7,171.9c-9.3,6.1-9.4,6.3-20.2,6.5h-0.3c-11.9,0.5-20.4-5.2-25.3-15.4
		c-3.2-6.6-5.1-13.8-2.2-21.8c2.9-8.2,7.8-14.3,15.2-18.3c2.7-1.5,6-2,9.1-2.6c2-0.4,2.6,0.8,1.5,2.5c-1.5,2.4-1.8,4.9-1.7,7.7
		c0.1,4.2,0.2,8.4,0,12.5c-0.3,8.1,2.7,9.6,9.4,12.1c2,0.8,3.9,1.8,5.7,2.9c2.4,1.5,4.9,1.7,7.4,0.7c2.6-1.1,2.9-5.4,0.4-7.2
		c-2.4-1.8-5.1-3.2-7.6-4.7c-1.6-1-3.5-1.7-4.9-2.9c-0.7-0.6-1.1-2-1.2-3c-0.2-4.6-0.1-9.2-0.3-13.7c-0.1-1.2-0.9-2.3-1.3-3.5
		c-0.9-2.1-0.3-3.1,1.9-3.1c6.1,0.1,11.3,2.4,15.8,6.5c6.8,6,9.5,14,9.5,22.6C280.6,158.6,277.6,166.7,269.7,171.9z"/>
	<path d="M357.5,285.2c-0.1,2.5-0.8,5.1-1.9,7.3c-1,2.2-3.5,2.2-5.3,0.5c-1.9-1.8-2.8-4.1-2.7-6.8c0-8.2,0-16.4,0-24.6h0v-24.8
		c0-3.1-1.1-3.9-4.1-3.8c-3.9,0.2-7.8-0.1-11.8,0c-7.8,0.1-15.5,0.2-23.3,0.3c-3.6,0.1-5.6-0.9-6.9-3.8c-1.1-2.4-0.5-4.1,1.9-5.1
		c1-0.4,2.1-0.6,3.2-0.6c11.2-0.2,22.4-0.3,33.6-0.5c1.3,0,2.5-0.1,3.8,0.2c2.2,0.4,3.3-0.6,3.5-2.5c0.2-2.5,0.2-5-0.1-7.5
		c-0.2-2-1.5-2.6-3.5-2.6c-12.6,0.2-25.2,0.3-37.8,0.3c-0.8,0-1.7-0.2-2.5-0.4c-2.1-0.4-3.9-1.3-4-3.8c-0.1-2.2,1.5-4.5,3.8-5
		c1.7-0.4,3.5-0.6,5.2-0.6c13.7,0,27.4,0,41.1,0c6,0,7.4,1.4,7.5,7.4c0,20.2,0,40.4,0,60.6C357.2,274.7,357.6,280,357.5,285.2z"/>
	<path d="M323.4,409.8c-1,1.2-2.1,2.5-3.5,3.2c-5.3,2.6-10.7,5.1-16,7.5c-2.8,1.3-5.6,2.5-8.5,3.7c-0.8,0.3-1.8,0.4-2.7,0.5
		c-0.1,0.2-0.2,0.3-0.3,0.5c-1.2-0.8-2.9-1.3-3.3-2.3c-0.5-1.2,0-3,0.5-4.4c0.2-0.7,1.2-1.4,2-1.8c5.6-2.6,11.2-5,16.8-7.6
		c2.7-1.2,5.3-2.8,8.1-3.8c1.6-0.6,3.5-0.7,5.1-0.4C323.9,405.1,324.8,407.9,323.4,409.8z"/>
	<path d="M308.7,405.9c-4.2,1.9-8.4,4-12.6,6c-1.6,0.8-3.4,1.3-5.4,2.1c-1.1-0.8-2.6-1.3-3-2.2c-0.8-2.1-0.3-4.5,1.6-5.7
		c5.5-3.3,10.8-7.3,17.4-8.3c3.3-0.5,6.3,0.6,6.7,2.5C313.8,402,311.4,404.6,308.7,405.9z"/>
	<polygon class="st0" points="305.5,257.8 290.4,274.1 281,284.2 278.4,287.1 275.5,284.2 264.4,273.1 249.3,257.8 264.4,257.8 
		264.4,196.4 290.4,196.4 290.4,257.8 	"/>
</g>
</svg>
