<?xml version="1.0" encoding="utf-8"?>
<!-- Generator: Adobe Illustrator 24.0.1, SVG Export Plug-In . SVG Version: 6.00 Build 0)  -->
<svg version="1.1" id="Layer_1" xmlns="http://www.w3.org/2000/svg" xmlns:xlink="http://www.w3.org/1999/xlink" x="0px" y="0px"
	 viewBox="0 0 1000 1000" style="enable-background:new 0 0 1000 1000;" xml:space="preserve">
<g>
	<path d="M994.7,13.4c0-2.7-4-5.5-6.5-8.7C813.7,4.7,638.2-5,464.1,6.9C167,27.2-34.6,323.7,47.3,609
		c17.1,59.5,48.7,114.8,82.2,191.6C91.5,830,45.8,865.3,1,899.9c33,34.6,57.9,60.7,94.6,99.1c29.7-34.4,56-62.1,79.1-92.2
		c27.1-35.2,50.2-36.2,89.9-11.7c283.2,174.9,679.8,2.8,721.6-323.6C1009.7,388.1,993.4,199.6,994.7,13.4z M690,520.9
		c-86.1,77.9-174.2,153.5-261.7,229.9l-16.5-4.7c3-13.8,2.2-30.1,9.6-40.9c36.9-53.5,76-105.5,121.2-167.5
		c-66.7-6.8-122.8-10.7-178.3-19.1c-16.9-2.6-40.5-14.5-45.2-27.7c-4.5-12.6,7.4-37.1,19.6-48.3c85.8-78.3,173.5-154.5,260.6-231.3
		c5.2,1.8,10.5,3.6,15.7,5.4c-3.3,14.9-2.6,32.4-10.5,44.2C568,314.7,529.2,367,484.8,428.9c65,6.7,121.9,11.1,178.3,19.3
		c16.4,2.4,39.6,12.8,44.2,25.2C711.8,485.8,701.7,510.3,690,520.9z"/>
</g>
</svg>
