<?xml version="1.0" encoding="utf-8"?>
<!-- Generator: Adobe Illustrator 24.0.1, SVG Export Plug-In . SVG Version: 6.00 Build 0)  -->
<svg version="1.1" id="Layer_1" xmlns="http://www.w3.org/2000/svg" xmlns:xlink="http://www.w3.org/1999/xlink" x="0px" y="0px"
	 viewBox="0 0 1000 1000" style="enable-background:new 0 0 1000 1000;" xml:space="preserve">
<g>
	<path d="M475.7,539c-88.4,51.2-167.5,95.9-245.2,143.1c-11.5,7-19.3,24-23.7,38c-12.6,40.2-22.6,81.2-33.8,121.8
		c-4.3,15.4-8.9,34.8-29.9,25c-7.3-3.4-12.2-23.4-10-34.1c9.8-46.2,22.6-91.8,35.1-140.5c-46.5-11.6-92.5-21.5-137.3-35.2
		c-11.8-3.6-29.6-10.3-30-28.5c9.5-14.3,27.9-14.5,40.3-12.5c37.9,6.2,74.8,18.5,112.7,25.4c18,3.3,40.7,6.3,55.4-1.7
		c79.7-43.2,157.6-89.8,242.8-139.2c-87.2-50.3-168.6-97.9-250.9-143.7c-8.9-4.9-23.6-1.8-35,0.7c-42.8,9.1-85.5,19.3-128.1,29.4
		c-15.3,3.6-35.1,11.5-36.2-12.4c-0.9-18.6,16.1-26.2,27.9-29.7c43.3-13,87.8-21.8,137.2-33.5c-7.7-32.7-14.6-62.7-21.9-92.5
		c-4.1-17-7.3-32.4-12.4-50.9c-4.3-10.7-2.4-25.3,14.2-33.7c9.3-0.8,18.3,6.7,24,22.3c8.5,21,12.7,42.8,18.6,65.7
		c18,63.9,40.1,106.5,100.5,134.3C351.5,384.6,408.3,423,475.8,462c0-82.1-3.6-155.3,1.2-227.9c3.6-54.4-18.8-84.5-54.5-127.3
		c-20.1-24-44.4-40.2-63.2-63.1c-6.8-8.3-17.3-22.2-6.1-36.7c15.3-12.6,27.9,0.4,36.9,7.2c19.4,14.8,36.3,33.1,52.6,51.5
		c16.3,18.3,30.6,38.4,48.7,61.5c35.8-35.9,62.7-62.8,89.7-89.7c8.7-8.7,18-17.8,26.7-25c9.5-7.8,18.4-19.1,37-3.5
		c12.2,12,0.3,25.4-5.9,32.5c-20.7,23.8-44.5,44-67.2,66.6c-37.5,41.7-57.9,73.1-54.4,127.4c4.7,72.9,1.2,146.4,1.2,228
		c88.3-51.2,170.1-97.9,250.7-146.5c10.1-6.1,16.2-22.2,20.2-34.9c11-35.2,19.6-71.1,29.6-106.6c5-17.6,5-47,30.1-40.6
		c28.2,7.2,14.2,34.6,9.7,54c-6.7,29-14.4,57.8-22.7,86.5c-7.1,24.4-4.6,39.7,25.5,44.3c34.5,5.3,68.5,14.5,102.2,23.8
		c15.3,4.2,40.3,3.2,34.4,29.5c-5.4,24.2-24.9,18-42.7,13.5c-42.5-10.6-85.1-20.9-128.1-29.4c-12.6-2.5-28.7-2.3-39.4,3.7
		c-79.4,44.2-157.8,90.1-244,139.9c86.4,50,165.3,97,245.9,141c13.2,7.2,34.1,3.8,50.6,0.6c39.5-7.7,77.3-16.9,117.8-26.4
		c11.7-1.9,31.1-6.1,38.5,15c-0.4,19.3-17.5,22.4-28.6,25.7c-44.9,13.4-90.8,23.7-139.3,35.9c10,40.8,19,78.1,28.2,115.3
		c2.5,10.2,4.7,20.3,7.1,30.5c2.1,11.7,3.3,23.8-10.5,31.3c-17.2,0.9-25.4-13-28.6-22.6c-12.2-40-22.1-81.3-34.3-121.6
		c-4.3-14.4-10-33.1-21.1-39.9c-80.3-49.1-162.1-95.7-250.9-147.4c0,101.5-0.9,194,1,286.3c0.3,13.1,12.7,27.8,22.8,38.5
		c30.2,31.8,62.2,61.9,93.3,92.9c12.1,12.1,21.9,27.7,4.5,39.6c-6,6.7-27.4-0.9-35.3-8.5c-34-32.9-65.7-68.2-102.6-107.3
		C471.1,909.8,444,936,417,962.2c-8.8,8.6-16.1,19.8-26.5,25.3c-10.6,5.6-21,17.2-36.5,8.1c-8-19.7,0.2-31.6,8.1-40.4
		c29.2-32.6,62.6-61.5,92.6-93.5c9.9-10.5,19.8-26.2,20.1-39.7C476.6,730.8,475.7,639.5,475.7,539z"/>
</g>
</svg>
