<?xml version="1.0" encoding="utf-8"?>
<!-- Generator: Adobe Illustrator 24.0.1, SVG Export Plug-In . SVG Version: 6.00 Build 0)  -->
<svg version="1.1" id="Layer_1" xmlns="http://www.w3.org/2000/svg" xmlns:xlink="http://www.w3.org/1999/xlink" x="0px" y="0px"
	 viewBox="0 0 1000 1000" style="enable-background:new 0 0 1000 1000;" xml:space="preserve">
<style type="text/css">
	.st0{fill:#606060;}
</style>
<g>
	<path class="st0" d="M310.5,630.8c2.3,0.2,4.6,0.4,7,0.4c-0.1,0-0.3,0-0.4,0C314.9,631.2,312.7,631.1,310.5,630.8z"/>
	<path class="st0" d="M317.6,505.7c-2.4,0-4.7,0.1-7,0.4c2.2-0.3,4.4-0.4,6.6-0.4C317.3,505.7,317.4,505.7,317.6,505.7z"/>
	<path d="M498,1C236.7,2.1-3.1,221.7,2,498.8C-2,756.3,203.5,999.4,499,999c289.3-0.4,499-229.3,499.1-495.1
		C998.2,191.3,738.7,0,498,1z M501.7,962.1C252.4,963.8,36.5,760.5,39.1,498.3C35.7,257.4,237.7,40.7,499.3,40.5
		C746.9,40.3,959.9,236.4,960.7,502C961.5,766,745.4,960.4,501.7,962.1z"/>
	<path class="st0" d="M464.5,565.1c0.1,0.3,0.1,0.7,0.1,1c0.1-0.1,0.1-0.2,0.2-0.3C464.7,565.6,464.6,565.3,464.5,565.1z"/>
	<path d="M310.5,630.8c2.3,0.2,4.6,0.4,7,0.4c-0.1,0-0.3,0-0.4,0C314.9,631.2,312.7,631.1,310.5,630.8z"/>
	<path d="M317.6,505.7c-2.4,0-4.7,0.1-7,0.4c2.2-0.3,4.4-0.4,6.6-0.4C317.3,505.7,317.4,505.7,317.6,505.7z"/>
	<path d="M462.6,504.2c11.7-18.6,31.9-50.6,31.9-50.6s-0.8-32.4-32.2-18.9c-18.6,24.6-24.5,33.7-34.6,48.1c-6.3-3-13.2-5.9-20.9-8.6
		l12.8-44c0.5-1.8,0.8-3.7,0.8-5.5c0-8.4-5.5-16.2-14-18.7c-10.3-3-21.1,2.9-24.1,13.2l-13,44.7c-9.3-2-19.6-3.8-31.1-5.5V417
		c0-5.4-2.2-10.2-5.7-13.8c-3.5-3.5-8.4-5.7-13.8-5.7c-10.7,0-19.5,8.7-19.5,19.5v42.9c-9.5,0.8-19.5,1.9-29.7,3.5l-12.9-44.2
		c-3-10.3-13.8-16.2-24.1-13.2c-8.5,2.5-14,10.2-14,18.7c0,1.8,0.3,3.6,0.8,5.5l12.2,41.8c-8,2.4-15.9,5.3-23.4,8.6
		c-9.2-13.1-15.4-22.6-33.1-45.8c-31.4-13.4-32.2,18.9-32.2,18.9s18.8,29.8,30.6,48.6c-14.3,12.7-24.9,29.1-29.5,50.1
		c-21,115,187.4,150.3,286.5,95.4c11.9-6.6,53-26.8,60.2-66.1c4-22-1.3-56.7-23.8-74.5C465,505.8,463.6,504.8,462.6,504.2z
		 M319.4,643.5c-80.4,0-145.6-32.6-145.6-72.8c0-40.2,65.2-72.8,145.6-72.8c76.6,0,139.3,29.6,145.1,67.1c0.1,0.3,0.1,0.7,0.1,1
		c0,0,0,0,0,0.1c0,0,0,0.1,0.1,0.2c0,0.1,0.1,0.2,0.1,0.3c0,0-0.1,0.1-0.1,0.1c0.1,1.3,0.2,2.6,0.2,3.9
		C464.9,610.9,399.8,643.5,319.4,643.5z"/>
	<path d="M380.5,560.9v15.2c0,30.5-28,55.2-62.5,55.2c-0.2,0-0.3,0-0.5,0c-2.4,0-4.7-0.1-7-0.4c-31-3.3-55-26.5-55-54.8v-15.2
		c0-28.2,24-51.5,55-54.8c2.3-0.2,4.6-0.4,7-0.4c0.2,0,0.3,0,0.5,0c17.2,0,32.9,6.2,44.2,16.2C373.5,531.9,380.5,545.7,380.5,560.9z
		"/>
	<path class="st0" d="M380.5,560.1v0.8c0-15.2-7-29-18.3-39c-11.3-10-26.9-16.2-44.2-16.2c-0.2,0-0.3,0-0.5,0c-2.4,0-4.7,0.1-7,0.4
		c-31,3.3-55,26.5-55,54.8v-0.8c0-27.9,24-50.9,55-54.1c2.2-0.3,4.4-0.4,6.6-0.4c0.1,0,0.3,0,0.4,0c0.2,0,0.3,0,0.5,0
		c17.2,0,32.9,6.1,44.2,15.9C373.5,531.5,380.5,545.1,380.5,560.1z"/>
	<path class="st0" d="M464.7,566.3c0-0.1,0-0.1-0.1-0.2c0,0,0,0,0-0.1C464.7,566.2,464.7,566.2,464.7,566.3z"/>
	<path d="M849.8,285.5c-0.5-32.9-13.7-62.3-46.8-75.4c-15.3-6.1-33-8.2-49.7-8.5c-52.3-1-104.6-0.4-156.9-0.4c-68,0-136-0.7-204,0.2
		c-29.4,0.4-51.6,8.1-66.7,22.9c-9,5.1-17.3,20.8-17.5,33.7c-0.2,12.9,0,115.6,0,115.6c0,4.7,3.8,8.4,8.4,8.4H330
		c2.4,0,4.7-1,6.2-2.7c1.4-1.5,2.2-3.5,2.2-5.7v-14.7c0,0-0.2-76,0-81.2c0.2-5.2,5.9-20.3,12.9-26.7c13.7-12.5,33.4-11.2,40.7-11.2
		c122.9-0.5,245.9-0.6,368.8,0c37.9,0.2,51.5,14.3,51.8,53c0.6,87.6,0.2,175.3,0.2,262.9c0,3.9,0.1,7.9-0.3,11.8
		c-2.9,27.3-14.9,40-41.8,43.1c-10.3,1.2-20.9,0.7-31.4,0.7c-51.9,0-103.9,0-155.8,0c-14,0-32-0.1-56.1,0.2
		c-17.4,0.2-31.7,0.5-41.1,0.7v37.4c22.4-0.3,44.9-0.5,67.3-0.8c0.1,31.6,0.2,63.2,0.2,94.8H448.5c-6.9,0-12.6,5.6-12.6,12.6v16.9
		c0,6.9,5.6,12.6,12.6,12.6h258.6c6.9,0,12.6-5.6,12.6-12.6v-16.9c0-6.9-5.6-12.6-12.6-12.6H595.8c0.4-31.7,0.8-63.4,1.2-95.2
		c10.2-0.2,26.4-0.5,46.4-0.3c66.1,0.7,84.4,1,121.6-0.5c51.7-2.1,83.2-29.8,84.3-79.5C851.7,473.8,851.1,379.6,849.8,285.5z"/>
</g>
</svg>
