<?xml version="1.0" encoding="utf-8"?>
<!-- Generator: Adobe Illustrator 24.0.1, SVG Export Plug-In . SVG Version: 6.00 Build 0)  -->
<svg version="1.1" id="Layer_1" xmlns="http://www.w3.org/2000/svg" xmlns:xlink="http://www.w3.org/1999/xlink" x="0px" y="0px"
	 viewBox="0 0 500 500" style="enable-background:new 0 0 500 500;" xml:space="preserve">
<g>
	<path d="M447,193.2c-5.2-3.2-10.4-6.6-15.6-9.8c-3.5-2.2-7-4.3-10.6-6.4c-8.6-5.1-17.2-10.1-25.7-15.2
		c-8.5-5.1-16.9-10.2-25.4-15.3c-7.3-4.4-14.6-8.7-21.9-13.1c-4.1-2.5-8.2-4.9-12.3-7.4c-7-4.1-14-8.2-20.9-12.3
		c-6.4-3.8-12.7-7.7-19.1-11.6c-6.6-4-13.2-7.9-19.9-11.8c-8.2-4.8-16.3-9.6-24.6-14.3c-1-0.6-2.7-0.7-3.6-0.2
		c-6.4,3.5-12.7,7.2-18.9,11c-6,3.7-11.9,7.5-17.9,11.2c-6.3,3.9-12.7,7.7-19.1,11.6c-6.8,4.1-13.5,8.3-20.3,12.4
		c-4.4,2.7-8.9,5.3-13.3,8c-6.3,3.9-12.6,8-18.9,11.9c-7.1,4.3-14.3,8.6-21.5,12.8c-4.7,2.8-9.4,5.5-14,8.2c-4.5,2.6-9,5.1-13.4,7.8
		c-6.6,4-13.1,8-19.7,12c-6.1,3.7-12.3,7.2-18.3,11c-1.1,0.7-2.1,2-2.3,3.2c-0.4,3.1-0.5,6.3-0.5,9.4c-0.1,9.1-0.1,18.2,0,27.3
		c0.1,4.4,2.8,5.9,6.7,4.1c0.8-0.4,1.5-0.9,2.3-1.4c3.9-2.6,7.8-5.3,11.8-7.8c0.8-0.5,2.1-0.8,2.9-0.5c0.6,0.2,1.1,1.5,1.1,2.4
		c0.1,5.2,0,10.4,0,15.6c0,57.3,0.1,114.7,0.2,172c0,5.3,1.4,6.7,6.6,6.7c16.1,0,32.3,0,48.5-0.1c40.2,0,80.4,0,120.6,0v0
		c46.5,0,92.9,0,139.4,0c10.2,0,20.5,0,30.7-0.1c3.5,0,4.8-1.1,5.2-4.5c0.3-2.2,0.4-4.5,0.4-6.8c0-15-0.1-30,0-45.1
		c0.1-45.8,0.3-91.6,0.5-137.4c0-1,0.6-2.5,1.3-2.8c0.9-0.4,2.5-0.1,3.4,0.4c4.2,2.6,8.2,5.5,12.2,8.3c1.7,1.2,3.8,1.8,5.5,0.5
		c1.2-0.9,2.2-2.7,2.3-4.2c0.3-10.9,0.4-21.8,0.4-32.6C451,197.4,449.7,194.9,447,193.2z M235.7,411.2c0.2,4.1-0.7,5.1-4.8,5.1
		c-20.9,0-41.7,0-62.6,0c-3.1,0-6.2,0.1-9.2,0.3c-2.5,0.1-3.8-0.8-3.8-3.2c-0.1-6.1-0.1-12.2,0.1-18.2c0.1-2.5,1.4-3.6,3.7-3.6
		c12.3,0,24.5,0,36.8,0v0.2h34.6c0.7,0,1.5,0.1,2.2,0.1c2.3,0,3.3,1.2,3.3,3.3c0,2.5-0.2,5-0.2,7.5
		C235.7,405.5,235.6,408.4,235.7,411.2z M345.3,412.5c0,2.9-1,3.7-3.6,3.7H305v0.1c-11.8,0-23.7,0-35.5,0c-4,0-4.5-0.5-4.5-4.4
		c0-5.3,0-10.5,0.1-15.8c0-4,0.8-4.8,4.9-4.8c23.8,0,47.5,0,71.3,0c3.2,0,4.1,0.8,4.2,3.9C345.4,401,345.4,406.7,345.3,412.5z
		 M368.1,416.6c-3.8,0-7.6,0-11.5,0c-2.9,0-3.6-0.7-3.6-3.7c0-7.2,0.1-14.4,0.1-21.7c0-7.4-0.9-8.2-8.3-8.2
		c-26.4,0-52.8,0.1-79.2,0.1c-1,0-2,0-2.9,0.1c-3.8,0.4-6,2.5-6,6.4c-0.1,6.7,0.1,13.3,0.2,20c0,0.6,0.1,1.3,0.1,1.9
		c0.1,4.5-0.5,5.2-5.1,5.1c-1.5,0-2.9,0-4.4,0c-3,0.1-4-0.8-4-3.8c0.1-7.3,0.3-14.6,0.3-21.9c0-1.6-0.4-3.3-1.1-4.6
		c-1.1-2.1-3.2-2.8-5.6-2.8c-28.1,0-56.2,0-84.3,0c-4,0-5.9,2.2-5.9,6.9c0,7.1,0.1,14.3,0.1,21.4c0,4.2-0.6,4.9-4.9,4.8
		c-3.2,0-6.3-0.2-9.5,0c-4.3,0.1-5.2-0.7-5.2-4.9c0.1-12.4,0.3-24.8,0.3-37.2c0-14.6-0.2-29.2-0.2-43.8c0-12,0.2-24,0.2-36
		c0-2.8-0.2-5.7-0.3-8.5c0-2.9,1.1-3.9,4-3.9h118.4c38.7,0,77.5,0,116.2,0c0.6,0,1.3,0,1.9,0c3.1,0.1,3.9,0.8,3.9,4
		c0,16.4,0,32.8,0,49.2c0,21.4,0,42.9,0,64.3c0,4.3,0.1,8.6,0.1,12.9C372.2,415.8,371.3,416.6,368.1,416.6z M417.1,411
		c0,4.5-0.9,5.3-5.4,5.3c-8.7,0.1-17.4,0.2-26,0.4c-4.5,0.1-5.3-0.5-5.2-4.8c0-44.3,0.1-88.5,0.1-132.8c0-3.8-1.2-5.1-5.1-5.1
		c-11.9-0.1-23.7-0.1-35.6-0.1c-30,0-59.9,0-89.9,0v0.1H135.6c-3.7,0-7.5,0-11.2,0.1c-2.7,0-4.5,1.5-4.7,4.2
		c-0.3,3.6-0.3,7.3-0.3,11c0,16.8,0,33.6,0,50.4c0,23.9,0,47.9,0,71.8c0,4.3-1,5.2-5.4,5.1c-8.8-0.1-17.5,0-26.3,0.1
		c-0.5,0-1,0-1.5,0c-3.4-0.1-4.1-0.8-4.1-4.2c0-10.8,0.1-21.6,0.1-32.4c0-49-0.1-98.1-0.1-147.1c0-2.6-0.1-5.2-0.3-7.8
		c-0.1-2,0.6-3.5,2.3-4.5c5.5-3.5,10.9-7,16.4-10.4c6.5-4,13-7.9,19.5-11.8c4.7-2.8,9.4-5.4,14.1-8.1c4.4-2.6,8.7-5.3,13.1-7.9
		c5.3-3.2,10.6-6.3,15.8-9.5c6-3.6,12.1-7.3,18.1-10.9c5.3-3.2,10.6-6.2,15.9-9.4c4.5-2.7,9-5.5,13.5-8.2c4.9-2.9,9.8-5.7,14.6-8.6
		c6.9-4.1,13.8-8.1,20.7-12.2c2.2-1.3,4.2-1.3,6.4-0.1c7.5,4.3,15.1,8.5,22.5,12.9c8.5,5,16.9,10.3,25.3,15.4
		c4.6,2.7,9.2,5.4,13.8,8.1c4.4,2.6,8.8,5.2,13.2,7.7c7.3,4.3,14.6,8.7,21.9,13c4.8,2.9,9.6,5.8,14.4,8.6c4.2,2.5,8.6,4.9,12.8,7.5
		c5,3,9.9,6.1,15,9.1c4.9,2.9,9.8,5.6,14.7,8.5c3.1,1.8,6.2,3.8,9.2,5.8c1.7,1.1,2.2,2.8,2.2,4.9c-0.2,53.9-0.4,107.8-0.5,161.7
		C417,394.9,417,402.9,417.1,411z M442.7,221.7c0,1.2-0.3,2.8-1.1,3.4c-0.5,0.4-2.3-0.2-3.3-0.8c-7-4.2-13.9-8.5-20.9-12.7
		c-6.5-3.9-13.1-7.7-19.7-11.6c-6.9-4.1-13.7-8.3-20.6-12.4c-6.4-3.8-12.9-7.5-19.3-11.3c-6.8-4-13.6-8.2-20.4-12.2
		c-4.2-2.5-8.4-4.9-12.6-7.4c-7.5-4.4-14.9-8.8-22.4-13.2c-4.5-2.7-9.1-5.3-13.7-7.9c-8.8-5.2-17.6-10.6-26.5-15.8
		c-3.7-2.2-7.5-4.3-11.4-6c-1.3-0.6-3.5-0.4-4.8,0.3c-5.6,3.1-10.9,6.6-16.4,9.9c-7,4.1-14,8.1-21,12.2c-4.7,2.8-9.3,5.7-13.9,8.4
		c-4.2,2.5-8.5,5-12.7,7.5c-7.3,4.3-14.6,8.7-21.9,13c-8.6,5.1-17.3,10.1-26,15.2c-4.5,2.6-8.8,5.5-13.2,8.2
		c-6.8,4.1-13.7,8-20.5,12.1c-4.2,2.5-8.5,5.1-12.7,7.7c-4.5,2.7-9,5.5-13.5,8.2c-4.4,2.7-8.8,5.4-13.3,8c-0.9,0.5-2.3,1.2-3,0.8
		c-0.7-0.4-1-1.9-1-2.9c-0.1-3.1,0-6.2,0-9.2h0.2c0-2.8,0.2-5.5,0-8.3c-0.2-3,1-5.2,3.4-6.8c8.2-5,16.5-10,24.7-15
		c10.4-6.3,20.8-12.6,31.2-18.8c6.5-3.8,13-7.5,19.5-11.3c4.7-2.8,9.4-5.7,14.1-8.6c6.5-4,13-7.9,19.5-11.9c4-2.5,7.9-5,12-7.5
		c7.3-4.4,14.8-8.8,22.1-13.3c8-4.9,15.9-10,23.9-15c6.3-3.9,12.6-7.6,19-11.4c2-1.2,4-1,6,0.2c9.6,5.8,19.2,11.5,28.8,17.2
		c11.5,6.9,22.9,13.7,34.4,20.6c8.4,5.1,16.7,10.3,25.1,15.3c8.5,5.1,17.1,10,25.5,15c8.5,5.1,16.8,10.4,25.3,15.5
		c8.3,5,16.7,9.9,25.1,14.9c6.5,3.9,13,8,19.4,11.9c1.3,0.8,2.8,1.4,4,2.2c2.1,1.4,3.1,3.3,3,6C442.9,210.1,442.9,215.9,442.7,221.7
		z"/>
	<path d="M248.8,178.1c-16.1,0-26.6,12.9-27.6,28.3c-0.1,14.5,12.7,27.3,27.3,27.5c17.2,0.2,28.9-12.6,29.1-26.9
		C277.8,192,266.1,178.1,248.8,178.1z M248.6,226.6c-10.5,0.1-19.5-9.2-19.5-20.2c0-12.3,8.3-20.9,20.4-21
		c12.2-0.1,20.8,9.2,20.8,20.5C270.3,217.7,261,226.6,248.6,226.6z"/>
	<path d="M227.1,233.4c-1,1.7-1.6,3-2.4,3.9c-2.1,2.2-4.4,4.3-6.6,6.5c-2.1,2-4.2,2.2-6,0.4c-1.5-1.5-1.3-3.8,0.6-5.8
		c2.2-2.5,4.5-4.9,6.7-7.4c1.1-1.2,2.3-2.5,3.9-1.4C224.6,230.4,225.7,231.9,227.1,233.4z"/>
	<path d="M287.5,170.9c-0.2,0.4-0.4,1.4-1,2.1c-2.4,2.8-4.8,5.5-7.4,8.1c-1.2,1.3-2.7,2.4-4.5,1.1c-1.7-1.3-2.7-3.1-1.9-5.3
		c0.3-1,0.8-2.1,1.5-2.7c2.6-2.3,5.2-4.7,8.1-6.6C284.8,165.7,287.6,167.4,287.5,170.9z"/>
	<path d="M253.4,166.8c0,1,0,2.2-0.5,2.8c-0.9,1-2.3,2.2-3.5,2.3c-0.9,0.1-2.6-1.3-2.8-2.3c-0.6-2.5-0.6-5.1-0.8-7.1
		c0-2.5-0.3-4.4,0.1-6.3c0.2-1.2,1.2-2.8,2.1-3.1c1.1-0.3,3.1,0.3,3.8,1.2c1,1.4,1.5,3.3,1.7,5.1
		C253.7,161.8,253.5,164.3,253.4,166.8z"/>
	<path d="M287.6,240.5c0,3.1-2.8,5.2-5,3.7c-3.5-2.6-6.6-6-9.4-9.4c-1.2-1.5,0.1-4.5,1.6-5.3c2-1,3.4,0.3,4.6,1.6
		c2.2,2.3,4.5,4.6,6.6,7C286.9,238.9,287.3,240,287.6,240.5z"/>
	<path d="M225.3,180.7c-1.3,1.7-3.3,2.4-4.9,1.1c-3.4-2.8-6.8-5.8-9.6-9.1c-1.8-2.1,0.1-5,3.6-5c0.4,0.2,1.5,0.5,2.2,1.2
		c2.7,2.4,5.4,4.9,8.1,7.4C226,177.4,226.6,179,225.3,180.7z"/>
	<path d="M214.4,205.2c-0.1,2.2-1.6,3.4-4.2,3.4c-1.8,0-3.6,0-5.3,0v0c-1.9,0-3.7,0-5.6,0c-2-0.1-3.2-1.1-3.3-3.1
		c-0.1-2,0.9-3.6,3-3.7c3.8-0.3,7.6-0.4,11.4-0.5C212.9,201.3,214.5,203,214.4,205.2z"/>
	<path d="M302.9,205.2c0,2.1-2.4,3.8-5.1,3.5c-2.7,0.1-5.3,0.3-8,0.4c-0.7,0-1.5,0-2.2-0.1c-1.9-0.4-3.3-1.5-3.4-3.6
		c-0.1-2.2,1.4-3.5,3.4-3.7c1.7-0.2,3.5,0.2,5.3,0.2c1.7,0.1,3.4,0,5.1,0C300.9,201.8,302.9,203.2,302.9,205.2z"/>
	<path d="M252.9,249.4c0,1.8,0.1,3.6,0,5.3c-0.1,2.1-1.7,3.6-3.6,3.6c-2.1-0.1-3-1.5-3.2-3.3c-0.3-3.5-0.5-7.1-0.6-10.7
		c0-2.4,1.4-4,3.3-4.1c2.1-0.1,3.8,1.6,4,4C253,246,252.9,247.7,252.9,249.4C252.9,249.4,252.9,249.4,252.9,249.4z"/>
	<path d="M353.8,344.4c0-2,0-4.1-0.2-6.1c-0.6-4.7-1.7-5.6-6.5-5.6c-13.9,0-27.8,0-41.6,0v0h-42.1c-4.4,0-6.6,1.9-6.7,6.2
		c-0.1,9.2,0,18.3,0.1,27.5c0,2.8,1.3,4.5,4,5.1c2.2,0.4,4.5,0.3,6.7,0.3c23.7,0,47.4,0,71.1-0.1c3.4,0,6.8,0,10.2-0.3
		c3.4-0.3,5-2,5-5.4C353.9,358.9,353.8,351.7,353.8,344.4z M341.9,363.6c-12.2,0-24.5,0-36.8,0v0c-11.9,0-23.9,0-35.8,0
		c-4.2,0-4.8-0.9-4.6-5.1c0.2-3.9,0.2-7.8-0.1-11.7c-0.3-4.1,0.8-5.6,4.9-5.6c4.5,0,8.9,0.3,13.4,0.3c19.5-0.1,39.1-0.3,58.7-0.4
		c2.8,0,4.1,1.2,4.1,4.2c0.1,4.9,0.1,9.9,0.1,14.8C345.8,362.5,344.6,363.6,341.9,363.6z"/>
	<path d="M244,340.5c0-5.6-2.3-7.7-7.9-7.7c-13.8,0-27.6,0-41.4,0v0.1c-13.9,0-27.8,0-41.6,0c-4.4,0-6.5,1.7-6.5,6.1
		c0,8.8,0,17.7,0.1,26.5c0,4.5,2.4,6.7,6.8,6.7c23.3,0,46.6,0,69.9,0.1c4.5,0,9.1,0.1,13.6,0c5.3-0.1,7.2-2.1,7.2-7.3
		C244.1,356.9,244.1,348.7,244,340.5z M236.1,347.7c-0.3,3.6-0.2,7.3-0.1,10.9c0.2,4.1-0.8,5.4-4.9,5.4c-6.8,0.1-13.6,0-20.4,0
		c-17.3,0-34.6,0-51.9,0c-2.9,0-4.3-1.5-4.2-4.4c0.1-4.4,0.3-8.8,0.3-13.1c0-4.7,1-5.5,5.7-5.5c11.6,0.1,23.2,0,34.8,0v0.1
		c11.7,0,23.4,0,35.1,0C235.7,341.2,236.5,342.4,236.1,347.7z"/>
</g>
</svg>
