<?xml version="1.0" encoding="utf-8"?>
<!-- Generator: Adobe Illustrator 24.0.1, SVG Export Plug-In . SVG Version: 6.00 Build 0)  -->
<svg version="1.1" id="Layer_1" xmlns="http://www.w3.org/2000/svg" xmlns:xlink="http://www.w3.org/1999/xlink" x="0px" y="0px"
	 viewBox="0 0 500 500" style="enable-background:new 0 0 500 500;" xml:space="preserve">
<g>
	<path d="M424.3,192c-0.1-3.1-1-5.6-4.3-7c-4.1-1.7-8-3.8-12-5.8c-5.2-2.6-10.4-5.1-15.6-7.7c-4.6-2.3-9.2-4.5-13.8-6.8
		c-4.9-2.4-9.8-4.9-14.7-7.3c-5.1-2.5-10.2-4.9-15.3-7.4c-4.5-2.2-8.9-4.5-13.4-6.7c-5-2.4-10-4.8-15-7.2c-4.8-2.3-9.6-4.7-14.4-7
		c-4.9-2.3-9.8-4.5-14.7-6.9c-6.4-3.2-12.8-6.5-19.2-9.7c-5.8-2.9-11.7-5.7-17.4-8.6c-2.6-1.3-5-1.2-7.5,0.1
		c-3.6,1.8-7.3,3.5-10.9,5.3c-4.8,2.4-9.7,4.8-14.5,7.1c-4.7,2.3-9.4,4.5-14,6.8c-4.6,2.2-9.3,4.3-13.9,6.5c-5,2.4-9.9,5-14.9,7.4
		c-7,3.4-14,6.8-21,10.3c-4.8,2.4-9.7,4.8-14.6,7.1c-4.7,2.3-9.5,4.5-14.3,6.8c-6.9,3.3-13.7,6.8-20.6,10.1c-4.9,2.4-9.9,4.6-14.8,7
		c-5,2.4-10.1,4.9-15,7.5c-0.9,0.5-1.8,1.7-2.1,2.7c-0.5,1.2-0.5,2.5-0.5,3.8c-0.1,9.5-0.1,19-0.1,28.6c0,4,1.9,5.3,5.5,3.6
		c4.4-2.1,8.6-4.5,13-6.7c1.1-0.6,2.8-1.1,3.7-0.7c0.8,0.3,1.2,2.2,1.2,3.3c0.2,44.1,0.3,88.2,0.3,132.4c0,13.2,0,26.3,0.1,39.5
		c0,2.9,1.1,4.1,3.9,4.2c3.5,0.1,7,0.3,10.5,0.3c46.8,0,93.6,0,140.4,0c0,0,0,0,0,0c18.1,0,36.2,0,54.3,0c18,0,35.9,0.1,53.9,0.1
		c11.4,0,22.9,0,34.3-0.1c2.8,0,3.8-1,3.8-3.8c0-1.6,0-3.2,0-4.7c-0.1-55.8-0.3-111.7-0.4-167.5c0-0.6,0-1.2,0.1-1.8
		c0.2-1.7,1.3-2.4,2.9-2c0.8,0.2,1.5,0.6,2.3,1c4.8,2.6,9.6,5.2,14.4,7.8c2.3,1.2,3.6,0.5,4-2.1c0.1-0.6,0.1-1.2,0.1-1.8
		c0-7.1,0.1-14.2,0.1-21.4C424.1,197.6,424.3,194.8,424.3,192z M390.2,391.3H251.9v-0.1c-22.3,0-44.7,0-67,0
		c-23.2,0-46.5-0.2-69.7-0.2c-1.9,0-3.8,0.2-5.7,0.3c-3.2,0.1-4.4-1.1-4.4-4.3c-0.1-55.3-0.2-110.7-0.3-166.1c0-1.2-0.1-2.3-0.2-3.5
		c-0.3-2.8,0.4-4.5,3-5.7c5.4-2.6,10.8-5,16.2-7.5c9.8-4.6,19.6-9.1,29.3-13.8c9-4.3,18-8.8,27-13c5.1-2.4,10.2-4.6,15.3-6.9
		c4.3-2,8.5-4,12.8-6.1c5.5-2.5,10.9-5.1,16.4-7.6c5.2-2.4,10.4-4.8,15.7-7.2c2.6-1.2,5.2-2.6,7.9-3.4c1.5-0.5,3.4-0.4,4.9,0.2
		c3.4,1.3,6.6,3,9.9,4.5c7.7,3.6,15.4,7.3,23.2,10.9c7.1,3.3,14.4,6.4,21.5,9.6c7.3,3.3,14.5,6.7,21.8,10c7,3.3,14,6.6,20.9,10
		c6.9,3.3,13.7,6.8,20.6,10c4.9,2.4,10,4.6,14.9,6.9c2.4,1.1,4.7,2.3,6.9,3.6c1.9,1.1,2.1,3,2.1,5c0,14,0,27.9,0,41.9
		c0,21.6,0,43.3,0.1,65c0.1,20.8,0.2,41.7,0.3,62.5C395.2,390.5,394.5,391.3,390.2,391.3z M418.6,204.2h-0.1c0,3.4,0.1,6.8,0,10.3
		c-0.1,2.8-1.9,3.7-4.3,2.3c-2.4-1.5-4.9-3-7.5-4.3c-7-3.4-14.1-6.6-21.1-10c-4.3-2.1-8.6-4.3-12.9-6.3c-7.6-3.7-15.3-7.3-23-10.9
		c-6.7-3.2-13.3-6.5-19.9-9.6c-5.1-2.4-10.4-4.6-15.5-7c-5.1-2.4-10.1-4.9-15.2-7.3c-2.3-1.1-4.6-2.1-6.9-3.2
		c-9.1-4.2-18.1-8.3-27.2-12.5c-3.1-1.5-6.1-3-9.1-4.7c-3.4-2-6.7-2.1-10.3-0.4c-6.4,3.1-13,5.8-19.4,8.8c-4.7,2.2-9.3,4.6-14,6.8
		c-4.7,2.2-9.4,4.4-14.1,6.6c-5.5,2.6-10.9,5.2-16.3,7.7c-5.1,2.4-10.3,4.7-15.4,7.2c-5.1,2.4-10.2,4.9-15.3,7.3
		c-4.6,2.2-9.1,4.4-13.7,6.5c-5.2,2.5-10.3,5-15.5,7.5c-4.8,2.3-9.7,4.4-14.5,6.7c-6.1,2.9-12.2,5.8-18.3,8.8
		c-1.2,0.6-2.1,1.6-3.2,2.2c-2.7,1.5-4.4,0.3-4.3-2.8c0.1-5.3,0.6-10.6,0.2-15.8c-0.5-5.6,1-9,6.5-11.1c5.7-2.1,11-5.1,16.5-7.7
		c4.3-2.1,8.6-4.2,12.9-6.3c7.4-3.6,14.8-7.1,22.2-10.7c6.9-3.4,13.7-6.8,20.6-10.2c4.7-2.3,9.5-4.6,14.2-6.9
		c6.7-3.3,13.3-6.6,20-9.9c7-3.4,14-6.6,20.9-10c4.5-2.2,9-4.4,13.5-6.5c6.5-3.1,13.1-6.3,19.7-9.2c1.2-0.5,3.1-0.4,4.3,0.2
		c7.5,3.4,14.9,6.9,22.3,10.5c6.5,3.2,13,6.4,19.5,9.6c6.9,3.4,13.9,6.7,20.9,10.1c4.7,2.3,9.4,4.7,14.1,7c4.8,2.4,9.7,4.7,14.5,7.1
		c5,2.5,10,5.1,15,7.6c4.3,2.1,8.6,4.1,12.9,6.3c7.2,3.5,14.3,7.1,21.5,10.7c4.5,2.2,9,4.3,13.4,6.6c3.1,1.6,6.2,3.2,9.2,4.9
		c1.8,1,2.4,2.6,2.4,4.6C418.6,197.9,418.6,201.1,418.6,204.2z"/>
	<path d="M251.6,249.8c-0.3,1-1.4,2.1-2.4,2.3c-4.3,1.1-8.6,0-12.3-1.9c-3.4-1.8-5.7-0.6-8.3,1.1c-2.6,1.7-5.3,3.4-8,5
		c-2.1,1.3-2.3,2.4-0.3,3.8c2.6,1.8,5.1,3.7,7.9,5.1c1.5,0.8,3.6,0.9,5.3,0.7c4.1-0.5,8.3-1.3,12.4-2c1.6-0.3,3.1-0.1,3.6,1.8
		c0.4,1.8-1,2.5-2.4,3c-1.4,0.5-2.9,0.8-4.3,1.5c-0.6,0.3-1.3,1.2-1.3,1.8c0,0.6,0.9,1.4,1.5,1.7c1,0.5,2.2,0.6,3.3,1
		c1.5,0.5,2.6,1.5,2.8,3.2c0.3,2.6-1.4,4.2-3.9,3.3c-1.5-0.6-2.8-1.7-4.3-2.4c-1-0.5-2.1-0.6-3.2-0.8c-0.2,1-0.5,2-0.5,3.1
		c0,0.9,0.5,1.8,0.7,2.8c0.5,1.7,0.6,3.3-1.3,4.3c-1.5,0.8-3.9-0.1-4.6-2c-1-2.7-1.7-5.6-2.4-8.4c-0.3-1,0-2.1-0.4-3
		c-0.5-1.2-1.2-2.5-2.2-3.3c-3-2.2-6.2-4.2-9.5-6.1c-1-0.6-2.6-0.7-3.7-0.4c-0.5,0.2-0.8,1.9-0.8,2.9c-0.2,4-0.2,7.9-0.3,11.9
		c0,2.3,1,4.2,2.7,5.8c2.2,2,4.3,4.2,6.4,6.4c0.6,0.7,1,1.7,1.1,2.6c0.2,1.5,0.1,3-1.6,3.6c-1.6,0.6-2.6-0.2-3.5-1.4
		c-0.8-1-1.8-1.9-2.7-2.8c-1.4-1.3-2.4-1-3,0.9c-0.2,0.7-0.2,1.3-0.2,2c0,1,0,2.1-0.1,3.1c-0.2,1.5-0.8,2.9-2.6,2.8
		c-1.9-0.1-2.3-1.5-2.2-3.1c0-1.1,0.3-2.2,0.2-3.3c-0.1-0.7-0.6-1.8-1.2-1.9c-0.7-0.2-1.7,0.1-2.4,0.6c-0.9,0.7-1.5,1.7-2.4,2.5
		c-1.7,1.4-3.5,0.8-3.6-1.5c0-1.5,0.4-3.2,1.2-4.3c1.8-2.3,4-4.3,6.2-6.2c2.2-1.8,3-3.8,2.8-6.6c-0.3-3.6-0.3-7.3-0.6-10.9
		c-0.1-1.1-0.5-2.8-1.1-3c-1.1-0.3-2.5,0.2-3.5,0.8c-2.8,1.6-5.5,3.5-8.3,5.3c-3,1.8-5,4-5.3,7.8c-0.2,2.4-1.1,4.6-1.7,6.9
		c-0.2,0.6-0.6,1.1-1,1.6c-0.9,1.2-2,2-3.5,1.4c-1.6-0.7-1.5-2.2-1.3-3.6c0.2-1.1,0.5-2.1,0.8-3.2c0.4-1.9-0.7-3-2.5-2.3
		c-0.9,0.3-1.8,1-2.6,1.5c-1.7,1-3.5,0.8-4.4-0.6c-1-1.5-0.5-3.3,1.3-4.3c1.3-0.8,2.7-1.4,3.8-2.4c1.5-1.2,1.2-2.4-0.6-3
		c-0.7-0.3-1.5-0.3-2.2-0.4c-0.5-0.1-1.1-0.1-1.6-0.2c-2.1-0.6-3.8-2.5-3.5-4c0.3-1.7,2.4-3,4.8-2.5c3.3,0.6,6.6,1.5,9.8,2.3
		c2.3,0.6,4.5,0.4,6.6-0.7c2.9-1.5,5.9-2.8,8.7-4.5c2.9-1.7,2.6-3-0.3-4.5c-2.4-1.3-4.7-2.8-7-4.3c-2.6-1.7-5.3-2.9-8.5-1.6
		c-1.6,0.7-3.3,1.4-5,1.9c-2.2,0.6-4.5,1.2-6.8,1.5c-1.4,0.2-2.5-0.7-2.7-2.2c-0.2-1.5,0.6-2.6,2.1-3.1c1.7-0.6,3.3-1.2,4.9-2.1
		c0.6-0.4,1.3-1.6,1.1-2.2c-0.2-0.7-1.2-1.3-2-1.8c-1.2-0.7-2.6-1.2-3.6-2.1c-1.7-1.6-1.7-3.1-0.3-4.7c1.5-1.6,3.7-2,5.4-0.7
		c0.8,0.6,1.4,1.4,2.2,1.8c0.6,0.3,1.7,0.2,2.2-0.1c0.4-0.3,0.3-1.4,0.2-2c-0.3-1.2-1-2.3-1.2-3.5c-0.4-2.1,0.6-3.9,2.4-4.5
		c2-0.7,3,0.4,4,1.9c2.1,3.3,2.9,6.8,2.8,10.7c0,1.1,0.5,2.6,1.3,3.2c4,3.1,8.1,6,12.3,8.9c2,1.4,3.8,0.5,4.1-2c0.1-1.4,0-2.9,0-4.3
		c0,0,0,0,0,0c0-1.9,0-3.8,0-5.7c0-2.3-0.8-4.3-2.5-6c-2.9-3.1-5.5-6.4-8.1-9.8c-0.7-1-1.3-2.3,0-3.3c1.4-1,2.7-0.8,3.9,0.4
		c0.9,1,1.8,2.1,2.8,3c1.4,1.2,2.8,0.7,3.1-1.2c0.1-0.8,0-1.6,0-2.5c0-0.5-0.2-1.1-0.2-1.6c0-2.8,1.5-4.4,3.9-4.2
		c2.2,0.2,3.6,2.3,3.1,4.9c-0.2,1.1-0.6,2.1-0.7,3.2c-0.1,0.7,0,1.9,0.5,2.2c0.5,0.3,1.6,0.1,2.2-0.2c1-0.6,1.8-1.5,2.6-2.3
		c0.4-0.4,0.7-1,1.1-1.5c1.2-1.1,2.6-2,4.2-0.8c1.6,1.2,1.1,2.6,0.3,4c-2,3.9-4.7,7.3-8.2,9.9c-1.9,1.4-2.7,3.2-2.7,5.4
		c0,2.8-0.2,5.6-0.1,8.4c0.1,1.3,0.4,3.2,1.2,3.6c1,0.5,2.8,0.1,4-0.5c3-1.6,5.9-3.4,8.7-5.3c2.2-1.5,3.9-3.3,4.1-6.5
		c0.3-3.4,1.3-6.8,2.3-10.2c0.3-1,1.7-2.1,2.7-2.2c0.7-0.1,2,1.4,2.2,2.4c0.4,1.6,0,3.4,0,5c0,1.1,0.3,2.2,0.4,3.3
		c1.1-0.2,2.2-0.3,3.2-0.7c0.9-0.4,1.6-1.3,2.4-1.9c1.4-1.1,3-1.1,4.4,0c1.4,1,1.3,2.5,0.7,3.9c-1,2.4-3.2,3-5.4,3.7
		c-1.3,0.4-3.1,0.5-3,2.2c0.1,1.9,2,2,3.5,2.2c1.6,0.2,3.3,0.2,4.9,0.6C251,247.3,252.1,248.4,251.6,249.8z"/>
	<path d="M334.5,329.5c-1.9-3.7-3.9-7.3-7.5-9.6c-2.3-1.4-3.1-3.2-3-5.7c0.1-6.2,0.1-12.4,0.2-18.7c0-11.5,0-23,0-34.5h-0.5
		c0-11.7,0.1-23.4-0.1-35.1c0-2.5-0.3-5.3-1.3-7.6c-2.8-6.4-8.2-9.5-15-10.2c-5.6-0.5-10.5,1.2-14.4,5.1c-3.7,3.7-5.3,8.5-5.3,13.6
		c-0.1,28.2-0.1,56.3,0,84.4c0,3.4-1.1,5.5-3.7,7.4c-6.2,4.6-9.5,11.2-10.7,18.5c-1.8,10.8,0.7,20.7,8.4,28.9
		c4.3,4.5,9.3,8.4,15.4,9.8c13.1,3,24.5,0.1,33.5-10.5c3.4-4,6.1-8.4,6.9-13.5C338.6,344.2,338.2,336.6,334.5,329.5z M331.7,349.6
		c-1.4,8.6-6.2,15.1-14.3,19.1c-6.2,3.1-12.6,3.4-19,1.7c-6.6-1.7-11.6-5.8-15.3-11.6c-2.7-4.2-4.5-8.6-5-13.5
		c-0.9-9.2,3.6-18.9,12.1-23.4c2.4-1.3,3.4-3.5,3-6.2c-0.3-2.2-0.5-4.5-0.5-6.8c0-11.6,0-23.1,0-34.7c0-15.7,0-31.4-0.1-47
		c0-4.9,2-8.7,5.8-11.7c3.7-2.8,7.8-2.9,11.9-1.2c4.3,1.8,7.3,5.1,7.4,10c0.2,8.8,0.1,17.7,0.1,26.5c0,6.8,0,13.6,0,20.3h0.2
		c0,15.4,0,30.8,0,46.2c0,2.2,0.7,3.7,2.5,5C329.9,329.2,333.5,338.5,331.7,349.6z"/>
	<path d="M349.4,287.4c0,1.8-1.2,3-3.1,3.1c-1.8,0.1-3.7,0-5.5,0c0,0,0,0,0,0c-1.9,0-3.8,0.1-5.7,0c-1.9-0.1-3-1.3-3.1-3.1
		c-0.1-2,1-3.4,2.9-3.5c3.9-0.1,7.8,0,11.7,0.1C348.4,284.1,349.5,285.6,349.4,287.4z"/>
	<path d="M346.9,305.1c-4.1,0.4-8.2,0.5-12.2,0.4c-1.7,0-2.3-1.8-2.2-3.4c0-1.6,1-2.6,2.5-2.8c2-0.2,4.1,0,6.1,0v-0.1
		c1.7,0,3.4,0,5.1,0c1.6,0,2.5,1,2.7,2.6C349.1,303.3,348.5,304.9,346.9,305.1z"/>
	<path d="M349.2,243.4c0.1,1.7-1,2.8-2.6,2.9c-2,0.2-4.1,0-6.1,0v0.2c-1.8,0-3.7,0.1-5.5,0c-1.8-0.1-3-1.4-2.9-3
		c0-1.7,1.2-3,2.9-3.1c3.8-0.1,7.7-0.1,11.5,0C348.1,240.5,349.1,241.6,349.2,243.4z"/>
	<path d="M349.1,257.3c0.1,1.9-1,2.7-2.8,2.9c-2.3,0.2-4.6,0.3-7,0.4c0,0,0-0.1,0-0.1c-1.5,0-3,0.1-4.5,0c-2.1-0.1-3.2-1.3-3.1-3.3
		c0.1-1.8,1.2-2.7,3.2-2.7c3.7,0,7.4,0.2,11.1,0.2C347.9,254.7,349,255.4,349.1,257.3z"/>
	<path d="M348.9,271.8c0,1.6-1.1,2.5-2.6,2.6c-2,0.1-4,0-5.9,0v0.1c-1.8,0-3.6,0-5.3,0c-1.7,0-2.5-1-2.6-2.6c-0.1-1.6,0.7-3,2.3-3.1
		c3.9-0.2,7.8-0.2,11.7,0C348,268.9,349,270.1,348.9,271.8z"/>
	<path d="M346.6,232.4c-3.9,0-7.8-0.1-11.7-0.2c-1.6-0.1-2.8-0.9-2.7-2.7c0.1-1.8,1.4-2.3,3-2.3c1.6,0,3.2,0,4.7,0c0,0,0,0,0,0
		c2.1-0.1,4.1-0.2,6.2-0.3c1.8-0.1,3,0.9,3.2,2.5C349.5,231.1,348.4,232.4,346.6,232.4z"/>
	<path d="M314.6,357.6c-3.9,2.8-8.2,4.1-13.2,2.5c-4.2-1.3-7.3-3.7-9.7-7.4c-4.3-7.1-2.3-15.9,4.7-21.1c0.1,0,0.1-0.1,0.2-0.1
		c6.3-1.8,6-6.8,6-11.8c0-1.8-0.2-3.6-0.2-5.3c-0.3-14.3-0.6-28.6-0.9-43c0-0.3,0-0.5,0-0.8c0-2.6,0.8-3.8,2.6-4
		c2.2-0.3,4.2,1.1,4.6,3.4c0.2,0.7,0.1,1.5,0.1,2.3c0,8.9,0,17.8,0,26.7h0.1c0,8.8,0,17.7,0,26.5c0,3.7,0.5,4.2,4,5.6
		c4.1,1.7,6.7,4.8,7.6,9.3C321.7,347.2,320.4,353.3,314.6,357.6z"/>
</g>
</svg>
