<?xml version="1.0" encoding="utf-8"?>
<!-- Generator: Adobe Illustrator 24.0.1, SVG Export Plug-In . SVG Version: 6.00 Build 0)  -->
<svg version="1.1" id="Layer_1" xmlns="http://www.w3.org/2000/svg" xmlns:xlink="http://www.w3.org/1999/xlink" x="0px" y="0px"
	 viewBox="0 0 500 500" style="enable-background:new 0 0 500 500;" xml:space="preserve">
<g>
	<path d="M447.2,260.3c-1.7,1.9-3.7,3.5-5.5,5.3c-7.4,7.4-15.6,13.9-21.7,22.6c-4.6,6.7-11.3,7.9-19.1,2.5
		c-6.2-4.3-10.2-10.6-15-16.1c-3-3.5-6.3-6.8-9.8-9.9c-3.9-3.4-6.3-7.8-8.1-12.4c-1.3-3.5-0.1-6.6,2.8-8.5c2.8-1.9,5.6-0.8,7.7,1
		c4.3,3.7,8.2,7.8,12.3,11.7c2.5,2.4,4.9,4.9,7.7,7c3.1,2.4,6.1,1,6.4-3c0.3-2.8,0.1-5.6,0.1-8.4c0.3,0,0.5-0.1,0.8-0.1
		c-1.3-10.8-2.3-21.7-3.8-32.5c-1-6.8-2.9-13.6-4.5-20.3c-0.1-0.7-0.4-1.3-0.6-1.9c-1.7-4.4-3-9-5.1-13.2c-3.4-7-7-14-11-20.8
		c-3.6-6-7.6-11.7-11.9-17.3c-7.9-10.2-17.2-19.2-27.7-26.7c-6.3-4.5-12.8-8.8-19.7-12.3c-6.9-3.6-14.3-6.3-21.6-9.2
		c-17.3-7-35.5-9-54-8.9c-8.2,0-16.4,2.1-24.7,3c-7.5,0.8-14.4,3.5-21.5,5.7c-7.5,2.3-14.5,5.5-21.5,8.9c-5.4,2.6-10.6,6-15.4,9.6
		c-6,4.4-11.5,9.3-17.2,14.1c-1.6,1.4-2.9,3.1-4.3,4.7c-2.6,3.1-5.7,5-9.9,4.6c-2.7-0.3-4.8-1.5-5.7-4c-1-2.6-1.1-5.3,1.2-7.5
		c7.1-6.7,14.1-13.6,21.4-20.1c3-2.7,6.7-4.5,10.1-6.7c1.8-1.2,3.7-2.3,5.7-3.3c6.3-3.3,12.5-6.7,18.9-9.7c2.3-1.1,5.1-1.3,7.5-2.4
		c7.7-3.7,16.1-4.8,24.3-6.9c11.7-3,23.5-4.5,35.4-4.2c9.2,0.3,18.4,1.2,27.5,2.6c7.3,1.1,14.4,3,21.4,5.1
		c6.2,1.9,12.3,4.3,18.3,6.8c4.5,1.9,8.9,4.1,13.1,6.6c8.8,5.3,17.7,10.2,25.3,17.2c6.2,5.7,12.8,11.1,18.4,17.3
		c5.8,6.3,10.9,13.1,15.8,20.1c3.5,5.1,5.9,11,9.3,16.2c4.5,7,6.4,15.2,10.1,22.6c0.6,1.2,0.7,2.6,1.1,3.9c1.1,4,2.1,8,3.5,11.9
		c2.7,7.6,3.3,15.6,4,23.5c0.8,8.2,1.1,16.6,1,24.8c0,5.3,4.1,8,8.6,4.9c2.1-1.4,3.8-3.4,5.5-5.2c1.7-1.8,3.1-3.8,4.6-5.7
		c1.8-2.2,4-3,6.8-1.9c3,1.2,5.3,3,5.7,6.5C450.6,255.3,449.3,258,447.2,260.3z"/>
	<path d="M371.3,371.6c-1.1,2-2.7,3.8-4.4,5.5c-1.8,1.8-3.8,3.3-5.8,4.9c-6.6,5.2-13,10.6-19.8,15.4c-4.9,3.4-10.5,6-15.9,8.9
		c-3.3,1.8-6.7,3.6-10.2,5.1c-9.7,4.2-19.8,7-30.1,9.7c-11.3,2.9-22.6,4.4-37.4,4.3c-7.8-0.2-18.8-0.4-29.6-3
		c-6.9-1.7-13.8-3.2-20.7-5c-2-0.5-3.9-1.7-5.8-2.5c-4.3-1.7-8.8-3.1-12.9-5.2c-6-3-11.7-6.8-17.8-9.6c-5.8-2.7-10.5-6.7-15.6-10.3
		c-6.8-4.9-12.8-10.6-18.9-16.4c-7.9-7.4-13.9-16.1-20.1-24.8c-3.6-5-6.8-10.3-9-16.3c-2.9-7.8-6.8-15.3-10-22.9
		c-1-2.4-1.3-5.1-1.9-7.6c-1.7-7.9-3.9-15.7-4.8-23.6c-0.9-8.1-0.5-16.4-0.7-24.6c0-1.7,0-3.4-0.4-5c-1-4.2-4.7-5.3-7.9-2.3
		c-2.7,2.6-5.1,5.7-7.8,8.4c-1.3,1.4-2.9,2.7-4.6,3.5c-2.7,1.4-5.8,0.7-7.7-1.3c-2-2.1-2.7-5.9-1.3-8.3c1.3-2.2,2.8-4.4,4.6-6.4
		c9.3-10.1,18.7-20,28-30.1c5.8-6.3,9.8-6,14.8,1c2.3,3.1,5,6,7.8,8.7c8.9,8.8,15.9,19.1,23.6,28.8c1.6,2,2,4.6,0.9,7
		c-1.1,2.2-3.4,2.6-5.7,2.7c-4.6,0.3-7.9-2-10.5-5.6c-2.9-4.1-5.9-8.2-8.9-12.3c-1.9-2.5-4-3.3-6.3-2.6c-2.2,0.7-3.5,2.9-3.8,5.8
		c-1.4,13.5,0,26.8,2.2,40.1c0.7,4.4,0.9,9.1,2.5,13.2c3.2,8.2,5.3,16.8,10,24.3c3.3,5.4,5.7,11.3,9,16.7c3,4.8,6.3,9.4,10,13.7
		c7.2,8.4,15.1,16.2,23.8,23.2c7.3,5.8,15.1,10.9,23,15.6c5.8,3.4,12.3,5.6,18.5,8.2c3.6,1.5,7.1,3.2,10.9,4.1
		c6.6,1.7,13.4,2.9,20.1,4.3c9.2,2,18.5,3.4,28,2.7c7.4-0.6,14.7-1.8,22.1-2.8c2.5-0.4,5-1.3,7.5-1.5c6.5-0.6,12.4-3.3,18.4-5.5
		c5.3-1.9,10.1-4.8,15.2-6.8c5.9-2.4,11.1-5.9,16.3-9.2c7.5-4.7,15.2-9.5,20.9-16.7c2-2.6,4.6-4.7,7.2-6.8c2.4-2,6.1-1.6,8.9,0.6
		C371.8,364.9,372.9,368.7,371.3,371.6z"/>
	<path d="M371.3,227.8c-0.2,1.3-1.6,3-2.9,3.4c-1,0.3-3-0.7-3.7-1.7c-1.8-2.8-3.8-5.7-4.7-8.9c-1.8-6.2-4.1-12.1-7.3-17.8
		c-3-5.5-5.5-11.2-8.8-16.5c-3-4.8-6.5-9.3-10.2-13.5c-3.7-4.3-7.7-8.4-12.1-11.9c-5.1-4-10.8-7.1-16.1-10.9
		c-4.2-3-9.2-4.3-13.7-6.5c-10-5-20.9-6.1-31.5-8.1c-2.7-0.5-5.6-0.3-8.4-0.5c-7.9-0.3-15.5,1.6-23.1,3.1c-2.8,0.6-5.7,0.9-8.4,1.8
		c-6,2.1-12.1,4-17.7,6.8c-5.4,2.7-10.4,6.3-15.2,10c-4.9,3.6-9.3,7.8-13.9,11.7c-2.7,2.3-5.5,2.9-7.4,1.6c-2.9-2-4.1-6-2.7-9.3
		c0.5-1.2,1.2-2.5,2.2-3.4c4.2-3.9,8.2-8,12.8-11.5c4.9-3.7,10-7.3,15.4-10c7.6-3.8,14.9-8.2,23.6-9.5c5.8-0.9,11.3-3.1,17.1-3.8
		c11.4-1.5,23-1.8,34.4,0.3c8.3,1.5,16.7,3.3,24.6,6.1c7.1,2.6,13.6,6.7,20.3,10.3c14.5,7.7,25.7,19.2,35.6,31.9
		c4.9,6.3,9.7,13,13.1,20.1c4,8.5,8.8,16.9,9.2,26.7C371.9,221.1,371.8,224.5,371.3,227.8z"/>
	<path d="M333.9,339.9c-3.5,4.1-7.3,8.2-11.5,11.7c-4.9,4.1-10.1,8.1-15.6,11.2c-6.9,3.9-14,7.5-21.7,9.5c-4,1-8.1,1.9-12,3.1
		c-7.4,2.2-14.9,3.2-25.1,3.2c-9.3,0.3-20.8-2.2-32.1-5.5c-5.4-1.6-10.7-3-15.5-6c-2.5-1.6-5.8-2-8.3-3.6
		c-8.9-5.5-17.7-11-25.6-18.2c-7.1-6.4-13.3-13.5-19-21.1c-3.6-4.8-6.9-9.9-9.7-15.4c-3.5-6.9-6.6-13.9-7.4-21.6
		c-0.3-2.5,0.2-5.3,1.2-7.5c1.3-3.1,4.8-3.1,6.6-0.1c0.9,1.5,1.9,3,2.5,4.7c2.7,8.6,7.4,16.1,11.9,23.7c4,6.6,9.1,12.6,14.1,18.5
		c6.3,7.4,13.5,13.8,21.7,19c5.1,3.3,10.7,5.7,16.1,8.5c0.5,0.3,1.2,0.3,1.7,0.6c9.9,5.8,21.1,7.2,32.1,8.9
		c10.4,1.6,20.9,1.2,31.2-1.6c5.4-1.5,10.9-2.7,16-4.8c5.9-2.5,11.3-6.1,17.1-8.7c7.3-3.3,12-9.4,17.1-15.1
		c4.3-4.9,8.9-5.2,13.4-0.5C335.2,335,335.9,337.6,333.9,339.9z"/>
	<path d="M296.7,288.8c-1.2,1.3-3,2-4.9,3.2c-2.4-1.3-4.6-2.2-6.4-3.5c-7.5-5.7-14.9-11.4-22.2-17.2c-5.1-4-10.2-7.8-15.1-12
		c-4.3-3.7-5.7-8.5-5.3-14.1c0.3-4.9,0.3-9.8,0.2-14.7c-0.1-9.8-0.3-19.6-0.5-29.5c-0.1-4.7-0.5-9.5-0.5-14.2c0-2.5,0.4-5.1,0.9-7.5
		c0.5-2.4,1.9-4.4,4.5-5c2.6-0.5,4.7,0.9,5.7,2.9c1.3,2.8,2.4,5.8,2.8,8.8c0.5,3.6,0.1,7.2,0.2,10.9c0.2,13,0.3,26.1,0.5,39.1
		c0,1.6-0.2,3.2-0.2,4.8c0.3,5.7,3.4,9.7,7.9,12.9c5.6,4,11,8.3,16.6,12.5c4.4,3.3,9,6.4,13.3,9.7
		C298.9,279.4,300,284.9,296.7,288.8z"/>
</g>
</svg>
