<?xml version="1.0" encoding="utf-8"?>
<!-- Generator: Adobe Illustrator 24.0.1, SVG Export Plug-In . SVG Version: 6.00 Build 0)  -->
<svg version="1.1" id="Layer_1" xmlns="http://www.w3.org/2000/svg" xmlns:xlink="http://www.w3.org/1999/xlink" x="0px" y="0px"
	 viewBox="0 0 500 500" style="enable-background:new 0 0 500 500;" xml:space="preserve">
<g>
	<path d="M439.9,259.7c-0.3-11.8-0.7-23.7-1-35.5c-0.2-7.2-6.2-13.5-13.5-13.8c-6.9-0.3-13.9-0.5-20.9-0.6
		c-5.4-0.1-9.7-2.5-12.5-6.9c-2.9-4.5-5.4-9.3-7.7-14.2c-2.1-4.6-2.5-9.2,1.4-13.3c5.5-5.9,10.9-11.8,16.1-17.8
		c3.4-3.9,6.1-8.3,4.5-13.8c-0.9-3-2.5-6-4.4-8.5c-3.9-4.9-7.9-9.8-12.4-14.1c-8.2-7.8-16.5-15.6-25.3-22.6
		c-5.1-4-11.6-6.3-18.3-2.8c-1.8,1-3.5,2.3-5,3.6c-5.8,5.1-11.5,10.4-17.3,15.5c-2.9,2.5-6.2,2.3-9.6,0.9c-3.4-1.5-6.9-2.9-10.2-4.6
		c-3-1.6-6.2-3.2-8.7-5.5c-2.8-2.5-3.6-6-2.9-9.8c2.1-10.3,0.9-20.1-4.1-29.4c-1.3-2.4-3.2-4.3-5.9-4.7c-5.8-0.9-11.7-2-17.6-2
		c-12.4,0-24.9,0.6-37.3,0.9c-7.2,0.1-12.9,3.7-15,10.6c-1.1,3.6-1.1,7.7-1.1,11.6c0,5.4,0.7,10.8,0.7,16.2c0,7.2-2.3,9.7-9.2,11.6
		c-5,1.3-10.2,2.5-14.9,4.7c-7.8,3.6-9.5,3.2-15.5-2.9c-1.6-1.6-3.1-3.3-4.7-4.9c-3.2-3.2-6.3-6.5-9.7-9.5c-4-3.5-8.5-6.7-14.1-4.2
		c-3.6,1.6-6.9,4-10.1,6.4c-2.2,1.6-3.9,3.8-5.9,5.6c-9.5,8.6-19,17.3-27.5,27c-7.3,8.3-6,17.2,0.5,25c4.6,5.5,9.2,10.9,14,16.1
		c5,5.3,4,9.7,1.1,15c-1.7,3-3.3,6.1-4.8,9.2c-2.7,5.4-7.2,8.8-13.1,8.9c-9.4,0.2-18.4,2.3-27.5,4.3c-6.9,1.5-9,5.3-10,11.8
		c-0.8,5.5-0.5,11.1-0.6,16.7c-0.1,5.6,0,11.1,0,16.7c0,0,0.1,0,0.1,0c0.3,6.1,0.2,12.2,1,18.2c0.9,7.1,5.6,11.9,12,13.9
		c4.8,1.5,10.3,1.5,15.5,1.1c9.2-0.7,18.5,4,22.3,11.9c1.7,3.5,3.4,7.1,5,10.6c1.4,3,2,6.2,0.5,9.1c-1.9,3.8-4.1,7.5-6.8,10.7
		c-3,3.6-6.6,6.7-9.9,10c-6.2,6.4-6.8,13.6-1.5,20.7c3.5,4.7,7.3,9.1,11,13.6c3.5,4.3,7.6,7.8,12.1,11c5.5,3.9,10.4,8.7,15.6,13
		c6.8,5.6,17.4,6.5,23.9-0.6c4.7-5.1,10.1-9.6,15.4-14.1c4.7-4.1,10-4,15.3-0.8c2.2,1.3,4.7,2.1,7,3.3c2.1,1,4.5,1.7,6.1,3.2
		c4,3.8,4.7,8.7,4,14c-1.1,9.1-1.5,18,2.7,26.6c1.8,3.7,4.2,6.2,8.4,6.6c6.1,0.6,12.3,1.5,18.4,1.5c12.7,0,25.4-0.5,38.1-1
		c6.9-0.3,11-3.3,12.6-10c1.6-6.5,2.6-13.1,1.7-19.9c-0.4-3.5-0.7-7.1-0.7-10.7c0.1-5.6,2.7-8.7,8-10.6c3.9-1.4,7.6-3,11.4-4.4
		c5.6-2,11-2.6,15.9,1.8c5.4,4.9,11,9.6,16.5,14.4c8.6,7.5,14.7,7,22.7,0.8c6.7-5.2,12.7-11.3,19.6-16.4c5.1-3.8,9.1-9.3,13.5-14.1
		c2-2.3,4.3-4.5,5.7-7.1c3.6-6.9,1.8-16.1-3.6-21.9c-4.8-5.2-9.5-10.6-14-16.1c-4.1-4.9-4.3-11.5-0.9-17c1.2-2,2.4-4.1,3.3-6.2
		c3.2-7,9.6-11.2,17.3-11.2c4.6,0.1,9.3,0.3,13.8,0c4-0.2,8.2-0.3,11.4-3c4.9-4.2,8.9-9.2,9.3-16C440.1,267.7,440,263.7,439.9,259.7
		z M424.7,268.2c-0.1,4.1-3.1,7.1-7.3,7.3c-6.7,0.3-13.4,0-20-0.2c-2.3,0-4.7-0.5-7-0.6c-4.1-0.2-6.9,2-8.4,5.5
		c-2.3,5.5-4.2,11.2-6.4,16.8c-0.7,1.8-1.7,3.4-2.6,5.1c-2.7,5-5.4,9.9-8,14.9c-2.2,4.4-1.8,8.5,0.9,12.8c3.7,5.8,9.4,9.5,14.1,14.3
		c1.1,1.2,2.4,2.3,3.5,3.5c3.6,4.1,4.1,8.7,1.1,13.2c-1.9,2.9-4,5.7-6.5,8.1c-5.7,5.4-11.5,10.5-17.5,15.6
		c-3.1,2.6-6.6,2.3-10.1,0.6c-4.9-2.4-8.6-6.2-12.1-10.2c-2.5-2.8-4.8-5.7-7.3-8.5c-3.9-4.4-10-5.3-15.2-2.7
		c-4.1,2-8.5,3.4-12.8,5.1c-0.8,0.3-1.8,0.4-2.4,0.9c-4.8,4-10.6,5.6-16.4,7.5c-7.5,2.4-9.5,6.6-9,14.5c0.5,8.2,0.3,16.5-0.2,24.8
		c-0.3,5.2-2.6,7.3-7.9,7.6c-6.5,0.3-13,0.1-19.6,0.1v0.5c-4.6,0-9.2-0.2-13.8,0c-9.5,0.4-12.3-6.8-11.8-13.5
		c0.6-7.3,1-14.6,1.5-21.9c0.2-2.8-0.9-5-2.9-7c-3.3-3.4-6.8-5.9-11.7-6.9c-3.4-0.7-6.5-2.8-9.7-4.2c-1.7-0.7-3.4-1.4-5-2.1
		c-3.7-1.4-7.5-2.8-11.2-4.3c-4.3-1.7-8.4-1.3-11.8,1.7c-4.9,4.4-9.4,9.3-14,14c-1,1-1.8,2.1-2.8,3.1c-4.1,4.1-7.9,4.7-12.8,1.4
		c-2.4-1.6-4.6-3.7-6.7-5.7c-5.7-5.3-11.4-10.7-17.1-16.1c-1.3-1.2-2.7-2.5-3.3-4c-0.7-1.5-1.4-3.8-0.7-5.1c1.6-3.1,3.6-6.2,6.1-8.5
		c5.4-5.1,11.2-9.7,15.1-16.1c1.8-2.9,2-5.9,0.4-8.9c-4.4-8.2-8.3-16.6-11.2-25.5c-1.7-5.1-3.6-10.1-5.7-15.1
		c-1.2-2.9-3.6-4.3-6.9-4.3c-7,0-14.1,0.1-21.1,0c-2.4,0-4.9-0.3-7.3-0.7c-4.2-0.6-6.8-3.3-7.5-7.3c-0.5-3-0.4-6-0.5-9.1
		c-0.2-6.2-0.4-12.3-0.5-18.5c-0.1-5.4,0.9-10.5,6.1-13.3c2.7-1.4,6-2,9-2.2c5.7-0.4,11.4-1,17.2,0.2c3,0.6,6.4,0.5,8.7-2.2
		c0.9-1.1,1.5-2.5,2.1-3.8c1.7-3.9,3.3-7.8,4.8-11.8c3.1-8.7,9.8-15.7,11.7-24.9c0.3-1.4,0.8-2.8,1.1-4.3c0.6-3.2-0.1-5.8-2.6-8.3
		c-5.3-5.1-10.4-10.5-15.5-15.9c-1.5-1.6-2.6-3.5-3.6-5.4c-1.5-2.8-1.5-5.7,0.8-8c6.3-6.5,12.8-12.8,19.3-19.1
		c1.6-1.6,3.3-3.1,5.1-4.5c5.8-4.4,10.6-4.3,15.9,0.8c3.7,3.5,7,7.5,10.5,11.2c2,2.2,4,4.4,6.1,6.4c3.2,3,7.1,3.7,10.8,1.2
		c10.6-7.2,22.6-11,34.3-15.7c0.7-0.3,1.5-0.4,2.3-0.6c4.2-1,7-4,7.1-8.2c0.2-7.4,0-14.8,0.3-22.2c0.4-9.3,3.6-14.8,13.9-14.7
		c8.4,0.1,16.7,0.2,25.1,0c8.8-0.2,12.9,5,13,13.2c0.1,6.5-0.9,13-1.7,19.4c-0.7,6.3,0.9,9.2,6.7,11.6c6.9,2.8,13.9,5.5,20.7,8.5
		c4.1,1.8,8,3.8,11.9,5.8c5.6,2.9,9.2,2.7,13.8-1.5c4.4-3.9,8.7-8,13.1-12c1.2-1.1,2.5-2.2,3.8-3.2c5.5-4.4,10.4-4.2,15.7,0.5
		c1.4,1.3,2.8,2.6,4,4.1c4.4,5.6,10.1,9.8,15.6,14.2c6.5,5.2,7.3,11.3,1.9,17.6c-4,4.6-8.4,8.8-12.6,13.2c-2.5,2.7-5,5.5-5.3,9.4
		c-0.1,1.8-0.2,3.8,0.4,5.4c2.4,6.6,5.2,13.1,7.7,19.6c1.1,3,1.8,6.2,2.8,9.2c1.7,5.1,5.1,9,8.7,12.8c0.7,0.7,1.9,1,2.9,1.1
		c2.9,0.2,5.9,0.1,8.8,0.2c6.8,0.2,13.6,0.3,20.3,0.8c4.2,0.4,6.4,3,7.2,7.1c0.2,0.9,0.4,1.9,0.4,2.8
		C425,246,425.1,257.1,424.7,268.2z"/>
	<path d="M338.8,256.1c-0.2-7.1-0.1-14.3-1.1-21.3c-0.7-4.9-3.4-9.5-4.5-14.4c-1.9-9.1-7-16.3-12.2-23.5c-4.5-6.2-9.9-11.7-16-16.3
		c-8.4-6.4-17.7-11.3-27.5-15c-2.9-1.1-5.9-2.2-9-2.7c-4-0.7-8.1-1.2-12.2-1.4c-10-0.6-20-0.5-29.6,3.4c-2.4,1-4.8,2.3-7.3,2.8
		c-7.6,1.6-13.8,6.2-20,10.4c-10.5,7.2-18.6,16.7-24.5,28.2c-2.8,5.5-5.6,10.9-7.1,16.9c-1.4,5.6-3.3,11-4.2,16.7
		c-1.6,9.8-1.2,19.7,2.1,29.2c2.4,7.1,3.3,14.8,7.7,21.2c2.1,3.1,3.3,7,5.6,9.9c3.9,5,8.1,9.8,12.7,14.1c3.8,3.6,8.3,6.5,12.7,9.5
		c2.2,1.5,5,2.2,7.1,3.8c3.6,2.8,7.9,4,12.1,5.2c1.3,0.3,2.6,0.6,3.7,1.2c7.1,3.5,14.7,4.2,23.1,4c6.7,0.4,13.8-1,20.8-3.5
		c3.3-1.2,6.7-1.9,10-2.9c1.4-0.4,3-0.5,4.2-1.2c7.7-4.3,15.4-8.7,22.3-14.3c9.2-7.3,15.9-16.7,21.3-27c2.6-5,4.3-10.4,6.1-15.7
		c1.3-3.6,2.2-7.3,3-11C338.7,260.3,338.8,258.2,338.8,256.1z M321.8,261.8c-0.7,4.6-2,9.2-3.5,13.6c-1,2.8-2.9,5.3-4.1,8.1
		c-2.8,6.7-7.4,12.1-12.5,17.1c-5.3,5.3-11.4,9.3-18,13.1c-8,4.7-16.7,6.1-25.4,8.3c-7.3,1.8-14.7,1-21.9-1.2c-1-0.3-2-0.7-3-0.9
		c-5-1-9.8-2.7-14.4-5.2c-7.6-4.1-14.9-8.6-21-14.7c-5.7-5.7-9.9-12.4-13.1-19.6c-4.3-9.6-7.3-19.7-7.9-28.1
		c0-9.6,2.4-16.6,3.9-23.7c1.6-7.2,5.5-13.3,8.9-19.7c3.7-6.9,9.4-12.5,15.6-17.4c8.3-6.5,17.7-10.4,27.7-13.3
		c5.6-1.7,11.1-2.8,16.9-2.9c7.8-0.1,15.5,0.3,22.7,3.9c1.8,0.9,3.8,1.2,5.6,2.1c3.4,1.7,6.5,4,10,5.4c5.7,2.3,9.9,6.4,14,10.6
		c4.3,4.5,9,8.8,10.4,15.3c0.2,0.7,0.8,1.4,1.2,2c2.7,3.8,5,7.7,5.8,12.4c1,5.9,3.1,11.7,3.5,17.6
		C323.6,250.4,322.7,256.2,321.8,261.8z"/>
</g>
</svg>
