<?xml version="1.0" encoding="utf-8"?>
<!-- Generator: Adobe Illustrator 24.0.1, SVG Export Plug-In . SVG Version: 6.00 Build 0)  -->
<svg version="1.1" id="Layer_1" xmlns="http://www.w3.org/2000/svg" xmlns:xlink="http://www.w3.org/1999/xlink" x="0px" y="0px"
	 viewBox="0 0 1003.3 1000" style="enable-background:new 0 0 1003.3 1000;" xml:space="preserve">
<g>
	<path d="M397.1,856.9c-79,0-146.8,0-217.7,0c0-71,0-138.6,0-207.7c-49.8-47.8-98.9-94.9-148.8-142.8
		c52-50.9,100.6-98.4,147.2-144.1c0-74,0-141.8,0-212.9c69.9,0,137.5,0,209.5,0C433.4,100.5,479.9,51,526.8,1
		C545.4,19.6,560,34.2,578,52.2c0,56.6,0,117.8,0,184.2c45.6-49,87.7-94.3,133.9-143.8c25.6,31.5,42.9,52.8,63.5,78.2
		c-27.3,27.4-60.8,61.2-94.6,94.8c-34.1,33.9-68.4,67.5-102.3,101c0,29.7,0,57.6,0,88.9c28.2,0,55.5,0,88.5,0
		c64.3-65.4,132.5-134.8,202.5-206c21.6,24.5,40,45.3,65.5,74.1c-44.4,40.6-91.2,83.4-138,126.2c1.5,3,2.9,6.1,4.4,9.1
		c56.5,0,112.9,0,171.3,0c0,30.8,0,56.8,0,88c-58.1,0-114.6,0-180.7,0c53.2,49.6,98.7,92.1,146.5,136.7
		C910,707.4,889,725.1,867.7,743c-61.6-62.8-128.7-131-191-194.5c-38.3,0-66.1,0-96.6,0c0,28.7,0,56.2,0,89.9
		c65,62.9,134,129.7,204.5,198c-25.7,23.1-46.1,41.5-70.2,63.3c-39.5-42.4-81.9-88-124.4-133.6c-3.3,1.8-6.6,3.6-9.8,5.3
		c0,61.5,0,123.1,0,186.8c-16.4,13.7-31.6,26.4-48.8,40.8C486.2,951.3,439.8,902.1,397.1,856.9z M486.7,674.8
		c-76.9-28.2-124.7-79.4-130.3-159.2c-6.6-95.3,46.7-154,129-185.3c0-31.3,0-58.5,0-85.8c-116.1,11.6-215.2,122.3-219.2,241.7
		c-4.6,136.5,89.5,254.4,220.5,274C486.7,732.5,486.7,705,486.7,674.8z"/>
</g>
</svg>
