<?xml version="1.0" encoding="utf-8"?>
<!-- Generator: Adobe Illustrator 24.0.1, SVG Export Plug-In . SVG Version: 6.00 Build 0)  -->
<svg version="1.1" id="Layer_1" xmlns="http://www.w3.org/2000/svg" xmlns:xlink="http://www.w3.org/1999/xlink" x="0px" y="0px"
	 viewBox="0 0 1003.3 1000" style="enable-background:new 0 0 1003.3 1000;" xml:space="preserve">
<g>
	<path d="M5545.3-445.7c166.6,99.2,331.7,197.5,495.9,295.3c0,138,0,273.3,0,406.6c-41,25-80.5,49.4-120.4,73.1
		c-30.1,17.9-61,34.5-91,52.6c-50.6,30.5-100.3,62.5-151.1,92.6c-45.1,26.7-91.3,51.8-137.4,77.8
		c-166-102.8-335.9-197.9-499.4-299.5c0-135.6,0-267.2,0-401.3c20.5-12.1,42.2-24.7,63.8-37.6c53.8-32.2,107.5-64.7,161.4-96.8
		c30.1-18,60.8-35.1,90.8-53.2c37.7-22.8,74.6-46.7,112.4-69.1C5495.1-419.8,5520.9-432.6,5545.3-445.7z M5524.3,156
		C5376,67,5227.6-22.1,5078.8-111.5c-6.5,34.4-8.3,225-3.5,352.3c24.4,13.8,48.9,26.3,72,41.1c64.5,41.1,131.4,78.1,197.4,116.7
		c36.9,21.6,72.2,45.9,108.9,67.9c22.2,13.3,45.6,24.5,70.7,37.7C5524.3,388.2,5524.3,274.5,5524.3,156z M5833.3,347.3
		c64.1-41.9,128.1-73.4,184.5-112.6c0-116.2,0-227.6-0.1-339c0-1.1-0.8-2.4-1.5-3.4c-0.8-1-1.9-1.7-5.2-4.4
		c-59.3,35.8-119.4,72.1-178.5,107.9c0,40,0,77.5,0,116c-24.1,24.2-55.6,36.6-87.9,55.8c-3.4-41.7,2.6-79.7-4.3-118.7
		c-63.2,38-123.3,74.1-180.6,108.6c0,117.1,0,230.8,0,350c63.7-36.9,123.8-71.7,184.2-106.6c0-40.1,0-80.3,0-121
		c26.9-19.8,55.8-36.1,89.4-54.5C5833.3,267.7,5833.3,304.6,5833.3,347.3z M5728.6,20.8c-152.6-90-303.8-179.2-457.9-270.1
		c-29.2,17.1-59.5,34.3-89.4,52.4c-30.7,18.6-61,38-92.5,57.7c152.8,91,302.7,180.2,454.9,270.7
		C5602.4,96.4,5663.6,59.7,5728.6,20.8z M5998.2-144.1c-48.5-22.8-88.6-52.1-132.7-75.2c-51-26.7-98.7-59.9-147.9-90.1
		c-34.2-21-68.4-42-102.9-62.5c-22.5-13.3-45.5-25.8-68.7-38.8c-65.2,31-123.1,70.8-185.1,107.3c154.7,93.5,305.6,184.8,453.7,274.3
		c33.4-20,64.2-37.1,93.5-56.5C5936.8-104.6,5969.9-117.4,5998.2-144.1z"/>
	<path d="M5575.6,296.4c37.1-23.2,72.3-45.2,107.7-67.2c0.5,0.4,1.7,1.1,2.4,2.1c0.7,1,1.4,2.3,1.4,3.4
		c0.1,61.6,0.1,123.2,0.1,183.2c-38,23-74.2,45-111.5,67.5C5575.6,422.8,5575.6,360,5575.6,296.4z"/>
	<path d="M6009.7,41.5c-29.9,17.4-57.7,33.6-87.4,50.9c0-46,0-89.9,0-136.8c25.4-15.8,53.1-33,84.4-52.5c5.6,23.9,2.2,46,2.8,67.6
		C6010.2-6.6,6009.7,16.1,6009.7,41.5z"/>
	<path d="M5457.7-340.3c33.9-19.6,63-36.4,90.9-52.6c34.4,20.9,67.2,40.9,104.7,63.7c-33.4,21-62.4,39.2-89,55.9
		C5529.4-295.1,5495.4-316.5,5457.7-340.3z"/>
</g>
<g>
	<path d="M505.4,1c166.6,99.2,331.7,197.5,495.9,295.3c0,138,0,273.3,0,406.6c-41,25-80.5,49.4-120.4,73.1
		c-30.1,17.9-61,34.5-91,52.6c-50.6,30.5-100.3,62.5-151.1,92.6c-45.1,26.7-91.3,51.8-137.4,77.8C335.5,896.2,165.6,801.1,2,699.5
		c0-135.6,0-267.2,0-401.3c20.5-12.1,42.2-24.7,63.8-37.6c53.8-32.2,107.5-64.7,161.4-96.8c30.1-18,60.8-35.1,90.8-53.2
		c37.7-22.8,74.6-46.7,112.4-69.1C455.1,26.9,481,14.1,505.4,1z M484.3,602.7c-148.3-89-296.7-178.2-445.5-267.5
		c-6.5,34.4-8.3,225-3.5,352.3c24.4,13.8,48.9,26.3,72,41.1c64.5,41.1,131.4,78.1,197.4,116.7c36.9,21.6,72.2,45.9,108.9,67.9
		c22.2,13.3,45.6,24.5,70.7,37.7C484.3,834.9,484.3,721.2,484.3,602.7z M793.4,794c64.1-41.9,128.1-73.4,184.5-112.6
		c0-116.2,0-227.6-0.1-339c0-1.1-0.8-2.4-1.5-3.4c-0.8-1-1.9-1.7-5.2-4.4c-59.3,35.8-119.4,72.1-178.5,107.9c0,40,0,77.5,0,116
		c-24.1,24.2-55.6,36.6-87.9,55.8c-3.4-41.7,2.6-79.7-4.3-118.7c-63.2,38-123.3,74.1-180.6,108.6c0,117.1,0,230.8,0,350
		c63.7-36.9,123.8-71.7,184.2-106.6c0-40.1,0-80.3,0-121c26.9-19.8,55.8-36.1,89.4-54.5C793.4,714.4,793.4,751.3,793.4,794z
		 M688.6,467.5c-152.6-90-303.8-179.2-457.9-270.1c-29.2,17.1-59.5,34.3-89.4,52.4c-30.7,18.6-61,38-92.5,57.7
		c152.8,91,302.7,180.2,454.9,270.7C562.5,543.1,623.7,506.4,688.6,467.5z M958.3,302.6c-48.5-22.8-88.6-52.1-132.7-75.2
		c-51-26.7-98.7-59.9-147.9-90.1c-34.2-21-68.4-42-102.9-62.5C552.3,61.5,529.3,49,506.1,36C440.9,66.9,383,106.8,321,143.3
		c154.7,93.5,305.6,184.8,453.7,274.3c33.4-20,64.2-37.1,93.5-56.5C896.9,342.1,929.9,329.3,958.3,302.6z"/>
	<path d="M535.7,743.1c37.1-23.2,72.3-45.2,107.7-67.2c0.5,0.4,1.7,1.1,2.4,2.1c0.7,1,1.4,2.3,1.4,3.4c0.1,61.6,0.1,123.2,0.1,183.2
		c-38,23-74.2,45-111.5,67.5C535.7,869.4,535.7,806.7,535.7,743.1z"/>
	<path d="M969.8,488.1c-29.9,17.4-57.7,33.6-87.4,50.9c0-46,0-89.9,0-136.8c25.4-15.8,53.1-33,84.4-52.5c5.6,23.9,2.2,46,2.8,67.6
		C970.2,440,969.8,462.8,969.8,488.1z"/>
	<path d="M417.7,106.4c33.9-19.6,63-36.4,90.9-52.6c34.4,20.9,67.2,40.9,104.7,63.7c-33.4,21-62.4,39.2-89,55.9
		C489.5,151.6,455.5,130.1,417.7,106.4z"/>
</g>
</svg>
