<?xml version="1.0" encoding="utf-8"?>
<!-- Generator: Adobe Illustrator 24.0.1, SVG Export Plug-In . SVG Version: 6.00 Build 0)  -->
<svg version="1.1" id="Layer_1" xmlns="http://www.w3.org/2000/svg" xmlns:xlink="http://www.w3.org/1999/xlink" x="0px" y="0px"
	 viewBox="0 0 1625.4 1000" style="enable-background:new 0 0 1625.4 1000;" xml:space="preserve">
<g>
	<path d="M331.2,90.6c0-26,0-48.6,0-76c331.6,0,662.6,0,996.7,0c0,24.9,0,47.6,0,76C995.9,90.6,665.5,90.6,331.2,90.6z"/>
	<path d="M1556.1,424.9c26.6,25.6,45.1,43.2,61.2,58.8c-179.2,176.6-351.9,346.7-523.1,515.3c-85.2-85.2-179.4-179.3-279.8-279.7
		c15.3-16.5,33.2-35.9,58.2-62.8c75.1,82.6,145.2,159.7,216.1,237.7C1250.2,732,1400.8,580.8,1556.1,424.9z"/>
	<path d="M331.5,384.4c0-25.9,0-47.8,0-74.1c332.8,0,661.4,0,995.6,0c1.3,24,2.5,46.2,4.1,74.1C998.1,384.4,669.4,384.4,331.5,384.4
		z"/>
	<path d="M330.3,681.4c0-26,0-48.3,0-76.3c81.8,0,160.9,0,248,0c1.7,23.2,3.4,47.1,5.5,76.3C496,681.4,414.7,681.4,330.3,681.4z"/>
	<path d="M9.8,1c38.2,0,70.7,0,106.9,0c0,36.9,0,69.5,0,106.6c-35.3,0-68,0-106.9,0C9.8,73.3,9.8,41.2,9.8,1z"/>
	<path d="M117.6,589c0,43.3,0,73.9,0,108.6c-35.8,0-68.5,0-107.6,0c0-34.6,0-69.1,0-108.6C46.1,589,81,589,117.6,589z"/>
	<path d="M8.1,400.4c0-35.5,0-67.6,0-104.9c36.5,0,70.6,0,108.7,0c0,35.2,0,67.5,0,104.9C80.8,400.4,46.7,400.4,8.1,400.4z"/>
</g>
</svg>
