<?xml version="1.0" encoding="utf-8"?>
<!-- Generator: Adobe Illustrator 24.0.1, SVG Export Plug-In . SVG Version: 6.00 Build 0)  -->
<svg version="1.1" id="Layer_1" xmlns="http://www.w3.org/2000/svg" xmlns:xlink="http://www.w3.org/1999/xlink" x="0px" y="0px"
	 viewBox="0 0 500 500" style="enable-background:new 0 0 500 500;" xml:space="preserve">
<style type="text/css">
	.st0{fill:none;stroke:#000000;stroke-width:19.1535;stroke-miterlimit:10;}
</style>
<g>
	<path d="M406.6,349c-31.8,0-57.6,24.5-57.6,54.7v5.6c0,30.2,25.8,54.7,57.6,54.7c15.9,0,30.3-6.1,40.7-16
		c10.4-9.9,16.9-23.6,16.9-38.7v-5.6C464.2,373.5,438.4,349,406.6,349z M444.8,408.5c0,10-4.3,19.1-11.2,25.7
		c-6.9,6.6-16.5,10.7-27,10.7c-21.1,0-38.2-16.3-38.2-36.4v-3.8c0-20.1,17.1-36.4,38.2-36.4c21.1,0,38.2,16.3,38.2,36.4V408.5z"/>
</g>
<path d="M481.7,256.5c-0.8,27.6-6.4,54-15.9,78.3c-10-2.7-20.6-4.2-31.6-4.2C445,305.9,451,278.7,451,250v0
	c0-55.5-22.5-105.7-58.9-142.1C355.7,71.5,305.5,49,250,49C139,49,49,139,49,250v0c0,111,90,201,201,201c24.4,0,47.7-4.3,69.4-12.3
	c0,0.3,0,0.6,0,1v11.3c0,6.7,0.6,13.3,1.9,19.7c-24.4,7.9-50.6,11.8-77.7,11.1C115.5,478.1,14.8,371.4,18.3,243.5
	c1.8-62.8,28.4-119.2,70.2-159.8c43.3-42,102.9-67.2,167.9-65.4c62.9,1.8,119.2,28.4,159.8,70.2
	C458.3,131.9,483.5,191.4,481.7,256.5z"/>
<g>
	<path d="M304.7,145c-2.6-10-10.9-17.2-20.7-17.2h-12.5c-1-3.8-2.9-7.2-5.4-9.9c-3.9-4.3-9.3-7-15.2-7c-9.7,0-17.9,7.1-20.6,16.9
		h-12.5c-6,0-11.3,2.7-15.2,7c-2.5,2.8-4.4,6.3-5.5,10.2c-0.6,2.1-0.9,4.4-0.9,6.7c0,13.2,9.6,24,21.6,24H284c6,0,11.3-2.7,15.2-7
		c3.9-4.3,6.3-10.3,6.3-16.9C305.5,149.3,305.2,147.1,304.7,145z M287.7,163.9c-3,3-7.1,4.8-11.6,4.8h-50.4
		c-9.1,0-16.4-7.3-16.4-16.4c0-2.6,0.6-5.1,1.7-7.3c0.8-1.6,1.8-3.1,3.1-4.3c3-3,7.1-4.8,11.6-4.8h9.5c2.1-6.7,8.3-11.6,15.7-11.6
		c4.5,0,8.6,1.8,11.6,4.8c1.9,1.9,3.3,4.2,4.1,6.8h9.5c6.4,0,12,3.7,14.7,9.1c1.1,2.2,1.7,4.7,1.7,7.3
		C292.5,156.8,290.7,160.9,287.7,163.9z"/>
	<path class="st0" d="M350.7,173.1v163.3c0,15.6-12.6,28.2-28.2,28.2H174.4c-15.6,0-28.2-12.6-28.2-28.2V173.1
		c0-15.6,12.6-28.2,28.2-28.2h36.5c-1.1,2.2-1.7,4.7-1.7,7.3c0,9.1,7.3,16.4,16.4,16.4h50.4c4.5,0,8.6-1.8,11.6-4.8
		c3-3,4.8-7.1,4.8-11.6c0-2.6-0.6-5.1-1.7-7.3h31.8C338.1,145,350.7,157.6,350.7,173.1z"/>
	<path d="M211.7,218.9H193c-3.2,0-5.8-2.6-5.8-5.8v-4.5c0-3.2,2.6-5.8,5.8-5.8h18.8c3.2,0,5.8,2.6,5.8,5.8v4.5
		C217.6,216.3,215,218.9,211.7,218.9z"/>
	<path d="M303,218.9h-60.9c-4.5,0-8.1-3.6-8.1-8.1v0c0-4.5,3.6-8.1,8.1-8.1H303c4.5,0,8.1,3.6,8.1,8.1v0
		C311.1,215.3,307.5,218.9,303,218.9z"/>
	<path d="M211.7,249.3H193c-3.2,0-5.8-2.6-5.8-5.8V239c0-3.2,2.6-5.8,5.8-5.8h18.8c3.2,0,5.8,2.6,5.8,5.8v4.5
		C217.6,246.7,215,249.3,211.7,249.3z"/>
	<path d="M303,249.3h-60.9c-4.5,0-8.1-3.6-8.1-8.1v0c0-4.5,3.6-8.1,8.1-8.1H303c4.5,0,8.1,3.6,8.1,8.1v0
		C311.1,245.7,307.5,249.3,303,249.3z"/>
	<path d="M211.7,279.8H193c-3.2,0-5.8-2.6-5.8-5.8v-4.5c0-3.2,2.6-5.8,5.8-5.8h18.8c3.2,0,5.8,2.6,5.8,5.8v4.5
		C217.6,277.2,215,279.8,211.7,279.8z"/>
	<path d="M303,279.8h-60.9c-4.5,0-8.1-3.6-8.1-8.1l0,0c0-4.5,3.6-8.1,8.1-8.1H303c4.5,0,8.1,3.6,8.1,8.1l0,0
		C311.1,276.2,307.5,279.8,303,279.8z"/>
	<path d="M211.7,310.2H193c-3.2,0-5.8-2.6-5.8-5.8v-4.5c0-3.2,2.6-5.8,5.8-5.8h18.8c3.2,0,5.8,2.6,5.8,5.8v4.5
		C217.6,307.6,215,310.2,211.7,310.2z"/>
	<path d="M303,310.2h-60.9c-4.5,0-8.1-3.6-8.1-8.1l0,0c0-4.5,3.6-8.1,8.1-8.1H303c4.5,0,8.1,3.6,8.1,8.1l0,0
		C311.1,306.6,307.5,310.2,303,310.2z"/>
</g>
</svg>
