<?xml version="1.0" encoding="utf-8"?>
<!-- Generator: Adobe Illustrator 24.0.1, SVG Export Plug-In . SVG Version: 6.00 Build 0)  -->
<svg version="1.1" id="Layer_1" xmlns="http://www.w3.org/2000/svg" xmlns:xlink="http://www.w3.org/1999/xlink" x="0px" y="0px"
	 viewBox="0 0 500 500" style="enable-background:new 0 0 500 500;" xml:space="preserve">
<g>
	<path d="M421,109.1c-0.2,40.7-0.1,81.5-0.2,122.2c0,3.1-0.4,6.3-0.8,9.4c-1.7,13.9-17.2,28.3-32.9,27.9
		c-23.1-0.7-46.1-0.2-69.2-0.2c-39.4-0.1-78.9-0.3-118.3-0.6c-10.7-0.1-21.4-0.3-32.1-0.5c-4-0.1-5.8-1.8-5.6-5
		c0.2-3.2,2.3-4.7,6.1-4.5c4.7,0.2,9.5,0.5,14.2,0.5c50.3,0.2,100.6,0.4,151,0.5c18,0,36.1-0.3,54.1-0.5c6.9-0.1,13-2.1,17.8-7.3
		c3.2-3.4,5.2-7.4,5.6-12.1c0.3-3.3,0.7-6.7,0.7-10c0.1-40.4-0.2-80.8,0.2-121.1c0.2-14.4-12.4-24.2-24.5-24.1
		c-45.7,0.1-91.4,0-137,0v-0.1c-45.4,0-90.8,0-136.2,0c-4,0-8-0.4-12-0.3c-6.4,0.1-11.9,2.6-15.4,8c-2.6,4.1-4.5,8.6-4.5,13.8
		c0.2,27.9,0.1,55.8,0.1,83.7c0,14.2,0.1,28.5,0,42.7c0,5.6,0.5,11.2,3.6,16.1c1.5,2.3,3.4,4.4,5.1,6.6c1.3,1.8,3,3.4,3.8,5.4
		c0.6,1.5,0.5,4.2-0.4,5c-1.2,0.9-3.9,1.2-5.3,0.4c-5.8-3.3-10-8-13-14.1c-2.9-6-3.4-12-3.4-18.4c0-41,0-82-0.1-123.1
		c0-2.8-0.1-5.6,0.2-8.4c1-9.5,5.9-16.8,13.5-22.1c5.3-3.6,11.5-5,18.2-4.9c47.5,0.2,94.9,0.2,142.3,0.2c28.4,0,56.8,0,85.1,0
		c19,0,37.9,0,56.9-0.1c8.1,0,14.8,3,20.7,8.2C417.5,89.6,421.1,98.4,421,109.1z"/>
	<path d="M175.9,352.8c-3.8-9.2-10.4-16.8-18.3-23.1c-2-1.6-3-3.5-3-6.2c0.1-24.3,0-48.5,0-72.8h0.5c0-10.1,0.1-20.3,0-30.4
		c0-7-2-13.4-6.6-18.7c-3.6-4.2-8.1-7.5-13.6-8.7c-8.3-1.8-15.8,0-22.3,5.6c-5.5,4.7-10.1,9.8-10.6,17.5c-0.3,4.9-0.8,9.8-0.8,14.7
		c0,10.2,0.3,20.4,0.4,30.7c0.1,20.9,0.1,41.8,0.1,62.8c0,1.4-1,3.1-2.1,4.1c-2,1.9-4.6,3.1-6.7,5c-4,3.6-8.1,7.1-10.2,12.3
		c-2,5-4.7,9.8-5.7,14.9c-3.1,15.2-0.5,29.6,7.9,42.7c6.7,10.4,16.3,17.4,28.1,20.7c16.4,4.6,31.9,2,45.6-8.6
		c10-7.7,16.2-17.9,19.9-30.1C181.9,373.7,180.1,363,175.9,352.8z M170.4,378.5c-2.4,11.2-7.4,21-16.3,28.4
		c-11.1,9.2-24,11.3-37.5,8c-8.2-2.1-15.5-6.5-20.9-13.8c-4.6-6.1-7.8-12.7-9.6-19.8c-2.1-8.7-1.5-17.3,2.1-25.9
		c3.5-8.4,9-14.7,16.5-19.5c3.8-2.5,6.2-5.7,6.1-11c-0.2-21.8,0.3-43.5,0.2-65.3c0-10.4-0.8-20.8-0.8-31.2c0-4.9,0.2-9.9,1.2-14.7
		c0.8-4.1,4-7.1,7.7-9.1c8.3-4.6,16.6-3.1,22.1,2.9c2.9,3.2,4.5,7.2,4.5,11.7c0,13.9,0.1,27.9,0,41.9c0,4.6-0.4,9.3-0.5,13.9
		c0,2.2-0.7,2.8-3,2.2c-1.9-0.5-4.2-0.2-6.1,0.3c-1.6,0.4-2.5,0.2-2.7-1.3c-0.2-2.3-0.3-4.6,0.1-6.9c0.1-0.7,1.7-1.2,2.6-1.6
		c0.7-0.2,1.7,0.3,2.1-0.1c1.4-0.9,2.6-2.1,3.9-3.2c-1.2-0.9-2.4-2.4-3.8-2.6c-2.8-0.5-5-1.1-5.1-4.6c0-0.7-1.6-1.8-2.6-2
		c-3.8-0.7-6.9,1.9-7.2,5.9c-0.2,3.1,0,6.1,0,9.2c0.2,25.4,0.3,50.8,0.5,76.2c0,0.7,0,1.5,0,2.2c0.1,5.3,1.9,6.9,7.2,6
		c2.1-0.3,3.5,0.2,5,1.5c2.1,1.8,4.6,3.2,6.5,5.1c9.7,9.7,6.9,22.6-3.1,29.4c-11.3,7.7-26.5,3-31.5-9.7c-3.2-8.1-0.5-15.3,5.4-21.4
		c1.6-1.7,3.7-3,5.1-4.7c0.9-1.1,1.9-3.3,1.4-4.3c-0.6-1-2.7-1.4-4.2-1.7c-0.8-0.2-1.9,0.3-2.6,0.7c-8,5.3-14.5,11.9-15.4,22
		c-0.4,4,0.2,8.5,1.7,12.2c1.8,4.4,4.6,8.6,7.9,12c9.1,9.4,23.5,10.4,34.8,4.4c5.1-2.7,8.9-6.7,12.2-11.2c5.5-7.5,5.2-21.2-0.7-28.7
		c-2.4-3-5-5.7-7.5-8.7c-2.3-2.7-5.2-3.9-8.6-3.9c-2.4,0-3.5-1-3.4-3.3c0.2-16.5,0.5-32.9,0.3-49.4c-0.1-5.3,1.2-8.3,6.7-9.2
		c1.2-0.2,2.2-1.2,3.9-2.1c0.2,1.2,0.3,2,0.3,2.8c0.1,11.2,0.1,22.5,0.1,33.7c0,2.6-0.2,5.2-0.4,7.8c-0.4,4.4,1.6,6.7,5.7,7.9
		c2.1,0.6,4.1,2.1,5.7,3.7c5.8,6.2,10.6,12.9,12.8,21.5C170.5,367,171.6,372.6,170.4,378.5z"/>
	<path d="M295.3,298.6c-24.8-0.2-49.7-0.3-74.5-0.5c-4.7,0-6.1,1.3-6.4,6c-0.1,0.9,0,1.9,0,2.8c0.2,13.6,0.3,27.2,0.5,40.7
		c0,1.1-0.1,2.3,0.2,3.3c0.6,2.7,0.6,5.1-1.6,7.2c-0.6,0.6-0.8,1.7-0.8,2.6c0,7.3,0.1,14.5,0.1,21.8c0.1,11.5,0.2,23,0.1,34.5
		c-0.1,4.9,2,7.5,6.8,7.5c9.1,0,18.2,0,27.3,0v-0.3h43.5c2.4,0,4.8-0.1,7.3,0c2.6,0,4-1.3,4.2-3.8c0.2-2.8,0.5-5.6,0.5-8.3
		c0.1-23.2,0-46.3,0.1-69.5c0-12.1,0.3-24.2,0.4-36.3C303.1,300.8,300.9,298.6,295.3,298.6z M261.3,309.4c1.6,0.2,3,1.2,3.1,3.4
		c0.2,5.5-1.1,8.4-3.7,8.6c-4,0.2-5.9-2.2-6-8.1C254.7,310.4,256,309.6,261.3,309.4z M293.1,395.6c0,4.5,0,9.1,0,13.6
		c0,3.9-0.9,4.5-4.8,4.5c-10.9-0.1-21.7,0-32.6,0v1c-9.5,0-18.9,0-28.4,0c-3.3,0-4.5-1.2-4.5-4.5c0.2-12.9,0.3-25.8,0.5-38.7
		c0-3.9,0.8-4.7,4.7-4.7c4.7-0.1,9.5-0.2,14.2-0.4c2.1-0.1,2.8,1,2.8,2.9c-0.1,3.1-0.4,6.1-0.4,9.2c-0.1,8.7,0.9,9.6,9.5,9.6
		c4.2,0,8.4,0,12.5-0.1c4.6-0.2,5.7-1.4,5.8-5.9c0.1-4.2,0-8.4,0-12.5c0-3,0.6-3.7,3.5-3.7c4.5,0,9.1-0.1,13.7,0
		c3.2,0,3.7,0.8,3.6,4C293.1,378.3,293.1,387,293.1,395.6z M254.4,369.4c0-0.6-0.2-1.2,0.1-1.6c1.7-2.8,4.5-1.3,6.8-1.4
		c0.7-0.1,1.9,1.4,2.2,2.4c0.4,1.2,0.1,2.6,0.1,3.9h0c0,0.4,0,0.7,0,1.1c0,4.9,0,4.9-5,4.8c-3.8-0.1-4.1-0.5-4-4.2
		C254.6,372.7,254.4,371.1,254.4,369.4z M290.3,356.5c-20.3,0.1-40.5,0.1-60.8,0.3c-4.4,0-5.1-1.1-4.8-5.1
		c0.6-8.9,0.3-17.8,0.2-26.8c0-3.8-0.2-7.6-0.3-11.4c-0.2-3.4,1-4.7,4.5-4.8c4.5-0.1,8.9-0.2,13.4-0.4c1.6-0.1,2.6,0.4,2.7,2
		c0.1,1.4,0.2,2.8,0.2,4.1c0.1,3.8,0.1,7.6,0.4,11.4c0.2,2.9,2.9,5.1,6.3,5.2c5.1,0.1,10.2,0.1,15.3-0.1c4.2-0.2,6.3-2.1,6.5-6.2
		c0.3-3.8,0-7.7-0.2-11.5c-0.2-2.4,0.6-3.8,3.1-3.9c4.4-0.1,8.7,0,13.1,0c2.9,0,3.2,2,3.2,4.2v19.8h0.2c0,6.8,0,13.6,0,20.4
		C293.4,355.8,292.1,356.5,290.3,356.5z"/>
	<path d="M427.4,373.4c-0.4-9.6-2.9-18.5-8.5-26.4c-1.1-1.5-2.4-2.9-3.1-4.6c-1.2-3.1-3.1-4.7-6.4-4.6c-2.1,0-2.9-1-3-3.1
		c-0.2-8.4-3.5-15.8-8-22.8c-4.3-6.6-10.1-11.6-16.3-16.3c-3.4-2.6-7-5-11.4-5.7c-3.5-0.5-5.6,1.4-5.4,4.8c0.4,5,0.8,10,0.7,15
		c0,2.2-0.8,4.5-1.7,6.6c-3,7.3-8.9,12.5-13.9,18.3c-9.1,10.7-16.4,22.2-18.1,36.6c-1.3,10.8,0.5,21,6,30.4
		c5.8,9.9,15.8,14.7,25.9,18.6c4,1.6,8.7,1.5,11.6,2c9.8-0.5,17.7-1.7,25.4-5c5.1-2.2,9.9-4.9,13.7-8.8
		C424.6,398.7,427.9,386.7,427.4,373.4z M393.7,404.5c-4.4,6.4-10.6,7.9-17.7,7.4c-3.6-0.3-6.2-2.6-7.6-5.4c-1.9-3.8-2.7-8.2-4-12.3
		c0.2-0.1,0.5-0.1,0.7-0.2c-0.7-4.4,1.7-8,3.5-11.5c2.5-4.8,5.9-9.2,9-13.7c1.6-2.4,2.6-2.3,4.1,0.1c4.3,6.6,8.6,13.2,12.8,19.8
		C397.4,393.1,396.7,400.1,393.7,404.5z M418.1,377.1c-0.1,6.2-1.5,12-4.3,17.4c-1.8,3.4-4.5,6.3-6.9,9.3c-0.4,0.5-1.6,0.3-2.5,0.4
		c0-0.8-0.3-1.7,0-2.3c2.9-6.7,1.1-12.7-2.3-18.5c-4.7-8-9.7-15.8-14.4-23.8c-1.1-1.9-1.4-4.2-1.9-6.4c-0.5-2.1-1.8-3.5-3.8-3.4
		c-1.4,0.1-3.2,0.9-4.1,2c-4.6,5.9-9,12-13.3,18.2c-3.8,5.5-7.8,10.9-9.3,17.6c-1.4,5.9-0.6,11.6,2.4,17c0.4,0.8,0.3,2,0.4,3
		c-1-0.3-2.1-0.5-2.9-1.1c-12.8-9.9-15.2-23.4-13.1-38.5c1-7.5,4.9-13.6,9.2-19.4c5.9-7.8,12.3-15.1,18.1-22.9
		c4.3-5.8,7.4-12.3,6.1-19.9c-0.1-0.7,0.3-1.7,0.9-2.1c0.3-0.2,1.4,0.2,1.9,0.6c5.7,5.2,11.7,9.9,15.7,16.8c2.8,4.8,2.4,10,3.1,15.1
		c0,0.3,0.1,0.6,0.1,0.8c0,0.7,0,1.5,0,2.2v0c0,0.5,0,0.9,0,1.4c0,0.3,0,0.6,0,0.9c0,0.4,0,0.9-0.1,1.3c0,0.7,0,1.4,0,2.1
		c0,0.2,0,0.4,0,0.6c0,0.3,0.1,0.6,0.1,0.9c0.2,1.3,1.1,3.1,2.1,3.5c1.2,0.4,3.2,0,4.2-0.9c2.1-1.8,3.4-1.3,5.2,0.3
		C416.7,357.1,418.2,366.7,418.1,377.1z"/>
	<path d="M186.5,169.8c-0.8,2.2-2.7,4.4-4.7,5.7c-0.8,0.6-3.3-0.9-4.7-1.8c-1.8-1.3-2.4-1.3-3,0.9c-0.1,0.4-0.2,0.9-0.3,1.4
		c-1.2,5-3.2,5.6-7,2.3c-2.4-2.1-3.4-4.6-3-7.9c0.2-1.5-0.7-3.6-1.8-4.8c-1.5-1.7-3.5-3-5.5-4.1c-1.2-0.7-2.9-0.7-4.3-1.1
		c-0.3,1.4-0.7,2.7-0.8,4.1c-0.1,2.1,0.3,4.2,0.3,6.4c0,2.5,0.7,4.2,3.4,5c4.3,1.2,6.3,9.8,2.8,12.8c-0.8,0.7-2.6,1-3.8,0.7
		c-2.3-0.5-4.2-0.3-6.4,0.7c-1.7,0.7-4,0.8-5.8,0.4c-2.4-0.6-4.6-1.9-6.9-3c-0.7-0.3-1.3-1.1-1.6-1.8c-1.7-4.1,2.4-11.2,6.8-11.8
		c2.1-0.3,2.9-1.3,2.9-3.3c-0.1-2.4-0.1-4.8,0-7.2c0-2.5-1.6-3.6-3.8-2.3c-2,1.2-4,2.5-5.7,3.9c-1.8,1.5-2.6,3.3-2.4,5.9
		c0.2,1.9-0.6,3.9-1.1,5.8c-0.2,0.9-0.7,1.7-1.2,2.5c-0.7,1.3-1.5,2.5-2.2,3.8c-1.8-1.6-3.7-3.1-5.5-4.8c-0.3-0.3-0.2-0.9-0.4-1.3
		c-1.1-3.5-1.9-4-5.2-2.3c-2.7,1.3-5,1.2-7.1-1c-2.3-2.5-2.1-5,0.6-7.2c1.5-1.2,3.7-2.5,4-4.1c0.2-1.1-2.4-2.6-3.3-4.2
		c-0.8-1.3-1.8-3.2-1.3-4.4c0.5-1.2,2.4-2.3,3.9-2.5c3.7-0.7,5.9,1.5,6.9,5.2c0.3,1.4,1.5,3.1,2.8,3.7c0.9,0.4,2.8-0.5,3.9-1.2
		c2.3-1.5,4.5-3.2,6.6-4.9c0.7-0.6,1.6-1.6,1.5-2.4c0-0.7-1.2-1.4-1.9-2c-1.7-1.3-3.7-2.3-5.2-3.9c-1.8-1.9-3.3-3-5.9-1
		c-1.7,1.3-3.9,1.2-5.6-0.4c-2.2-2-5.5-3-6.1-6.5c-0.2-1.3-0.1-2.7-0.1-4c0-1-0.1-2,0-3c0.2-1.2,0.2-2.8,0.9-3.3
		c1-0.6,2.8-0.6,3.8-0.1c4.5,2.5,6.5,1.6,6.9-3.5c0.3-3.4,1.3-4.3,3.9-4c2.5,0.4,4.2,3,3.5,5.7c-1,4.2-1,4.5,2.7,6.3
		c2.6,1.3,3.2,2.8,2.1,5.3c-0.8,1.9,0.2,2.7,1.8,3.3c1.8,0.7,3.6,1.4,5.3,2.2c1.4,0.6,2.2,0.2,2.2-1.3c0.1-3.4,0.4-6.9,0.1-10.2
		c-0.1-1.3-1.2-2.9-2.2-3.7c-2.8-2.1-5.8-4-7.1-7.6c-1-2.6,0-4,2.8-3.7c3.7,0.4,4.3-0.1,4.1-3.4c-0.3-2.3,0.2-3.9,2.3-4.5
		c2.3-0.6,4.3,0,5.3,2.4c0.4,1,0.5,2.2,0.9,3.2c0.9,2.7,2.4,3.1,4.5,1.2c0.4-0.4,0.8-0.8,1.2-1.2c2.5-2.5,4.5-2,5.6,1.5
		c1.5,4.8-1.3,10.1-6.1,11.7c-2.2,0.7-3.3,3-1.9,5.7c1.3,2.7,1.1,5.1,0.3,7.8c-0.3,1,0.2,2.2,0.4,3.3c1.2-0.2,2.8,0,3.5-0.7
		c2.6-2.5,5.2-5,8.7-6.3c0.5-0.2,0.6-2.2,0.5-3.3c-0.2-2.5-0.9-4.9-0.7-7.3c0.2-2.7,2.4-4.1,5.1-4.1c2.7,0.1,4.1,1.3,4.6,4.2
		c0.7,3.6,1.9,4.4,5.4,3.7c0.3,0,0.5-0.1,0.8-0.2c3.1-0.5,5.3,0.4,5.9,2.4c0.8,2.4-0.3,4.7-2.9,6.3c-1,0.6-2.3,1.3-2.7,2.3
		c-1.4,3.6-4.4,4.1-7.6,4.6c-1.8,0.3-3.5,1.2-5.2,2.1c-1.7,0.9-3.4,1.9-5,3c-2.8,1.9-2.7,3.5,0.2,5.1c1.4,0.7,2.7,1.6,4,2.6
		c2,1.4,3.9,2.4,6.6,2c4.4-0.7,8.3,1.6,11.4,4.2C186.5,165.1,187.1,168.2,186.5,169.8z"/>
	<path d="M385.3,214.5c0,2.5,0.2,5,0.3,7.5c0.2,4.3-1.9,6.9-5.5,6.8c-3.7-0.1-6.1-2.9-6-6.9c0.4-21.5,0.9-42.9,1.1-64.4
		c0.2-12.9,0-25.8-0.1-38.7c0-3.9,1.6-5.5,5.6-5.5c3.5,0,5.1,1.7,5.1,5.5c0,6.3,0,12.6,0,19h-0.6C385.3,163.4,385.3,189,385.3,214.5
		z"/>
	<path d="M214.6,227.8c-4.3,0-6.2-2-6.2-6.1c0.2-13.6,0.4-27.1,0.4-40.7c0.1-20.3,0-40.5,0-60.8c0-4.7,1.7-6.5,5.8-6.3
		c3.1,0.2,4.7,2,4.6,5.1c-0.2,8.2-0.4,16.4-0.4,24.5c-0.1,21-0.1,42,0,63.1c0,5.4,0.6,10.7,1.1,16
		C220.2,226.2,218.7,227.8,214.6,227.8z"/>
	<path d="M270.8,173C270.8,173,270.8,173,270.8,173c0,9.8,0,19.5-0.1,29.3c0,4.9-4.7,7.6-9.1,5.3c-0.8-0.4-1.4-1.4-1.8-2.3
		c-0.3-0.6-0.2-1.4-0.2-2.2c-0.2-27.9-0.3-55.8-0.5-83.6c0-4,1.5-5.6,5.3-5.6c4.2,0,6.3,1.8,6.4,5.6c0.1,7.8,0.1,15.6,0.1,23.4
		C270.8,153,270.8,163,270.8,173z"/>
	<path d="M322.6,155.7c0,10.9,0,21.8,0,32.6c0,4.9-0.2,9.8-0.5,14.7c-0.2,4-2.6,5.8-6.8,5.6c-3.6-0.2-5-1.7-4.9-6
		c0.1-11.1,0.4-22.3,0.5-33.4c0.2-14.9,0.4-29.7,0.5-44.6c0-2-0.2-3.9-0.3-5.9c-0.1-3.2,1.4-4.9,4.6-5c1.3,0,2.6-0.1,3.9,0.1
		c2.3,0.4,3.3,1.9,3.3,4.1c0,12.5,0,25.1,0,37.6H322.6z"/>
	<path d="M305.3,120.6v62.8c0,6.9,0,13.7,0,20.6c0,2.9-1.4,4.5-4.3,4.8c-4.2,0.5-6.9-0.9-7.5-4c-0.3-1.5-0.3-3.1-0.2-4.7
		c0.1-5.1,0.3-10.2,0.4-15.3c0.2-13.2,0.4-26.4,0.6-39.6c0.2-8.5,0.4-16.9,0.6-25.4c0.1-3.9,1.2-5.6,4.3-6.2c3.4-0.6,5.7,1,6.1,4.4
		C305.3,118.9,305.3,119.8,305.3,120.6z"/>
	<path d="M351.1,208.2c-4.6,0.3-6.5-1.2-6.5-5.5c-0.1-16.4-0.1-32.7-0.1-49.1c0-9.4,0-18.8-0.1-28.2c0-2-0.2-4.1-0.3-6.1
		c-0.2-3.7,1.3-5.4,5-5.5c0.7,0,1.3,0,1.9,0c3.7,0.3,4.7,1.3,4.7,5c0,13.6,0,27.2,0,40.7c0,0,0,0,0,0c0,12.9,0,25.8,0,38.8
		c0,1.2,0,2.4,0.1,3.6C356.2,206.3,355,207.9,351.1,208.2z"/>
	<path d="M252.9,184.7c0,6.2-0.3,12.4-0.5,18.7c-0.1,3.4-1.9,4.9-5.5,4.8c-3.5-0.1-5.1-1.6-5.1-4.9c0-14,0-28.1,0-42.1h0.1v-41.6
		c0-4.2,1.4-5.7,5.1-5.7c4.4,0,6,1.6,6,5.8C252.9,141.3,252.9,163,252.9,184.7z"/>
	<path d="M287,202.4c0,2.6-0.5,4.8-3.4,5.7c-3.6,1.2-8.3,0.1-8-5c0-0.8-0.2-1.7-0.3-2.5h0.5c0-13.8-0.1-27.7,0-41.5
		c0.1-13.2,0.3-26.4,0.5-39.6c0.1-4.4,2.7-6.4,7-5.4c2.4,0.6,3.4,2.1,3.4,4.4c0.1,12.5,0.1,25.1,0.2,37.6
		C287,171.5,287,187,287,202.4z"/>
	<path d="M236.2,118.7c0,27.6,0,55.2,0,82.8c0,4.4-1.4,6.2-4.9,6.1c-3.8-0.1-6.7-3-6.6-6.8c0.3-13.5,0.7-27.1,1-40.6
		c0.3-13.4,0.4-26.7,0.5-40.1c0.1-4.6,1.7-6.3,5.9-6.1C235.1,114,236.7,115.7,236.2,118.7z"/>
	<path d="M337.9,119c0,14,0,28.1,0,42.1c0,0,0,0,0,0v42.4c0,3.4-1.7,5-5.2,5.1c-3.5,0.1-5.5-1.7-5.5-5.2c0.2-13.4,0.4-26.8,0.6-40.2
		c0.2-11.6,0.3-23.2,0.4-34.8c0-3.3-0.5-6.7-0.3-10c0.2-4.1,3.2-5.8,7.1-4.6C337.5,114.7,337.9,116.7,337.9,119z"/>
	<path d="M370.2,119.2c0,12.7,0,25.5,0,38.2v3.6h-0.1c0,13.8,0,27.5,0,41.3c0,4.2-1.5,5.9-5,5.8c-3.2,0-4.8-1.5-4.9-4.8
		c-0.1-4.2,0-8.3,0-12.5c0-23.8-0.1-47.6-0.1-71.4c0-4.2,1.3-5.6,5.1-5.5C368.6,114,370.2,115.6,370.2,119.2z"/>
	<path d="M181.5,219.1c-5.3,0.3-10.6,0.4-15.8,0.2c-2.2-0.1-3.8-1.6-3.7-4.1c0.1-2.4,1.1-4.3,3.6-4.7c2.9-0.5,5.9-0.6,8.8-0.8
		c0,0.1,0,0.2,0,0.3c2.1,0,4.3-0.1,6.4,0c2.3,0.1,3.9,1.1,4.1,3.6C185.1,216.7,184.2,218.9,181.5,219.1z"/>
	<path d="M363.4,221.2c0,3-3.8,6.4-6.7,6.2c-2.9-0.2-5.7-0.5-8.6-0.7c-2.6-0.2-3.6-1.7-3.6-4.9c0-3,1.1-4.6,4-5.1
		c2.8-0.5,5.7-0.9,8.5-1.1C359.6,215.4,363.4,218.9,363.4,221.2z"/>
	<path d="M182.2,238.2c-1.2,0.6-2.6,0.7-4,1c0-0.2,0-0.3-0.1-0.5c-3.4,0-6.8,0.3-10.2-0.1c-1.5-0.2-3.5-1.5-3.9-2.7
		c-0.4-1.2,0.7-3.1,1.4-4.6c0.2-0.5,1-0.9,1.6-1c5.3-1.3,10.5-1,15.5,0.9C185.4,232.3,185.1,236.7,182.2,238.2z"/>
	<path d="M332.6,221.5c-2.4,3.9-5.9,6-11.8,6.4c-0.9-0.6-3.4-1.4-4.2-3.1c-0.7-1.4-0.2-4,0.7-5.6c1.5-2.4,3.9-4.1,7-3.5
		c2.4,0.5,4.8,1.3,7.2,2.2C333.3,218.5,333.6,219.9,332.6,221.5z"/>
	<path d="M272.4,221.6c0,3.4-3.5,6.2-7.6,6.2c-3.9,0-7.5-3.1-7.7-6.7c-0.1-2.6,4-6.4,7.3-6C269,215.6,272.4,217.3,272.4,221.6z"/>
	<path d="M298.2,221.7c0,4-2.3,6-6.7,6c-4.4,0-7.7-2.4-7.7-5.6c0.1-3.4,4-7,7.7-7.1C295.2,214.9,298.2,217.9,298.2,221.7z"/>
	<path d="M243.1,219.2c-0.5,3.6-3.4,5.2-5.7,6.6c-1.5,1-4.3,1-6,0.3c-3.5-1.5-3.5-7.2-0.2-10.3c2.5-2.4,8.5-2.1,10.7,0.7
		C242.4,217.4,242.7,218.4,243.1,219.2z"/>
	<path d="M185.3,151.6c0,3.1-1.9,4.7-5.5,4.7c-3.3,0-5-1.2-5-3.8c-0.1-2.9,2.3-5.1,5.4-5.1C183.2,147.5,185.3,149.2,185.3,151.6z"/>
</g>
</svg>
