<?xml version="1.0" encoding="utf-8"?>
<!-- Generator: Adobe Illustrator 24.0.1, SVG Export Plug-In . SVG Version: 6.00 Build 0)  -->
<svg version="1.1" id="Layer_1" xmlns="http://www.w3.org/2000/svg" xmlns:xlink="http://www.w3.org/1999/xlink" x="0px" y="0px"
	 viewBox="0 0 500 500" style="enable-background:new 0 0 500 500;" xml:space="preserve">
<g>
	<path d="M310.9,193.3c-0.1-3.8-0.4-7.5-0.9-11.2c-0.5-4-2.5-5.4-6.5-5.5c-11.3-0.1-22.5-0.3-33.8-0.4c-16.5-0.1-33.1-0.1-49.6-0.1
		c-1.2,0-2.4,0-3.5-0.3c-2.2-0.5-4.2-0.8-6.3,0.4c-1.7,0.9-2.5-0.3-2.1-1.8c0.4-1.7,1.4-3.2,2.1-4.7c2.3-4.9,5.1-9.5,4.9-15.3
		c-0.1-3.2-1.1-6-2.4-8.8c-3.8-8-10-13.4-18.2-16.5c-1.2-0.4-2.2-1.4-3.1-2.3c-3.4-3.5-6.5-7.4-10.1-10.7c-3.9-3.4-8.3-6-12.4-9.2
		c-3.6-2.8-7-5.8-10.5-8.8c-1.6-1.3-3.1-2.7-4.8-4c-1-0.8-2.1-1.5-3.3-1.9c-2.2-0.7-4.7-0.8-6.6-1.9c-5.9-3.1-11.7-6.6-17.5-9.8
		c-1.6-0.9-2.6-2-2.8-3.8c-0.3-3.2-1.7-5.9-4.2-8c-3.5-2.8-7-5.6-10.6-8.3c-1.8-1.4-3.8-2.8-5.8-3.9c-4.3-2.3-8.7-4.5-13.1-6.6
		c-1.6-0.8-3.4-1.3-5.2-1.6c-6.5-1.1-11.8,2.8-17.6,4.7c-0.2,0.1-0.4,0.3-0.6,0.5c-3.7,3.9-7.7,7.6-11.2,11.8
		c-3.6,4.4-6.7,9.3-10,14c-1.3,1.8-2.5,3.7-3.8,5.6c-3.8,5.9-7.5,11.8-11.5,17.5c-3.4,4.8-5.9,10.1-7.4,15.7
		c-0.4,1.6-0.4,3.5-0.1,5.2c1.3,6.6,4.6,12.3,9.7,16.5c4.6,3.7,9.6,6.9,14.5,10.3c4.7,3.3,9.5,6.4,14.2,9.7
		c5.3,3.6,10.5,7.3,15.8,10.9c2.9,2,6,3.9,8.9,5.9c2.7,1.8,5.3,3.7,8,5.5c5.5,3.8,10.9,7.5,16.4,11.3c2.4,1.7,4.6,3.5,7,5.2
		c3.4,2.4,6.9,4.7,10.3,7c6,4.3,12,8.7,18.1,12.8c2.6,1.7,5.5,3.4,8.4,4.2c6.4,1.7,12.8,2,18.5-2.6c4.5-3.6,8.9-7.1,12.1-12.1
		c4-6.4,8.7-12.4,13-18.6c2.2-3.1,4.3-6.3,6.6-9.4c0.5-0.7,1.4-1,2.1-1.6c0.4,0.7,1,1.3,1.1,2c0.8,5.1,2.1,6.3,7.4,6.3
		c7.9,0,15.7,0,23.6,0c3.3,0,4.1,0.8,4.2,4.1c0.2,12.9,0.3,25.9,0.5,38.8c0,2.9-0.7,3.7-3.7,3.6c-2.9-0.1-5.8-0.4-8.7-0.4
		c-9.5,0-19,0.3-28.6,0.3c-9.4,0-18.9-0.2-28.3-0.3c-2.4,0-4.8,0.3-7.3,0.3c-6.8,0-13.7-0.2-20.5-0.2c-2.2,0-4.2,0.9-5.1,3.1
		c-0.8,2.1-1.6,4.3-1.6,6.5c-0.3,15.9-0.3,31.7-0.6,47.6c-0.1,5.5,2.9,9.6,9.4,9.5c22.7-0.2,45.4-0.1,68.2,0c8.2,0,16.4,0,24.5-0.1
		c1.7,0,3.4-0.2,4.9-0.7c2.4-0.7,4.8-4.4,4.2-6.5c-0.7-2.7-3.2-2.5-5.3-2.8c-0.7-0.1-1.3,0-2,0c-8.6,0-17.2,0-25.8,0
		c-3.4,0-4.3-0.9-4.3-4.3c-0.1-10.8,0-21.6-0.1-32.3c0-1.5,0-3-0.2-4.5c-0.6-5,0.1-5.9,5-5.9c10.3,0.1,20.6,0.4,30.8,0.3
		c2.5,0,5-1.3,7.6-2c1.5-0.4,3-1,4.5-1.1c1.9-0.1,3.9,0,5.7,0.3c3,0.5,6,1.2,9,1.8c2.1,0.4,4.2,1,6.3,1.2c5.6,0.7,10-2.8,14.7-4.9
		c1.6-0.7,3-3.9,2.9-5.9c-0.1-2.3-3.1-1.5-4.8-2c-0.2,0-0.3,0-0.5,0c-10,0.1-20,0.2-30,0.3c-2.2,0-4.3,0.1-6.5,0c-2.9,0-3.9-1-3.7-4
		c0.1-2.3,0.4-4.7,0.4-7c-0.1-7.6-0.3-15.2-0.4-22.8c0-1.8-0.1-3.5-0.2-5.2c-0.4-3.6,0.4-4.7,4-4.6c6.7,0.1,13.4,0.4,20,0.4
		c6.3,0,12.5-0.2,18.8-0.4c3.5-0.1,4.6,1,4.6,4.5v15.8h0c0,5,0,10,0,15c0,1.7,0.3,3.3,0.5,5c0.3,2.5,1.9,3.6,4.3,3.8
		c4.2,0.3,7.3-3.4,7.1-8.4C311.4,212.6,311.2,202.9,310.9,193.3z M165.1,121.2c0.6-0.7,1.6-1.1,2.5-1.6c0.9,0.6,1.7,0.9,2.3,1.4
		c2.8,2.4,5.5,4.8,8.2,7.3c2.4,2.2,2.4,3.1,0.3,5.6c-4,4.6-8,9.2-11.8,14c-2,2.5-3.7,5.4-5.5,8c-1.8,2.6-3.7,3-6,0.8
		c-2.7-2.5-5.2-5.4-7.8-8.1c-1.6-1.7-1.3-3.3,0-4.9C153.1,136.2,159,128.7,165.1,121.2z M143.4,104.9c1.6-2,2.9-2,4.9-0.5
		c2.4,1.8,4.8,3.6,7.3,5.2c2.1,1.4,2.5,2.8,1,4.8c-6.4,8.6-12.8,17.2-19.3,25.8c-0.5,0.7-1.2,1.4-1.8,2c-1.5,1.6-3,1.6-4.5,0
		c-2.2-2.2-4.5-4.2-6.7-6.4c-0.7-0.7-1-1.6-1.5-2.5c0.4-1,0.7-2,1.2-2.7c3.2-4.6,6.5-9.2,9.9-13.7
		C136.9,112.8,140.2,108.9,143.4,104.9z M119.7,92.3c1.8-2.4,3.6-2.6,5.9-0.6c2.1,1.8,4.3,3.5,6.4,5.2c2.2,1.7,2.1,2.8,0.3,5
		c-2.2,2.6-4.1,5.4-6.2,8.1c-2.5,3.3-5,6.6-7.5,10c-1.7,2.3-3.2,4.7-5,6.8c-0.9,1-2.2,1.7-3.4,2.6c-0.1-0.2-0.2-0.4-0.2-0.6
		c-4.7,0.6-7-2.6-9.1-5.9c-0.4-0.6-0.2-1.8,0.1-2.6c2.9-6.8,7.5-12.5,11.7-18.5C115,98.5,117.4,95.5,119.7,92.3z M203.5,156.5
		c-1.2,6-4.5,11.1-7.8,16c-4.7,7.1-9.7,13.9-14.6,20.9c-4.5,6.4-9.2,12.6-15.2,17.7c-2.4,2-6.1,2-8.8,0.4c-3.6-2.2-7.4-4.1-11-6.3
		c-3.1-1.9-6.2-4-9.2-6c-6.8-4.7-13.5-9.5-20.2-14.2c-4.7-3.3-9.4-6.6-14.1-9.8c-3.1-2.2-6.4-4.2-9.5-6.4c-2.6-1.8-5.1-3.7-7.7-5.5
		c-3.5-2.4-7-4.8-10.5-7.2c-4.9-3.4-9.9-6.7-14.9-10c-2.9-2-5.8-3.8-8.7-5.8c-5.2-3.7-10.9-6.8-15-11.9c-2.1-2.6-3-5.5-2.6-8.8
		c0.7-5.5,4.1-9.8,6.9-14.2c3.4-5.3,7-10.4,10.5-15.5c3.2-4.8,6.4-9.5,9.6-14.3c3-4.5,6.1-9.2,10.7-12.1c5-3.1,10.1-5.4,16.4-2.8
		c7.3,3,13.6,7.2,19.4,12.3c1.6,1.4,3.4,2.5,4.8,4c2.2,2.3,2.1,4.3,0.2,6.9c-3.4,4.5-6.7,9.1-9.9,13.8c-4.1,6-8,12.1-11.9,18.1
		c-2.6,3.9-2.2,10.9,0.9,14.6c1.4,1.7,3,3.3,4.5,5c2.6,3.2,6.3,4.2,10.1,4.3c6.5,0.2,11,3.8,15.3,7.9c1.6,1.5,2.9,3.3,4.7,4.6
		c1.6,1.2,3.6,2,5.4,3l0.4-0.6c1-0.1,2-0.3,3-0.4c3.6-0.4,4.8,0.7,7.1,3.4c2.6,3.2,5.9,5.8,9,8.5c1.4,1.2,3.1,2,4.6,3.1
		c2.9,2,6.3,2,8.6-0.7c4-5,7.7-10.2,11.5-15.4c2.2-3,4.3-5.9,6.4-8.9c0.8-1.1,1.8-2.2,2.6-3.4c2.3-3.5,5.6-4.6,8.7-2.1
		c4.6,3.6,9.7,7.1,10.6,13.7C203.6,153.7,203.7,155.1,203.5,156.5z M201.6,283c0,5.1-0.7,5.8-5.8,5.8c-6.2,0-12.4,0-18.5,0v0
		c-5.9,0-11.8,0-17.8,0c-1.4,0-2.8,0.1-4.2,0.3c-3.9,0.6-5.8-0.9-5.7-4.8c0.2-6.8,0.7-13.6,0.8-20.4c0.1-5.4-0.3-10.8-0.3-16.3
		c0-3.5,1.4-4.5,5-4.4c13.3,0.1,26.7,0.3,40,0c6.3-0.1,6.7-0.2,6.7,6.2C201.6,260.6,201.6,271.8,201.6,283z"/>
	<path d="M475.9,419.5c-4.8-8.2-11.9-14.3-18.3-21.1c-4.2-4.5-8.7-8.8-12.9-13.3c-7.9-8.2-15.6-16.8-25-23.4
		c-2.7-1.9-3.8-4.3-2.4-6.9c2.4-4.6,3.4-9.6,5.1-14.3c2.7-7.3,3.1-14.9,3.3-22.4c0.2-9.7-0.8-19.4-4.4-28.5
		c-1.7-4.3-3.1-8.6-5.2-12.7c-1.8-3.6-4.4-6.9-6.7-10.3c-4.5-6.7-10.2-12.4-16.8-17c-5.2-3.6-10.6-6.9-16.3-9.7
		c-4.7-2.4-9.7-4.7-14.8-5.8c-6.4-1.4-13-1.6-18-2.2c-5.5,0.4-9.3,0.8-13.2,0.8c-7.6,0-14.6,2.9-21.3,5.8c-6.5,2.8-12.8,6.6-18.2,11
		c-6,4.9-11.3,10.8-16.3,16.8c-3.6,4.2-6.5,9.1-9.2,13.9c-2.4,4.5-4.8,9.2-5.9,14.2c-2.3,10.2-2.4,20.6-1.7,31.1
		c0.5,8.1,3.6,15.4,6.1,22.8c1.6,4.6,4.6,8.8,7,13.2c3.7,6.8,8.8,12.5,14.4,17.8c6,5.7,12.8,10.2,20.3,13.9
		c6.3,3.1,12.7,5.3,19.5,6.8c17.2,3.8,33.8,1.1,50.1-4.9c0.9-0.3,1.6-0.8,2.5-1.2c2-0.9,4.1-1.9,6.1-2.8c1.7-0.7,3-0.3,4.2,1.2
		c2.7,3.2,5.3,6.5,8.2,9.5c14.5,15,29,30,43.8,44.8c4.6,4.6,10.6,6.6,17.2,4.6c1.8-0.5,3.4-1.3,5.1-2c7.5-2.8,12.1-8.6,14.6-15.8
		C478.4,428.8,478.5,423.9,475.9,419.5z M385.6,376.6c-5.3,3.7-11.1,6.9-17,9.3c-7.2,2.9-14.7,5.1-22.6,4.9c-1.2,0-2.5,0-3.8,0
		c0,0.1,0,0.2,0,0.3c-4.7-0.5-9.6-0.3-14.2-1.5c-5.6-1.4-11.4-2.4-16.4-5.7c-2.5-1.7-5.5-2.7-8.2-4.3c-7.5-4.5-14.1-10.1-19.2-17.3
		c-3.9-5.5-7.2-11.3-10.7-17.1c-0.4-0.6-0.7-1.3-0.9-2.1c-1.1-3.7-2.4-7.3-3.2-11.1c-2.3-10.4-2.1-20.9,0-31.3
		c0.8-4.1,1.7-8.4,3.5-12.2c2.4-5.3,5.3-10.4,8.6-15.1c3-4.2,6.7-8.1,10.6-11.6c7.4-6.8,16-11.8,25.5-15.4
		c8.4-3.2,16.9-4.3,25.7-4.2c9,0.1,17.6,2.1,25.8,5.6c10.8,4.7,20.8,11,28.6,20c4.7,5.4,8.6,11.4,11.4,18.1
		c6.2,14.6,8.5,29.7,4.8,45.2c-1.7,7-4,14-7,20.5c-2.2,4.8-5.6,9.3-9.1,13.3C394.2,369.3,390.1,373.4,385.6,376.6z M467.2,429.5
		c-2.2,6.3-9,11.5-16.1,11.2c-1.1-0.6-3.8-1.3-5.4-2.9c-9.8-9.9-19.3-20-28.9-30.2c-5.7-6-11.4-12.2-17-18.2
		c-0.2-0.2-0.4-0.4-0.5-0.5c-4.1-4.2-3.9-5.5,0.8-9.3c3.1-2.6,5.9-5.6,8.7-8.6c2.2-2.4,3.5-2.7,5.8-0.4
		c10.8,10.4,21.6,20.9,32.3,31.4c5.1,5,10.2,10.1,15.2,15.2c1.7,1.7,3.2,3.6,4.5,5.7C467.7,424.9,468.1,427.1,467.2,429.5z"/>
	<path d="M259.6,363.7c-0.4,2-2.2,2.4-3.9,2.5c-1.8,0.2-3.7,0.4-5.5,0.4c-41.6,0-83.2,0-124.8,0.1c-4.5,0-9,0.4-13.5,0.4
		c-5.1,0-10.2,0-15.3-0.5c-4-0.5-8.6-0.8-11.8-3c-4.8-3.1-10-6.5-11.9-12.7c-0.4-1.2-0.9-2.4-1.5-3.4c-1.8-2.8-2.2-5.9-2.2-9.1
		c0-8.2,0-16.4,0-24.6c-0.2-39.6-0.3-79.2-0.5-118.8c0-3.3,0-6.5,0.2-9.8c0.2-3,1.8-4.9,3.7-5c2.5-0.1,5.3,2.1,5.7,4.7
		c0.4,2.7,0.5,5.5,0.5,8.2c0.1,10.3,0.3,20.5,0.3,30.8c0.1,28.4,0.1,56.8,0.1,85.2c0,8.7,0.2,17.4,0,26c-0.2,9.1,6.3,20.6,19,20.4
		c5.7-0.1,11.5,0.4,17.3,0.4c20.6,0.1,41.3,0,61.9,0v0c24.7,0,49.5,0,74.2,0.1c2.1,0,4.4,0.9,6.3,2
		C260.1,359.2,260.1,361.5,259.6,363.7z"/>
	<path d="M408.6,241.4c0.1,4.3-1.6,5.8-5.6,5.3c-1.2-0.2-2.8-1.1-3.3-2.2c-1-2.4-2-5.1-2-7.6c-0.3-19.9-0.4-39.8-0.6-59.6
		c-0.1-11.6-0.3-23.2-0.5-34.8c-0.1-7.5-3-13.1-9.5-17.3c-3.7-2.4-7.3-3.4-11.5-3.3c-7.9,0.1-15.7,0-23.6,0c0,0,0,0,0,0
		c-7.9,0-15.7,0-23.6,0c-43.4-0.1-86.8-0.3-130.3-0.4c-4.8,0-8-4.9-5.7-9.1c0.6-1.2,2.6-2.3,4-2.3c6.5,0,13,0.4,19.5,0.7
		c1,0,2,0.1,3,0.2c49.4,0.2,98.7,0.3,148.1,0.5c4.2,0,8.3,0.3,12.5,0.4c9.8,0.5,16.4,6.3,21.9,13.6c4.3,5.7,5.6,12.3,5.6,19.3
		c0.1,22.5,0.3,45.1,0.5,67.6C407.9,222.1,408.4,231.8,408.6,241.4z"/>
	<path d="M246.7,325c-0.3,2.6-3.7,5-7.3,5c-18.7-0.2-37.4-0.5-56.1-0.6c-23.6-0.2-47.3-0.4-70.9-0.2c-6.9,0.1-9.1-3.9-9-10.3
		c0.1-9.8,0-19.7,0-29.5c0-0.7-0.1-1.3-0.1-2c-0.2-25.2-0.4-50.5-0.5-75.7c0-1.5,0.1-3,0.5-4.5c1-3.4,4.3-4.3,7.1-2.2
		c3.1,2.4,3.6,5.8,3.4,9.5c-0.2,2.8-0.4,5.7-0.4,8.5c0.1,20.8,0.3,41.6,0.4,62.4c0,9.1-0.3,18.2-0.4,27.2c-0.1,5.3,0.5,6,5.8,6H175
		c0,0,0,0,0,0c18.3,0,36.6,0,54.9,0c3.3,0,6.7,0,10,0.1C244.2,318.8,247.1,321.5,246.7,325z"/>
	<path d="M373.1,216.1c0,0.6,0,1.2,0,1.8c-0.1,3.4-1.1,4.9-3.4,5.3c-3.6,0.5-6.3-1-7-4.1c-0.4-1.8-0.6-3.8-0.7-5.7
		c-0.1-9.1,0-18.2,0-27.3h0.1c0-9.1,0-18.2,0-27.3c0-2.3,0.4-4.7,0.3-7c-0.2-3.7-1.3-4.8-5-4.8c-16,0-32.1,0-48.1,0.1
		c-26.3,0.1-52.6,0.3-78.9,0.4c-0.7,0-1.5-0.1-2.2-0.3c-3.4-0.8-4.7-2-4.5-4.4c0.2-2.8,2.7-5.5,5.4-5.8c0.9-0.1,1.8-0.1,2.8-0.1
		c16.7,0,33.4,0,50.1-0.1c10.7,0,21.3-0.4,32-0.3c14.9,0,29.9,0.2,44.8,0.4c2.9,0,5.8-0.1,8.7,0.1c2.7,0.1,4.3,1.8,4.9,4.3
		c0.4,1.7,0.7,3.5,0.6,5.2c-0.1,8.8-0.4,17.5-0.4,26.3C372.7,187.2,373,201.7,373.1,216.1z"/>
	<path d="M399.9,311.1c-2-12.4-6.2-24-14.8-33.4c-3.9-4.2-8.5-8-13.2-11.4c-3.9-2.9-8.6-4.6-13.2-6.4c-6.1-2.4-12.3-2.8-18.6-3
		c-7.9-0.2-15.4,1.6-22.5,5c-6.1,2.9-11.4,6.7-16.2,11.5c-6.9,6.8-12.3,14.6-15.3,23.9c-1.9,6-3.8,11.9-3.3,17.6c0,2,0,3.2,0,4.5
		c0.1,7.3,2.8,14.2,5.5,20.7c3.5,8.3,8.5,16,15.9,21.4c4.8,3.5,9.9,6.7,15.2,9.4c3.5,1.8,7.6,2.6,11.4,3.6c11.9,2.9,23.3,0.7,34.2-4
		c7.4-3.2,13.9-8.1,19.5-14.1c6.5-7,10.8-15.1,13-24.3c0.3-1.1,0.5-2.3,0.9-3.4C400.6,323,400.8,317,399.9,311.1z M384.7,337.4
		c-1.8,3.6-3.9,7.2-6.1,10.5c-1.3,2-3.1,3.7-5,5.2c-3,2.2-6.4,3.9-9.3,6.1c-4.4,3.4-9.8,3.6-14.7,5.2c-2.3,0.8-4.9,0.7-7.5,1
		c-7.4-0.9-14.7-2.4-21.5-5.8c-5.2-2.6-10.1-5.6-14-9.8c-5.2-5.5-9.4-11.7-10.8-19.4c-0.7-3.9-2.1-7.6-2.3-11.5
		c-0.2-4.1,0.1-8.4,1.1-12.3c1.3-5.3,2.3-10.8,5.8-15.3c2.9-3.8,5.5-8,8.9-11.3c3-3,6.7-5.6,10.5-7.5c4.2-2.1,8.9-3.6,13.5-4.4
		c6-1.1,12.1-1.2,18.1,0.6c5.9,1.7,11.6,3.9,16.7,7.2c4.7,3,8.9,6.6,11.7,11.7c2,3.8,4.9,7.2,6.3,11.2c1.7,5.2,2.6,10.7,3.3,16.1
		C390.1,322.8,388.3,330.3,384.7,337.4z"/>
</g>
</svg>
