<?xml version="1.0" encoding="utf-8"?>
<!-- Generator: Adobe Illustrator 24.0.1, SVG Export Plug-In . SVG Version: 6.00 Build 0)  -->
<svg version="1.1" id="Layer_1" xmlns="http://www.w3.org/2000/svg" xmlns:xlink="http://www.w3.org/1999/xlink" x="0px" y="0px"
	 viewBox="0 0 500 500" style="enable-background:new 0 0 500 500;" xml:space="preserve">
<path d="M353.4,28.8c37.2-1,64,24.2,70.9,30.3c27.2,24.5,35.6,54.4,38.3,66.5c4.9,0.9,10.3,2.2,16.2,4.3c3.2,1.1,6.2,2.3,8.9,3.5
	c-6.3,9.3-13.1,19-20.7,28.9c-6.1,8.1-12.3,15.7-18.3,22.8c-6.8-9.4-13.4-17.3-19.1-23.8c-13-14.6-23.4-23.4-21-28.1
	c0.3-0.5,0.8-2.4,6.1-2.8c7.2-0.5,14.4-0.9,21.5-1.4c0.6,0.1,2.1,0.5,3.2,1.8c1.4,1.6,1.7,4,0.8,6.2c-1.1,1-16.7,3.6-18.5,2.9
	c9.4,10.4,18.7,20.8,28.1,31.2c18.3-22.6,21.9-30,20.4-31.5c-1.5-1.5-19.5-1.7-20.9-3.1c-1.1-11.7-5.6-43.5-31.1-68.9
	C403.7,53.4,389,47.3,385.5,46c-23.1-8.6-47.7-5.6-72.8,1.4C292.4,33.3,347.8,29,353.4,28.8z"/>
<path d="M46.1,289.1c0.3,0,1.2-0.1,2.3,0c0.8,0,1.5,0.2,2.3,0.6c0.8,0.6,1.4,1.4,1.8,2.7c2.2,6.8,4.8,13.6,5.8,20.7
	c1.3,9.3,11.5,37.2,31.6,57.9c7.1,7.3,20.7,19.2,43.1,27.1c-1.2,3-2.3,6-3.5,9c-2.2-0.7-5.3-1.8-8.9-3.3
	c-3.9-1.7-21.7-9.5-36.4-25.2c-23.8-25.5-37.4-69.3-37.9-72.9c0-0.3-0.2-1.8-1.3-2.8c-0.8-0.7-1.9-0.9-3.4-0.9
	c-7.5,0.1-14.9,0.1-22.4,0c-2.9,0-6.1-0.1-7.4-3.5c-1.3-3.7-0.6-6.9,2-10.1c8.4-10.4,16.5-21.1,24.7-31.7c3.1-3.9,5.9-8.1,9.1-11.9
	c3.2-3.9,8.1-3.7,11.2,0.4c6.3,8.5,12.5,17.1,18.8,25.6c3.5,4.6,7.4,9,11,13.5c1.9,2.4,3.8,4.9,5.4,7.6c2.3,3.8-0.6,9.4-5.2,9.9
	c-5.5,0.5-11,0.4-16.5,0.5c-2.3,0.1-4.6,0.3-6.8,0.2c-4.2-0.1-6.3-2.5-6.2-6.9c0-3.7,1.9-5.5,6.1-5.4c2.4,0,4.7,0.5,7.1,0.7
	c1.1,0.1,2.3,0.2,3.4,0c2.6-0.5,3.2-1.7,1.7-3.9c-2.1-3.1-4.6-5.9-6.9-8.9c-4.5-5.9-9.1-11.9-13.6-17.8c-2.7-3.6-4.4-3.5-7.2,0
	c-6.2,7.7-12.5,15.3-18.6,23.1c-1.3,1.6-1.9,3.8-2.8,5.7c2.3,0.3,4.2,0.4,5.4,0.4C36,289.5,42.6,289.5,46.1,289.1z"/>
<path d="M331.1,426.3c-4.9,2.2-9.6,4.8-14.4,7.1c-1.6,0.8-3.4,1-5,1.7c-2.9,1.2-5.6,2.7-8.5,3.7c-2,0.7-4.3,1.1-6.4,1
	c-1.6-0.1-3.8-1.1-4.3-2.3c-0.7-1.5-0.5-4,0.4-5.5c2.2-4.1,6.7-5.4,10.6-7.2c6.3-2.8,12.9-5.2,19.4-7.7c2.1-0.8,4.3-1.3,6.5-1.9
	c4.8,0.4,6.4,1.2,6.8,3.9C336.6,422.5,334.9,424.6,331.1,426.3z"/>
<path d="M322.9,411.9c-2.5,1.4-5.3,2.5-8,3.5c-5.7,2.3-11.3,4.6-17.1,6.6c-3.5,1.2-6,0.1-7-2.2c-0.9-2.2,0.1-5.8,2.8-7.3
	c3.9-2.2,8.1-4,12.3-5.8c3.7-1.6,7.4-3.2,11.2-4.7c1-0.4,2.2-0.5,3-0.7c2.9,0.1,5.2,0.9,5.9,3.6
	C326.7,407.9,325.5,410.4,322.9,411.9z"/>
<path d="M450.7,314c-14.6-13.5-28.1-29.2-42.7-43.3c-30.1-12.1-59.9-24.5-90.9-36.3c-17.6-6.4-34-17.2-46.3-16.3
	c-33.4,12.8-65.5,28-99.5,40.3c-8.8,2.6-18.2,10-26.6,10c-8.7-12.8-15.4-27.6-19.7-42.8c-1.8-7.4-7.4-23.8-0.7-24.7
	c22,0.3,47.3-2,50.4,1.6c1.8,8.5,0.7,50.1,12.9,39.4c5.5-7.7-6.5-37.1,0.2-41.3c1.1-0.7,2.3-0.5,2.8-0.4c8.4,0.8,27.7,0.6,57.1-0.3
	c0,1.3,0.1,2.5,0.1,3.8c0.3,4.4-0.7,12,4.3,13c2.9,0.2,4.1-0.8,4.7-1.4c1-1,1.3-2.5,0.8-9.7c-0.2-2.5-0.4-4.6-0.5-6.1
	c3.1,0.1,6.3,0.2,9.5,0.3c18.8,0.5,37.1,0.5,55,0c-0.2,3.7-0.3,7.4-0.5,11c-0.3,2.8-0.5,6-0.4,9.5c0.1,1.6,0.2,3.1,0.4,4.5
	c2.3,1.6,3.9,1.6,4.8,1.3c3.6-1,4.6-7.5,5.7-14.4c0.8-4.8,0.9-8.9,1-11.9c5.2,0,10.7,0,16.2,0.2c5.3,0.2,10.4,0.4,15.3,0.7
	c0-0.1,0-0.2,0-0.3c9.8,1.3,24.7-5.1,19.4,10c-1.4,12.3-11.4,36.3-4.4,37.9c7.8,0.9,11.1-16.4,12.4-20.9
	C427.3,72.5,228.1-10,137.7,113.4c-38.2,54.7-35.2,110.6-1.7,160.1c-10.7,15.1-27.9,26.3-39.9,42.6c-5.2,7.4,6.5,8.4,12.3,10.7
	c9,3.7,19,6.2,26.9,11.1c2.4,6.5,0.3,16.2,0.9,23.2c0.8,61.2-5.8,51.7,17.7,60.9c37.4,15.7,74.2,31.5,111.9,46.9
	c12.9,6.4,24.4-4.7,36.9-8.3c17.6-7.6,33.7-14.3,51.4-21.8c25-12.6,63.6-21.4,60.7-31.1c1.3-23-1.3-47.2,1.5-70
	C425,329.2,463.9,329,450.7,314z M376.7,147.6c6.2,15.6,8.1,29.6,8.6,39.1c-17.4,0.2-34.8,0.5-52.1,0.7c0.8-12.9-0.2-30.6-7.9-49.2
	c-1.6-3.7-3.3-7.2-5-10.4c11-5.8,22.1-11.6,33.1-17.5C360.1,117.8,369.7,130.1,376.7,147.6z M295.5,72.9
	C295.5,72.9,295.5,72.9,295.5,72.9c0.1-0.1,0.1-0.2,0.2-0.2c0.1,0,0.1-0.1,0.2-0.1c0.4-0.2,1-0.5,1.3-0.7
	c13.6,4.7,26.4,13.2,38.3,22.3c3.3,2.9,10.2,5.3,6.3,9.8c-6.6,3.5-13.7,8.5-20.9,9.9c-5.5-5.5-7-14.5-11.8-21.4
	C305.2,85.2,298,80.5,295.5,72.9z M258.6,67.8c0.8-6.1,7.5-1.4,11.4,0.1c18.8,8.8,35.7,37.1,37.5,50.1c-12.2,7.1-27.4,9.2-41.3,11.5
	c-4,0.9-8.5,0.5-7.7-5.3V71.5C258.6,70.3,258.5,69,258.6,67.8z M260.8,140.2c8.6-0.4,18.5-1.4,29.3-3.6c8.2-1.7,15.7-3.8,22.3-6
	c2.6,7.7,5.1,17.5,6.5,28.9c1.4,11.1,1.3,21,0.7,28.9c-20-0.1-40-0.3-60-0.4c0.2-8.6,0.4-17.2,0.6-25.8
	C260.4,154.8,260.6,147.5,260.8,140.2z M225.8,74.6c4.5-4.3,14.1-11.7,19.3-8.8c3.9,2.1,3.8,9,2.5,33.6c-0.6,11.7-1.2,22.1-1.8,30.8
	c-6.7-0.6-13.5-1.3-20.2-1.9c-8.7-2.3-27.9-6.3-27.2-10.9C204.9,101.7,213.4,86.3,225.8,74.6z M165.9,99
	c15.7-10.6,30.7-25.4,44.3-25.9c-17.8,25-20,38.5-25.3,41.9C179.8,113.4,159,103.1,165.9,99z M132.4,145.7
	c7.2-16.2,16.1-28.3,23-36.3c3.9,3.1,8.5,6.4,13.8,9.6c5,3.1,9.8,5.5,14.2,7.6c-2.8,7.9-5.4,17.3-7.3,27.9
	c-2.4,13.6-3.1,25.8-2.9,35.8c-17.5-0.5-35-1-52.5-1.4C121.9,178,124.8,162.7,132.4,145.7z M136.3,325c-6.8-3.6-23.6-7.2-21.6-11
	c10.5-10.2,19.8-22.6,32-30.7c34,13.1,68.4,26.8,102.7,40.9c3.9,2.2,7.4,1.7,11.7,4.3c2.2,5-12.3,14.9-14.2,18.8
	c-6.9,5.7-12.1,19.9-19.5,16.1C197.2,349.1,167.1,337.7,136.3,325z M265.3,455.3c-38.7-16.1-78.5-30.9-116.9-49.3
	c-2.9-15.9,0-34-1-50.6c0.5-6.4-2.4-14.7,7.4-9.8c23.5,10.5,46.1,18.3,69.4,29.2c4.8,2.5,10.9,6.2,14.7,1.8
	c10.5-10.1,16.5-24.5,28.6-32.3c2.9,22.3,0.2,46.7,1.1,69.5h0.1C267.2,426.2,272.6,461,265.3,455.3z M271.4,319.1
	c-131.2-52.8-115.5-38.4-86-52.6c30.7-11.5,59.2-25.8,90.4-35.3c50.5,19.6,105,38.5,109.4,45C336.2,295.2,275.1,322.9,271.4,319.1z
	 M402.8,402.5c-1.3,4.2-6,4.9-10.2,6.7c-32.1,12.6-61.6,26.7-93.7,39.5c-6.9,1.7-19.8,12-18.4,1.8c0.9-36.1,0.9-70.9,0.1-106.8
	c0.4-0.2,0.8-0.3,1.2-0.5c36.9,41.8,17.6,40.2,56.1,24.6c21.2-8.7,40.3-16.1,62.2-24.3c6.4-1.2,2.1,14.2,3.2,17.7
	C403,375.6,403.4,388.3,402.8,402.5z M431.3,318.6c-39.1,13.5-77.6,30.4-116.6,45.9c-10.5-8.9-20.6-23.4-27.8-35
	c14.1-8.9,32.2-13.1,48-20.2c86.5-33,58-34.2,95.3,1.4C432.8,313.2,436.3,316.6,431.3,318.6z"/>
</svg>
