<?xml version="1.0" encoding="utf-8"?>
<!-- Generator: Adobe Illustrator 24.0.1, SVG Export Plug-In . SVG Version: 6.00 Build 0)  -->
<svg version="1.1" id="Layer_1" xmlns="http://www.w3.org/2000/svg" xmlns:xlink="http://www.w3.org/1999/xlink" x="0px" y="0px"
	 viewBox="0 0 500 500" style="enable-background:new 0 0 500 500;" xml:space="preserve">
<g>
	<path d="M418.4,367.2c-0.3-2.5-1.5-3.3-4.7-3.4c-3.2-0.1-3.2-0.2-3.2-3.3c0-7.5,0-14.9,0-22.4c0-3.3-1-4.2-4.3-4.2
		c-2.9,0-5.8,0-8.7,0c-1.9,0-2.8-0.8-2.7-2.7c0.1-4.8,0-9.7,0-14.5c0.1-21.4,0.2-42.9,0.3-64.3c0-14.6,0-29.2,0-43.8
		c0-4.4,0.7-5,4.9-3.5c0.3,0.1,0.6,0.3,0.9,0.4c2.7,1.3,5.4,2.7,8.2,3.8c2.3,1,4.1,0,4.2-2.6c0.1-6.8,0.1-13.5,0-20.3
		c0-1-0.7-2.5-1.5-2.9c-3.7-1.8-7.5-3.4-11.4-4.8c-3.6-1.3-7.4-2.3-11-3.5c-6.2-2.1-12.4-4.3-18.5-6.4c-2.5-0.9-5.1-1.8-7.6-2.6
		c-3.7-1.2-7.4-2.3-11-3.5c-2.5-0.8-4.9-1.7-7.4-2.6c-3.3-1.2-6.5-2.5-9.8-3.7c-2.4-0.9-4.9-1.8-7.4-2.6c-3.6-1.2-7.2-2.3-10.8-3.5
		c-2.5-0.8-4.9-1.7-7.4-2.6c-3.4-1.2-6.8-2.6-10.3-3.8c-4.3-1.5-8.7-3-13.1-4.5c-2.8-1-5.6-2-8.4-2.9c-3.7-1.2-7.5-2.3-11.2-3.6
		c-3.3-1.2-6.5-2.8-9.8-3.7c-2.9-0.8-6.2-1.5-9.1-1.1c-4,0.7-7.9,2.4-11.8,3.8c-4.3,1.5-8.5,3-12.8,4.5c-2.9,1-5.9,2-8.8,3
		c-3.8,1.4-7.6,2.8-11.4,4.1c-3.4,1.2-6.8,2.2-10.2,3.3c-4.4,1.5-8.8,3-13.3,4.5c-2.8,1-5.6,1.9-8.4,2.9c-3.6,1.3-7.2,2.7-10.8,4
		c-3.5,1.2-7.1,2.2-10.6,3.3c-2.7,0.9-5.3,1.9-8,2.8c-3.9,1.4-7.8,2.8-11.7,4.1c-3.5,1.2-7.1,2.1-10.6,3.3c-2.5,0.8-5.1,1.7-7.6,2.6
		c-3.3,1.2-6.5,2.6-9.8,3.7c-4.2,1.4-8.5,2.7-12.8,4.1c-2.3,0.7-3.8,2.2-3.9,4.8c-0.1,0.9-0.2,1.8-0.2,2.7
		c-0.1,5.1-0.3,10.2-0.2,15.3c0,1.4,0.6,3.3,1.6,3.9c1.1,0.6,3,0.1,4.4-0.3c3.6-1.1,7.1-2.6,10.7-3.7c1.8-0.6,2.5,0.2,2.5,2.2
		c0,9.1,0,18.1,0,27.2c0.1,32.3,0.3,64.6,0.4,96.8c0,2.2-0.4,2.7-2.7,2.7c-2.3,0-4.7,0-7,0c-5.6,0-5.7,0.2-5.7,5.8
		c0.1,7.3,0,14.5,0.1,21.8c0,1.6-0.6,2.3-2.2,2.3c-0.7,0-1.4,0-2.1,0c-1.8,0-2.8,1.1-3.1,2.8c-0.6,3.3,1.3,5.1,5.3,5.1
		c23.2,0.1,46.4,0.3,69.6,0.3c11.7,0,23.5-0.3,35.2-0.3c36.7,0,73.4,0,110.1,0v0h86.9c8.5,0,17,0,25.5,0
		C417.4,371.7,418.7,370.2,418.4,367.2z M102.2,363.8c-1.6,0-3.2,0-4.8,0c-1.3,0-1.8-0.7-1.8-2c0-5.7,0-11.3-0.1-16.9
		c-0.1-3.4,0.3-3.9,3.7-3.9c5.1,0,5.1,0,5.1,5.2c0,2.2,0,4.4,0,6.6h0c0,2.9,0,5.8,0,8.7C104.4,363,103.8,363.8,102.2,363.8z
		 M184,343.7h-0.2c0,6.1,0,12.1,0,18.2c0,1.4-0.6,2.2-2,2.2c-4.1,0-8.1,0-12.2,0c-1.4,0-2-0.8-2-2.1c0-13.9-0.1-27.9-0.2-41.8
		c0-3,0.3-3.3,3.3-3.3c3.7,0,7.3,0.1,10.9,0c1.8,0,2.4,0.7,2.4,2.5C184,327.5,184,335.6,184,343.7z M234,364.2c-6.4,0-12.9,0-19.3,0
		h-1.2v0c-6.7,0-13.4,0-20.1,0c-2.9,0-3.2-0.5-3-3.3c0.2-2.3,0.2-4.6,0.1-6.8c-0.1-11.5-0.2-22.9-0.3-34.4c0-2.2,0.6-2.7,2.8-2.5
		c2.2,0.1,4.4,0.2,6.6,0.2c1.7,0,2.3,0.7,2.3,2.4c-0.2,5-0.2,9.9-0.3,14.9c-0.1,3.7,1.2,5.1,4.9,5.1c3.6,0,7.2,0,10.8,0
		c4.6,0,5.8-1.2,5.8-5.7c0-4.9-0.1-9.8-0.1-14.7c0-1.2,0.2-2.3,1.7-2.2c3.2,0.1,6.3,0.2,9.5,0.3c1.5,0,2.1,0.7,2.1,2.2
		c0,7.4,0,14.8,0,22.2c0,6.8,0.2,13.5,0.3,20.3C236.5,363.7,235.5,364.2,234,364.2z M216.1,329.2c0.2,2.4-0.3,3.1-2.7,3.3
		c-0.8,0.1-1.7,0.1-2.5,0c-2-0.4-2.6-1.3-2.4-3.3c0.2-1.6,0.3-3.3,0.5-5.1c-0.2-1.4-0.3-2.9-0.5-4.4c-0.2-1.5,0.2-2.3,1.8-2.3
		c0.6,0,1.2,0,1.9,0c3.5,0.1,3.6,0.4,3.5,3.8C215.6,323.8,215.9,326.5,216.1,329.2z M308.2,320c-0.2,5-0.2,9.9-0.3,14.9
		c-0.1,4.6-0.2,9.1-0.3,13.7c0,4.2,0,8.4,0,12.7c0,2-0.8,2.8-2.7,2.8c-12.2,0-24.5,0.1-36.7,0.1c-1,0-2.2,0.1-3.1-0.3
		c-0.6-0.3-1.4-1.2-1.4-1.9c-0.1-3.3-0.1-6.6-0.1-9.9c0.1-9.4,0.2-18.8,0.4-28.2c0-1.3,0-2.6-0.1-3.9c-0.2-2,0.6-3.2,2.6-3.4
		c1.9-0.2,3.9-0.1,5.8,0c1.9,0.1,2,1.6,2,3c0,4.8,0,9.7,0,14.5c0,0.9,0,1.8,0.1,2.7c0.3,1.8,1.2,3,3.1,3c5,0,10.1,0,15.1,0
		c1.9,0,2.8-1.3,2.9-3.1c0-3,0-5.9,0-8.9h-0.1c0-2.8,0-5.5,0-8.3c0-1.4,0.5-2.1,1.9-2.1c2.8,0,5.7,0,8.5,0
		C308,317.4,308.2,318,308.2,320z M287,317c1.3-0.1,1.9,0.5,1.9,1.8c0,3.8,0,7.6,0,11.4c0,2.4-0.4,2.8-2.8,2.8c-0.3,0-0.6,0-0.8,0
		c-3.4,0.1-3.9-0.6-3.9-4c0.1-3.3-0.2-6.7-0.1-10.1c0-0.6,0.8-1.4,1.4-1.6c0.8-0.3,1.8-0.2,2.7-0.2v0
		C285.9,317.2,286.5,317.1,287,317z M331.1,361.1c0.3,2.2-0.1,2.7-2.4,2.7c-1.9,0-3.9,0-5.8,0v0.1c-1.9,0-3.9,0-5.8,0
		c-2,0-2.8-0.8-2.6-2.7c0.1-0.5,0.1-1,0.1-1.4l0.4-37.7c0-0.3,0-0.6,0-0.8c-0.2-4-0.2-4,4-4c3.4,0,6.7,0,10.1,0
		c1.7,0,2.2,0.9,2.2,2.5c-0.2,12.8-0.3,25.7-0.4,38.5C330.8,359.2,330.9,360.1,331.1,361.1z M348.3,360.4c0.9,3.1-0.1,3.6-3.4,3.6
		c-1.6,0-3.2,0.1-4.8,0.1c-1.5,0.1-2.6-0.4-2.6-2.2c0.1-4.1,0.2-8.3,0.2-12.4c0-11.1,0-22.1,0-33.2c0-4.9-1.5-6.4-6.5-6.4
		c-10.4,0-20.9,0-31.3-0.1c-12.3-0.1-24.6-0.3-36.9-0.4c-4.6-0.1-6.6,1.7-6.5,6.3c0.1,14.6,0.2,29.3,0.4,43.9c0,0.6,0.1,1.2,0.2,1.8
		c0.2,1.7-0.6,2.6-2.2,2.6c-3.5,0.1-7,0-10.6,0c-1.4,0-1.8-0.9-1.8-2.2c0.1-16,0.1-31.9,0.2-47.9c0-2.1-1-3.4-3.1-3.8
		c-0.9-0.2-1.8-0.3-2.7-0.3c-8.6-0.1-17.1-0.3-25.7-0.3c-12.4-0.1-24.9-0.1-37.3,0c-3.1,0-6.2,0.2-9.3,0.4c-2.4,0.1-3.3,1.1-3.7,3.4
		c-0.2,1.2-0.3,2.5-0.3,3.7c0,13.8,0,27.6,0,41.5c0,0.7,0,1.4,0.1,2.1c0.3,2.8-0.3,3.4-3.1,3.5c-1.7,0-3.3,0-5,0
		c-1.8,0-2.5-0.7-2.5-2.5c0-15.7,0-31.4,0-47.1h0.1c0-12.2,0-24.5,0-36.7c0-3.4,0-6.8,0-10.1c0-1.8,0.7-2.6,2.6-2.6
		c30.9,0.1,61.8,0.2,92.7,0.3c33.1,0,66.2,0,99.3,0c3.3,0,3.7,0.4,3.6,3.5c0,24.5,0,49.1-0.1,73.6c0,5.2-0.2,10.5-0.3,15.7
		C348.2,359,348.1,359.7,348.3,360.4z M388,204.8c-0.2,1.5-0.3,3-0.3,4.5c-0.2,50.6-0.3,101.2-0.4,151.8c0,2.5-0.7,3-3,3
		c-8.8-0.1-17.5-0.1-26.3,0c-2,0-2.6-0.6-2.6-2.5c0.1-5.6,0.2-11.2,0.2-16.8c0-8.4,0-16.7,0-25.1c0-2.5,0.1-5,0.1-7.5
		c0-16.1,0-32.2,0-48.3c0-5.1-0.5-5.5-5.6-5.5c-33.5,0-66.9,0-100.4,0v-0.1c-33.3,0-66.6,0-100,0c-5.6,0-6,0.4-6,6.1
		c0,24.1,0,48.2,0,72.4c0,8.2,0,16.3,0.1,24.5c0,1.7-0.5,2.6-2.3,2.6c-7.4,0-14.8,0.1-22.2,0.1c-2.2,0-4.4,0-6.6-0.1
		c-1.3,0-1.8-0.8-1.8-2.1c0-10.4,0.1-20.9,0.1-31.3c0-39.6,0-79.2-0.1-118.8c0-2.3-0.2-4.7-0.4-7c-0.1-1.4,0.2-2.5,1.6-3
		c2.7-1.1,5.3-2.3,8-3.3c3.2-1.2,6.5-2.2,9.8-3.3c4.5-1.5,9-3,13.5-4.5c3.3-1.1,6.7-2.1,10-3.3c3.6-1.3,7.2-2.7,10.8-4
		c2.4-0.9,4.8-1.7,7.2-2.5c3.7-1.2,7.5-2.4,11.2-3.6c2.5-0.8,5-1.7,7.4-2.5c3.4-1.2,6.8-2.4,10.1-3.5c3.1-1.1,6.2-2.2,9.4-3.3
		c2.6-0.9,5.2-1.7,7.8-2.6c6.9-2.4,13.8-4.8,20.7-7.1c3.1-1,6.1-2.3,9.2-2.9c2.1-0.4,4.5-0.1,6.6,0.5c4.5,1.2,8.9,2.8,13.3,4.3
		c2.5,0.8,5,1.7,7.4,2.5c3.7,1.3,7.3,2.7,11,4c3.3,1.2,6.7,2.2,10,3.3c3.7,1.3,7.4,2.6,11.1,3.9c3.1,1.1,6.2,2.1,9.4,3.2
		c4.5,1.6,9.1,3.1,13.6,4.7c3.6,1.2,7.2,2.2,10.8,3.5c3.6,1.3,7,2.7,10.6,4c2.4,0.9,4.9,1.7,7.4,2.5c3.1,1,6.3,2,9.4,3
		c4.2,1.4,8.5,2.8,12.7,4.2c1.3,0.4,2.6,0.8,4,1.1C387,200.6,388.2,202.4,388,204.8z M383.2,192.2c-2.6-1-5.3-2-8-2.8
		c-6-2-12-3.9-18-5.9c-3.3-1.1-6.6-2.5-9.9-3.6c-3.5-1.2-7-2.3-10.5-3.6c-3.8-1.3-7.6-2.8-11.4-4.1c-2.6-0.9-5.2-1.9-7.8-2.7
		c-3.5-1.1-7-2.1-10.4-3.3c-3.8-1.3-7.6-2.8-11.4-4.1c-2.5-0.9-5.1-1.7-7.6-2.5c-3.6-1.1-7.2-2.2-10.8-3.4c-3.8-1.3-7.5-2.7-11.3-4
		c-3.1-1.1-6.2-1.9-9.2-3.2c-4.8-2.1-9.3-1.9-14,0.1c-3.5,1.4-7.1,2.5-10.7,3.8c-3.6,1.2-7.3,2.4-10.9,3.7
		c-3.7,1.3-7.4,2.5-11.1,3.8c-2.6,0.9-5.2,1.8-7.8,2.6c-3.7,1.2-7.5,2.4-11.2,3.7c-2.3,0.8-4.7,1.6-7,2.5c-3.6,1.3-7.1,2.6-10.7,3.8
		c-3.8,1.3-7.6,2.4-11.4,3.7c-2.6,0.8-5.1,1.7-7.6,2.5c-3.4,1.2-6.7,2.4-10.1,3.6c-2.8,1-5.5,2.1-8.3,3.1c-3.5,1.2-7,2.1-10.4,3.3
		c-3.5,1.2-7,2.6-10.4,3.9c-2.8,1-5.7,2.1-8.6,3.1c-4,1.3-8,2.5-12,3.8c-1.2,0.4-1.8-0.3-1.9-1.2c-0.1-2.6-0.3-5.3,0.1-7.8
		c0.2-1,1.6-2.3,2.7-2.7c6-2.1,12-3.9,18-6c5.9-2,11.8-4.2,17.7-6.3c3.6-1.3,7.4-2.3,11-3.5c3.3-1.1,6.5-2.3,9.7-3.5
		c2.7-1,5.4-2,8.2-2.9c3.7-1.2,7.5-2.3,11.2-3.5c3.5-1.2,7-2.5,10.5-3.8c3.4-1.2,6.8-2.4,10.1-3.5c3.9-1.4,7.8-2.7,11.7-4.1
		c2.5-0.9,4.9-1.7,7.4-2.6c3.6-1.2,7.2-2.3,10.8-3.6c3.3-1.1,6.6-2.4,9.9-3.6c3.7-1.3,7.5-2.5,11.2-3.7c1.1-0.4,2.2-0.7,3.3-1.2
		c2.5-1.2,4.9-1.2,7.4-0.2c4,1.5,8.1,2.7,12.1,4.1c3.6,1.3,7.1,2.6,10.7,3.9c1.4,0.5,2.8,0.6,4.2,1.1c3.6,1.3,7.1,2.7,10.6,4
		c2.8,1,5.7,2,8.6,3c4.5,1.6,8.9,3.2,13.4,4.7c3.5,1.2,7,2.2,10.4,3.4c3.5,1.2,7,2.6,10.4,3.9c2.6,1,5.3,2,8,2.8
		c3.5,1.1,7,2.2,10.4,3.3c2.5,0.8,5,1.7,7.4,2.6c3.5,1.3,7,2.8,10.6,4c3.1,1.1,6.3,2.1,9.4,3.1c3.7,1.2,7.3,2.4,11,3.6
		c3.7,1.3,7.3,2.8,11.1,3.9c4.7,1.4,5,1.5,4.9,6.5c0,0.3,0,0.6,0,0.8h-0.1c0,1.4,0.1,2.8,0,4.1c-0.1,1.2-0.8,1.5-2,1.1
		c-3.3-1.3-6.8-2.3-10.1-3.5C390.6,195,386.9,193.5,383.2,192.2z M403.7,346.7c0,0.7,0,1.4,0,2.1h0c0,4.3,0,8.5,0,12.8
		c0,1.4-0.6,2.1-1.9,2.2c-1.7,0.1-3.4,0.2-5.2,0.2c-1.3,0-2.4-0.5-2.4-2.2c0.2-5.4,0.3-10.9,0.4-16.3c0-3.9,0.5-4.3,4.2-4.1
		C403.8,341.7,403.8,341.7,403.7,346.7z"/>
	<path d="M322.1,200.4c-0.3,0-0.6,0-0.8,0c-19.4,0-38.7,0-58.1,0c-19.1,0-38.1,0.2-57.2,0.2c-10.2,0-20.3-0.2-30.5-0.2
		c-3.8,0-5.1,1.3-5.1,5.1c0,2.1,0.3,4.1,0.3,6.2c0.1,7.3,0,14.5,0.1,21.8c0.1,5.7,1,6.6,6.6,6.6c24,0,48,0,72,0c0,0,0,0,0,0h7.9
		c21.6,0,43.3,0,64.9,0c5.1,0,5.8-0.6,5.8-5.7c0-9.4,0-18.8,0-28.2C327.9,201.2,327.2,200.5,322.1,200.4z M317.3,233.6
		c-22.7,0-45.3,0-68,0h-69.2c-2.1,0-2.7-0.5-2.7-2.7c0-8.3,0.1-6.9,6.8-6.8c11.7,0.1,23.3,0.3,35,0.3c32.1,0,64.1-0.2,96.2-0.3
		c5.9,0,5.9,0,5.9,5.7C321.2,233.3,321,233.6,317.3,233.6z M321.1,211c-0.1,0.8-0.1,1.7-0.1,2.5c0.3,3-0.1,3.5-3.2,3.5
		c-11.8,0-23.5,0-35.2,0c-32.4,0-64.8,0-97.2,0.1c-1.7,0-3.3,0.3-5,0.3c-2.1,0.1-3-0.9-2.9-3.1c0.1-1.6,0.1-3.2,0-4.7
		c-0.1-1.4,0.6-2.1,1.9-2.1c1.3,0,2.6,0,3.9,0h66.1v0.1h68.6C321.3,207.4,321.5,207.7,321.1,211z"/>
	<path d="M335.4,279.2c-0.1-1.8-1-2.8-2.8-3c-1.7-0.1-3.3-0.3-5-0.3c-26.4,0-52.8,0-79.2,0v0h-20.7c-20,0-40,0-59.9,0
		c-4,0-5.1,0.9-5.3,4.9c-0.2,3.1,0.3,6.3-0.2,9.3c-0.7,4.5,1.2,6.3,5.5,6.5c5.6,0.2,11.2,0.4,16.8,0.4c25.6-0.1,51.1-0.2,76.7-0.3
		c23-0.1,46-0.3,69-0.4c0.8,0,1.7-0.1,2.5-0.2c2-0.3,3.1-1.5,3.1-3.5C335.6,288.1,335.5,283.6,335.4,279.2z M328.9,287.5
		c-0.3,1.5-1.5,1.6-2.7,1.6c-5.5,0-11,0-16.6,0h-59.1v0c-24.8,0-49.6,0-74.4,0c-1.4,0-2.8,0.2-4.1,0.3c-1.7,0-2.6-1-2.6-3
		c0-2.7,0.7-3.7,2.5-3.7c12.6,0.1,25.1,0.2,37.7,0.2c38.6,0,77.1,0,115.7,0C328.3,282.9,329.6,284.5,328.9,287.5z"/>
</g>
</svg>
