<?xml version="1.0" encoding="utf-8"?>
<!-- Generator: Adobe Illustrator 24.0.1, SVG Export Plug-In . SVG Version: 6.00 Build 0)  -->
<svg version="1.1" id="Layer_1" xmlns="http://www.w3.org/2000/svg" xmlns:xlink="http://www.w3.org/1999/xlink" x="0px" y="0px"
	 viewBox="0 0 500 500" style="enable-background:new 0 0 500 500;" xml:space="preserve">
<g>
	<path d="M459.9,212.2C386.1-111.4-78.6,47.6,63.9,355.7C200.9,581.7,499.5,423.9,459.9,212.2z M441.2,260.8
		C418.4,519.3,30.6,502.9,62,215.6C98.1-9.4,443.8,0.2,441.2,260.8z"/>
	<path d="M396.8,213.4C396.8,213.4,396.8,213.4,396.8,213.4c0,0-0.6-2.1-2-3.8c-2-2.6-30.4-18.9-69.7-40.2
		c-14.2-4-28.3-7.9-42.5-11.9c1.2-24,1-42.2,0.4-50.4c-0.5-6.7-1.3-6.9-1.7-14c-0.1-2.2-0.4-5.2-1.8-8.9c-1.5-4-4.7-6.3-9-6.4
		c-12.2-0.3-24.3-0.5-36.5-0.5c-3.3,0-6.8,0.1-9.9,1.2c-6.7,2.3-7.8,8.5-8.1,14.3c-0.7,15.3-0.9,30.6-1.2,46
		c-0.1,3.5,0.4,7.1,0.5,10.6c0,2.1-0.2,3.4-0.9,4.4c-1.3,1.7-3.6,2-4,2.1c-3.5,0.6-36.3,15.6-106.9,49.2c-1.6,10.5,0.6,15,3.1,17.1
		c2.1,1.7,4,1.3,6.3,3.3c4.2,3.7,4.9,8.5,4.8,14.2c-0.6,36.6-0.6,73.2-0.8,109.8c0,4.6,1.5,8.7,4.8,11.6c3.4,3.1,7.2,6.1,11.3,8.2
		c4.5,2.3,6,2.4,15,5.6c10.1,3.6,16.9,6.5,19.1,7.5c4.4,1.9,7.7,3.5,10.6,4.9c14.4,7.1,43.2,22,60.3,27.8c2,0.7,5.8,1.9,10.9,2.4
		c0,0,6.1,0.5,12.6-0.7c8.9-1.7,53.2-19.9,112.9-47.2c1.9-2.7,4.3-6.7,6.3-11.9c4.6-12,2.7-22.2,3-29.7c0.5-14.8,0.3-29.7,0.2-44.5
		c-0.1-15.6-0.6-31.2-0.8-46.8c0-1.8,0.8-4,2-5.4c3.6-4.2,5.9-4.2,9.6-9.5C397.3,217.6,397.3,214.6,396.8,213.4z M236.5,180.5
		c-0.4-27.2-0.7-54.5-1.1-81.7c9-0.2,18-0.5,27-0.7c-0.4,27.4-0.7,54.7-1.1,82.1c8.3-0.1,16.6-0.2,24.8-0.4
		c-12.2,13.7-24.5,27.4-36.7,41c-12.1-13.3-24.2-26.6-36.4-40C220.9,180.8,228.7,180.7,236.5,180.5z M241,292.1c-0.3,0-0.5,0-0.7,0
		c-0.1,29-0.2,58.1-0.3,87.1c0,2.4,0.4,4.7,0.5,7.1c0.1,2-0.7,3.6-2.1,4.4c-1.4,0.8-3.1,0.4-3.7,0.2c-5.9-1.7-50.8-22.8-53.5-24.1
		c-10.4-4.6-20.8-9.1-31.3-13.7c-3.7-5.1-7.5-10.1-11.2-15.2c0.7-52.6,1-89.4,0.5-92.9c-0.1-0.5-0.5-3.1,0.9-5
		c0.4-0.5,0.9-1,1.7-1.4c2.8-1.4,5.7-0.9,7.9,0.9c3.2,2.5,6.6,4.4,10.5,5.7c3,1,5.5,3.3,8.4,4.7c3,1.5,6.2,2.5,9.2,3.9
		c2.3,1.1,4.5,2.4,6.8,3.6c0.7,0.4,1.2,1,1.9,1.3c8.3,3.6,16.6,7.1,24.9,10.8c3,1.3,5.7,3.1,8.5,4.6c1.6,0.9,3.2,2.1,4.9,2.4
		c4.6,0.7,7.9,3.6,11.5,6.2C239.7,285,241.6,287.9,241,292.1z M249.2,265.2c-36.4-17.2-72.7-34.3-109.1-51.5
		c18.8-7.4,37.6-14.9,56.4-22.3c15.9,14.6,31.7,29.3,47.6,43.9c1.8,0.6,4.5,1.1,7.4,0.3c6-1.6,9.1-7.6,9.9-9
		c3.5-6.2,14.5-16.8,44.8-36.3c5.1,1.9,42.1,15.7,46.7,19.9c0.6,0.5,2.1,1.9,2,3.6c-0.1,1.8-2,2.9-2.7,3.4
		C347,220.5,261.7,259.4,249.2,265.2z M364.7,276.1c-0.1,23.5-0.3,46.8-0.7,69.8c-0.7,1.8-1.4,3.5-2.2,5.3
		c-51.8,22.8-88.1,38.9-91.5,40.9c-0.3,0.1-2,0.9-4.4,1.3c-3.9,0.7-6.7-1.7-6.3-5.6c2.6-22.2,1.1-44.4,1.3-66.6
		c0.1-9.6-0.5-19.3-1.1-29c-0.4-6,2.5-9.8,7-12.9c0.9-0.6,1.8-1.2,2.8-1.4c6.3-1.3,11-6.2,16.9-8.1c5.7-1.8,10.1-5.6,15.4-7.9
		c1.2-0.5,2.6-0.8,3.8-1.4c2.2-1.1,4.3-2.3,6.5-3.4c3-1.5,6.1-3,9.2-4.4c1.9-0.9,3.8-1.7,5.7-2.6c3.6-1.7,7.3-3.3,10.8-5.1
		c3.8-1.9,7.6-4.1,11.4-5.9c2.4-1.2,4.9-2.2,7.4-3c4.6-1.5,6.6-0.2,7.7,4.5c0.2,1,0.2,2.1,0.2,2.6C364.8,254,364.8,265,364.7,276.1z
		"/>
	<path d="M347.8,341.6c-3,3-6.7,5.3-10.2,7.7c-1.9,1.3-3.9,2.4-5.9,3.6c-4.1,2.3-15.4,5.1-20.2,5.1c-4.3,0.2-8.1-1.2-11.1-4.3
		c-1.8-1.9-2.1-4-0.8-6.3c3.3-5.8,8.6-9.2,8.6-9.2c7.7-4.7,17.3-10.5,29.9-12.1c2.9-0.4,6.3-0.6,9.1,1.5
		C351.7,331,352.2,337.1,347.8,341.6z"/>
</g>
</svg>
