<?xml version="1.0" encoding="utf-8"?>
<!-- Generator: Adobe Illustrator 24.0.1, SVG Export Plug-In . SVG Version: 6.00 Build 0)  -->
<svg version="1.1" id="Layer_1" xmlns="http://www.w3.org/2000/svg" xmlns:xlink="http://www.w3.org/1999/xlink" x="0px" y="0px"
	 viewBox="0 0 500 500" style="enable-background:new 0 0 500 500;" xml:space="preserve">
<g>
	<path d="M467.2,416.3c-1.1-5.9-2.3-11.8-3.6-17.6c-1.9-8.9-3.3-17.9-5.8-26.7c-3-10.3-3.7-20.7-3.5-31.2c0.1-4,0.3-8,0.6-11.9
		c0.6-7.5,0.8-15.1,2.1-22.4c2.1-11.9,2.3-23.8,2-35.7c-0.1-3.3-0.6-6.7-1.2-10c-1.8-10.3-3.9-20.5-5.6-30.7
		c-1.1-6.3-1.6-12.6-2.5-18.9c-0.5-3.2-1.3-6.4-1.8-9.6c-0.6-3.4-1.1-6.8-1.8-10.1c-0.5-2.1-1.3-4.2-2.3-6.2
		c-1.8-3.8-3.3-7.9-5.8-11.1c-2.9-3.6-6.8-6.3-10.1-9.6c-1-1-1.8-2.5-2.1-3.9c-0.7-3,0.4-5.7,2.2-8.2c1.3-1.9,3-3.6,3.9-5.7
		c2.3-5.3,4.3-10.7,4.9-16.7c1.2-10.5,1.7-20.7-3.7-30.4c-3.8-6.8-9.3-11.8-16.3-14.5c-10.8-4.2-21.9-2.6-32.5,0.8
		c-4.4,1.4-8.8,2.4-13.4,2.7c-3.8,0.2-7.1-0.3-9.9-3.2c-1.6-1.7-4-2.2-6.2-1.1c-2.1,1.1-3.2,3-3.3,5.4c0,1.2,0.2,2.5,0.3,3.7
		c0.2,1.8,0.6,3.5,0.6,5.3c0.4,6.8,2.1,12.8,8.3,16.5c1.4,0.9,2.9,1.6,4.5,2.2c2.1,0.9,3.3,2.3,3.1,4.7c0,1.2-0.1,2.3-0.1,3.5
		c0,5.7-0.1,11.5,0.3,17.2c0.2,2.7,0.8,5.5,2,7.9c2.4,4.8,5.9,8.8,10.4,11.8c2.4,1.7,5.2,2.9,7.9,4.3c1.1,0.6,3,1,3.1,1.8
		c0.3,1.1-0.5,2.6-1.2,3.7c-1.7,2.8-4.3,5.2-5.3,8.2c-1.8,5.2-3.2,10.7-3.6,16.2c-0.6,7.2-0.1,14.5-0.1,21.8c0,4.5-1.5,6.4-5.9,7.5
		c-1.6,0.4-3.3,0.7-4.8,1.3c-2.3,0.8-3.2,0.5-3.4-1.9c-0.2-2.2,0.2-4.4,0.2-6.6c-0.1-8.3-0.3-16.6-0.3-25c0-8.1,0.4-16.1,0.4-24.2
		c0-5-2.8-7.3-7.6-6.9c-5,0.4-10,0.8-15,0.9c-24.3,0.3-48.7,0.4-73,0.5c-12.3,0-24.6-0.3-36.9-0.4c-1.7,0-3.4,0-5-0.3
		c-5.3-0.7-8.5,1.9-8.4,7.2c0.2,7.5,0.5,15,1,22.5c0.3,4.3-0.4,5.2-4.8,5.2c-15.8,0-31.5,0-47.2,0c-8.5,0-17,0-25.5,0
		c-4.6,0-6,1.3-6,6c0,7.8,0,15.6,0,23.3c0,1-0.1,1.9-0.3,2.9c-0.3,2-1.4,2.4-3.2,1.7c-2.6-1-5.2-1.5-7.8-2.5c-2.8-1-5.6-2.1-8.3-3.5
		c-0.9-0.5-1.7-2.1-1.7-3.2c-0.1-6.2-0.1-12.4,0.1-18.6c0.5-11-2.8-21.1-8-30.6c-1.8-3.3-1.3-4.4,2-6.3c2.5-1.3,5-2.7,7.1-4.5
		c2.5-2.2,5.2-4.6,6.7-7.4c4.4-8.3,5-17.4,4.2-26.6c-0.3-3.7,0.6-5.5,3.8-7.4c2.5-1.5,5-3.1,6.9-5.2c1.9-2.1,4-4.7,4.4-7.4
		c0.8-5.5,0.8-11.1,0.5-16.6c-0.3-4.8-4-6.5-8.4-4.6c-1.9,0.9-3.8,1.9-5.7,2.8c-3.4,1.6-6.8,1.4-10.3,0c-2.3-1-4.8-1.6-7.3-2.3
		c-1.5-0.4-3.2-0.4-4.6-1.1c-5.2-2.5-10.6-2.4-16.1-2.3c-5.4,0-9.8,2.9-14.3,5.1c-4.2,2-7.8,5.2-10.1,9.5c-2.1,3.8-4.6,7.7-5.4,11.9
		c-2.2,11.5-2.4,23,3.3,33.8c1.8,3.3,3.4,6.8,5.7,9.7c3.5,4.5,3.3,10.9-2.3,13.6c-4.6,2.2-7.5,6.4-10.1,10.6
		c-4.1,6.3-5.7,13.7-7.3,20.9c-2.2,9.9-3.4,20-5.1,30c-1,6-2.2,12-3.3,18c-0.8,4.6-1.3,9.3-2.4,13.8c-3.2,13.5-1.8,26.9-0.6,40.4
		c0.5,5.5,1.8,11,2.3,16.5c0.7,7.4,1.2,14.8,1.5,22.2c0.5,9.5-0.4,18.9-2.4,28.2c-1.8,8.1-4,16.1-5.8,24.2
		c-1.1,4.7-1.8,9.6-2.4,14.4c-0.8,5.5-1.7,11-2,16.5c-0.2,3.8,3.8,9.2,7.5,10c6,1.4,12,2.2,18.2,0.8c3-0.7,5.3-2.7,6.4-5.5
		c1.7-4.7,3-9.6,4.5-14.4c0.5-1.7,1-3.4,1.6-5.1c1.9-5.8,4.2-11.4,5.6-17.3c1.7-7.4,5-14.4,5.3-22.1c0-0.2,0.1-0.3,0.1-0.5
		c1-5.7,2-11.3,2.8-17c0.5-3.1,0.5-6.3,0.8-9.4c0.3-0.1,0.6-0.1,0.9-0.2c0.5,0.8,1.2,1.5,1.5,2.3c1.2,4.1,2,8.2,3.3,12.2
		c2.7,8,2.4,16.2,3.1,24.4c1.1,13.1,2.1,26.3,3.5,39.4c0.9,8.5,5.2,12.4,13.5,13.9c1.3,0.2,2.6,0.7,3.9,0.7
		c11.1-0.1,16.5-3.4,16.7-14.3c0-3.4-0.4-6.9-0.5-10.3c-0.2-15.8-0.6-31.7-0.5-47.5c0-10.7-3.7-20.6-5.6-31
		c-0.1-0.4-0.4-0.8-0.5-1.2c-2-6.5-4.1-12.9-6.1-19.4c-0.6-2-1.3-4-1.8-6.1c-0.7-2.4-1.3-4.8-1.9-7.2c-0.7-2.8-1.4-5.7-1.8-8.5
		c-0.4-3.1-1.1-6.4-0.7-9.4c0.7-5.6,2.5-11,1.9-16.8c-0.2-1.9,1-3.1,3-2.7c3.6,0.6,7.1,1.4,10.6,2.2c2.7,0.6,5.3,1.5,8,1.8
		c3.4,0.5,3.8,0.8,3.8,4.3c0,15,0,29.9,0,44.9c0,4.6,1.8,6.2,6.3,6.2c21.3,0.1,42.7,0.3,64,0.4c7.9,0,15.8-0.3,23.6-0.4
		c11.3-0.1,22.7,0,34-0.1c2.5,0,5-0.3,7.4-0.5c3.1-0.4,4.6-1.9,4.9-5c0.2-2.4,0.2-4.8,0.1-7.2c-0.1-5,1.5-6.4,6.6-6
		c2.4,0.2,4.8,0.1,7.1,0.1c11.9-0.1,23.9-0.3,35.8-0.3c10.6,0,21.2,0.3,31.9,0.3c4.6,0,6.1-1.8,6.2-6.4c0-6,0.1-12,0.1-18.1
		c0-4.5-0.3-9-0.3-13.5c0-1,0.9-2.5,1.7-2.8c3.7-1.2,7.5-2.2,11.3-3.1c2.6-0.6,3.4,0.4,3.7,3c0.5,4.6,1.3,9.3,1.8,13.9
		c0.4,3,1,6,0.7,8.9c-0.5,4.5-1.5,8.9-2.6,13.2c-0.7,3-2,5.9-2.9,8.8c-1.8,6.5-3.6,13.1-5.3,19.7c-0.1,0.4-0.3,0.8-0.4,1.3
		c-1.9,6.8-4.3,13.5-5.4,20.5c-1.2,8.1-1.6,16.4-1.7,24.6c-0.2,13.7,0.2,27.4,0.4,41.2c0,1.7-0.2,3.4-0.2,5c0.1,2.8,0.1,5.7,0.6,8.4
		c0.8,4.2,4,6.5,8,7.1c4.2,0.6,8.4,0.7,12.7,0.6c5.8-0.2,11.4-5.3,11.9-11.2c1.4-16.3,2.5-32.6,3.8-48.9c0.4-4.9,0.8-9.9,1.6-14.8
		c0.6-3.7,1.6-7.2,2.6-10.8c0.4-1.6,1-3.2,1.8-4.7c0.3-0.5,1.1-0.7,1.6-1.1c0.3,0.5,0.8,1,0.9,1.5c1.8,10.1,3.3,20.2,5.3,30.3
		c1.2,6.1,2.9,12.2,4.6,18.2c1.7,5.8,3.8,11.6,5.6,17.4c1.7,5.3,3.1,10.7,4.8,15.9c1.2,3.7,3.6,7,7.5,7.5c5.2,0.6,10.6,0.4,15.8-0.2
		c5.2-0.6,9.5-5.8,9.9-11C467.6,420.7,467.6,418.4,467.2,416.3z M204.9,208.5c2.7,0,5.3,0,8,0c2.5,0,5,0.1,7.4,0
		c2.5-0.1,3.4,1.1,3.4,3.5c0,3.8,0.1,7.6,0.3,11.4c0.1,3.6-0.8,4.2-4.3,3.5c-4.8-1-9.8-1.9-14.5,0.7c-1.5,0.9-2.7,0.4-2.8-1.4
		c-0.2-2.8,0-5.6-0.1-8.5c0-2-0.1-4.1-0.3-6.1C201.9,209.4,202.9,208.5,204.9,208.5z M116.8,151.2c-1,1.9-2.6,3.9-4.4,4.8
		c-4.3,2-8.7,4.5-13.6,3.1c-4.5-1.3-9.3-1.9-13-5.4c-1.7-1.6-2.7-3-1.9-5.2c0.8-2.3,1.8-4.6,2.7-6.8c0.2-0.4,0.5-0.7,0.7-1.2
		c1.6-4.4,3.3-8.9,4.9-13.3c1.1-3.1,4.6-5.3,7.8-4.9c5.6,0.6,11.2,1.3,16.9,1.7c2.5,0.2,3.4,1.3,3.3,3.7c-0.1,2.2,0,4.4,0,6.6
		C120.8,140.3,119.6,145.9,116.8,151.2z M87.4,164.9c0,0-1,1-1.2,0.9c-0.8-0.5-1.5-1.2-2.1-1.9c0-0.1,0.7-0.8,1.3-1.6
		C86.3,163.4,86.9,164.1,87.4,164.9z M74.7,137.8c-1.2-5.1-2.1-10.3-3.1-15.5c0.3,0,0.5-0.1,0.8-0.1c-0.6-6.8,0.7-13.1,5-18.5
		c1.6-2,3.4-4,5.6-5.1c6.3-3.1,12.8-4.7,20-2.4c6.3,2,12.7,3.8,19.1,5.1c3.3,0.6,7,0,10.5-0.4c2.3-0.3,3.4,0.7,2.8,3
		c-1.1,4-6.3,8.6-10.5,9c-2.8,0.2-5.6,0-8.4-0.1c-7.2-0.3-14.3-0.7-21.5-0.9c-3.3-0.1-7.6,3.7-8.8,7.1c-0.6,1.5-1.5,3-2.3,4.4
		c-0.3,0.5-0.7,0.9-0.8,1.3c-1.6,4.3-3.1,8.6-4.7,12.8c-0.3,0.8-1,1.5-1.5,2.3C76,139.1,74.8,138.6,74.7,137.8z M115.5,336.4
		c0.3,0.9,0.6,1.9,0.8,2.8c3.3,13.4,5.4,26.8,4.3,40.7c-0.2,2.2,0,4.4,0,6.6h0.5c0,11.4,0,22.8,0,34.2c0,3.7-0.4,4.3-4.1,4.8
		c-1.2,0.2-2.5,0.3-3.7,0.1c-3.7-0.4-5.7-2.2-6-5.9c-1-10.6-1.8-21.3-2.7-32c-0.7-8.8-0.9-17.7-2.2-26.4c-1-6.3-3.5-12.3-5.4-18.5
		c-0.1-0.3-0.3-0.7-0.4-1c-2.7-7.6-5.4-15.3-8.1-22.9c-1.5-4.2-2.9-8.5-4.2-12.8c-0.7-2.2-1.5-4-4.3-3.8c-2.7,0.2-4.7,1.6-4.8,4.3
		c-0.2,4.1-0.2,8.1,0,12.2c0.5,13.9,0.4,27.8-1.9,41.5c-0.8,5-1.8,10.1-3.1,15c-1.7,6.2-3.8,12.3-5.8,18.4c-0.1,0.3-0.2,0.5-0.3,0.7
		c-1.7,6.2-3.3,12.4-5.1,18.6c-0.9,3.2-1.8,6.5-3.1,9.6c-0.4,1-2.1,2-3.3,2.2c-2.3,0.3-4.6-0.1-6.9-0.3c-2.4-0.2-3.6-1.5-3.3-3.9
		c0.3-2.7,0.8-5.4,1.3-8.1c0.8-4.1,1.5-8.2,2.4-12.2c0.7-3.1,1.5-6.1,2.2-9.3c0.8-3.6,1.4-7.3,2.1-10.9c0.1-0.5,0.1-1.1,0.3-1.6
		c3.8-9.9,3.9-20.4,5.3-30.8c0.6-4.5-0.4-9.1-0.8-13.7c-0.8-10-1.7-20.1-2.7-30.1c-0.5-5.3-1.4-10.5-2.2-15.8
		c-0.5-3.3,0.3-4.2,3.6-3.8c13.6,1.5,27.3,3,40.9,4.4c2,0.2,4.5-0.5,5.8,0.5c1.3,1,1.2,3.6,1.8,5.5c2.4,8.2,4.7,16.4,7.2,24.6
		C111.5,325.3,113.6,330.8,115.5,336.4z M143.4,256c-3.8-0.8-7.6-2.1-11.5-3c-7.3-1.7-14.8-2.7-21.9-5c-5.8-1.9-11.7-4.4-14.9-10.5
		c-3.1-5.7-6.9-11.1-10-16.8c-2.9-5.2-5.2-10.8-7.9-16.1c-1.5-3.1-4.3-4-7-2.5c-2.3,1.2-3.1,5-1.7,7.5c4.3,7.7,8.6,15.4,12.9,23
		c2.9,5,5.7,10.1,8.9,14.9c3,4.5,7.2,7.7,12.1,10c2.1,1,2.5,2.3,2,4.5c-1,4.5-2,8.9-2.9,13.4c-0.6,3-1.3,3.5-4.3,3.2
		c-13.2-1.2-26.4-2.3-39.6-3.5c-0.8-0.1-1.6-0.1-2.4-0.3c-4.2-0.9-4.8-2.8-3.7-7c1.3-4.6,1.7-9.5,2.5-14.3c0.4-2.3,1-4.7,1.3-7
		c1-6.5,1.8-12.9,3-19.4c1.8-10.1,4-20.3,5.9-30.4c0.3-1.3,0.4-2.6,0.5-3.9c1-7.3,4.5-12.9,10.5-17c2.8-1.9,5.7-1,8.7-0.2
		c3,0.8,6,1.6,9,1.7c4,0.2,6.6,1.5,8.9,5c4,6,4.2,12.8,5.2,19.4c0.1,0.7-0.2,1.5-0.4,2.2c-0.3,0.1-0.6,0.2-0.9,0.3
		c-0.9-1.4-2-2.7-2.7-4.2c-1.6-3.3-2.9-6.8-4.5-10.2c-1-2.1-4-3.3-6.4-2.8c-2.7,0.6-3.1,2.9-2.9,5c0.3,1.9,1.2,3.8,2.1,5.5
		c1.5,3,3.6,5.7,5,8.7c3,6.9,5.7,14,8.5,21c1.4,3.6,4.1,6,7.4,7.6c2.7,1.3,5.5,2.3,8.4,3.1c6.3,1.8,12.6,3.4,18.9,5
		c5.6,1.4,11.3,2.7,17,4.2c1.7,0.5,3.6,1.4,4.8,2.7c1,1.1,1.7,3.1,1.5,4.6c-0.3,2.1-1.8,3.7-4.3,3.6c-1.1,0-2.1,0-3.2-0.2
		C151.6,257.5,147.5,256.9,143.4,256z M271.6,212.5c-0.8,2.5-1.1,5.2-1.1,7.8c0.3,16.9,0.8,33.8,0.9,50.7c0.1,12-0.3,24.1-0.5,36.1
		c0,1-0.3,2.1-0.4,3.2c-0.2,2.2-1.4,3-3.6,3c-31.6-0.4-63.2-0.8-94.8-1.2c-5.9-0.1-11.8-0.3-17.8-0.4c-3.6-0.1-4.5-1.4-4.4-5
		c0.2-5.6,0.1-11.1,0.1-16.7c-0.1,0-0.1,0-0.2,0c0-5.9,0-11.8,0-17.8c0-2,0.8-3.2,3.1-2.9c1.9,0.2,3.7,0.3,5.6,0.4
		c7.2,0.6,11.9-2.8,14.5-9.4c0.9-2.2,2-4.4,2.2-6.7c0.5-6.6-2.1-10-7.9-13.2c-3.9-2.1-7.9-3-12-3.7c-5.6-1-6.6-2.3-6.6-7.9
		c0-5.7-0.2-11.3-0.4-17c-0.1-3.1,1.3-4.4,4.3-4c1.3,0.2,2.6,0.2,4,0.2c10.7,0,21.4,0,32.1,0.1c3.6,0,4.1,0.7,4.1,4.2
		c0,7.8,0,15.6,0,23.4c0,0.2,0,0.4,0,0.5c0.8,2,1,4.6,2.4,5.8c1.9,1.6,4.2,0,6.3-1.2c5.5-3.3,11-5.7,17.7-2.5
		c2.9,1.4,6.5,1.6,9.8,2.1c3,0.4,4.7-0.9,4.6-4c0-8.2-0.2-16.5-0.5-24.7c-0.1-2.2,0.6-3.3,2.9-3.3c10.9,0,21.8,0,32.6,0.1
		C272.3,208.5,272.5,209.3,271.6,212.5z M270.9,198.5c-5.8-0.1-11.5,0-17.2,0v-0.1c-5.7,0-11.3,0-17,0c-3.2,0-3.9-0.8-4-3.9
		c-0.2-5.9-0.3-11.8-0.4-17.8c-0.1-2.9,1.8-4.5,4.7-4.1c0.7,0.1,1.4,0.2,2.1,0.2c10.3,0.2,20.5,0.4,30.8,0.5
		c3.7,0.1,4.4,0.7,4.3,4.3c0,5.8,0,11.7,0,17.5C274.3,197.6,273.3,198.5,270.9,198.5z M373.1,108.9c-1.2-0.4-2.3-0.8-3.3-1.5
		c-2.2-1.5-4.4-3-6.3-4.9c-0.6-0.6-0.5-2.5,0-3.4c0.4-0.7,2-1,3-1c7.5,0.7,14.7-0.3,21.8-2.9c7.9-2.9,16.3-3.6,24.3-0.8
		c7.9,2.8,14.3,9.1,14.6,21c0,1.3,0,2.7,0,4c0.2,0,0.3,0,0.5,0.1c-0.7,4.8-1.3,9.6-2,14.4c-0.1,0.8-0.4,1.6-0.9,2.2
		c-0.6,0.5-1.5,1-2.2,1c-0.5,0-1.3-1-1.4-1.6c-1.5-6.4-4.2-12.3-7.1-18.1c-2.7-5.4-7.1-7.7-12.7-8.2c-2.3-0.2-4.6-0.1-6.9,0
		c-5.5,0.3-10.9,0.8-16.4,1C376.3,110.2,374.7,109.4,373.1,108.9z M382.6,150.9c-5-4.9-4.5-11-4.7-17.1c0-3.4,0.1-6.7,0-10.1
		c0-2.2,1.1-3.4,3.7-3.4c6.1,0,12.2,0,18.3-0.2c3.3-0.1,5.3,1.4,6.5,4.1c1.9,4.3,3.6,8.8,5.3,13.2c1.1,2.6,2.3,5.1,3.3,7.8
		c1,2.9,0.1,5.6-2.6,6.7c-4.8,2-9.6,3.8-14.6,5.1C391.5,158.6,386.9,155.2,382.6,150.9z M415.1,162.7c-0.3,0.6-0.4,1.4-0.9,1.7
		c-1.9,0.9-3.8,0.8-5.6-0.1c0-0.3-0.1-0.5-0.1-0.8c1.7-0.5,3.4-1.1,5.1-1.6C414,161.8,414.6,162.4,415.1,162.7z M285.1,177.5
		c0-2.3,0.8-3.4,3.5-3.5c2.8-0.1,5.7,0,8.5,0v-0.1c2.6,0,5.3,0,8,0c2.2,0,3,1,3,3.3c-0.1,7.5-0.1,15-0.1,22.5c0,0.8-0.3,2.2-0.7,2.3
		c-0.8,0.2-1.8-0.2-2.5-0.7c-1.8-1.1-3.4-2.5-5.3-3.4c-3.9-1.8-7.1-0.9-9.9,2.4c-0.4,0.5-0.8,1.3-1.4,1.5c-0.7,0.3-1.7,0.6-2.4,0.3
		c-0.4-0.2-0.6-1.3-0.6-2C285,192.6,285.1,185,285.1,177.5z M353.2,291.8c-12.4-0.2-24.8-0.3-37.2-0.4c-9.9-0.1-19.8,0-29.7,0
		c-4.6,0-5.1-0.8-4.9-5.5c0.3-7.6,0.1-15.2,0.1-22.8c0-7.3,0-14.7,0.2-22c0.2-6.9,0.7-13.8,0.9-20.7c0.1-2.3,1-3.7,3.3-4
		c2.3-0.3,3.7-1.6,4.6-3.6c0.3-0.7,0.6-1.5,1.1-2.1c3.2-4,5.3-4.2,8.6-1.4c3.3,2.9,6.5,6,10,8.7c1.4,1,3.8,1.7,5.3,1.2
		c1.2-0.5,2.4-2.8,2.5-4.4c0.3-5.1,0.2-10.3,0.1-15.4c-0.2-7.6-0.5-15.2-0.7-22.8c0-1.9,0.8-3.3,3-3.3c11.4,0,22.8,0,34.2,0
		c2.3,0,3,1.4,3,3.4c0,4.3,0,8.7,0,13H357c0,10.3,0,20.7,0,31.1c0,1.8,0.1,3.7,0.4,5.5c0.3,2.2-0.5,3.6-2.6,4.2
		c-3.1,0.8-6.3,2.1-9.5,2.4c-5.3,0.4-10,2.7-14.4,5.1c-6.7,3.7-10.2,13.1-5.4,20.4c5.6,8.6,10.6,10.7,20.6,8.6
		c2.6-0.5,5.2-1.1,7.8-1.6c2.5-0.5,3.5,0.4,3.5,2.9c0,6.4,0.1,12.7,0.1,19.1C357.6,291.1,356.8,291.9,353.2,291.8z M374,248.9
		c-4.3,1.1-8.7,2.2-13.1,3.4c-3.1,0.8-6.2,1.9-9.4,2.5c-3.7,0.8-7.5,1.4-11.2,2c-2.3,0.3-4.3-0.5-4.9-3c-0.6-2.5,1-6,3.1-6.8
		c4.6-1.6,9.1-3.6,14.1-4.5c6.7-1.2,13.2-3.7,19.8-5.6c1.3-0.4,2.7-0.9,4.1-1.2c7.2-1.3,12.7-5,16.6-11.1c1.6-2.6,2.7-5.5,4-8.3
		c1.7-3.7,3.1-7.5,4.9-11.1c1.6-3.2,3.8-6.1,5.5-9.3c0.9-1.6,1.8-3.3,2-5c0.4-3-1-5.1-3.2-5.7c-2.7-0.7-5.3,0.5-6.7,3.1
		c-2.2,4-4.3,8.1-6.5,12.1c-0.3,0.6-0.9,1-1.3,1.5c-0.3-0.1-0.6-0.1-0.9-0.2c0.4-3,0.6-6,1.4-9c1.1-4.2,1.8-8.6,4.7-12.3
		c2.8-3.6,5.8-6.2,10.7-6.2c4.2,0,8.5-0.4,12.7-0.4c5.2,0,8.7,2.8,10.8,7.5c4.2,9.6,6,19.8,7.4,30.2c0.7,5.3,2.3,10.5,3.1,15.8
		c1.7,11,3,22.1,4.6,33.1c0.3,2.2,1,4.3,1.7,6.4c1.2,3.5,0.4,4.6-3.2,5.3c-14.3,2.5-28.7,3.8-43.3,4c-2.2,0-3.9-0.6-4.4-2.9
		c-1.1-4.7-2.2-9.5-3.2-14.2c-0.7-3.3,0.1-3.6,3.1-5c6.5-3,12.1-7.1,15.8-13.5c2.3-4,4.9-7.9,7.2-12c1.8-3.3,3.3-6.8,5-10.1
		c1.8-3.5,3.5-7.1,5.4-10.6c1.5-2.8,1.4-6-0.5-7.5c-2.1-1.6-5.8-1.2-7.9,1c-0.7,0.8-1.5,1.6-1.9,2.5c-1.7,4-3.2,8-5,11.9
		c-1.3,3-2.8,5.9-4.4,8.7c-2.5,4.5-5.2,9-7.9,13.4c-0.7,1.1-1.9,2.1-3,2.8c-1.9,1.1-3.9,2.3-5.9,2.9
		C387.1,245.6,380.6,247.2,374,248.9z M446.9,424.4c-1.2-0.1-2.7-1.6-3.1-2.8c-1.6-4.4-2.8-8.9-4.2-13.4c-1.9-6-3.8-11.9-5.7-17.9
		c-0.2-0.5-0.5-1-0.6-1.5c-1.8-8-3.7-16-5.5-24c-1-4.6-2.3-9.1-2.7-13.8c-0.9-9.2-1.2-18.3-1.8-27.1c0.4-6.3,0.9-12.1,1.2-17.9
		c0.1-2.4-0.4-4.6-2.9-5.7c-2.8-1.2-5.2-0.4-6.3,2.5c-1.6,4.3-3.7,8.5-4.8,13.1c-1.3,5.6-3.9,10.9-5.8,16.4
		c-1.7,4.8-3.3,9.7-4.7,14.6c-1.5,5.4-3.2,10.9-3.9,16.4c-1,7.6-1.3,15.3-1.8,23c-0.8,10.7-1.4,21.3-2.2,32
		c-0.3,3.9-2.4,5.9-6.3,6.2c-0.3,0-0.7,0-1.1,0c-5.7,0.1-6.9-1.3-6.1-6.9c0.2-1.7,0.3-3.3,0.3-5c0-16.5,0-33.1,0-49.6
		c0-5.7,0.5-11.3,2.4-16.7c0.8-2.3,0.8-4.9,1.4-7.3c0.6-2.6,1.4-5.1,2.2-7.6c0.2-0.5,0.4-1,0.6-1.5c1.7-6,3.3-12,5.1-18
		c2-7,4.1-14.1,6.2-21c1.2-3.8,1.9-3.8,5.7-3.9c6.2-0.2,12.3-0.7,18.5-1.2c5.5-0.4,10.9-0.9,16.4-1.5c1.8-0.2,3.7-0.5,5.4-1.1
		c4.3-1.4,6,0.1,5.5,4.6c-0.7,5.4-1.4,10.7-1.9,16.1c-0.8,9.1-1.3,18.2-2,27.2c-0.3,3.9-1.2,7.8-0.9,11.6c0.4,6.8,1,13.6,2.3,20.2
		c1.8,9.4,4.2,18.7,6.3,28.1c0.7,3,1,6.1,1.6,9.1c1,5.1,2.3,10.2,3.2,15.3C458.1,423.6,456.1,425.4,446.9,424.4z"/>
	<path d="M315.2,112.7c-14.2,12.3-28.4,24.7-42.7,37c-2.3,2-5,3.7-7.8,5c-4.8,2.2-8.1-0.1-8-5.3c0.1-4.3,0.4-8.7,0.5-13
		c0.1-3.2-1-4.3-4.2-4.4c-1.9,0-3.9,0.4-5.8,0.4c-23.7,0-47.5,0-71.2,0c-4.5,0-6.2-1.6-5.9-5.5c0.2-3.1,1.7-4.5,5-4.5
		c13.9,0,27.8,0,41.7,0c8.9,0,17.7,0,26.6,0c5.6,0,11.1,0,16.7,0.1c5.8,0.1,7.7,2.5,7,8.3c-0.3,2.4-0.6,4.8-0.5,7.1
		c0,0.9,0.7,2.3,1.4,2.6c0.7,0.3,2-0.3,2.7-1c10.3-9.3,20.6-18.6,30.9-27.9c2-1.8,2-3.3-0.5-5.4c-3.3-2.8-6.7-5.5-10-8.3
		c-5.9-5.2-11.8-10.4-17.8-15.5c-1.4-1.2-3.2-1.9-4.8-2.8c-0.5,1.6-1.1,3.2-1.4,4.9c-0.2,1.2-0.2,2.5,0,3.7c0.6,5.6-1.6,8.2-7.3,8.2
		c-13.1,0-26.2,0-39.3,0v0c-12,0-23.9,0-35.9,0c-3.3,0-6.5-0.3-9.8-0.5c-2.6-0.2-4.5-2-4.6-4.3c-0.2-2.5,1.3-4.2,4-4.7
		c1.7-0.3,3.5-0.5,5.3-0.5c24.2,0,48.3-0.1,72.5-0.1c5.9,0,6.6-0.9,6-6.9c-0.3-3-0.3-6-0.2-9c0.1-2.3,0.5-4.8,3-5.8
		c2.7-1.2,5.3-0.5,7.5,1.3c7.7,6.6,15.3,13.5,23,20.1c7.1,6.1,14.3,12.1,21.5,18.1c1.1,1,2.3,2,3.2,3.2
		C317.3,109.1,317,111.2,315.2,112.7z"/>
	<path d="M337.9,392.8c0.3,2.8-1.8,5-5.1,5.2c-3.9,0.3-7.8,0.5-11.7,0.5c-5,0.1-10.1,0-15.1,0v-0.5h-49.4c-0.9,0-1.8,0-2.7,0
		c-3.8,0.2-4.9,1.3-4.8,5c0.1,3.6,0.5,7.2,0.5,10.9c0,6.3-3.7,8.7-9.4,6.3c-1.6-0.7-3.1-1.7-4.4-2.9c-11.4-10.3-22.8-20.7-34.1-31
		c-2.4-2.2-4.7-4.5-7-6.9c-2.5-2.7-2.4-5.7,0.3-8.1c7-6.3,14-12.4,21.1-18.6c6.8-5.9,13.6-11.8,20.6-17.6c1.6-1.3,3.7-2.1,5.7-2.6
		c4-1,6.5,0.9,6.6,5c0.1,3.6,0,7.3-0.2,10.9c-0.3,3.5,0.5,4.6,3.9,4.6c13.2,0.2,26.4,0.4,39.6,0.4c7.4,0,14.9-0.4,22.3-0.4
		c5.8,0,11.7,0.3,17.5,0.5c2.3,0.1,4.8,2.2,5.2,4.2c0.4,2.7-1.2,4.2-3.4,5.1c-1.2,0.5-2.6,0.7-3.8,0.7c-27.4-0.2-54.9-0.4-82.3-0.5
		c-0.2,0-0.3,0-0.5,0c-6.8-0.4-7.7-1.4-7.7-8.2c0-1.9,0.3-3.7,0.2-5.6c0-1-0.4-2.3-1-2.7c-0.6-0.3-2,0.2-2.7,0.7
		c-9.5,8.3-18.9,16.8-28.3,25.2c-2.1,1.8-2.1,3.8,0.2,5.9c5.8,5.3,11.8,10.4,17.6,15.7c3.7,3.4,7.2,7,10.9,10.5
		c0.8,0.7,1.8,1,2.8,1.5c0.5-1.1,1.3-2.1,1.4-3.2c0.1-2.4-0.3-4.8-0.3-7.1c0-4.2,1.9-6.2,6-6.6c1.4-0.1,2.8-0.1,4.2-0.1
		c26.2-0.2,52.4-0.4,78.6-0.5c0.9,0,1.8-0.1,2.6-0.2C334.9,388.1,337.6,390,337.9,392.8z"/>
	<path d="M260,304.3c-1.7,0.8-3.7,1.2-5.6,1.3c-4.2,0.2-8.5,0.1-12.7,0.1v0c-4.1,0-8.1,0-12.2,0c-1,0-2,0-2.9-0.2
		c-2.7-0.6-4.2-2.6-4-4.8c0.3-2.2,2-3.4,4.9-3.4c7.9-0.2,15.8-0.2,23.7-0.5c2.1-0.1,4.2-0.8,6.3-1c2-0.2,4-0.2,4.8,2.2
		C263.2,300.5,262.3,303.3,260,304.3z"/>
	<path d="M261.2,286.9c0,0.7-1.9,1.9-3,2.1c-2.5,0.3-5.1,0.1-7.7,0.1c0,0.2,0,0.5,0,0.7c-7,0-14.1,0-21.1,0c-1.2,0-2.6-0.2-3.4-0.9
		c-0.7-0.6-1.3-2.4-0.9-3c0.8-1.2,2.1-2.5,3.4-2.8c3.3-0.7,6.8-1,10.2-1.2c5.1-0.3,10.2-0.5,15.3-0.5c1.8,0,3.8,0.4,5.2,1.4
		C260.3,283.5,261.1,285.4,261.2,286.9z"/>
</g>
</svg>
