<svg width="100" height="17" viewBox="0 0 100 17" fill="none" xmlns="http://www.w3.org/2000/svg">
<path d="M64.641 5.77609C64.6717 5.45917 64.8251 3.27141 63.1382 1.5437C62.1261 0.500936 60.93 0.122678 60.0611 0H49.5108C48.652 0.112455 47.3332 0.470267 46.2087 1.60504C44.5219 3.30208 44.5525 5.41828 44.5628 5.77609V10.5401C44.5423 10.8774 44.4707 13.0345 46.1678 14.7418C47.4457 16.0299 48.9894 16.3059 49.8072 16.3571H59.6113C60.4802 16.2855 61.8808 15.9788 63.0565 14.8031C64.7842 13.0754 64.6513 10.857 64.6308 10.5401V5.77609H64.641ZM59.9588 10.1107C59.9588 10.8774 59.3352 11.5011 58.5685 11.5011H50.6762C49.9095 11.5011 49.2859 10.8774 49.2859 10.1107V6.22591C49.2859 5.45917 49.9095 4.83556 50.6762 4.83556H58.5685C59.3352 4.83556 59.9588 5.45917 59.9588 6.22591V10.1107Z" fill="#171994"/>
<path d="M77.9105 12.5643V15.4881C77.9105 15.897 77.5527 16.2344 77.1029 16.2344H67.534C67.3807 16.2242 67.1558 16.173 66.9717 16.0197C66.9513 15.9993 66.9206 15.9788 66.9002 15.9481C66.8797 15.9277 66.8593 15.897 66.8388 15.8766C66.8184 15.8561 66.8082 15.8255 66.7877 15.805C66.7366 15.713 66.7059 15.621 66.6855 15.5494V15.5392C66.6855 15.529 66.6753 15.5188 66.6753 15.4983C66.6753 15.4881 66.6753 15.4881 66.6753 15.4779C66.6753 15.4779 66.6753 15.4779 66.6753 15.4676C66.6753 15.4574 66.665 15.4268 66.665 15.3961V0.633837C66.7162 0.276027 67.0126 0 67.3909 0H70.6725C71.0508 0 71.3575 0.286248 71.3984 0.654282V11.2761C71.3984 11.4704 71.3984 11.6135 71.3984 11.7055V11.818H77.1131C77.5425 11.818 77.9105 12.1553 77.9105 12.5643Z" fill="#E71039"/>
<path d="M99.9824 5.77609C100.013 5.45917 100.166 3.27141 98.4796 1.5437C97.4675 0.500936 96.2714 0.122678 95.4024 0H84.8623C84.0036 0.112455 82.6848 0.470267 81.5602 1.60504C79.8734 3.30208 79.9041 5.41828 79.9143 5.77609V10.5401C79.8939 10.8774 79.8223 13.0345 81.5194 14.7418C82.7973 16.0299 84.3409 16.3059 85.1588 16.3571H94.9628C95.8318 16.2855 97.2324 15.9788 98.408 14.8031C100.136 13.0754 100.003 10.857 99.9824 10.5401V5.77609ZM95.3104 10.1107C95.3104 10.8774 94.6868 11.5011 93.9201 11.5011H86.0278C85.261 11.5011 84.6374 10.8774 84.6374 10.1107V6.22591C84.6374 5.45917 85.261 4.83556 86.0278 4.83556H93.9201C94.6868 4.83556 95.3104 5.45917 95.3104 6.22591V10.1107Z" fill="#E71039"/>
<path d="M0.114746 3.13443V0.42529C0.114746 0.139042 0.319209 0.0674794 0.421441 0.0674789H14.0182C18.4347 -0.21877 19.9818 3.32185 20.2033 5.12794C15.1598 4.95756 4.59249 4.60656 2.67054 4.56567C0.789475 4.81103 0.182901 3.71374 0.114746 3.13443Z" fill="#171994"/>
<path d="M14.9892 12.642C18.7105 12.3966 20.0497 9.3024 20.2542 7.78596C14.5462 8.04154 2.81345 8.56293 1.54578 8.60382C0.278107 8.64471 -0.00473326 10.3588 0.0123057 11.2107V16.0156C-0.0388111 16.3223 0.0804601 16.4245 0.165653 16.4245L4.86831 16.3734C4.88535 15.4022 4.91942 13.378 4.91942 13.0509C4.91942 12.7238 5.15796 12.642 5.27724 12.642H14.9892Z" fill="#171994"/>
<path d="M22.3501 15.5556V7.68374L30.9887 7.32593C30.9716 7.54743 30.9376 8.16423 30.9376 8.8594C30.9376 9.55458 31.3465 9.48983 31.5509 9.37056C32.6755 8.56975 34.9962 6.89655 35.2824 6.61031C35.6095 6.36495 35.4869 6.23546 35.3846 6.20138C34.243 5.4176 31.8576 3.78871 31.4487 3.54336C31.0398 3.298 30.9376 3.64559 30.9376 3.85005V5.53687L22.4012 5.23018V0.783105C22.2376 0.169715 22.6738 0.0504444 22.9124 0.067483H37.4293C40.9869 0.353732 42.183 3.73078 42.3364 5.38353C42.3875 8.39936 42.3875 8.14378 42.2853 8.91052C41.6719 11.6197 39.7295 12.3353 39.3717 12.4375C39.0854 12.5193 39.2183 12.7101 39.3205 12.7953C40.3258 13.7836 42.3875 15.8112 42.592 16.0156C42.7964 16.2201 42.6772 16.3734 42.592 16.4245H36.1003C35.4357 15.743 34.0045 14.3288 33.34 13.6643C32.88 12.8976 32.1473 12.6761 31.8065 12.642C30.7331 12.6249 28.4431 12.6011 27.8706 12.642C27.2572 12.642 27.0868 12.9827 27.0528 13.2042V15.5556C27.0528 16.4245 26.8653 16.4075 26.6438 16.4245H23.1168C22.4012 16.4757 22.3501 15.9134 22.3501 15.5556Z" fill="#171994"/>
</svg>
