<svg width="979" height="161" viewBox="0 0 979 161" fill="none" xmlns="http://www.w3.org/2000/svg">
<path d="M632.3 56.5C632.6 53.4 634.1 32 617.6 15.1C607.7 4.90001 596 1.2 587.5 0H484.3C475.9 1.1 463 4.60001 452 15.7C435.5 32.3 435.8 53 435.9 56.5V103.1C435.7 106.4 435 127.5 451.6 144.2C464.1 156.8 479.2 159.5 487.2 160H583.1C591.6 159.3 605.3 156.3 616.8 144.8C633.7 127.9 632.4 106.2 632.2 103.1V56.5H632.3ZM586.5 98.9C586.5 106.4 580.4 112.5 572.9 112.5H495.7C488.2 112.5 482.1 106.4 482.1 98.9V60.9C482.1 53.4 488.2 47.3 495.7 47.3H572.9C580.4 47.3 586.5 53.4 586.5 60.9V98.9Z" fill="#FEFEFE"/>
<path d="M762.1 122.9V151.5C762.1 155.5 758.6 158.8 754.2 158.8H660.6C659.1 158.7 656.9 158.2 655.1 156.7C654.9 156.5 654.6 156.3 654.4 156C654.2 155.8 654 155.5 653.8 155.3C653.6 155.1 653.5 154.8 653.3 154.6C652.8 153.7 652.5 152.8 652.3 152.1V152C652.3 151.9 652.2 151.8 652.2 151.6C652.2 151.5 652.2 151.5 652.2 151.4C652.2 151.4 652.2 151.4 652.2 151.3C652.2 151.2 652.1 150.9 652.1 150.6V6.20001C652.6 2.70001 655.5 0 659.2 0H691.3C695 0 698 2.79999 698.4 6.39999V110.3C698.4 112.2 698.4 113.6 698.4 114.5V115.6H754.3C758.5 115.6 762.1 118.9 762.1 122.9Z" fill="#E71039"/>
<path d="M978 56.5C978.3 53.4 979.8 32 963.3 15.1C953.4 4.90001 941.7 1.2 933.2 0H830.1C821.7 1.1 808.8 4.60001 797.8 15.7C781.3 32.3 781.6 53 781.7 56.5V103.1C781.5 106.4 780.8 127.5 797.4 144.2C809.9 156.8 825 159.5 833 160H928.9C937.4 159.3 951.1 156.3 962.6 144.8C979.5 127.9 978.2 106.2 978 103.1V56.5ZM932.3 98.9C932.3 106.4 926.2 112.5 918.7 112.5H841.5C834 112.5 827.9 106.4 827.9 98.9V60.9C827.9 53.4 834 47.3 841.5 47.3H918.7C926.2 47.3 932.3 53.4 932.3 60.9V98.9Z" fill="#E71039"/>
<path d="M1.12036 30.66V4.16005C1.12036 1.36006 3.12036 0.660052 4.12036 0.660048H137.12C180.32 -2.13995 195.454 32.4934 197.62 50.16C148.287 48.4934 44.9204 45.0601 26.1204 44.66C7.72036 47.0601 1.78703 36.3267 1.12036 30.66Z" fill="#FEFEFE"/>
<path d="M146.62 123.66C183.02 121.26 196.12 90.9934 198.12 76.16C142.287 78.66 27.5204 83.76 15.1204 84.16C2.72036 84.56 -0.0462993 101.327 0.12037 109.66V156.66C-0.379639 159.66 0.787037 160.66 1.62037 160.66L47.6204 160.16C47.787 150.66 48.1204 130.86 48.1204 127.66C48.1204 124.46 50.4537 123.66 51.6204 123.66H146.62Z" fill="#FEFEFE"/>
<path d="M218.62 152.16V75.1601L303.12 71.6601C302.954 73.8268 302.62 79.8601 302.62 86.6601C302.62 93.4601 306.62 92.8268 308.62 91.6601C319.62 83.8268 342.32 67.4601 345.12 64.6601C348.32 62.2601 347.12 60.9934 346.12 60.6601C334.954 52.9934 311.62 37.0601 307.62 34.6601C303.62 32.2601 302.62 35.6601 302.62 37.6601V54.1601L219.12 51.1601V7.66012C217.52 1.66012 221.787 0.493458 224.12 0.660125H366.12C400.92 3.46012 412.62 36.4935 414.12 52.6601C414.62 82.1601 414.62 79.6601 413.62 87.1601C407.62 113.66 388.62 120.66 385.12 121.66C382.32 122.46 383.62 124.327 384.62 125.16C394.454 134.827 414.62 154.66 416.62 156.66C418.62 158.66 417.454 160.16 416.62 160.66H353.12C346.62 153.993 332.62 140.16 326.12 133.66C321.62 126.16 314.454 123.993 311.12 123.66C300.62 123.493 278.22 123.26 272.62 123.66C266.62 123.66 264.954 126.993 264.62 129.16V152.16C264.62 160.66 262.787 160.493 260.62 160.66H226.12C219.12 161.16 218.62 155.66 218.62 152.16Z" fill="#FEFEFE"/>
</svg>
