<?xml version="1.0" encoding="utf-8"?>
<!-- Generator: Adobe Illustrator 24.0.1, SVG Export Plug-In . SVG Version: 6.00 Build 0)  -->
<svg version="1.1" id="Layer_1" xmlns="http://www.w3.org/2000/svg" xmlns:xlink="http://www.w3.org/1999/xlink" x="0px" y="0px"
	 viewBox="0 0 500 500" style="enable-background:new 0 0 500 500;" xml:space="preserve">
<g>
	<path d="M368.4,263.7c0,13.2-0.2,26.4-0.6,39.5c-0.1,4.3-0.5,8.7-1.5,12.8c-0.5,2.3-2.2,4.8-4.1,6c-1.7,1.1-4.9,1.5-6.8,0.7
		c-2.8-1.2-3.4-4.4-3.2-7.4c0.3-4,1-8,1.1-12c0.2-9.7,0.1-19.4,0.1-29.1c0-1.8-0.1-3.6-0.1-5.4c0-55.9,0-111.8,0-167.7
		c0-1.1,0-2.1,0-3.2c-0.1-9.1-6.1-15.4-15.4-15.7c-7.6-0.2-15.2,0-22.8,0V83c-25.1,0-50.2,0-75.3,0c-3.7,0-7.4-0.2-11-0.6
		c-5.7-0.5-9.1,2.1-9.7,7.8c-0.2,2-0.1,4-0.2,6c-0.1,11.3-0.1,22.5-0.2,33.8c0,4.7-3,8-8.1,8c-10.2,0-20.4-0.6-30.6-1
		c-1.4-0.1-3-0.6-4.1-1.4c-3.1-2.1-4.1-5.3-3.6-8.9c0.4-2.6,3.7-5.1,7-5.6c4.8-0.7,9.4-0.4,14.1,1c1.8,0.5,4,0.6,5.8,0.3
		c2.5-0.5,4-2.3,4-5c0-8,0.2-16-0.1-24.1c-0.2-6.7-2.8-9.5-9.5-10c-9.2-0.6-18.5-1.2-27.8-0.9c-7,0.2-12.7,4.4-16.7,9.7
		c-2,2.7-2.6,6.9-2.8,10.4c-0.3,5.8,0.4,11.6,0.3,17.4c-0.1,17.6-0.5,35.2-0.6,52.8c-0.2,41.8-0.4,83.5-0.6,125.3
		c0,9.5-0.4,19-0.4,28.5c0,17.2,0.2,34.4,0.5,51.6c0.2,9.8,7.2,16.3,17.1,16.4c20.5,0.2,40.9,0.3,61.4,0.6c3.5,0,7,0.1,10.3,0.7
		c4,0.7,6.2,3.9,6,7.8c-0.2,3.8-2.2,6.1-6.3,6.7c-3.4,0.5-6.9,0.6-10.4,0.6c-18.4-0.1-36.7-0.4-55.1-0.4c-8.3,0-16.1-1.3-23.3-5.7
		c-0.5-0.3-1.1-0.6-1.6-1c-6.5-6.2-11.4-13.3-11.5-22.7c-0.2-13.5-0.5-27-0.6-40.5c-0.2-16.8-0.5-33.5-0.5-50.3
		c0.1-23.2,0.4-46.4,0.6-69.6c0.3-31,0.7-62,1-93c0.1-11.1,0.2-22.1,0-33.2c-0.2-9.4,5.4-14.9,11.9-20.4c8.5-7.1,18.8-7.9,29-7.8
		c16.2,0.1,32.4,1.1,48.7,1.5c14.3,0.3,28.7,0.3,43,0.3c23.7,0,47.4,0,71.1-0.1c9.7,0,18,3.1,24.6,10.2c4.6,5,6.4,11.3,6.6,17.8
		c0.3,12.3-0.2,24.6-0.3,36.9c-0.1,8.4,0.1,16.9,0.1,25.3c0,4.8,0.2,9.5,0.3,14.2C368.1,202.8,368.3,233.3,368.4,263.7z"/>
	<path d="M425,274c-1.8,8.9-4.1,17.9-7.3,26.4c-3.4,9.1-7.6,18-12.1,26.6c-4.9,9.4-10.8,18.3-18.2,26.1c-2.2,2.4-4.1,5.1-6,7.7
		c-4.4,6.1-10.7,10-16.6,14.5c-5.5,4.2-11.2,8.2-17,12c-2.2,1.4-4.8,2.2-7.1,3.4c-6.2,3.4-12.2,7.1-18.5,10.1
		c-3.3,1.6-7.3,2.1-11,2.5c-2.3,0.3-4.3,0.5-4.6,3.1c-0.3,2.5,1.8,3.2,3.7,3.4c8.3,0.8,15.3,4.6,21.7,9.5c1.9,1.4,3.7,3.2,5.1,5.1
		c1.7,2.2,1.8,4.6,0.3,7.1c-1.4,2.3-3.7,2.6-5.8,2.1c-5.6-1.5-11.1-3.2-16.6-5c-2.9-0.9-5.5-2.6-8.4-3.6c-7.8-2.8-15.7-5.5-23.6-8.1
		c-7.6-2.5-10.1-8.2-6.5-15.3c3.9-7.7,8-15.2,12-22.9c0.5-1,0.8-2.2,1.3-3.2c2.7-5.1,5.2-10.2,8.1-15.3c1.4-2.5,4-3,6.7-2.4
		c2.7,0.6,4.6,2.3,5.1,5c0.7,3.6,0.3,7-1.7,10.3c-2.3,3.8-4.3,7.8-6.1,11.8c-0.5,1.1-0.7,3.1,0,3.8c0.8,0.9,2.6,0.9,4,1.1
		c0.7,0.1,1.4-0.3,2.1-0.7c6.2-3.3,12.3-6.6,18.5-9.8c1.7-0.9,3.5-1.5,5.2-2.2c1.3-0.5,2.6-0.8,3.8-1.5
		c16.9-9.9,32.7-21.3,44.6-37.1c5.7-7.6,11-15.6,14.6-24.6c1.3-3.3,4-6.1,5-9.5c2.9-9.3,7.2-18.2,8.3-28.1
		c1.3-10.6,3.2-21.2,4.7-31.6c-1.6-10.1-3.3-19.8-4.7-29.5c-1-7.3-3.3-14.1-6-20.9c-3.3-8.3-6.2-16.7-9.3-25.1
		c-0.5-1.4-1.3-2.7-2.1-3.9c-3.1-4.7-4.3-10-4.5-15.6c-0.1-2.7,0.6-5.6,3.3-6.2c1.8-0.4,4.4,0.7,6.1,1.9c1.6,1.1,2.7,3.1,3.7,5
		c4.1,7.7,8,15.5,12,23.3c0.2,0.5,0.6,0.9,0.8,1.4c2.8,8.4,6.1,16.6,8.2,25.1c2.5,10.3,4.6,20.8,5.8,31.3
		C427.9,245.9,427.8,260.1,425,274z"/>
	<path d="M99.4,188.6c-7.3,17.9-13.1,36.5-11.7,56.1c0.9,12.5,3.2,25.1,6.3,37.3c2.6,10,7.3,19.5,11,29.2c1,2.7,2.2,5.6,2.4,8.5
		c0.2,3-0.3,6.3-1.5,9.1c-1.6,3.8-4.9,4-8,1.2c-4.3-3.9-6.1-9.2-8.6-14.2c-8-16.6-12.3-34.3-14.9-52.3c-1.1-7.5-1.2-15.1-1.8-22.7
		c-0.1-11,3-21.5,4.6-32.2c1.6-10.9,5.9-20.9,9.6-31c3-8.2,6.6-16.4,12.2-23.4c1.1-1.3,2.5-2.7,4-3.4c5.1-2.2,9,0.3,9.1,5.8
		c0,4.5-0.6,8.9-2.9,13.1C105.6,175.8,102.1,182.1,99.4,188.6z"/>
	<path d="M314.9,194c-1.5,0.6-3.3,0.9-4.9,0.9c-33.6,0.2-67.3,0.4-100.9,0.6c-7,0-13.9,0-20.8,0c-5.2,0-8.8-3.2-8.9-7.8
		c0-4.1,3.9-7.9,8.7-7.9c4.2,0,8.4,0,12.5,0c14.3,0,28.6,0,42.8,0H289c7.8,0,15.6,0.1,23.4,0.2c4.2,0.1,7.4,2.2,7.9,5
		C321.1,188.9,319.1,192.4,314.9,194z"/>
	<path d="M320.4,278.9c0,5.1-3.1,7.9-8.9,7.9h-62v0c-20.3,0-40.7,0.1-61.1-0.1c-2.2,0-4.8-0.9-6.5-2.2c-2.6-2-3.4-5.2-2.2-8.3
		c1.2-3.1,3.8-5,7.1-5c11.2,0,22.4,0.1,33.5,0.2c1.5,0,2.9,0.2,4.4,0.2c29,0,58,0,87,0C317.2,271.6,320.4,274.3,320.4,278.9z"/>
	<path d="M319.8,232.3c0.2,5.1-2.5,8.3-7.7,8.4c-12.5,0.1-25.1,0-37.6,0v1.1c-11.9,0-23.8,0-35.7,0c-11.2-0.1-22.3-0.3-33.5-0.4
		c-5.5,0-11,0.3-16.4,0.4c-1.3,0-2.8,0-4.1-0.3c-4.1-1-7-4.4-6.7-7.7c0.3-3.8,4.1-7.4,8.1-7.5c4.4-0.1,8.8,0.4,13.3,0.4
		c21.6,0,43.2,0.1,64.9,0c15.8-0.1,31.6-0.4,47.4-0.6C317.1,225.9,319.7,227.9,319.8,232.3z"/>
	<path d="M247,338.2c-0.1,2.9-2,4.4-4.4,5.1c-2.2,0.6-4.5,1.1-6.8,1.1c-7,0.1-14.1,0-21.2,0v0.5h-27.8c-0.2,0-0.4,0-0.6,0
		c-4.9-0.1-8.8-3.2-8.7-6.9c0.1-4.5,4.7-8.7,9.3-8.7c15.5,0.2,31,0.3,46.4,0.6c3.3,0.1,6.6,1,9.8,2
		C245.7,332.9,247.1,335.1,247,338.2z"/>
</g>
</svg>
