<?xml version="1.0" encoding="utf-8"?>
<!-- Generator: Adobe Illustrator 24.0.1, SVG Export Plug-In . SVG Version: 6.00 Build 0)  -->
<svg version="1.1" id="Layer_1" xmlns="http://www.w3.org/2000/svg" xmlns:xlink="http://www.w3.org/1999/xlink" x="0px" y="0px"
	 viewBox="0 0 500 500" style="enable-background:new 0 0 500 500;" xml:space="preserve">
<g>
	<path d="M444.1,324.4c-0.9-0.5-2.2-0.2-3.4-0.2c-24,0-48,0-72,0c-1.7,0-3.5-0.2-5.2-0.4c-2.2-0.3-3-1.6-2.8-3.7
		c0.2-2.6,0.4-5.2,0.5-7.9c0-28.8,0-57.6,0-86.4h0.5c0-3.8,0-7.7,0-11.5c-0.1-18.5-0.3-37-0.4-55.4c0-7.7,0.1-15.4,0-23.1
		c-0.1-4.6-1-5.3-5.5-5.4c-3.6-0.1-7.2-0.1-10.8-0.1c-5.1,0-6.5,1.4-6.8,6.5c0,0.8,0,1.6,0,2.4c0.1,37,0.3,73.9,0.4,110.9
		c0,1.7,1.3,4.6-1.1,5c-2.4,0.4-2.6-2.7-3-4.5c-1.3-6.1-2.3-12.2-3.7-18.3c-2-8.5-4.4-16.9-6.6-25.4c-2.3-9-4.5-18-6.8-27
		c-2.4-9.2-4.8-18.3-7.2-27.4c-1.5-5.8-3.3-11.5-6.8-16.3c-4.6-6.3-10.9-8.9-18.7-8.8c-19.5,0.2-39,0.3-58.6,0.3
		c-9.5,0-19.1-0.3-28.6-0.3c-5.6,0-7.9,2.4-8.5,7.9c-0.1,0.9-0.1,1.8-0.1,2.6c0,4.3,0,8.6,0,12.9c0,35,0,70.1,0,105.1
		c0,2.8-1.3,3.6-4.5,3.5c-5.1-0.1-10.2-0.3-15.2,0.4c-3.3,0.4-6.6,1.8-9.4,3.6c-6.3,4.1-7.8,10.9-7.8,17.8c0,18.5,0.3,37,0.5,55.4
		c0.1,6.5,6.1,14.4,13.4,14.5c1.9,0,3.2,1,3.8,3c3,10.5,10,16.5,20.7,18.4c5.9,1.1,11.5-0.2,16.7-3.1c6-3.4,9.7-8.6,11.8-15.1
		c0.8-2.4,2.3-3.5,4.9-3.4c4.2,0.2,8.4,0.1,12.6,0.1c18.1,0,36.3-0.1,54.4-0.2c1.6,0,3.2-0.1,4.7,0.4c1.1,0.4,2.1,1.4,2.7,2.4
		c1.2,2.1,1.9,4.5,3.1,6.6c2.9,5,7.1,8.8,12.7,10.5c14.2,4.1,28.3-1.7,33.2-17.7c0.7-2.4,2.2-3.5,4.7-3.9c1.6-0.3,3.4-1,4.6-2.2
		c3.1-3,4.6-6.7,4.3-11.1c-0.2-4,0.3-4.5,4.4-4.7c7.6-0.2,15.2-0.3,22.9-0.4c17.2-0.1,34.3,0,51.5-0.1c1.7,0,3.4,0.2,4.9-0.4
		c1-0.4,2.4-2,2.3-2.9C446.6,326.2,445.2,325,444.1,324.4z M304.7,154c3.2,12.5,6.7,25,10,37.5c3.3,12.3,6.3,24.8,9.6,37.1
		c1.2,4.6,2.9,9.2,4.4,13.7c0.1,0.4,0.4,0.8,0.4,1.2c-0.1,0.8-0.3,1.6-0.5,2.4c-0.7-0.4-1.6-0.6-2.1-1.1c-3.6-3.8-7.1-7.8-10.6-11.6
		c-2.4-2.7-5.1-5.1-9-5.2c-0.3,0-0.5-0.1-0.8-0.2c-1.3-0.9-3.2-1.5-3.7-2.8c-0.3-0.7,1.4-2.5,2.3-3.6c1.3-1.6,3-2.9,4.3-4.5
		c1.1-1.5,1-3.3-0.5-4.5c-1.5-1.3-3.1-0.8-4.5,0.4c-6.3,5.1-12.6,10.2-18.9,15.4c-1.8,1.5-2.2,3.6-0.8,5c1.7,1.7,3.3,1.2,4.8-0.3
		c1.2-1.1,2.4-2.3,3.7-3.3c2.9-2.5,6.8-1.6,8.2,1.9c0.3,0.8,0,2.4-0.6,3c-1.6,1.5-2,3.3-1.5,5.3c1,4.1,2.1,8.3,3.4,12.3
		c1.1,3.5,2.4,6.9,3.7,10.3c1,2.7,2.5,5.2,3.2,8c0.9,4,1.6,8.1,1.5,12.1c-0.2,5.1-1.1,10.3-2,15.3c-0.3,1.6-1.5,4-2.7,4.3
		c-2.3,0.5-4.9,0-7.3-0.6c-0.5-0.1-0.8-2.1-0.9-3.3c-0.4-4.1-0.4-8.2-0.9-12.3c-0.9-7.4-4.7-13.4-9.7-18.8c-3.2-3.3-3.2-3.3-0.8-7.3
		c1.8-3,2.3-6.2,0.5-9.2c-1.8-3.2-4.4-5.3-8.5-5.2c-9.9,0.2-19.8,0.2-29.7,0.3c-3.8,0-4.7-0.9-4.8-4.8c-0.1-11.6-0.2-23.3-0.3-34.9
		c-0.1-10.9-10-13-17.7-9.8c-1.3,0.6-2.3,2.5-3,4c-0.5,1.2-0.4,2.8-0.4,4.1c0,17.6,0,35.2,0,52.8c0,3.4-0.9,4.3-4.3,3.8
		c-1-0.2-2.1-0.3-3.1-0.4c-3.3-0.5-4.2-1.9-4.1-5.1c0.2-4.7,0-9.4,0-14.2c0.1-16.2,0.2-32.4,0.3-48.6c0-12,0-24,0-36
		c0-5.2,1.2-6.3,6.3-6.3h40.7c0,0,0,0,0,0c13.8,0,27.7,0,41.5,0C302.8,150.3,304,151.3,304.7,154z M275.6,267.9
		c1.5,0,3.3,0.6,4.6,1.5c5.8,4.3,9.2,10.2,10.2,17.4c0.5,3.9,0.8,7.8,1.1,11.8c0.2,3-0.9,4.1-4,4.1c-11.8-0.1-23.6-0.1-35.4-0.2
		c-2.6,0-4.5-1-6.1-3.1c-4.6-6.1-9.2-12.1-13.8-18.2c-2.4-3.1-4.9-6.2-7.3-9.3c-0.7-1-1.1-2.3-1.6-3.4c1.2-0.4,2.3-1,3.5-1.1
		c8.1-0.1,16.3-0.1,24.4-0.1v0.4C259.3,267.9,267.5,267.8,275.6,267.9z M195,196.5h0.1v-57c0-0.9,0-1.8,0-2.6c0-2.4,1.2-3.5,3.6-3.5
		c3.5,0,7,0,10.5,0c18.5,0,37,0,55.4-0.1c6.8,0,13.7,0,20.5-0.4c6.2-0.3,10.4,3,14.2,7.2c0.6,0.7,1.1,2.6,0.7,3
		c-0.8,0.8-2.2,1.3-3.4,1.3c-12.2,0.1-24.3,0.1-36.5,0.1c-15.2,0-30.5,0-45.7,0c-6.5,0-8.7,2.2-8.7,8.7c0,15.6,0.1,31.2,0,46.8
		c-0.1,18.5-0.3,36.9-0.5,55.4c0,3-0.9,4-3.8,4c-1.1,0-2.3,0.1-3.4,0c-2-0.2-2.8-1.3-2.8-3.4c0-13.9,0-27.8,0-41.7
		C195,208.4,195,202.4,195,196.5z M194.8,366.4c-10.5-0.1-19.2-7.2-19-18.5c0.2-10.8,6.9-19.1,18.6-19c11-0.2,19.6,8.1,19.4,19.7
		C213.6,358.1,205.3,366.5,194.8,366.4z M354.5,337.3c0,2.4-1.1,4.4-3.5,5.4c-2.2,0.8-3.8,0.1-4.5-2.2c-4-14.1-18.5-22.3-33.8-16.8
		c-7.4,2.7-12.2,8.4-14.2,16.1c-1,3.9-1.4,4.4-5.5,4.4c-11.4,0-22.8,0-34.2,0v0.2c-11.7,0-23.5,0-35.2,0c-2.4,0-3.8-1.2-4.4-3.3
		c-2.5-7.9-7.6-13.5-15.2-16.7c-10.4-4.4-25.2-0.8-31,9.9c-1.1,2.1-1.9,4.5-2.7,6.8c-0.9,2.7-2.6,3.7-5.3,2.8
		c-2.8-1-4.9-2.8-5.5-5.8c-0.5-2.5-0.9-5-0.9-7.5c0-16.1,0.1-32.2,0.3-48.3c0-3.9,0.6-7.6,3.3-10.8c3.3-3.9,7.6-5.7,12.5-5.8
		c11.5,0,22.9,0.2,34.4,0.3c2.6,0,4.2,1.5,5.6,3.4c7.5,9.9,15,19.8,22.6,29.6c2,2.6,4.2,5,6.3,7.4c1.7,1.9,3.9,2.7,6.6,2.7
		c19.1,0.1,38.2,0.3,57.3,0.4c13,0.1,25.9,0.1,38.9,0.1c1.8,0,3.8-0.2,5.5,0.3c1.1,0.3,2.5,1.7,2.6,2.6
		C354.6,320.7,354.6,329,354.5,337.3z M351.9,303.2c-5.4-0.3-6-1.1-6-6.8c0-15.2-0.3-30.5-0.4-45.7c-0.1-10.2,0-20.5,0-30.7h-1
		c0-25.8,0-51.7,0-77.5c0-4.9,4.8-7.7,9-5.2c0.8,0.5,1.4,1.8,1.5,2.8c0.2,1.9,0,3.9,0,5.8c0,41.6,0,83.2,0.1,124.8
		c0,9.5,0.5,19.1,0.8,28.6C356,302.3,355,303.4,351.9,303.2z"/>
	<path d="M465.6,311.3c-4.5-2.3-4.5-2.2-4.4-7.3c0-1.3,0-2.6,0-3.9c0-16.1,0-32.2,0-48.3c0-6.5,0.4-13,0.3-19.4
		c-0.1-5.7-1.6-7-7.2-7.3c-1.1,0-2.1-0.1-3.1-0.1c-24.8,0-49.6,0-74.3,0c-8.4,0-9.2,0.8-9.2,9.1c0.1,26,0.2,52,0.4,78
		c0,3.9,1.2,5,5.1,5h44.4v-0.2c12.8,0,25.6,0,38.3,0c2.9,0,5.8-0.1,8.6-0.6c1.1-0.2,2.2-1.5,2.9-2.5
		C467.6,313.4,466.5,311.7,465.6,311.3z M407.1,235.3c0.1-2.8,0.9-3.5,3.7-3.5c1.8,0,3.7,0,5.5,0c2.3,0,3.6,0.9,3.4,3.5
		c-0.1,2.1,0,4.2,0,6.3h-0.1c0.1,2.2,0.3,4.4,0.3,6.5c0.1,3.1-1.3,4.3-4.3,4c-1.6-0.2-3.1-0.1-4.7,0c-2.8,0.2-4.1-0.7-4-3.4
		C406.9,244.2,407,239.7,407.1,235.3z M454.9,303.1c0,6.5,1.1,7.3-7.4,7.3c-11.2,0-22.4,0-33.6,0v0.3h-35.7c-3.2,0-4.1-0.8-4.1-4
		c-0.1-23.9-0.1-47.8-0.1-71.7c0-3,0.8-3.8,3.7-3.8c6.5,0,12.9,0,19.4,0.1c2.1,0,3.1,1.1,3.1,3.3c-0.2,6-0.2,12.1-0.3,18.1
		c0,0.9-0.1,1.8,0,2.6c0.2,3,1.8,4,4.7,3.9c5.7-0.2,11.5-0.3,17.2,0c3.9,0.2,5.2-0.5,5.2-4.4c-0.1-6.3-0.2-12.6-0.3-18.9
		c0-3.8,0.6-4.3,4.4-4.3c6.7,0.1,13.3,0,20,0c3.4,0,4,0.6,4,3.9C454.9,258.1,454.8,280.6,454.9,303.1z"/>
	<path d="M160.8,222.3c-4.2,4-8.4,8.1-12.7,12.1c-0.4,0.4-0.9,1.1-1.4,1.1c-1.3,0.2-2.6,0.1-3.9,0.1c0-1.4-0.5-3.1,0.2-4
		c1.1-1.7,3-2.9,4.4-4.4c0.8-0.9,1.2-2.1,1.8-3.2c-1.2-0.4-2.3-1.2-3.5-1.2c-4.7-0.1-9.5-0.1-14.2,0c-14.4,0.1-28.9,0.1-43.3,0.2
		c-1.5,0-3,0.3-4.4,0.3c-1.7,0-3.3-0.4-3.5-2.4c-0.2-2,1.1-3,2.9-3.5c0.8-0.2,1.7-0.2,2.6-0.2c9.7,0,19.4,0,29.1,0v-0.5
		c10,0,19.9,0,29.9-0.1c1.1,0,3.2-0.9,3.2-1.4c0-1.3-0.7-2.7-1.5-3.8c-0.9-1.2-2.4-1.9-3.1-3.1c-0.6-1-0.3-2.5-0.4-3.8
		c1.3,0,2.9-0.4,3.8,0.2c2.5,1.8,4.7,4.1,7.1,6.2c2.1,1.8,4.3,3.6,6.5,5.3C163.2,218.2,163.3,219.9,160.8,222.3z"/>
	<path d="M134,250.1c0.1,2.2-1.8,3.5-5.5,3.5c-7.7,0.1-15.4,0-23.1,0.1c-22.9,0-45.7,0.1-68.6,0.1c-1.8,0-3.9,0.1-4.2-2.5
		c-0.2-2,1.8-3.4,4.7-3.4c15.4,0,30.8,0,46.2,0v-0.4c15,0,29.9,0,44.9,0C132.3,247.5,133.9,248.2,134,250.1z"/>
	<path d="M125.8,281.3c-0.2,2-1.6,2.5-3.3,2.5c-6.5,0-13,0-19.4,0H85.1v0.2h-37c-1.7,0-2.9-0.7-3.2-2.4c-0.3-1.9,0.5-3.3,2.4-3.8
		c1-0.3,2.1-0.2,3.1-0.2c23.4-0.1,46.7-0.2,70.1-0.2c0.8,0,1.6,0,2.3,0.2C124.9,278,126,279.2,125.8,281.3z"/>
</g>
</svg>
