<?xml version="1.0" encoding="utf-8"?>
<!-- Generator: Adobe Illustrator 24.0.1, SVG Export Plug-In . SVG Version: 6.00 Build 0)  -->
<svg version="1.1" id="Layer_1" xmlns="http://www.w3.org/2000/svg" xmlns:xlink="http://www.w3.org/1999/xlink" x="0px" y="0px"
	 viewBox="0 0 500 500" style="enable-background:new 0 0 500 500;" xml:space="preserve">
<g>
	<path d="M456.5,296.5c-7.7-13.6-21.6-16-34.7-10.5c-10.4,4.4-20.6,9-30.9,13.5c-7.5,3.3-15.1,6.7-22.6,10
		c-7.6,3.4-15.3,6.7-22.9,10.2c-6.5,3-13,6.3-19.4,9.6c-2.5,1.3-4.2,0.7-4.5-2.1c-0.4-3.8-2.2-6.7-5-9c-2.1-1.7-4.3-3.3-6.7-4.7
		c-15.7-9.4-33.2-14.9-50-21.8c-7.2-3-14.6-5.8-21.8-8.9c-11.8-5.1-23.5-10.6-35.3-15.5c-15.1-6.4-31-8-47.1-6
		c-12.6,1.6-25.2,4.3-37.7,6.7c-5.3,1-6.5,0.2-6.5-5.3c0-4.7,0-9.5-0.1-14.2c-0.1-3.9-1.4-5.2-5.3-5.2c-17.4,0.1-34.9,0.1-52.3,0.2
		c-1.4,0-2.8,0.1-4.2,0.2c-7.7,0.7-8.5,1.5-8.5,9.2c0,22.7,0,45.4,0,68h0.2v70.4c0,4.9,1,6,5.8,6.6c0.8,0.1,1.6,0.1,2.4,0.1
		c17.3,0.2,34.7,0.4,52,0.5c1.3,0,2.6-0.1,3.9-0.4c3.8-0.8,5.2-2.3,5.4-6.2c0.4-5.9,0.5-11.9,0.8-17.8c0.2-3.6,1.4-5,4.6-4.3
		c7.9,1.7,15.7,3.5,23.5,5.5c6.9,1.8,13.7,4,20.5,6.1c14.7,4.5,29.4,9.2,44.2,13.4c17.6,5.1,35.3,9.6,52.9,14.6
		c14,4,27.7,2.8,40.9-2.5c11.3-4.5,22.2-10,33-15.5c13.5-6.9,26.8-14.2,40.2-21.5c10.9-5.9,21.8-12,32.7-18
		c8.9-4.9,17.9-9.7,26.7-14.8c6.9-4,13.7-8.1,20.2-12.6C458.9,318.9,461.4,305.1,456.5,296.5z M104,321.3L104,321.3
		c-0.1,15.9,0,31.9-0.1,47.8c0,5.6-0.2,11.3-0.4,16.9c-0.1,4.1-1.4,5.4-5.5,5.4c-13.9,0.1-27.8,0.3-41.7,0.4c-1.1,0-2.2,0-3.3-0.1
		c-2.5-0.1-3.9-1.5-4-4c-0.1-2.3,0-4.6,0-6.9c-0.1-41.1-0.1-82.2-0.2-123.4c0-4.7,1-6.1,6.1-6.2c11-0.2,22,0,32.9,0
		c3.4,0,6.8,0.1,10.3-0.1c4.1-0.2,5.9,1.4,5.9,5.4V321.3z M446,318.1c-3.7,3.3-8.1,6-12.4,8.5c-10,5.7-20.2,11.2-30.3,16.8
		c-8.3,4.6-16.6,9.4-25,13.9c-8.6,4.6-17.3,8.9-25.9,13.4c-8.1,4.3-16,8.8-24.2,13c-10.8,5.5-21.5,11.5-32.8,16
		c-11.1,4.4-22.9,6-34.9,2.5c-15.2-4.5-30.6-8.5-45.9-12.7c-6.9-1.9-13.7-4.1-20.5-6.1c-6.8-2-13.7-3.9-20.6-5.9
		c-4-1.2-8.1-2.5-12.1-3.7c-7.4-2.2-14.8-4.5-22.3-6.5c-7.1-1.8-14.3-3.5-21.5-4.8c-4.4-0.8-5.5-1.6-5.5-6.3c0-12.4,0-24.8,0-37.2
		h-0.2c0-12.4,0-24.8,0-37.2c0-4.5,0.9-5.5,5.3-6.2c11.5-2,23-4,34.5-5.8c14.2-2.2,28.4-1.5,42.1,3c7.5,2.4,14.8,5.9,22.1,9
		c8.1,3.4,16,7,24.1,10.4c7.2,3.1,14.4,6.3,21.6,9.3c4.1,1.7,8.2,3.2,12.3,4.8c7.2,2.9,14.5,5.5,21.5,8.7c5.1,2.3,10,5.2,14.6,8.4
		c5.1,3.5,5.9,10.5,2.5,16.9c-3.6,6.7-6.2,8.2-13.7,6.6c-7.8-1.7-15.4-4.1-23-6c-7.9-2.1-15.8-4.1-23.7-6c-9.6-2.2-19.3-4.3-29-6.1
		c-7.1-1.3-14.3-2.1-21.5-3c-1.6-0.2-3.5,0-5,0.7c-1.3,0.6-2.9,2.2-2.9,3.2c0.1,1.5,1.3,3.1,2.5,4.3c0.7,0.7,2.3,0.6,3.5,0.8
		c13.5,2.1,27.1,3.9,40.5,6.3c8,1.4,15.9,3.5,23.8,5.5c7.5,1.9,14.9,4.1,22.5,5.9c5.2,1.2,10.5,2,15.7,2.9
		c8.7,1.4,16.9-7.3,18.6-13.1c1.1-3.6,3.4-5.6,7-6.8c5.1-1.8,10.1-3.9,15.1-5.9c8.6-3.6,17.2-7.3,25.8-10.9
		c7.3-3.1,14.6-6.4,21.8-9.6c7.4-3.2,14.8-6.4,22.2-9.6c4.4-1.9,8.9-3.7,13.3-5.7c6-2.7,11.9-3.5,17.8,0.5
		C453,300,454.1,310.8,446,318.1z"/>
	<path d="M408.5,208.9c0-38.4,0.1-76.8,0.2-115.2c0-4.2-1.5-5.5-5.8-5.5c-34,0-67.9,0-101.9,0v-0.1h-89.5c-4.2,0-8.5,0-12.7,0.1
		c-4.8,0.1-5.9,1.3-6,6c-0.1,3.9-0.3,7.9-0.3,11.8c0,46.9,0,93.7,0,140.6c0,1.7,0.1,3.6,0.9,4.9c0.8,1.2,2.7,2.3,4,2.3
		c1.1-0.1,2.3-1.8,3.1-3c0.5-0.7,0.3-2,0.3-3c0-4.7-0.1-9.5-0.1-14.2c0-44.1,0.1-88.1,0.2-132.2c0-4.3,1-5.3,5.4-5.3
		c19.9,0,39.7,0,59.6-0.1c4.7,0,5.6,1,5.6,5.7c-0.2,19.5-0.5,39.1-0.6,58.6c0,1.7,0.5,4.2,1.6,4.7c1.3,0.6,3.7-0.1,5.2-1
		c5.7-3.4,11.3-7,16.8-10.7c2.8-1.9,5.3-1.9,8,0.1c5.8,4,11.6,8,17.5,11.8c1.3,0.8,3.4,1.4,4.6,0.9c0.9-0.4,1.3-2.7,1.4-4.2
		c0-4.9-0.3-9.9-0.3-14.8c-0.2-15.1-0.2-30.2-0.4-45.4c-0.1-4.7,0.7-5.7,5.4-5.7c21.2,0,42.3,0,63.5,0c0.9,0,1.8-0.1,2.7,0
		c3.1,0.3,4.2,1.6,4.2,4.7c0,5.5-0.1,11.1-0.1,16.6c-0.1,14-0.3,28-0.3,42c0,20.8,0.2,41.5,0.3,62.3c0.1,16.3,0.2,32.7,0.2,49
		c0,4.3-1.2,5.6-5.5,5.6c-11.8,0-23.6-0.1-35.4,0c-29.1,0.2-58.2,0.4-87.4,0.6c-1.9,0-4,0.6-5.7,1.4c-0.8,0.4-1.5,2-1.4,3
		c0.1,0.8,1.3,1.8,2.2,2.1c1.8,0.5,3.8,0.6,5.7,0.6c39.7,0.1,79.4,0.1,119.2,0.1c3.6,0,7.2-0.3,10.9-0.4c2.7-0.1,4.3-1.5,4.7-4.2
		c0.2-1.4,0.4-2.8,0.4-4.2C408.6,253.3,408.5,231.1,408.5,208.9z M317.5,148.7c0,1-0.6,2.4-1.3,2.7c-0.7,0.3-2.1-0.2-2.9-0.8
		c-2.9-2-5.6-4.3-8.4-6.4c-4.8-3.6-7.9-3.7-12.9-0.2c-2.3,1.6-4.5,3.5-6.9,4.9c-1.1,0.7-2.8,1.1-3.9,0.7c-0.7-0.3-1.1-2.2-1.2-3.3
		c-0.1-7.7,0-15.3,0-23h-0.2c0-7.6,0-15.3,0-22.9c0-2.9,1-4.1,4.2-4.2c6-0.1,12.1,0,18.1,0c3.6,0,7.3,0,10.9,0
		c3.5,0,4.6,1.1,4.5,4.5c-0.2,14-0.3,28-0.4,42C317.1,144.7,317.6,146.7,317.5,148.7z"/>
	<path d="M289.7,252.4c-0.3-10-0.5-19.9-0.7-29.9c-0.1-4-1.9-5.8-6-5.7c-2,0.1-4,0.3-6,0.3c-17.7-0.2-35.4-0.4-53.2-0.6
		c-2.9,0-4.5,1.5-5.1,4.1c-0.3,1.2-0.2,2.4-0.2,3.6c-0.1,9.3-0.1,18.5-0.2,27.8c0,4.4,1.7,6.2,6.2,6.2h29.3v0.2c9.9,0,19.7,0,29.6,0
		C288.2,258.4,289.9,256.7,289.7,252.4z M275.6,250.3c-6.4,0.1-12.9,0-19.3,0h-3v0.2c-7.2,0-14.5,0-21.7,0c-3.8,0-5.4-1.5-5.4-5.3
		c0-4.8,0-9.7,0-14.5c0-4.4,1.5-5.8,5.9-5.7c12,0.1,23.9,0.3,35.9,0.4c2.9,0,5.8-0.4,8.7-0.3c3.6,0.1,4.6,1.3,4.7,4.8
		c0.1,5,0.2,10.1,0.3,15.1C281.8,248.7,280.1,250.3,275.6,250.3z"/>
	<path d="M80.9,347c-2.3-0.6-5.2-0.5-7.3,0.4c-6.6,3-10.9,7.8-10.1,15.7c0,1.2-0.1,2.3,0,3.4c0.7,6.7,7.9,12.7,14.4,11.9
		c6.6-0.8,13.3-7.8,14-14.7C92.6,355.9,88.2,349,80.9,347z M77.2,370.6c-3.5,0-6.3-3.1-6.4-7c-0.1-4.1,3.2-7.9,6.7-7.8
		c3.2,0,6.4,3.4,6.4,6.7C84.1,367,81,370.6,77.2,370.6z"/>
</g>
</svg>
