<?xml version="1.0" encoding="utf-8"?>
<!-- Generator: Adobe Illustrator 24.0.1, SVG Export Plug-In . SVG Version: 6.00 Build 0)  -->
<svg version="1.1" id="Layer_1" xmlns="http://www.w3.org/2000/svg" xmlns:xlink="http://www.w3.org/1999/xlink" x="0px" y="0px"
	 viewBox="0 0 500 500" style="enable-background:new 0 0 500 500;" xml:space="preserve">
<style type="text/css">
	.st0{fill:#FFFFFF;}
</style>
<g>
	<path class="st0" d="M324.4,214.6c-3.5-7-7.6-13.5-13.2-19c-5.1-5-10.5-9.7-16.5-13.8c-6-4-12.5-6.8-18.9-9.7
		c-7.6-3.4-16-4.2-24.2-4.1c-12,0.1-23.7,1.7-34.9,7.1c-5.6,2.8-11.4,5.4-16.3,9c-9.7,7.2-17.2,16.3-22.7,27.1
		c-1.8,3.6-3.3,7.5-4.8,11.2c-0.7,1.6-1.5,3.2-1.7,4.8c-1.3,8-2.4,15.9-3,20c0.1,16.4,4,30.8,10.2,41.6c1.2,2.1,2.9,3.9,4,6
		c3.3,6.1,7.8,11.2,13.1,15.5c3.1,2.5,6.6,4.5,9.5,7.2c5,4.7,11.5,6.2,17.3,9.3c3.2,1.8,7.1,2.5,10.8,3.2c6.3,1.1,12.7,2.9,19,2.5
		c12-0.8,24.1-1.9,34.7-8.6c0.1,0,0.1-0.1,0.2-0.1c7.7-2.3,13.4-7.7,19-12.9c7.4-6.8,13.8-14.3,18-23.8c2-4.6,5-8.8,5.8-14
		c1.1-6.6,3.3-13.2,3.3-19.9C332.9,240,330.5,226.9,324.4,214.6z M315.8,270.6c-0.4,2.2-1.9,4.3-2.7,6.5
		c-4.3,10.6-11.1,19.4-19.9,26.5c-3.8,3-7.6,6.6-12.8,7.6c-1.3,0.3-2.6,1.1-3.8,1.8c-10.1,5.5-21.1,5.9-32.2,5.2
		c-6.9-0.4-13.4-1.9-19.4-5.7c-1.5-0.9-3.4-1-5.1-1.8c-9-4.2-17-9.7-23-17.6c-3.8-5.1-7.7-10.3-9.5-16.6c-0.8-2.6-2.2-5-3-7.6
		c-3.3-9.6-3.2-19.4-2-29.4c1.1-8.3,4.4-15.7,8.1-22.9c4.1-7.7,9.4-14.9,16.7-20c5-3.5,9.8-7.3,15.9-8.8c2-0.5,3.8-1.9,5.8-2.6
		c9.9-3.4,20.1-4,30.6-3c9.2,0.9,17.3,4.8,25,9c8.8,4.7,16.2,11.5,21.9,20.1c3.4,5.3,5.6,11.1,8.7,16.5c1.4,2.4,1.5,5.6,1.9,8.4
		c0.7,4.9,1.1,9.8,1.8,15.6C317.8,257.5,317,264,315.8,270.6z M324.4,214.6c-3.5-7-7.6-13.5-13.2-19c-5.1-5-10.5-9.7-16.5-13.8
		c-6-4-12.5-6.8-18.9-9.7c-7.6-3.4-16-4.2-24.2-4.1c-12,0.1-23.7,1.7-34.9,7.1c-5.6,2.8-11.4,5.4-16.3,9
		c-9.7,7.2-17.2,16.3-22.7,27.1c-1.8,3.6-3.3,7.5-4.8,11.2c-0.7,1.6-1.5,3.2-1.7,4.8c-1.3,8-2.4,15.9-3,20
		c0.1,16.4,4,30.8,10.2,41.6c1.2,2.1,2.9,3.9,4,6c3.3,6.1,7.8,11.2,13.1,15.5c3.1,2.5,6.6,4.5,9.5,7.2c5,4.7,11.5,6.2,17.3,9.3
		c3.2,1.8,7.1,2.5,10.8,3.2c6.3,1.1,12.7,2.9,19,2.5c12-0.8,24.1-1.9,34.7-8.6c0.1,0,0.1-0.1,0.2-0.1c7.7-2.3,13.4-7.7,19-12.9
		c7.4-6.8,13.8-14.3,18-23.8c2-4.6,5-8.8,5.8-14c1.1-6.6,3.3-13.2,3.3-19.9C332.9,240,330.5,226.9,324.4,214.6z M315.8,270.6
		c-0.4,2.2-1.9,4.3-2.7,6.5c-4.3,10.6-11.1,19.4-19.9,26.5c-3.8,3-7.6,6.6-12.8,7.6c-1.3,0.3-2.6,1.1-3.8,1.8
		c-10.1,5.5-21.1,5.9-32.2,5.2c-6.9-0.4-13.4-1.9-19.4-5.7c-1.5-0.9-3.4-1-5.1-1.8c-9-4.2-17-9.7-23-17.6
		c-3.8-5.1-7.7-10.3-9.5-16.6c-0.8-2.6-2.2-5-3-7.6c-3.3-9.6-3.2-19.4-2-29.4c1.1-8.3,4.4-15.7,8.1-22.9c4.1-7.7,9.4-14.9,16.7-20
		c5-3.5,9.8-7.3,15.9-8.8c2-0.5,3.8-1.9,5.8-2.6c9.9-3.4,20.1-4,30.6-3c9.2,0.9,17.3,4.8,25,9c8.8,4.7,16.2,11.5,21.9,20.1
		c3.4,5.3,5.6,11.1,8.7,16.5c1.4,2.4,1.5,5.6,1.9,8.4c0.7,4.9,1.1,9.8,1.8,15.6C317.8,257.5,317,264,315.8,270.6z M428,237.8
		c-0.3-5.2-1.4-10.4-2.7-15.4c-0.5-2.1-2.2-4.2-4-5.5c-4-3-8.8-3.9-13.7-4.2c-5.8-0.3-11.6-0.7-17.3-1c-2.9-0.2-5.3-1.4-6.9-3.9
		c-1.5-2.2-3-4.4-4.3-6.7c-1.9-3.4-4.1-6.7-5.4-10.3c-1.8-5.1,0.1-9.6,3.6-13.6c5.1-5.7,10.2-11.4,15.2-17.3
		c3.5-4.1,3.5-7.5,0.3-11.9c-1-1.3-2-2.6-3-3.9c-4.2-5.1-8.2-10.5-12.6-15.4c-7.9-8.9-17.8-15.7-27-23.2c-3.4-2.8-8.3-2.5-11.4,0.4
		c-5.2,4.8-10.5,9.4-15.4,14.5c-5,5.3-10.7,5.8-16.9,3.2c-3.9-1.6-7.4-4.1-11.2-5.9c-5.7-2.8-7.8-6.6-7.5-14.3
		c0.3-5.4,0.4-10.8,0.2-16.2c-0.3-7-7.1-14.4-14.1-14.7c-7.4-0.3-14.8-0.9-22.3-1.3c0,0.2,0,0.3,0,0.5c-4.4,0-8.8-0.1-13.2,0
		c-5.7,0.2-11.4,0.7-16.8,2.8c-2.9,1.1-5.3,2.8-6.2,5.7c-1.2,3.6-2.2,7.4-2.4,11.2c-0.3,6.1,0.3,12.2,0.4,18.3
		c0.1,4.4-1.4,6.6-5.5,8c-6.2,2.1-12.3,4.1-17.9,7.5c-4.3,2.6-8.8,1.9-12.4-1.7c-2.4-2.4-4.7-4.8-7.1-7.2c-3.5-3.4-7.2-6.6-10.6-10
		c-4.2-4.2-10.2-4.8-14.1-1.1c-6.5,6.2-13.1,12.4-19.6,18.6c-7.3,7.1-14.5,14.2-20.7,22.4c-2.5,3.3-3,7.8-0.7,11.4
		c2,3,3.9,6,6.2,8.8c3.2,4,6.6,7.9,10.1,11.7c4.3,4.7,5.3,10.4,2.3,16c-1.9,3.7-4.3,7-6.3,10.7c-3.1,5.7-8.2,6.5-14,6.7
		c-3.8,0.2-7.6,0.6-11.3,1.4c-3.8,0.8-7.5,2.1-11.2,3.2c-2.7,0.8-5.3,2.1-6.4,4.8c-1.3,3.2-2.5,6.7-2.7,10.1
		c-0.4,5.3,0.2,10.6,0.2,16c0,5.4-0.5,10.8-0.3,16.2c0.2,4.5,0.7,9.1,1.8,13.4c1.3,5.3,4.6,9,10,10.9c6,2.1,12.2,1.8,18.4,1.4
		c4.6-0.3,9.6-0.6,12.7,3.7c3.5,4.8,7,9.7,9.4,15.1c3,6.6,1.2,13.1-3.3,18.7c-4.7,5.8-9.5,11.4-14.2,17.2c-2.5,3.1-2.5,5.5-0.4,8.9
		c1.2,1.9,2.3,3.7,3.8,5.4c5.1,5.9,9.9,12.1,15.5,17.5c6.5,6.3,13.8,11.8,20.7,17.7c7.1,6,14.3,5.7,20.8-0.9
		c3.9-4,8.1-7.7,11.7-11.8c5.6-6.4,14.8-4.6,20.5-2c3,1.4,5.7,3.2,8.6,4.8c2.2,1.2,4,2.7,4.3,5.2c0.4,2.5,0.6,5.1,0.6,7.7
		c0,4.6-0.7,9.3-0.2,13.8c0.4,3.9,1.8,7.8,3.4,11.3c1.7,3.6,4.8,6.2,9.1,6.8c2.5,0.3,5.1,1,7.6,1c12.4,0.1,24.7,0.2,37.1,0
		c4.6,0,9.1-0.5,13.3-3c4-2.4,6.3-5.6,6.4-10.2c0.1-2.1,0.2-4.2,0.1-6.3c-0.3-6.1-0.7-12.2-0.9-18.3c-0.2-4.4,1.8-7.9,5.6-9.9
		c4.4-2.3,9-4.3,14-5.2c5.8-1,11.2-0.8,15.8,3.5c5.1,4.8,10.4,9.5,15.7,14.2c3.9,3.5,9.4,3.9,13.6,0.8c2.8-2,5.3-4.3,7.9-6.6
		c3.7-3.3,7.2-6.7,11-9.9c2.4-2.1,5.7-3.3,7.7-5.7c5.3-6.2,10.1-12.7,14.9-19.3c2.5-3.4,1.8-10.1-0.7-13.6
		c-4.3-6.1-9.6-11.2-15-16.1c-4.1-3.6-5.3-8.1-4.1-13.2c1.4-5.8,4-11.1,7.3-16.1c2.2-3.3,5.1-5.5,9.2-5.8c2.8-0.2,5.6-0.3,8.4-0.3
		c3.8,0,7.5,0.5,11.3,0.3c4.9-0.2,9.1-2.1,12-6.3c3.7-5.5,5.8-11.5,5.9-18C428.6,255.2,428.6,246.5,428,237.8z M413.5,264
		c-0.3,5.3-4.6,10.9-11.2,10.2c-5.7-0.5-11.4-1-17-1.9c-6.6-1-13.2,2.6-14.4,9.2c-1.3,6.7-4.3,12.7-6.7,19
		c-1.6,4.3-3.9,8.3-5.9,12.5c-2.6,5.3-2.1,10,2,14.3c4.6,4.8,9.2,9.6,14.1,14c5,4.5,3.7,11.5,0.3,14.9c-5.5,5.5-11.1,10.8-16.7,16.1
		c-1.3,1.3-2.6,2.5-4,3.7c-4.5,4.2-9.8,3.9-13.8-0.7c-4.3-5-8.7-9.8-13-14.8c-3.7-4.2-8-5.5-13.3-3.6c-3.2,1.2-6.4,2.5-9.5,3.9
		c-6.3,2.8-12.5,5.7-18.8,8.5c-1.1,0.5-2.3,0.5-3.4,0.8c-3.5,0.6-6,2.6-6.9,5.9c-0.7,2.5-0.8,5.2-0.8,7.8c0,4.1,0.4,8.1,0.5,12.2
		c0.1,2.5,0.2,5,0.3,7.5c0.2,5.8-4.4,10.7-10.5,10.7c-9.8,0.1-19.6,0.3-29.3-0.1c-6.5-0.2-11-4.5-10.3-11.8
		c0.5-6.1,0.8-12.2,0.9-18.3c0.2-7.7-3.6-12.7-10.9-14.9c-6.1-1.9-12.2-3.9-18.3-6c-1.5-0.5-2.8-1.6-4.3-2.4
		c-2.2-1.2-4.3-2.7-6.6-3.6c-3.5-1.4-6.6-1-9.3,2.2c-4.6,5.5-9.5,10.8-14,16.4c-3.9,4.8-10,6.5-15.1,1.3
		c-7.4-7.5-15.2-14.5-22.6-21.9c-1.4-1.4-2.3-3.5-3-5.4c-0.8-2.2,0.2-4,1.9-5.6c5.4-5.2,10.9-10.4,16.1-15.8c4.7-4.9,5.2-9.4,2-15.4
		c-2.2-4.1-4.7-8.1-6.6-12.4c-2.7-6.1-5-12.3-7.3-18.5c-1.6-4.1-7.1-7.5-11.6-7.3c-7.2,0.4-14.4,0.7-21.6,0.7
		c-5.1,0-9.2-4.6-9.4-10.2c-0.1-1.9,0.2-3.8,0.3-5.6c0-3.8,0.2-7.5-0.1-11.3c-0.4-4.9,0-9.6,1.3-14.2c0.8-3,3-5.1,6-5.7
		c5.5-1,11.1-1.8,16.7-2.3c2.1-0.2,4.3,0.4,6.4,1c2.5,0.7,4.5-0.1,6.3-1.6c3.1-2.7,5.5-5.8,6.1-10.2c0.3-2.6,1.4-5.3,2.7-7.7
		c2.9-5.4,5.9-10.6,9.1-15.8c3.7-6,3.2-11.4-2-17.3c-5-5.8-10.2-11.5-15.3-17.2c-2.5-2.8-2.9-6.2-0.4-8.9c4.2-4.7,8.7-9.2,13.3-13.6
		c3.3-3.2,7-6.1,10.4-9.2c4.1-3.8,9-3.9,12.9,0.2c4.4,4.6,8.8,9.3,13,14.2c3.5,4,6.9,5.3,11.8,3.4c3.3-1.2,6.3-3.1,9.4-4.6
		c1.8-0.8,3.6-1.5,5.3-2.4c4.1-1.9,8.1-3.9,12.3-5.8c1.5-0.7,3.1-1.1,4.7-1.3c9.2-0.8,11.2-4.6,11.2-12.9c0-6.5-0.3-13-0.4-19.5
		c-0.1-6.1,2.7-9.5,8.8-10c5-0.4,10-0.1,15-0.1c0-0.2,0-0.4,0-0.6c6,0.4,12,0.6,18,1.3c4.7,0.6,7.1,3.7,7.1,8.5
		c-0.1,6.8-0.4,13.6-0.9,20.4c-0.5,6.5,2.8,11.1,9.1,12.4c3.8,0.8,7.6,1.9,10.8,4.3c1.2,0.9,2.8,1.3,4.2,2c3.4,1.8,6.8,3.7,10.3,5.5
		c7.5,3.8,10.9,3.3,16.5-1.9c5.1-4.7,10.2-9.5,15.2-14.3c3.7-3.5,7.8-3.5,11.4,0.1c5.6,5.4,11.1,10.8,16.7,16.2
		c2.2,2.2,4.3,4.5,6.3,6.9c3.1,3.7,3.3,8.3,0.1,12c-3.3,3.8-7,7.4-10.5,11c-1.1,1.1-2.2,2.3-3.4,3.3c-6.9,5.7-6.1,12.3-1.8,19.7
		c1.5,2.5,2.6,5.2,3.9,7.8c1.3,2.7,2.5,5.4,3.7,8.1c1.2,2.8,2.4,5.6,3.6,8.4c2.4,5.7,7.2,11,15.4,8.8c6.2-1.6,12.7-1.6,19.1,0.2
		c5.3,1.5,8.2,4.7,8.4,10.8C413.8,246.5,413.9,255.3,413.5,264z M311.2,195.7c-5.1-5-10.5-9.7-16.5-13.8c-6-4-12.5-6.8-18.9-9.7
		c-7.6-3.4-16-4.2-24.2-4.1c-12,0.1-23.7,1.7-34.9,7.1c-5.6,2.8-11.4,5.4-16.3,9c-9.7,7.2-17.2,16.3-22.7,27.1
		c-1.8,3.6-3.3,7.5-4.8,11.2c-0.7,1.6-1.5,3.2-1.7,4.8c-1.3,8-2.4,15.9-3,20c0.1,16.4,4,30.8,10.2,41.6c1.2,2.1,2.9,3.9,4,6
		c3.3,6.1,7.8,11.2,13.1,15.5c3.1,2.5,6.6,4.5,9.5,7.2c5,4.7,11.5,6.2,17.3,9.3c3.2,1.8,7.1,2.5,10.8,3.2c6.3,1.1,12.7,2.9,19,2.5
		c12-0.8,24.1-1.9,34.7-8.6c0.1,0,0.1-0.1,0.2-0.1c7.7-2.3,13.4-7.7,19-12.9c7.4-6.8,13.8-14.3,18-23.8c2-4.6,5-8.8,5.8-14
		c1.1-6.6,3.3-13.2,3.3-19.9c0-13.4-2.4-26.5-8.6-38.8C320.9,207.6,316.8,201.1,311.2,195.7z M315.8,270.6c-0.4,2.2-1.9,4.3-2.7,6.5
		c-4.3,10.6-11.1,19.4-19.9,26.5c-3.8,3-7.6,6.6-12.8,7.6c-1.3,0.3-2.6,1.1-3.8,1.8c-10.1,5.5-21.1,5.9-32.2,5.2
		c-6.9-0.4-13.4-1.9-19.4-5.7c-1.5-0.9-3.4-1-5.1-1.8c-9-4.2-17-9.7-23-17.6c-3.8-5.1-7.7-10.3-9.5-16.6c-0.8-2.6-2.2-5-3-7.6
		c-3.3-9.6-3.2-19.4-2-29.4c1.1-8.3,4.4-15.7,8.1-22.9c4.1-7.7,9.4-14.9,16.7-20c5-3.5,9.8-7.3,15.9-8.8c2-0.5,3.8-1.9,5.8-2.6
		c9.9-3.4,20.1-4,30.6-3c9.2,0.9,17.3,4.8,25,9c8.8,4.7,16.2,11.5,21.9,20.1c3.4,5.3,5.6,11.1,8.7,16.5c1.4,2.4,1.5,5.6,1.9,8.4
		c0.7,4.9,1.1,9.8,1.8,15.6C317.8,257.5,317,264,315.8,270.6z"/>
	<path d="M428,237.8c-0.3-5.2-1.4-10.4-2.7-15.4c-0.5-2.1-2.2-4.2-4-5.5c-4-3-8.8-3.9-13.7-4.2c-5.8-0.3-11.6-0.7-17.3-1
		c-2.9-0.2-5.3-1.4-6.9-3.9c-1.5-2.2-3-4.4-4.3-6.7c-1.9-3.4-4.1-6.7-5.4-10.3c-1.8-5.1,0.1-9.6,3.6-13.6
		c5.1-5.7,10.2-11.4,15.2-17.3c3.5-4.1,3.5-7.5,0.3-11.9c-1-1.3-2-2.6-3-3.9c-4.2-5.1-8.2-10.5-12.6-15.4
		c-7.9-8.9-17.8-15.7-27-23.2c-3.4-2.8-8.3-2.5-11.4,0.4c-5.2,4.8-10.5,9.4-15.4,14.5c-5,5.3-10.7,5.8-16.9,3.2
		c-3.9-1.6-7.4-4.1-11.2-5.9c-5.7-2.8-7.8-6.6-7.5-14.3c0.3-5.4,0.4-10.8,0.2-16.2c-0.3-7-7.1-14.4-14.1-14.7
		c-7.4-0.3-14.8-0.9-22.3-1.3c0,0.2,0,0.3,0,0.5c-4.4,0-8.8-0.1-13.2,0c-5.7,0.2-11.4,0.7-16.8,2.8c-2.9,1.1-5.3,2.8-6.2,5.7
		c-1.2,3.6-2.2,7.4-2.4,11.2c-0.3,6.1,0.3,12.2,0.4,18.3c0.1,4.4-1.4,6.6-5.5,8c-6.2,2.1-12.3,4.1-17.9,7.5
		c-4.3,2.6-8.8,1.9-12.4-1.7c-2.4-2.4-4.7-4.8-7.1-7.2c-3.5-3.4-7.2-6.6-10.6-10c-4.2-4.2-10.2-4.8-14.1-1.1
		c-6.5,6.2-13.1,12.4-19.6,18.6c-7.3,7.1-14.5,14.2-20.7,22.4c-2.5,3.3-3,7.8-0.7,11.4c2,3,3.9,6,6.2,8.8c3.2,4,6.6,7.9,10.1,11.7
		c4.3,4.7,5.3,10.4,2.3,16c-1.9,3.7-4.3,7-6.3,10.7c-3.1,5.7-8.2,6.5-14,6.7c-3.8,0.2-7.6,0.6-11.3,1.4c-3.8,0.8-7.5,2.1-11.2,3.2
		c-2.7,0.8-5.3,2.1-6.4,4.8c-1.3,3.2-2.5,6.7-2.7,10.1c-0.4,5.3,0.2,10.6,0.2,16c0,5.4-0.5,10.8-0.3,16.2c0.2,4.5,0.7,9.1,1.8,13.4
		c1.3,5.3,4.6,9,10,10.9c6,2.1,12.2,1.8,18.4,1.4c4.6-0.3,9.6-0.6,12.7,3.7c3.5,4.8,7,9.7,9.4,15.1c3,6.6,1.2,13.1-3.3,18.7
		c-4.7,5.8-9.5,11.4-14.2,17.2c-2.5,3.1-2.5,5.5-0.4,8.9c1.2,1.9,2.3,3.7,3.8,5.4c5.1,5.9,9.9,12.1,15.5,17.5
		c6.5,6.3,13.8,11.8,20.7,17.7c7.1,6,14.3,5.7,20.8-0.9c3.9-4,8.1-7.7,11.7-11.8c5.6-6.4,14.8-4.6,20.5-2c3,1.4,5.7,3.2,8.6,4.8
		c2.2,1.2,4,2.7,4.3,5.2c0.4,2.5,0.6,5.1,0.6,7.7c0,4.6-0.7,9.3-0.2,13.8c0.4,3.9,1.8,7.8,3.4,11.3c1.7,3.6,4.8,6.2,9.1,6.8
		c2.5,0.3,5.1,1,7.6,1c12.4,0.1,24.7,0.2,37.1,0c4.6,0,9.1-0.5,13.3-3c4-2.4,6.3-5.6,6.4-10.2c0.1-2.1,0.2-4.2,0.1-6.3
		c-0.3-6.1-0.7-12.2-0.9-18.3c-0.2-4.4,1.8-7.9,5.6-9.9c4.4-2.3,9-4.3,14-5.2c5.8-1,11.2-0.8,15.8,3.5c5.1,4.8,10.4,9.5,15.7,14.2
		c3.9,3.5,9.4,3.9,13.6,0.8c2.8-2,5.3-4.3,7.9-6.6c3.7-3.3,7.2-6.7,11-9.9c2.4-2.1,5.7-3.3,7.7-5.7c5.3-6.2,10.1-12.7,14.9-19.3
		c2.5-3.4,1.8-10.1-0.7-13.6c-4.3-6.1-9.6-11.2-15-16.1c-4.1-3.6-5.3-8.1-4.1-13.2c1.4-5.8,4-11.1,7.3-16.1c2.2-3.3,5.1-5.5,9.2-5.8
		c2.8-0.2,5.6-0.3,8.4-0.3c3.8,0,7.5,0.5,11.3,0.3c4.9-0.2,9.1-2.1,12-6.3c3.7-5.5,5.8-11.5,5.9-18
		C428.6,255.2,428.6,246.5,428,237.8z M413.5,264c-0.3,5.3-4.6,10.9-11.2,10.2c-5.7-0.5-11.4-1-17-1.9c-6.6-1-13.2,2.6-14.4,9.2
		c-1.3,6.7-4.3,12.7-6.7,19c-1.6,4.3-3.9,8.3-5.9,12.5c-2.6,5.3-2.1,10,2,14.3c4.6,4.8,9.2,9.6,14.1,14c5,4.5,3.7,11.5,0.3,14.9
		c-5.5,5.5-11.1,10.8-16.7,16.1c-1.3,1.3-2.6,2.5-4,3.7c-4.5,4.2-9.8,3.9-13.8-0.7c-4.3-5-8.7-9.8-13-14.8c-3.7-4.2-8-5.5-13.3-3.6
		c-3.2,1.2-6.4,2.5-9.5,3.9c-6.3,2.8-12.5,5.7-18.8,8.5c-1.1,0.5-2.3,0.5-3.4,0.8c-3.5,0.6-6,2.6-6.9,5.9c-0.7,2.5-0.8,5.2-0.8,7.8
		c0,4.1,0.4,8.1,0.5,12.2c0.1,2.5,0.2,5,0.3,7.5c0.2,5.8-4.4,10.7-10.5,10.7c-9.8,0.1-19.6,0.3-29.3-0.1c-6.5-0.2-11-4.5-10.3-11.8
		c0.5-6.1,0.8-12.2,0.9-18.3c0.2-7.7-3.6-12.7-10.9-14.9c-6.1-1.9-12.2-3.9-18.3-6c-1.5-0.5-2.8-1.6-4.3-2.4
		c-2.2-1.2-4.3-2.7-6.6-3.6c-3.5-1.4-6.6-1-9.3,2.2c-4.6,5.5-9.5,10.8-14,16.4c-3.9,4.8-10,6.5-15.1,1.3
		c-7.4-7.5-15.2-14.5-22.6-21.9c-1.4-1.4-2.3-3.5-3-5.4c-0.8-2.2,0.2-4,1.9-5.6c5.4-5.2,10.9-10.4,16.1-15.8c4.7-4.9,5.2-9.4,2-15.4
		c-2.2-4.1-4.7-8.1-6.6-12.4c-2.7-6.1-5-12.3-7.3-18.5c-1.6-4.1-7.1-7.5-11.6-7.3c-7.2,0.4-14.4,0.7-21.6,0.7
		c-5.1,0-9.2-4.6-9.4-10.2c-0.1-1.9,0.2-3.8,0.3-5.6c0-3.8,0.2-7.5-0.1-11.3c-0.4-4.9,0-9.6,1.3-14.2c0.8-3,3-5.1,6-5.7
		c5.5-1,11.1-1.8,16.7-2.3c2.1-0.2,4.3,0.4,6.4,1c2.5,0.7,4.5-0.1,6.3-1.6c3.1-2.7,5.5-5.8,6.1-10.2c0.3-2.6,1.4-5.3,2.7-7.7
		c2.9-5.4,5.9-10.6,9.1-15.8c3.7-6,3.2-11.4-2-17.3c-5-5.8-10.2-11.5-15.3-17.2c-2.5-2.8-2.9-6.2-0.4-8.9c4.2-4.7,8.7-9.2,13.3-13.6
		c3.3-3.2,7-6.1,10.4-9.2c4.1-3.8,9-3.9,12.9,0.2c4.4,4.6,8.8,9.3,13,14.2c3.5,4,6.9,5.3,11.8,3.4c3.3-1.2,6.3-3.1,9.4-4.6
		c1.8-0.8,3.6-1.5,5.3-2.4c4.1-1.9,8.1-3.9,12.3-5.8c1.5-0.7,3.1-1.1,4.7-1.3c9.2-0.8,11.2-4.6,11.2-12.9c0-6.5-0.3-13-0.4-19.5
		c-0.1-6.1,2.7-9.5,8.8-10c5-0.4,10-0.1,15-0.1c0-0.2,0-0.4,0-0.6c6,0.4,12,0.6,18,1.3c4.7,0.6,7.1,3.7,7.1,8.5
		c-0.1,6.8-0.4,13.6-0.9,20.4c-0.5,6.5,2.8,11.1,9.1,12.4c3.8,0.8,7.6,1.9,10.8,4.3c1.2,0.9,2.8,1.3,4.2,2c3.4,1.8,6.8,3.7,10.3,5.5
		c7.5,3.8,10.9,3.3,16.5-1.9c5.1-4.7,10.2-9.5,15.2-14.3c3.7-3.5,7.8-3.5,11.4,0.1c5.6,5.4,11.1,10.8,16.7,16.2
		c2.2,2.2,4.3,4.5,6.3,6.9c3.1,3.7,3.3,8.3,0.1,12c-3.3,3.8-7,7.4-10.5,11c-1.1,1.1-2.2,2.3-3.4,3.3c-6.9,5.7-6.1,12.3-1.8,19.7
		c1.5,2.5,2.6,5.2,3.9,7.8c1.3,2.7,2.5,5.4,3.7,8.1c1.2,2.8,2.4,5.6,3.6,8.4c2.4,5.7,7.2,11,15.4,8.8c6.2-1.6,12.7-1.6,19.1,0.2
		c5.3,1.5,8.2,4.7,8.4,10.8C413.8,246.5,413.9,255.3,413.5,264z"/>
	<path d="M324.4,214.6c-3.5-7-7.6-13.5-13.2-19c-5.1-5-10.5-9.7-16.5-13.8c-6-4-12.5-6.8-18.9-9.7c-7.6-3.4-16-4.2-24.2-4.1
		c-12,0.1-23.7,1.7-34.9,7.1c-5.6,2.8-11.4,5.4-16.3,9c-9.7,7.2-17.2,16.3-22.7,27.1c-1.8,3.6-3.3,7.5-4.8,11.2
		c-0.7,1.6-1.5,3.2-1.7,4.8c-1.3,8-2.4,15.9-3,20c0.1,16.4,4,30.8,10.2,41.6c1.2,2.1,2.9,3.9,4,6c3.3,6.1,7.8,11.2,13.1,15.5
		c3.1,2.5,6.6,4.5,9.5,7.2c5,4.7,11.5,6.2,17.3,9.3c3.2,1.8,7.1,2.5,10.8,3.2c6.3,1.1,12.7,2.9,19,2.5c12-0.8,24.1-1.9,34.7-8.6
		c0.1,0,0.1-0.1,0.2-0.1c7.7-2.3,13.4-7.7,19-12.9c7.4-6.8,13.8-14.3,18-23.8c2-4.6,5-8.8,5.8-14c1.1-6.6,3.3-13.2,3.3-19.9
		C332.9,240,330.5,226.9,324.4,214.6z M315.8,270.6c-0.4,2.2-1.9,4.3-2.7,6.5c-4.3,10.6-11.1,19.4-19.9,26.5
		c-3.8,3-7.6,6.6-12.8,7.6c-1.3,0.3-2.6,1.1-3.8,1.8c-10.1,5.5-21.1,5.9-32.2,5.2c-6.9-0.4-13.4-1.9-19.4-5.7
		c-1.5-0.9-3.4-1-5.1-1.8c-9-4.2-17-9.7-23-17.6c-3.8-5.1-7.7-10.3-9.5-16.6c-0.8-2.6-2.2-5-3-7.6c-3.3-9.6-3.2-19.4-2-29.4
		c1.1-8.3,4.4-15.7,8.1-22.9c4.1-7.7,9.4-14.9,16.7-20c5-3.5,9.8-7.3,15.9-8.8c2-0.5,3.8-1.9,5.8-2.6c9.9-3.4,20.1-4,30.6-3
		c9.2,0.9,17.3,4.8,25,9c8.8,4.7,16.2,11.5,21.9,20.1c3.4,5.3,5.6,11.1,8.7,16.5c1.4,2.4,1.5,5.6,1.9,8.4c0.7,4.9,1.1,9.8,1.8,15.6
		C317.8,257.5,317,264,315.8,270.6z"/>
</g>
</svg>
