<?xml version="1.0" encoding="utf-8"?>
<!-- Generator: Adobe Illustrator 24.0.1, SVG Export Plug-In . SVG Version: 6.00 Build 0)  -->
<svg version="1.1" id="Layer_1" xmlns="http://www.w3.org/2000/svg" xmlns:xlink="http://www.w3.org/1999/xlink" x="0px" y="0px"
	 viewBox="0 0 500 500" style="enable-background:new 0 0 500 500;" xml:space="preserve">
<g>
	<path d="M444.6,321.8c-3.9-12.9-9.7-24.6-18.4-34.8c-13.3-15.5-30.2-25-50.3-28.6c-13.7-2.4-27.2-1.5-40.6,2.6
		c-7.8,2.4-15.1,5.7-22,10c-6.8,4.2-12.9,9.5-17.8,15.9c-4.4,5.6-9.1,11.1-12.4,17.4c-5.5,10.4-9.1,21.5-10,33.4
		c-1.1,14.7,1.1,29,6.4,42.6c3.9,10,9.9,18.8,17.2,26.7c0.8,0.8,1.5,2.6,1.1,3.4c-0.3,0.8-2.1,1.4-3.3,1.4
		c-5.2,0.1-10.5-0.2-15.7-0.2c-64.8,0-129.5-0.1-194.3,0.2c-13.9,0.1-24.7-10.8-24.2-24.6c0.2-4.7,0.4-9.3,0.4-14
		c0-13.3-0.1-26.6-0.1-40c0-18.9,0.2-37.9,0.2-56.9c-0.1-29-0.3-57.9-0.4-86.9c0-6.3,1-7.2,7.4-7.1c6.9,0.2,13.9,0.3,20.8,0.3
		c44.6,0,89.1,0,133.7,0v0.2c38.4,0,76.8,0,115.2,0c11.5,0,23-0.1,34.6-0.3c4.4-0.1,6.3,1.2,6.4,5.5c0.1,3.1-0.3,6.3-0.3,9.4
		c0.1,14.6,0.2,29.1,0.5,43.7c0,1.8,0.7,3.8,1.6,5.3c0.5,0.9,2.2,1.8,3.2,1.6c1.1-0.2,2.4-1.4,3-2.5c0.6-1.3,0.6-3,0.6-4.5
		c0-3.4-0.3-6.8-0.3-10.3c0-19.8,0.1-39.6,0.1-59.4c0-12.9,0.1-25.7-0.3-38.5c-0.4-15.8-13.1-27.7-27.5-29.2
		c-7.1-0.8-14.3-0.2-21.4,0c-4.2,0.2-5.9-1.3-5.8-5.6c0.1-3.9,0.2-7.8-0.1-11.7c-0.7-9.4-5.1-16.1-14.1-20c-11.7-5.1-26,3.6-28,14.5
		c-1.1,6-0.9,12.3-1.2,18.5c-0.2,3.7-1.3,5-5,5.1c-2.8,0-5.5-0.3-8.3-0.3c-13.8,0.1-27.6,0.3-41.4,0.3c-26.9,0.1-53.7,0.1-80.6,0.2
		c-4.2,0-5.5-1.6-5.3-5.8c0.2-4.7,0.1-9.5-0.2-14.2c-0.3-4.7-2.4-8.7-5.5-12c-6.1-6.3-13.7-8.6-22.2-6.1
		c-8.6,2.5-12.9,9.2-14.4,17.6c-0.9,5-0.5,10.2-0.7,15.4c-0.2,4-1.7,5-5.6,4.9c-7.9-0.3-15.8-0.3-23.7-0.2c-1.7,0-3.6,0.7-5.1,1.5
		c-12.2,6.2-18.4,15.9-18.3,29.8c0.1,30.8,0,61.5,0,92.3c0,53.3,0.1,106.5,0.1,159.8c0,7.5,2,14.4,6,20.5c1.8,2.8,4.8,5.1,7.6,7.1
		c5.8,4.3,12.7,4.7,19.6,4.7c70.6-0.1,141.1-0.1,211.7-0.2c1.5,0,3.1-0.2,4.4-0.9c2.7-1.4,5.1-1,7.6,0.3c5.5,2.9,11,5.9,16.6,8.7
		c9.4,4.7,19.5,6.9,30,7.2c13.4,0.4,26-2.7,38.3-7.8c10.6-4.4,19.7-10.8,27.7-18.7c12.5-12.5,21-27.6,24.4-45
		C448.8,349.5,448.7,335.7,444.6,321.8z M296.9,89.6c0.1-3,0.6-6.4,2-9c3.2-5.9,8.4-7.7,14.8-6c5.7,1.5,9.7,6.4,10,12.4
		c0.1,2.8,0,5.5,0,8.3h0.4v30.8c0,4.3-1,8.4-3.7,11.8c-6.1,7.5-15.8,6.5-21.1-2.3c-1.4-2.4-2.4-5.5-2.4-8.3
		C296.7,114.7,296.7,102.2,296.9,89.6z M112.7,88.1c0.2-6.5,3.9-11.5,9.9-13.6c6.3-2.2,16.3,1.9,17,10.3c0.6,7.9,0.1,15.9,0.1,23.9
		c0,0-0.1,0-0.1,0c0,7.1,0.3,14.3-0.1,21.4c-0.3,7-7.7,13-14.6,12.3c-5.8-0.6-12-6.9-12.2-13c-0.2-8.7-0.1-17.5-0.2-26.2
		C112.7,98.2,112.6,93.2,112.7,88.1z M60.7,131.4c0.9-11,9.9-19.3,21-19.4c5.8,0,11.6,0.1,17.4,0.2c4.1,0.1,5.5,1.5,5.6,5.8
		c0.1,4.1-0.1,8.2,0,12.3c0.5,14.2,14.7,24.5,28.3,20.2c7.9-2.5,13.8-9.4,14.6-18.7c0.4-4.2,0.4-8.5,0.3-12.8
		c-0.1-5.6,1.5-7.2,7.1-6.8c3.8,0.3,7.6,0.3,11.4,0.3c29.1,0,58.3,0,87.4,0c9.5,0,19-0.2,28.5-0.3c5.3-0.1,6.5,1.5,6.4,6.9
		c-0.1,5.1-0.3,10.4,0.8,15.3c2.2,9.9,9.5,15.8,19.9,16.6c11.8,0.9,20-7.5,22.1-15.3c1-3.9,0.6-8.1,0.7-12.2c0.1-2.6,0-5.2,0.1-7.7
		c0.1-2.8,1.6-4.3,4.2-4.4c6.8-0.1,13.6-0.3,20.3,0.2c11.2,0.9,22,10.8,22.2,24c0.2,10.5,0.1,21,0.1,31.4c0,5.2-1.6,6.8-6.6,6.8
		c-51.2,0-102.5,0-153.7,0v0.3c-22.9,0-45.7,0-68.6,0c-28.3-0.1-56.6-0.2-84.8-0.3c-3.3,0-4.7-1-4.7-4.3c-0.1-8.4,0-16.8,0-25.1
		C60.6,140.1,60.3,135.7,60.7,131.4z M428.7,386c-8.3,14.3-19.9,25.1-34.6,32.1c-15.2,7.2-31.3,11.1-48.2,7.7
		c-16.9-3.4-32.2-10.3-43.3-24c-5.2-6.4-9.5-13.5-13.4-20.8c-8.6-16.2-10.4-33.6-7-51.3c1.6-8.7,5.4-16.7,10.4-24.2
		c5.3-8,11.2-15.3,18.4-21.7c10.8-9.7,23.7-14.8,37.8-17.5c16.8-3.2,32.7,0,47.7,7.4c14,7,24.9,17.5,32.7,31.3
		c7.4,13,11.5,28,10.8,41C440.4,360.2,436,373.4,428.7,386z"/>
	<path d="M140.4,216c-0.3-6.5-3-8.5-9.6-8.4c-10.4,0.1-20.7,0.1-31.1,0.2c-5.2,0-7.5,2.1-7.9,7.3c-0.1,0.7-0.1,1.3-0.1,2
		c-0.1,10.2-0.1,20.4-0.1,30.5c0,5.8,2.1,7.9,7.9,8c5.3,0,10.7,0,16,0c0,0,0,0,0,0h9.1c3.1,0,6.3,0.1,9.4-0.1
		c4.1-0.3,6.6-2.4,6.6-5.8C140.8,238.5,140.8,227.2,140.4,216z M126.4,247.6c-6.9-0.1-13.9-0.1-20.8-0.1c-4.9,0-6.5-1.9-6.2-6.9
		c0.3-5.9,0.1-11.8,0.1-17.7c0-1.3,0-2.7,0.2-4c0.3-2.4,1.8-3.4,4.2-3.3c7.7,0.2,15.4,0.4,23.1,0.5c4.1,0.1,5.6,1.7,5.5,5.8
		c-0.1,3.3,0,6.7,0,10h0.1c0,3.1-0.1,6.3,0,9.4C132.7,246.2,131.3,247.7,126.4,247.6z"/>
	<path d="M277.4,237.4c0-6.6,0.1-13.1-0.1-19.7c-0.2-6.8-2.5-9-9.2-9.1c-10-0.1-20-0.2-30-0.3c-6.2,0-8.6,2.2-8.7,8.6
		c-0.1,6.7,0.1,13.3,0.1,20c0,4-0.2,8,0,12c0.2,4.1,2.3,6.4,6.4,6.6c5.9,0.2,11.8,0.1,17.7,0.1v0.1c5.5,0,11,0.2,16.5-0.1
		c4.7-0.2,7.5-3.3,7.5-7.9C277.5,244.3,277.4,240.8,277.4,237.4z M269.9,242.2c-0.1,3.5-1.3,4.7-4.9,4.8c-7.4,0.2-14.8,0.4-22.2,0.6
		c-3.5,0.1-5.4-1.5-5.4-5.1c-0.1-3.5,0-7,0-10.6h0c0-3.3,0-6.7,0-10c0.1-4.1,1.7-5.8,5.7-5.8c7.5,0.1,15,0.3,22.5,0.5
		c3,0.1,4.3,1.3,4.3,4.4C270,228.1,270,235.2,269.9,242.2z"/>
	<path d="M208.5,280.6c-1-5.6-2.9-7.3-8.6-7.3c-10.1,0-20.2,0.1-30.3,0.2c-6,0-8.2,2.1-8.3,8.2c-0.1,4.2,0.1,8.4,0.1,12.5
		c0,6.3-0.2,12.6-0.2,18.8c0,4.9,2.6,7.5,6.7,7.5c5.7-0.1,11.4,0,17.1,0v-0.2c5.7,0,11.4,0,17.1,0c3.5,0,4.8-1,5.6-4.4
		c0.3-1.4,0.7-2.8,0.7-4.2c0.1-9.9,0.1-19.8,0.1-29.6C208.7,281.5,208.6,281,208.5,280.6z M200.9,289c-0.2,5.9-0.1,11.8-0.1,17.6
		c-0.1,4.2-1.5,5.6-5.7,5.6c-2.8,0-5.5,0-8.3,0c0-0.1,0-0.2,0-0.3c-3.9,0.2-7.8,0.4-11.7,0.6c-4.6,0.3-6.3-1.6-6.2-6.3
		c0.2-5.8,0.2-11.6,0-17.4c-0.2-5.4,1.6-7.3,7-7.2c6.1,0.1,12.2,0.1,18.2,0.1C199.7,281.8,201.1,283.4,200.9,289z"/>
	<path d="M208.8,216.4c-0.1-6-3-8.7-9-8.7c-10.6,0-21.1,0.2-31.7,0.3c-3.9,0.1-6.5,2.4-6.7,6.3c-0.2,3.1,0.1,6.3,0.1,9.4
		c0,7.8-0.1,15.6-0.1,23.4c0,6.1,2.5,8.5,8.5,8.5c5,0,10.1,0,15.1,0v-0.2c5.6,0,11.2,0.1,16.8,0c4.1-0.1,6.9-2.7,7-6.8
		C208.9,237.9,209,227.2,208.8,216.4z M201.1,223.3c-0.3,5.6-0.3,11.2-0.2,16.8c0,5.7-1.6,7.4-7.2,7.5c-6.4,0.1-12.8,0.2-19.1,0.4
		c-3.9,0.1-5.8-1.7-5.8-5.7c0-6.8,0-13.7,0-20.5c0-4.4,1.2-5.6,5.5-5.6c1.7,0,3.4,0.1,5.1,0.1c1.6,0,3.2,0,4.9,0v-0.1
		c3.5,0,7-0.1,10.6,0C199.7,216.2,201.3,218.5,201.1,223.3z"/>
	<path d="M140.2,280.8c-0.1-2-1.4-4.4-3-5.8c-1.3-1.1-3.7-1.3-5.7-1.3c-9.9-0.1-19.8,0.1-29.7-0.2c-6-0.2-9.5,2.6-9.6,8.5
		c-0.1,5,0,10.1,0,15.1h-0.1c0,5.1-0.1,10.3,0,15.4c0.1,5.7,2,7.6,7.6,7.6c3,0,6.1-0.1,9.1,0c7.5,0.1,15,0.3,22.5,0.3
		c7,0.1,9.2-1.6,9.2-7.8C140.8,302.1,140.6,291.4,140.2,280.8z M132.7,308.6c0,2.8-1.9,4.1-5.2,3.9c-3.9-0.2-7.8-0.3-11.7-0.5
		c0,0.1,0,0.1,0,0.2c-3.9,0-7.8,0.1-11.7,0c-3.3-0.1-4.3-1.4-4.3-4.7c0.1-6.1,0.2-12.2,0.3-18.3c0-1.2,0-2.5,0.1-3.7
		c0.2-2.3,1.5-3.7,3.9-3.7c8,0,16-0.1,24,0.1c3,0,4.6,1.6,4.6,4.7C132.8,294,132.8,301.3,132.7,308.6z"/>
	<path d="M140.3,362.7c0-6.2,0.1-12.3,0-18.5c-0.1-5-1.9-6.8-6.8-7.3c-1.2-0.1-2.5-0.1-3.7-0.1c-9.3,0-18.6,0.3-27.9,0
		c-6.1-0.2-9.5,2.4-9.5,8.5c-0.1,10.1-0.1,20.2-0.1,30.2c0,6.3,2.3,8.5,8.7,8.5c5.1,0,10.3,0,15.4,0v0c5.4,0,10.8,0.1,16.3,0
		c5.2-0.1,7.2-1.8,7.7-6.9C140.6,372.5,140.3,367.6,140.3,362.7z M132.8,371.7c0,3.2-1.3,4.5-4.5,4.5c-4,0.1-8,0-12,0v-0.1
		c-3.9,0-7.8,0-11.7,0c-4.1,0-5.2-1.4-5.1-5.4c0.2-6.3,0.2-12.5,0.1-18.8c-0.1-4.9,1.4-6.6,6.2-6.6c7,0,14.1-0.1,21.1-0.1
		c4.2,0,5.9,1.7,5.9,5.9C132.9,358,132.9,364.9,132.8,371.7z"/>
	<path d="M346.5,214.2c-0.1-3.4-1.9-5-5.3-5c-6-0.1-12,0-18,0v-0.3c-5.7,0-11.4,0.1-17.1,0c-5.3-0.2-7.6,1.7-7.7,7.1
		c-0.1,10.2-0.3,20.4-0.3,30.5c0,5.6,2.7,8.6,8.4,8.5c7.7-0.1,15.4-0.2,23.1-0.6c3.5-0.2,7.1-0.5,9.5-3.7c0.3-0.4,0.9-0.6,1.5-0.7
		c4.9-1.2,6.5-2.6,6.5-7.4C347,233,346.8,223.6,346.5,214.2z M338.9,222.8c-0.3,6.4-0.3,12.8-0.4,19.1c-0.1,4.2-0.8,4.7-5,4.4
		c-3.3-0.2-6.6-0.2-10-0.2c-3.7,0-7.4,0.2-11.1,0.2c-5.5,0-6.4-1.4-6.2-6.9c0.3-5.4,0.1-10.8,0-16.3c-0.1-4.2,0.9-5.7,5.1-5.8
		c3.9-0.1,7.8,0,11.7,0v-0.1c3.6,0,7.2,0,10.8,0C338.1,217.2,339.1,218.6,338.9,222.8z"/>
	<path d="M208.7,343.7c0-4.2-3-6.5-7.1-6.5c-10.9,0-21.9,0.1-32.8,0.2c-4.4,0-7.8,2.9-8,7.2c-0.3,5.3,0,10.6,0,16
		c0,5.2-0.1,10.5,0,15.7c0.1,5.1,2.8,7.7,7.8,7.8c5.5,0.1,11,0,16.6,0v0c5.8,0,11.6,0.1,17.4,0c3.5-0.1,5.6-1.6,5.7-5
		C208.6,367.3,208.8,355.5,208.7,343.7z M201.4,352.6c-0.2,6-0.1,12-0.1,18c0,4.4-1.1,5.5-5.6,5.6c-3.6,0.1-7.2,0-10.8,0v0.3
		c-3.5,0-7-0.1-10.5,0c-5.1,0.1-6.3-1.3-6.2-6.3c0.1-5.9,0.1-11.8,0-17.7c-0.1-6.1,1.3-7.4,7.3-7.2c6.3,0.2,12.5,0.1,18.8,0
		C200.3,345.3,201.6,346.7,201.4,352.6z"/>
	<path d="M277.4,283.1c0,6.1-0.1,12.2-0.6,18.2c-0.2,2.2-1.5,4.4-2.7,6.4c-0.5,0.9-2.1,1.8-2.9,1.6c-0.9-0.2-1.9-1.7-2-2.7
		c-0.6-5.7-1-11.3-1.5-17c-0.1-0.8,0.1-1.5,0.1-2.3c-0.1-3.6-2-5.4-5.6-5.3c-6.4,0.2-12.7,0.3-19.1,0.4c-4,0.1-6.1,1.9-6.2,5.8
		c-0.2,6.8-0.4,13.7-0.5,20.5c-0.1,2.7,1.3,4,4.4,4c7-0.1,14.1-0.5,21.1-0.8c0.1,0,0.2,0,0.3-0.1c4.1-0.5,6.3,0.3,6.6,2.3
		c0.4,2.6-3,6.4-6.1,6.5c-4.7,0.2-9.3,0.1-14,0.1c-3.7,0-7.4,0.1-11.1,0c-6.3-0.1-8.5-2.3-8.6-8.7c-0.1-3.9,0.4-7.8,0.4-11.7
		c0-5.9-0.3-11.8-0.4-17.7c0-1.4,0.2-2.9,0.6-4.2c1.1-3.6,2.4-4.6,6.2-4.5c10.9,0.1,21.9,0.2,32.8,0.4
		C273.8,274.4,277.4,277.8,277.4,283.1z"/>
	<path d="M266.8,382.1c-0.1,1-2.1,2.5-3.3,2.5c-9.8,0-19.6-0.1-29.4-0.5c-3.2-0.1-5-2.8-5.3-6.8c-0.2-2.5,0-4.9,0-7.4v-9.4h0.1
		c0-5-0.1-9.9,0-14.8c0.1-1.7,0.5-3.4,1-5c0.7-2.2,2.3-3.4,4.8-3.3c7.7,0.1,15.4,0,23.1,0c2.3,0,3.9,0.9,4.2,3.3
		c0.3,2.4-1.1,3.8-3.3,4.3c-1.5,0.3-3,0.4-4.5,0.5c-3.5,0.1-7,0-10.6,0c-4.7,0-6.7,1.9-6.8,6.7c-0.1,3.4,0.1,6.9,0,10.3
		c-0.1,3-0.2,6.1-0.4,9.1c-0.2,3.4,1.9,5.7,5.3,5.6c6.6-0.1,13.1-0.3,19.7-0.3c1.3,0,3,0.1,3.7,0.9
		C266.1,378.8,267,380.7,266.8,382.1z"/>
	<path d="M402.7,375.1c-2.1,1.6-4.4,1-6.7-0.7c-6.7-5.1-13.5-10-20.5-14.8c-4.8-3.3-10-6.2-14.9-9.4c-2.5-1.7-3.6-4-3.5-7.3
		c0.2-14.9,0.1-29.9,0.1-44.8c0-2,0-4,0.2-6c0.3-2.4,2.6-4.2,4.8-3.9c2.6,0.4,3,2.4,3,4.5c0,1.1-0.2,2.3-0.3,3.4h0.3v31.1
		c0,2.2,0.3,4.4-0.1,6.5c-1.4,7.1,2.4,10.9,7.8,14.2c10,6.2,19.8,12.7,29.7,19.2C405.9,369.3,405.8,372.6,402.7,375.1z"/>
</g>
</svg>
