<?xml version="1.0" encoding="utf-8"?>
<!-- Generator: Adobe Illustrator 24.0.1, SVG Export Plug-In . SVG Version: 6.00 Build 0)  -->
<svg version="1.1" id="Layer_1" xmlns="http://www.w3.org/2000/svg" xmlns:xlink="http://www.w3.org/1999/xlink" x="0px" y="0px"
	 viewBox="0 0 500 500" style="enable-background:new 0 0 500 500;" xml:space="preserve">
<g>
	<path d="M401.4,354.5c-3.4-0.4-6.8-0.4-10.2-0.4c-3,0-4.5-1.1-4.5-4.1c-0.1-8.9-0.2-17.8-0.3-26.8c-0.1-19.3-0.1-38.5-0.1-57.8
		c0-9.7,0-19.4-0.1-29.2c0-3.6-1.1-4.5-4.3-4.5c-29,0-58,0-87,0v-0.2c-29.1,0-58.1,0-87.2,0c-1.9,0-3.2,0.8-3.6,2.7
		c-0.2,1-0.2,2.1-0.2,3.1c-0.1,25.4-0.3,50.8-0.3,76.2c0,12,0.2,24,0.3,36c0,2.7-0.8,3.8-3.6,4.2c-1.5,0.3-3.1,0.4-4.7,0.6
		c-1.6,0.2-2.5-0.6-3.1-2.2c-2.7-7.5-7.7-13.3-13.9-18c-2.4-1.8-3.5-3.8-3.4-6.8c0.1-7.2-0.1-14.3-0.1-21.5c0-2.5-1.1-4.4-2.8-6.3
		c-1.1-1.1-1.9-3-1.9-4.6c0-13.5,0.3-27,0.4-40.5c0.1-25.1,0.1-50.3,0.2-75.4c0-3.9,0.5-4.4,4.3-5.3c12.2-2.9,24.6-5,35.4-11.9
		c5.7-3.7,10.5-8.2,12-15c1.9-8.5,2.1-17.3-0.2-25.8c-0.8-3.3-2.6-6.6-4.8-9.2c-6-7.4-14.1-10.9-23.7-10.8c-8,0.1-15.9,0.3-23.9,0.3
		c-14.1,0.1-28.2,0-42.3,0.1c-4.5,0-9-0.1-13.4,0.6c-9.1,1.4-15.3,6.6-18.9,15.2c-2.9,7-2.7,14.2-2.2,21.5c0.2,2.5,0.8,5,1.7,7.4
		c3.3,9.5,10.7,15.1,19.6,18.5c9.7,3.7,19.8,6.5,29.7,9.6c2.2,0.7,3.3,1.8,3.2,4.1c-0.1,2.6-0.1,5.3-0.1,7.9
		c0.1,36.1,0.3,72.2,0.4,108.3c0,2.3-0.1,4.6-2.4,6.1c-2,1.3-2.8,3.1-2.9,5.3c-0.1,7.4-0.2,14.9-0.1,22.3c0,2.8-0.5,4.8-2.8,6.5
		c-7.2,5.4-12,12.3-14.3,21.3c-4.7,18.5,7.2,36.4,24.9,41.5c14.8,4.3,30.5-2.1,38.6-15.4c1.6-2.6,3.6-3.7,6.6-3.7
		c45.1,0,90.2,0,135.3,0c3.8,0,4.8,0.8,5.2,4.6c0.6,6.9,4.9,11.1,11.8,11.3c5.4,0.2,10.9,0.1,16.3,0c2.7,0,4.8-1,6.8-2.9
		c2.6-2.5,2.9-5.7,3.3-8.9c0.4-3.3,1.2-4.1,4.5-4.1c3.4,0,6.8,0,10.2,0.1c7.8,0.1,15.7-5.7,18-13.2c0.4-1.4,0.6-2.9,0.6-4.4
		C407,356.9,405.4,355,401.4,354.5z M143.9,168.2c-10.9-3.3-22-5.7-31.9-11.8c-9.3-5.7-13.2-14-13.1-24.6c0.1-4.9,1-9.7,3.4-13.9
		c4-7.4,10.7-10.5,18.9-10.5c12.2,0,24.3,0,36.5,0v-0.5c10.8,0,21.7,0,32.6,0c5.6,0,11.1,0.2,16.2,3.3c5.5,3.3,9.3,7.9,10.6,14.3
		c1.2,6.3,1.6,12.7,0,19c-1.4,5.6-4.9,9.6-9.5,12.8c-7.6,5.1-16.1,7.8-25,9.6c-2.5,0.5-4.9,1.3-7.4,1.9c-2.9,0.8-4.5,0-4.8-2.3
		c-0.6-3.8,0.6-6,3.6-6.4c5.3-0.8,10.5-1.5,15.8-2.5c5.3-1,10.3-2.9,14.5-6.3c3.3-2.6,5.7-6,6-10.4c0.3-3.6,0.4-7.4,0.1-11
		c-0.8-8-6.4-13.2-14.5-13.5c-2.8-0.1-5.6,0-8.4,0c-14.3,0.1-28.5,0.3-42.8,0.3c-7.7,0-15.4-0.3-23.1-0.4c-9.2,0-14.3,3.8-15.2,12.9
		c-1.1,10.7,0.8,18.4,11.5,23.2c2.5,1.2,5.1,2.4,7.8,3.2c6,1.7,12.1,3.3,18.3,4.7c3.4,0.8,5.6,4.7,3.7,7.6
		C147,167.8,144.9,168.5,143.9,168.2z M170.8,126.2c0-3.7,1.1-4.7,4.7-4.7c6.2,0,12.4,0,18.6,0.1c7.3,0.1,10,2.9,10.3,10.3
		c0.2,5.3,0,10.5-5,13.8c-2.4,1.7-5.1,3.2-7.9,4c-5.6,1.5-11.4,2.5-17.2,3.6c-2.5,0.5-3.7-0.7-3.7-3.4c0-3.9,0-7.9,0-11.8h0.1
		C170.8,134.1,170.7,130.1,170.8,126.2z M164.4,292.9c0,1.9,0.8,4.5-1.5,5.1c-2.5,0.7-5.3,0.4-7.9,0c-0.7-0.1-1.5-2.4-1.5-3.7
		c-0.1-18.9-0.1-37.8-0.1-56.7c0-9.1,0-18.2,0-27.3h-0.1c0-26.5,0-53,0-79.6c0-1.7-0.2-3.3-0.2-5c0-2.9,1-3.9,3.9-4
		c1.3,0,2.6-0.1,3.9,0c2.9,0.1,3.9,1.1,3.9,4c-0.1,17.3-0.2,34.7-0.3,52c-0.1,36.9-0.1,73.9-0.2,110.8
		C164.4,289.9,164.4,291.4,164.4,292.9z M153.3,303.4c4.1,0,8.2,0.2,12.3,0.4c2.1,0.1,3.5,1.2,3.6,3.4c0.3,3.7,0.4,7.5,0.6,11.2
		h-0.1v8.7c0,2.4-1.3,3.2-3.5,3.2c-4.9,0-9.9,0-14.8,0.1c-2.2,0-3.7-0.6-3.6-3c0.1-6.5,0.1-12.9,0.4-19.4
		C148.3,304.6,149.8,303.4,153.3,303.4z M147.2,137.6c0,3.9,0,7.9,0,11.8c0,2.8-1.1,3.8-3.7,3.1c-6.8-1.7-13.6-3.1-20.2-5.4
		c-9.5-3.4-13.1-9.3-10.3-20.5c0.8-3.3,3.2-5.2,6.4-5.2c8.3-0.1,16.6,0,24.9,0.1c2.4,0,2.8,2,2.9,4
		C147.1,129.6,147.1,133.6,147.2,137.6L147.2,137.6z M187.8,365.9c-0.7,13.5-12.9,26.6-28.8,26.6c-17.6-0.1-28.5-14.1-28.8-29.4
		c-0.3-14.5,11.8-28.4,30.1-27.5C174,334.6,188.8,347.3,187.8,365.9z M210,255.6c0.1-4.3,0.1-8.6,0.1-12.9c0-3.7,0.9-4.5,4.5-4.5
		c51.6,0,103.2,0,154.7,0c2.1,0,4.2-0.1,6.3-0.2c3.2-0.2,4.3,0.8,4.4,4c0.2,4.7,0.2,9.4,0.2,14.2c0,3-1.3,4.2-4.1,4.2h-81.4v-0.2
		h-80.1C210.9,260.2,210,259.2,210,255.6z M209.7,345.1c0-24.2,0-48.3,0-72.5c0-4.9,0.7-5.5,5.7-5.5c53.1,0,106.1,0,159.2,0
		c1,0,1.9,0,2.9,0.1c1.9,0.4,2.9,1.5,2.9,3.5c-0.1,18.8-0.3,37.6-0.3,56.5c0,7.5,0.2,15,0.3,22.6c0,2.9-1.7,4.4-4.6,4.4
		c-15.8,0-31.5,0-47.3,0c-11.2,0-22.4,0-33.6,0v-0.4h-81.2c-2.6,0-3.9-1.1-4-3.7C209.5,348.4,209.7,346.8,209.7,345.1z M367.8,382.5
		c-0.4,4.5-1.6,5.7-6.1,5.7c-5.1,0-10.3,0-15.5-0.1c-2.9,0-5.2-3-5-6.5c0.1-2.4,1.9-3.6,5.1-3.6c2.8,0.1,5.6,0,8.4,0v0
		c3.1,0,6.1,0,9.2,0C366.7,378.1,368,379.7,367.8,382.5z M398.6,366.1c-2.8,4.2-7,5.8-12,5.7c-7.3-0.1-14.5,0-21.8,0v0
		c-8.9,0-17.9,0-26.8,0c-21.5,0.1-42.9,0.2-64.3,0.3c-21.4,0.1-42.7,0.1-64.1,0.1c-4.2,0-8.4,0-12.6,0c-3.1,0-3.9-0.8-3.8-4
		c0-1.5,0.1-3,0.2-4.5c0.2-2.6,1.3-3.6,3.8-3.6c32.1,0.2,64.3,0.4,96.4,0.5c26.7,0.1,53.4,0.1,80.1,0.1c7.4,0,14.9-0.2,22.3-0.1
		c1.3,0,3.3,0.6,3.7,1.5C400.2,363.2,399.4,365,398.6,366.1z"/>
	<path d="M269.7,342.2c-0.1,1-1.2,2-2,2.7c-0.5,0.4-1.5,0.4-2.3,0.4c-13-0.1-25.9-0.2-38.9-0.3c-1.4,0-3-0.3-4.3-0.9
		c-0.7-0.3-1.4-1.4-1.4-2.2c0-0.6,0.8-1.4,1.5-1.9c0.6-0.4,1.5-0.6,2.2-0.8c3.1-0.7,3.7-1.5,3.7-4.7c0-4-0.1-8-0.1-12.1
		c0-2.2-0.7-3.6-2.9-4.4c-0.9-0.3-2-1.7-2-2.7c0-0.9,1.2-1.8,2-2.6c0.9-1,1.9-2,2.9-3c0.9-0.8,1.8-2.2,2.8-2.3c1,0,2.2,1.1,3,1.9
		c1,1,1.7,2.4,2.8,3.3c2,1.6,2.4,3.5,0.3,4.9c-3,1.9-3.2,4.3-3,7.4c0.3,3.5-0.1,7-0.2,10.5c0,3.1,0.9,4.1,4.1,4.1
		c3.8,0,7.5,0,11.3,0c2.9,0,3.9-1,4-4c0-2.3,0-4.6,0-6.8h0c0-1.4-0.1-2.8,0-4.2c0.3-2.9-0.4-5.2-3-7c-2.1-1.5-1.8-3.4,0.2-4.9
		c1.2-0.9,2.3-1.9,3.3-2.9c2-2,3.8-1.7,5.3,0.6c0.8,1.1,2.1,1.8,3.2,2.8c0.8,0.7,1.9,1.7,1.9,2.4c0,1-1,2.5-1.8,2.7
		c-2.7,0.9-2.8,2.6-2.7,4.9c0.1,3.5,0,7.1-0.3,10.7c-0.3,3.4,0.3,4.4,3.7,4.9c1.6,0.2,3.4,0.3,4.9,0.9
		C268.7,340.1,269.8,341.4,269.7,342.2z"/>
	<path d="M345,338.7c-0.3,2.1-2.1,2.1-3.7,2.1c-1.9,0.1-3.9,0-5.8,0v-0.2c-2.3,0-4.6,0.3-6.8-0.1c-1.1-0.2-2.8-1.8-2.6-2.5
		c0.2-1.2,1.6-2.9,2.6-2.9c4.4-0.2,8.9-0.1,13.3,0.3C343.6,335.5,345.3,336.6,345,338.7z"/>
	<path d="M367.2,338.7c-0.3,1-1.7,2.1-2.8,2.4c-1.6,0.4-3.5,0.1-5.7,0.1c-1.9-0.1-4.3-0.1-6.5-0.5c-0.9-0.2-2.4-1.5-2.3-2.2
		c0.1-1,1.2-2.7,2-2.8c4.4-0.4,8.8-0.7,13.3-0.5C366.8,335.2,367.7,337.1,367.2,338.7z"/>
	<path d="M341.4,319.8c0.1,2.3-1.7,2.9-3.5,3c-1.6,0.1-3.3,0-5,0v-0.1c-1.7,0-3.3,0.1-5,0c-1.7-0.1-3.2-0.9-2.9-2.6
		c0.2-1.1,1.5-2.8,2.6-2.9c3.3-0.6,6.8-0.7,10.2-0.7C339.9,316.4,341.3,317.7,341.4,319.8z"/>
	<path d="M367.6,320.4c0,2-1.6,2.5-3.3,2.6c-1.3,0.1-2.6,0-3.9,0c0,0.1,0,0.1,0,0.2c-1.9-0.1-3.9,0-5.7-0.4c-1-0.2-2.3-1.4-2.4-2.2
		c-0.1-0.9,1-2,1.8-2.8c0.4-0.4,1.3-0.6,2-0.6c2.8,0,5.6-0.1,8.4,0C366.2,317.3,367.6,318.5,367.6,320.4z"/>
	<path d="M159.8,346.9c-9.4,0-16.8,7.1-16.9,16.5c-0.2,8.9,7.4,16.2,16.7,16.3c7.7,0.9,15.9-6.9,16-16.2
		C175.7,353.9,167.6,346.9,159.8,346.9z M170.6,363.4c-0.4,6.6-4.4,11.1-11.1,11.1c-6.4,0-11.1-4.8-11-10.9
		c0.1-6.8,4.9-11.5,11.5-11.3C166.3,352.4,171,357.2,170.6,363.4z"/>
</g>
</svg>
