<?xml version="1.0" encoding="utf-8"?>
<!-- Generator: Adobe Illustrator 24.0.1, SVG Export Plug-In . SVG Version: 6.00 Build 0)  -->
<svg version="1.1" id="Layer_1" xmlns="http://www.w3.org/2000/svg" xmlns:xlink="http://www.w3.org/1999/xlink" x="0px" y="0px"
	 viewBox="0 0 500 500" style="enable-background:new 0 0 500 500;" xml:space="preserve">
<g>
	<path d="M479.3,94.3c-0.5-4.4-1.6-5.5-6.1-5.6c-7.5-0.1-14.9,0-22.4,0c-2.6,0-4.1,1.4-4.5,3.9c-0.3,2-0.5,4-0.5,6
		c0,25.8,0,51.6,0,77.4c0,4-1.1,5.2-5,5.2c-3.9,0.1-7.9,0.2-11.8,0.3c-5,0.1-7-1.9-6.5-7c0.1-0.8,0.1-1.5,0.1-2.3
		c-0.1-37.7-0.3-75.3-0.4-113c0-4.2-1.7-5.7-5.8-5.7c-26.8,0-53.7,0-80.5-0.1c-24-0.1-47.9-0.4-71.9-0.5c-4.2,0-6.4,1.8-6.4,5.6
		c0,21.3,0.1,42.6,0.2,63.9c0.1,17.9,0.2,35.9,0.3,53.8c0,2.9-1.5,4.4-4.5,4.4c-4.4,0.1-8.8,0.1-13.2,0.1c-3.7-0.1-5.2-1.7-5.2-5.3
		c-0.1-38.3-0.1-76.7-0.2-115.1c0-5.3-2-7.3-7.3-7.4c-22.1,0-44.3-0.1-66.4-0.1c-25.6,0-51.2,0-76.8,0c-5.3,0-7,1.7-7,7
		c0,8.5,0,17.1,0.1,25.6c0.1,30.3,0.2,60.6,0.3,90.9c0,3.2-1.5,4.7-4.7,4.8c-3.4,0.1-6.7-0.1-10.1,0.2c-6.4,0.5-8-0.9-8-7.4
		c0-25.2,0-50.4-0.1-75.7c0-1.7-0.2-3.4-0.6-5.1c-0.8-3.6-2.1-4.6-5.8-4.6c-6.5,0-13,0-19.5,0c-6.2,0-8,1.8-8,8.1
		c-0.1,26.9-0.4,53.9-0.4,80.8c0,64.1,0.3,128.1,0.3,192.2c0,23.4-0.3,46.8-0.4,70.2c0,3.3,1.3,5,4.5,5.6c1.2,0.2,2.5,0.3,3.7,0.4
		c6.8,0.2,13.6,0.3,20.4,0.5c2.3,0.1,4-0.8,4.7-3c0.5-1.3,0.6-2.8,0.6-4.2c0.2-8,0.3-15.9,0.6-23.9c0.1-4.2,1.7-5.6,5.9-5.6
		c1.6,0,3.1,0.1,4.6,0.1h185.3v-0.1h101.5c28.8,0,57.5,0,86.3,0c6.9,0,7.6,0.9,7.3,7.6c-0.3,8.3-0.2,16.7-0.2,25
		c0,2.5,0.7,4.8,3.7,4.8c8.7,0.1,17.5-0.1,26.2-0.2c2.1,0,3.4-1.2,3.6-3.4c0.1-1.3,0.4-2.7,0.4-4c0-9.9,0-19.7,0-29.6
		c0-103.1,0.1-206.2,0.1-309.2C479.6,98.6,479.6,96.4,479.3,94.3z M46.3,109.6c0,20.7,0,41.4-0.1,62.1c0,13.1-0.3,26.2-0.3,39.4
		c0.1,52.1,0.2,104.1,0.3,156.2c0,12.1-0.3,24.1-0.3,36.2c0,9.4,0.2,18.8,0.3,28.1c0.1,4.5-2,6.4-6.6,6c-1.2-0.1-2.5,0.1-3.7,0.2
		c-4.5,0.4-6.9-1.7-6.9-6.2c0-47.8,0-95.7-0.1-143.5v-18.4h-0.3c0-21-0.1-42,0-63c0.1-29.9,0.4-59.8,0.5-89.7c0-4.3,0-8.6,0-12.9
		c0-5.2,2-7.1,7.2-6.9c1.7,0.1,3.4,0,5.2,0.1c3,0.2,4.6,1.7,4.8,4.7C46.5,104.4,46.3,107,46.3,109.6z M266.6,133
		c-0.1-11.7-0.3-23.4-0.5-35.1c-0.1-6.8,0.8-7.7,7.8-7.6c26.5,0.4,53.1,0.9,79.6,1c18.3,0.1,36.6-0.3,54.9-0.5
		c4.6-0.1,6.2,1.6,6.1,6.2c-0.2,25.8-0.3,51.5-0.5,77.3c0,5.8-1,6.9-6.8,6.9c-22.1,0-44.3,0-66.4,0c0-0.1,0-0.3,0-0.4h-56.1
		c-4.5,0-9,0.2-13.5,0c-3.8-0.2-4.7-1.4-4.7-5.3C266.6,161.4,266.7,147.2,266.6,133z M270.5,62.1c15.6-0.1,31.2-0.1,46.9-0.1h22.1
		v-0.3c22.3,0,44.7,0,67,0c1.2,0,2.5,0,3.7,0.2c2.5,0.4,3.9,1.9,3.9,4.5c0,3.4,0,6.9-0.1,10.3c-0.2,3.6-1.9,5.1-5.5,5.1
		c-44.6,0.2-89.1,0.3-133.7,0.4c-8.3,0-8.8-0.6-8.6-8.9c0-2.2-0.2-4.4-0.2-6.6C265.9,63.7,267.4,62.1,270.5,62.1z M150.7,61.3
		c3.2,0.3,6.5,0,9.7-0.1c4.4-0.2,6.1,1.6,5.9,6c-0.1,2.9,0,5.7,0,8.6h-0.2c0,3,0.1,5.9,0,8.9c-0.1,3.2-2.3,4.4-5.1,2.8
		c-0.8-0.5-1.6-1.1-2.3-1.7c-2.8-1.9-5.1-1.7-7.5,0.6c-1.6,1.5-3.1,3.9-5.8,2.5c-2.5-1.4-1.6-3.9-1.5-6.2c0.1-4.8,0.2-9.6-0.2-14.3
		C143.3,62.7,145.1,60.8,150.7,61.3z M91.9,61c12.4,0,24.7,0,37.1,0c5,0,6.5,1.5,6.5,6.5c0,10.7-0.1,21.5,0,32.2
		c0,1.5,0.8,3.9,1.9,4.2c1.5,0.5,3.8,0.1,5.2-0.8c2.4-1.4,4.2-3.6,6.6-5.1c5.5-3.4,11.7-2.5,16.2,2.3c0.5,0.5,0.9,1,1.3,1.5
		c1.6,2.1,3.6,3.3,6.2,2.5c2.8-0.9,2.8-3.3,2.8-5.7c0-10.5,0-20.9,0-31.4c0-4.8,0.9-5.8,5.6-5.9c12.7-0.2,25.5-0.3,38.2-0.5
		c5.5-0.1,6.9,1.5,6.9,7c-0.2,34.5-0.3,69-0.5,103.5c0,1.1,0.1,2.1,0.3,3.2c0.6,4.8-1,6.6-5.9,6.5c-4.9-0.1-9.8-0.4-14.7-0.4
		c-16,0-32,0-48,0v-0.1c-19.5,0-38.9,0-58.4,0c-2.8,0-5.5,0.3-8.3,0.4c-3.5,0.2-5.4-1.6-5.3-5.2c0.1-31.4,0.3-62.9,0.3-94.3
		c0-4.7-0.4-9.4-0.5-14.1C85.4,62.6,87,61,91.9,61z M56,194.1c0.5-3.4,1.9-4.3,5.3-4.3c16,0,32,0,48,0c61.8-0.1,123.7-0.3,185.5-0.3
		c46.3,0,92.6,0.3,138.9,0.5c2.3,0,4.6-0.2,6.9-0.1c3.4,0.1,5,1.6,5.1,4.9c0.1,2.5,0.1,5-0.1,7.5c-0.1,2.1-1.3,3.6-3.5,3.9
		c-1.2,0.2-2.5,0.3-3.7,0.3H310.1v0.5c-29.9,0-59.8,0-89.7,0c-14.9,0-29.9-0.3-44.8-0.3c-16.1,0-32.2,0.3-48.3,0.3
		c-10,0-19.9-0.3-29.9-0.3c-9.9-0.1-19.7-0.1-29.6-0.1c-2.1,0-4.2,0.2-6.3,0.4c-3.2,0.3-5.4-1.2-5.7-4.3
		C55.6,199.9,55.6,197,56,194.1z M55.1,324.2c-0.1-34-0.1-68-0.1-102.1c0-5,1.9-6.9,6.3-6.9c40.5,0.1,80.9,0.1,121.4,0.2
		c22.7,0,45.4,0,68.2,0c0,0,0,0,0,0c40.9,0,81.9,0,122.8,0c21.8,0,43.5,0.2,65.3,0.4c5.3,0,6.7,1.8,6.6,6.7
		c-0.3,12.3-0.3,24.5-0.3,36.8c0,7.5,0.1,14.9,0.2,22.4c0.1,7.6,0,15.1,0.1,22.7c0.1,21.6,0.2,43.1,0.3,64.7c0,4.5-1,5.6-5.5,5.7
		c-4.7,0.1-9.4,0.4-14.1,0.4c-3.8,0.1-5.8-2-5.8-5.9c0-15.7,0-31.4,0-47.1c0.1-21,0.2-42,0.3-63c0-2.7-0.2-5.4-0.4-8
		c-0.1-2.5-1.4-4.1-3.9-4.6c-1.1-0.2-2.3-0.3-3.4-0.3c-29.4,0-58.9,0-88.3-0.1c-17.7-0.1-35.5-0.3-53.2-0.4c-1.5,0-3.1,0-4.6,0.1
		c-3.5,0.3-5.3,2-5.4,5.5c-0.1,4.5,0,9,0,13.5c0,31.4,0,62.9,0,94.3c0,3.4,0.1,6.9,0.1,10.3c0,3.6-1.2,4.9-4.7,5.1
		c-5.1,0.3-10.2,0.3-15.2,0.3c-3.6,0-5.3-2.1-5.3-5.7c0-18.7,0-37.4,0-56c0-20-0.1-40.1-0.1-60.1c0-5.5-2.6-8-8.2-8
		c-19.6,0-39.1,0-58.7,0.1c-27.2,0.1-54.4,0.4-81.7,0.6c-9,0.1-10.2,1-10.1,10.1c0.1,37.7,0.3,75.3,0.5,113c0,5.2-1,6.2-6.1,6.3
		c-3.5,0-7.1,0.1-10.6,0.3c-4.1,0.2-6.2-1.4-6.3-5.6c-0.1-3.6,0.3-7.3,0.3-10.9C55.3,347.4,55.1,335.8,55.1,324.2z M270,314v-54.9
		c0-3.8,1.4-5.3,4.8-5.3c12.4,0.2,24.9,0.3,37.4,0.4c1.2,0,2.3,0,3.5,0c4.6,0,5.8,1.2,5.8,5.8c0,10.5-0.1,21.1-0.1,31.6
		c0,1.8-0.2,3.8,1.9,4.7c2.2,1,4.1,0.2,5.8-1.3c1.6-1.4,3-3,4.7-4.3c5-3.9,10.3-3.7,15.1,0.5c1.6,1.4,3,2.9,4.8,4.1
		c1.4,0.9,3.1,1.6,4.7,1.8c2.5,0.2,3.8-1.4,3.7-4c-0.3-11-0.6-22-0.9-33c-0.1-3.6,1.4-5.2,5-5.2c13.5-0.1,27-0.1,40.5,0
		c4.4,0,5.6,1.4,5.6,5.8c0,35.8,0.1,71.7,0.1,107.5c0,5.2-1.7,6.8-7.3,6.7c-15.8-0.1-31.6-0.3-47.4-0.3c-26,0-52,0.2-77.9,0.4
		c-1.2,0-2.3,0-3.5,0c-4.6-0.1-6.1-1.7-6.1-6.4L270,314L270,314z M352.5,276.9c0.1,1.2-0.3,3.1-1,3.5c-1.1,0.5-3.3,0.4-3.9-0.4
		c-3.8-4.5-7.3-4.2-11.4-0.3c-0.9,0.9-3.4,1.1-4.5,0.5c-1-0.6-1.4-2.7-1.4-4.2c-0.2-5.2,0.1-10.3-0.1-15.5c-0.2-3.8,0.9-5.4,4.7-5.6
		c4.2-0.1,8.4-0.2,12.6-0.1c3.4,0.1,4.8,1.8,4.5,5.2c-0.2,1.9-0.3,3.8-0.4,5.7c-0.1,0-0.2,0-0.3,0
		C351.8,269.5,352.3,273.2,352.5,276.9z M86.1,260.1c0-4.8,1.1-5.9,5.9-5.9c12.8,0.1,25.5,0.1,38.3,0.1c5.6,0,6.5,0.9,6.4,6.5
		c-0.1,10.5-0.1,21.1-0.1,31.6c0,4.1,3.2,5.8,6.7,3.6c1.4-0.9,2.6-2.2,3.8-3.5c5.5-5.4,14.3-6.3,19.3-0.1c1,1.2,2.3,2.3,3.6,3.2
		c3.2,2.2,6.7,0.7,6.9-3.1c0.3-6.4,0.3-12.8,0.3-19.2c0-4.9-0.2-9.8,0-14.6c0.1-2.9,1.9-4.5,4.9-4.5c13.1-0.2,26.3-0.4,39.4-0.5
		c5.4,0,6.8,1.6,6.3,7c-0.3,2.9-0.2,5.8-0.2,8.6c0,28.5-0.1,57-0.1,85.4c0,4.9,0,9.8,0,14.6c0,4.3-1.6,5.8-6.3,5.8
		c-21.6,0-43.1,0-64.7,0v0.1c-21.4,0-42.8,0-64.1,0c-4.6,0-6.2-1.6-6.1-6.2c0.1-12,0.3-24,0.3-35.9
		C86.4,308.8,86.2,284.5,86.1,260.1z M167.5,275.1c0,2,0.4,3.9-1.6,5.1c-2,1.2-3.6,0-5.2-1.3c-4.1-3.4-5-3.4-9.2-0.2
		c-0.5,0.3-0.9,0.8-1.4,1c-1.1,0.3-2.6,0.9-3.4,0.5c-0.8-0.5-1.3-2.1-1.4-3.2c-0.1-2.1,0.4-4.2,0.4-6.3c0-3.4-0.1-6.9-0.4-10.3
		c-0.3-4.3,0.8-5.6,5.1-5.6h3.7c0,0,0,0.1,0,0.1c2.7-0.2,5.4-0.4,8-0.5c4.3-0.1,5.8,1.9,5.5,6C167.3,265.4,167.4,270.2,167.5,275.1z
		 M446.1,396c-0.3,3.9-1.5,5.1-5.4,5.1c-14.6,0.1-29.1,0.1-43.7,0.1c-48.8,0-97.6,0-146.4,0v0.4c-60.8,0-121.6,0-182.4,0
		c-2.7,0-5.4,0.2-8,0.1c-3.4-0.1-4.7-1.4-4.7-4.8c-0.1-2.7-0.1-5.4,0-8c0.1-3.3,1.8-5.1,5-5c5.6,0,11.3,0.3,16.9,0.3
		c9,0,18-0.2,27-0.1c10.7,0,21.5,0.2,32.2,0.2c30.2,0.1,60.4,0,90.6,0c39.5,0,79,0,118.5,0c17.3,0,34.7-0.3,52.1-0.3
		c14.5,0,28.9,0.2,43.4,0.3c4.1,0,5.2,1.2,5.1,5.4C446.2,391.8,446.3,393.9,446.1,396z M471.1,166.6c0,33.6,0,67.3,0,100.9h-0.1
		v158.7c0,2.4,0.1,4.8,0,7.2c-0.2,3.2-1.4,4.6-4.5,4.9c-2.7,0.3-5.4,0.2-8,0c-3-0.3-4.5-2.8-4.5-6.3c0.1-29.7,0.2-59.4,0.2-89.1
		c0-34.8-0.3-69.6-0.3-104.4c0-44.8,0.2-89.5,0.4-134.3c0-5.4,1.5-7,6.9-7.4c9.1-0.6,10,0.4,10,9.5c0,17.2,0.2,34.3,0.3,51.5
		C471.4,160.7,471.1,163.7,471.1,166.6z"/>
	<path d="M213.5,335.2c-0.2-2.8-2.4-4.3-5.6-4.3c-13,0.1-26.1,0.2-39.1,0.5c-5.6,0.1-7.4,1.9-7.3,7.6c0,6.1,0.2,12.3,0.4,18.4
		c0.2,5.5,1.8,6.9,7.3,7c6.3,0,12.7,0,19,0v0c6.6,0,13.2,0,19.8,0c4.4,0,6.3-1.4,6.3-5.6C214.4,350.8,214,343,213.5,335.2z
		 M200.7,354.9c-0.8,0.1-1.5,0-2.3,0c-8,0.1-15.9,0.2-23.9,0.4c-2.8,0.1-4.4-1.1-4.6-3.9c-0.2-2.6-0.2-5.2-0.1-7.7
		c0.2-3.2,1.4-4.2,4.6-4.2c2.2,0,4.4,0.1,6.6,0.1c2.2,0,4.4,0,6.6,0v-0.1c3.6,0,7.3,0.1,10.9,0c7-0.2,8.5,1.2,8.7,8.1
		C207.4,352.2,205.3,354.6,200.7,354.9z"/>
	<path d="M333.6,335.9c-0.1-4-1.3-5-5.3-5c-7.1,0-14.2,0-21.3,0v-0.1h-5.2c-5.6,0-11.3,0-17,0.1c-3.3,0.1-4.7,1.5-4.7,4.2
		c0.1,7.8,0.2,15.5,0.3,23.3c0.1,4.6,1.2,5.9,5.7,5.9c14.3,0,28.6-0.1,42.8-0.1c3.4,0,4.9-1.4,4.9-4.7
		C333.8,351.6,333.8,343.7,333.6,335.9z M326.2,350.6c-0.5,3.3-2,4.4-5.3,4.5c-3.8,0-7.7,0-11.5,0v0.3c-4.7,0-9.4-0.1-14,0
		c-3.4,0.1-5.3-1.3-5.6-4.7c-0.2-2.3-0.3-4.6-0.1-6.8c0.3-3.5,2-4.8,5.4-4.8c8.7,0.1,17.4,0.1,26.1,0.1c3.5,0,5.2,1.4,5.3,4.9
		C326.5,346.2,326.5,348.4,326.2,350.6z"/>
	<path d="M213.1,144.1c0-5.8-1.2-7.1-7-7.1c-13.4,0.1-26.8,0.1-40.2,0.1c-3,0-5.1,1.9-5.1,5c0.1,7.4,0.2,14.7,0.5,22.1
		c0.1,3.4,1.9,5,5.3,5h20.7v0.6c6.7,0,13.4-0.1,20.1,0c4.4,0.1,6.4-2.1,6.2-6.5C213.3,156.9,213.2,150.5,213.1,144.1z M205.8,154.2
		c-0.1,4.6-1.9,6.3-6.6,6.3h-12.4v0.1c-4.3,0-8.6,0-12.9,0c-4,0-5.7-1.6-5.7-5.6c0-6.9-1.1-10,9.2-9.4c7,0.4,14.1,0.1,21.2,0
		c5.6,0,7.1,1.4,7,7.1C205.8,153.3,205.8,153.7,205.8,154.2z"/>
	<path d="M331.5,169.2c-0.1,0.9-2,2-3.1,2.1c-3.4,0.3-6.9,0.1-10.3,0.1V171c-5.5,0-11.1-0.1-16.6,0c-5.7,0.1-11.5,0.4-17.2,0.5
		c-1.1,0-2.4-0.2-3.3-0.8c-2.6-1.6-2.7-5.4,0-6.9c3.5-1.9,3.8-4.5,3.2-7.9c-0.3-1.8,0.3-3.9,1.1-5.6c1.7-3.4,1.2-5.5-2.1-7.4
		c-3.6-2-4-3.9-1.8-7.5c3.1-5,5.3-6.2,9.4-4.9c6.3,1.9,9.3,9.7,6.1,15.5c-1.4,2.5-3.1,5-3.8,7.7c-0.7,2.6-0.8,5.7-0.2,8.3
		c0.5,2.1,10.3,5.2,12.5,4.4c2.3-0.8,4.6-1.5,6.8-2.3c2.1-0.7,3-2.1,3-4.4c-0.1-4.1-0.2-8.2-0.2-12.4c0-2.2-1-3.5-3.1-4.1
		c-4-1.3-4.5-3.8-1.5-6.8c2-1.9,4-3.8,6.1-5.6c1.6-1.5,3-1.1,4.4,0.5c1.6,1.8,3.5,3.4,5.1,5.3c0.9,1,2.1,2.4,2,3.5
		c-0.1,1-1.7,2.1-2.9,2.5c-1.9,0.7-2.6,1.9-2.7,3.9c0,4.3-0.2,8.6-0.3,12.9c-0.1,2.2,0.9,3.6,3.1,4.1c1.7,0.4,3.5,0.8,4.8,1.8
		C330.9,166.2,331.7,168,331.5,169.2z"/>
</g>
</svg>
