<?xml version="1.0" encoding="utf-8"?>
<!-- Generator: Adobe Illustrator 24.0.1, SVG Export Plug-In . SVG Version: 6.00 Build 0)  -->
<svg version="1.1" id="Layer_1" xmlns="http://www.w3.org/2000/svg" xmlns:xlink="http://www.w3.org/1999/xlink" x="0px" y="0px"
	 viewBox="0 0 500 500" style="enable-background:new 0 0 500 500;" xml:space="preserve">
<g>
	<path d="M332.5,155.3c0-20.7-0.3-41.4-0.1-62.1c0.1-8.7-2.2-16.1-8.9-22c-8.5-7.5-16.9-15.1-25-23c-5.6-5.4-11.8-7.2-19.4-6.8
		c-13.6,0.7-27.3,1-41,1.1c-38.9,0.3-77.7,0.5-116.6,0.6C106,43,90.5,43,75,43.1c-6.1,0.1-12,1.4-16.5,5.5
		c-6.8,6.3-10.3,14.1-10.2,23.8c0.2,88,0.2,176,0.3,264c0,24.5,0.4,49,0.3,73.5c0,6.3,0.2,12.2,2.7,18.2c2.8,6.8,7.7,11.3,14.3,13.2
		c5.7,1.6,11.9,2,17.8,2.1c32.7,0.2,65.5,0.1,98.2,0.1c12.6,0,25.3,0.3,37.9,0.3c1.4,0,3.5-1.1,4-2.2c0.5-1.2-0.1-3.4-1-4.6
		c-0.9-1.1-2.6-2-4.1-2.1c-2.9-0.3-5.8-0.1-8.7-0.1c-26.9,0.1-53.9,0.1-80.8,0.2c-16.6,0-33.1,0-49.7-0.2c-5.1-0.1-10.4,0-14.6-3.6
		c-4.8-4.1-7.6-9.2-7.5-15.7c0.1-6.8,0-13.7,0-20.5V243.1h0.1c0-42.5,0.1-85,0-127.5c0-15.5-0.5-30.9-0.4-46.4
		c0-7,3.5-12.4,9.8-15.8c4.4-2.3,9.1-2.4,13.8-2.4c46.7-0.1,93.4-0.1,140.1-0.2c2.7,0,5.4-0.2,8.1-0.2c15-0.1,29.9-0.2,44.9-0.1
		c5.8,0.1,6.7,1.3,6.7,7.1c0,7.6-0.1,15.3-0.1,22.9c0,4.8,1.4,6.4,6.2,6.5c9.9,0.1,19.9,0,29.8,0c5.8,0,7.4,1.4,7.4,7.3
		c-0.1,36.5-0.2,72.9-0.3,109.4c0,1.4,0.3,2.8,0.8,4.1c1,2.4,2.8,2.8,4.9,1.4c2.2-1.5,3.3-3.5,3.3-6.3
		C332.4,187,332.5,171.2,332.5,155.3z M312.8,75.8c-0.6,1.4-3,2.6-4.6,2.8c-4.9,0.4-9.8,0.1-14.7,0.1c-3.2,0.5-4.9-1.2-4.9-4.6
		c-0.1-5.5,0-11,0.3-16.5c0.1-1.2,1.1-2.9,2-3.2c0.9-0.3,2.6,0.6,3.5,1.4c5.5,5.1,11,10.2,16.2,15.5
		C311.7,72.5,313.3,74.8,312.8,75.8z"/>
	<path d="M350.9,414.7c-0.2-3.2-0.7-6.4-1.7-9.4c-2.2-6.8-4.6-13.7-7.4-20.3c-4.1-9.8-9.8-18.6-18-25.6
		c-7.4-6.3-15.3-11.7-24.3-15.3c-6.6-2.6-13.2-5.4-20-7.3c-16.1-4.5-32.7-5.2-49.3-4.9c-4.8,0-9.6-0.1-14.5,0
		c-7.4,0.1-9.9,2.6-10.1,10c-0.3,11.6,1.1,23,3.7,34.3c3.8,16.6,9.2,32.3,19.1,46.3c10.9,15.3,25.4,25.6,43.2,31
		c14.3,4.4,29.1,6.2,44.1,4.7c7-0.7,13.8-2.2,20.7-3.6c2.8-0.5,4.3-2.2,3.1-5.2c-0.6-1.6,0.2-2,1.6-2.5c1.7-0.7,3.9-1.3,4.8-2.7
		c2.6-3.9,5.2-7.9,5-12.9C350.9,425.8,351.2,420.2,350.9,414.7z M342.7,433.4c-0.1,2.7-2.5,3.9-4.7,2.2c-6.8-5-13.4-10.2-20-15.5
		c-1.9-1.5-2.3-3.7-1.7-6c1.9-8.9-0.1-17.6-1.1-26.3c-0.3-2.3-2-3.7-4.5-3.5c-2.4,0.2-3,2.1-3.1,4.1c-0.2,4.3-0.3,8.6-0.4,12.9
		c0,1.2,0.2,2.4-0.1,3.6c-0.3,1.3-0.8,2.9-1.7,3.5c-0.6,0.4-2.4-0.5-3.3-1.2c-3.7-3.1-7.2-6.4-10.8-9.6c-2.1-1.9-4.4-3.5-6.3-5.6
		c-2.4-2.5-4.8-5.1-6.5-8.1c-2.1-3.7-4.6-6.1-8.7-7.6c-4-1.4-7.6-4.3-11.2-6.7c-2.7-1.8-5.1-4.2-7.9-6.1c-1.6-1.1-3.5-2.1-5.4-2.4
		c-1.3-0.2-3.3,0.7-3.9,1.7c-0.6,0.9-0.1,3.2,0.7,3.9c6.7,5.9,13.7,11.5,20.5,17.2c0.8,0.6,1.9,1,2.3,1.8c0.8,1.4,1.8,3.2,1.4,4.5
		c-0.3,1.1-2.3,2.1-3.7,2.3c-2.6,0.4-5.4,0.4-8.1,0.4c-2.2,0-4.4,0.1-5.1,2.7c-0.6,2,1.5,5,4.1,5.1c6.2,0.4,12.5,1.3,18-2.8
		c2-1.5,3.9-1.1,5.8,0.3c5.9,4.3,11.9,8.4,17.7,12.9c1.7,1.4,2.7,3.7,4,5.6c-1.9,0.6-3.8,1.5-5.7,1.8c-4.1,0.7-8.2,1.1-12.2,1.6
		c-0.6,0.1-1.2,0.2-1.8,0.4c-2.6,0.9-4.9,3.5-4.3,5.1c1,2.5,3.4,2.5,5.6,2.5c4.9-0.2,9.8-0.2,14.7-0.7c2.8-0.3,5.7-1.1,8.3-2.3
		c3.4-1.5,6.2-1.6,9,1.2c6.2,6.2,14,10,21.3,14.5c1.4,0.9,2.7,2.1,3.6,3.5c0.9,1.6,0.3,2.8-1.9,3c-7.2,0.8-14.3,1.8-21.5,2.6
		c-3.2,0.4-6.4,0.4-9.6,0.6c-11.5-0.2-22.7-1.6-33.4-5.6c-11.9-4.4-21.9-11.7-30.3-21.2c-8.6-9.8-14.3-21.2-18.5-33.4
		c-5-14.4-7.8-29.2-8.2-44.5c-0.1-4.9,1.4-6.5,6.2-6.3c13.9,0.5,27.9,0.8,41.8,1.8c6.4,0.5,12.8,1.8,19,3.5
		c19.2,5.1,36,13.9,47,31.5c5.7,9,9.9,18.6,12.9,28.7C343.6,414.5,343.1,424,342.7,433.4z"/>
	<path d="M446.5,297.4c-4.7,16.6-12.2,32-23.7,45.2c-7.3,8.4-15.5,15.7-24.5,22.1c-11.6,8.1-24.3,14-37.7,18.5c-3.1,1-5.4,0-6.2-2.4
		c-0.9-2.6,0.2-4.1,3.4-5.6c9.7-4.5,19.7-8.5,29-13.7c14.8-8.4,27.4-19.6,36.9-33.9c7.9-11.8,13.1-24.7,16.1-38.6
		c3.9-17.8,4.1-35.7,2.1-53.6c-1.3-11-3.8-21.9-6-32.8c-1-5.2-2.4-10.4-3.7-15.5c-1.1-4.4-3.7-5.5-8-4c-7.3,2.5-14.6,4.9-21.9,7.6
		c-16.2,6.1-31.5,13.9-45.2,24.7c-8.1,6.4-15.8,13-22.3,21c-8.7,10.7-15.3,22.4-19.7,35.6c-2.5,7.6-4.4,15.2-4.8,23.2
		c-0.2,3.6,0,7.2,0.1,10.8c0.2,8.4-0.2,16.9,2.1,25.1c0.5,1.9,0.3,4-1.8,4.4c-1.3,0.3-3.4-0.6-4.3-1.6c-2.3-2.6-3.8-5.7-3.9-9.5
		c-0.2-6.3-1.1-12.6-1.3-18.9c-0.4-10.3,0.8-20.4,3.9-30.3c1.9-6.2,4.1-12.4,6.5-18.4c1.5-3.7,3.3-7.4,5.4-10.8
		c7.8-12.6,17.5-23.6,28.9-33.2c9.3-7.8,19.4-14.3,30-19.9c7.7-4.2,16.1-7.2,24.2-10.5c5.9-2.3,11.9-4.3,17.9-6.2
		c4.2-1.4,8.5-2.5,12.7-3.5c3.1-0.7,6.3,1.2,7.2,4.6c3.3,13.1,6.9,26.2,9.6,39.4c2.6,12.9,4.5,25.9,4,39.3
		C452.2,269.8,450.3,283.9,446.5,297.4z"/>
	<path d="M193.8,138.3c-0.2-17-0.4-33.9-0.7-50.9c-0.1-5-1.4-6.3-6.3-6.4c-16.5-0.1-32.9,0-49.4,0v-0.4c-14.5,0-28.9,0-43.4,0
		c-5.5,0-6.5,1.2-6.5,6.6c0,11.1,0,22.1,0,33.1c0,5.8-0.3,11.6-0.3,17.5c0,4.9,1.6,6.9,6.3,7.6c4.3,0.6,8.6,1,12.9,1.1
		c15.7,0.1,31.3-0.2,47-0.1c11.9,0,23.9,0.3,35.8,0.4c3.4,0,4.9-1.8,4.8-5.1C193.9,140.5,193.8,139.4,193.8,138.3z M113.6,133.9
		c0,1.8-0.9,3.1-2.8,3.3c-2.7,0.3-5.4,0.5-8.1,0.5c-3.7,0.1-5.6-1.4-5.6-5.1c0-4.2,0.5-8.4,1.2-12.5c0.5-2.7,2.8-2.8,5-2.5
		c2.4,0.2,4.8,0.3,7.1,1c1.2,0.4,2.6,1.9,2.9,3.1c0.5,2.1,0.1,4.4,0.1,6.6h0.2C113.6,130.1,113.6,132,113.6,133.9z M161.4,137.5
		c-3.4,0.1-6.8,0.2-10.1-0.1c-3.9-0.4-5.5-4.2-3.5-7.6c0.9-1.6,0.9-3.6,1.6-5.2c0.6-1.2,1.5-2.3,2.6-3c1.5-0.9,3.4-1.2,4.9-2.1
		c3.7-2,6.5-0.8,7.1,3.4c0.2,1.4,0,2.8,0,4.2c0,0-0.1,0-0.1,0c0.2,2.1,0.4,4.2,0.8,6.2C165.2,136,164,137.5,161.4,137.5z
		 M175.4,137.5c-2.1-0.4-3.5-1.5-3.3-3.9c0.2-3.4,0.2-6.8,0.5-10.2c0.3-2.8,2.2-4.3,5.1-4.5c2.8-0.2,4.2,1.4,4.9,3.9
		c0.1,0.4,0.2,0.8,0.2,1.2c0.3,2.1,0.5,4.2,0.7,5.7C183.7,135.6,180.4,138.5,175.4,137.5z M184.5,109.2c-0.3,5-2.6,6.1-6.9,3.5
		c-1.7-1-3.2-2.5-4.6-3.8c-3.4-3.1-6.6-3.2-9.7,0.1c-1.9,2-3.8,2.5-6.4,1.9c-4.9-1.1-7.4,0.9-8.1,5.9c-0.2,1.2-0.5,2.4-0.7,3.4
		c-2.9-0.9-5-1.8-7.3-2.3c-1.7-0.3-2.8,0.7-3,2.6c-0.3,3.2-0.5,6.3,1.1,9.4c2.1,4,0.2,7.3-4.3,7.6c-3,0.2-6.1-0.1-9-0.7
		c-1.2-0.3-2.7-1.9-3.1-3.2c-0.8-3.2-1.3-6.5-1.4-9.8c0-1.2,1.4-2.8,2.5-3.6c4.8-3.2,4.9-5.8,0.6-9.3c-1.1-0.8-1.9-2.3-2.2-3.6
		c-0.5-2.3-1.4-4-3.9-4.4c-2.4-0.4-3.9,1-4.7,3c-1,2.4-2.4,3.6-5.1,3.9c-2,0.2-4,1.3-6,1.8c-3.1,0.7-4.7-0.4-4.8-3.6
		c-0.2-4.7-0.3-9.4-0.2-14.2c0-3.1,1.4-4.3,4.9-4.3c9.1,0,18.3,0.1,27.4,0.2c16.2,0.2,32.3,0.3,48.5,0.4c1.2,0,2.4,0,3.6,0.2
		c2,0.4,3.2,1.6,3.2,3.8C184.7,99.1,184.8,104.2,184.5,109.2z"/>
	<path d="M178,337.6c-0.1-3.4-0.8-6.7-1.4-10.1c-0.6-3.6-3-6-6.5-6.2c-7.6-0.5-15.2-0.5-22.8-0.6c-4.7-0.1-9.4,0.2-14.1,0.2
		c-10.3-0.1-20.7-0.6-31-0.4c-7.2,0.1-10,3.1-11.1,10.1c-0.1,0.7-0.2,1.4-0.2,2.1c-0.2,18.8-0.4,37.6-0.4,56.3
		c0,5.8,2.7,8.3,8.5,8.5c1.5,0.1,3,0,4.5,0.2c21.6,2.6,43.3,1.3,65,0.4c7.8-0.4,9.6-2.5,9.6-10.3v-25.3c0,0,0,0,0,0
		C178,354.2,178.2,345.9,178,337.6z M129,331.3c0.9-0.9,2.1-1.4,3.5-1.4h5.5c2.7,0,4.9,2.2,4.9,4.9c0,1.4-0.6,2.6-1.4,3.5
		c-0.9,0.9-2.1,1.4-3.5,1.4h-5.5c-2.7,0-4.9-2.2-4.9-4.9C127.5,333.4,128.1,332.2,129,331.3z M171.8,390.3H96.9v-62.8h27.7
		c-1.6,1.9-2.6,4.4-2.6,7.1c0,6.1,5,11,11,11h5.1c3,0,5.8-1.2,7.8-3.2c2-2,3.2-4.7,3.2-7.8c0-2.7-1-5.2-2.6-7.1h25.3V390.3z"/>
	<path d="M286,187.5c0-8.2-1.1-15-4.9-21.2c-1.5-2.4-2.1-1.7-5.2-4.8c-6.4-6.5-8.2-12-11.8-18.2c-2.5-4.2-6.5-9.8-13.2-15.7
		c-9.5,12.4-17.4,22.6-24.8,32c-3.7,4.7-9.5,11.8-11.1,22.1c-0.5,3.1-0.6,6.3-0.3,9.7c1.6,15.5,11.5,25.6,25.2,29.1
		c14,3.6,26.4-1.1,37.1-10.1C284.2,204.2,286.3,195.7,286,187.5z M256.3,211.1c-2,1.4-4.4,2.1-6.7,3.1c-6.8-0.6-9.8-4.8-8-11.2
		c1.2-4.2,2.2-8.6,3.7-12.7c0.5-1.4,1.9-3.2,3.2-3.5c1.2-0.2,3.1,1.1,4.1,2.3c1,1.2,1.3,3.1,1.8,4.7c1.2,3.3,2.3,6.6,3.7,9.8
		C259.3,206.7,259,209.2,256.3,211.1z M272.5,202.2c-1,0.9-2.8,1.9-3.8,1.6c-1.2-0.4-2.6-2.1-2.7-3.4c-1.1-8.7-5.5-16.1-9.6-23.5
		c-3.4-6.2-8.4-6.7-13-1.3c-3.6,4.3-6.2,8.9-7.5,14c-0.1,0.2-0.1,0.5-0.2,0.7c0,0.2-0.1,0.4-0.1,0.6c-0.4,2.6-0.8,6.4,0.2,11.2
		c-0.2,0.6-0.7,1.8-1.8,2.4c0,0,0,0.1,0,0.1c0,0,0,0-0.1,0c-0.2,0.1-0.4,0.2-0.6,0.2c-1.6,0.4-3.2-0.9-4.2-1.9
		c-0.2-0.2-0.4-0.4-0.6-0.6c-3.1-3.3-5.3-9-5.2-15.5c0-0.3,0-0.7,0-1c0-0.3,0-0.7,0.1-1c0.4-4.7,3-8.2,5.3-12
		c0.4-0.7,0.9-1.4,1.3-2.1c0.7-1.1,1.3-2.1,1.9-3c0.2-0.4,0.4-0.7,0.6-1c0.6-0.9,1.1-1.7,1.6-2.5c3.3-5.2,6.6-10.3,9.8-15.6
		c0.7-1.1,0.9-2.4,1.4-3.6c0.6-1.5,1.5-2.4,2.5-2.9c1.3-2.1,2.1-2.9,3.3-2.8c2.8,0.1,3.7,5,11.2,16c0.6,0.9,0.2,0.2,4,5.7
		c4.3,6,6.4,9.1,8.4,13.3c0,0,0,0,0,0c0.7,0.9,1.2,1.9,1.4,3.1c0.1,0.2,0.1,0.3,0.1,0.5c0.7,3.2,1,6.5,1.4,9.8
		C277.5,193,276.8,198.2,272.5,202.2z"/>
	<path d="M412.3,277.9c-0.9,1.4-2.9,2.5-4.6,3.1c-5.3,1.8-10.7,3.3-16.1,4.8c-1.6,0.5-3.4,0.8-5,0.7c-3.2-0.2-5.5,1.2-7,3.8
		c-3.7,6.4-7.4,12.8-11.1,19.3c-1.6,2.7-3.4,5.2-4.7,8c-0.6,1.3-1.2,3.4-0.6,4.3c0.6,0.9,2.8,0.9,4.3,1c0.9,0.1,1.9-0.5,2.9-0.8
		c5.5-1.7,10.9-3.6,16.3-5.1c4-1.1,6.9-0.1,7.6,2.2c0.7,2.3-0.7,4.5-4.8,5.9c-7.4,2.4-14.9,5.5-22.5,6.2
		c-9.1,0.9-12.9,6.2-16.3,13.4c-2,4.2-4.4,8.3-7,12.2c-0.8,1.2-3.4,2.5-4.3,2.1c-1.5-0.8-2.2-2.9-3-4.1c0.4-1.7,0.5-2.7,0.8-3.5
		c2.8-6.1,5.3-12.3,8.4-18.2c2.5-4.7,2.2-8.9-0.7-13.5c-2.9-4.6-5-9.7-7.3-14.7c-1-2.2-1.7-4.5-2.3-6.8c-0.5-1.7-1-3.6-0.7-5.2
		c0.3-1.4,1.6-3.4,2.7-3.7c1.4-0.3,3.9,0.5,4.6,1.6c1.7,2.5,2.7,5.5,3.7,8.4c1.8,4.9,3.3,9.9,5.1,14.7c0.3,0.9,1.6,2,2.3,1.9
		c1-0.1,2.2-1,2.6-1.9c4.6-9.2,8.8-18.7,13.7-27.7c2.9-5.4,5-10.9,6.3-16.8c0.2-0.9,1.3-1.5,2.1-2.2c1.3-1.2,3.1-2.1,3.8-3.5
		c6.1-11.5,12-23.1,18.1-34.6c1-1.9,2.2-3.9,3.7-5.5c2.2-2.4,5.2-1.6,5.8,1.6c0.3,1.8-0.1,4.1-0.9,5.8
		c-6.6,13.2-13.4,26.2-20.2,39.3c-0.4,0.7-1,1.4-1,2.2c0,1.4-0.1,3,0.6,4.1c0.3,0.5,2.4,0.2,3.5-0.2c5.6-1.8,11.2-3.7,16.9-5.5
		c1.9-0.6,4.2-0.5,4.9,1.6C413.4,274.3,413.2,276.6,412.3,277.9z"/>
	<path d="M135.8,164.6c0-3.1-1.7-5.1-4.7-5.7c-1.6-0.4-3.4-0.6-5-0.6c-5.2-0.1-10.4,0-15.7,0v0.1c-5.4,0-10.9,0-16.3,0
		c-4.7,0-6.6,1.5-6.8,6.1c-0.4,15.1-0.7,30.1-0.9,45.2c-0.1,3.4,1.9,5.1,5.3,5.2c3.2,0.1,6.4,0.3,9.6,0.4c8.1,0.1,16.3,0.4,24.4,0.1
		c6.9-0.3,9.9-3.1,10-8.9C135.9,192.5,135.8,178.6,135.8,164.6z M127.6,196.3c0,3.6-2.9,6.6-6.6,6.6h-18.7c-3.6,0-6.6-2.9-6.6-6.6
		v-0.9c0-3.6,2.9-6.6,6.6-6.6H121c3.6,0,6.6,2.9,6.6,6.6V196.3z M127.6,173.7c0,3.6-2.9,6.6-6.6,6.6h-18.7c-3.6,0-6.6-2.9-6.6-6.6
		v-0.9c0-3.6,2.9-6.6,6.6-6.6H121c3.6,0,6.6,2.9,6.6,6.6V173.7z"/>
	<path d="M193.5,179.1c0.3-4.5,1-9,1.3-13.5c0.4-5.2-2.3-7.9-7.4-7.9c-8,0-16.1,0-24.1,0c0,0,0,0,0,0h-4.8c-1.6,0-3.2,0-4.8,0
		c-3.4,0.1-6.5,2.7-6.9,6c-0.3,2.4-0.5,4.8-0.5,7.2c0.1,9.2,0.2,18.4,0.4,27.7c0.1,3.3,0.1,6.6,0.5,9.9c0.4,3.8,2.6,6.1,6.4,6.5
		c5.2,0.4,10.4,0.5,15.5,0.5c6.2,0,12.4-0.2,18.5-0.5c4.1-0.2,6-2.2,6-6.3c0.1-6.6,0-13.3,0-19.9
		C193.6,185.5,193.3,182.3,193.5,179.1z M186.4,196.3c0,3.6-2.9,6.6-6.6,6.6h-18.7c-3.6,0-6.6-2.9-6.6-6.6v-0.9
		c0-3.6,2.9-6.6,6.6-6.6h18.7c3.6,0,6.6,2.9,6.6,6.6V196.3z M186.4,173.7c0,3.6-2.9,6.6-6.6,6.6h-18.7c-3.6,0-6.6-2.9-6.6-6.6v-0.9
		c0-3.6,2.9-6.6,6.6-6.6h18.7c3.6,0,6.6,2.9,6.6,6.6V173.7z"/>
	<path d="M289.4,245.2c-1.6,0.5-3.3,0.9-5,1c-6.3,0.1-12.6,0-19,0c0,0.2,0,0.4,0,0.5h-38.2c-5.2,0-10.4,0.1-15.6,0
		c-3.4,0-4.7-1.1-5.1-3.9c-0.4-2.9,1.1-5.2,4.2-5.6c5.4-0.6,10.8-1.1,16.2-1.2c17-0.2,33.9-0.1,50.9-0.1c3.5,0,7-0.3,10.5-0.2
		c2.3,0,4.1,1,4.4,3.6C293,242.2,292.1,244.3,289.4,245.2z"/>
	<path d="M291.1,263.3c0.1,2.1-2.2,4.4-5,4.7c-4,0.3-8,0.6-12,0.6c-16.6,0.1-33.1,0.1-49.7,0.1c-4.5,0-9,0.4-13.5,0.4
		c-3,0-4.7-1.6-4.9-4.2c-0.2-2.6,1.4-4.1,4.7-4.1c14,0,28.1,0,42.1,0v-0.9h32.8C288.6,259.7,291,261.2,291.1,263.3z"/>
	<path d="M288.2,285.2c0,1.1-1,2.9-1.9,3.2c-2,0.8-4.3,1.1-6.5,1.1c-9.4,0.1-18.9,0.1-28.3,0.1c0-0.2,0-0.3,0-0.5
		c-11.1,0-22.3,0.1-33.4-0.1c-2.5-0.1-6-0.2-6-3.7c0-3.4,3.5-3.3,5.8-3.4c6.3-0.4,12.6-0.6,19-0.6c14.9,0,29.7,0.2,44.6,0.4
		c1.5,0,3.1,0.2,4.4,0.8C286.9,283,288.2,284.3,288.2,285.2z"/>
	<path d="M260.7,114.1h-28.1c-2.6,0-4.7-2.1-4.7-4.7v0c0-2.6,2.1-4.7,4.7-4.7h28.1c2.6,0,4.7,2.1,4.7,4.7v0
		C265.3,112,263.3,114.1,260.7,114.1z"/>
	<path d="M171.8,327.5v62.8H96.9v-62.8h27.7c-1.6,1.9-2.6,4.4-2.6,7.1c0,6.1,5,11,11,11h5.1c3,0,5.8-1.2,7.8-3.2
		c2-2,3.2-4.7,3.2-7.8c0-2.7-1-5.2-2.6-7.1H171.8z"/>
	<path d="M149.1,334.6c0,3-1.2,5.8-3.2,7.8c-2,2-4.7,3.2-7.8,3.2H133c-6.1,0-11-5-11-11c0-2.7,1-5.2,2.6-7.1h21.9
		C148.1,329.4,149.1,331.9,149.1,334.6z"/>
	<path d="M149.1,334.6c0,3-1.2,5.8-3.2,7.8c-2,2-4.7,3.2-7.8,3.2H133c-6.1,0-11-5-11-11c0-2.7,1-5.2,2.6-7.1
		c0.2-0.2,0.4-0.5,0.6-0.7c2-2,4.7-3.2,7.8-3.2h5.1c3.4,0,6.4,1.5,8.4,3.9C148.1,329.4,149.1,331.9,149.1,334.6z"/>
	<path d="M116.2,272.8v-28.6c0-2.1-0.8-3.9-2.2-5.3c-1.4-1.4-3.2-2.2-5.3-2.2c-4.1,0-7.5,3.4-7.5,7.5v28.6c-3,2.3-5,5.9-5,10
		c0,6.9,5.6,12.5,12.5,12.5c6.9,0,12.5-5.6,12.5-12.5C121.1,278.7,119.2,275.1,116.2,272.8z M103.3,246.7c0-3,2.4-5.4,5.4-5.4
		c1.5,0,2.8,0.6,3.8,1.6c1,1,1.6,2.3,1.6,3.8v24.8c-1.6-0.8-3.4-1.2-5.4-1.2c-1.9,0-3.7,0.4-5.4,1.2V246.7z M108.7,290.1
		c-4.1,0-7.3-3.3-7.3-7.3c0-0.2,0-0.5,0-0.7c0.3-3.7,3.5-6.7,7.3-6.7s7,2.9,7.3,6.7c0,0.2,0,0.5,0,0.7
		C116,286.8,112.7,290.1,108.7,290.1z"/>
	<path d="M177.3,272.8v-28.6c0-2.1-0.8-3.9-2.2-5.3c-1.4-1.4-3.2-2.2-5.3-2.2c-4.1,0-7.5,3.4-7.5,7.5v28.6c-3,2.3-5,5.9-5,10
		c0,6.9,5.6,12.5,12.5,12.5s12.5-5.6,12.5-12.5C182.3,278.7,180.4,275.1,177.3,272.8z M164.5,246.8c0-3,2.4-5.4,5.4-5.4
		c1.5,0,2.8,0.6,3.8,1.6c1,1,1.6,2.3,1.6,3.8v24.8c-1.6-0.8-3.4-1.2-5.4-1.2c-1.9,0-3.7,0.4-5.4,1.2V246.8z M169.9,290.1
		c-4.1,0-7.3-3.3-7.3-7.3c0-0.2,0-0.5,0-0.7c0.4-3.7,3.5-6.7,7.3-6.7c3.8,0,7,2.9,7.3,6.7c0,0.2,0,0.5,0,0.7
		C177.2,286.8,173.9,290.1,169.9,290.1z"/>
</g>
</svg>
