<?xml version="1.0" encoding="utf-8"?>
<!-- Generator: Adobe Illustrator 24.0.1, SVG Export Plug-In . SVG Version: 6.00 Build 0)  -->
<svg version="1.1" id="Layer_1" xmlns="http://www.w3.org/2000/svg" xmlns:xlink="http://www.w3.org/1999/xlink" x="0px" y="0px"
	 viewBox="0 0 500 500" style="enable-background:new 0 0 500 500;" xml:space="preserve">
<style type="text/css">
	.st0{fill:#FFFFFF;}
</style>
<g>
	<path d="M444.5,411.5c-4.2-5.3-8.9-10.3-13.8-15c-10-9.5-20.2-18.8-30.3-28.2c-7.1-6.6-14.1-13.3-21.4-19.8
		c-4.1-3.7-8.5-7.1-12.7-10.6c-1.6-1.3-2.4-2.8-1.5-4.9c1.2-2.9,2.2-5.9,3.3-8.8c4.1-11,6.8-22.3,8.6-33.8
		c2.7-17.9,1.7-35.7-1.5-53.4c-2.1-11.5-6-22.5-10.7-33.2c-4.5-10.2-9.9-19.8-16.4-28.8c-12.1-16.8-26.9-30.7-44.4-41.6
		c-5.8-3.6-12.1-6.6-18.3-9.6c-5.3-2.5-10.6-5.1-16.2-6.8c-8.1-2.3-16.4-3.8-24.6-5.6c-2.8-0.6-3.9-1.6-4-4.5c-0.1-4-0.1-8,0-12
		c0.1-3.1,1.7-4.4,4.8-4.2c2.3,0.1,4.6,0.4,6.9,0.4c6.3,0,10.6-3.5,11.4-9.8c0.5-3.5,0.5-7.1,0.7-10.8c-0.2-3.5-0.1-7.3-0.8-10.8
		c-1.2-6.3-4.6-11-11.3-12.2c-3.3-0.6-6.8-0.8-10.1-0.8c-17.7-0.2-35.4-0.3-53.1-0.3c-2.5,0-5.2,0.1-7.6,1c-2.6,0.9-5.8,2.2-7.3,4.3
		c-2,2.9-3.4,6.6-3.8,10.1c-0.5,5.5-0.4,11.1,0.3,16.5c0.7,5.6,3,10.7,9.4,12c2.5,0.5,5.3,0.3,7.9,0.4c3.3,0.1,4.7,1.4,4.8,4.6
		c0.2,3.3,0.3,6.6,0.3,10c0,3-1.1,4.2-4.1,4.9c-6,1.3-12,2.6-17.9,4.2c-8.5,2.4-16.8,5.4-24.6,9.6c-2.3,1.2-4.5,2.4-6.8,3.5
		c-6.5,3.3-12.8,6.9-18,12.2c-2,2-4.8,1.6-6.7-0.6c-1.2-1.4-2.5-2.8-4-3.9c-3.5-2.7-3.6-5.2,0-7.7c3.7-2.6,4.5-6,2.3-10
		c-1.2-2.1-2.5-4-3.8-6c-3.2-5-7.8-8.1-13.3-9.7c-2.2-0.6-5.2-0.2-7.3,0.9c-3,1.5-5.6,3.8-8.1,6.1c-5.1,4.8-10,9.7-14.8,14.8
		c-4.5,4.7-8.7,9.5-12.9,14.4c-2.5,3-2.5,5.9-0.3,9.1c3.3,4.9,6.8,9.5,11.5,13.3c6.8,5.4,9.5,5.2,14.6-1.9c2-2.8,4.6-3,7-0.5
		c1.6,1.7,3.1,3.4,4.7,5.1c1.7,1.8,1.7,3.7,0.3,5.5c-3,4.3-6.4,8.4-9.1,12.9c-3.6,6-7,12.1-9.9,18.4c-2.4,5.1-4.3,10.6-6.1,16
		c-2.2,6.6-4.5,13.2-5.9,20c-3.8,20-4.2,40.2-0.2,60.2c3,15,7.7,29.6,14.8,43.3c4.6,8.8,9.6,17.2,15.5,25.1
		c10.3,13.6,22.5,25.3,36.6,35c12.4,8.5,25.7,15.2,40,20c9.6,3.3,19.5,5.5,29.5,7c12,1.9,24.1,2.4,36.1,0.9c10.5-1.3,21-2.8,31-6.4
		c8.7-3.1,17.5-6,26-9.8c10.6-4.7,20.1-11.4,29.1-18.6c3.6-2.9,6.9-6,10.4-9.1c2.6-2.3,4.5-2.5,6.5-0.6c4.8,4.5,9.6,8.9,14.3,13.5
		c12.9,12.4,25.6,25,38.6,37.3c5.8,5.6,12,10.9,18.1,16.2c1.4,1.2,3.1,2.1,4.9,2.7c14.7,4.8,31.8-4.8,36.6-19.7
		C450.1,424.8,449.5,417.8,444.5,411.5z M185.7,82.6c-5.3,0-7.5-2.1-7.5-7.4c0-4.6,0-9.2,0.5-13.7c0.5-4.5,3.9-7,8.3-7.1
		c19.8-0.1,39.5-0.1,59.3,0c6.1,0,9.9,3.7,10,9.9c0.1,3.8-0.1,7.7-0.5,11.5c-0.4,4.6-2.9,6.8-7.6,6.8c-10.6,0-21.1,0-31.7,0v0.1
		C206.3,82.6,196,82.6,185.7,82.6z M233.4,104.9c-0.1,2.7-1.6,4-4.3,4c-2.1-0.1-4.3-0.2-6.4-0.3c-2.1,0-4.3,0-6.4,0v0.1
		c-3.8,0-7.6,0-11.5,0c-4.1,0-5.3-1.2-5.3-5.3c0-2.5,0-4.9,0.1-7.4c0.2-4,2.5-5.8,6.5-5.7c6.6,0.1,13.3-0.1,19.9-0.1
		c6.2,0,7.4,1.2,7.3,7.5C233.4,100.1,233.5,102.5,233.4,104.9z M74.7,151.6c-2.8,2.8-5.7,2.6-8.4-0.4c-1.5-1.6-3-3.3-4.5-4.8
		c-2.7-2.7-2.9-4.6-0.1-7.4c5.6-5.7,11.3-11.3,17-16.9c3.3-3.2,6.6-6.4,10-9.4c1.5-1.3,3.4-2.1,5-3.1c0.1,0.2,0.2,0.3,0.3,0.5
		c0.3,0,0.7,0.1,1,0.1c3.1,0.7,9,7.3,8.9,10.4c0,1.2-0.7,2.7-1.5,3.6C93.2,133.4,84,142.5,74.7,151.6z M89.7,150.5
		c-0.4-0.5,0-2.1,0.6-2.7c2.8-3.1,5.6-6.1,8.6-9c1.7-1.6,3.5-1.1,5,0.2c2,1.8,4.1,3.7,5.7,5.8c0.6,0.8,0.6,2.6,0.1,3.6
		c-0.5,1.1-1.9,1.8-2.9,2.8c-1.5,1.5-2.9,3-4.4,4.5c-1.1,1-2.4,1.9-3.3,2.7c-1.3-0.3-2.1-0.3-2.5-0.7
		C94.2,155.3,91.9,153,89.7,150.5z M332.8,368.1c-6.9,8.4-15.2,15.4-24.1,21.5c-7.6,5.2-15.5,9.7-23.4,14.3c-2.9,1.7-6.1,3-9.3,4.2
		c-21.8,8.5-44.3,13.5-67.9,11.7c-10.7-0.8-21.2-2.8-31.6-5.8c-13-3.8-25.2-9.1-36.8-16c-15.5-9.2-29.2-20.6-40.4-34.8
		c-5.9-7.5-11.3-15.4-15.9-23.7c-6-10.9-10.2-22.5-13.5-34.6c-3.1-11.5-4.6-23.1-5-34.8c-0.3-7.4,0.8-14.8,1.5-22.1
		c1-10.8,4-21,7.5-31.2c3.3-9.6,7.4-18.8,12.7-27.5c3.7-6.2,8-12,12.5-17.7c4.5-5.6,9.3-10.9,14.4-15.9c8.6-8.3,18.2-15.4,29-20.6
		c7.5-3.6,14.9-7.5,22.7-10.2c7.8-2.7,15.9-4.5,24-5.9c9-1.5,18.2-2.1,27.3-3c0,0.3,0,0.6,0.1,0.9c12.6-1,24.9,1.1,36.9,4.1
		c9.2,2.3,18.4,4.9,26.9,9.4c8.3,4.5,16.8,8.6,24.6,13.8c13.1,8.7,24.4,19.6,34,32.1c6,7.9,11.3,16.2,15.4,25.2
		c3.4,7.7,6.1,15.7,9.1,23.5c3.7,9.7,5.1,20,6.3,30.2c1.4,12.3,0.4,24.6-1.4,36.9c-1.3,8.8-3.1,17.5-6,25.8c-2.4,7-5.6,13.9-9,20.5
		C347.9,349.2,340.4,358.7,332.8,368.1z M441.8,425.3c-1.9,11.7-9.7,20.7-23.4,21.3c-3.4-0.1-6.6-1.5-9.3-4
		c-11.5-10.9-22.9-21.9-34.4-32.8c-11.5-10.8-23-21.5-34.5-32.2c-1.9-1.7-1.9-3.5-0.3-5.6c4.9-6.7,9.8-13.5,14.6-20.3
		c1.4-1.9,2.4-4.1,3.9-6c1.6-2,3.3-2,5.3-0.3c13.6,12.5,27.1,25.1,40.8,37.5c8.7,7.9,17.6,15.6,26.1,23.7c3.7,3.5,6.8,7.8,9.8,12
		C441.4,420.5,442.2,423.2,441.8,425.3z"/>
	<path d="M344.4,267.3c-0.1-9.6-0.6-19.2-3.1-28.6c-3.9-14.5-9.8-28.1-18-40.6c-7.3-11-16.2-20.6-26.6-28.8
		c-10.9-8.7-23.3-15-36.3-19.9c-13-4.9-26.5-7-40.3-7.4c-17.4-0.6-34.2,2.1-50.3,9c-9,3.9-17.8,8.2-25.7,14
		c-13,9.6-24.3,21.1-33.1,34.8c-1.4,2.2-3,4.2-4.1,6.4c-3.5,7.2-7.5,14.1-9.4,22c-2,8.1-4.9,16-5.9,24.2c-1.1,8.8-1.2,17.9-0.5,26.7
		c0.7,8.3,2.5,16.5,4.8,24.5c2.4,8.1,5.4,16.1,10,23.4c3.4,5.3,6.2,11,9.9,16c7.7,10.5,16.8,19.6,27.4,27.3
		c10.7,7.7,22.3,13.3,34.6,17.6c12.3,4.3,25.1,6.2,38.1,6.5c17.6,0.4,34.5-3.3,50.7-9.9c9-3.7,17.4-8.5,25.3-14.1
		c16.3-11.8,28.9-26.8,38.5-44.3c5.7-10.4,9.4-21.6,11.7-33.1c1.7-8.4,1.9-17,2.8-25.6C344.8,267.3,344.6,267.3,344.4,267.3z
		 M336.2,270.1c-1.4,66.1-53.4,116-120.2,115.9c-67.3-0.1-116.3-54.7-117.1-118.8c1.3-64.3,50.5-116.5,117.4-117.2
		C283,149.4,337.5,203.7,336.2,270.1z"/>
	<path class="st0" d="M316.8,243.9c-1.8-7.9-4.4-13.7-6.4-18c-2.1-4.7-3.8-7.7-4.4-8.8c-2.3-3.9-4.4-6.9-6.1-9.2
		c-14.7-19.6-33.4-28.1-49.9-35.7c-0.8-0.4-8.5-3.7-17.8-6c-3.1-0.8-0.9-0.1-8.6-1.5c-5.1-1-7.2-1.5-8.8-0.2c-1.3,1-1.8,2.7-1.9,3.8
		c-0.2,1.8,0.1,3.7,0.3,5.6c0.2,1.9,0.7,3.9,0.7,5.8c0.1,14.3,0,28.6,0,42.9c0.1,22.2,0,37.6-0.5,42.7c-0.1,0.9-0.4,3.6,1.2,5.2
		c0.9,0.9,2.4,1.2,4.9,1.2c18.1,0.1,36.3,0.5,54.4,0.4c3.1,0,0.4,0,24.5,0.5c8.7,0.2,15.8,0.3,20.4,0.4c0.1-3.3,0.1-6.6,0.2-9.9
		C319,255.1,317.9,248.6,316.8,243.9z"/>
	<path d="M319,263.1c0,3.3-0.1,6.6-0.2,9.9c-4.6-0.1-11.7-0.2-20.4-0.4c-24.1-0.5-21.4-0.5-24.5-0.5c-18.1,0.1-36.3-0.3-54.4-0.4
		c-2.5,0-4-0.3-4.9-1.2c-1.6-1.7-1.3-4.5-1.2-5.2c0.5-5.2,0.3-40.3-0.2-90.8c-0.2-0.8-1.7-7.8,1.5-9.9c1.7-1.2,4.5-0.6,8.8,0.2
		c7.7,1.5,5.5,0.8,8.6,1.5c9.3,2.3,17,5.6,17.8,6c16.6,7.6,35.3,16.1,49.9,35.7c1.7,2.2,3.8,5.3,6.1,9.2c0.6,1.1,2.3,4.1,4.4,8.8
		c1.9,4.4,4.5,10.2,6.4,18C317.9,248.6,319,255.1,319,263.1z"/>
	<path d="M221,365.1c0,1.9,0.2,3.8,0,5.6c-0.2,2.2-1.2,4-3.7,4.2c-2.5,0.2-4.1-1.4-4.2-3.6c-0.2-4.7-0.1-9.5,0.1-14.2
		c0.1-1.8,1.6-3.2,3.4-2.7c1.4,0.3,3.4,1.5,3.8,2.7c0.8,2.5,0.8,5.3,1.1,8C221.2,365,221.1,365.1,221,365.1z"/>
	<path d="M132.3,268c-0.1,1.1-1.5,2.5-2.6,2.9c-1.8,0.6-3.8,0.5-5.7,0.5c-1.6,0-3.2-0.2-4.8-0.3c0,0.1,0,0.2,0,0.2
		c-1.4-0.1-2.9-0.1-4.3-0.3c-2.2-0.2-3.4-1.4-3.5-3.6c0-2.2,0.8-3.9,3.2-4.2c1.3-0.2,2.5-0.1,3.8-0.2c2.5,0,5.1-0.2,7.6,0
		c1.6,0.1,3.5,0.4,4.7,1.2C131.5,265.1,132.4,266.9,132.3,268z"/>
	<path d="M159.2,337.9c-2.6,2.5-5,5.1-7.6,7.5c-0.9,0.8-2.1,1.2-2.7,1.5c-3.3-0.1-5.5-3-4-5.3c2.6-3.7,5.6-7.2,8.8-10.4
		c1.6-1.6,3.6-0.6,5.6,1.8C160.8,334.7,160.9,336.3,159.2,337.9z"/>
	<path d="M158.2,205.5c-2,1.5-3.5,0.3-4.9-1.1c-2.2-2.2-4.4-4.3-6.3-6.7c-1-1.2-1.7-2.8-1.9-4.3c-0.3-2.3,1.7-4.1,4.7-4.1
		c0.6,0.3,2,0.9,2.9,1.9c2.3,2.7,4.6,5.5,6.6,8.4C160.8,201.9,160.3,204,158.2,205.5z"/>
	<path d="M289,347.5c-0.3,0.4-0.9,1.8-1.8,2.1c-1,0.4-2.8,0.3-3.5-0.4c-3.4-3.2-6.6-6.6-9.6-10.2c-0.7-0.9-1-3.1-0.4-3.9
		c0.8-1.1,2.7-1.4,4.1-1.9c0.2-0.1,0.5,0,0.8,0.1C281.6,334,289.1,343.8,289,347.5z"/>
</g>
</svg>
