<?xml version="1.0" encoding="utf-8"?>
<!-- Generator: Adobe Illustrator 24.0.1, SVG Export Plug-In . SVG Version: 6.00 Build 0)  -->
<svg version="1.1" id="Layer_1" xmlns="http://www.w3.org/2000/svg" xmlns:xlink="http://www.w3.org/1999/xlink" x="0px" y="0px"
	 viewBox="0 0 500 500" style="enable-background:new 0 0 500 500;" xml:space="preserve">
<g>
	<path d="M445.8,238.3c-2.2-14.5-2.5-29.3-7.2-43.5c-4-11.9-8-23.8-13.3-35.2c-0.9-1.9-2-3.8-3.1-5.7c-3.6-6.3-6.9-12.8-11-18.8
		c-6.2-9.2-13.9-17.2-22-24.8c-7.9-7.4-16.2-14.3-25.4-19.9c-5.5-3.4-11.1-6.5-16.8-9.6c-9.1-5-18.5-9.6-28.4-12.9
		c-3.5-1.2-7-2.4-10.4-3.6c-2.4-0.8-4.7-1.8-7.2-2.4c-6.1-1.5-12.3-2.8-18.4-4.2c-17.6-4-35.6-4.5-53.4-2.5
		c-17.2,1.9-34.1,5.4-50.2,11.9c-4,1.6-8,3.2-12,4.8c-1.8,0.8-3.5,1.8-5.3,2.7c-5.7,3-11.7,5.6-17,9.2c-8.5,5.9-16.5,12.4-24.6,18.7
		c-10.9,8.5-20,18.8-28.3,29.9c-3.6,4.9-7.4,9.6-10.1,15.2c-3.3,7-7.4,13.5-10.9,20.3c-1.4,2.8-2.3,5.8-3.4,8.8
		c-1.8,4.8-3.8,9.5-5.4,14.3c-2,6.1-4.3,12.1-5.4,18.4c-1.6,9.2-2.9,18.5-3.2,27.8c-0.7,21.5-0.7,43,6.1,63.8
		c2.1,6.4,3.7,12.9,5.7,19.3c0.7,2.2,1.8,4.3,2.8,6.4c3.4,7.3,6.7,14.7,10.2,21.9c1,2.1,2.7,3.8,4,5.7c3.9,5.8,7.5,11.8,11.9,17.3
		c8.5,10.6,18.2,20.1,28.8,28.6c6,4.8,12.4,9.2,18.9,13.3c6.1,3.9,12.3,7.8,18.8,11c7.8,3.8,15.9,7,24.1,10
		c7.2,2.6,14.5,4.9,21.9,6.4c13.8,2.9,27.8,4.7,42.1,4.7c7.3-0.5,14.7-0.9,22-1.7c14.3-1.5,28.5-4.2,42-9.3c6.5-2.4,13-4.7,19.3-7.4
		c5.4-2.3,10.8-5,15.8-8c6.7-4.1,13.4-8.4,19.6-13.2c7.6-5.8,15-12,22.1-18.5c4.4-4,8.1-8.7,12.1-13c7.6-8.3,14.2-17.4,19.6-27.3
		c2.8-5.1,5.3-10.3,7.8-15.6c2.1-4.6,4-9.4,5.9-14.1c0.8-2,1-4.2,1.7-6.2c2.6-7.1,4.6-14.3,5.9-21.8
		C445.3,272.7,448.4,255.7,445.8,238.3z M430.9,275.2c-1.1,8.7-3.3,17.3-5.3,25.8c-1.2,5-2.8,9.8-4.4,14.7c-0.5,1.5-1.3,2.9-2,4.4
		c-1.3,2.8-2.6,5.5-3.9,8.3c-1.8,3.8-3.6,7.6-5.5,11.3c-1.9,3.6-3.6,7.3-5.9,10.5c-9.6,13.8-20.9,26.1-34.1,36.6
		c-5.1,4-9.9,8.4-15.3,11.9c-9.2,6-18.5,11.9-28.6,16.5c-9.1,4.2-18.5,7.5-27.9,10.7c-5.3,1.8-11,2.6-16.6,3.4
		c-10,1.4-19.9,2.7-30,3.5c-12.5,1-24.7-1.6-36.9-3.9c-11.4-2.1-22.2-6.1-33-9.9c-7-2.4-13.5-6.2-20-9.7c-5.6-3-11.2-6.1-16.5-9.6
		c-5.3-3.4-10.2-7.3-15.2-11.2c-3.4-2.7-6.5-5.7-9.8-8.5c-7.5-6.2-13.5-13.8-18.8-21.8c-5.1-7.6-9.5-15.6-13.7-23.7
		c-4-7.7-7.5-15.7-11-23.6c-1.2-2.6-1.4-5.6-2.4-8.3c-4.4-12.6-6-25.7-6.9-38.9c-1.1-16.6,0.1-33.1,2.8-49.4
		c0.8-5.1,2.6-10.1,4.3-15c3.1-9,6-18.1,9.8-26.8c2.6-6,6.1-11.6,9.8-17c5.7-8.6,11.6-17.1,18-25.2c4.4-5.6,9.4-10.9,14.8-15.7
		c7.1-6.2,14.5-12.1,22.2-17.5c5.5-3.8,11.7-6.7,17.6-9.8c3.2-1.7,6.5-3.4,9.9-4.8c10.4-4.1,20.9-8,31.9-10.6
		c13.1-3.1,26.2-4.3,39.6-5c8.9,0.9,17.9,1.4,26.8,2.9c9.4,1.7,18.8,4.1,28,6.7c7,2,13.9,4.4,20.6,7.3c6.4,2.7,12.5,6.2,18.6,9.6
		c5.7,3.1,11.5,6.4,16.9,10c5.3,3.6,10.3,7.6,15,11.8c6,5.4,11.8,11.1,17.5,16.9c7.2,7.3,13.5,15.2,18,24.4
		c4.2,8.6,7.9,17.5,11.5,26.4c1.1,2.7,1.3,5.8,2.3,8.6c6,16.4,8.7,33.5,10,50.6C433.9,253.2,432.2,264.3,430.9,275.2z"/>
	<path d="M380.9,341.6c-0.6,5.2-3.2,7.3-8.3,8.4c-3.7,0.8-7.2,2.3-10.7,3.4c-2.9,0.9-5.8,2.2-8.8,2.6c-6.5,0.9-12.6,2.7-18.4,5.8
		c-2.4,1.3-5.3,1.7-7.9,2.7c-8.9,3.3-17.8,6.6-26.7,10c-4.5,1.7-9,3.4-13.5,5.3c-1.7,0.7-3.3,1.8-5.1,2.5c-3.4,1.3-6.9,2.8-10.4,3.6
		c-6.2,1.4-11.3,5-16.4,8.5c-4.4,3-8,2.8-12.6,0.1c-6.2-3.7-13-6.5-19.5-9.8c-1.6-0.8-3.2-1.7-4.8-2.5c-10-4.7-19.9-9.5-30-14.1
		c-4.8-2.2-9.8-4-14.6-6.2c-8.1-3.7-15.9-7.8-24.1-11.3c-4.5-1.9-8.5-4.1-11.6-7.9c-2.1-2.6-3.3-5.2-3.3-8.6
		c0.2-17.6,0.5-35.3,0.5-52.9c0-14.7-0.4-29.3-0.5-44c-0.2-29-0.4-58-0.6-86.9c0-1.2,0-2.3-0.1-3.5c-0.7-7.7,5.3-13.9,13-14
		c9-0.2,17.9-0.8,26.9-1.4c9.7-0.7,18.7-4.4,27.8-7.5c11.1-3.7,21.5-8.9,31.1-15.7c0.3-0.2,0.6-0.4,0.9-0.6
		c8.2-6.5,11.8-6.4,20.4-0.5c6.9,4.7,14.2,8.7,21.2,13.2c7.3,4.7,15.4,7.8,23.5,10.4c9.5,3,19.2,4.7,29.2,1.5
		c2.9-0.9,6.3-0.5,9.4-0.3c3.5,0.3,6.2,3.3,6.4,6.9c0.5,10-0.5,19.9-2.8,29.7c-0.5,1.9-2.3,3.9-4.1,5.1c-2.8,2-6.6-0.6-6.9-4.9
		c-0.2-2.7,0.2-5.4,0.1-8.1c0-2.1,0.1-4.3-0.4-6.4c-0.9-4.4-2.7-5.8-7.1-5.7c-11.6,0.3-22.7-2.1-33.5-6c-5.8-2.1-11.6-4.4-17-7.5
		c-7-3.9-13.6-8.6-20.4-13c-0.6-0.4-1.2-0.8-1.8-1.2c-4.1-2.9-8-2.7-12.1,0.3c-6.8,5-14.6,8.2-22.3,11.9c-9,4.3-18.4,7.6-27.9,9.9
		c-10.1,2.4-20.8,2.7-31.2,3.8c-1.3,0.2-2.7,0.1-4,0.3c-2.7,0.4-4.5,1.9-4.7,4.8c-0.2,2.5-0.5,5-0.5,7.5c0.2,14.3-0.3,28.6,0.7,42.9
		c1.2,17.2-0.2,13.2,0.5,80.2c0.3,33.9,0.6,31.5,0.6,32.1c0.1,5.2,0.1,10.4,0.5,15.6c0.5,6.2,5,9.4,10.1,11.5
		c8.2,3.4,16.6,6.2,24.8,9.7c8,3.4,15.8,7.3,23.7,11c3.2,1.5,6.5,2.7,9.7,4.1c4.9,2.1,9.9,4.3,14.7,6.5c1.4,0.6,2.5,1.8,3.9,2.3
		c2.4,1,5,2.2,7.5,2.4c3.1,0.2,4.5-2.1,4.1-5.2c-1.1-8.5-1.8-17.2-3.1-25.7c-1.6-10.4-7.8-23.5-20.9-26.1c-4.7-0.9-9.5-2-14.1-3.3
		c-1.5-0.4-3.2-1.3-4-2.4c-1-1.4-2.1-3.7-1.5-5c0.6-1.6,2.8-3.5,4.4-3.7c6.9-0.8,13.3,0.4,18.9,5.1c3.5,2.9,7.6,5,11.7,7.2
		c2.5,1.4,5.3-0.3,6-3.5c1-4.5,3.5-7.9,7-10.6c1.3-1,3.6-1.8,5-1.3c1.2,0.4,2.2,2.7,2.4,4.3c0.3,2.3-0.1,4.7-0.5,7
		c-2.3,11.6-1.1,23.3-1.1,35c0,7.1-0.2,14.3-1.5,21.2c-0.8,4.3,2.2,7.6,6.6,6.6c4.8-1.1,11-8.3,10.9-13.4
		c-0.1-13.6-0.3-27.2-0.5-40.8c0-3.2,0-6.5,0-9.7c0.1-5-0.1-9.9-2.6-14.4c-0.5-0.9-0.7-2-0.9-3.1c-0.8-4.6,1.5-8.1,6.1-8.9
		c1.8-0.3,3.8-0.2,5.6,0.1c4.3,0.8,5.6,2.4,4.6,6.6c-2,9-0.8,18.1-0.6,27.1c0.3,9.7,0.2,19.4,0.3,29.1c0,3,0.1,5.9,0.4,8.9
		c0.4,3.6,3.9,5.4,7.5,4.2c6.6-2.2,10.8-8.1,10.8-15.1c0-5.1,0-10.3,0-15.4h0.5c0-9.3-0.1-18.5,0.1-27.8c0.1-3.4,0.8-6.8,1.2-10.2
		c0.7-5.7-0.9-7.8-6.5-8.6c-1.4-0.2-2.8-0.5-4.2-0.9c-2.1-0.6-3.9-1.5-4.1-4c-0.2-3,0.9-5,3.4-6.1c1.6-0.7,3.2-1.4,4.9-1.6
		c5.2-0.5,7.5-3.6,8.7-8.2c0.9-3.6,3.3-5.7,6.8-6.6c4.2-1,6.7,1,6.4,5.3c-0.3,5.3-0.9,10.6-1.3,15.8c-0.1,0.8-0.2,1.6-0.2,2.4
		c0.1,18.9,0.3,37.8,0.5,56.6c0,2.3-0.4,4.7-0.1,7c0.5,3.7,3.1,5.4,6.8,4.8c6.2-1,10-5.5,10-12.2c0-7.2-0.4-14.4-0.4-21.6
		c0-12.4,0.4-24.8,0.3-37.2c-0.1-9.8-0.9-19.6-1.3-29.3c0-0.7-0.1-1.5,0.1-2.1c1.2-5.3,8.1-10.1,13.6-9.5c3.8,0.4,5.5,2.7,4.8,6.5
		c-0.1,0.3-0.1,0.5-0.2,0.8c-3,7.7-2.9,15.8-2.9,23.9c0,18.1-0.3,36.2-0.5,54.3c0,2.1-0.4,4.1-0.4,6.2c0,4.8,2.5,8.1,6,8.2
		c5.7,0.3,9.6-2.7,10.1-7.8c0.2-2.2,0.1-4.5,0-6.8c-0.1-18.7-0.3-37.4-0.4-56.1c0-7.7,0.3-15.5,0.4-23.2c0-2,0.3-4-0.2-5.9
		c-1.4-5.4,1.5-8.8,5-12c3.6-3.3,7.8-1.8,8.5,3c0.4,2.7,0.3,5.5,0.3,8.3c0,1.7-0.2,3.4-0.2,5.1c0,14.8,0,29.5,0.2,44.3
		c0.2,14.8,0.7,29.5,1,44.3C381.1,334.9,381.3,338.3,380.9,341.6z"/>
	<path d="M300.3,208.2c-0.6,1.1-1.5,2.1-2.3,3c-8.8,8.5-17.8,16.8-26.3,25.5c-6.3,6.4-12.5,13-17.9,20.1c-3.8,5-6.2,11.1-9.2,16.7
		c-0.5,0.9-1,1.7-1.6,2.5c-2,2.8-4.1,5.5-6,8.3c-1.6,2.3-3.5,3.5-6.3,3.3c-0.1,0.2-0.3,0.5-0.4,0.7c-2.4-1.3-5.1-2.2-7-4
		c-8.7-8-17.2-16.3-25.8-24.5c-2.6-2.5-5.2-4.9-7.9-7.3c-2.2-2-4.9-2.4-7.8-1.9c-2.3,0.4-4.6,0.8-6.9,0.8c-3,0-4.4-2.5-2.5-4.8
		c3.5-4.1,7.2-8,11.3-11.5c1.2-1,4.1-1.1,5.8-0.4c2.8,1,5.7,2.5,7.8,4.6c6.3,6.3,12.2,13,18.2,19.4c2.9,3.1,5.6,6.3,8.8,9.1
		c2.7,2.4,5.1,1.4,7-1.7c3.6-6,6.8-12.4,11.4-17.6c13.2-15,27.1-29.6,40.6-44.3c3.4-3.7,7.7-4.8,12.5-4.6
		C300.2,199.8,302.6,204.3,300.3,208.2z"/>
	<path d="M380.6,178c-1,3.2-3.5,5-4.1,5.4c-9.4,7-29.4,33.5-58.1,60.1c0,0-3,2.6-7.5,4.1c-3.6,1.2-5.8,0.2-7.3-2.2
		c-1.4-2.4-1-5.5,1.1-8c2.6-3,5.1-6,7.8-8.9c7.7-8.3,15.3-16.7,23.1-24.9c7.4-7.7,18.2-19.3,32.4-35.7c1.7-0.6,3.4-1.2,5.1-1.7
		c0.9,0,3.2,0.3,5.1,1.9C381.3,170.6,381.5,175.1,380.6,178z"/>
</g>
</svg>
