<?xml version="1.0" encoding="utf-8"?>
<!-- Generator: Adobe Illustrator 24.0.1, SVG Export Plug-In . SVG Version: 6.00 Build 0)  -->
<svg version="1.1" id="Layer_1" xmlns="http://www.w3.org/2000/svg" xmlns:xlink="http://www.w3.org/1999/xlink" x="0px" y="0px"
	 viewBox="0 0 500 500" style="enable-background:new 0 0 500 500;" xml:space="preserve">
<g>
	<g>
		<path d="M460.8,274.4c0,2.1-0.3,4.3-1.1,6.2c-1.8,4.3-5.5,4.6-7.6,0.5c-1.9-3.8-3.4-7.9-4-12.1c-1.5-9.7-2.6-19.5-3.6-29.3
			c-1.1-10.6-0.8-21.5-3.2-31.8c-2.8-12.2-5.6-24.4-10.4-36.1c-5-12.3-11.6-23.6-19-34.4c-10.3-15.1-22.5-28.5-37-39.6
			c-8.6-6.7-17.4-13.2-26.7-18.8c-7.2-4.4-15.3-7.3-23.2-10.6c-14.2-5.9-28.7-10.7-43.9-13c-21-3.1-42.1-2.7-63.1,0.6
			c-13.5,2.1-26.6,5.9-39.1,11.4c-7.8,3.5-15.8,6.5-23.3,10.5c-10.4,5.5-20.5,11.4-29.2,19.5c-5,4.7-10.7,8.7-15.5,13.5
			c-5.9,6-11.6,12.2-16.7,18.9c-5,6.6-9.7,13.5-13.7,20.7c-4.3,7.9-8.1,16.1-11.3,24.5c-4.1,10.7-7.8,21.6-10.7,32.7
			c-2.2,8.4-3.4,17.2-4.2,25.9c-1.5,16.5-0.6,33,2.5,49.2c2.7,14.3,6.3,28.4,12.5,41.8c5.7,12.5,11.2,25,19.5,36.1
			c9.3,12.6,18.9,25,30.8,35.3c8.7,7.7,17.5,15.3,27,21.9c7.2,5,15.5,8.5,23.5,12.5c14,7,28.9,11.2,44.3,13.6
			c26.1,4.1,52.1,3.3,77.8-2.5c9.4-2.1,18.2-6.6,27.2-10c1.8-0.7,3.6-1.3,5.3-2.1c9.3-4.3,18.6-8.8,27.9-12.9
			c2.9-1.3,6.3-2.2,9.4-2.4c3.2-0.1,4.9,2.5,3.7,5.4c-1.3,2.9-3.1,6-5.5,8c-4.1,3.4-8.8,6-13.4,8.7c-16.3,9.9-34.1,16-52.4,20.3
			c-15.1,3.6-30.7,4.5-45.5,4.3c-16.1,0.1-31.4-1-46.3-4.5c-9-2.1-17.9-4.9-26.5-8.2c-8.2-3.2-16.3-7.1-24-11.4
			c-10.3-5.8-20.8-11.6-30-18.9c-10.3-8.1-19.8-17.4-28.7-27c-7.5-8.2-14-17.4-20.2-26.5c-4.3-6.3-7.8-13.3-11.1-20.2
			c-4.2-9-8.2-18.1-11.7-27.4c-1.9-5.1-2.4-10.7-4-15.9c-6.2-20.1-7.8-40.7-7.1-61.6c0.4-13.3,2.6-26.3,6.1-39.3
			c3.4-12.7,7.7-25.1,12.8-37.2c3.1-7.3,7.1-14.2,11.3-20.9c5.8-9.3,11.7-18.7,18.5-27.3c6-7.4,13-14.1,20.3-20.4
			c8.9-7.7,18.2-14.9,27.8-21.6c5.9-4.1,12.6-6.9,19-10.2c0.4-0.2,0.9-0.3,1.3-0.5c8.3-3.7,16.6-7.5,24.9-11.1
			c2.3-1,4.7-1.6,7.1-2.4c24.1-7.6,48.8-10.5,74.1-9.2c13.7,0.7,27.2,2,40.2,6.8c0.7,0.3,1.4,0.4,2,0.6c6.2,1.9,12.5,3.5,18.5,5.9
			c9.4,3.8,18.9,7.6,27.9,12.3c15.6,8.2,29.8,18.5,42.9,30.3c12.6,11.4,23.9,24.1,32.7,38.7c3.6,5.9,7.1,11.8,10.1,17.9
			c4.6,9.5,8.9,19.1,12.7,28.8c2.3,5.9,3.1,12.4,5,18.5c4.4,13.6,5.6,27.6,5.8,41.8C460.4,252.1,460.7,263.3,460.8,274.4z"/>
		<path d="M399.7,239.8c0.1,1.7-0.3,3.5-0.7,5.3c-0.8,3.4-2.5,5.9-6.3,6.2c-4.2,0.4-7.9-1.1-8.9-4.9c-1.2-4.4-1.2-9-1.6-13.6
			c-0.1-1,0.4-2.1,0.6-3.1c0.8-4.9-1.4-7.5-6.4-7.6c-5.1,0-10.2,0.3-15.2,0c-4.1-0.3-6.4-3.1-8.5-6.6c-6.9-11.5-8.6-24.8-13.7-36.9
			c-2.4-5.7,0.1-10.7,4.7-14.5c1.9-1.6,3.9-3.2,5.5-5c3.6-3.9,3.7-8,0-11.7c-4.9-4.8-10.1-9.4-15.4-13.8c-3.7-3-7.9-2.5-11.2,0.8
			c-2.8,2.9-5.5,5.9-8.2,8.9c-3,3.3-6.7,4.2-10.7,3.1c-9.3-2.8-18.7-5.4-27.7-9c-6.1-2.4-9.7-7.8-11-14.4c-0.6-3-1-6.1-1.6-9.1
			c-0.8-4.2-3.6-6.5-8-6.5c-7.2,0-14.4,0.1-21.6,0.2c-8.1,0.1-10.1,2.1-10.1,10.1c0,5.5-0.1,10.9-4.4,14.9c-2.2,2.1-4.8,3.8-7.6,5.1
			c-7.7,3.7-15.4,7.2-23.2,10.6c-7.1,3.1-13.5,1.5-18.4-4.5c-2-2.5-4.2-4.9-6.5-7c-3.4-3.2-6.5-3-9.6,0.4c-2.6,2.8-4.7,6-7.4,8.6
			c-3.9,3.8-8.2,7.1-12.2,10.9c-4.7,4.5-4.2,8.3,0.6,12.6c6,5.4,11.3,11.3,10.4,20.3c-0.2,2.2-0.6,4.5-1.6,6.5
			c-4.9,9.6-10,19.1-15.1,28.6c-2.2,4.1-6.8,5.9-11.6,5.2c-2.8-0.4-5.6-0.8-8.4-0.6c-4.3,0.3-6.7,2.9-6.6,7.3
			c0.1,9.5,0.2,19,0.7,28.5c0.3,6.1,2.8,7.9,8.8,7.3c1.5-0.1,3.1-0.4,4.5-0.8c5.8-1.5,10.8-0.1,13.9,5.1c5.3,9.1,10.6,18.3,15,27.8
			c3.2,6.9,3,14.1-3,20.1c-2.1,2.1-4.1,4.3-6.1,6.5c-4.4,4.7-4.2,8.5,0.4,12.8c5.3,5.1,10.5,10.2,15.7,15.4c4,4,7.4,4.3,11.9,0.6
			c3.1-2.6,5.9-5.6,9.1-8c4.4-3.3,9.2-3.6,14.5-2.1c9.5,2.8,18.2,7.3,26.6,12.4c6.6,4,10.1,9.9,9.9,18c-0.2,6.5,2.2,8.5,8.7,8.5
			c9.7,0,19.4-0.3,29.1-0.6c3.8-0.1,5.6-1.8,6.1-5.7c0.4-3.2,0.6-6.4,0.8-9.6c0.3-6,2-11.1,7.3-14.7c4.4-3,9.6-3,13.4,0.4
			c3.6,3.2,4.4,8.4,1.5,13c-1.3,2.1-3,4-4.7,5.8c-3.7,3.9-6,8.2-5.3,13.8c0.1,0.9,0.1,1.9,0,2.8c-0.3,7.1-3.7,10.3-10.8,10.3
			c-15.4-0.1-30.8-0.3-46.2-0.5c-1.5,0-3.1-0.1-4.6-0.6c-8.9-2.8-11.4-6.7-10-16c0.9-5.7-0.6-10.3-5-14c-4.3-3.6-8.6-7-14.7-7.3
			c-5.4-0.3-9.8,1.2-13.9,5c-3.4,3.2-7.4,6-11.5,8.4c-4.7,2.8-9.5,2.1-14-1.2c-11.9-8.6-21.5-19.7-31.5-30.3
			c-5.6-5.9-5.1-13.1,0.5-19.1c2.7-3,5.3-6.1,7.9-9.1c2.4-2.8,3.4-6.1,2.7-9.6c-1.8-8.9-6.6-21.1-16.5-22.8
			c-3.2-0.6-6.6-0.2-9.9-0.2c-7.1,0-11.9-3.7-12.7-10.7c-1-9.5-1.5-19.1-2.1-28.7c-0.3-5.1-0.5-10.2-0.7-15.3
			c-0.3-6.7,3.1-11.6,8-15.4c1.2-1,3-1.3,4.6-1.6c1.5-0.3,3.1-0.3,4.6-0.1c9.1,0.9,15.3-2.9,19.1-11.1c1.6-3.5,3.3-6.8,4.8-10.3
			c1.9-4.4,0.8-8.5-1.9-12.1c-1.8-2.5-4.1-4.6-6.2-6.8c-1.1-1.1-2.3-2-3.4-3.2c-6.3-6.8-6-11.1,0.5-17.7c8.1-8.2,15.8-16.7,23.8-25
			c3.6-3.7,7.4-7.4,11.5-10.7c4.9-4,10.8-3.1,14.8,1.7c1.9,2.3,3.8,4.5,5.6,6.9c5.8,7.5,14.4,6.6,21.4,3.9c2.8-1.1,5.5-2.9,8.1-4.5
			c6.1-3.7,7.6-9.3,7-15.9c-0.3-3-0.1-6.1,0.1-9.2c0.3-4.5,3.1-6.9,7.3-7.5c4-0.5,8-0.4,12.1-0.6c0,0.2,0,0.4,0,0.6
			c11.7-0.6,23.4-1.2,35.1-1.7c6.8-0.3,12.1,1.3,12,10.2c0,3.3,0.4,6.6,0.5,9.9c0.3,6.3,3.1,10.6,9.2,13c6.9,2.7,13.8,3.6,20.7,0.3
			c1.7-0.8,3.3-1.8,4.7-3c1.9-1.6,3.5-3.5,5.3-5.3c6.1-6.3,9.5-6.9,16.8-2.1c4.7,3.1,9.5,6.5,13.4,10.5c7.7,7.7,15,15.8,22,24.1
			c5,6,4.5,10.1-1,16c-3.1,3.3-6.7,6-9.9,9.2c-5,5.1-5.4,8-2.3,14.3c1.8,3.7,3.7,7.5,5.6,11.1c2.9,5.5,7.3,8.5,13.8,8.4
			c4.1-0.1,8.3-0.3,12.4,0.2c7,0.8,10.4,4.3,10.9,11.4C399.3,226.8,399.5,233.3,399.7,239.8z"/>
		<path d="M245.2,155.1c-49.5,0-89.6,40.9-89.6,91.4c0,50.5,40.1,91.4,89.6,91.4c49.5,0,89.6-40.9,89.6-91.4
			C334.8,196,294.7,155.1,245.2,155.1z M245.2,324.3c-42.2,0-76.3-34.9-76.3-77.9c0-43,34.2-77.9,76.3-77.9s76.3,34.9,76.3,77.9
			C321.5,289.5,287.4,324.3,245.2,324.3z"/>
		<path d="M385.2,275.3c-32.5,0-58.9,26.9-58.9,60.1s26.4,60.1,58.9,60.1c32.5,0,58.9-26.9,58.9-60.1S417.8,275.3,385.2,275.3z
			 M385.2,386.6c-27.7,0-50.2-22.9-50.2-51.2c0-28.3,22.5-51.2,50.2-51.2s50.2,22.9,50.2,51.2C435.4,363.6,413,386.6,385.2,386.6z"
			/>
	</g>
	<g>
		<path d="M230.7,286.4c-4.6-4.8-7.1-11.9-7.4-21.3h19.6c0.3,5,1.8,7.4,4.5,7.4c1,0,1.8-0.3,2.5-1c0.7-0.7,1-1.8,1-3.2
			c0-2-0.7-3.7-2.2-4.9c-1.5-1.3-3.8-2.7-7-4.3c-3.8-2-6.9-3.9-9.4-5.7c-2.5-1.9-4.6-4.6-6.4-8.2c-1.8-3.6-2.6-8.2-2.6-13.8
			c0-5.6,1-10.4,3-14.3c2-3.9,4.7-6.9,8.1-9c3.4-2,7.2-3.1,11.5-3.1c7.2,0,12.9,2.4,17.2,7.3c4.2,4.9,6.5,11.8,6.7,20.6h-19.9
			c-0.1-2.4-0.5-4.2-1.2-5.3c-0.8-1.1-1.7-1.6-2.8-1.6c-0.8,0-1.4,0.4-1.9,1.2c-0.5,0.8-0.7,1.9-0.7,3.2c0,2,0.7,3.6,2.2,4.8
			c1.5,1.3,3.8,2.8,7,4.6c3.7,2,6.8,4,9.2,5.9c2.4,1.9,4.5,4.5,6.3,7.8c1.8,3.3,2.7,7.5,2.7,12.6c0,5.3-0.9,10-2.7,14.2
			c-1.8,4.2-4.4,7.5-7.7,9.8c-3.4,2.4-7.4,3.5-12.1,3.5C241.1,293.6,235.3,291.2,230.7,286.4z"/>
	</g>
	<g>
		<path d="M375.6,361.8c-3-3.1-4.6-7.8-4.8-13.8h12.8c0.2,3.2,1.2,4.8,2.9,4.8c0.6,0,1.2-0.2,1.6-0.7c0.5-0.4,0.7-1.2,0.7-2.1
			c0-1.3-0.5-2.4-1.5-3.2c-1-0.8-2.5-1.8-4.5-2.8c-2.5-1.3-4.5-2.5-6.1-3.7c-1.6-1.2-3-3-4.1-5.3c-1.2-2.3-1.7-5.3-1.7-9
			c0-3.7,0.6-6.8,1.9-9.3c1.3-2.6,3-4.5,5.2-5.8c2.2-1.3,4.7-2,7.5-2c4.7,0,8.4,1.6,11.2,4.8c2.8,3.2,4.2,7.6,4.4,13.4h-12.9
			c0-1.6-0.3-2.7-0.8-3.4c-0.5-0.7-1.1-1-1.8-1c-0.5,0-0.9,0.3-1.2,0.8c-0.3,0.5-0.5,1.2-0.5,2.1c0,1.3,0.5,2.3,1.4,3.1
			c1,0.8,2.5,1.8,4.6,3c2.4,1.3,4.4,2.6,6,3.8c1.6,1.2,2.9,2.9,4.1,5.1c1.2,2.2,1.7,4.9,1.7,8.2c0,3.4-0.6,6.5-1.7,9.2
			c-1.2,2.7-2.8,4.9-5,6.4c-2.2,1.5-4.8,2.3-7.8,2.3C382.4,366.5,378.6,364.9,375.6,361.8z"/>
	</g>
</g>
</svg>
