<?xml version="1.0" encoding="utf-8"?>
<!-- Generator: Adobe Illustrator 24.0.1, SVG Export Plug-In . SVG Version: 6.00 Build 0)  -->
<svg version="1.1" id="Layer_1" xmlns="http://www.w3.org/2000/svg" xmlns:xlink="http://www.w3.org/1999/xlink" x="0px" y="0px"
	 viewBox="0 0 500 500" style="enable-background:new 0 0 500 500;" xml:space="preserve">
<style type="text/css">
	.st0{fill:#1671A2;}
	.st1{fill:#FFFFFF;}
</style>
<g>
	<path class="st0" d="M392.7,75.1c-5.2,0.6-10.4,1.4-15.6,2.4c-9.6,1.7-19.1,3.5-28.7,5.5c-4.1,0.8-8.3,1.7-12.1,3.3
		c-3.9,1.6-4.4,5.7-1.7,8.9c1.5,1.8,3.4,3.3,5.1,4.9c1.4,1.3,3,2.5,4.4,3.9c2,2.1,2.1,3.5,0.2,5.7c-2.2,2.6-4.7,5-7,7.4
		c-11.8,12-23.4,24.2-35.3,36c-11.4,11.4-23.1,22.6-34.6,34c-6.5,6.5-12.8,13.1-19.3,19.6c-2,2-3.8,2-5.7,0.1
		c-6.5-6.2-13-12.5-19.6-18.6c-9.6-8.9-19.3-17.7-28.9-26.5c-2.1-1.9-5.1-1.9-7.1-0.1c-2.7,2.5-5.4,4.9-7.9,7.6
		c-8.3,8.5-16.5,17.3-24.9,25.7c-20.5,20.5-41,40.8-61.6,61.2c-9.5,9.5-19.1,19-28.6,28.6c-2.6,2.6-2.6,5.5-0.3,8.5
		c3.8,5.1,7.8,9.9,12.6,14.2c4.3,3.8,8,4,12.2,0.1c8.2-7.8,16.4-15.5,24.4-23.5c13-13,25.9-26,38.8-39.1
		c12.5-12.7,25-25.6,37.4-38.3c1.6-1.7,3.1-1.7,4.9-0.1c3.3,3.1,6.6,6.3,9.9,9.4c7.4,7.1,14.7,14.2,22.2,21.2
		c5,4.6,10.5,8.8,15.3,13.5c3.8,3.7,8.2,3.7,12.1-0.3c5.6-5.9,11.1-11.8,16.8-17.6c13.6-13.8,27.3-27.6,40.9-41.4
		c19.6-19.8,39.2-39.6,58.8-59.4c2.8-2.9,4.1-2.8,6.6,0.4c1.7,2.2,3.3,4.5,5.2,6.5c2.3,2.5,5.3,2.5,8.4,1.7c2.8-0.7,3.8-2.9,4.1-5.5
		c0.7-6.4,1.5-12.7,2.1-19.1c0.6-6.8,0.9-13.6,1.4-20.4c0.4-4.4,1.1-8.9,1.5-12.7C399,77.3,396.8,74.6,392.7,75.1z M385.9,119.5
		c-0.1,1.7,0.1,3.4-0.2,5.1c-0.2,1-1.1,1.9-1.6,2.9c-0.9-0.7-2.1-1.2-2.7-2c-1.3-1.9-2.2-4.1-3.5-6.1c-1.7-2.6-4.1-3-6.8-1.3
		c-0.9,0.6-1.8,1.4-2.6,2.2c-18.7,18.7-37.5,37.5-56.2,56.2c-13,13-25.8,26.1-38.8,39.1c-5.8,5.9-11.9,11.6-17.8,17.4
		c-2.2,2.2-4.3,4.4-6.4,6.7c-1.8,2-4.1,2.2-6,0.4c-9.7-9-19.4-18-29.1-27c-4.8-4.5-9.7-8.8-14.5-13.3c-1.7-1.5-3.1-3.3-4.7-5
		c-2.1-2.4-5.3-2.7-7.5-0.5c-8.4,8.6-16.7,17.3-25.1,25.9c-8.2,8.3-16.5,16.4-24.7,24.6c-6.2,6.1-12.4,12.2-18.5,18.3
		c-8.5,8.6-16.9,17.3-25.5,25.9c-3,3-6.2,5.9-9.3,8.9c-1.9,1.8-3.5,1.7-5.2-0.3c-1.7-1.9-3.3-3.8-4.9-5.7c-1.6-1.8-1.7-3.7-0.1-5.5
		c1.5-1.7,3.1-3.3,4.7-4.9c6.6-6.5,13.3-12.9,19.9-19.4c22.5-22.1,44.9-44.3,67.3-66.5c7.1-7.1,14.1-14.4,21.2-21.6
		c2.8-2.8,3.9-2.8,6.7-0.1c8.9,8.4,18,16.7,26.9,25.1c6.7,6.3,13.3,12.6,19.9,19c3.2,3.1,5.7,3.2,9-0.1c12.5-12.5,25-25,37.6-37.5
		c11.2-11.2,22.6-22.2,33.8-33.5c10.2-10.3,20.2-20.7,30.3-31.1c2.1-2.1,4.3-4.2,6.3-6.4c1.7-1.8,1.8-4.7,0.2-6.5
		c-1.8-2-4-3.7-6.1-5.5c-1-0.9-2.3-1.6-3.3-2.5c-0.5-0.4-1.1-1.5-0.9-1.8c0.4-0.6,1.2-1.1,2-1.2c1.8-0.3,3.7-0.2,5.6-0.5
		c9.6-1.9,19.2-3.7,28.8-5.7c2.9-0.6,4.2,0.3,4.1,2.6C387.4,99.3,386.7,109.4,385.9,119.5z"/>
	<path d="M404.6,181.6c-0.1-6.2-1-7.9-9.3-8.1c-8-0.2-15.9-0.3-23.9-0.4c-3.9-0.1-7.8-0.1-11.7,0c-4.1,0.1-6,2.2-6.2,6.3
		c0,0.7,0,1.5,0,2.2v105.8h0v101.4c0,2.5-0.1,5,0,7.5c0.2,3.8,2.5,6.3,6.1,6.3c12,0.2,24,0.5,36.1,0.4c7.1,0,9-2.3,9-9.4V392
		c0-68.3,0-136.5,0-204.8C404.8,185.3,404.6,183.4,404.6,181.6z M390.8,392.9c-5.1-0.1-10.2-0.3-15.3-0.4c-2.8,0-5.7,0.4-8.5,0.4
		c-2.8,0-4.1-1.6-3.8-4.4c0.1-1.3,0.3-2.6,0.3-3.9c0-63.4,0-126.8-0.1-190.1c0-2.4-0.2-4.9-0.3-7.3c-0.2-2.8,0.8-3.9,3.6-3.9
		c4.2,0,8.5,0,12.7,0v0c4,0,8,0,12,0c3.6,0,4.5,1.1,4.1,4.6c-0.1,1.2-0.2,2.4-0.2,3.7c0,62.6,0,125.1,0,187.7c0,3,0.3,6,0.4,9
		C395.5,391.7,394.2,393,390.8,392.9z"/>
	<path d="M447.6,420c-0.2,3-1.5,4.2-4.7,4.2c-40.5,0.1-80.9,0.4-121.4,0.4c-86.6,0.1-173.3,0-259.9,0.1c-1.1,0-2.1,0.1-3.2,0.2
		c-3.4,0.3-5.8-1.6-6.1-4.8c-0.3-3,2.1-5.5,5.5-5.6c5.5-0.1,11,0,16.6,0v0.4c6.4,0,12.8,0,19.2,0c18.6-0.1,37.2-0.3,55.8-0.3
		c18.2,0,36.4,0.3,54.6,0.3c8.3,0,16.5-0.2,24.8-0.3c39.4-0.1,78.8-0.1,118.2-0.2c30.8-0.1,61.6-0.3,92.4-0.5c1,0,2,0,2.9,0
		C446.1,414.1,447.9,416.2,447.6,420z"/>
	<path d="M339.9,294.1c0.1-14.7,0.1-29.4,0.1-44.1c0-2.5-0.1-5-0.4-7.5c-0.6-4.9-1.9-6.1-7-6.1c-11.1,0-22.1,0-33.1,0
		c-2,0-3.9,0-5.9,0.1c-3,0.2-4.4,1.4-4.9,4.4c-0.3,2.1-0.5,4.4-0.5,6.5c0,24.2,0,48.4,0,72.6h0c0,25,0,50,0,75.1
		c0,5.2,3.1,8.1,8.3,8c7.7-0.1,15.4-0.3,23.1-0.3c4.3,0,8.6,0.2,12.9,0.4c2.9,0.1,5.1-1.3,6.2-3.9c0.7-1.6,1.3-3.5,1.2-5.3
		c0-13.2-0.4-26.3-0.4-39.5C339.5,334.4,339.8,314.2,339.9,294.1z M329.5,390.7c-0.5,1.8-1.7,2.7-3.8,2.6
		c-7.5-0.1-15.1-0.2-22.6,0.1c-4.4,0.2-5.6-0.7-5.6-5.1c0.2-43.9,0.3-87.8,0.4-131.6c0-2.5-0.4-5-0.4-7.5c0-2.5,0.9-3.4,3.4-3.4
		c2.9,0,5.8,0,8.7,0c1.3,0,2.6,0,4,0c1.2,0,2.4,0,3.6,0c3,0,5.9,0,8.9,0c2.7,0,3.7,1,3.6,3.7c-0.1,9-0.3,18-0.4,27
		c0,2.1,0.3,4.2,0.3,6.3c0,10.1,0.1,20.1,0,30.2c0,7.9-0.4,15.8-0.3,23.6c0.1,17,0.3,34,0.4,50.9
		C329.7,388.6,329.8,389.7,329.5,390.7z"/>
	<path d="M209.3,334.4L209.3,334.4c0-18.5,0-37-0.1-55.6c0-4.1-0.3-8.3-0.4-12.4c-0.1-2.3-1.3-3.8-3.7-4.1c-1-0.2-2.1-0.4-3.1-0.4
		c-12.9-0.1-25.8-0.1-38.8-0.1c-3,0-4.9,1.8-5.4,4.7c-0.2,1.2-0.2,2.4-0.2,3.6c0.1,22,0.4,44,0.4,66c0,19.1-0.3,38.2-0.4,57.2
		c0,1.6,0.2,3.3,0.8,4.8c1,2.5,2.3,5.1,5.5,5.1c13.2,0.1,26.3,0.1,39.5,0c3.4,0,5.2-1.8,5.7-5.2c0.2-1.3,0.2-2.6,0.2-3.9
		C209.3,374.2,209.3,354.3,209.3,334.4z M194.8,393.5c-1.5,0-3.1,0-4.6,0c-1.5,0-3.1,0-4.6,0c0-0.1,0-0.1,0-0.2
		c-4.6,0.2-9.2,0.5-13.9,0.7c-2.8,0.2-4.3-1.5-4.3-4.9c0.1-30.4,0.3-60.8,0.4-91.2c0-6.7,0.1-13.5,0.2-20.2c0.1-6.3,0.1-6.2,6.5-6.2
		c6.6,0.1,13.2-0.1,19.7-0.1c4.2,0,5.3,1.5,5.1,5.3c-0.5,7.4-0.1,14.9,0,22.4c0,1.3,0.2,2.6,0.2,3.9c0,19.1,0,38.2,0.1,57.3
		c0,9.3,0.3,18.5,0.4,27.8C200.1,392.7,199.3,393.5,194.8,393.5z"/>
	<path d="M274.6,392.5c-0.1-30.8-0.1-61.5-0.2-92.3c0-6-2.6-8.5-8.3-8c-2.2,0.2-4.4,0.3-6.6,0.3c-9.8,0-19.7,0-29.5,0
		c-6,0-7.6,1.6-7.7,7.6c0,0.6,0,1.3,0,1.9c0.1,13.2,0.3,26.5,0.4,39.7c0.1,14.7,0,29.4,0,44.1c0,3.2-0.4,6.3-0.3,9.5
		c0.2,5.5,2.9,7.9,8.3,7.9c5.9,0,11.9,0,17.8,0c0,0,0,0,0,0c6.3,0,12.5,0,18.8,0c4.6,0,7-2.4,7.2-7.1
		C274.7,395,274.6,393.7,274.6,392.5z M259.5,393.5c-6.5-0.2-13-0.1-19.4-0.1c-1.3,0-2.6,0.1-3.9,0.1c-3.1,0-4.3-1.3-4.3-4.3
		c0.1-25.4,0.2-50.8,0.3-76.2c0-2-0.1-3.9,0-5.8c0.2-4.4,1.8-5.5,6.2-5.4c7,0.2,14.1,0.2,21.2,0.1c2.7,0,4,0.6,4.5,3.3
		c0.2,0.9,0.3,1.8,0.3,2.7c0,13,0,26,0,39c0,0,0,0,0,0c0,12.3,0,24.5,0,36.8c0,1.5,0.1,3.1,0.3,4.6
		C265,391.9,263.1,393.6,259.5,393.5z"/>
	<path d="M94.1,362.7c0-10.8,0.1-21.6,0-32.4c0-6.4,2.2-7.5,8.3-7.5c10.9,0,21.9,0.2,32.8-0.1c6.5-0.2,9.6,2.1,9.6,8.6
		c0,20.1,0,40.1,0,60.2c0,2-0.2,4.1-0.6,6.1c-0.7,4.1-3.1,6.1-7.4,6.1c-10.2-0.1-20.5-0.3-30.7-0.4c-2.4,0-4.9,0.1-7.3,0
		c-2.4-0.1-3.8-1.7-4.3-4c-0.3-1.3-0.4-2.7-0.4-4.1C94.2,384.3,94.2,373.5,94.1,362.7C94.2,362.7,94.1,362.7,94.1,362.7z
		 M135.2,363.4C135.2,363.4,135.1,363.4,135.2,363.4c0-8.7,0-17.4,0-26.1c0-3.2-0.9-4.3-3.6-4.4c-8.1,0-16.3,0-24.4,0
		c-2.7,0-3.8,1.2-3.7,4c0.1,2.2,0.3,4.4,0.4,6.6c0,8.8,0.1,17.7,0,26.5c0,6.3-0.2,12.7-0.3,19c-0.1,3.9,0.9,5,4.8,4.9
		c4.7-0.1,9.4-0.4,14.1-0.4c3,0,6,0.2,9,0.4c2.3,0.1,3.5-1,3.7-3.3c0.1-0.8,0.1-1.6,0.1-2.4C135.2,380,135.2,371.7,135.2,363.4z"/>
	<path class="st1" d="M317.2,245.7c-1.2,0-2.4,0-3.6,0c-1.3,0-2.6,0-4,0H317.2z"/>
	<path class="st1" d="M135.2,363.4c0,8.3,0,16.6,0,24.9c0,0.8,0,1.6-0.1,2.4c-0.2,2.2-1.4,3.4-3.7,3.3c-3-0.2-6-0.4-9-0.4
		c-4.7,0-9.4,0.3-14.1,0.4c-3.9,0.1-4.9-1-4.8-4.9c0.1-6.3,0.3-12.7,0.3-19c0.1-8.8,0-17.7,0-26.5c0-2.2-0.3-4.4-0.4-6.6
		c-0.1-2.8,1-4,3.7-4c8.1,0,16.3,0,24.4,0c2.7,0,3.6,1.2,3.6,4.4C135.1,346,135.1,354.7,135.2,363.4
		C135.1,363.4,135.2,363.4,135.2,363.4z"/>
</g>
</svg>
