<?xml version="1.0" encoding="utf-8"?>
<!-- Generator: Adobe Illustrator 24.0.1, SVG Export Plug-In . SVG Version: 6.00 Build 0)  -->
<svg version="1.1" id="Layer_1" xmlns="http://www.w3.org/2000/svg" xmlns:xlink="http://www.w3.org/1999/xlink" x="0px" y="0px"
	 viewBox="0 0 500 500" style="enable-background:new 0 0 500 500;" xml:space="preserve">
<style type="text/css">
	.st0{fill:#1671A2;}
</style>
<g>
	<path d="M401.6,262.2c-5.5-4.8-11-9.6-16.4-14.5c-4.5-4-9.3-6.2-15.4-4c-2.7,1-72.3,5-78.8,5.9c-8,1.1-16,1.6-24,2.5
		c-3.5,0.4-6.9,1-10.3,2c-2.4,0.7-3.4,3.2-2.9,5.8c0.5,2.3,1.7,3.1,4.6,3.2c9.2,0.1,18.5,0.4,27.7,0.3c13.8,0,27.7-0.3,41.5-0.3
		c1.5,0,3,0.5,4.6,0.7c0,0.3,0.1,0.7,0.1,1c-1.1,0.7-2.1,1.5-3.3,2.1c-2.3,1-4.9,1.6-7,3c-4.5,3.1-8.7,6.6-13.1,9.8
		c-1.8,1.3-4,2.6-6.1,2.9c-5.1,0.5-10.2,0.5-15.3,0.5c-25.4,0.2-50.8,0.4-76.2,0.4c-13.2,0-26.4-0.3-39.6-0.4
		c-5.4,0-10.8,0.3-16.2,0.4c-1.3,0-2.5-0.2-4.3-0.3c0.7-0.9,0.8-1.2,1-1.3c7.5-3.6,15-7.3,22.4-10.9c2.4-1.2,4.7-2.7,7.1-3.8
		c4.9-2.3,9.8-4.5,14-8c1.2-1,1.8-2.1,1.4-3.7c-1.4-4.6-9.7-7-13.1-3.6c-4.6,4.6-10.8,6.3-16,9.6c-3,1.9-6.5,3.2-9.8,4.8
		c-4.6,2.3-9.2,4.5-13.7,6.9c-3.5,1.8-6.9,3.8-10.3,5.8c-2.3,1.4-4.2,1.6-5.9,0.1c-3.2-2.8-6.4-5.7-9.6-8.6c-2.2-2-4.5-4.1-6.6-6.2
		c-1.7-1.7-1.6-3.5,0.1-4.4c2.7-1.5,5.5-2.8,8.2-4.3c3.3-1.7,6.6-3.5,9.8-5.3c3-1.7,5.9-3.4,8.8-5.2c4.8-2.8,9.8-5.5,14.5-8.5
		c5.7-3.6,11.3-7.3,16.8-11.2c1.7-1.2,3.2-3.1,4.2-5c0.9-1.7,1-4.1-1-5.4c-1.8-1.3-3.8-0.7-5.6,0.5c-0.3,0.2-0.5,0.4-0.7,0.6
		c-2.4,1.7-4.8,3.4-7.3,4.9c-5.1,3-10.4,5.9-15.5,8.9c-5.5,3.2-10.8,6.6-16.3,9.7c-7.6,4.3-15.2,8.5-22.8,12.8
		c-2.3,1.3-4.6,2.6-6.8,4c-3.2,2.1-3.5,5.4-0.8,8.1c2.3,2.3,4.7,4.5,7,6.8c5.2,5,10.5,10,15.6,15c1.1,1.1,1.9,2.4,3,3.3
		c2.2,1.7,2.7,3.8,2.5,6.3c-0.1,1.8-0.3,3.7-0.3,5.5c0,9.4,0,18.8,0,28.2c0,34.8-0.1,69.6-0.1,104.3c0,6.6,3.2,9.4,9.8,8.6
		c2.1-0.3,4.3-0.3,6.4-0.3c52.8,0.1,105.7,0.3,158.5,0.4c2.8,0,5.3-0.2,7.5-2.2c1.6-1.5,3.6-2.6,5.3-3.9
		c10.2-7.8,20.5-15.4,30.6-23.3c9.2-7.2,18.2-14.6,27.3-21.8c3.2-2.5,4.7-5.6,4.7-9.7c0-19.1,0-38.2,0-57.3c0-2.1,0-4.1,0.1-6.2
		c0.5-5.9,0.7-11.8-0.9-17.5c-0.5-1.8-0.3-3.5,1.1-4.9c3-2.9,6.1-5.8,9.2-8.6c5.4-4.8,10.8-9.6,16.2-14.4
		C405,269.6,405,265.3,401.6,262.2z M203.5,305.1c0-3.1,0.3-6.2,0.4-9.3c0.1-2.1,1.2-2.8,3.1-2.8c7.4,0.2,14.8,0.4,22.2,0.5
		c2.4,0,3,1.3,3,3.3c0,7.6,0,15.1,0,22.7h0c0,7.5,0,15,0,22.5c0,0.8-0.5,1.7-0.8,2.5c-0.7-0.4-1.4-0.8-2.1-1.3
		c-2.9-2.5-5.6-5.2-8.6-7.5c-2.1-1.7-5.1-1.1-7.2,0.7c-2.5,2.2-4.9,4.5-7.6,6.4c-2.1,1.4-2.9,0.9-2.9-1.6
		C203.1,329.1,203.3,317.1,203.5,305.1z M298.8,314.1c0,1.4-0.2,2.8-0.2,4.3c0,32.4-0.1,64.8-0.1,97.2c0,4,0,7.9,0.1,11.9
		c0,2.4-0.8,3.1-3.4,3.1c-24.1,0.1-48.2,0.3-72.3,0.4c-3.8,0-7.6,0-11.5,0v0.1h-71.1c-4.2,0-4.8-0.7-4.2-5c0.2-1.4,0.1-2.9,0.2-4.3
		c0-33.1,0-66.2,0.1-99.3c0-8.7,0.2-17.3,0.4-26c0-2.7,0.7-3.5,3.4-3.5c3.5,0,7,0.4,10.5,0.4c7.3,0,14.6-0.2,21.9-0.3
		c5.5-0.1,11,0,16.4-0.1c2.5,0,3.2,0.6,3.2,3.3c0,8,0,15.9,0,23.9c0,11.3-0.1,22.6-0.1,33.9c0,0.9,0,1.8,0.1,2.6
		c0.3,4.2,4.1,6.2,7.5,3.8c5-3.6,9.9-7.4,14.7-11.3c2.7-2.2,4-2.2,6.6,0c2.8,2.3,5.9,4.3,8.8,6.5c2,1.5,4,3.2,5.9,4.8
		c1.4,1.3,3.1,2.2,4.7,1.2c1.3-0.9,2.1-2.5,2.8-4c0.4-0.9,0.2-2,0.2-3.1c0-17.5,0-35,0-52.5c0-1.8-0.1-3.6-0.1-5.5
		c0-2.4,1.4-3.2,3.5-3.2c3.7,0,7.3,0.1,11,0.1c5.5,0,11.1,0,16.7,0c5.5,0.1,11,0.3,16.5,0.4c1.3,0,2.6,0,3.8-0.1
		c3.4-0.4,4-0.1,4.2,3.1C298.9,302.7,298.8,308.4,298.8,314.1z M361.3,386.2c-3.6,2.7-6.9,5.8-10.4,8.6c-3.8,3.1-7.8,6-11.6,9
		c-4.2,3.3-8.2,6.8-12.4,10.1c-4.7,3.8-9.4,7.5-14.2,11.2c-0.7,0.5-1.9,0.5-2.8,0.3c-0.3-0.1-0.5-1.5-0.5-2.3
		c0-5.6,0.1-11.3,0.2-16.9c0-7.1,0-14.2,0-21.2c0-10.2,0-20.4,0-30.6c0.1-12.1,0.3-24.2,0.5-36.3c0-2.2,0.3-4.4,0.5-6.7
		c-0.2-2.4-0.4-4.7-0.4-7.1c0-0.8,0.6-1.6,0.9-2.4c0.7,0.4,1.6,0.6,2.1,1.2c4.7,4.9,9.2,9.9,14,14.7c2.6,2.7,5.5,5.1,8.3,7.5
		c1.8,1.6,5.6,1.3,7.6-0.5c5.4-4.8,10.8-9.6,16.2-14.4c0.7-0.6,1.2-1.5,1.9-2.1c0.6-0.5,1.7-1.1,2.1-0.9c0.6,0.3,1.1,1.4,1.1,2.1
		c0.2,2.5,0.1,4.9,0.1,7.4c0,15.6,0,31.2,0.1,46.8c0,5.1,0.3,10.2,0.4,15.3C365,382,363.8,384.3,361.3,386.2z M389.3,270.8
		c-7.8,6.9-15.7,13.7-23.6,20.4c-6.6,5.7-13.4,11.2-20,16.9c-1.4,1.2-2.6,2.8-3.8,4.3c-1.7,2.1-3.4,2.3-5.4,0.3
		c-1.4-1.4-2.6-3-4-4.4c-5.4-5.3-10.7-10.6-16.2-15.7c-1.9-1.8-2.1-3,0-4.6c4.9-3.6,9.9-7.1,14.9-10.7c4-2.9,7.9-5.9,11.9-8.6
		c4.7-3.1,9.5-6,14.2-9.1c2.8-1.8,5.4-3.8,8.2-5.6c1.8-1.2,3.8-2.2,5.8-3.3c1.9,1,3.6,1.7,5,2.8c4.4,3.7,8.8,7.6,13.1,11.5
		C391.7,267.1,391.7,268.6,389.3,270.8z"/>
	<path class="st0" d="M289.9,116.2c-0.5-10.5-4-20-9.5-28.8c-4.1-6.6-9.4-12.4-16-16.8c-7-4.8-14.2-9.1-22.8-10.8
		c-7.7-1.6-15.4-3.2-23.1-1.4c-6.2,1.4-12.5,2.2-18.5,5.1c-5.8,2.8-11.3,5.8-16,10.1c-6.2,5.7-11.4,12.3-15.1,20
		c-4.1,8.5-7.1,17.2-7,26.8c0.6,5.2,0.6,10.5,1.9,15.6c2.4,9.4,6.2,18.3,11.2,26.7c3.1,5.1,6.3,10.1,9.7,15
		c4.2,6.2,8.5,12.2,12.9,18.3c5.6,7.7,11.3,15.3,17.1,22.9c2,2.7,4,5.3,6.4,7.7c3.3,3.3,6.7,3.2,9.8-0.2c3.5-3.7,6.9-7.5,9.9-11.5
		c6.2-8.2,12.3-16.4,18.1-24.8c5.9-8.5,11.7-17,17.1-25.7c3.3-5.4,5.9-11.2,8.6-17c1.4-3,2.7-6.2,3.4-9.4
		C289.6,130.6,290.3,123.5,289.9,116.2z M277.3,139.3c-2.8,8.1-6.5,15.6-11.3,22.7c-3.9,5.9-7.7,11.8-11.7,17.6
		c-4,5.7-8.2,11.1-12.2,16.7c-3.4,4.7-6.7,9.5-10.1,14.2c-0.9,1.3-1.9,2.5-3,3.7c-1.8,1.9-3.4,2-5.3,0c-1.2-1.3-2.2-2.7-3.3-4.1
		c-4.6-6-9.4-11.8-13.8-17.9c-6-8.3-11.7-16.8-17.4-25.3c-3.3-5-6.5-10-9.1-15.3c-2.7-5.4-4.6-11.2-6.3-17.1
		c-2.6-9.3-2.5-18.2,0.2-27.5c1.8-6.2,4.3-12,8.1-17.1c4-5.5,8.8-10.3,14.8-13.7c3.3-1.9,6.5-4,10.1-5.1c4.8-1.5,9.9-2.6,14.9-2.8
		c6.2-0.2,12.5,0.1,18.5,1.3c4.6,0.9,9,3.4,13.3,5.4c2.3,1.1,4.6,2.6,6.6,4.2c7.8,6.1,13.6,13.7,17.2,23.2c2.2,5.9,2.8,11.8,3,17.5
		C280.3,126.8,279.5,133.1,277.3,139.3z"/>
	<path d="M264,228.9c-1,1.8-2.3,3.4-3.7,5c-4.9,5.5-9.6,11-14.8,16.2c-5.4,5.4-11.2,10.4-16.8,15.5c-2.2,2-5,1.7-7.2-0.5
		c-7.1-7.1-14.1-14.2-21.3-21.2c-3.6-3.5-7.5-6.6-11.2-10c-1-0.8-2-1.7-2.6-2.7c-0.7-1.2-1.6-3-1.1-4c0.5-1.1,2.4-1.6,3.7-2.4
		c4.7,0.4,7.9,3.2,10.9,5.8c8.1,7.2,15.8,14.7,23.7,22.1c2.3,2.2,3.8,1.9,6-0.4c8.4-8.6,16.8-17.1,25.3-25.6
		c1.1-1.1,2.6-1.8,3.9-2.7c1.4-0.9,2.9-0.9,4.2,0.3C264.3,225.6,264.9,227.2,264,228.9z"/>
	<path d="M289.7,414.8c-0.1,2.4-1.1,4.2-3.5,4.8c-1.2,0.3-2.5,0.4-3.8,0.4c-9.9,0-19.8,0-29.8,0c-0.3,0-0.6,0-1,0
		c-2.8-0.1-4.4-1.4-4.7-4c-0.4-3,0.7-4.9,3.5-5.6c1.8-0.5,3.6-0.7,5.4-0.8c4.5-0.1,8.9,0,13.4,0v0c4.4,0,8.9,0,13.3,0
		c1.3,0,2.7,0.3,4,0.7C288.8,410.9,289.8,412.5,289.7,414.8z"/>
	<path class="st0" d="M225.6,86.2c-19-0.1-34.8,16.9-34.9,36.1c-0.1,20.2,15.5,35.9,35.1,36c21,0.2,36.4-16.4,36.6-35.5
		C262.6,103,246.2,86.4,225.6,86.2z M227,148.3c-14.8,0.6-26.9-11.8-26.8-25.2c0.1-14.9,10.6-27,25.8-26.6
		c16.3,0.4,25.7,9.1,26.4,25.6C253,137.1,240.2,148,227,148.3z"/>
</g>
</svg>
