<?xml version="1.0" encoding="utf-8"?>
<!-- Generator: Adobe Illustrator 24.0.1, SVG Export Plug-In . SVG Version: 6.00 Build 0)  -->
<svg version="1.1" id="Layer_1" xmlns="http://www.w3.org/2000/svg" xmlns:xlink="http://www.w3.org/1999/xlink" x="0px" y="0px"
	 viewBox="0 0 500 500" style="enable-background:new 0 0 500 500;" xml:space="preserve">
<g id="Arrow_3">
	<g id="Arrow_6">
	</g>
</g>
<g>
	<path d="M397.9,173.9c-0.5-12.9-0.9-25.8-1.4-38.7c-0.1-3.6-2.1-5.7-5.8-6.3c-5.7-0.9-11.5-1.6-17.2-2.7
		c-10.6-1.9-21.5-2.6-31.8-6.4c-6.6-2.4-13.3-4.3-20-6.4c-1.7-0.6-3.5-1-5.2-1.7c-6.6-2.7-13.3-5.4-19.9-8.2
		c-0.1-0.1-0.2-0.2-0.4-0.3c-5.5-3.1-11.1-6.2-16.5-9.4c-4.7-2.8-9.3-5.6-13.7-8.9c-4-3-7.7-6.5-11.5-9.7c-4.6-3.9-8.5-3.5-13,0.5
		c-4.2,3.7-8.6,7.2-13.2,10.4c-5.7,3.9-11.6,7.6-17.5,11.1c-4.5,2.7-9.1,5.4-13.9,7.5c-7,3.1-14.2,5.7-21.3,8.6
		c-2,0.8-3.8,2.1-5.8,2.7c-6.8,2.1-13.6,4.2-20.4,6c-4.8,1.2-9.7,2-14.6,3c-8.7,1.7-17.1,4.5-26.1,4.7c-5.8,0.1-6.8,1.5-6.7,7.3
		c0.1,18.1,0.2,36.3,0.6,54.4c0.2,8.7,1,17.5,1.8,26.2c0.9,9.6,2,19.1,3.2,28.6c0.8,6.4,2,12.7,3.2,19c0.5,2.6,1.5,5.1,2.1,7.6
		c1.4,5.4,2.6,10.9,4.1,16.3c1.1,3.7,2.5,7.3,3.8,11c0.8,2.2,1.8,4.2,2.6,6.4c1.5,3.5,2.6,7.1,4.4,10.5c3.3,6.2,6.6,12.3,10.4,18.2
		c4.4,6.8,8.8,13.7,14,19.8c8,9.2,16.3,18.1,25.2,26.3c8.9,8.2,18.5,15.8,28.2,23c7,5.2,14.8,9.3,22.2,13.9c1.9,1.1,4,1.9,5.9,3
		c2,1.1,3.9,2.6,5.9,3.6c6.6,3.2,13.2,4.1,19.8-0.3c2.6-1.7,5.4-3.2,8.2-4.6c5.1-2.7,10.3-5.1,15.3-8.1c5.1-3,10.1-6.3,14.8-9.9
		c8.4-6.4,16.8-12.9,24.7-19.8c6.8-6,12.9-12.7,19.3-19.2c2.3-2.4,4.5-4.9,6.4-7.5c3.7-4.8,7.3-9.6,10.7-14.6
		c3.4-5.1,6.4-10.4,9.4-15.7c2.9-5,6-9.9,8.2-15.2c3.3-7.7,6.1-15.7,8.6-23.7c2.5-8.1,5.7-16,6.4-24.7c0.6-6.8,2.8-13.4,3.5-20.3
		c1-9.4,1.7-18.8,1.9-28.2c0.3-13,0.1-26,0.1-39C397.3,173.9,397.6,173.9,397.9,173.9z M384.2,172.2h-0.6c0,11.3,0.4,22.7-0.1,34
		c-0.5,10.9-1.9,21.7-3,32.6c-0.6,5.9-1.4,11.8-2.3,17.7c-0.5,3.1-1.6,6-2.4,9.1c-1.5,5.7-2.3,11.6-4.5,17
		c-3.1,7.6-4.7,15.8-9.2,22.9c-3.2,5.1-5.1,11.1-8,16.4c-2.4,4.3-5.4,8.3-8.4,12.2c-4.7,6.2-9.4,12.3-14.4,18.3
		c-3.2,3.8-6.7,7.3-10.3,10.8c-5.7,5.4-11.5,10.8-17.5,15.8c-4.3,3.6-9,6.7-13.5,9.9c-4,2.8-7.9,5.6-12,8.3c-3,1.9-6.1,3.6-9.2,5.3
		c-4.8,2.7-9.7,5.3-14.5,8c-3.7,2.1-7.1,2.1-10.7-0.2c-5.1-3.1-10.4-5.8-15.3-9.1c-8.3-5.5-16.6-11.1-24.7-16.9
		c-9.9-7-18.9-15.1-27.3-23.8c-5.3-5.5-10.2-11.5-15-17.5c-3.4-4.2-6.7-8.7-9.6-13.2c-2.8-4.2-5.3-8.6-7.5-13.1
		c-3.7-7.5-7.1-15-10.4-22.6c-1.3-2.9-1.9-6.2-3.1-9.2c-4.1-10.3-6.3-21.1-8.2-31.9c-1.9-10.5-2.9-21.1-4-31.7
		c-2.2-21.2-2.6-42.4-2.5-63.7c0-2.5-0.4-5.1,0-7.6c0.7-5.1,3.5-7.9,8.7-8.3c10.4-0.7,20.3-3.7,30.3-6.1c4.8-1.2,9.7-2.2,14.3-3.8
		c10-3.5,20.1-7,29.9-11.1c5.8-2.4,11.2-6,16.7-9.2c4.9-2.8,9.7-5.7,14.4-8.8c4.3-2.9,8.7-5.8,12.4-9.4c3.4-3.3,8.8-3.2,11.8-0.2
		c6.9,6.8,15.2,11.5,23.4,16.1c8.1,4.6,16.6,8.6,25.1,12.1c8.6,3.5,17.7,5.9,26.4,9.3c11.2,4.3,23,5.9,34.6,8.8
		c4.6,1.1,9.5,1.3,14.2,2.1c3.6,0.6,4.9,2,5.5,5.7c0.3,1.9,0.5,3.8,0.5,5.7C384.2,159.5,384.2,165.9,384.2,172.2z"/>
	<path d="M338,206.3c-10.5,8.1-18.8,18.4-28.2,27.5c-5.1,4.9-9.6,10.2-14.5,15.3c-4.4,4.6-9,9-13.4,13.6
		c-13.2,13.7-26.3,27.5-39.4,41.3c-2.7,2.8-5.2,5.9-9.9,5.7c-2.4,0.1-4.6-0.8-6.4-2.8c-7.1-7.5-14.2-15-21.3-22.5
		c-6.8-7.2-13.5-14.3-20.2-21.5c-2.4-2.6-4.8-5.3-6.8-8.1c-1.8-2.6-1.6-5.5,0.2-7.3c1.8-1.9,5.6-2.5,8.1-1.2
		c1.1,0.6,2.1,1.4,2.9,2.3c7.2,7.5,14.4,15,21.7,22.5c1.6,1.6,3.4,2.9,4.9,4.5c3.3,3.6,6.5,7.3,9.7,11c0.8,0.9,1.6,1.9,2.5,2.7
		c3.7,3.7,7.3,3.4,10.7-0.7c3.6-4.3,7.1-8.7,11-12.8c10.9-11.6,22-23.1,33.1-34.6c1.7-1.8,3.5-3.5,5.2-5.3
		c10.7-11,21.4-22.1,32.2-33.1c3.1-3.1,6.3-6.1,9.5-9.1c2.3-2.2,4.8-2.3,7.5-0.6C342.3,196.5,343,202.5,338,206.3z"/>
</g>
</svg>
