<?xml version="1.0" encoding="utf-8"?>
<!-- Generator: Adobe Illustrator 24.0.1, SVG Export Plug-In . SVG Version: 6.00 Build 0)  -->
<svg version="1.1" id="Layer_1" xmlns="http://www.w3.org/2000/svg" xmlns:xlink="http://www.w3.org/1999/xlink" x="0px" y="0px"
	 viewBox="0 0 500 500" style="enable-background:new 0 0 500 500;" xml:space="preserve">
<style type="text/css">
	.st0{fill:#1671A2;}
	.st1{fill:#FFFFFF;}
</style>
<g>
	<path d="M275.7,104.6c-2.7-1.7-5.5-3.2-8.3-4.5c-3.8-1.8-7.8-3.2-11.6-4.8c-2.5-1-5-2-7.5-3.1c-3.6-1.5-7.1-3.2-10.6-4.8
		c-2.5-1.1-5.1-2.2-7.7-3.2c-3.8-1.5-7.5-2.9-11.3-4.5c-2.9-1.2-5.7-2.5-8.5-3.7c-4.1-1.7-8.2-3.4-12.2-5.2c-3.4-1.5-6.8-3-10.3-4.4
		c-3.8-1.6-7.5-3.3-11.3-4.9c-3.6-1.5-7.2-2.9-10.8-4.4c-3.7-1.6-7.4-3.3-11.1-4.9c-3.5-1.5-7.1-2.8-10.4-4.7
		c-3.6-2.1-7.5-2.5-12.3-3.2c-2.3,0.6-5.6,1-8.4,2.3c-6.5,3.3-9.1,9.7-11.7,16c-1.8,4.2-2.9,8.8-4.6,13c-2.5,6.3-4.9,12.5-6.6,19.1
		c-1.7,6.3-0.6,11.7,3.6,16.4c2,2.3,4.3,4.2,6.6,6.1c1.4,1.1,2,2.1,1.2,3.8c-0.6,1.2-0.9,2.6-1.5,3.8c-3.2,6.3-6.4,12.5-9.7,18.8
		c-2.7,5.2-5.4,10.4-8,15.7c-1.3,2.5-2.5,5-3.6,7.5c-2.6,5.6-5,11.3-7.7,16.9c-1.4,3-3.1,5.9-4.6,8.9c-1.4,2.9-3,5.8-3.8,9
		c-2.7,10.3,2.5,19.7,11.6,24.1c2.8,1.4,5.7,2.8,8.5,4.3c3.4,1.7,6.8,3.4,10.2,5.1c3.1,1.5,6.3,2.9,9.4,4.5
		c4.9,2.6,9.8,5.3,15.4,6.1c2,0.3,4.4-0.6,6.2-1.7c1.8-1.1,3.3-2.9,4.7-4.6c1.4-1.7,2.7-3.5,3.8-5.4c1.2-2.2,2.9-2.9,5.1-1.6
		c0.4,0.3,0.8,0.6,1.2,0.8c6,3.3,13.1,4.9,18.3-2.8c0.3-0.4,0.7-0.7,0.9-1.1c2.8-4.3,5.6-8.6,2.7-14.1c-0.9-1.8-0.2-3,1.8-3.1
		c4.8-0.4,10.5-5.6,10.3-10.6c-0.1-2.5,0-5.1-0.1-7.6c-0.1-1.9,0.5-3.4,2.1-4.5c2.2-1.7,4.3-3.5,6.5-5.3c5.6-4.8,6.1-10.5,1.6-16.3
		c-1-1.3-2-3.3-1.8-4.9c0.2-2.7,1.2-5.4,2.2-8c1-2.8,3-3.3,5.5-1.5c1.1,0.8,2.3,1.4,3.5,1.9c3.5,1.4,7.1,2.6,10.6,4.2
		c4.9,2.2,9.5,5,14.9,6.1c0.4,0.1,0.8,0.3,1.1,0.5c5.3,3.4,11.1,5.4,17.1,7.1c5.7,1.7,11-0.7,13.4-6.1c1.5-3.5,3.2-6.9,4.7-10.4
		c1.5-3.6,3-7.2,4.4-10.8c1.7-4.3,3.2-8.8,5.1-13.1c2.7-6.2,5.3-12.5,5.4-19.4C279,110.1,278.9,106.7,275.7,104.6z M158.4,225.3
		c-0.7,0.3-1.7,0.4-2.5,0.2c-6-1.4-11.5-3.9-16.7-7.2c-2.2-1.4-4.5-2.6-6.8-3.9c-2.9-1.7-3.4-3.7-1.2-6.2c1.3-1.5,2.9-3.2,4.7-4
		c1.5-0.6,3.6-0.5,5.1,0.1c3.5,1.3,6.9,3.1,10.3,4.7c3,1.4,6.1,2.6,9,4.3c1.3,0.8,2,2.6,2.7,3.6
		C162.3,220.8,161.5,223.8,158.4,225.3z M174.9,196.3c-1,2.5-2.2,5.3-4.1,7.1c-1,1-3.8,1-5.5,0.4c-5.3-1.7-10.7-3.6-15.7-6.1
		c-3.3-1.6-7-3.2-9-6.8c-1-1.7-2.3-3.4-1-5.3c1.5-2,2.5-4.9,5.9-4.4c0.6,0.1,1.3,0,1.9,0.2c4,1.4,7.9,2.8,11.8,4.3
		c0.9,0.3,1.8,0.8,2.7,1.1c3.6,1.3,7.3,2.6,10.9,3.9C174.6,191.5,175.8,194.1,174.9,196.3z M185.8,177.8c-1.4,1.4-2.9,2.7-4.4,4
		c-2.1,1.8-4.2,0.5-6.3-0.3c-4.3-1.7-8.8-3.3-12.9-5.2c-3.5-1.6-6.8-3.7-9.9-5.9c-1.2-0.8-1.6-2.7-2.3-4.1c0.8-2,1.2-3.7,2.1-5.1
		c1.5-2.3,3.5-2.6,6-1.5c4.8,2,9.7,3.5,14.3,5.6c4.5,2.1,8.9,4.5,13.2,7.1C187.7,173.7,187.7,175.9,185.8,177.8z M235.4,143.9
		c-1.4,3.7-2.8,7.4-4.3,11.1c-0.8,1.8-2.4,2.3-4.1,1.4c-3.1-1.6-6.2-3.3-9.5-4.8c-3.5-1.6-7.1-2.8-10.6-4.3c-3.7-1.6-7.4-3.3-11.1-5
		c-3.3-1.5-6.5-2.9-9.8-4.3c-4-1.8-7.9-3.6-11.9-5.3c-3.2-1.4-6.5-2.7-9.8-3.7c-1.6-0.5-3.6-0.7-4.5,1.1c-0.9,1.8-0.9,3.9,0.8,5.3
		c2,1.6,4.2,3,6.5,4.2c3.3,1.8,6.6,3.3,10,4.9c1.5,0.7,3.1,1.2,4.7,1.7c3.1,1,4,2.8,2.6,5.8c-0.8,1.9-1.8,3.7-2.7,5.6
		c-0.6,1.4-1.4,1.6-2.8,0.9c-3.5-1.7-7.1-3.1-10.7-4.6c-1-0.4-2.1-0.8-3.2-1c-3.1-0.9-6.2-2-9.4-2.4c-5-0.7-10.5,2.7-12.6,7.3
		c-0.8,1.7-1.5,3.5-2.3,5.3c-1,2.3-0.2,4.4,0.9,6.4c2.2,3.9,1.7,5.2-2.7,6c-3.6,0.7-5.9,3-8,5.6c-1.7,2.1-1.1,8.5,0.7,10.7
		c2.3,2.8,1.8,4.5-1.5,6.1c-1.5,0.7-3,1.9-4,3.2c-1.8,2.4-3.7,4.8-4.9,7.5c-1.3,2.8-1.1,5.8,1,8.5c2.9,3.6,6.3,6.5,10.4,8.5
		c2.4,1.2,2.6,2.3,1,4.5c-0.4,0.5-0.7,1.1-1.1,1.5c-4.3,4.5-4.6,5.2-9.6,2.6c-5.6-2.9-11.6-5-17.3-7.7c-6.1-2.9-12.2-6-18.1-9.4
		c-3.6-2.1-6.5-5.2-6.5-11.1c1-2.8,2.3-6.7,3.8-10.5c1.2-2.9,3-5.6,4.4-8.5c3.7-7.7,7.2-15.4,11-23c3.6-7.3,7.5-14.4,11.2-21.6
		c2.6-5.1,5.2-10.4,7.8-15.5c1-2.1,2.3-4.2,3.1-6.4c1.6-4.3,0.5-6.5-3.6-8.2c-8.7-3.6-12.2-13.8-7.9-22.5c1.9-4,3.2-8.3,4.8-12.4
		c1.6-4.2,3.3-8.4,5.1-12.6c1.2-2.7,2.5-5.3,4.2-7.6c3.7-5.1,9-4,13.4-2.1c4,1.7,8.1,3.2,12.1,5c3.6,1.6,7.2,3.4,10.8,5
		c2.5,1.1,5.1,2.2,7.6,3.3c3.4,1.4,6.7,2.8,10.1,4.3c4,1.7,7.9,3.6,12,5.3c3.5,1.5,7.1,2.8,10.6,4.2c3,1.2,6.1,2.3,9,3.7
		c3.9,1.7,7.6,3.5,11.5,5.2c3.3,1.4,6.8,2.6,10.1,4.1c3.6,1.5,7,3.2,10.6,4.8c1.7,0.8,3.4,1.4,5,2.2c2.9,1.4,3.3,3,1.6,5.7
		c-0.3,0.5-0.6,1.1-0.8,1.7c-3,7.8-6,15.6-9,23.3C238.2,136.5,236.8,140.2,235.4,143.9z M268.8,118.4c-0.3,0.9-0.8,1.7-1.2,2.6
		c-1.4,4.1-2.7,8.3-4.2,12.4c-1.4,3.8-3.2,7.4-4.8,11.1c-1.4,3.2-2.6,6.5-3.9,9.7c-1.1,2.7-2.1,5.5-3.5,8c-0.5,0.9-2.1,1.3-3.2,1.9
		c-8.3-0.5-10.3-3.9-6.4-11c0.4-0.7,0.7-1.4,1-2.2c2.1-5.7,4.3-11.4,6.4-17.1c1.4-3.9,2.7-8,4.1-11.9c1.6-4.2,3.3-8.4,5-12.6
		c0.8-1.9,2.1-2.5,4.1-1.5c2.2,1.1,4.6,1.9,6.7,3.1c0.8,0.4,1.5,1.8,1.4,2.7C270.1,115.2,269.4,116.8,268.8,118.4z"/>
	<path class="st0" d="M426.6,433.7c-1.8-3.6-3.7-7.3-6.5-10.3c-9.7-10.5-19.7-20.7-29.7-30.8c-2.5-2.5-5.5-4.6-8.4-6.7
		c-2.9-2-3.5-3.4-2-6.6c0.7-1.6,1.9-3,2.3-4.7c1.8-7.7,5-15.2,3.8-22.9c0.5-5.6-0.7-10.4-1.9-15.3c-2.5-9.6-6.9-18.2-12.9-25.8
		c-5.7-7.3-12.8-13.1-21.4-16.7c-3.1-1.3-6.3-2.5-9.5-3.8c-7-3.1-14.4-3.6-21.8-3.5c-9.3,0.2-18.3,2.6-26.4,7.3
		c-4.2,2.4-8.6,5-12,8.4c-5.4,5.4-10.4,11.4-15,17.6c-3.5,4.7-5.5,10.4-7.1,16c-2,7.3-1.9,14.8-1,22.3c1,9,3.5,17.6,8,25.5
		c1,1.9,2.1,3.8,3.5,5.4c6,7.2,12.5,14,20.6,19c6.9,4.2,14.2,7,22.1,8.3c2.5,0.4,5.1,0.6,7.6,0.8c6.9,0.4,13.8,0,20.4-2
		c4.9-1.4,9.5-3.5,14.3-5.4c2.7-1,4.2-0.6,6.1,1.6c5.1,5.7,10.1,11.5,15.3,17.1c6.5,7,13,14,19.6,20.9c1.8,1.9,3.8,4,6.2,4.8
		c7.4,2.6,14.6,2,20.3-4c2.1-2.1,3.5-4.9,5.1-7.4C427.8,440,428.1,436.6,426.6,433.7z M353.2,399.5c-2.1,1.1-4,2.7-6.2,3.6
		c-12.2,5-14.7,5.7-27.1,5.7c-5.8,1.1-12.2-1.4-18.4-3.8c-4.5-1.7-8.4-5-12.5-7.7c-1.5-1-2.9-2.3-4.3-3.4
		c-4.6-3.5-8.1-7.9-11.1-12.7c-2.1-3.3-3.7-7-5.1-10.7c-2.4-6-3.7-12.3-3.6-18.9c0.1-5.8,0.9-11.4,2.8-17.1
		c3.2-9.8,8.7-17.8,16-24.8c3.8-3.7,8.1-6.5,12.9-8.9c10.9-5.6,22.5-6.8,34.3-5c5.1,0.8,10,2.6,14.9,4.9c6,2.8,11,6.8,15.6,11.1
		c5,4.6,8.8,10.2,11.6,16.5c2.7,6,4.1,12.4,5,18.8c0.5,3.6,0.4,7.3-0.1,10.9c-1.3,9.4-3.5,18.7-9.1,26.6
		C364.4,390.6,359.7,396,353.2,399.5z M417.2,442.2c-2,3.2-4.9,5.2-9.9,5.3c-2.9,0.2-5.1-2.8-7.4-5.1c-6-6-11.8-12.2-17.7-18.5
		c-5.4-5.8-10.8-11.7-16.2-17.6c-1.5-1.6-1-3.1,0.2-4.4c2.5-2.6,5.1-5.2,7.8-7.8c1.4-1.3,4.2-1.2,6.2,0.6c4.8,4.4,9.5,9,14,13.6
		c3.9,3.9,7.6,7.9,11.4,11.9c3.6,3.8,7.3,7.5,10.6,11.6C418.5,434.9,419.4,438.6,417.2,442.2z"/>
	<path d="M380.6,304.7c-0.1,1.2-1.2,3-2.1,3.2c-1.3,0.3-3.2-0.4-4.2-1.3c-1-1-1.8-2.8-1.8-4.2c-0.1-16.5-0.2-33-0.1-49.5
		c0-3.9-0.8-5-4.7-5c-14.9,0-29.8,0.1-44.7,0.1c-34.8,0.1-69.5,0.3-104.3,0.3c-15.1,0-30.1-0.3-45.2-0.4c-4.1,0-4.9,0.7-4.9,4.6
		c0.2,25.9,0.4,51.8,0.6,77.7c0.1,14.8,0.3,29.6,0.4,44.4c0,1.6-0.1,3.2-0.2,4.8c-0.3,2.9,0.5,3.9,3.6,3.9c10.5,0,21.1,0,31.6,0h5.3
		v0h33.7c3.7,0,7.5-0.1,11.2-0.1c2.3,0,6.4,3.2,7.1,5.3c0.6,2.1-0.8,4.3-3,4.1c-28.9-1.8-57.9-0.3-86.8-0.9c-1.7,0-3.3-0.1-5-0.3
		c-4.7-0.5-6.5-3.1-6.4-7.8c0.2-12.4,0-24.8,0.1-37.3c0-4.3,0.3-8.6,0.3-12.9c0-5.6-0.4-11.1-0.4-16.7c0-22.3,0-44.6,0-66.9
		c0-1.9,0.3-4,1-5.8c0.9-2.4,2.8-3.8,5.5-4c4.1-0.2,8.3-0.5,12.4-0.5c51.9,0,103.8,0,155.8,0c6.2,0,12.4,0,18.6,0
		c6-0.1,12-0.3,17.9-0.3c6.1-0.1,8.8,2.6,8.9,8.7c0.1,3.8,0,7.7,0,11.5c0,11,0.1,22,0.1,33C380.7,296.6,380.8,300.7,380.6,304.7z"/>
	<path d="M406.5,243.6c-0.1,33.4,0,66.8-0.1,100.2c0,15.2-0.3,30.5-0.4,45.7v0.2c0,3.1-0.9,4.7-2.8,4.9c-2,0.2-4.4-2-4.7-4.6
		c-0.2-1.7-0.2-3.5-0.2-5.3c0-46.7,0-93.3,0-140c0-3.4-0.3-6.7-2.6-9.7c-3.5-4.7-7.9-7.3-13.7-7.3c-7,0-14,0-21.1,0h-65.3v0
		c-28.1,0-56.1,0-84.2,0c-9.7,0-19.5-0.3-29.2-0.4c-0.9,0-1.9-0.2-2.8-0.4c-1.8-0.4-3.5-1.3-3.3-3.2c0.2-1.4,1.3-3.6,2.4-3.9
		c2.9-0.8,6.1-0.8,9.1-0.9c1.3-0.1,2.7,0.2,4,0.2c24.3,0,48.5,0,72.7,0c38,0,75.9,0,113.8,0.1c4.4,0,8.9,0.7,13.2,1.9
		c4.7,1.3,7.9,5,10.8,8.7C405.3,233.9,406.5,238.5,406.5,243.6z"/>
	<path d="M293.6,418c-0.4,1.1-1.6,2.2-2.7,2.5c-1.7,0.5-3.6,0.5-5.4,0.6c-3.4,0.2-6.8,0.5-10.3,0.5c-18.8,0-37.6,0.1-56.5,0
		c-19.8-0.1-39.7-0.3-59.5-0.4c-10.7-0.1-19.5-6.1-22.9-15.9c-1.4-4.1-2.2-8.1-2.2-12.3c0.1-40.6,0-81.2,0.1-121.8
		c0-6.8,0.2-13.5,0.5-20.3c0-1.2,0.4-2.5,0.9-3.7c0.8-1.7,2.1-2.9,4.1-2.5c2,0.4,3,1.9,3.5,3.8c0.1,0.5,0.1,1,0.1,1.4
		c0,18,0,36-0.1,54.1c-0.1,24.2-0.3,48.4-0.4,72.6c0,6.8,0.1,13.5,0.4,20.3c0.3,6.2,2.7,11.5,8.5,14.2c2.5,1.1,5.6,1.4,8.4,1.5
		c20.3,0.1,40.5,0.1,60.8,0.1v-0.1c19.8,0,39.7,0.1,59.6-0.1c4.2,0,7.8,1.2,11.5,2.9C292.8,415.7,293.8,417.3,293.6,418z"/>
	<path d="M232.3,353.9c-0.1,0-0.3,0-0.5,0c0-5.6,0.3-11.1-0.1-16.7c-0.3-4.7-2.4-6.3-7-6.5c-5.4-0.2-10.8-0.4-16.2-0.5
		c-3.8-0.1-5.5,1.5-5.5,5.3c-0.2,10.3-0.3,20.7-0.4,31c0,1.3,0,2.9,0.6,3.9c0.8,1.2,2.2,2.6,3.5,2.7c6.4,0.4,12.9,0.5,19.3,0.5
		c4,0,6.1-2.4,6.2-6.4C232.3,362.8,232.3,358.3,232.3,353.9z M223.7,361.2c0,3.1-1,4-4,3.7c-1.7-0.2-3.5,0-5.2,0
		c-2.5,0.1-3.5-1-3.4-3.4c0.1-6.1,0.2-12.2,0.2-18.4c0-3.1,0.3-3.7,3.4-3.9c2.1-0.1,4.3,0,6.4,0.1c1.9,0.1,2.7,1.4,2.7,3.3v9.5
		c0,0,0,0,0,0C223.7,355.2,223.7,358.2,223.7,361.2z"/>
	<path d="M278.8,295.1c-0.7,1.3-2.2,2.1-3.6,3.4c-1.9-1.2-3.4-1.8-4.6-2.9c-4.2-3.9-8.3-7.9-12.4-11.9c-2.3-2.3-3.9-2.2-6.4-0.1
		c-7.3,6.3-14.6,12.5-21.9,18.9c-3.8,3.3-7.6,6.8-11.4,10.2c-3,2.6-6.1,5.1-9.2,7.6c-2,1.6-4.5,1.6-5.8,0c-1.4-1.6-1.1-4.6,0.8-6.3
		c13-11.3,26.1-22.7,39.1-34c2.6-2.3,5.1-4.6,7.6-6.9c3-2.8,6.2-2.9,9,0c3.4,3.6,6.7,7.3,10.1,10.8c2.3,2.4,4.9,4.6,7.4,6.8
		C278.9,291.9,279.7,293.5,278.8,295.1z"/>
	<path class="st0" d="M313.1,138.6c0.5,8.3-2,15.7-5.3,22.9c-3,6.5-6.9,12.4-12.4,17.1c-3.8,3.3-8.2,5.9-12.6,8.5
		c-2.4,1.5-5.2,2.4-7.8,3.4c-1.8,0.7-3.7,0.6-4.8-1.5c-0.9-1.9-0.2-5,1.5-6c2-1.2,4.2-2.3,6.4-3.2c5.2-2,9.5-5.2,13.4-8.9
		c4.2-4,7.6-8.8,9.8-14.2c2.9-7.1,4.7-14.4,3.9-22.1c-0.7-6.5-2-12.9-5.3-18.7c-0.5-0.8-0.7-1.8-0.9-2.7c-0.4-1.8-0.2-3.6,1.8-4.4
		c2-0.8,4.4,0.1,5.3,2C310.5,119.6,313.7,128.7,313.1,138.6z"/>
	<path d="M265.4,310.3c-0.1,3.1-2.1,4.8-5.7,4.5c-2.9-0.2-5.9-0.4-8.8-0.4c-3.2,0-3.5,0.7-3.4,3.8c0.2,5.3,0.1,10.5,0.2,15.8
		c0,7.7-0.2,15.3,0.1,23c0.1,3.2,1,6.4,2,9.5c0.8,2.2,1.7,4.3-0.2,6.2c-1.7,1.7-4,1.9-6.3,1.2c-2.5-0.8-4.2-2.8-4.3-5.2
		c-0.1-2.7,0-5.4,0-8.1v-18.9h0c0-7.7,0-15.5,0-23.2c0-2.4-0.3-4.8-0.4-7.2c-0.1-3,1.2-4.7,4.1-4.9c6-0.3,11.9-0.6,17.9-0.5
		C264.3,306.1,265.4,307.4,265.4,310.3z"/>
	<path class="st0" d="M291.9,137.9c-0.2,10.9-4.9,19.5-12.9,26.5c-1.8,1.6-4.4,2.6-6.8,3.1c-2.2,0.5-4-1.3-4.4-3.4
		c-0.3-2.2,1.2-3,2.9-3.8c4.2-1.9,7.1-5,9.5-9c2.9-4.7,3.6-9.7,3.1-14.9c-0.2-2.4-0.9-5-2-7.2c-1-2.3-0.6-4,0.8-5.7
		c1.4-1.6,3.4-1.9,4.8-0.3c1.5,1.7,2.9,3.8,3.6,6C291.5,131.9,291.5,134.9,291.9,137.9z"/>
	<path d="M340,264.3c-1.5,2.7-3.1,5.4-5.3,7.5c-2.7,2.6-5.8,4.7-9,6.6c-1.8,1.1-4.2,1.4-6.8,2.2c-1.1-0.7-2.6-1.2-3.3-2.3
		c-1-1.5,0.4-2.6,1.6-3.5c5.1-4.2,10.1-8.4,15.2-12.6c0.6-0.5,1.1-0.9,1.5-1.5c1.2-1.6,2.7-2.2,4.6-1.3
		C340.1,260.2,341,262.4,340,264.3z"/>
	<path d="M152.9,311.4c1.4,0.8,2.9,1.2,3.5,2.2c1.9,2.8,3.5,5.7,2,9.3c-0.4,0.9-0.6,1.8-0.9,2.7c-1.9,5-5.5,5.7-9.2,1.8
		c-3-3.2-3.3-10-0.2-13.1C149.4,313.1,151.2,312.5,152.9,311.4z"/>
	<path d="M269.3,407.8c-3.5,0-5.9-1.6-6.3-4.3c-0.4-2.7,1.2-4.7,4-4.8c2.8-0.1,5.7,2,6.6,4.7C274.5,405.8,272.6,407.7,269.3,407.8z"
		/>
	<path class="st1" d="M159.3,83.9c-0.2,0.7-0.4,1.4-0.4,2C159,85.2,159.1,84.6,159.3,83.9c0.1-0.3,0.3-0.7,0.5-0.9
		C159.6,83.2,159.5,83.5,159.3,83.9z"/>
	<path d="M197.5,99.9c-0.2,0.3-0.3,0.6-0.5,0.9c-0.1,0.2-0.3,0.4-0.4,0.5c-1.3,1.4-3.4,1.7-5.6,0.8c-6.6-2.5-13.2-4.9-19.7-7.7
		c-3.6-1.5-7.1-3.5-10.5-5.5c-1.3-0.7-1.8-1.8-1.8-3.1c0-0.7,0.1-1.3,0.4-2c0.2-0.5,0.4-0.9,0.7-1.2c0.1-0.1,0.2-0.2,0.3-0.3
		c0.9-0.9,2.1-1.2,3.7-1.3c0.5,0.1,1.2,0.2,1.8,0.4c3.1,1.4,6.1,3,9.2,4.4c0.8,0.3,1.5,0.7,2.3,1c1.5,0.7,3.1,1.3,4.6,1.9
		c0.8,0.3,1.5,0.6,2.3,1c3.4,1.4,6.8,2.7,10.1,4.1C196.6,94.9,198.3,98.1,197.5,99.9z"/>
	<path class="st0" d="M363.3,333.9c-2.1-6.3-6.3-11.8-11.6-16.1c-6.8-5.5-14-10.2-23-11.3c-1.7-0.2-3.4-0.6-5-0.5
		c-5.4,0.5-11.1,0.3-16.3,1.9c-7.6,2.4-14.3,6.8-19.5,13.2c-4.8,6-8.8,12.5-10.4,19.9c-3.1,14.2-0.5,27.3,8.5,39
		c9.1,11.7,20.9,17.8,31.5,17.8c13.3-0.3,16.4-0.4,27.3-6.7c7.1-4.1,12-10.3,16-17.4c2.1-3.8,3.1-8.1,4.5-12.3
		C368.3,352,366.3,342.8,363.3,333.9z M357.6,359.8c-1.7,7.2-4.8,13.5-9.8,18.8c-7,7.5-15.9,10.7-26.6,11.2
		c-14.6-0.8-25.9-7.7-32.8-21.1c-3.8-7.3-5.3-15.4-3.4-23.7c2.1-9.2,6.4-17.6,14.1-23.2c10.4-7.5,21.8-9.5,34.4-5
		c7.6,2.7,14,6.8,18.3,13.3C357.7,339,360.2,348.9,357.6,359.8z"/>
</g>
</svg>
