<?xml version="1.0" encoding="utf-8"?>
<!-- Generator: Adobe Illustrator 24.0.1, SVG Export Plug-In . SVG Version: 6.00 Build 0)  -->
<svg version="1.1" id="Layer_1" xmlns="http://www.w3.org/2000/svg" xmlns:xlink="http://www.w3.org/1999/xlink" x="0px" y="0px"
	 viewBox="0 0 500 500" style="enable-background:new 0 0 500 500;" xml:space="preserve">
<style type="text/css">
	.st0{fill:none;}
	.st1{fill:#1671A2;}
	.st2{fill:#FFFFFF;}
</style>
<g>
	<path class="st0" d="M112.6,238.5c1.8-4.4,3.6-8.7,5.4-13.1c1.3-3.1,2.5-6.3,3.6-9.4c1.6-4.3,3.1-8.6,4.8-12.9c2-5,4-10.1,6-15.1
		c1.8-4.4,3.6-8.8,5.3-13.2c0.7-1.7,1.3-3.5,1.4-5.3c0.1-1-0.6-2.6-1.4-3.1c-2.4-1.5-5-2.6-7.5-3.8c-4.3-2-8.6-3.9-12.9-5.8
		c-3.7-1.6-7.4-3.3-11.2-4.5c-1.1-0.4-3,0-3.9,0.8c-1.4,1.2-2.4,3-3.2,4.7c-2.2,5-4.3,10-6.3,15c-2.3,5.8-4.3,11.6-6.5,17.3
		c-2.2,5.7-4.5,11.4-6.7,17.1c-1.9,4.8-3.8,9.7-5.7,14.5c-1.5,4-2.9,8-4.4,12c-3,7.7-6.1,15.3-9.1,23c-1.9,4.8-3.7,9.5-5.6,14.3
		c-1.1,2.8-0.9,4.5,1.6,6.2c2.2,1.5,4.6,2.7,7,3.8c3.8,1.9,7.7,3.8,11.6,5.4c4.1,1.7,8.3,3,12.5,4.4c0.2,0.1,0.5,0,0.7,0.1
		c2.7,0,4.8-1.7,6.1-5.1c1.8-4.3,3.7-8.6,5.4-12.9c1.6-4,3.1-8,4.6-12c1.5-4.1,3-8.3,4.5-12.5C109.9,245.2,111.3,241.8,112.6,238.5z
		"/>
	<path class="st0" d="M175.1,356.2c-10.1-0.1-17.8-7-19.1-16.8c-0.5-3.9-1.1-4.7-5-4.6c-3.8,0.1-7.2-1.1-10.6-2.5
		c-2.7-1.2-4.4-0.5-5.6,2.1c-0.8,1.8-1.2,3.6-2,5.4c-1.8,3.9-1.8,4.6,1.3,7.6c7.1,6.8,14.2,13.6,21.4,20.3c1.1,1,2.9,1.4,4.8,2.2
		c2-1,4-2,5.9-2.9c3.1-1.5,6.2-3.2,9.5-4.4c2.1-0.8,3.2-1.7,3-3.6C178.5,356.7,177.1,356.2,175.1,356.2z"/>
	<path class="st0" d="M152,302.5c-0.4,0.4-0.8,0.7-1.2,1.1c0.2-0.2,0.3-0.3,0.5-0.5C151.5,302.9,151.7,302.7,152,302.5z"/>
	<path class="st0" d="M157.6,298.1C157.6,298.1,157.6,298.1,157.6,298.1C157.6,298.1,157.5,298.2,157.6,298.1
		C157.5,298.2,157.6,298.1,157.6,298.1z"/>
	<path class="st0" d="M171.4,301.2c-0.3-0.5-0.7-0.9-1-1.4c-0.2-0.3-0.4-0.5-0.6-0.8c0.2,0.3,0.4,0.5,0.7,0.8c0,0,0.1,0.1,0.1,0.2
		c0.2,0.2,0.3,0.4,0.5,0.7c0.1,0.1,0.1,0.2,0.2,0.3C171.3,301,171.4,301.1,171.4,301.2z"/>
	<path class="st0" d="M171.4,301.2c0.1,0.2,0.3,0.4,0.4,0.6C171.7,301.5,171.6,301.3,171.4,301.2z"/>
	<path class="st0" d="M173.4,305.6c0-0.1,0-0.1,0-0.2c0,0,0,0.1,0,0.1C173.4,305.6,173.4,305.7,173.4,305.6
		C173.4,305.7,173.4,305.7,173.4,305.6z"/>
	<path class="st0" d="M173.4,304.9c0,0.1,0,0.3,0,0.4v0c0-0.2,0-0.4,0-0.7c0,0,0,0.1,0,0.2C173.4,304.8,173.4,304.9,173.4,304.9z"/>
	<path class="st0" d="M172.8,303.2c0.1,0.1,0.2,0.3,0.3,0.4C172.9,303.5,172.8,303.3,172.8,303.2c-0.3-0.5-0.6-0.9-0.9-1.4
		c0.1,0.2,0.3,0.4,0.4,0.6c0.2,0.2,0.3,0.5,0.5,0.7C172.7,303.1,172.7,303.1,172.8,303.2z"/>
	<path class="st0" d="M173.4,304.3c0-0.1-0.1-0.2-0.1-0.3c-0.1-0.1-0.2-0.3-0.3-0.5c0.1,0.2,0.2,0.3,0.3,0.5
		C173.3,304.1,173.3,304.2,173.4,304.3z"/>
	<path class="st0" d="M173.4,304.6C173.4,304.6,173.4,304.6,173.4,304.6C173.4,304.6,173.4,304.6,173.4,304.6z"/>
	<path class="st0" d="M197.9,326.1c1.8-2.4,2.4-5,1-7.7c-1.1-1.9-2.5-3.6-3.8-5.4c-1.9-2.4-4.9-2.7-7.3-0.8c-0.7,0.5-1.5,1-2.3,1.5
		c-3,2.2-6,4.2-8.8,6.6c-3.2,2.8-6,6-9.1,9c-3.1,3-5.1,9.7,0.4,13.4c1.8,1.2,4.2,1.5,6.3,2.2c2.7-0.6,5.1-0.6,7.3-2.4
		C187.7,337.7,193.2,332.3,197.9,326.1z"/>
	<path class="st0" d="M222.8,342.1c1.2-1.7,1-3.4-0.5-4.8c-1.8-1.8-3.7-3.5-5.6-5.1c-3.1-2.4-6.2-2.1-9.1,0.7
		c-2.1,2.1-4.3,4.2-6.4,6.3c-4.2,4.4-8.4,8.9-12.4,13.5c-0.7,0.8-1.1,2.3-0.8,3.3c0.4,1.7,1.3,3.5,2.3,5c1.4,2.1,3.4,3.5,6.3,4.1
		c3.3-1.4,7-2.2,9.7-4.3c3.8-2.8,7-6.4,10.1-9.9C218.8,348.3,220.7,345.1,222.8,342.1z"/>
	<path class="st0" d="M271.3,381.1c-4,0-7.9-0.4-11.5-2.5c-0.7-0.4-1.6-0.5-2.4-0.8c-1.6-0.8-3.3-1.5-4.8-2.4
		c-1.9-1.2-3.9-0.9-5.3,0.8c-4.4,5.7-9.2,11-16.6,13c-2.8,0.7-3.4,2.7-2.4,5.4c0.3,0.8,0.7,1.6,0.7,2.4c-0.1,4.4,3.2,6.1,7.2,6.2
		c4,0.1,8,0,12,0c0,0.1,0,0.3,0,0.4c5.8-0.5,11.6-0.9,17.4-1.4c5.9-0.5,8-4,8.3-9.4c0.1-2.5,0.3-5.1,0.8-7.5
		C275.3,382,274.9,381.1,271.3,381.1z"/>
	<path class="st0" d="M442.8,263.6c-2-5.2-4-10.4-6-15.6c-1.7-4.4-3.3-8.9-4.9-13.3c-1.7-4.6-3.3-9.2-5-13.8
		c-1.7-4.6-3.6-9.1-5.4-13.6c-1.8-4.8-3.5-9.6-5.3-14.4c-1.6-4.3-3.4-8.5-5.1-12.8c-2.9-7.4-5.3-15-8.7-22.2
		c-2.3-4.8-2.6-6.7-8.2-3.6c-0.1,0.1-0.3,0.1-0.4,0.1c-8.3,2.9-16.7,5.5-24.9,8.8c-5,2-6.6,4.2-4,9.2c0.5,0.9,0.8,1.9,0.9,2.8
		c0.4,5.7,3.8,10.3,5.4,15.5c1.6,5.2,3.8,10.3,5.7,15.4c1.6,4.3,3.1,8.6,4.7,12.9c1.9,5.1,4,10.2,5.8,15.4
		c2.8,7.7,5.5,15.4,8.2,23.1c0.1,0.2,0.2,0.4,0.3,0.6c1.7,4.1,3.4,8.2,5,12.3c1.9,5.1,3.3,10.4,5.7,15.2c2.1,4.2,3.2,5.5,7.6,3.3
		c1.2-0.6,2.6-0.8,3.9-1.2c4.7-1.5,9.6-2.8,14.2-4.5c3.9-1.5,7.6-3.6,11.4-5.4c1.8-0.8,2.7-2.2,2.8-4.3c-0.5-1.6-0.8-3.3-1.4-4.8
		C444.5,267,443.5,265.4,442.8,263.6z"/>
	<path class="st0" d="M239.9,370.1c3.7-5.3,3.5-9.3-1-12.9c-1.4-1.1-3.1-2-4.7-2.9c-2.1-1.2-4.1-1.1-5.8,0.7
		c-4.2,4.3-8.4,8.6-12.5,13c-1.4,1.5-1.5,4.3-0.2,6c2.5,3.3,5.1,6.7,9.6,5.7c3.2,0.1,5.8-0.1,7.8-2.1
		C235.4,375.2,237.9,372.8,239.9,370.1z"/>
	<path class="st0" d="M349.9,327.3c-1.7,3.2-3.1,6.6-4.9,9.9c-2.4,4.6-5.5,8.2-11,9.5c-5.3,1.3-10.5,3-14.3,7.2
		c-1.5,1.6-1.6,2.8,0,4.2c2.2,2,4.4,4,6.7,5.9c2.3,1.9,4.5,4,7,5.6c2.6,1.8,4.2,1.4,6.6-0.7c4-3.5,8-6.8,12-10.3
		c3.8-3.3,7.6-6.7,11.2-10.3c1.4-1.4,2.1-3.4,3.1-5c-0.8-1.9-1.1-3.4-1.9-4.7c-2.6-4-5.3-7.9-8-11.8
		C354.4,324.2,351.5,324.3,349.9,327.3z"/>
	<path class="st0" d="M390.2,268c-2.8-7.8-5.5-15.6-8.2-23.4c-0.3-0.9-0.7-1.7-1-2.5c-1.7-4.4-3.4-8.8-5.1-13.3
		c-1.8-4.8-3.5-9.6-5.3-14.4c-1.6-4-3.4-8-5-12c-1.9-5.1-3.6-10.2-5.4-15.3c-1-2.8-2.7-3.4-5.6-2.4c-2.5,0.9-5.1,1.7-7.7,2.1
		c-5,0.9-10,1.6-15,2.3c-3.8,0.5-7.6,1.2-11.4,1c-5.4-0.4-10.8-1.5-16.1-2.4c-4.8-0.9-9.6-2-14.4-3c-3.9-0.8-7.8-1.4-11.8-2
		c0,0.1,0,0.2,0,0.3c-2.1,0.1-4.1,0.2-6.2,0.4c-6,0.4-11.9,0.7-17.9,1.4c-3.9,0.5-7.8,2-11.7,2.2c-4.8,0.2-8.6,2.5-11.9,5.3
		c-4.4,3.6-8.3,7.7-12.3,11.7c-4.2,4.2-8.4,8.5-12.4,12.9c-3.5,3.9-7,7.9-10.3,12.1c-2,2.5-2,6.4-0.1,8.3c2.4,2.3,5.5,3.6,8.8,3.1
		c5.8-0.8,10.9-3.4,15.8-6.4c4.9-3,9.6-6.5,14.4-9.7c2.1-1.4,4.3-2.9,6.5-4.2c4.1-2.4,8.2-4.7,12.3-6.9c6.4-3.5,12.1-0.3,17.4,2.5
		c4.4,2.2,8,5.7,12,8.7c8,6.1,15.9,12.2,23.8,18.4c7.6,5.9,15.2,11.8,22.7,17.8c4.8,3.8,9.5,7.8,14.2,11.6c3.6,3,7.2,5.9,10.8,8.8
		c3.9,3.1,7.9,6.1,11.7,9.2c2,1.6,2.9,1.6,5-0.1c2.2-1.8,4.5-3.5,6.9-4.9c4.4-2.5,9-4.6,13.5-7c2.2-1.2,2.5-2.2,1.5-4.5
		C391.9,271.6,390.9,269.9,390.2,268z"/>
	<path class="st0" d="M276.9,303.6c2.2,0.3,4.6,1.1,6.3,2.4c4.9,3.7,9.6,7.8,14.3,11.8c3.9,3.2,7.8,6.4,11.7,9.6
		c3.5,2.8,7.1,5.3,10.5,8.1c4,3.5,7.5,3.6,11.4-0.1c2.7-2.6,5.2-5.4,7.7-8.1c1.4-1.5,1.3-3-0.2-4.2c-3.6-3-7.2-5.9-10.9-8.8
		c-3.9-3-7.9-5.7-11.8-8.7c-3.9-2.9-7.8-6-11.5-9.1c-4.3-3.6-8.6-7.4-12.7-11.3c-2.1-1.9-1.4-6.5,1-7.7c2.1-1.1,5.8-0.5,7.5,1
		c2.4,2.1,4.9,4.2,7.4,6.2c4.8,4,9.7,8,14.6,11.9c3.4,2.8,6.7,5.6,10.2,8.2c4.7,3.4,9.5,6.6,14.3,9.9c2.2,1.5,4.8,1.4,6.4-0.4
		c2.1-2.4,4.2-4.8,6.4-7.2c2.9-3.1,3-5.9,0-8.8c-1.9-1.9-3.9-3.6-6-5.3c-4.7-3.8-9.4-7.5-14.1-11.3c-7.2-5.8-14.4-11.6-21.7-17.3
		c-3.6-2.9-7.2-5.7-10.8-8.6c-3.5-2.8-7-5.7-10.5-8.5c-4-3.2-8-6.4-12-9.5c-3.9-2.9-7.8-5.8-11.8-8.6c-2.4-1.7-4.9-3.3-7.5-4.7
		c-1.8-1-3.9-2-5.9-2.1c-5-0.4-8.8,2.9-12.6,5.3c-4.3,2.6-8.1,6-12.3,8.8c-4.5,3.1-9.1,6.1-13.9,8.8c-3.6,2-7.5,3.9-11.5,4.8
		c-5.2,1.2-10.5,1.4-15.3-1.9c-2.3-1.6-4.9-2.9-6.7-5c-2.5-2.8-4.7-6.3-4-10.1c0.6-3.4,2.2-6.7,4.2-9.6c2.7-4,6-7.5,9.3-11.1
		c4.2-4.6,8.4-9.1,12.8-13.5c3.1-3.1,6.6-5.9,9.9-9c0.5-0.5,0.7-1.4,1-2.1c-0.8-0.1-1.6-0.3-2.4-0.2c-2,0.3-3.9,0.8-5.9,1
		c-4.9,0.6-9.9,1.3-14.9,1.5c-8.2,0.3-16.4,0.4-24.6,0c-5.4-0.3-10.7-1.8-16.1-2.7c-2.6-0.4-5.3-0.5-7.7-1.3c-3.7-1.2-4.1-1.3-6,2
		c-0.5,0.8-0.8,1.8-1.2,2.7c-1.7,4.6-3.4,9.2-5.2,13.7c-1.7,4.3-3.5,8.5-5.3,12.7c-1.3,3.3-2.7,6.7-4,10c-0.7,1.9-1.3,3.9-2.1,5.8
		c-1.6,4.1-3.3,8.2-4.8,12.4c-1.6,4.4-3.1,8.8-4.7,13.1c-2,5.1-4.2,10.2-6.2,15.3c-0.3,0.8-0.6,1.9-0.4,2.7c0.4,1.2,1,2.7,2,3.4
		c2.1,1.6,4.5,2.8,6.8,4.1c4.7,2.7,9.4,5.4,14,8.1c2.4,1.4,4.8,2.7,6.9,4.4c2.6,2,4,2.1,5.9-0.6c3.8-5.2,9.1-8.3,14.8-10.9
		c1-0.5,2.2-0.7,3.3-0.7c7.8-0.1,13.2,4.2,17.5,10.1c0.9,1.2,1.7,2.6,2.1,4c0.9,3.2,1.7,3.7,4.9,3c5.7-1.3,11-0.7,15.3,3.7
		c3.1,3.2,6.4,6.5,6.2,11.6c-0.1,1.8,1.1,2.5,2.7,2.4c3.7-0.1,7,0.6,10.1,2.9c6,4.4,11.3,8.8,11.2,17.1c-0.1,3.2,1.2,4.3,4.3,5
		c1.3,0.3,2.7,0.2,3.8,0.8c5.1,3,10,6.2,10.1,13.1c0,1.9,1.3,2.6,2.8,3.4c2.5,1.3,4.9,2.9,6.9,4.9c3,3,6.3,4.7,10.2,4.9
		c5.3-0.1,9-2.7,12.3-6.2c1.9-2,2-3.7-0.1-5.4c-3.9-3.3-7.9-6.5-11.9-9.7c-1.9-1.5-3.9-3-5.9-4.4c-3.8-2.6-7.8-5.1-11.6-7.6
		c-1.7-1.1-3.6-5.2-3-6.6c1.5-3.7,5-6.3,9.1-3.3c5.3,3.8,10.6,7.7,15.8,11.7c6.8,5.3,13.5,10.8,20.2,16.3c2.6,2.1,4.7,2.3,7.4,0.3
		c2.4-1.8,4.7-3.6,7.2-5.3c5.4-3.8,5.5-5.4,0.2-9.4c-3.3-2.5-6.4-5.2-9.6-7.8c-3.8-3.1-7.6-6.1-11.5-9.1c-4.9-3.8-10-7.3-14.8-11.2
		c-1.9-1.5-2.8-4-2.3-6.6C272.3,305.3,274.8,303.3,276.9,303.6z"/>
	<path d="M455.6,272.6c-1.6-5.9-3.7-11.7-5.9-17.4c-2.9-7.6-6.1-15-9-22.5c-2.3-5.9-4.3-11.9-6.5-17.9c-2.3-6.3-4.8-12.5-7.1-18.9
		c-1.7-4.7-3.3-9.4-4.9-14c-0.2-0.4-0.4-0.8-0.6-1.2c-1.9-4.7-3.8-9.5-5.8-14.2c-2.5-6-4.5-12.3-7.8-17.8c-3.1-5.2-5.5-6.7-12-5.1
		c-4.6,1.1-9.1,3.1-13.6,4.7c-5.3,1.9-10.7,3.8-15.9,5.9c-2.8,1.1-5.7,2.3-7.8,4.1c-2.7,2.3-4.4,5.6-3.5,9.5
		c0.6,2.8-0.5,5.2-3.2,6.1c-4.3,1.4-8.6,2.9-13,3.7c-9.4,1.7-18.9,2.3-28.4,0.8c-6.8-1.1-13.6-2.5-20.2-4.1
		c-3.5-0.8-7.1-2.1-10.3-3.8c-3.8-2-7.1-5.1-10.9-7c-4.1-2.1-8.5-3.9-13-4.9c-10.8-2.3-21.2,0.2-31.3,3.6c-2.8,1-5.6,2.3-7.9,4.1
		c-4.5,3.4-8.7,7.3-13,10.9c-1,0.8-2.2,1.7-3.3,1.9c-5.3,0.6-10.7,1.4-16,1.4c-6.6-0.1-13.2-0.7-19.7-1.5c-4.2-0.5-8.4-1.8-12.5-2.7
		c-0.4-0.1-0.8-0.2-1.1-0.2c-3.7-0.6-4-1.2-3.4-4.8c0.8-4.8,0.2-9.3-4.5-12c-3.1-1.8-6.3-3.5-9.6-4.9c-4.1-1.8-8.4-3.3-12.5-5.1
		c-5.7-2.4-11.1-5.7-17.6-6.1c-4.3-0.3-7.7,0.9-9.8,4.9c-1.6,3.1-3.2,6.2-4.6,9.4c-2.1,4.8-4,9.7-6,14.6c-1.8,4.5-3.6,9.1-5.4,13.7
		c-1.6,4.1-3.2,8.3-4.8,12.4c-1.8,4.8-3.7,9.6-5.5,14.3c-1.8,4.6-3.6,9.3-5.3,13.9c-1.7,4.4-3.3,8.9-4.9,13.3
		c-1.9,4.9-3.8,9.8-5.7,14.7c-1.7,4.3-3.1,8.7-5.2,12.7c-1.5,3-2.2,6-2.2,9.2c0,4.3,2.6,7.2,5.9,9.3c2.7,1.7,5.8,2.7,8.8,4
		c3.9,1.7,7.9,3.4,11.8,5.1c3.9,1.7,7.8,3.6,11.8,5.1c6.9,2.5,12.7,0.7,17.3-5c1-1.3,1.9-2.8,2.7-4.2c1-1.6,2.3-2,3.9-1.2
		c1.2,0.6,2.2,1.4,3.3,2.1c0.8,0.5,1.6,1.1,2.5,1.6c5.2,3.1,10.4,6.1,15.5,9.1c0.8,0.5,1.5,1,2.4,1.3c3.3,1.2,3.9,2.3,2.8,5.7
		c-1.3,3.9-2.2,7.9-1.3,12c0.7,3.2,0.7,5.9-2.1,8c-0.3,0.3-0.5,0.8-0.7,1.2c-2,3.4-3.9,6.7-5.9,10.1c-1.3,2.2-1.3,7,0.5,8.7
		c5.9,5.9,11.8,11.8,17.8,17.6c3.8,3.7,7.9,7.2,11.7,11c4,4,8.3,4.6,13,1.5c2.4-1.6,4.9-3.2,7.1-5c2.3-1.8,4.5-3.6,6.4-5.8
		c1.2-1.4,1.9-1.4,3.1-0.3c3.8,3.5,8,6.1,13.4,6.1c2.4,0,4.7-0.2,7.1-0.5c1.6-0.2,2.5,0.4,3.1,1.7c1.1,2.3,2.1,4.5,3.3,6.7
		c1.9,3.4,4.4,6.3,8.3,7.5c2.2,0.7,3.4,2.4,3.3,4.5c-0.3,4.2,1.2,8,2.6,11.8c1.4,3.8,4.5,6.3,8.4,6.6c5.5,0.4,11,0.1,16.5,0.1v0
		c6.5,0,13,0.1,19.5,0c7.2-0.1,11.9-3.4,13.5-10.5c1.5-6.8,3.3-13.7,1.9-20.9c-0.2-0.9,0.5-2.2,1.1-3c2.2-2.3,4.5-4.5,6.9-6.6
		c1.1-1,2.5-2.1,3.8-2.2c4.9-0.3,9.3-1.8,13.3-4.4c2.3-1.4,4.2-1.5,5.9,0c4.5,3.9,8.9,8,13.6,11.6c2.2,1.8,4.9,3.3,7.6,4
		c4.1,1.1,7.1-1.6,10-4.1c5.6-4.8,11.3-9.7,16.7-14.7c4.9-4.4,9.9-8.7,13.1-14.7c0.9-1.7,1.4-3.3,0.4-5c-2.3-4.2-4.6-8.5-6.9-12.6
		c-1.4-2.4-2.7-4.8-4.3-7c-1.8-2.5-1.9-2.6,0.3-4.9c3.2-3.3,5.9-6.8,5.7-11.8c-0.1-1.5,0.5-3.5,1.5-4.4c3.5-2.8,7.3-5.4,11.2-7.8
		c3.5-2.1,7.3-3.7,10.9-5.7c1.7-1,3-0.9,4.1,0.8c0.5,0.8,1,1.6,1.2,2.5c2.3,7,11.2,10.9,18,7.8c4.6-2.1,9.4-3.8,14.1-5.7
		c6-2.4,11.9-4.9,17.8-7.3C454.8,283.5,456.9,277.4,455.6,272.6z M221,175.6c3.4-1.8,6.6-4,10.2-5c6.7-1.9,13.6-3.8,20.8-2.5
		c2.8,0.5,5.6,0.9,8.4,1.3c1,0.2,2,0.4,2.8,0.8c0.5,0.2,1,0.9,1,1.3c0,0.1-0.1,0.2-0.1,0.3c0,0.1-0.1,0.1-0.1,0.2
		c-0.3,0.3-0.7,0.5-1,0.6c-4.4,0.8-8.9,1.5-13.3,2.4c-3.6,0.7-7.1,1.6-10.7,2.3c-2.8,0.6-5.7,1.1-8.5,1.7c0-0.1,0-0.3-0.1-0.4
		c-2.9,0-5.8,0.1-8.7,0c-0.8,0-1.6-0.7-2.4-1C219.9,176.8,220.3,175.9,221,175.6z M104.1,261c-1.5,4-3,8-4.6,12
		c-1.8,4.3-3.7,8.6-5.4,12.9c-1.4,3.4-3.4,5.1-6.1,5.1c-0.2,0-0.5,0-0.7-0.1c-4.2-1.4-8.4-2.7-12.5-4.4c-4-1.6-7.8-3.5-11.6-5.4
		c-2.4-1.2-4.8-2.4-7-3.8c-2.5-1.6-2.7-3.4-1.6-6.2c2-4.7,3.8-9.5,5.6-14.3c3-7.7,6.1-15.3,9.1-23c1.5-4,2.9-8,4.4-12
		c1.8-4.9,3.8-9.7,5.7-14.5c2.2-5.7,4.5-11.4,6.7-17.1c2.2-5.8,4.3-11.6,6.5-17.3c2-5,4.1-10.1,6.3-15c0.8-1.7,1.8-3.5,3.2-4.7
		c0.9-0.8,2.8-1.2,3.9-0.8c3.8,1.3,7.5,2.9,11.2,4.5c4.3,1.9,8.6,3.8,12.9,5.8c2.6,1.2,5.2,2.3,7.5,3.8c0.8,0.5,1.5,2.1,1.4,3.1
		c-0.1,1.8-0.7,3.6-1.4,5.3c-1.7,4.4-3.5,8.8-5.3,13.2c-2,5-4.1,10-6,15.1c-1.7,4.3-3.2,8.6-4.8,12.9c-1.2,3.2-2.4,6.3-3.6,9.4
		c-1.8,4.4-3.6,8.7-5.4,13.1c-1.4,3.3-2.7,6.6-4,10C107.1,252.7,105.6,256.8,104.1,261z M175.8,362.5c-3.3,1.2-6.3,2.9-9.5,4.4
		c-2,0.9-3.9,1.9-5.9,2.9c-1.8-0.8-3.6-1.2-4.8-2.2c-7.2-6.7-14.3-13.5-21.3-20.3c-3.1-3-3.1-3.7-1.3-7.6c0.8-1.7,1.3-3.6,2-5.4
		c1.1-2.7,2.9-3.3,5.5-2.1c3.4,1.5,6.8,2.6,10.6,2.5c3.9-0.1,4.5,0.7,5,4.6c1.3,9.8,9,16.7,19.1,16.8c1.9,0,3.4,0.5,3.6,2.7
		C179,360.8,177.8,361.7,175.8,362.5z M152,302.5C152,302.5,152,302.5,152,302.5L152,302.5c0.1-0.1,0.2-0.2,0.3-0.2
		c1.1-0.9,2.1-1.8,3.3-2.6c0.3-0.2,0.5-0.4,0.8-0.6c0.3-0.3,0.7-0.5,1-0.8c0.1,0,0.1-0.1,0.2-0.1c0,0,0.1-0.1,0.1-0.1
		c0.4-0.3,0.8-0.5,1.1-0.8c1.5-1,3.3-1.4,5.2-2.2c1.6,0.8,3.4,1.1,4.5,2.2c0.5,0.5,0.9,1,1.4,1.5c0.2,0.3,0.4,0.5,0.6,0.8h0
		c0,0,0.1,0.1,0.1,0.2c0.2,0.2,0.3,0.4,0.5,0.7c0.1,0.1,0.1,0.2,0.2,0.3c0.3,0.5,0.7,1,1,1.4c0.2,0.2,0.3,0.5,0.5,0.7
		c0,0,0,0.1,0.1,0.1h0c0.1,0.1,0.2,0.3,0.3,0.4c0.1,0.2,0.2,0.3,0.3,0.5c0.1,0.2,0.2,0.5,0.2,0.7c0,0,0,0.1,0,0.1c0,0.1,0,0.2,0,0.4
		v0c0,0,0,0.1,0,0.1c0,0,0,0.1,0,0.1c0,0,0,0.1,0,0.1c0,0,0,0.1,0,0.1c0,0,0,0.1,0,0.1c0,0.1,0,0.2-0.1,0.3c0,0,0,0.1,0,0.1
		c0,0.1-0.1,0.2-0.1,0.3c-0.2,0.4-0.4,0.8-0.6,1c-5.1,5-10.3,10.1-15.7,14.8c-4,3.5-9.5,3.1-13.7-0.3c-0.1-0.1-0.3-0.3-0.4-0.4
		c0,0,0,0-0.1-0.1c-0.1-0.2-0.3-0.3-0.4-0.5s-0.3-0.4-0.4-0.6c-0.2-0.4-0.4-0.8-0.5-1.2c-0.1-0.2-0.1-0.4-0.2-0.6c0,0,0-0.1,0-0.1
		c0,0,0-0.1,0-0.1c0-0.1,0-0.3-0.1-0.4c0,0,0,0,0,0c0,0,0-0.1,0-0.1v-0.1c0,0,0,0,0-0.1c-0.1-1.9,0.5-3.9,1.8-5.6
		c0.6-0.7,1.2-1.4,1.8-2.1c0.6-0.7,1.2-1.4,1.8-2c0,0,0,0,0,0c0.6-0.7,1.2-1.3,1.9-2c0.5-0.5,0.9-0.9,1.4-1.3
		c0.1-0.1,0.2-0.2,0.3-0.3c0.3-0.3,0.5-0.5,0.8-0.8C151.1,303.2,151.5,302.9,152,302.5z M181.6,342.5c-2.2,1.7-4.6,1.8-7.3,2.3
		c-2.1-0.7-4.5-1-6.3-2.2c-5.5-3.6-3.5-10.4-0.4-13.3c3.1-2.9,5.9-6.2,9.1-9c2.7-2.4,5.8-4.4,8.8-6.6c0.7-0.5,1.6-1,2.3-1.5
		c2.4-1.9,5.4-1.6,7.3,0.8c1.4,1.7,2.8,3.5,3.8,5.4c1.5,2.7,0.9,5.3-1,7.7C193.2,332.3,187.7,337.7,181.6,342.5z M206.4,360.9
		c-2.8,2.1-6.5,2.9-9.7,4.3c-2.9-0.6-4.9-2-6.3-4.1c-1-1.5-1.9-3.2-2.3-5c-0.3-1,0.1-2.6,0.8-3.3c4-4.6,8.2-9.1,12.4-13.5
		c2-2.2,4.2-4.2,6.3-6.3c2.8-2.8,6-3.1,9.1-0.7c2,1.6,3.8,3.3,5.6,5.1c1.5,1.4,1.7,3,0.5,4.8c-2.1,3-3.9,6.2-6.3,8.9
		C213.3,354.5,210.1,358.1,206.4,360.9z M225.2,379.7c-4.5,1-7.1-2.4-9.6-5.7c-1.3-1.7-1.1-4.5,0.2-6c4.1-4.4,8.4-8.7,12.5-13
		c1.8-1.8,3.8-1.9,5.8-0.7c1.6,0.9,3.2,1.8,4.7,2.9c4.5,3.6,4.7,7.5,1,12.9c-2,2.8-4.5,5.2-6.9,7.6
		C231,379.7,228.4,379.9,225.2,379.7z M274.5,385.4c-0.5,2.5-0.7,5-0.8,7.5c-0.3,5.3-2.3,8.9-8.3,9.4c-5.8,0.5-11.6,0.9-17.3,1.4
		c0-0.1,0-0.3,0-0.4c-4,0-8,0-12,0c-4-0.1-7.3-1.8-7.2-6.2c0-0.8-0.4-1.6-0.7-2.4c-1-2.7-0.3-4.7,2.4-5.4c7.5-2,12.2-7.3,16.6-13
		c1.4-1.8,3.4-2,5.3-0.8c1.5,0.9,3.2,1.6,4.8,2.4c0.8,0.4,1.7,0.4,2.4,0.9c3.6,2.1,7.4,2.5,11.5,2.5
		C274.9,381.1,275.3,382,274.5,385.4z M274.2,313.9c4.8,3.9,9.9,7.4,14.8,11.2c3.9,3,7.7,6,11.5,9.1c3.2,2.6,6.4,5.2,9.6,7.8
		c5.2,4.1,5.2,5.6-0.2,9.4c-2.4,1.7-4.8,3.5-7.2,5.3c-2.8,2.1-4.8,1.9-7.4-0.3c-6.7-5.5-13.4-10.9-20.2-16.3
		c-5.2-4-10.5-7.9-15.8-11.7c-4.2-3-7.6-0.3-9.1,3.4c-0.5,1.4,1.4,5.5,3,6.6c3.9,2.6,7.8,5,11.6,7.6c2,1.4,4,2.8,5.9,4.4
		c4,3.2,8,6.4,11.9,9.6c2.1,1.7,2.1,3.4,0.1,5.4c-3.3,3.5-7,6.1-12.3,6.2c-4-0.2-7.3-2-10.2-4.9c-2-2-4.4-3.5-6.9-4.8
		c-1.6-0.8-2.8-1.5-2.8-3.4c-0.1-6.9-5-10.1-10.1-13.1c-1.1-0.6-2.5-0.6-3.8-0.8c-3.2-0.7-4.4-1.8-4.3-5c0.2-8.3-5.2-12.8-11.1-17.1
		c-3.1-2.3-6.4-3-10.1-2.9c-1.6,0-2.8-0.7-2.7-2.4c0.2-5.1-3-8.3-6.2-11.6c-4.3-4.4-9.6-5-15.3-3.7c-3.2,0.7-4,0.1-4.9-3
		c-0.4-1.4-1.2-2.8-2.1-4c-4.4-5.9-9.7-10.2-17.5-10.1c-1.1,0-2.3,0.2-3.3,0.7c-5.7,2.6-10.9,5.7-14.8,10.9c-2,2.7-3.4,2.6-5.9,0.6
		c-2.2-1.7-4.6-3-6.9-4.4c-4.7-2.7-9.4-5.4-14-8.1c-2.3-1.3-4.7-2.5-6.8-4.1c-1-0.7-1.6-2.2-2-3.4c-0.2-0.8,0.1-1.8,0.4-2.7
		c2-5.1,4.2-10.2,6.2-15.3c1.7-4.3,3.1-8.8,4.7-13.2c1.5-4.1,3.3-8.3,4.8-12.4c0.7-1.9,1.3-3.9,2.1-5.8c1.3-3.4,2.6-6.7,4-10
		c1.7-4.2,3.6-8.4,5.3-12.7c1.8-4.5,3.5-9.1,5.2-13.7c0.4-0.9,0.7-1.9,1.2-2.7c2-3.3,2.3-3.2,6-2c2.4,0.8,5.1,0.8,7.7,1.3
		c5.4,0.9,10.7,2.3,16.1,2.7c8.2,0.4,16.4,0.3,24.6,0c5-0.2,9.9-0.9,14.9-1.5c2-0.2,3.9-0.8,5.9-1c0.8-0.1,1.6,0.1,2.4,0.2
		c-0.3,0.7-0.4,1.6-1,2.1c-3.3,3-6.7,5.8-9.9,9c-4.4,4.4-8.7,8.9-12.8,13.5c-3.2,3.6-6.6,7.1-9.3,11.1c-1.9,2.8-3.5,6.2-4.1,9.6
		c-0.7,3.8,1.5,7.4,4,10.1c1.8,2,4.5,3.4,6.7,5c4.7,3.3,10.1,3.1,15.3,1.9c4-1,7.9-2.8,11.6-4.8c4.8-2.6,9.4-5.7,13.9-8.8
		c4.2-2.8,8-6.2,12.3-8.8c3.9-2.4,7.7-5.6,12.7-5.3c2,0.1,4,1.1,5.9,2.1c2.6,1.4,5.1,3,7.5,4.7c4,2.8,8,5.7,11.8,8.6
		c4.1,3.1,8.1,6.3,12,9.5c3.5,2.8,7,5.7,10.5,8.5c3.6,2.9,7.2,5.7,10.8,8.5c7.2,5.8,14.4,11.6,21.6,17.3c4.7,3.8,9.5,7.5,14.1,11.3
		c2.1,1.7,4.1,3.4,6,5.3c2.9,2.9,2.8,5.8-0.1,8.8c-2.2,2.3-4.3,4.8-6.4,7.2c-1.6,1.8-4.3,2-6.4,0.4c-4.7-3.3-9.6-6.5-14.3-9.9
		c-3.5-2.6-6.8-5.4-10.2-8.2c-4.9-3.9-9.7-7.9-14.6-11.9c-2.5-2-4.9-4.1-7.4-6.2c-1.8-1.5-5.5-2.1-7.5-1c-2.3,1.2-3,5.7-1,7.7
		c4.1,3.9,8.4,7.6,12.7,11.3c3.7,3.2,7.6,6.2,11.5,9.1c3.9,3,7.9,5.7,11.8,8.7c3.7,2.8,7.3,5.8,10.9,8.8c1.5,1.2,1.6,2.7,0.2,4.2
		c-2.6,2.7-5.1,5.5-7.7,8.1c-3.9,3.8-7.3,3.6-11.4,0.1c-3.3-2.9-7-5.4-10.5-8.1c-4-3.1-7.8-6.3-11.7-9.6c-4.8-3.9-9.4-8.1-14.3-11.8
		c-1.7-1.3-4.1-2-6.3-2.4c-2.2-0.3-4.7,1.7-5.1,3.6C271.3,309.9,272.3,312.4,274.2,313.9z M364.3,338.7c0.8,1.3,1.2,2.8,1.9,4.7
		c-1,1.6-1.7,3.7-3.1,5c-3.6,3.6-7.4,6.9-11.2,10.3c-4,3.5-8,6.9-12,10.3c-2.4,2.1-4,2.4-6.6,0.6c-2.5-1.7-4.7-3.7-7-5.6
		c-2.3-1.9-4.4-3.9-6.7-5.9c-1.6-1.4-1.5-2.6,0-4.2c3.9-4.2,9.1-6,14.3-7.2c5.5-1.3,8.6-5,11-9.5c1.7-3.2,3.1-6.6,4.9-9.9
		c1.6-3,4.4-3.1,6.4-0.3C359,330.8,361.8,334.7,364.3,338.7z M391.3,277.9c-4.5,2.4-9.1,4.5-13.5,7c-2.4,1.4-4.7,3.1-6.9,4.9
		c-2.1,1.7-3,1.7-5,0.1c-3.8-3.1-7.8-6.1-11.7-9.2c-3.6-2.9-7.2-5.9-10.8-8.8c-4.7-3.9-9.4-7.8-14.2-11.6
		c-7.5-6-15.1-11.9-22.7-17.8c-7.9-6.1-15.8-12.3-23.8-18.4c-3.9-3-7.6-6.5-12-8.7c-5.3-2.7-11-6-17.4-2.5
		c-4.1,2.3-8.2,4.6-12.3,6.9c-2.2,1.3-4.4,2.8-6.5,4.2c-4.8,3.2-9.5,6.7-14.4,9.7c-4.9,3-10,5.6-15.8,6.4c-3.3,0.5-6.4-0.8-8.8-3.1
		c-2-1.9-2-5.8,0.1-8.3c3.3-4.1,6.7-8.2,10.3-12.1c4-4.4,8.1-8.7,12.4-12.9c4-4,8-8.1,12.3-11.7c3.4-2.8,7.1-5,11.9-5.3
		c3.9-0.2,7.8-1.8,11.7-2.2c5.9-0.7,11.9-0.9,17.9-1.4c2.1-0.1,4.1-0.3,6.2-0.4c0-0.1,0-0.2,0-0.3c3.9,0.7,7.9,1.3,11.8,2
		c4.8,0.9,9.6,2.1,14.4,2.9c5.4,1,10.7,2,16.1,2.4c3.8,0.3,7.6-0.5,11.4-1c5-0.6,10-1.4,15-2.3c2.6-0.5,5.2-1.3,7.7-2.1
		c2.9-1,4.6-0.4,5.6,2.4c1.8,5.1,3.5,10.3,5.4,15.3c1.5,4.1,3.4,8,5,12c1.9,4.8,3.5,9.6,5.3,14.4c1.7,4.4,3.4,8.8,5.1,13.3
		c0.3,0.9,0.8,1.7,1,2.5c2.7,7.8,5.4,15.6,8.2,23.4c0.7,1.9,1.7,3.6,2.5,5.4C393.8,275.7,393.5,276.8,391.3,277.9z M443.8,277.9
		c-3.8,1.8-7.5,3.9-11.4,5.3c-4.6,1.8-9.4,3.1-14.2,4.5c-1.3,0.4-2.7,0.6-3.9,1.2c-4.5,2.3-5.6,0.9-7.6-3.3
		c-2.4-4.8-3.7-10.2-5.7-15.2c-1.6-4.1-3.3-8.2-5-12.3c-0.1-0.2-0.2-0.4-0.3-0.6c-2.7-7.7-5.4-15.4-8.2-23.1
		c-1.9-5.2-3.9-10.2-5.8-15.4c-1.6-4.3-3.1-8.6-4.7-12.9c-1.9-5.2-4.2-10.2-5.7-15.4c-1.6-5.3-5-9.9-5.4-15.6c-0.1-1-0.4-2-0.9-2.8
		c-2.6-5-0.9-7.2,4-9.2c8.2-3.2,16.6-5.9,24.9-8.8c0.2,0,0.3-0.1,0.4-0.2c5.5-3,5.9-1.1,8.2,3.7c3.4,7.1,5.8,14.8,8.7,22.2
		c1.7,4.3,3.5,8.5,5.1,12.8c1.8,4.8,3.5,9.6,5.3,14.4c1.7,4.6,3.6,9.1,5.4,13.6c1.7,4.6,3.3,9.2,5,13.8c1.6,4.4,3.3,8.9,4.9,13.3
		c2,5.2,3.9,10.4,5.9,15.6c0.7,1.8,1.7,3.4,2.4,5.2c0.6,1.5,1,3.2,1.4,4.8C446.5,275.7,445.6,277,443.8,277.9z"/>
	<path class="st1" d="M365.3,144.5c-1.4,1.3-5.1,1.3-6.9-0.3c-4.6-4-9.1-8-13.7-11.9c-2.9-2.4-6-4.5-9-6.7c-1.5-1.1-3.1-1.2-4.7,0
		c-5.8,4.6-11.5,9.3-17.3,14c-1.3,1-2.7,2-4.1,3c-2.4,1.6-4.8,1.4-7.4,0.2c-4.5-2.1-9.2-3.8-13.8-5.8c-4.2-1.8-8.3-3.8-12.4-5.9
		c-1.8-0.9-2.8-2.5-3-4.6c-0.8-8.2-1.7-16.3-2.6-24.5c-0.3-2.9-1.3-4-4.1-4.3c-2.3-0.3-4.6-0.2-6.9-0.2c-6.3,0-12.6,0-18.8,0v-0.4
		c-1.9,0-3.8-0.1-5.8,0c-4.1,0.2-6,2.2-6.3,6.3c-0.6,7.5-1.3,15-1.9,22.4c-0.3,3.1-2,4.7-4.8,5.8c-3.8,1.4-7.5,3.2-11.2,4.7
		c-1.8,0.7-3.7,1-5.4,1.9c-2.8,1.4-5.5,3-8.1,4.7c-3.5,2.2-6.3,2.2-9.5-0.3c-2.9-2.3-5.6-4.7-8.4-7.1c-3.9-3.4-7.8-6.8-11.8-10.2
		c-1.5-1.3-3.2-1.2-4.6,0.1c-4.1,3.6-8.2,7.2-12.2,10.8c-2.6,2.4-5.1,4.9-7.7,7.3c-2.1,2-5.2,2.1-6.8,0.4c-1.9-1.9-2.1-5.7-0.2-7.6
		c3.8-3.7,7.6-7.4,11.5-10.9c3.6-3.2,7.5-6.1,11.2-9.1c2.8-2.3,8.9-2.2,11.6,0.1c4.2,3.4,8.6,6.6,12.8,10c1.8,1.4,3.6,2.9,5,4.7
		c2.5,3,6.6,2,9.4,0.5c3.7-2.1,7.6-3.8,11.5-5.7c0.5-0.2,1-0.3,1.5-0.5c6.5-2.2,7-3.2,7.5-9.9c0.6-6.9,1.7-13.8,2.8-20.7
		c0.5-3.1,5.5-7.2,8.7-7.3c12.2-0.1,24.4-0.1,36.6,0c1.7,0,3.5,0.4,5.2,0.9c3.6,1.2,6,3.3,7.3,7.2c2.3,7.3,2.9,14.7,3,22.2
		c0.1,5.4,1.3,6.7,6.3,8.4c4.6,1.6,9,3.7,13.4,5.7c2.6,1.2,4.9,1.3,7-0.6c4.4-3.7,8.5-7.8,13.1-11.2c3.5-2.5,6.6-6.2,11.6-5.8
		c2.3,0.2,4.4,0.7,6.4,2.2c4,3.1,8.4,5.7,12.1,9c4.8,4.2,9.3,8.9,13.7,13.5C366.7,140.8,366.5,143.4,365.3,144.5z"/>
	<path class="st2" d="M141.9,320.4c-0.2-0.4-0.4-0.8-0.5-1.2C141.5,319.6,141.6,320,141.9,320.4z"/>
	<path class="st2" d="M152,302.5c-0.4,0.4-0.8,0.7-1.2,1.1c0.2-0.2,0.3-0.3,0.5-0.5C151.5,302.9,151.7,302.7,152,302.5z"/>
	<path class="st2" d="M157.6,298.1c0,0-0.1,0-0.1,0.1c-0.1,0-0.1,0.1-0.2,0.1C157.4,298.2,157.5,298.2,157.6,298.1
		C157.6,298.1,157.6,298.1,157.6,298.1z"/>
</g>
</svg>
