<?xml version="1.0" encoding="utf-8"?>
<!-- Generator: Adobe Illustrator 24.0.1, SVG Export Plug-In . SVG Version: 6.00 Build 0)  -->
<svg version="1.1" id="Layer_1" xmlns="http://www.w3.org/2000/svg" xmlns:xlink="http://www.w3.org/1999/xlink" x="0px" y="0px"
	 viewBox="0 0 500 500" style="enable-background:new 0 0 500 500;" xml:space="preserve">
<style type="text/css">
	.st0{fill:#6092B6;}
</style>
<path d="M288.8,88.4c-2.4-1.6-5.1-2.9-7.7-4.1c-5.4-2.4-11-4.6-16.5-6.8c-3.5-1.5-7.1-3-10.6-4.5c-3.2-1.4-6.5-2.8-9.7-4.2
	c-4.3-1.9-8.6-4-13-5.8c-4.3-1.8-8.7-3.3-13-5c-0.1-0.1-0.3-0.2-0.4-0.2c-4.4-2-8.8-4-13.2-5.9c-4.3-1.8-8.7-3.4-13-5.1
	c-0.5-0.2-0.8-0.5-1.3-0.8c-4-1.8-8-3.8-12-5.4c-4.4-1.8-8.8-3.4-13.2-5.2c-0.2-0.1-0.4-0.3-0.6-0.4c-4.5-2-9.1-4-13.6-6.1
	c-3.8-1.7-7.7-3.2-11.4-5.2c-5.4-3-11.1-5-17.2-4.9c-2.4,0-4.7,1.3-7.1,1.8c-6.4,1.1-10.3,5.6-13,10.8c-3.5,6.8-6.6,13.8-8.7,21.3
	c-1.1,4-2.9,7.8-4.3,11.7c-0.1,0.3-0.3,0.6-0.5,0.9c-0.8,2-1.7,4.1-2.4,6.1c-0.8,2.2-1.3,4.4-2.1,6.6c-1.5,4-1.9,8.1-0.2,12
	c2.4,5.8,6.4,10.4,11.3,14.3c3.2,2.6,3.2,3.7,1.1,7.3c-2.4,4.2-4.5,8.5-6.8,12.8c-1.7,3.2-3.3,6.4-5,9.6c-1.9,3.7-3.8,7.4-5.7,11.2
	c-1.7,3.4-3.2,7-5,10.4c-1.9,3.9-4.1,7.7-6,11.5c-3.1,6.4-6,12.9-9.2,19.3c-2.6,5.2-5.5,10.2-7,15.9c-0.2,0.7-0.5,1.4-0.8,2
	c-1.4,2.9-1.4,5.9-0.4,8.9c0.5,1.4,1,2.8,1.5,4.2c2.3,6,6.8,9.9,12.2,13.1c3.2,1.8,6.5,3.4,9.8,4.9c4,1.9,7.9,3.9,12,5.6
	c4.3,1.8,8.6,3.4,12.9,5.1c0.1,0,0.1,0.1,0.2,0.1c3.4,1.8,6.8,3.6,10.2,5.3c1,0.5,2.2,0.6,3.3,0.7c4.2,0.4,7.9-0.5,11.7-2.7
	c3.8-2.3,6.1-5.4,7.8-9.1c1.1-2.4,2.5-3.1,4.7-1.5c1,0.7,2,1.6,3.1,1.8c3,0.6,6,1,9,1.4c5-0.2,6.4-0.7,10.4-3.7
	c5.8-4.3,8.6-12.7,6.6-19.6c-0.7-2.5-0.3-3.4,2.3-4c1.3-0.3,2.7-0.4,3.8-1c6.9-4,9.3-10.8,7-18.6c-1-3.5-0.3-5.9,2.9-6.8
	c0.6-0.2,1.1-0.8,1.6-1.1c3.5-2.4,5.8-5.7,7.9-9.2c2.8-4.6,2.8-11-0.6-15.2c-1.7-2.1-2.6-4.3-1.4-7c1.4-3.2,2.5-6.6,3.9-9.8
	c0.2-0.5,1.4-0.9,2-0.7c2.8,1,5.6,2.2,8.4,3.3c2,0.8,4.1,1.7,6.1,2.5c2,0.8,3.9,1.6,5.9,2.4c1.1,0.4,2.1,0.9,3.2,1.3
	c5,1.8,10,3.6,14.9,5.4c0.2,0.1,0.4,0.3,0.6,0.4c3.7,1.7,7.3,3.5,11.1,5.1c2.7,1.1,5.4,1.9,8.2,2.8c2.8,1,5.7,1.7,8.7,0.5
	c4.5-1.9,7.6-5.6,9.7-9.8c1.9-3.8,3-8.1,4.5-12.2c0.2-0.5,0.4-1.1,0.6-1.6c2.2-5.7,4.3-11.5,6.5-17.2c0.4-1.1,0.8-2.1,1.2-3.2
	c2.4-6.4,4.9-12.8,7.3-19.3c0.4-0.9,0.5-1.9,0.9-2.8C295.5,98.4,295.2,92.8,288.8,88.4z M155.3,223.8c-0.2,0.6-0.2,1.3-0.4,1.9
	c-1.2,4.3-5.3,6.1-9.2,4.1c-0.2-0.1-0.4-0.3-0.7-0.3c-5-0.7-9-3.8-13.4-5.8c-4.3-2-8.3-4.6-12.1-7.4c-1.1-0.8-1.3-3.2-1.3-4.9
	c0-3.3,4.3-7.5,7.7-7.5c0.8,0.3,2.2,0.7,3.6,1.3c4.6,2,9.2,4.1,13.8,6.2c1.3,0.6,2.6,1.3,4,2c1,0.5,2,1.2,3.1,1.4
	C155.1,216.1,156.7,219,155.3,223.8z M169.8,196.6c-0.3,1.6-0.4,3.3-0.9,4.8c-1.1,3.3-2.9,4.4-6.7,4.3c-0.3,0-1,0-1.6-0.3
	c-5.1-2-10.3-4.1-15.4-6.2c-0.5-0.2-1.1-0.5-1.6-0.7c-3.5-1.6-7-3-10.4-4.9c-3.3-1.8-5.2-7.1-4.1-10.6c0.1-0.4,0.4-1.1,0.8-1.2
	c2.7-0.9,5.5-2.4,8.2-2.4c2.9,0,5.9,1.4,8.7,2.5c4.3,1.8,8.5,3.8,12.6,5.8c2.7,1.3,5.4,2.8,8,4.2C169.4,193,170.2,194.5,169.8,196.6
	z M182.1,171.4c-1,3.8-2.9,7.3-6,9.9c-0.7,0.6-2.4,0.2-3.5-0.1c-1.4-0.4-2.7-1.2-4-1.8c-1.8-0.8-3.7-1.7-5.6-2.5
	c-4-1.7-8.2-3.3-12.1-5.2c-2.9-1.4-5.8-3.1-8.3-5.1c-1-0.8-1.2-3-1.2-4.6c0-2.8,0-5.9,3.2-7.4c0.6-0.3,1.3-0.6,2.2-0.9
	c3,1,6,1.9,9.1,2.9c1.9,0.7,3.8,1.5,5.7,2.2c1.1,0.4,2.3,0.8,3.5,1.2c2.2,0.8,4.4,1.6,6.6,2.6c3,1.4,6,2.6,8.7,4.5
	C181.4,167.9,182.5,170.2,182.1,171.4z M241.4,137c-1.2,3-2.1,6.2-3.2,9.3c-1.3,3.6-2.5,4.1-5.9,2.6c-4.7-2-9.3-4.3-14.1-6.3
	c-4.2-1.8-8.6-3.2-12.8-5c-4.3-1.8-8.5-3.8-12.7-5.8c-0.5-0.2-0.8-0.5-1.3-0.7c-4-1.6-8-3.2-12.1-4.8c-4.2-1.7-8.3-3.4-12.5-5
	c-2.7-1-5.4-1.9-8.2-2.5c-2-0.4-4.3-0.5-5.3,2c-1,2.3,0.2,6,2.3,7.2c1.8,1,3.5,2.1,5.4,2.9c4.5,1.8,9,3.3,13.5,5.2
	c2.7,1.1,5.3,2.5,7.7,4.1c0.5,0.4,0.4,2.2,0.1,3.2c-0.5,1.8-1.8,3.4-2,5.2c-0.5,5-3.1,5.6-7.7,3.5c-2.5-1.1-5-2.2-7.6-3.3
	c-4.2-1.8-8.4-3.7-12.7-5.3c-2.1-0.7-4.7-1.4-6.6-0.8c-4.2,1.4-8.4,3.1-11.4,6.9c-2.3,2.9-3.4,5.9-3.5,9.5c0.3,1.8,0.5,3.6,0.8,5.4
	c0.5,3.2-0.7,5.5-3.7,6.6c-7.2,2.8-10.7,9.5-8.9,16.8c0.3,1.3,0.8,2.5,1.1,3.8c0.7,2.7-0.1,4.4-2.5,5.7c-4.5,2.5-7.6,6.2-9.2,11
	c-0.4,1-0.7,2-1,3.1c-1.2,3.7,0.3,7.7,3,10.5c3.3,3.4,7.8,4.8,11.4,7.5c1,0.8,2,2.3,2,3.5c-0.2,4.5-6.2,8.6-10.5,7.4
	c-6.2-1.6-11.9-4.6-17.5-7.6c-3.9-2-8.1-3.4-12.2-5.1c-0.2-0.1-0.5-0.1-0.7-0.2c-6.9-3.6-14.4-6.2-19.3-12.5c-1.3-1.6-1.9-4-2-6.1
	c-0.1-3.9,1.2-7.5,3.2-11c2-3.5,3.3-7.5,5.1-11.1c1.8-3.8,3.9-7.4,5.8-11.1c0.5-0.9,0.9-1.9,1.3-2.9c0.3-0.7,0.3-1.5,0.7-2.1
	c2-3.8,4-7.4,5.9-11.2c1.7-3.3,3.2-6.8,4.8-10.2c0.5-1.1,1.2-2.1,1.8-3.2c0.6-1.2,1.3-2.4,1.9-3.7c0.3-0.7,0.4-1.4,0.8-2.1
	c1.9-3.5,4-6.9,5.9-10.5c1.8-3.3,3.3-6.8,5-10.1c1.9-3.7,3.8-7.4,6-10.9c3-4.6,1.3-10.1-4.1-11.9c-4.5-1.5-7.1-5-9.8-8.6
	c-0.6-0.8-1.1-2.1-0.9-3c0.8-4.6,1.7-9.1,2.8-13.7c0.5-2,1.4-3.9,2.2-5.8c2-4.9,4-9.8,6-14.8c0.2-0.4,0.4-0.7,0.5-1.1
	c1.6-4.4,2.8-8.9,4.9-13c1.9-3.6,4.6-7,9.4-6.9c4.7,0.1,9.4,0.3,13.5,3.2c0.3,0.2,0.7,0.4,1.1,0.6c5.2,2.4,10.4,4.8,15.6,7.1
	c4.3,1.8,8.7,3.3,13,5.1c4.1,1.7,8,3.6,12,5.4c0.8,0.4,1.6,0.8,2.5,1.2c4.4,1.7,8.9,3.3,13.3,5.2c4,1.7,7.8,3.7,11.8,5.4
	c4.4,1.9,9,3.4,13.4,5.3c4.6,1.9,9.1,4,13.7,6c0.9,0.4,1.8,0.7,2.7,1.1c2,0.9,4,1.8,6,2.7c0.3,0.1,0.5,0.4,0.8,0.5
	c4,1.6,8,3.2,12,4.9c2.2,1,4.4,2.3,6.4,3.7c0.7,0.5,1.1,1.9,0.9,2.7c-0.4,1.7-1.3,3.4-2,5c-0.8,1.8-1.5,3.6-2.2,5.4
	c-1.9,5-3.7,10-5.5,15c-0.6,1.8-1.3,3.5-1.9,5.3C245.7,126.4,243.5,131.7,241.4,137z M282.2,98.7c-0.5,2.6-1.1,5.3-1.9,7.9
	c-0.8,2.7-1.8,5.3-2.8,7.9c-2,5.1-4,10.2-6,15.3c-0.2,0.6-0.4,1.2-0.7,1.8c-2.3,5.7-4.7,11.4-7,17.2c-0.5,1.2-0.8,2.5-1.3,3.7
	c-1.3,3.4-3.6,4.8-7.5,4.8c-0.2,0-0.7,0-1.2-0.1c-5.9-0.7-6.8-2.5-4.8-8c1.7-4.8,3-9.7,4.7-14.4c1.6-4.7,3.5-9.3,5.3-13.9
	c0.7-1.8,1.3-3.7,2-5.5c0.8-2.1,1.8-4.2,2.6-6.4c1.8-4.7,3.5-9.3,5.2-14c1.1-3,3.3-3.8,6.1-2.2c1.5,0.9,3,1.6,4.6,2.2
	C281.4,95.7,282.5,96.9,282.2,98.7z"/>
<path class="st0" d="M444.4,444.7c-5.3-5.8-10.8-11.5-16.3-17.3c-2.3-2.5-4.5-5-6.8-7.5c-4.7-4.8-9.4-9.6-14.1-14.4
	c-3.9-4.1-7.2-8.9-13.9-8.7c-1.6,0-2.3-1.3-1.7-2.8c0.6-1.5,1.4-3,2-4.5c2-5.5,4.8-10.9,5.8-16.6c1.3-7.8,2.5-15.8,1.4-23.8
	c-0.6-4.2-0.6-8.7-2.1-12.6c-2.8-7.2-6.3-14.2-9.9-21.1c-4.1-7.8-10.1-14.2-17.1-19.5c-4.6-3.5-9.4-6.9-15-8.8
	c-5.4-1.8-10.6-4.6-16.2-5.8c-7.9-1.8-16.1-2.9-24.2-1.9c-4.4,0.5-8.9,1.2-13,2.5c-5.1,1.7-10,4-14.8,6.4c-3.3,1.6-6.6,3.5-9.3,5.9
	c-4.8,4.2-9.3,8.9-13.7,13.5c-8.3,8.6-13.3,19.1-16.5,30.4c-1.5,5.5-1.8,27-0.9,31.8c0.7,3.9,2.1,7.7,3.6,11.5
	c1.5,4,2.9,8.1,5.1,11.6c3.3,5.3,7,10.3,11,15.1c5.6,6.9,12.5,12.3,20.4,16.4c7.5,3.9,15.8,5.5,23.9,7.6c7.5,1.9,15.2,1.8,22.8,0.5
	c5.7-0.9,11.2-2.8,16.8-3.6c5.2-0.8,9.4-3.3,13.5-6.1c1.7-1.2,2.4-0.8,3.3,1.1c1,2.3,2.1,4.7,3.7,6.5c6.5,7.2,13.1,14.3,19.8,21.4
	c6.8,7.3,13.6,14.5,20.5,21.7c3.5,3.6,7.4,6.5,12.6,7.2c5.7,0.7,10.8-1.3,15-4.6c3.5-2.7,6.8-6.4,8.5-10.3
	C451.8,458.3,450,450.9,444.4,444.7z M372.6,404.4c-2.4,2.1-4.8,4.3-7.4,6.1c-3.2,2.2-6.7,3.9-10.1,5.8c-1.5,0.8-3,1.9-4.6,2.4
	c-12.2,3.9-24.7,6.8-37.5,4.1c-5.8-1.2-11.7-3-17.2-5.8c-8.4-4.3-15.5-10.2-21.9-16.9c-6.4-6.9-11-15-13.6-24.2
	c-2-7.1-3.5-14.2-3.2-21.6c0.2-5.2,0.7-10.4,2.5-15.5c1.5-4.6,3.1-9.2,5.4-13.4c2.5-4.4,5.5-8.5,8.7-12.5c4.5-5.7,10.1-10.1,16.1-14
	c4.6-3,9.7-5,15-6.7c6.1-2,12.4-2.5,18.7-2.6c6.5-0.1,12.8,0.5,18.9,3c4.5,1.9,9.5,2.9,13.6,5.4c5.3,3.2,10.4,7,14.7,11.3
	c4.5,4.5,8.3,9.7,11.8,15.1c2.4,3.7,3.4,8.3,5.2,12.4c3,6.6,3.4,13.5,3.1,20.5c-0.2,6-0.5,12-2.6,18c-1.7,4.9-2.9,10.1-5.2,14.8
	C380.4,395.5,377.2,400.5,372.6,404.4z M433,468.8c-1.7,1.1-4.1,2.3-5.8,1.8c-2.7-0.7-5.5-2.4-7.5-4.3c-3.9-3.6-7.2-7.8-10.9-11.7
	c-8.7-9.2-17.5-18.2-26.3-27.4c-1.6-1.7-3.1-3.4-4.5-5.2c-1.8-2.3-1.5-3.5,0.7-5.4c3.2-2.7,6.4-5.4,9.4-8.3c2.8-2.6,5.1-2.9,7.9-0.2
	c5.2,5,10.3,10.2,15.3,15.4c6.2,6.4,12.3,12.8,18.3,19.3c3.1,3.3,6,6.7,8.8,10.3c1,1.3,1.3,3.3,1.9,5
	C440,463.4,436.8,466.4,433,468.8z"/>
<path class="st0" d="M298.6,211.2c-31.9,0-63.7,0-95.6,0c-4.8,0-9.5,0-14.3,0c-2.1,0-4-0.4-4.3-3.1c-0.3-3.2,1-6,3.5-6.5
	c1.3-0.3,2.8-0.4,4.2-0.4c29.4,0,58.8,0.1,88.2,0c38-0.1,76.1-0.3,114.1-0.4c2.5,0,5.1,0.1,7.6,0.4c9.1,1.1,15.1,6.5,19.8,13.9
	c3.3,5.2,4.4,10.7,4.3,16.8c-0.2,56.9-0.1,113.8-0.2,170.7c0,0.7,0,1.5-0.1,2.2c-0.2,2.8-1.3,4.2-3.4,4.4c-2.6,0.3-4.9-1.1-5.5-3.6
	c-0.5-2.6-0.9-5.2-0.9-7.8c-0.1-22.1-0.1-44.1-0.1-66.2c0-14.2-0.3-28.5-0.3-42.7c0-12.6,0.2-25.2,0.3-37.8c0-7,0.3-14-0.1-21
	c-0.3-7-3-12.7-9.6-16.4c-3.6-2.1-7.1-2.7-11-2.7c-32.3,0-64.6,0-96.8,0C298.6,211.1,298.6,211.2,298.6,211.2z"/>
<path class="st0" d="M208.2,439.5c-25,0-50.1,0.1-75.1-0.1c-11-0.1-19.5-5-25.2-14.5c-2.9-4.9-4.1-10.1-4.1-15.7
	c0-46.5,0-93,0-139.6c0-2.3,0-4.6,0-6.9c0-1.8,0.5-3.5,2.4-4.2c2-0.8,4.2-0.6,5.5,1.1c1.2,1.5,2.4,3.6,2.4,5.4
	c0.1,17.3,0,34.6,0,51.9c0,14,0.1,28,0.2,41.9c0.1,17.4,0.4,34.7,0.4,52.1c0,7.4,6.9,17.5,17.1,17.3c16.2-0.3,32.4,0.3,48.6,0.3
	c26.8,0.1,53.5,0.1,80.3,0.1c5.7,0,11.4-0.4,17,0c3.7,0.3,7.4,1.6,11,2.6c1.9,0.5,2.9,1.9,2.7,3.9c-0.2,2.1-1.2,3.6-3.3,4.1
	c-1,0.2-2.1,0.2-3.2,0.2C259.4,439.5,233.8,439.5,208.2,439.5C208.2,439.5,208.2,439.5,208.2,439.5z"/>
<path class="st0" d="M218,234.4c-13.4,0-26.8,0-40.3,0c-0.7,0-1.3,0-2,0c-4-0.1-5.1-0.9-5.2-3.7c-0.2-3.9,1.8-6.5,5.4-6.6
	c4.8-0.2,9.5-0.1,14.3-0.1c16,0,31.9,0.1,47.9,0.1c48.5,0,97,0,145.5,0c1,0,2,0,3,0c5.8,0.1,8.9,3.2,8.9,9.1c0,16.5,0,32.9,0,49.4
	c0,5.7,0.3,11.5,0.4,17.2c0,1.1,0,2.3-0.1,3.4c-0.4,2.7-2,4.4-4.4,4.6c-2.7,0.2-4-1.6-4.5-3.8c-1-4.2-2.1-8.4-2.2-12.6
	c-0.3-15.3-0.1-30.6-0.1-45.9c0-2.5,0.4-4.9,0.4-7.4c0-2.6-1-3.8-3.5-3.8c-9,0-17.9,0.1-26.9,0.2c-1.6,0-3.1,0.2-4.7,0.2
	c-27.6,0-55.2,0-82.7,0c-16.4,0-32.8,0-49.1,0C218,234.7,218,234.6,218,234.4z"/>
<path class="st0" d="M144.8,327.4c0,20.9,0,41.8,0,62.7c0,2.6,0.7,3.3,3.4,3.4c4.9,0,9.7,0,14.6,0c8.8,0,17.6,0,26.4,0
	c17.8,0,35.5,0,53.3,0c4.9,0,7.2,1.6,9.1,6c1.5,3.5,0,5.8-3.6,5.8c-23.5-0.1-47.1-0.3-70.6-0.5c-8-0.1-15.9,0-23.9,0
	c-4.3,0-8.6,0.1-12.8-0.5c-4.2-0.5-5.2-1.9-5.9-6.1c-0.2-1.5-0.3-3.1-0.3-4.7c0-16.5,0-33.1,0.1-49.6c0-7.2,0.4-14.3,0.4-21.5
	c-0.1-20.7-0.3-41.3-0.5-62c0-2.5,0.2-5.1,0.6-7.6c0.4-2.7,2-3.7,4.7-3.6c2.9,0.1,4.4,1.3,4.6,4.1c0.3,4.6,0.5,9.2,0.5,13.8
	C144.8,287.3,144.8,307.3,144.8,327.4C144.8,327.4,144.8,327.4,144.8,327.4z"/>
<path class="st0" d="M335.4,125.4c-1,9.7-2.3,18.5-6,27c-4.8,11-12,20.1-21.3,27.5c-2.5,2-5.4,3.6-8.3,5.2c-3.8,2.1-7.7,4-11.5,5.9
	c-2.6,1.3-4.8,0.9-6.3-1.3c-1.8-2.7-1.7-5.6,0.7-7.3c1.9-1.3,4.1-2.2,6.2-3.3c3.6-1.9,7.5-3.4,10.8-5.7c3.7-2.6,7.4-5.5,10.4-8.9
	c4.2-4.6,7.2-10,9.9-15.7c3.5-7.3,3.9-14.8,3.9-22.4c0-6.9,0.1-14-3.5-20.4c-1-1.8-1.5-4-2-6.1c-1-3.7-0.2-6.2,2.4-7.1
	c2.6-0.9,5.8,1.1,7.1,4.3c2.6,6.2,5,12.5,6.2,19.2C334.5,119.6,335,122.8,335.4,125.4z"/>
<path class="st0" d="M269,292.7c-1.6-0.9-3.5-1.5-4.8-2.6c-3.6-3.1-6.9-6.5-10.4-9.8c-1.1-1.1-2.2-2.2-3.2-3.4
	c-2.8-3.2-6.1-3.2-9.2-0.5c-8.2,7.2-16.5,14.4-24.7,21.6c-4.6,4.1-9.2,8.3-13.7,12.4c-3.5,3.1-6.9,6.3-10.4,9.4
	c-2.1,1.9-5.6,2-7.2,0.3c-1.8-1.9-1.9-5.7,0.2-7.7c4.8-4.5,9.6-9,14.5-13.3c8.1-7.2,16.3-14.3,24.5-21.4c4.8-4.1,9.6-8.2,14.5-12.2
	c0.8-0.6,1.5-1.3,2.2-2c2.6-2.9,6.8-3.2,9.6-0.4c4.9,4.8,9.8,9.8,14.7,14.6c2.2,2.1,4.6,3.9,6.9,5.9c1.6,1.4,3.7,2.5,2.8,5.2
	C274.7,290.6,271.6,292.2,269,292.7z"/>
<path class="st0" d="M226.4,341.8c0-11,0-22.1,0-33.1c0-4.9,1.4-6.5,6.4-6.7c4.1-0.1,8.2-0.1,12.3,0c2.4,0,4.8-0.1,7.2,0.1
	c3.4,0.3,5.2,2.1,5.1,4.8c-0.1,3.7-2,5.9-5.5,5.8c-3.3-0.1-6.5-0.7-9.8-0.8c-4.1-0.2-4.9,0.8-4.4,4.9c0.2,1.5,0.2,3,0.2,4.4
	c0,14.5,0,29,0.1,43.5c0,2.3,0,4.6,0.5,6.9c0.2,1.2,1.2,2.5,2.2,3.3c2.2,1.7,2.5,3.8,1.9,6.2c-0.2,0.8-1,1.7-1.8,2.1
	c-3.3,1.5-10.1,0.2-12.3-2.5c-1.1-1.4-1.9-3.3-1.9-5.1C226.2,364.4,226.3,353.1,226.4,341.8C226.3,341.8,226.3,341.8,226.4,341.8z"
	/>
<path class="st0" d="M300.2,127.7c-0.9-3.5-1.8-6.7-2.6-9.9c-0.4-1.7-0.9-3.5-1-5.3c-0.1-2.7,1.5-4,4.1-3.5c2.5,0.4,4.8,1.8,5.7,4.2
	c2.1,5.6,4.1,11.5,2.5,17.6c-1.3,4.9-2.5,9.9-5.1,14.5c-3.6,6.5-8.9,11.4-14,16.4c-0.9,0.9-2.4,1.4-3.7,1.8
	c-2.3,0.7-4.1-0.2-5.2-2.2c-1.1-2-0.2-3.6,1.3-5c2.7-2.5,5.5-4.9,8-7.6c3.2-3.3,5.9-7,7.2-11.6C298.2,133.9,299.2,130.8,300.2,127.7
	z"/>
<path class="st0" d="M347.5,252.6c-0.1,3.6-2.9,5.6-5.2,7.7c-4,3.6-8.3,7-12.8,10c-2.7,1.8-5.9,2.9-9,3.9c-1.8,0.6-3.9,0.3-4.9-1.7
	c-1-1.9,0-4.8,1.8-6.2c4.1-3.2,8.2-6.5,12.2-9.9c3.2-2.7,6.2-5.5,9.3-8.3c2-1.8,4.2-1.4,6.2-0.5
	C347.3,248.4,347.5,250.5,347.5,252.6z"/>
<path class="st0" d="M440.3,458.1c-0.2,5.2-3.5,8.3-7.3,10.7c-1.7,1.1-4.1,2.3-5.8,1.9c-2.7-0.7-5.4-2.4-7.5-4.3
	c-3.9-3.6-7.2-7.8-10.9-11.7c-8.7-9.2-17.5-18.2-26.3-27.4c-1.6-1.7-3.1-3.4-4.5-5.2c-1.8-2.3-1.5-3.5,0.7-5.4
	c3.2-2.7,6.4-5.4,9.4-8.3c2.8-2.6,5.1-2.9,7.9-0.2c5.2,5,10.3,10.2,15.3,15.4c6.2,6.4,12.3,12.8,18.4,19.3c3.1,3.3,6,6.7,8.8,10.3
	C439.4,454.5,439.7,456.5,440.3,458.1z"/>
<path d="M194.6,85.8c-2,1.1-4.1,1-6.1,0c-1.6-0.8-3.3-1.5-4.9-2.2c-5-2.1-10-4.3-15-6.4c-0.5-0.2-1-0.5-1.6-0.7
	c-3.5-1.4-6.9-2.9-10.4-4.3c-2.3-0.9-2.6-2.8-2.4-4.5c0.1-4.5,3.5-6.9,7.8-5.5c2.4,0.8,4.6,2.1,6.9,3.1c0.2,0.1,0.3,0.2,0.4,0.3
	c4,1.6,8,3.2,12.1,4.7c0.8,0.3,1.6,0.5,2.3,0.8c3,1.2,5.9,2.4,8.9,3.6c2.8,1.1,4.7,3.3,4.8,5.6C197.4,82.7,196.6,84.6,194.6,85.8z"
	/>
<path class="st0" d="M374.3,338.8c-2.5-6.3-5.8-11.9-10-17.1c-5.8-7.3-13.4-12-22-15.5c-7.2-3-14.5-3.5-22-3.4
	c-4.2,0.1-8.6,0.6-12.6,1.9c-4.1,1.4-8.1,3.6-11.7,6.1c-4,2.8-8,5.9-11.3,9.4c-3.1,3.3-5.7,7.2-7.8,11.3c-2.3,4.6-4.2,9.6-5.5,14.6
	c-2.3,9.4-0.9,17.3-0.2,20.4c2.3,9.9,6.6,18.8,13.2,26.6c6.4,7.6,14.5,12.6,23.5,16.1c6.5,2.5,13.6,3.4,20.7,2.5
	c4.5-0.6,9-1.3,13.2-2.8c6.1-2.1,11.7-5.4,16.7-9.7c4.5-3.8,8.7-8.1,11.5-13.4c1.8-3.4,3.3-6.9,4.8-10.4c0.9-2.2,2-4.4,2.2-6.7
	C378,358.5,378.3,348.6,374.3,338.8z M366.7,367.1c-2.1,9.7-7,16.2-9,18.6c-2,2.4-6.4,7.2-13.2,10.7c-10.1,5.3-25.3,7.7-39.3,0.6
	c-1.1-0.5-18.1-9.4-22.4-28.8c-5.4-24,11.9-49.3,30.5-54.1c3.4-0.9,11.3-2.2,20.6,0.1c6.5,1.6,11.2,4.3,13.5,5.8
	c1.3,0.8,6.2,4.1,10.5,9.5C365.1,338.7,369.8,352.8,366.7,367.1z"/>
<path class="st0" d="M124.9,331.7L124.9,331.7c-4.9,0-8.8-4-8.8-8.8v0c0-4.9,4-8.8,8.8-8.8h0c4.9,0,8.8,4,8.8,8.8v0
	C133.8,327.8,129.8,331.7,124.9,331.7z"/>
<path class="st0" d="M205.1,377.8h-12.7c-3.6,0-6.6-3-6.6-6.6v-29.3c0-3.6,3-6.6,6.6-6.6h12.7c3.6,0,6.6,3,6.6,6.6v29.3
	C211.7,374.8,208.7,377.8,205.1,377.8z"/>
<path class="st0" d="M261,423.2h-2.2c-3,0-5.4-2.4-5.4-5.4l0,0c0-3,2.4-5.4,5.4-5.4h2.2c3,0,5.4,2.4,5.4,5.4l0,0
	C266.4,420.8,264,423.2,261,423.2z"/>
</svg>
