<?xml version="1.0" encoding="utf-8"?>
<!-- Generator: Adobe Illustrator 24.0.1, SVG Export Plug-In . SVG Version: 6.00 Build 0)  -->
<svg version="1.1" id="Layer_1" xmlns="http://www.w3.org/2000/svg" xmlns:xlink="http://www.w3.org/1999/xlink" x="0px" y="0px"
	 viewBox="0 0 500 500" style="enable-background:new 0 0 500 500;" xml:space="preserve">
<g>
	<polygon points="269,181.6 254.8,181.6 254.8,139.6 225.6,139.6 225.6,180.8 211.4,180.8 239.9,210 	"/>
	<path d="M367.5,212.5c-1.3-0.5-2.6-1-3.8-1.6c-4.4-2.1-8.7-4.4-13.1-6.5c-7.5-3.6-10.7-9-10.5-16.8c0.3-10.6,0.3-21.2,0.6-31.8
		c0.1-5.6,0.5-11.2,1-16.8c0.5-5.7-2.1-11.2-7.2-13.9c-7.9-4.2-15.8-8.4-23.8-12.2c-9.9-4.7-19.9-9-29.9-13.5
		c-1.6-0.7-3.1-1.8-4.7-2.3c-9.2-3-18.4-6.1-27.6-8.9c-7.7-2.4-15.3-1.7-22.7,1.6c-4.8,2.1-9.6,4.3-14.4,6.4
		c-1.9,0.8-3.9,1.2-5.7,2.1c-7,3.6-14,7.4-21,11.2c-5.8,3.1-11.7,6.2-17.6,9.3c-4.3,2.3-8.7,4.3-12.9,6.7c-3.8,2.2-7.5,4.6-11.2,7.1
		c-2.2,1.5-3,3.9-3,6.5c0,8.1-0.1,16.2,0.1,24.3c0.1,6.5,0.7,12.9,0.9,19.3c0.1,4.5,1.5,9.4-1.9,13c-2.7,2.9-5.8,5.8-9.3,7.2
		c-5.7,2.2-9.9,6.3-14.8,9.6c-3.5,2.4-3.6,6.5-0.6,9.6c1.7,1.7,3.8,3.3,6,4.4c3.8,1.9,6,4.7,6.2,8.8c0.3,4,0.1,8.1,0.1,12.1
		c0.2,28.8,0.4,57.6,0.7,86.4c0,2.6,0.3,5.5,1.3,7.9c1.1,2.5,2.8,5.3,5,6.6c6,3.5,12.4,6.5,18.7,9.4c8.6,3.9,17.3,7.6,26.1,11.3
		c8.6,3.6,17.3,6.9,25.9,10.4c9.1,3.7,18.2,7.6,27.3,11.4c5.8,2.4,11.6,2.7,17.4-0.1c7.7-3.7,15.4-7.5,23.2-11
		c5.2-2.3,10.8-3.8,16.1-5.9c4.9-2,10.1-3.7,13.5-8.3c1.6-2.1,2.9-4.4,1.5-7.1c-1.4-2.7-4-3.4-6.6-2.9c-5.7,1-11.5,1.6-16.8,4.4
		c-3.5,1.9-7.2,3.3-10.7,5.1c-2.7,1.4-5.3,2.9-7.9,4.4c-1.1,0.6-2.3,1.3-3.5,1.7c-5.4,1.6-9.2-1.2-9.3-6.8c0-17.5,0-34.9,0-52.4
		c-0.1,0-0.1,0-0.2,0c-0.3-9.1-0.5-18.3-0.9-27.4c-0.1-2.9,0.5-5.4,3-7.1c2.7-1.9,5.5-3.8,8.5-5.1c8.4-3.9,17.1-7.4,25.5-11.2
		c10.1-4.6,20-9.3,30-14c2.2-1.1,4.4-2.3,6.7-3.3c2.7-1.3,5.4-2.7,8.3-3.7c5.3-1.7,8.2,0.4,8.4,6c0,1.2,0,2.4,0,3.6
		c0,6.5,0.1,12.9,0.1,19.4c0,7.8-0.1,15.5,0.1,23.2c0.1,4.3,0.1,8.7,1,12.9c0.8,3.8,3.7,4.9,7.5,3.7c4.7-1.5,7.5-5.8,7.2-10.9
		c-0.2-2.8-0.3-5.5-0.4-8.3c-0.4-16.7-0.7-33.4-1.1-50.1c-0.1-5.4,2.9-9.9,7-10.6c2.8-0.5,5.6-1.3,8.2-2.2c3.9-1.3,5.2-3.3,5.2-6.9
		C372.9,216.3,371.2,213.9,367.5,212.5z M233.6,370.4c-1.3,4.6-5.3,6.3-9.5,4.1c-3.6-1.8-7.1-3.9-10.8-5.7c-4-1.9-8-3.7-12-5.5
		c-8.5-3.9-17.1-7.8-25.6-11.7c-2.3-1-4.7-1.6-7-2.6c-6.3-2.8-12.5-5.7-18.7-8.8c-4.7-2.3-7.2-6.2-7.2-11.5c0-3.7,0-7.4,0-11.1h-0.6
		c0-15.7,0-31.4,0-47.1c0-7.1-0.4-14.2-0.4-21.3c0-2.9,0.3-5.9,0.6-8.8c0.3-3.1,2.4-4.7,5.6-4.2c0.6,0.1,1.3,0.3,1.8,0.6
		c6.3,3.2,12.6,6.4,19,9.5c2.9,1.4,6.1,2.2,9,3.6c7.1,3.5,14.1,7.2,21.2,10.7c7.8,3.8,15.6,7.4,23.4,11.1c2.2,1.1,4.4,2.3,6.4,3.7
		c3.3,2.4,4.6,5.5,4.6,9.8c0,16.5,0.2,33.1,0.5,49.6c0.2,9.4,0.7,18.8,0.9,28.2C234.8,365.5,234.3,368,233.6,370.4z M339.4,219
		c-1.7,1.1-3.7,1.8-5.6,2.4c-9.2,3.3-18.1,7.2-26.8,11.7c-6.3,3.3-13,6.1-19.4,9.3c-3.4,1.7-6.5,3.9-9.9,5.6
		c-6.3,3.2-12.7,6.2-19.1,9.4c-3.2,1.6-6.3,3.4-9.5,5.1c-4.3,2.3-8.6,1.9-12.8-0.1c-7.1-3.3-14.2-6.5-21.3-9.9
		c-6.4-3.1-12.5-6.7-18.9-9.6c-7.8-3.6-15.8-7-23.8-10.3c-8.2-3.3-16.5-6.3-24.7-9.6c-2-0.8-3.9-2.1-5.7-3.4
		c-3.6-2.6-3.2-5.7,0.8-7.6c3-1.4,6.1-2.7,8.8-4.5c3.9-2.6,6-6.1,5.8-11.2c-0.8-14.5-1.4-29-1.6-43.4c-0.1-7.5,1-11.6,9.2-14.5
		c3.1-1.1,5.8-3.6,8.8-5.2c6.8-3.6,14.1-6.5,20.6-10.7c7.6-4.9,16.4-7,24.2-11.4c2.4-1.4,5.4-1.8,8.1-2.8c3.3-1.1,6.6-2.4,9.9-3.5
		c6.4-2.2,12.4,0,18.3,2.1c3,1.1,6.1,2.2,9.1,3.4c4.7,1.8,9.4,3.8,14.1,5.6c2.4,0.9,5,1.3,7.3,2.4c7.7,3.7,15.2,7.7,22.9,11.6
		c2.7,1.4,5.7,2.2,8.3,3.8c2.7,1.7,5.5,3.5,7.5,6c1.5,1.9,1.8,4.8,2.6,7.3c-0.4,0.1-0.7,0.1-1.1,0.2c-0.2,14.7-0.4,29.3-0.7,44
		c0,1.6-0.6,3.3-0.7,4.9c-0.1,3-0.3,6.1,0.2,9c0.6,3.1,2.8,5.1,6,5.9c3,0.7,5.9,1.5,8.8,2.5c1.1,0.4,2.6,1.6,2.5,2.4
		C341.5,217,340.4,218.3,339.4,219z"/>
	<path d="M431.6,237.1c0.3,18.6-3,35-6.6,51.3c-1.3,5.8-3.5,11.1-7.2,15.6c-2.3,2.7-5.3,3.3-7.9,2.1c-2.5-1.1-3.7-3.7-3.1-7.3
		c0.5-2.9,1-5.9,2.2-8.6c2.6-6,3.3-12.2,4.1-18.6c0.7-5.5,1.7-10.9,2.6-16.4c3-18.5,1.7-36.9-2.9-54.9c-2.7-10.6-6.2-21.1-10.3-31.2
		c-2.8-6.8-7.2-13-11-19.4c-3.5-5.9-6.7-11.9-10.8-17.4c-9.6-12.9-21-24-34.4-33c-7.1-4.8-14.5-9.1-21.9-13.4
		c-6.4-3.7-12.9-7-19.5-10.3c-2-1-4.2-1.5-6.3-2.2c-7.1-2.1-14.1-4.6-21.3-6c-8.9-1.7-17.9-2.6-26.8-3.6c-14.5-1.6-28.7,0.7-43,3
		c-6,0.9-11.7,3.1-17.6,4.7c-2.2,0.6-4.5,1-6.7,1.8c-3.9,1.5-7.9,3-11.7,4.9c-7.6,3.7-15.3,7.3-22.5,11.8
		c-7.1,4.4-13.7,9.7-20.3,14.8c-12.7,9.8-22.5,22.3-31.9,35.2c-3.6,5-7.2,10-10.2,15.4c-4.7,8.7-9,17.7-12.3,27.1
		c-6.5,18.7-10.2,37.8-9.6,57.5c0.2,8.8,2.1,17.5,3.4,26.3c0.8,5.7,1.7,11.3,3,16.9c0.9,4,2.6,7.9,3.9,11.8c0.8,2.4,1.4,4.8,2.3,7.1
		c2.8,6.9,5.4,13.9,8.7,20.6c2.9,5.7,6.8,10.9,9.9,16.6c3.6,6.5,8.2,12.2,13,17.8c10.1,11.9,20.7,23.2,33.3,32.6
		c8.5,6.4,17.4,12.2,26.8,16.9c9.7,4.8,19.7,9.2,30.6,11c2.9,0.5,5.5,2.2,8.4,2.7c6.5,1.2,13.1,2.3,19.6,3.1
		c6,0.7,12.1,1.1,18.2,1.1c6.5,0,13.1-0.3,19.6-1c7.3-0.7,14.6-1.8,21.9-2.8c2.3-0.3,4.5-1.1,6.7-1.7c3.9-1.1,7.3-0.4,10.2,2.5
		c3.3,3.2,3,6.6-1.3,8.3c-9.2,3.5-18.5,6.8-28.5,7.7c-7.7,0.7-15.4,1.8-23.2,1.9c-11,0.1-22-0.1-32.8-2.3c-6-1.2-12-2.2-17.8-4
		c-8.6-2.7-17-6-25.4-9.1c-3.5-1.3-7.1-2.3-10.3-4c-6.7-3.5-13.1-7.4-19.8-11c-12.5-6.6-23.2-15.8-33-25.7
		c-7.9-7.9-14.8-16.9-21.7-25.8c-4.6-6-8.6-12.4-12.3-19c-3.4-6-5.9-12.4-8.9-18.6c-0.8-1.7-2-3.3-2.7-5.1
		c-1.5-3.9-2.9-7.7-4.2-11.7c-2.3-7.4-5.1-14.7-6.5-22.2c-3.1-17-6-34.1-4.6-51.4c0.7-9.7,2.6-19.4,4-29.1
		c1.2-7.8,3.1-15.4,6.4-22.5c0.7-1.4,0.7-3.1,1.3-4.5c2.1-5,4.1-10.1,6.4-15c3.3-7,6.5-14,10.4-20.7c3.3-5.6,7.3-10.9,11.5-15.9
		c5.5-6.6,11.2-13,17.3-19c8.3-8,17.1-15.5,26.9-21.6c6.5-4,12.9-8.1,19.5-12.1c1.6-1,3.6-1.3,5.4-2.1c8.6-4.2,17.8-7,26.8-10.1
		c12.6-4.4,25.7-4.9,38.6-6.7c19-2.7,37.8,0.1,56.4,3.5c5.4,1,10.6,3.1,15.9,4.7c3.5,1.1,7.2,1.8,10.5,3.3
		c7.1,3.1,14.3,6.3,21.1,10.1c8.5,4.8,17.1,9.6,24.8,15.5c9.4,7.3,18.3,15.5,26.8,23.9c5.4,5.3,10.1,11.5,14.6,17.7
		c4.2,5.9,7.8,12.2,11.4,18.6c3.3,5.9,6.4,12,9.4,18.1c1,2,1.4,4.2,2.1,6.3c1.3,3.8,3,7.5,4.1,11.5c1.6,5.9,2.8,11.8,4.1,17.8
		C429.7,213.6,432.2,226.1,431.6,237.1z"/>
	<path d="M445.9,367.4c-2.6-8.9-6.7-17.2-12.8-24.6c-4.8-5.7-10.2-10.6-16.5-14.5c-6.8-4.3-14.4-6.6-22-8.9c-8-2.4-16-3.5-24.3-1.7
		c-4.1,0.9-8.2,1.5-12.2,2.5c-3,0.7-6,1.4-8.7,2.8c-8.6,4.2-15.4,10.6-21.1,18.3c-8.8,12.1-12.8,26-12.9,40.5
		c-0.1,11.3,2,22.5,7.5,32.9c4.5,8.6,10,16,17.8,21.9c4.7,3.6,9.9,6,15,8.7c7.8,4.2,15.9,5.7,23.5,5.6c9.3,0.1,17.4-1,25-4.6
		c2.1-1,4.2-2,6.3-2.7c7.2-2.3,13.4-6.5,18.5-11.8c6-6.3,11.1-13.5,14.7-21.6C450,396.2,450.1,381.7,445.9,367.4z M434.4,380.9
		c-0.2,5.7,0,11.5-1.1,17c-1.9,9.8-7.7,17.5-14.9,24.3c-7.4,7-16.7,10-25.8,13.3c-3.6,1.3-7.8,0.9-11.8,1.3
		c-6.2-0.1-11.9-1.8-17.8-3.8c-8.2-2.9-14.5-7.9-20.2-14.1c-2.1-2.3-3.6-5.1-5.2-7.8c-6.9-11.3-8.6-23.5-7.1-36.5
		c1.7-15.5,10.1-26.4,22.8-34.8c12.5-8.3,25.7-8.8,40-5.9c13.5,2.7,23.4,10.3,31.3,20.7C430.3,362.2,434.8,370.8,434.4,380.9z"/>
</g>
<g id="Arrow_3">
	<g id="Arrow_6">
	</g>
</g>
</svg>
