<?xml version="1.0" encoding="utf-8"?>
<!-- Generator: Adobe Illustrator 24.0.1, SVG Export Plug-In . SVG Version: 6.00 Build 0)  -->
<svg version="1.1" id="Layer_1" xmlns="http://www.w3.org/2000/svg" xmlns:xlink="http://www.w3.org/1999/xlink" x="0px" y="0px"
	 viewBox="0 0 500 500" style="enable-background:new 0 0 500 500;" xml:space="preserve">
<style type="text/css">
	.st0{fill:#FFFFFF;}
	.st1{fill:#547897;}
</style>
<g>
	<path d="M417.2,175.8c0-7.3-0.1-14.7-0.2-22c0-2.6-1.4-4.3-3.8-5.4c-3.2-1.5-6.3-3.2-9.5-4.8c-3-1.5-6-3.1-9.1-4.6
		c-3.5-1.7-7-3.2-10.5-4.8c-5.6-2.8-11.2-5.6-16.8-8.4c-5.4-2.7-10.9-5.2-16.3-7.8c-5.4-2.7-10.7-5.6-16-8.3
		c-2.4-1.2-4.9-2.4-7.3-3.6c-3.4-1.6-6.9-3.1-10.3-4.8c-2.3-1.1-4.6-2.3-6.8-3.5c-2.9-1.5-5.8-3.2-8.8-4.7c-3.3-1.7-6.7-3.2-10-4.8
		c-2.2-1.1-4.4-2.2-6.7-3.4c-6-3-12-6.1-17.9-9.1c-3.3-1.7-6.6-3.3-9.8-5.1c-3.4-1.9-6.9-2.8-10.6-1.1c-2.9,1.3-5.6,3-8.4,4.4
		c-2.2,1.2-4.4,2.3-6.7,3.4c-3.2,1.6-6.3,3.3-9.4,4.9c-3.3,1.7-6.6,3.3-9.9,4.9c-2.2,1.1-4.5,2.1-6.7,3.2
		c-5.6,2.8-11.2,5.8-16.9,8.6c-2.9,1.5-5.9,2.8-8.8,4.2c-2.4,1.2-4.8,2.4-7.2,3.7c-3.7,1.9-7.4,3.8-11,5.6c-2.8,1.4-5.6,2.8-8.5,4.2
		c-3.3,1.7-6.5,3.4-9.8,5.1c-3.4,1.7-6.8,3.3-10.1,5c-3.1,1.5-6.1,3.3-9.3,4.7c-5.6,2.7-11.4,5.2-17,8c-5.6,2.7-11.1,5.6-16.7,8.5
		c-0.5,0.2-1,0.4-1.5,0.5c-3.9,1-6.3,3.8-6.2,7.8c0,7.7,0.1,15.4,0.3,23.2c0,1.2,0.2,2.4,0.6,3.6c0.9,2.3,3.3,3.1,5.4,1.9
		c4.1-2.3,8.3-4.7,12.4-7c1.8-1,2.7-0.7,2.8,1.5c0.1,2.5,0,5,0,7.5c0,28.6,0,57.1,0,85.7h0.3c0,13-0.1,26.1,0,39.1
		c0.1,17.6,0.3,35.3,0.5,52.9c0,3.2-0.7,4-3.9,3.9c-4.3-0.1-8.6-0.1-12.9-0.1c-3,0-4.8,1.9-4.8,4.9c0,2.4,1.6,3.7,4.7,3.8
		c1.8,0.1,3.6,0,5.5,0c29.1,0,58.2,0,87.3,0c1.8,0,2.7,0.7,2.7,2.5c0,1.2,0.1,2.4,0.1,3.6c0,3.9,0,7.7,0.1,11.6c0,2.6,1.5,4.1,3.8,5
		c6.4,2.7,12.7,5.5,19.1,8.3c3,1.3,5.9,2.8,8.8,4.1c3.5,1.6,7,3,10.6,4.6c4.3,1.9,8.6,3.9,13,5.8c3.4,1.5,6.7,3.1,10.1,4.6
		c2.7,1.3,5.4,2.7,8.2,3.8c0.9,0.4,2.2,0.2,3.1-0.2c4.7-2,9.3-4.3,14-6.4c2.4-1.1,4.8-2.1,7.2-3.3c3.4-1.7,6.7-3.5,10-5.2
		c2.4-1.2,4.9-2.3,7.4-3.5c3.5-1.6,7-3.2,10.5-4.8c2.4-1.1,4.8-2.1,7.2-3.2c3.7-1.6,7.2-3.4,11-4.8c3.2-1.2,4.1-1.9,4.3-5.3
		c0.2-4,0.1-8,0-12c-0.1-4.3,0.6-5,4.9-4.9c9.3,0.2,18.6,0.3,28,0.4c15.4,0,30.7,0,46.1-0.2c1,0,2.3-0.7,2.8-1.4
		c2-2.6,0.1-6.8-3.2-7c-3.9-0.3-7.9-0.3-11.8-0.4c-3.5-0.1-4.2-0.8-3.8-4.2c0.1-1,0.1-2.1,0.1-3.2c0-15.4-0.1-30.8-0.1-46.1
		c-0.1-38.9-0.2-77.7-0.2-116.6c0-6.5-0.1-13-0.1-19.5c0-1.3,0.1-3,0.9-3.6c0.6-0.5,2.5-0.1,3.5,0.5c3.4,1.8,6.6,3.8,10,5.7
		c1.3,0.7,2.7,1.3,4.2,1.7c2.3,0.6,3.5-0.2,3.9-2.5C417.2,179.3,417.2,177.5,417.2,175.8z M184.1,339.6c-2.9-1.3-5.8-2.6-8.7-3.9
		c-2-0.9-2.2-1.9-0.8-3.7c4.6-5.6,9.3-11.2,13.9-16.7c1.4-1.6,3.1-1.5,5.3-0.4c3.6,2,7.4,3.7,11.1,5.4c2.6,1.2,5.2,2.4,7.8,3.6
		c3.6,1.7,7.2,3.5,10.8,5.1c3,1.4,6.1,2.7,9,4.1c3.7,1.8,7.4,3.6,11.1,5.5c1.4,0.7,2.9,1.4,4.3,2.1c2.6,1.4,2.7,3.1,0.8,5.2
		c-4.2,4.4-8.2,8.9-12.3,13.4c-1,1.1-2.3,2-3.1,2.7c-1-0.2-1.4-0.2-1.7-0.4c-3.6-1.7-7.2-3.4-10.9-5.1c-2.5-1.2-4.9-2.3-7.4-3.4
		c-3.4-1.5-6.8-3-10.1-4.6c-3.8-1.8-7.4-3.6-11.2-5.4C189.4,342.1,186.8,340.8,184.1,339.6z M253.8,386.4h-0.1c0,9.8,0,19.5,0,29.3
		c0,0.8-0.1,1.5-0.2,2.3c-0.3,1.4-1.1,1.6-2.4,1.1c-4.2-1.8-8.5-3.4-12.7-5.3c-3.1-1.4-6.1-3-9.1-4.5c-2.8-1.4-5.7-2.7-8.6-4
		c-3.5-1.5-7-2.8-10.4-4.4c-3.3-1.5-6.5-3.2-9.8-4.7c-2-0.9-4.1-1.7-6-2.7c-2.9-1.5-3.3-2.6-3-5.8c0.2-2.1,0.2-4.2,0.1-6.3
		c-0.1-8.6-0.2-17.1-0.3-25.7c0-2.3,1.2-2.9,3.3-1.9c4.6,2.2,9.3,4.3,13.9,6.4c6.4,2.9,12.7,5.8,19.1,8.8c2.1,0.9,4.1,1.9,6.2,2.8
		c2.2,0.9,4,0.4,5.5-1.4c4-4.9,7.9-9.7,11.9-14.6c0.5-0.6,1.3-0.9,1.9-1.3c0.3,0.7,0.7,1.5,0.7,2.2
		C253.8,366.6,253.8,376.5,253.8,386.4z M258.3,335.3c-0.7-0.1-1.1-0.1-1.5-0.3c-3.5-1.5-7.1-3-10.6-4.6c-2.5-1.1-4.9-2.3-7.4-3.4
		c-3.4-1.6-6.9-3.1-10.3-4.7c-3.3-1.6-6.6-3.2-10-4.8c-3.3-1.6-6.7-3.1-10-4.6c-1.9-0.9-3.8-1.9-5.6-2.9c-1.3-0.8-1.2-1.8,0.3-2.5
		c7.6-3.6,15.1-7.1,22.7-10.8c6.6-3.2,13.1-6.5,19.6-9.8c2.8-1.4,5.6-3,8.4-4.5c2.4-1.3,4.7-1.3,7.1,0c3.6,1.9,7.3,3.5,11,5.3
		c3.4,1.7,6.8,3.5,10.3,5.2c2.8,1.4,5.5,2.7,8.3,4.1c4.3,2.1,8.6,4.3,13,6.3c3,1.4,6.1,2.4,9.2,3.7c0.7,0.3,1.2,1,1.8,1.5
		c-0.5,0.6-0.9,1.4-1.6,1.7c-4.8,2.1-9.7,4.1-14.5,6.2c-2.3,1-4.7,2.1-7,3.2c-3.5,1.7-6.9,3.5-10.3,5.1c-3.4,1.5-6.8,2.9-10.2,4.4
		c-3.5,1.6-6.9,3.4-10.3,5.1C259.8,334.6,259,335,258.3,335.3z M321.3,393.5c-4.2,1.7-8.4,3.3-12.6,5.1c-3.2,1.4-6.3,3.1-9.5,4.6
		c-2.1,1-4.2,2.1-6.3,3.1c-5.8,2.8-11.6,5.5-17.4,8.3c-3.7,1.8-7.3,3.6-10.9,5.4c-1.9,1-3,0.5-3-1.6v-30.2h0.1c0-9.3,0-18.6,0-27.9
		c0-1.6-0.3-3.2-0.3-4.8c0-0.6,0.5-1.2,0.7-1.8c0.5,0.2,1.2,0.3,1.5,0.7c3.2,4,6.3,8.1,9.4,12.2c1,1.3,1.9,2.7,3,4
		c1.8,2.1,3.8,2.3,6.2,1c6.1-3.1,12.3-6,18.4-9c3.5-1.7,7-3.3,10.4-4.8c3.3-1.5,6.6-3,9.9-4.4c1.7-0.7,2.9,0.2,2.9,2.2
		c-0.1,7.8-0.2,15.6-0.2,23.4c0,3.3,0.2,6.5,0.4,9.8C324.3,391,323.4,392.7,321.3,393.5z M326.6,342.3c-3.3,1.4-6.6,2.9-9.9,4.3
		c-4.3,1.9-8.5,3.8-12.8,5.7c-3.6,1.6-7.3,3.1-10.9,4.8c-3.1,1.4-6.1,3-9.1,4.5c-0.5,0.2-1,0.3-1.9,0.6c-0.6-0.4-1.6-0.8-2.1-1.5
		c-4.5-5.6-9-11.2-13.4-16.8c-1.3-1.7-0.8-2.7,1.2-3.6c3.8-1.7,7.4-3.7,11.2-5.4c3.3-1.6,6.8-3,10.1-4.5c4-1.8,8.1-3.7,12.1-5.5
		c3.6-1.6,7.2-3.2,10.7-4.8c3.5-1.7,7.1-3.3,10.6-5.1c3.3-1.8,4.2-1.5,6.5,1.2c4.1,4.7,8.4,9.3,12.6,13.9c0.5,0.5,1,0.9,1.4,1.5
		c1.3,1.9,0.7,3.4-1.4,4.2c-3.5,1.5-7,3.1-10.5,4.7C329.5,341,328,341.6,326.6,342.3z M342.6,368.9c-1.6,0.1-3.2,0-4.8,0
		c-6,0-6,0-6-5.9c0-3.2-0.2-6.5-0.5-9.7c-0.3-2.3,0.4-3.9,2.4-4.8c3.1-1.5,6.3-2.8,9.5-4.2c1.4-0.6,2.1,0,2.1,1.6
		c0,6.6-0.1,13.1,0,19.7C345.4,367.7,344.6,368.8,342.6,368.9z M384.2,369c-7.2,0.2-14.4,0.2-21.6,0.3c-2.3,0-4.5,0.1-6.8,0.1
		c-2.4,0-3.6-1.4-3.3-3.6c0.8-6.1,0.1-12.1-1-18c-0.2-0.9-0.3-1.8-0.6-2.7c-0.8-2.4-0.3-4.1,2.3-5.2c2.3-1,2.6-4.6,0.3-6.9
		c-2.6-2.6-2.6-5-1.6-8.3c0.8-2.5,0.8-5.4,0.8-8.1c-0.2-24.9-0.5-49.8-0.8-74.8c-0.1-8-0.3-16.1-0.4-24.1c-0.1-3.3-1.6-4.8-4.7-4.8
		c-16.7,0-33.3,0-50,0c-1.8,0-3.6,0.3-5.4,0.7c-2.7,0.7-3.8,2.5-3.4,5c0.3,2,1.7,2.9,4.5,2.9c10.7,0,21.4,0,32.1,0
		c5.3,0,10.6,0,15.9-0.1c3,0,3.7,0.9,3.4,3.9c-0.1,1.6-0.1,3.3,0,5c0.1,2.9-0.8,3.9-3.6,3.9c-19.3,0-38.5,0-57.7,0
		c-3.4,0-6.7,0.1-9.6,2.1c-1.5,1-3,1.9-2.5,4.1c0.5,2.3,2.2,2.9,4.3,2.9c4.1,0.1,8.2,0.3,12.3,0.3c16.2,0,32.4-0.1,48.6-0.2
		c1.3,0,2.6,0,3.9-0.1c3.1-0.3,4.3,0.7,4.3,3.8c0,2.3-0.1,4.7-0.1,7c0,19.3,0,38.6,0.1,58c0,2,0.4,3.9,0.4,5.9
		c0,0.8-0.5,1.6-0.8,2.4c-0.7-0.5-1.7-0.7-2.2-1.4c-2.6-3.5-5.3-7-7.6-10.7c-2.1-3.2-5.3-4.2-8.7-5.4c-1.6-0.5-3.1-1.4-4.7-2.1
		c-0.5-0.2-0.9-0.6-1.3-0.8c-7.3-3.3-14.6-6.5-21.8-9.8c-5.6-2.6-11.2-5.1-16.8-7.8c-5.6-2.7-11.1-5.4-16.6-8.3
		c-4.9-2.6-9.3-2.3-13.9,0.8c-2.1,1.4-4.6,2.3-6.8,3.4c-3.1,1.6-6.2,3.2-9.3,4.7c-3.4,1.7-6.9,3.4-10.3,5.1c-3,1.5-6.1,3-9.1,4.5
		c-3.4,1.7-6.8,3.6-10.3,5.2c-3.8,1.8-7.7,3.9-11.7,5.2c-5.1,1.7-8.5,5-11.7,9.1c-5.5,7.2-10.9,14.5-17.9,20.4
		c-2.2,1.8-1.4,5.7,1.4,7c5.1,2.4,10.2,4.8,15.4,7.1c3.6,1.7,4.8,3.7,4.5,7.8c-0.2,3.5-0.2,7.1-0.1,10.7c0,2.8-0.6,3.5-3.4,3.5
		c-6.9,0-13.8,0-20.7,0c-3.3,0-3.7-0.6-3.6-3.9c0.1-8.6,0.1-17.3,0.1-25.9c0-10.8,0-21.7,0-32.5h0c0-18.6,0-37.1,0-55.7
		c0-1.3-0.2-2.6-0.1-3.9c0.1-1.8,0.9-2.9,3-2.9c14.7,0,29.4,0,44.1,0c11.5,0,23,0.2,34.5,0.3c0.2,0,0.4,0,0.7,0
		c3.8,0.1,5.2-0.8,5.2-3.5c0.1-3.5-1.9-5.6-5.4-5.7c-4.8-0.1-9.5-0.3-14.3-0.3c-17,0-34.1,0.2-51.1,0.2c-4.6,0-9.2,0-13.8,0
		c-1.8,0-3-1.3-3-3.5c0-2.3,0.1-4.7,0.2-7c0.1-2.1,1.1-3,3.2-2.9c3.7,0.2,7.4,0.4,11.1,0.4c15.5,0.1,31.1,0,46.6,0.1
		c2,0,4.1,0.2,6.1,0.2c3.1,0,4.3-1.3,4.5-4.5c0.1-2.8-1.1-4.3-4.2-4.5c-1.7-0.1-3.5-0.1-5.2-0.1c-21.8,0-43.6,0-65.5,0
		c-3.4,0-4.8,1.4-4.8,5.1c0,15.3,0.1,30.6,0.1,45.9c0,30-0.1,60-0.1,90c0,3.7,0.2,7.4,0.4,11.1c0.1,1.9-0.5,3.1-2.6,3.1
		c-4.1,0-8.2,0-12.3,0c-5.4,0-10.8,0-16.1,0.1c-3.6,0-4.2-0.8-4.1-4.4c0.2-4.7-0.1-9.4-0.1-14.1c0-36,0-72,0-108
		c0-16.4,0.1-32.7,0-49.1c0-6-0.3-12.1-0.3-18.1c0-2.8,2.4-4,4.3-5.1c5.2-2.8,10.6-5.2,15.8-7.8c5.3-2.6,10.4-5.5,15.7-8.1
		c3.2-1.6,6.4-3,9.6-4.6c3.2-1.6,6.4-3.3,9.7-4.9c2.4-1.2,4.8-2.5,7.3-3.6c5.6-2.7,11.3-5.3,16.9-8.1c5.5-2.7,11-5.6,16.6-8.4
		c5.3-2.7,10.5-5.2,15.8-7.9c5.6-2.8,11.1-5.7,16.7-8.5c2.6-1.3,5.1-2.5,7.7-3.8c2.3-1.1,4.4-0.4,6.5,0.6c3.7,1.9,7.5,3.6,11.2,5.5
		c3.2,1.6,6.2,3.3,9.4,4.9c2.3,1.2,4.6,2.3,6.9,3.5c3.3,1.6,6.6,3.1,9.8,4.7c3.5,1.7,6.8,3.5,10.3,5.2c3.1,1.5,6.2,3,9.3,4.5
		c3.3,1.6,6.6,3.3,9.9,4.9c3.3,1.6,6.6,3.3,9.9,5c3.4,1.7,6.8,3.5,10.3,5.3c2.3,1.2,4.7,2.4,7,3.6c3.1,1.5,6.3,2.9,9.4,4.5
		c3.3,1.6,6.5,3.4,9.8,5.1c2.7,1.4,5.4,2.7,8.1,4.1c2.5,1.3,5,2.5,7.5,3.8c1.7,0.8,2.1,2.2,2.1,3.9c0,18.5,0.1,37.1,0.2,55.7
		c0.1,43.5,0.3,87,0.4,130.5c0,2.1,0.2,4.2,0.4,6.3C387.1,367.9,386.5,368.9,384.2,369z M409.2,160.4c-0.2,1-0.1,2.1-0.2,3.2
		c0,0-0.1,0-0.2,0c0,1.6,0,3.2,0,4.8c0,2.4-1.4,3.3-3.6,2.2c-2.1-1.1-4.2-2.2-6.3-3.3c-5.3-2.8-10.5-5.7-15.8-8.4
		c-5.3-2.7-10.8-5.1-16.1-7.7c-5.5-2.7-10.8-5.6-16.3-8.4c-3-1.5-6.1-2.9-9.2-4.4c-5.5-2.8-11-5.7-16.5-8.5
		c-2.3-1.2-4.6-2.3-6.9-3.4c-5.6-2.7-11.2-5.3-16.8-8c-5.6-2.8-11.2-5.6-16.8-8.5c-3-1.5-6-2.9-8.9-4.4c-3.5-1.8-6.9-3.8-10.4-5.5
		c-4.3-2.1-8.6-4.1-13-5.9c-1.1-0.4-2.8-0.1-3.9,0.5c-4.3,2.1-8.5,4.5-12.9,6.6c-3.4,1.7-6.9,3-10.3,4.7c-2.9,1.4-5.7,3-8.6,4.5
		c-3.5,1.8-7,3.5-10.5,5.2c-2.7,1.3-5.5,2.5-8.2,3.9c-1.9,0.9-3.8,1.9-5.7,2.8c-5.5,2.8-11,5.7-16.5,8.5c-2.3,1.2-4.6,2.3-6.9,3.4
		c-5.5,2.7-11,5.3-16.4,8c-5.2,2.6-10.3,5.4-15.4,8.1c-3,1.5-6.1,2.9-9.2,4.4c-3.6,1.8-7.1,3.5-10.7,5.3c-3.5,1.7-7,3.2-10.4,5
		s-6.8,3.7-10.2,5.5c-0.4,0.2-0.8,0.6-1.2,0.7c-1.2,0.3-2.8,0.9-3.5,0.4s-0.9-2.2-0.9-3.4c-0.1-2.9-0.1-5.8,0.2-8.6
		c0.1-1.2,0.8-2.8,1.8-3.3c4.6-2.6,9.4-4.9,14-7.3c3.1-1.6,6.1-3.3,9.2-4.8c2.2-1.1,4.3-2.1,6.5-3.2c3.5-1.7,7.1-3.3,10.6-5
		c2.5-1.2,4.9-2.2,7.4-3.5c5.4-2.8,10.8-5.8,16.2-8.5c5.3-2.6,10.6-5,15.9-7.7c5.5-2.7,10.9-5.6,16.3-8.4c2.4-1.2,4.8-2.6,7.2-3.7
		c5.6-2.7,11.2-5.3,16.7-8c5.2-2.6,10.3-5.4,15.5-8c5.5-2.7,11.2-5,16.4-8.2c4.2-2.6,7.7-2.7,11.9-0.1c3.7,2.4,7.9,4,11.9,6
		c2.8,1.4,5.7,2.7,8.5,4.2c3.6,1.8,7.1,3.7,10.6,5.5c2.4,1.2,4.7,2.4,7,3.6c5.3,2.6,10.7,5.2,16,7.9c5.4,2.7,10.7,5.6,16.1,8.2
		c5.7,2.8,11.5,5.4,17.2,8.1c3.3,1.6,6.4,3.3,9.7,5c2.6,1.3,5.2,2.8,7.8,4c3,1.4,6.1,2.7,9,4.1c5.6,2.8,11.1,5.7,16.7,8.4
		c3.3,1.6,6.6,3,9.8,4.6c2.9,1.4,5.8,2.9,8.6,4.5C408.6,155.5,409.8,157.5,409.2,160.4z"/>
	<path class="st0" d="M258.3,335.3c-0.7-0.1-1.1-0.1-1.5-0.3c-3.5-1.5-7.1-3-10.6-4.6c-2.5-1.1-4.9-2.3-7.4-3.5
		c-3.4-1.6-6.9-3.1-10.3-4.7c-3.3-1.6-6.6-3.2-10-4.8c-3.3-1.6-6.7-3.1-10-4.7c-1.9-0.9-3.8-1.8-5.6-2.9c-1.3-0.8-1.2-1.8,0.3-2.5
		c7.6-3.6,15.1-7.1,22.7-10.8c6.6-3.2,13.1-6.5,19.6-9.8c2.8-1.4,5.6-2.9,8.4-4.5c2.4-1.3,4.7-1.3,7.1,0c3.6,1.9,7.3,3.5,11,5.3
		c3.4,1.7,6.8,3.5,10.3,5.2c2.8,1.4,5.5,2.7,8.3,4.1c4.3,2.1,8.6,4.3,13,6.3c3,1.4,6.1,2.4,9.2,3.7c0.7,0.3,1.2,1,1.8,1.5
		c-0.5,0.6-0.9,1.4-1.6,1.7c-4.8,2.1-9.7,4.1-14.5,6.2c-2.3,1-4.7,2.1-7,3.2c-3.5,1.7-6.9,3.5-10.3,5.1c-3.3,1.6-6.8,2.9-10.2,4.4
		c-3.5,1.6-6.9,3.4-10.3,5.1C259.8,334.6,259,335,258.3,335.3z"/>
	<path class="st0" d="M253.7,386.4c0,9.8,0,19.5,0,29.3c0,0.8-0.1,1.5-0.2,2.3c-0.3,1.4-1.1,1.6-2.4,1.1c-4.2-1.8-8.5-3.4-12.7-5.3
		c-3.1-1.4-6.1-3-9.1-4.5c-2.9-1.4-5.7-2.7-8.6-4c-3.5-1.5-7-2.8-10.4-4.4c-3.3-1.5-6.5-3.2-9.8-4.7c-2-0.9-4.1-1.7-6-2.7
		c-2.9-1.5-3.3-2.6-3-5.8c0.2-2.1,0.2-4.2,0.1-6.4c-0.1-8.6-0.2-17.1-0.3-25.7c0-2.3,1.2-2.9,3.3-1.9c4.6,2.2,9.3,4.3,13.9,6.4
		c6.4,2.9,12.7,5.8,19.1,8.8c2.1,0.9,4.1,1.9,6.2,2.8c2.2,0.9,4,0.4,5.5-1.4c4-4.8,7.9-9.7,11.9-14.6c0.5-0.6,1.3-0.9,1.9-1.3
		c0.3,0.7,0.7,1.5,0.7,2.2c0,9.9,0,19.8,0,29.8C253.8,386.4,253.7,386.4,253.7,386.4z"/>
	<path class="st0" d="M323.8,379c0-7.8,0.2-15.6,0.2-23.4c0-2-1.2-2.9-2.9-2.2c-3.3,1.4-6.6,2.9-9.9,4.4c-3.5,1.6-7,3.2-10.4,4.8
		c-6.2,3-12.3,5.9-18.4,9c-2.4,1.2-4.4,1.1-6.2-1c-1.1-1.3-2-2.7-3-4c-3.1-4.1-6.2-8.1-9.4-12.2c-0.3-0.4-1-0.5-1.5-0.7
		c-0.3,0.6-0.7,1.2-0.7,1.8c0,1.6,0.3,3.2,0.3,4.8c0,9.3,0,18.6,0,27.9h-0.1v30.2c0,2.1,1,2.6,3,1.6c3.6-1.8,7.3-3.6,10.9-5.4
		c5.8-2.8,11.6-5.5,17.4-8.3c2.1-1,4.2-2.1,6.3-3.1c3.2-1.6,6.3-3.3,9.5-4.6c4.1-1.8,8.4-3.4,12.6-5.1c2-0.8,2.9-2.5,2.8-4.7
		C324,385.5,323.8,382.3,323.8,379z M292.3,401.4c-1.5,1.2-3.1,2.1-4.8,3c-4.4,2.3-8.7,4.5-13.1,6.6c-2,0.9-4.1,1.2-6-0.5
		c-1.7-1.5-1.7-3.5-0.4-4.9c0,0,0,0,0,0c0.3-0.3,0.7-0.6,1.1-0.9c0.6-0.3,1.1-0.7,1.7-1c0,0,0-0.1,0-0.1c0-0.2,0-0.3,0-0.5
		c-0.6-0.2-1.2-0.4-1.8-0.6c-2-0.5-3.1-1.8-3.3-3.8c-0.1-1,0-1.8,0.5-2.5c0.4-0.7,1-1.2,1.9-1.7c5-2.4,10-4.9,15-7.3
		c1.8-0.9,3.7-0.9,5.4,0.3c1.3,0.8,1.8,1.9,1.6,3v0c-0.1,0.6-0.5,1.3-1.1,1.9c-1.7,1.8-3.4,3.4-6,3.7c-0.8,0.1-1.5,1-2.2,1.5
		c0.1,0.3,0.3,0.7,0.4,1c0.2,0,0.4-0.1,0.5-0.1h0c1.3-0.3,2.7-0.5,4-1c1-0.4,1.9-1.2,2.9-1.7c0.2-0.1,0.5-0.2,0.7-0.3c0,0,0,0,0,0
		c1.3-0.5,2.7-0.6,3.8,0.8C294.1,397.5,293.8,400.2,292.3,401.4z"/>
	<path class="st0" d="M281.9,362.2c-0.6-0.4-1.6-0.8-2.1-1.5c-4.5-5.6-9-11.2-13.4-16.8c-1.3-1.7-0.8-2.7,1.2-3.6
		c3.8-1.7,7.4-3.7,11.2-5.4c3.3-1.6,6.8-3,10.1-4.5c4-1.8,8.1-3.7,12.1-5.6c3.6-1.6,7.2-3.2,10.7-4.8c3.5-1.6,7.1-3.3,10.6-5.1
		c3.3-1.7,4.2-1.5,6.6,1.2c4.1,4.7,8.4,9.3,12.6,13.9c0.5,0.5,1,0.9,1.4,1.5c1.3,1.9,0.7,3.4-1.4,4.2c-3.5,1.5-7,3.1-10.5,4.7
		c-1.4,0.6-2.9,1.2-4.4,1.9c-3.3,1.4-6.6,2.9-9.9,4.3c-4.3,1.9-8.5,3.8-12.8,5.7c-3.6,1.6-7.3,3.1-10.9,4.8c-3.1,1.4-6.1,3-9.1,4.5
		C283.3,361.8,282.8,361.9,281.9,362.2z"/>
	<path class="st0" d="M233.3,362.2c-1-0.2-1.4-0.2-1.7-0.4c-3.6-1.7-7.2-3.4-10.8-5.1c-2.5-1.1-4.9-2.3-7.4-3.4
		c-3.4-1.5-6.8-3-10.1-4.6c-3.7-1.8-7.4-3.6-11.2-5.4c-2.6-1.3-5.3-2.5-7.9-3.7c-2.9-1.3-5.8-2.6-8.7-3.9c-2-0.9-2.2-1.9-0.8-3.7
		c4.6-5.6,9.3-11.1,13.9-16.7c1.4-1.6,3.1-1.5,5.3-0.4c3.6,2,7.4,3.6,11.1,5.4c2.6,1.2,5.2,2.4,7.8,3.6c3.6,1.7,7.2,3.5,10.8,5.1
		c3,1.4,6.1,2.7,9,4.1c3.7,1.8,7.4,3.7,11.1,5.5c1.4,0.7,2.9,1.4,4.3,2.1c2.6,1.4,2.7,3.1,0.8,5.2c-4.2,4.4-8.2,8.9-12.3,13.4
		C235.4,360.5,234.2,361.4,233.3,362.2z"/>
	<path class="st0" d="M337.9,369c-6,0.1-6,0.1-6-5.9c0-3.2-0.2-6.5-0.5-9.7c-0.3-2.3,0.4-3.9,2.4-4.8c3.1-1.5,6.3-2.9,9.5-4.2
		c1.4-0.6,2.1,0,2.1,1.6c0,6.6-0.1,13.1,0,19.7c0,2.1-0.7,3.2-2.7,3.3C341,369,339.4,369,337.9,369z"/>
	<path class="st1" d="M287.2,199.4c-3.2-0.3-6.5-0.3-9.7-0.3c-2.7,0.1-4.1-1.1-4.1-3.8c0-7.9,0-15.8,0-23.6h0.2
		c0-7.9,0.1-15.8,0-23.6c-0.1-5.1-1.4-6.1-6.3-6c-7,0.1-13.9,0.1-20.9,0.2c-4.4,0-5.8,1.4-5.9,5.9c-0.1,2.9,0.1,5.8,0.1,8.6
		c0,12.1,0,24.2,0.2,36.4c0.1,5.1-0.3,5.6-5.4,5.6c-0.5,0-0.9-0.1-1.4,0c-2.5,0.3-5.2,0.2-7.6,0.8c-2.9,0.7-3.5,3.1-1.8,5.5
		c2.3,3.2,4.6,6.5,7.1,9.6c7.3,9.1,14.8,18,22.2,27c2.1,2.5,4.8,2.2,6.8-0.5c3.7-5,7.5-10,11.4-15c5.6-7.2,11.4-14.3,17.1-21.5
		C290.6,202.6,289.6,199.6,287.2,199.4z M274.3,210.3c-4.1,5.3-8.3,10.4-12.4,15.6c-1,1.2-1.8,2.6-2.9,3.8c-1.7,1.9-3.2,1.8-4.7-0.1
		c-5.4-6.5-10.8-13-16.1-19.7c-0.8-1-1-2.5-1.5-3.7c1.3-0.1,2.6-0.4,3.8-0.4c1,0,2,0.3,2.9,0.2c3-0.3,4.6-1.8,4.6-4.9
		c0.1-7.9,0-15.9,0-23.8h0.1c0-7.3,0-14.7,0-22c0-0.9,0-1.8,0.2-2.7c0.2-1.6,1.2-2.3,2.9-2.3c3.9,0.1,7.9,0.3,11.8,0.4
		c2.7,0.1,3.4,0.7,3.4,3.6c0,4.2-0.1,8.5-0.1,12.7c0,11.6,0,23.1,0.1,34.7c0,3.4,1.4,4.6,4.8,4.6c0.4,0,0.8-0.1,1.1,0
		c1,0.2,2.1,0.4,3.1,0.6C275,208,275,209.4,274.3,210.3z"/>
	<path class="st0" d="M274.5,400.1c1.4-0.4,2.8-0.8,4.4-1.2c-0.7,2.4-1.8,2.8-4.2,2C274.6,400.6,274.6,400.3,274.5,400.1z"/>
	<path d="M288.5,391.9l-17.7,8.4c-1.7,0.8-3.7,0.1-4.5-1.6l0,0c-0.8-1.7-0.1-3.7,1.6-4.5l17.7-8.4c1.7-0.8,3.7-0.1,4.5,1.6l0,0
		C290.9,389.1,290.2,391.1,288.5,391.9z"/>
	<path d="M290.2,402l-17.7,8.4c-1.7,0.8-3.7,0.1-4.5-1.6l0,0c-0.8-1.7-0.1-3.7,1.6-4.5l17.7-8.4c1.7-0.8,3.7-0.1,4.5,1.6l0,0
		C292.6,399.1,291.9,401.2,290.2,402z"/>
</g>
</svg>
