<?xml version="1.0" encoding="utf-8"?>
<!-- Generator: Adobe Illustrator 24.0.1, SVG Export Plug-In . SVG Version: 6.00 Build 0)  -->
<svg version="1.1" id="Layer_1" xmlns="http://www.w3.org/2000/svg" xmlns:xlink="http://www.w3.org/1999/xlink" x="0px" y="0px"
	 viewBox="0 0 500 500" style="enable-background:new 0 0 500 500;" xml:space="preserve">
<style type="text/css">
	.st0{fill:#6092B6;}
	.st1{fill:#FFFFFF;}
</style>
<path d="M434,408.6c-0.6-4-1.5-8-2.2-12c-0.8-4.4-1.6-8.9-2.4-13.3c-0.8-4-1.6-8-2.4-12c-0.3-1.7-0.7-3.3-1.1-5
	c-0.7-2.9-1.5-5.8-2.2-8.8c-0.6-2.7-1-5.4-1.5-8.1c-0.5-2.9-1-5.8-1.2-8.8c-0.5-11.4,0.6-22.8,2.2-34.1c1.2-8.8,2.2-17.6,2.8-26.4
	c0.4-5.9,0.7-11.9,0-17.7c-0.9-8.4-2.8-16.6-4.2-24.9c-1.2-6.7-2.3-13.4-3.4-20.2c-1.1-6.5-2.3-13-3.4-19.5c-0.7-3.9-0.9-7.9-2-11.6
	c-1.4-4.7-3.4-9.2-5.1-13.8c-2.6-6.7-7.6-11.4-13.5-15.1c-4.2-2.7-5-6.6-1.8-10.5c1.6-2,3.2-4.2,4.1-6.6c1.7-4.4,3.9-8.5,5.1-13.1
	c2.5-9.8,3.2-19.4-0.3-29.2c-1.7-4.8-4-9.1-7.2-12.9c-3.1-3.8-7-6.4-11.8-7.6c-1.2-0.3-2.5-0.7-3.6-1.1c-4.4-1.6-8.8-1.7-13.3-0.6
	c-5.5,1.4-10.9,3.2-16.5,4.3c-4,0.8-8.1,0.7-12.2,0.9c-2.2,0.1-4.2-0.6-6-2.1c-3.6-3.2-8.4-1.6-9,3.1c-0.4,3.5-0.3,7.2-0.1,10.8
	c0.4,6.3,4,10.6,9.1,13.9c1.4,0.9,3,1.6,4.2,2.8c0.7,0.6,1.1,1.9,1.1,2.9c0.1,5-0.6,10.1,0,15c0.6,4.9,2.1,9.8,3.9,14.4
	c2.2,5.7,6.6,9.9,11.3,13.7c1.8,1.4,4.1,2.3,6.2,3.4c1,0.6,2.1,1.1,3.2,1.6c-0.7,1-1.4,2-2.1,3c-0.3,0.3-0.7,0.5-0.9,0.8
	c-1.8,2.8-4.1,5.4-5.3,8.4c-2.5,6.5-3.2,13.3-3,20.3c0.2,7,0.1,14.1,0.1,21.1c0,2.2-1.1,3.1-3.2,3.3c-1.7,0.2-3.3,0.7-4.9,1.1
	c-2.7,0.8-5.3,1.7-8.1,2.3c-2.1,0.5-3-0.5-2.8-2.7c0.1-1.5,0.3-3.1,0.3-4.6c0-6.8,0-13.5,0-20.3c0-3.4,0.1-6.8-0.1-10.1
	c-0.2-4.6-1.7-6-6.2-6.3c-0.5,0-1,0-1.5,0c-4.3,0-8.6,0-12.9,0c-24.9,0-49.7,0-74.6,0.1c-7,0-13.9,0.3-20.9,0.3
	c-11.3,0-22.7-0.2-34-0.3c-4.9,0-7,1.8-7.5,6.6c-0.1,0.9-0.1,1.8-0.1,2.7c0.1,5.7,0.3,11.4,0.3,17.1c0.1,5.1,0,10.3,0,15.4
	c0,2.1-1.1,2.8-3.3,2.6c-5.4-0.5-10.4-2.4-15.5-4c-2.7-0.8-4-2.8-3.9-5.6c0.3-7.9,0.7-15.8,0.6-23.6c-0.1-4.7-0.4-9.4-2.2-14
	c-1.7-4.2-3.5-8.1-6.3-11.5c-1.2-1.5-0.8-2.6,1-3.2c0.9-0.3,1.8-0.5,2.5-1c2.1-1.5,4.1-3.1,6.3-4.6c6.4-4.5,9.8-11.1,11.1-18.3
	c1.1-6.2,0.5-12.8,0.3-19.1c-0.1-2.9,0.7-4.8,3.3-6.1c4.5-2.2,8.1-5.7,9.9-10c2.5-5.8,3.4-12,1.1-18.3c-1.4-3.7-4.3-4.7-7.6-2.5
	c-0.9,0.6-1.7,1.5-2.7,1.6c-6.3,1.2-12.8,1.5-18.8-0.9c-5.3-2.1-10.9-2.6-16.4-3.9c-5.9-1.4-11.4,1.4-17,2.3c-0.2,0-0.4,0.2-0.5,0.3
	c-3.8,2.8-8.2,5-10.7,9.3c-2,3.4-4.7,6.5-5.3,10.7c-0.2,1.1-0.5,2.2-0.9,3.3c-2.3,6.1-2,12.4-0.8,18.5c1.1,5.5,1.8,11.2,4.6,16.3
	c1.9,3.5,3.9,6.9,6.3,10.1c1.9,2.5,1.4,8.3-0.9,9.9c-1.7,1.2-3.5,2.4-5.2,3.5c-6.2,4.1-9.7,10.4-12.2,17c-2,5.2-2.7,10.9-3.9,16.3
	c-1,4.4-2,8.8-2.7,13.2c-1.6,9.9-3,19.7-4.6,29.6c-0.7,4.4-1.8,8.7-2.6,13c-0.5,2.8-0.5,5.8-1.3,8.5c-2.3,7.6-1.6,15.4-1,23.1
	c0.4,5.6,1.4,11.2,1.9,16.8c0.5,5.1,0.7,10.3,1.1,15.4c0.6,7,1.2,14,1.8,21c0.5,6.2-1.3,12.1-2.2,18.2c-0.5,3.3-0.8,6.7-1.5,10
	c-0.6,3-1.4,6-2.1,9c-0.7,3-1.4,5.9-2.1,8.8c-0.4,1.6-0.6,3.3-1,4.9c-0.9,4-1.8,8-2.6,11.9c-0.2,1-0.5,1.9-0.6,2.9
	c-0.4,2.9-0.8,5.8-1.2,8.8c-0.9,5.9,1.5,10.2,5.8,12.5c4.8,2.6,10.2,3.7,15.7,3.1c4.5-0.5,9.4-3.8,10.4-7.2c1.5-5.3,3.1-10.6,4.6-16
	c0.1-0.3,0.2-0.7,0.3-1c0.9-3,1.8-5.9,2.6-8.8c0.2-0.8,0.4-1.6,0.6-2.4c1.9-6.7,3.9-13.3,5.8-20c1-3.5,2.4-7,2.8-10.6
	c0.9-8.7,3.8-17.1,3.3-26c0-0.7,0.4-1.4,0.6-2.1c0.2,0,0.4,0,0.6,0c0.3,0.7,0.7,1.3,0.9,2c1.2,4.5,2.4,9.1,3.6,13.7
	c0.3,1.2,0.7,2.3,0.9,3.5c0.6,2.7,1.5,5.3,1.8,8c0.5,5,0.7,10.1,1.1,15.2c0.7,9.1,1.7,18.1,2.2,27.1c0.4,6.4,0.9,12.6,3.6,18.5
	c1.4,3,3.8,5.1,6.8,6c3.2,0.9,6.7,1,10.1,1c3,0,6-0.1,8.7-2.1c3.7-2.8,5-6.6,5.1-10.9c0-6-0.5-11.9-0.7-17.9
	c-0.4-16.7,0.9-33.4-1.3-50c-0.5-3.6-0.9-7.1-1.5-10.6c-0.6-3.2-1.5-6.4-2.3-9.6c-0.3-1.2-0.5-2.3-0.9-3.5
	c-1.8-5.9-3.7-11.8-5.6-17.6c-0.4-1.1-0.4-2.4-0.8-3.5c-1.6-5.2-3.2-10.4-5-15.6c-2-5.7-1-11.3,0.1-16.9c0.9-5,1.7-10,2.4-15
	c0.4-2.5,1.1-3,3.5-2.1c2.1,0.8,4.3,1.5,6.4,2c4.3,1,8.7,1.8,13,2.8c2.7,0.6,3.2,1.6,2.8,4.3c-0.1,0.7-0.2,1.4-0.2,2.1
	c0,13.7,0,27.3,0,41c0,5.2,1.9,7,7,7c47.1,0,94.2,0,141.3,0c1.1,0,2.1,0,3.2-0.2c4.7-0.7,5.4-1.5,5.5-6.3c0.1-13.7,0.3-27.3,0.4-41
	c0-1.2-0.1-2.4-0.3-3.6c-0.3-2.8,0.9-4.5,3.5-5.1c1-0.2,2.1-0.3,3.1-0.5c3.8-0.8,7.8-1.3,11.5-2.5c3-1,4.1-0.6,4.1,2.6
	c-0.1,3.5,0.6,6.8,1.5,10.2c1.5,5.8,2.5,11.8,0.8,17.7c-0.8,2.7-1.7,5.4-2.4,8.1c-1.6,5.9-3.1,11.8-4.7,17.7
	c-0.2,0.7-0.6,1.3-0.8,1.9c-0.4,1.3-0.8,2.6-1.1,3.8c-1.6,5.6-3.1,11.2-4.7,16.8c-0.1,0.5-0.4,0.9-0.6,1.3c-0.4,1.3-1,2.5-1.2,3.8
	c-2.1,13.8-3.5,27.7-2.3,41.7c0.3,3.2,0,6.5-0.1,9.7c-0.3,9.1-1,18.3-1,27.4c0,4.8,2.4,8.7,7.2,10.7c5.1,2.1,10.3,2,15.3,0.7
	c3.1-0.8,6.4-2.3,7.8-5.4c1.7-3.5,3.2-7.4,3.5-11.2c1-10.1,1.2-20.2,1.9-30.3c0.6-8.1,1.4-16.3,2.5-24.4c0.5-3.7,1.8-7.2,2.8-10.8
	c1.1-4,2.4-7.9,3.6-11.9c0.1-0.2,0.2-0.4,0.4-0.5c0.2,0,0.4,0,0.7,0c0.2,1.2,0.4,2.4,0.5,3.6c0.2,3.6-0.3,7.4,0.5,10.9
	c1.7,7.7,2.2,15.6,4.8,23.1c1.2,3.4,1.4,7,2.4,10.5c1.5,5.2,3.4,10.2,4.9,15.4c1,3.5,1.3,7.2,3.1,10.5c0.6,1.1,0.6,2.5,0.9,3.7
	c0.3,1.1,0.6,2.3,1,3.4c0.7,2,1.7,3.9,2.3,5.8c1.4,4.1,4.2,6.5,8.3,7.4c5.1,1,10.1,0.5,15.1-1.6C432.5,419.4,435,415.1,434,408.6z
	 M332.7,94.9c-0.5-0.6-1.1-1.2-1.2-2c-0.2-1-0.4-2.2,0.1-3c0.3-0.5,1.8-0.7,2.6-0.5c6.9,1.9,13.8,1,20.1-1.4c6-2.3,12-2.9,18.2-3
	c8.9-0.2,15.5,3.9,19.1,11.8c2.6,5.6,3.7,11.8,2.7,18.1c-0.6,3.5-1.2,7.1-1.9,10.6c-0.2,0.9-0.8,1.6-1.3,2.5
	c-0.7-0.6-1.7-1.1-2.1-1.8c-1.3-2.4-2.7-4.8-3.5-7.4c-1.1-3.6-3-6.8-4.8-10.2c-2.3-4.4-5.6-6.9-10.5-7.4c-1.4-0.1-2.8,0-4.2,0
	c0-0.1,0-0.2,0-0.3c-6.2,0.7-12.4,1.5-18.6,2.1c-0.9,0.1-1.9,0.3-2.7-0.1C340.2,101,335.7,98.9,332.7,94.9z M350.4,141.7
	c-4.4-6.3-4.6-13.5-5-20.8c-0.1-1.6,0-3.1,0-4.7c0-3,0.7-3.8,3.8-4.1c2.2-0.2,4.4-0.1,6.5-0.4c3.2-0.4,6.4-0.8,9.6-1.5
	c2.5-0.5,4.7,0,6.1,1.9c2.3,3.1,4.7,6.1,5,10.4c0.2,2.6,2.1,5.4,3.8,7.5c3.1,3.7,4.1,7.6,1.8,11.8c-1,1.9-2.8,3.8-4.8,4.6
	c-3.9,1.7-7.7,4.3-12.4,3.7C358.6,150.1,354,146.8,350.4,141.7z M242.1,185c3.6,0,7.2,0,10.8,0c0,0,0,0,0,0c3.5,0,7,0,10.6,0
	c2.4,0,3,0.8,2.9,3.3c-0.1,9.1-0.1,18.1-0.1,27.2c0,0.3,0.1,0.7,0,1c-0.2,0.8-0.5,1.6-0.8,2.5c-0.7-0.4-1.5-0.7-2.1-1.2
	c-2.7-2-5.3-4.2-8-6.2c-1.7-1.3-4-1-5.7,0.3c-2.3,1.8-4.5,3.5-7,5c-0.8,0.5-2.2,0.6-2.9,0.2c-0.6-0.3-1-1.7-1-2.6
	c0-7.2,0.2-14.5,0.3-21.7c0-1.3-0.2-2.7-0.4-4C238.3,185.9,239,185,242.1,185z M151.9,141.3c-2.9,4.7-7.1,8.3-12.6,9.1
	c-4.1,0.6-8.5,0.6-12.4-2c-2.1-1.3-4.5-1.8-6.5-3.6c-3.6-3.2-4.5-6.5-1-10.6c1.2-1.4,1.9-3.3,2.8-5.1c1.5-3,3.1-6,4.5-9
	c0.7-1.4,1.3-2.8,1.7-4.3c0.9-3.1,2-4.1,5.2-4c3.9,0.1,7.7,0.4,11.6,0.5c1.8,0.1,3.5,0.1,5.3,0c2.5-0.2,3.9,0.8,4.3,3.2
	c0.2,1.2,0.6,2.3,0.7,3.5c0.2,2.3,0.3,4.6,0.5,6.9C156,131.5,154.7,136.7,151.9,141.3z M108.9,126.6c-1-4.7-1.7-9.4-2.4-13.9
	c0.7-4.4,0.9-8.5,2.1-12.4c1.8-5.9,5.3-10.8,10.9-13.6c2.1-1,4.8-1.2,7.2-1.5c6.4-0.8,12.6,0.2,18.5,2.7c1,0.4,2.2,0.7,3.2,0.9
	c2.7,0.7,5.3,1.4,8,2c3.3,0.8,6.5,0.8,9.7-0.5c1-0.4,2.6-0.6,3.3-0.1c0.6,0.5,0.8,2.2,0.4,3.2c-1.3,3.5-3.5,6.1-7.2,7.7
	c-7,3.1-14.3,1.7-21.4,1.5c-2.9-0.1-5.8-0.4-8.6-0.7c-6.3-0.6-11.2,3.9-12.7,10c-0.1,0.5-0.2,1-0.4,1.4c-1.7,3.3-3.5,6.5-5.1,9.8
	c-0.6,1.1-0.7,2.4-1.3,3.5c-0.5,0.9-1.3,1.6-2,2.3C110.3,128.3,109.1,127.5,108.9,126.6z M145.5,313.4c0,0.1,0.1,0.1,0.1,0.2
	c1.5,5.9,3,11.8,4.5,17.7c0.9,3.8,2.2,7.5,2.6,11.3c0.6,6.1,0.7,12.4,0.8,18.5c0.2,10.6,0.2,21.3,0.3,31.9c0,4.9,0.1,9.7,0.1,14.6
	c0,2-0.1,4-0.4,6c-0.3,1.6-1.5,2.3-3.1,2.3c-1.6-0.1-3.3,0-4.8-0.3c-2.8-0.5-4.3-2.6-4.9-5.4c-2.3-11.3-2.1-22.8-3-34.3
	c-0.7-9-1.7-18-3.2-26.8c-1-5.5-3.2-10.9-4.9-16.3c-1.6-5.2-3.2-10.3-5-15.4c-1.5-4.4-3.3-8.6-4.9-12.9c-0.5-1.4-0.8-2.8-1.3-4.2
	c-0.8-1.9-1.4-4-2.7-5.6c-0.7-0.9-2.5-1.5-3.6-1.3c-0.9,0.1-2,1.6-2.3,2.6c-0.5,1.8-0.6,3.8-0.7,5.6c-0.1,4,0,8,0,13.6
	c0.6,9-1,19.3-1.9,29.7c-0.5,6-1.9,11.8-3.4,17.6c-1.8,7-3.8,13.9-5.7,20.9c-0.4,1.3-0.6,2.6-1,3.9c-0.8,2.8-1.7,5.6-2.6,8.5
	c-0.2,0.7-0.4,1.3-0.6,2c-1.2,4.5-2.4,9.1-3.6,13.6c-0.8,2.9-3.5,3-5.7,3.1c-2.5,0.1-5-0.6-7.5-1.1c-1.5-0.3-2.1-1.7-1.9-3.1
	c0.5-3.5,1.2-7,1.8-10.6c0.2-1,0.6-1.9,0.8-2.8c1.8-8.7,3.5-17.4,5.2-26c1.6-8.1,3.9-16.2,4.8-24.4c0.8-7.9,0.7-16.1,0.3-24
	c-0.7-12.1-2.1-24.3-3.2-36.4c-0.2-2.7-0.5-5.3-0.7-8c-0.2-2,1.2-3.4,3.2-3.1c6.6,0.9,13.1,2,19.7,2.7c7.4,0.8,14.9,1.2,22.3,1.8
	c1.4,0.1,2.9,0.2,4.1,0.7c1,0.4,2.3,1.4,2.6,2.4c1.4,4.2,2.5,8.5,3.8,12.7C141.7,301.2,143.6,307.3,145.5,313.4z M177.7,245.9
	c-5.6-1-11.2-2-16.8-3.2c-4.3-0.9-8.5-1.8-12.7-3c-3.4-0.9-6.9-1.8-9.9-3.3c-2.6-1.3-5.4-2.6-7-5.4c-1.5-2.5-3.5-4.7-5.1-7.2
	c-1.2-1.8-2.1-3.8-3.1-5.7c-1.7-3.3-3.4-6.7-5.2-10.1c-1.4-2.7-2.9-5.3-4.3-7.9c-0.7-1.3-1.4-2.7-2.1-4.1c-0.5-0.9-0.9-2-1.7-2.6
	c-1.4-1-3.1-1.9-4.9-0.9c-1.8,1-2,2.9-1.7,4.7c0.4,2,1.2,3.9,2,5.7c1.5,3.1,3.2,6.1,4.9,9c1.7,3.1,3.6,6.2,5.3,9.3
	c1.6,2.9,3,6,4.8,8.8c2.2,3.4,4.3,6.9,7,9.9c2.3,2.6,5,4.8,8.7,5.7c3.4,0.8,4.1,2.5,3.4,6c-0.9,4.5-1.7,9-2.5,13.5
	c-0.7,4.3-2.4,5.4-6.6,5C119,269,107.8,268,96.6,267c-2.5-0.2-4.9-0.5-7.4-0.8c-3.5-0.5-4.8-2-4.3-5.4c0.6-4.2,1.4-8.3,2-12.5
	c0.9-5.5,1.6-11,2.6-16.5c1.4-7.8,3.1-15.5,4.6-23.4c0.8-4.3,1.1-8.7,1.8-13c0.9-5.1,1.8-10.1,3.3-15c0.9-3.1,2.6-6.2,4.5-8.9
	c3.3-4.8,8-6.9,13.9-5.9c2.9,0.5,5.6,1.6,8.5,2.4c0.5,0.2,1.1,0.5,1.6,0.5c4.2,0.3,7.6,2.6,10.5,5c2,1.6,3.2,4.9,3.7,7.6
	c0.9,5.5,1,11.1,1.4,16.6c0,0.8-0.3,1.5-0.5,2.3c-0.2,0-0.4,0.1-0.6,0.1c-1-1.9-2.1-3.7-3.1-5.6c-2.1-3.9-4.3-7.7-6.4-11.6
	c-0.4-0.8-0.6-1.8-1.2-2.5c-0.9-1-1.8-2.3-3-2.7c-3.1-1.1-5.2,0.4-5.3,3.7c-0.1,2,0.5,3.7,1.8,5.5c2,2.7,3.5,5.7,5.1,8.6
	c1.7,3.1,3.4,6.3,4.9,9.5c1.7,3.5,3.6,6.9,4.8,10.5c1.8,5.7,5.9,8.4,11.3,9.8c1.8,0.5,3.5,1.1,5.2,1.7c1.7,0.5,3.5,1.1,5.2,1.6
	c2.5,0.8,5,1.5,7.4,2.3c0.3,0.1,0.6,0.3,1,0.4c5,1.3,10,2.5,14.9,3.8c4,1.1,7.9,2.5,11.9,3.4c2.3,0.5,3.4,1.7,3.8,3.8
	c0.8,3.9-2,6.9-6,6.3C188.9,247.7,183.3,246.8,177.7,245.9z M319.7,300.4c-6.3,0-12.5,0-18.8,0c-16.2,0-32.4,0-48.6,0c0,0,0,0,0,0
	h-66.4c-3.9,0-4.2-0.3-4.2-4.3c0-11.8,0-23.5,0-35.3c0-0.6,0-1.3,0-1.9c0.2-2.1,0.9-2.6,3.1-2.3c3.8,0.6,7.5,1.1,11.3,1.5
	c4.9,0.5,8.5-2.2,11.1-5.7c2-2.7,3.6-5.8,3.9-9.4c0.5-5.2-5.3-11.4-9.5-12.8c-4.9-1.6-9.8-3.1-15-4c-3.7-0.6-5.5-1.5-4.6-6.6
	c0.5-2.6-0.1-5.5-0.1-8.2c0-5.8,0-11.6-0.1-17.3c0-2-0.2-3.9-0.4-5.9c-0.2-2.3,0.6-3.3,2.8-3.3c14.4,0,28.8,0,43.1,0.1
	c2.8,0,3.6,0.9,3.6,3.7c-0.1,9.6-0.3,19.3-0.4,29c0,3-0.3,5.9-0.4,8.9c0,1.9,0.2,3.8,2.3,4.6c2.1,0.8,3.8,0.1,5.6-1.4
	c2-1.7,4.4-2.9,6.6-4.4c0.8-0.5,1.5-1,2.2-1.6c4.6-3.6,8.2-3.2,12.5,0.6c2.9,2.5,6.1,4.8,9.4,6.8c3.3,2,6.1,0.1,6.1-3.7
	c-0.1-12.2-0.3-24.4-0.4-36.6c0-0.3,0-0.6,0-0.8c-0.3-5.1-0.3-5.1,5-5.1c10,0,20,0,30-0.1c3.5,0,6.9-0.3,10.3-0.3
	c2.7,0,3.4,1,3.4,3.6c-0.1,10.9-0.1,21.8-0.1,32.7c0,1.7-0.6,2.6-2.3,3c-5.6,1.2-11.2,2.4-16.7,3.7c-10,2.4-14.8,12.1-10.8,21.6
	c2.2,5.3,9.5,9.6,15.4,8.7c3.3-0.5,6.5-1.2,9.7-2c4.1-0.9,4.5-0.5,4.5,3.7c-0.1,11-0.1,22-0.1,33c0,1.5,0,3,0.2,4.4
	C322.9,299.6,322.2,300.4,319.7,300.4z M348.7,239.7c-7,1.6-14,2.9-21,4.5c-3.5,0.8-6.9,1.9-10.4,2.6c-3.2,0.6-6.4,0.9-9.6,1.1
	c-2.9,0.2-5.4-1.9-6-4.6c-0.4-1.9,0.1-3.3,1.9-4.5c3.5-2.3,7.3-3.1,11.3-3.7c2.9-0.5,5.8-1.6,8.7-2.4c3.9-1,7.7-2.1,11.6-3.1
	c0.6-0.2,1.2-0.3,1.8-0.5c5-1.3,10-2.7,15-4c4.4-1.2,6.6-4.8,8.6-8.4c2-3.6,4-7.2,5.9-10.8c1.5-3,2.8-6.1,4.1-9.2
	c1.7-4.1,3.3-8.3,6-12c1-1.4,1.1-3.6,1.2-5.4c0-0.7-1.1-1.9-1.9-2.1c-1.9-0.6-4-0.4-5.5,1.3c-1.4,1.6-2.8,3.3-3.7,5.1
	c-1.6,3.3-2.9,6.7-4.3,10c-0.5,1-1,2-1.5,3c-0.3-0.1-0.7-0.1-1-0.2c-0.2-0.8-0.6-1.7-0.5-2.5c0.4-5.5,0.8-11.1,1.3-16.6
	c0-0.5,0.2-1,0.5-1.4c2.4-3.1,4.5-6.7,9-7.5c5.5-1,10.9-2.2,16.3-3.2c4.6-0.8,7.4,2.2,9.9,5.3c3.1,3.8,4.9,8.4,6,13.3
	c1.7,7.8,3.7,15.4,5.3,23.2c0.9,4.3,1.1,8.8,1.8,13.2c1.8,10.7,3.7,21.3,5.4,32c0.5,3,0.7,6,1,9c0.2,2-0.7,3.4-2.9,3.8
	c-4.4,0.8-8.9,1.6-13.3,2c-9.2,0.9-18.4,1.5-27.6,2.3c-1.6,0.1-3.2,0.4-4.8,0.5c-1.5,0-2.5-0.8-2.7-2.4c-0.2-1.4-0.4-2.8-0.7-4.2
	c-0.7-3.4-1.3-6.8-2.2-10.1c-1.2-4.1-0.9-5.3,3.1-6.9c4.2-1.7,7.6-4.3,10.4-7.6c2.1-2.5,3.8-5.3,5.5-8.1c1.5-2.4,2.9-5,4.3-7.5
	c3.2-5.9,6.4-11.8,9.6-17.8c1.3-2.4,2.6-4.8,3.8-7.2c1-1.9,0.8-3.7-0.5-5.3c-1.4-1.8-3.3-2-5.2-0.7c-2.1,1.5-3.3,3.4-4.3,5.8
	c-1.3,3.3-3.1,6.4-4.7,9.6c-1.3,2.5-2.7,5.1-4.1,7.6c-2.7,4.6-5.3,9.2-8.1,13.8c-3,5-7.5,7.8-13.4,8.6
	C355.1,237.7,352,239,348.7,239.7z M420.7,413.7c-2.6,0.7-5.3,1.4-7.9,0.2c-1.1-0.5-2-1.6-2.6-2.7c-0.8-1.5-1.1-3.3-1.7-4.9
	c-0.1-0.4-0.4-0.8-0.5-1.2c-1.4-5.1-2.8-10.3-4.2-15.4c-1-3.5-2.1-7-3.2-10.5c-0.8-2.5-1.5-5-2.2-7.5c-0.1-0.2-0.2-0.4-0.2-0.6
	c-1.5-7.6-3.1-15.1-4.6-22.7c-0.7-3.7-1.4-7.5-1.7-11.3c-0.6-8.2-0.9-16.5-1.3-24.7c0.2,0,0.3,0,0.4,0c0-4.9,0-9.7,0-14.6
	c0-3.2-0.7-4.4-2.5-4.7c-2.1-0.3-4.7,1.4-5.5,3.7c-1.5,4.6-2.9,9.2-4.5,13.8c-1.5,4.4-3.3,8.6-4.9,13c-0.5,1.3-0.8,2.7-1.2,4
	c-0.2,0.7-0.3,1.5-0.5,2.3c-1.6,4.8-3.5,9.5-4.8,14.4c-1.1,4-1.5,8.2-2.3,12.2c-2.1,10.3-2,20.7-2.7,31.1
	c-0.5,7.7-1.7,15.2-2.6,22.9c-0.3,2.7-2.5,3.3-4.4,4c-2.4,0.9-4.8,1-7.1-0.4c-2.1-1.3-2.8-2.8-2.5-5.4c0.7-5.3,0.9-10.7,1-16
	c0.1-11.1-0.1-22.1,0.1-33.2c0.1-6.4,0.3-12.9,1.4-19.1c1.1-6.2,3.3-12.3,5-18.4c0-0.1,0.1-0.3,0.2-0.4c1.5-5.5,2.9-11,4.5-16.5
	c1.6-5.4,3.5-10.8,5.1-16.2c0.5-1.5,0.9-3.1,1.1-4.7c0.6-4.1,2.3-5.4,6.5-5.7c8.8-0.6,17.5-1.5,26.3-2.3c4.2-0.4,8.4-0.7,12.6-1.1
	c1.3-0.1,2.6-0.4,4-0.6c2.1-0.4,3.6,1,3.4,3.1c-0.7,6.9-1,13.8-2,20.6c-1.8,11.4-2.5,23-2.7,34.5c-0.1,6.3,0.1,12.7,0.8,19
	c0.8,6.4,2.4,12.7,3.8,19c1.6,7.1,3.4,14.2,5.1,21.3c1,4.2,1.7,8.4,2.5,12.6c0.2,1,0.5,2.1,0.6,3.1
	C425.3,411.3,424.3,412.7,420.7,413.7z"/>
<path d="M381.5,154.3c0,0.7,0,1.6-0.4,2.1c-1.1,1.3-5.7,1.4-7.7,0.2c2.5-1,4.6-1.9,6.7-2.7C380.5,153.7,381.5,154.1,381.5,154.3z"/>
<path d="M131.5,159.3c-0.1,0.3-0.1,0.6-0.2,0.9c-0.9-0.1-1.7-0.3-2.6-0.5c0.1-0.4,0.2-0.7,0.3-1
	C129.9,158.9,130.7,159.1,131.5,159.3z"/>
<path d="M124.5,156.5c-0.1,0.3-0.1,0.5-0.2,0.8c-1.4,0-2.9,0.1-4.3-0.1c-0.4-0.1-0.7-1.1-1.1-1.7c0.6-0.3,1.3-0.8,1.9-0.7
	C122,155.2,123.2,155.9,124.5,156.5z"/>
<path class="st0" d="M307.4,134.3c-4.6,4.1-9.5,8-14.2,11.9c-4.7,3.9-9.5,7.7-14.3,11.5c-2.7,2.2-5.5,4.2-8.1,6.3
	c-2.4,2-4.6,4.1-6.9,6.2c-1.5,1.4-3.3,1.4-4.4-0.2c-1.2-1.7-2.3-3.6-2.6-5.6c-0.4-2.9-0.2-5.9,0-8.8c0.2-3.2-0.8-4.5-3.9-4.5
	c-10,0-20,0-30,0c-9,0-17.9,0-26.8-0.1c-2.8,0-5.6-0.2-8.4-0.4c-2-0.1-3.5-1-4-3.1c-0.5-2.2,0.8-3.6,2.6-4.2
	c1.9-0.7,3.9-1.3,5.9-1.3c10.7-0.1,21.4-0.1,32.1-0.1v0c10.1,0,20.2,0,30.2,0c1.8,0,3.5-0.1,5.3-0.3c3.1-0.3,5.3,1.4,5.3,4.6
	c0.1,2.7-0.2,5.3-0.2,8c0,1,0.5,2,0.8,3c1-0.3,2.1-0.3,2.9-1c5.1-4.4,10.1-8.9,15.2-13.4c3.3-2.9,6.7-5.8,10.1-8.6
	c3.2-2.6,3.2-3.7,0.2-6.3c-8.2-7.2-16.4-14.4-24.6-21.6c-0.8-0.7-1.9-0.9-2.9-1.4c-0.4,1-1,2-1.1,3c-0.2,2.3,0,4.7-0.1,7
	c-0.1,3.8-1.8,5.4-5.5,5.4c-23.5-0.1-46.9-0.3-70.4-0.4c-0.8,0-1.6-0.1-2.3-0.2c-2.7-0.5-3.6-1.9-3.4-4.7c0.2-2.4,1.3-3.5,3.9-3.5
	c4.3-0.1,8.6,0,12.9,0c17.4,0,34.8,0.1,52.2,0.1c3.7,0,4.3-0.6,4.2-4.3c-0.1-3.7-0.3-7.3-0.4-11c0-2.3,0.4-4.5,2.8-5.5
	c2.5-1,4.4,0,6.3,1.7c5.8,5.2,11.7,10.3,17.6,15.4c5.9,5.1,11.8,10.2,17.7,15.3c1.7,1.5,3.6,2.8,5.4,4
	C309.8,129.2,310.3,131.7,307.4,134.3z"/>
<path class="st0" d="M315.4,380.5c-0.2,2.3-1.5,3.9-3.8,4c-10.1,0.1-20.1,0.2-30.2,0.2c-7.1,0-14.2,0-21.3-0.1
	c-4.4,0-8.7-0.2-13.1-0.3c-2.5-0.1-4.2,1.3-4.2,3.9c-0.1,3.2,0,6.5-0.1,9.7c0,1-0.3,2.1-0.6,3.1c-1,2.9-3.1,3.7-5.5,1.8
	c-3.6-2.8-7-5.8-10.5-8.7c-6.5-5.5-13.1-10.9-19.6-16.4c-3-2.5-5.9-5.2-8.9-7.8c-0.7-0.7-1.5-1.3-2.3-1.8c-2.4-1.6-2.9-4.4-0.7-6.4
	c5.6-5.2,11.3-10.4,17-15.5c5.6-5,11.4-9.9,17-14.8c2.8-2.5,5.6-5,8.5-7.5c1.4-1.2,4-0.9,5.1,0.7c0.7,1.1,1.2,2.4,1.2,3.7
	c0.2,3.7,0.1,7.5,0.1,11.2c0,3.8,0.8,4.6,4.5,4.6c20.4-0.1,40.7-0.3,61.1-0.4c0.7,0,1.4,0,2.1,0c2.8,0.2,4.2,1.7,4.2,4.3
	c0,2.8-1.4,4.4-4.2,4.5c-2.2,0.1-4.4,0-6.6,0c-4.6,0-9.2,0-13.7,0v-0.4c-9,0-18,0-27,0c-5.4,0-10.8,0.2-16.3,0.3
	c-2.6,0-5.2,0-7.8-0.1c-2.4-0.1-4.6-2.1-4.7-4.6c-0.1-2,0.2-4.1,0.2-6.1c0-1-0.4-1.9-0.6-2.9c-1,0.3-2.3,0.3-3,0.9
	c-3.5,3-6.7,6.2-10.2,9.2c-5,4.2-10.1,8.3-15.2,12.3c-2,1.6-2.2,2.6-0.2,4.4c7,6,14,12,21,18c1.7,1.5,3.3,3,5.1,4.4
	c2,1.6,3.1,1.1,3.4-1.3c0.2-2,0.3-3.9,0.4-5.9c0.2-3.5,1.5-4.9,5-4.9c4.6,0,9.3,0.2,13.9,0.2c4.8,0,9.6-0.2,14.3-0.2
	c9.9,0,19.7,0,29.6,0c3.8,0,7.6,0,11.4,0.1C313.8,375.8,315.6,377.4,315.4,380.5z"/>
<path class="st1" d="M373.4,156.5c2.5-1,4.6-1.9,6.7-2.7c0.4-0.1,1.4,0.3,1.4,0.4c0,0.7,0,1.6-0.4,2.1
	C380,157.6,375.4,157.8,373.4,156.5z"/>
<path class="st1" d="M124.3,157.3c-1.4,0-2.9,0.1-4.3-0.1c-0.4-0.1-0.7-1.1-1.1-1.7c0.6-0.2,1.3-0.8,1.9-0.7
	c1.3,0.4,2.5,1.1,3.8,1.7C124.4,156.8,124.3,157,124.3,157.3z"/>
<path class="st1" d="M129,158.7c0.8,0.2,1.7,0.4,2.5,0.6c-0.1,0.3-0.1,0.6-0.2,0.9c-0.8-0.2-1.7-0.3-2.5-0.5
	C128.9,159.4,129,159.1,129,158.7z"/>
</svg>
