<?xml version="1.0" encoding="utf-8"?>
<!-- Generator: Adobe Illustrator 24.0.1, SVG Export Plug-In . SVG Version: 6.00 Build 0)  -->
<svg version="1.1" id="Layer_1" xmlns="http://www.w3.org/2000/svg" xmlns:xlink="http://www.w3.org/1999/xlink" x="0px" y="0px"
	 viewBox="0 0 500 500" style="enable-background:new 0 0 500 500;" xml:space="preserve">
<g>
	<path d="M372.2,226.7h-15.1C327.5,132.6,243,116.6,168,172.2c-2.3-1.6-5.1-4.1-5.6-7.5c-2.4-15.5,41.2-42.6,84-44.4
		c36.6-1.5,64,15.7,73.8,22.6C361.3,172.1,370.4,216.5,372.2,226.7z"/>
	<path d="M446.5,250.2c-6.3,9.3-15.3,20.5-28,31.2c-6.5,5.5-12.8,9.9-18.7,13.5c-8.4-9.5-15.4-17.8-20.8-24.3
		c-14.5-17.4-19-23.9-16.9-29.5c1.4-3.9,5.6-6,8.8-7.2c4.6,5.3,9.2,10.6,13.7,15.8c4,4.4,8.9,8.8,12.1,7.5c7.4-3,2.2-34.8-4.4-55.9
		c-4.5-14.5-13.2-35.1-31-57.2c-25.8-30.6-50.4-37.7-65.3-42.5c-51.6-16.7-110.2-4.2-152.3,36.5c-4.7,5.2-13.4,7.9-17.4-0.3
		c-3.8-17.8,41.1-38.9,49.9-45c110.2-56,238.2,29.5,243.9,161.4c1.9,0.6,4-3,12.3-9.1c6-4.4,7.8-4.6,9-4.2
		C445.3,242,446.3,249.1,446.5,250.2z"/>
	<path d="M372.6,365.4c-113.9,130.1-299.7,26-288.8-122.5c-4.8,3.8-12.3,9.7-19.3,15.2C28.3,282.4,93,192,96,205.4
		c4-1.9,48.3,62.1,32.7,53.7c-11.4-5.9-14.2-10.8-26.4-15.4c9.3,171.9,174.5,193,242,123C352.6,356.2,362.6,353.2,372.6,365.4z"/>
	<path d="M332.1,341.9c-116.6,101.5-229.6-56.5-194-72.1c61.3,119.9,147.6,93.1,185.5,52.9C331.7,322.9,340.3,334.4,332.1,341.9z"/>
	<path d="M301,284c-1.9,7.1-10.1,9.7-15.7,4.8c-4.5-3.9-9.3-7.5-14-11.3c-6.5-5.3-13.1-10.6-19.6-15.9c-1-0.8-2-1.6-3.1-2.1
		c-6.1-2.7-8.2-7.4-8-13.9c0.3-9,0.1-18,0.1-27c0-5.7,0-11.4,0-17.1c0-5.8,0-11.7,0-17.5c0-1.1,0.3-2.2,0.6-3.2
		c1.7-5.8,8.6-7.9,13.3-4c2.7,2.3,4.3,5.1,4.2,8.7c0,2,0,4,0,6h0.5c0,13.9,0,27.7,0,41.6c0,5.1,1.7,9.6,3.8,14.1
		c0.4,0.9,1.1,1.7,1.8,2.3c3.6,2.8,7.3,5.4,11,8.2c2.7,2,5.2,4.1,8,5.9c3.4,2.3,7.1,4.1,10.4,6.4C299,273.4,302.4,278.7,301,284z"/>
</g>
</svg>
