<?xml version="1.0" encoding="utf-8"?>
<!-- Generator: Adobe Illustrator 24.0.1, SVG Export Plug-In . SVG Version: 6.00 Build 0)  -->
<svg version="1.1" id="Layer_1" xmlns="http://www.w3.org/2000/svg" xmlns:xlink="http://www.w3.org/1999/xlink" x="0px" y="0px"
	 viewBox="0 0 500 500" style="enable-background:new 0 0 500 500;" xml:space="preserve">
<style type="text/css">
	.st0{fill:#6092B6;}
</style>
<g>
	<path d="M459.9,306.8c-0.1-3.1-1.2-6-4.6-7.3c-0.7-0.3-1.5-1.5-1.5-2.3c-0.2-6.4-0.2-12.8-0.2-19.3c0-5.3,0.2-10.7-0.1-16
		c-0.2-2.7-0.5-6-2-8c-2.5-3.2-6.1-5.6-9.1-8.4c-4-3.8-8.3-7.4-11.9-11.5c-3.9-4.5-7.1-9.5-10.6-14.3c-3.9-5.4-7.9-10.7-11.5-16.3
		c-3.4-5.2-7.3-10-11.8-14.2c-3.9-3.6-8.5-6-13.8-6.2c-8.9-0.3-17.9-0.4-26.8-0.4c-6,0-12.1,0.1-18.1,0.2c-2.1,0-3.1-0.9-3-2.9
		c0.1-3.4,0.4-6.8,0.1-10.1c-0.4-5.7-1.8-11.2-5.1-16.1c-5.2-7.7-12.6-11.5-21.7-11.5c-56.5-0.3-113-0.3-169.6-0.6
		c-5.1,0-9.8,1.5-13.9,3.7c-7.3,4-11.4,10.5-11.6,19.1c-0.1,5.1-0.1,5.1-5,5.5c-0.2,0-0.5,0.1-0.7,0.1c-2.5,0.5-4.3,2.5-4.1,4.7
		c0.1,2,1.7,3.1,4.5,3.2c0.5,0,0.9,0,1.4,0c6,0,12.1,0,18.1-0.1c15.1,0,30.3,0,45.4-0.1c2.9,0,4.2-1.3,4.3-3.9c0.1-2.8-1-4.2-4-4.4
		c-1.4-0.1-2.8-0.1-4.2-0.1c-14.5,0-29,0-43.5,0c-3.7,0-5.1-1.2-4.6-4.5c0.9-5.7,4-11.6,10.5-13c2.4-0.5,5-0.9,7.4-0.9
		c19.8,0.1,39.5,0.3,59.3,0.4c17.9,0.1,35.8,0,53.6,0v0c18.8,0,37.6-0.1,56.5,0.1c4,0,8,0.1,11.6,2.9c4.6,3.6,6.1,8.4,6.1,13.8
		c0.2,12.1,0.4,24.3,0.4,36.4c0,18-0.3,36.1-0.3,54.1c0,11.9,0.3,23.8,0.4,35.7c0,3.7-0.9,4.8-4.2,4.8c-32.8,0-65.5-0.1-98.3-0.1
		c-2.1,0-4.2,0.5-6.3,0.3c-1.5-0.1-3.2-0.7-4.5-1.5c-1.5-0.9-2.5-2.6-3.9-3.7c-3.3-2.4-6.4-5.2-10.1-6.8c-5.9-2.6-12.3-4.1-18.8-2.8
		c-4.3,0.9-8.7,2-12.8,3.6c-4.3,1.6-7.7,4.7-10.8,8.1c-1.6,1.8-3.8,2.5-6.4,2.1c-3.4-0.4-6.9-0.3-10.3-0.3c-4.9,0-9.8,0.1-14.8,0.1
		c-2.5,0-3.8-1.7-3.8-4.1c0-5.4-0.1-10.8-0.3-16.2c-0.1-2.3,0.6-3.1,2.9-3.3c0.9,0,1.7,0,2.6,0c7.8,0,15.7,0,23.5,0
		c3.4,0,4.9-1.2,5-4c0.2-3.1-1.4-5-4.5-5.4c-1-0.1-2-0.3-3-0.3c-19-0.1-38.1-0.1-57.1-0.1c-3.3,0-4.9,1.5-5,4.6
		c-0.1,2.7,1.7,4.7,4.7,4.8c6.2,0.1,12.4,0.1,18.6,0c3.4-0.1,4.1,0.4,4.1,3.9c0,5.6,0.1,11.1,0.2,16.7c0.1,2.6-1.1,4-3.5,4.4
		c-3.4,0.5-6.3,3-6.4,6.5c-0.2,5.5-0.2,11.1,0.3,16.6c0.4,4.1,4.5,7.5,8.6,7.6c11,0.1,22.1,0.1,33.1,0.2c1.7,0,3.8-0.3,4.7,1.9
		c3,7.4,7.2,13.8,13.6,18.8c5.5,4.2,11.7,6.8,18.7,7.4c7.6,0.6,14.5-1.6,20.9-5.5c7.7-4.5,12.8-11.1,15.7-19.4
		c0.7-2,1.7-2.8,3.7-2.7c7.3,0,14.6,0,21.8,0c22.3,0.1,44.5,0.3,66.8,0.3c12,0,24-0.2,36-0.4c2.7,0,4.4,0.9,5.5,3.4
		c1,2.2,2.2,4.3,3.4,6.4c3.1,5.5,7.3,10,12.9,12.9c2.7,1.4,5.6,2.3,8.4,3.5c5.3,2.3,11,2.2,16.4,0.9c6.2-1.5,12.2-3.9,17.1-8.3
		c5-4.5,8.9-9.9,10.7-16.4c0.5-1.9,1.4-2.9,3.4-2.8c0.9,0,1.9,0,2.8,0c8.1,0,16.2,0,24.2,0c5.9,0,7.7-1.5,8.2-7.3
		C460.1,317.3,460.1,312,459.9,306.8z M149.5,311c-0.9,2.4-1.5,4.9-1.8,7.5c-0.2,2.2-1,3.1-3.2,3c-9.2-0.1-18.5,0-27.7,0
		c-4.2,0-5.8-1.6-5.8-5.8c0-1.4,0-2.8,0-4.2c0.1-2.9,1.3-4.1,4.3-4.1c5.4-0.1,10.8,0,16.2,0c0,0,0,0,0,0H147
		C150.1,307.3,150.5,308.1,149.5,311z M204.2,340.4c-2.3,2.4-5,4.9-8,6c-4.6,1.5-9.6,2.7-14.4,2.4c-6.9-0.4-13.2-3.3-18.1-8.7
		c-4.7-5.1-6.8-11.1-6.8-18c0.3-3,0.5-6.1,0.9-9.1c0.6-4.3,3.1-7.7,6-10.6c8.3-8.3,18.6-9.7,29.3-7c6,1.5,10.7,5.8,14.1,11.3
		c2.1,3.4,3.5,7,4.1,10.9C212.9,326.4,210.5,334.1,204.2,340.4z M351.9,311.8c-0.8,2.7-1.3,5.5-1.8,8.2c-0.3,1.5-1.1,1.9-2.5,1.9
		c-32.9,0-65.8,0-98.7,0c-8.4,0-16.8,0-25.2,0.1c-2.7,0-2.9-0.5-3.2-3.1c-0.3-2.7-1.2-5.3-1.9-7.9c-0.7-2.4-0.2-3.2,2.3-3.2h64.4
		v0.1H349C352.4,307.8,352.8,308.5,351.9,311.8z M386.3,349.2c-16.4-0.8-27.3-11-27.5-26.5c-0.2-17.8,10.6-27.8,27.9-28.7
		c16.6-0.9,28.1,14.3,28,28C414.7,337.2,403,348.8,386.3,349.2z M411.8,296c-5.5-5.2-12-9-19.2-10.8c-4.9-1.3-10-0.7-15.1,0.8
		c-3.9,1.1-7.7,2.7-11.1,4.8c-2.8,1.8-5.2,4.2-7.7,6.5c-1.9,1.8-3.9,2.5-6.6,2.3c-4.8-0.4-9.5-0.4-14.3-0.4c-1.7,0-2.8-0.7-3-2.3
		c-0.2-2,0-4-0.1-6c-0.1-8.6-0.3-17.2-0.4-25.9c0-19.4,0-38.8,0-58.3c0-3.7-0.1-7.4,0.1-11c0.2-3.5,0.5-5.1,4.9-4.4
		c3,0.5,6.1,0.2,9.1,0.2c10.3,0.2,20.7,0.3,31,0.5c6,0.1,11.1,2.1,14.7,7.3c5.3,7.4,10.7,14.8,16,22.2c6.1,8.5,12,17.2,19.5,24.6
		c3,3,6.6,5.5,10.1,8c3.1,2.2,5.4,4.4,5.1,8.7c-0.3,4.9-0.1,9.9-0.1,14.8c0,0,0,0,0,0c0,5.4,0,10.8,0,16.2c0,0.9-0.1,1.9-0.3,2.8
		c-0.2,1.6-1.1,2.2-2.7,2.2c-5.9-0.1-11.7-0.1-17.6-0.1c-1.1,0-2.3-0.1-3.3,0.1C417.3,300,414.5,298.5,411.8,296z M451.2,319
		c-0.2,1.7-1.3,2.3-3,2.3c-7.3,0-14.5,0-21.8,0.1c-1.8,0-2.7-0.6-3.1-2.4c-0.6-2.9-1.4-5.7-2.3-8.6c-0.6-2.1-0.1-3,2.1-3
		c8.5,0.1,16.9,0.2,25.4,0.3c2.2,0,3.2,0.9,3.1,3.1c0,0.9,0,1.9,0,2.8c0,0,0.1,0,0.1,0C451.6,315.4,451.4,317.2,451.2,319z"/>
	<path class="st0" d="M276.1,226c-4.8,3.9-9.7,7.6-14.6,11.3c-0.6,0.5-1.3,0.9-1.9,1.4c-8.5,6.7-16.9,13.5-25.4,20.1
		c-3.9,3.1-8,6-12.2,8.8c-3.5,2.3-6.2,1.1-6.6-3.1c-0.4-4.8-0.5-9.7-0.3-14.5c0.2-4.5-1-6-5.6-5.8c-4.6,0.2-9.2,0-13.8,0
		c-12,0-24-0.1-36,0c-12.2,0.1-24.5,0.4-36.7,0.3c-25.8-0.1-51.5-0.3-77.3-0.5c-1,0-2-0.2-3-0.4c-1.7-0.3-2.7-1.2-2.8-2.9
		c-0.2-1.9,0.2-3.6,2.1-4.2c1.4-0.5,2.9-0.8,4.4-0.8c3.4-0.1,6.9-0.1,10.4,0c21,0.2,42,0.4,63,0.4c32.4,0.1,64.8,0,97.1,0
		c5.1,0,6.5,1.4,6.4,6.4c0,3.5-0.1,6.9,0.1,10.3c0,0.8,0.5,1.7,1,2.1c0.3,0.3,1.5-0.2,2-0.6c7.2-5.8,14.4-11.8,21.7-17.6
		c5.4-4.3,11-8.5,16.5-12.8c2.1-1.6,2.1-3.2,0-4.9c-8.8-7.2-17.5-14.5-26.3-21.7c-4-3.3-8-6.5-12-9.7c-0.5-0.4-1.6-0.6-1.8-0.4
		c-0.5,0.6-1,1.5-1,2.2c0,3.4,0.2,6.9,0.3,10.3c0,5-1.2,6.3-6.2,6.3c-22.4,0-44.8,0-67.3,0v0.5c-19.5,0-39,0-58.6,0
		c-2.5,0-5,0.1-7.5-0.1c-2-0.2-3.4-1.2-3.5-3.5c-0.1-2.4,1-4.1,3.3-4.4c2.4-0.3,4.8-0.1,7.2-0.1c19,0,37.9,0,56.9,0
		c16.2,0,32.5,0,48.7,0c4.8,0,9.5-0.2,14.3-0.3c3.3-0.1,4.3-0.8,4.4-4.1c0.1-4.2-0.1-8.5,0-12.7c0-1.9,0.1-3.8,0.6-5.5
		c0.8-3.1,3-3.9,5.8-2.3c1.7,1,3.2,2.2,4.7,3.5c6.5,5.4,12.9,11,19.3,16.4c7.2,6.1,14.5,12.2,21.8,18.3c2.9,2.4,5.7,5,8.3,7.6
		C278.7,221.7,278.7,223.9,276.1,226z"/>
	<path d="M120.6,254.9c-0.3,1.5-0.6,3.4-1.2,5.1c-0.8,2-2.9,2.1-4,0.3c-2.3-3.7-2.7-7.8-1.2-11.9c0.3-0.9,2-1.9,3-1.9
		c0.9,0,2.1,1.3,2.5,2.3C120.3,250.6,120.3,252.6,120.6,254.9z"/>
	<path d="M412.6,238.8c-1.6-2.2-2.8-4.7-4.2-7c-2.5-3.9-5-7.9-7.6-11.7c-2.8-4.2-5.6-8.4-8.7-12.5c-1.9-2.4-3.2-5.7-7.2-5.7
		c-10.4,0-20.8,0-31.2,0.1c-3.2,0-4.8,1.3-5.4,4.5c-0.2,1.2-0.2,2.5-0.2,3.7c0.2,11.1,0.3,22.2,0.5,33.3c0.1,5.1,2.2,7.2,7.3,7.3
		c8.7,0,17.4,0,26.1,0v0.1c8.5,0,16.9,0,25.4,0c1.3,0,2.8,0.1,3.9-0.4c1.2-0.7,2.7-1.9,3-3.1C414.9,244.4,414.6,241.5,412.6,238.8z
		 M401.4,242.4c-6.2,0-12.4-0.1-18.5-0.1c-7.6,0-15.2,0-22.8,0c-2,0-3.1-0.7-3.1-2.9c0-4.2,0-8.3,0-12.5h0c0-4,0-8,0-12
		c0-3.6,0.8-4.2,4.3-4.2c6.5,0.1,13,0.1,19.4,0c2.9-0.1,4.8,1.6,6.2,3.6c4.7,6.9,9.2,13.9,13.8,20.9c0.9,1.4,2,2.6,2.7,4.1
		C404.2,241.2,403.3,242.4,401.4,242.4z"/>
	<path d="M372.4,266c-0.4,1.8-1.4,3.2-3.4,3.4c-1.7,0.2-3.4,0.3-5.1,0.4c0-0.2,0-0.4,0-0.6c-3.8,0-7.5,0.2-11.2-0.1
		c-1.7-0.1-3.4-1.1-4.8-2.1c-1.9-1.4-1.7-4.8,0.5-5.8c2.1-1,4.4-1.6,6.7-1.8c3.7-0.2,7.5,0,11.2,0.3c1.6,0.1,3.3,0.7,4.8,1.6
		C372.5,262.3,372.8,264.1,372.4,266z"/>
	<path d="M386.7,303.5c-8.8,0.2-19.3,8.8-19,18.2c0.3,9.4,7.6,18.5,18.5,18.4c10.8-0.1,19.3-9,19.5-17.6
		C406,312.6,396.3,303.4,386.7,303.5z M386.7,331.3c-5.5,0-10.3-4.2-10.3-9.1c0-6.2,4.5-9.4,10.3-9.5c6-0.1,9.5,3.6,9.8,9.4
		C396.7,327,392,331.2,386.7,331.3z"/>
	<path d="M184.1,303.5c-8.5,0.6-19,7.9-18.7,18c0.3,8.9,8.3,18.7,18.7,18.6c10.2-0.1,19.2-9.3,19.2-18.5
		C203.2,311.9,193.9,303.8,184.1,303.5z M184.4,331.2c-5.5,0.1-10.2-4.2-10.4-9.1c-0.2-4.4,4.1-9.3,10-9.3c6.4,0.1,9.6,3.3,9.9,9
		C193.9,326.9,189.7,331.1,184.4,331.2z"/>
</g>
</svg>
