<?xml version="1.0" encoding="utf-8"?>
<!-- Generator: Adobe Illustrator 24.0.1, SVG Export Plug-In . SVG Version: 6.00 Build 0)  -->
<svg version="1.1" id="Layer_1" xmlns="http://www.w3.org/2000/svg" xmlns:xlink="http://www.w3.org/1999/xlink" x="0px" y="0px"
	 viewBox="0 0 500 500" style="enable-background:new 0 0 500 500;" xml:space="preserve">
<style type="text/css">
	.st0{fill:#6092B6;}
</style>
<path d="M350.2,88.2c-3.3-6.9-8.1-12.7-15.5-16.1c-3.3-1.5-6.6-2.7-10.3-2.7c-7.2,0-14.5,0-21.7,0c-29.3-0.1-58.6-0.2-87.9-0.3
	c-12.9,0-25.8,0-38.8,0c-5.2,0-10.1,1.5-14.5,4.3c-3.7,2.3-6.8,5.4-9.2,9.1c-1.1,1.7-2.5,3.5-3,5.4c-1.1,4.2-2.1,8.4-2.6,12.7
	c-0.4,3.7-0.1,7.4-0.1,11.2c0,82.7,0,165.4,0,248.1c0,4.3-0.3,8.7-0.3,13c0,6.8,0.5,13.5,0.2,20.3c-0.3,5.4,0.3,10.5,1.8,15.7
	c1.6,5.3,4.3,10,8.1,13.7c5.4,5.2,12.1,8.3,19.7,8.4c24,0.1,48.1,0,72.1,0v0c23.8,0,47.7,0,71.5,0c2.6,0,5.3,0,7.8-0.6
	c10.5-2.4,17.7-9.2,22.2-18.6c2-4.1,2.4-9.2,2.8-13.9c0.4-4.5-0.3-9.1-0.3-13.6c0-4.9,0.3-9.8,0.3-14.7c-0.1-56-0.2-112-0.3-168.1
	c0-7.2,0.3-14.3,0.3-21.5c0-13,0-26.1,0-39.1c0-8.8,0-17.7,0.1-26.5c0-2.8,0.1-5.7,0.3-8.5C353.8,99.6,352.8,93.6,350.2,88.2z
	 M343.3,402c-0.1,2-0.8,4-1.5,5.9c-1.9,4.6-4.7,8.6-9.1,10.8c-3.3,1.6-7.2,2.7-10.9,2.9c-7,0.4-14,0.1-20.9,0.1v0.4
	c-40.3,0-80.5,0-120.8,0c-6.9,0-13.3-1.6-18.2-6.9c-3.7-3.9-5.9-8.7-6.2-14.1c-0.4-7.3-0.3-14.6-0.3-21.9c0-2,1.3-3.1,3.4-3.1
	c48.7,0.1,97.4,0.3,146.1,0.4c11.7,0,23.4,0,35,0c3.2,0,4,0.7,3.9,3.9C343.7,387.6,343.6,394.8,343.3,402z M343.8,363.1
	c0,0.8-0.1,1.5-0.2,2.3c-0.3,1.8-1.2,2.6-3.1,2.6c-2-0.1-4,0-6,0c-23.3,0.1-46.5,0.2-69.8,0.3c-4.3,0-8.6-0.3-12.8-0.3
	c-29.8,0.1-59.5,0.2-89.3,0.3c-1.2,0-2.3,0.2-3.5,0.3c-2.1,0.2-3.3-0.6-3.7-2.7c-0.1-0.7-0.1-1.5-0.1-2.3c0-9.9,0-19.8,0-29.6
	c0-5.6,0.3-11.3,0.3-16.9c0-7.9-0.3-15.8-0.3-23.8c0-6,0.3-12,0.3-18c0-48.5,0-97,0-145.5c0-2.6-0.1-5.2,0-7.8c0-2,1.4-2.8,3.2-2.8
	c24.2,0.1,48.5,0.3,72.7,0.4c30.5,0.1,60.9,0,91.4-0.1c5.6,0,11.2-0.2,16.8-0.3c3.4-0.1,4.2,0.6,4.2,4c0,16,0,32.1,0,48.1
	c0,0,0,0,0,0c0,15.8,0,31.6,0,47.5c0.1,18.6,0.3,37.1,0.3,55.7C344.1,304,344,333.6,343.8,363.1z M344.2,107.9c-0.1,2.3-1.1,3-3.6,3
	c-2.9,0-5.8,0-8.7,0h-70.4v0h-77.1c-6.6,0-13.3,0-19.9,0c-1.8,0-3.6,0.2-5.4,0.3c-2.9,0.2-4.1-0.9-4-3.8c0.1-3.2,0.1-6.5,0.5-9.7
	c1-8.4,5.4-14.5,13.1-18.3c3.3-1.6,6.7-2.2,10.2-2.2c46,0,92,0,138,0c5.4,0,10.7,0.5,15.4,3.2c2.6,1.5,4.9,3.6,6.9,5.9
	c2.9,3.3,4.7,7.3,4.9,11.8C344.3,101.4,344.4,104.7,344.2,107.9z"/>
<path d="M334.2,252.5c-5.4,7.5-10.8,15.1-16.2,22.7c-2.9,4.2-5.8,8.4-8.8,12.5c-2.2,3.1-5.7,3.7-9.6,2.2c-5.6-2.1-11.2-4-16.9-6
	c-4-1.4-8-2.8-12.1-4.2c-0.8-0.3-1.5-0.7-2.3-0.9c-5.4-1.5-10.7-3-16.1-4.5c-4.8-1.3-9.7-2.7-14.5-4.1c-2.9-0.8-3.6-0.7-5.1,1.9
	c-4.4,7.3-8.7,14.7-13.2,22c-3.6,5.9-7.5,11.5-11.1,17.4c-2.7,4.4-5.2,8.9-7.8,13.4c-1.2,2.1-2.5,4.1-3.8,6.2
	c-0.8,1.4-1.7,2.8-2.4,4.3c-0.9,1.9-2.4,2.8-4.3,2.6c-1-0.1-2.3-0.9-3-1.7c-1.1-1.6-1.1-3.4,0.1-5.2c1.9-2.8,3.8-5.7,5.6-8.6
	c3-4.9,6-9.7,8.9-14.7c1.7-2.8,3.1-5.7,4.8-8.5c1.4-2.4,2.9-4.7,4.3-7c1.8-2.9,3.5-5.8,5.3-8.6c2.6-4,5.1-8.2,7.9-12.1
	c2.2-3.1,1.6-5.2-2-6c-1.7-0.4-3.4-1-5.1-1.5c-5.8-1.8-11.7-3.4-17.2-5.7c-3.9-1.6-8.3-1.8-11.6-4.6c-1.2-1-2.5-0.6-3.5,0.6
	c-1.9,2.4-3.8,4.8-5.5,7.2c-3,4.2-6,8.4-9,12.6c-1,1.4-2.4,2.1-4.2,1.4c-1.7-0.7-2.4-2-2.7-3.9c0.8-1.8,1.5-3.7,2.6-5.3
	c5.9-8.4,12-16.7,17.9-25.1c3.1-4.4,5.9-9,8.7-13.5c1.6-2.5,2.9-5.1,4.5-7.6c1.7-2.6,3.9-4.7,7-5.6c2.1-0.7,4,0,5.5,1.4
	c1.4,1.3,1.5,3.2,0.3,4.6c-4.5,5.4-9.1,10.7-13.6,16.1c-1.6,2-3.2,4-4.5,6.2c-1.4,2.6-0.6,4.1,2.2,5c4.4,1.4,8.9,2.8,13.3,4.2
	c5.5,1.7,11,3.5,16.5,5.2c5.2,1.5,10.5,2.8,15.7,4.4c4.7,1.4,9.3,3.1,13.9,4.6c1,0.3,2,0.5,3,0.8c5.8,1.8,11.6,3.6,17.4,5.3
	c5.5,1.7,11.1,3.3,16.6,5c3.7,1.1,7.4,2.3,11,3.6c1.6,0.6,2.8,0.2,3.8-1.2c3.3-4.8,6.7-9.6,10-14.5c4.1-6.1,8.2-12.2,12.4-18.3
	c1.4-2,4.3-2.3,6.2-0.8C335.2,247.4,335.5,250.7,334.2,252.5z"/>
<path class="st0" d="M318,165.1c-5.5-8.6-13-14.5-23.4-16.7c-10.2-2.3-19.6-0.7-27.8,5.2c-9.9,7.1-15.5,17.2-16.2,30.7
	c0.4,2.3,0.6,5.7,1.6,8.8c1.3,3.9,3,7.6,4.8,11.4c1.3,2.8,2.8,5.5,4.5,8.1c2.5,3.9,5.2,7.6,7.9,11.3c4.2,5.6,8.5,11.2,13,16.6
	c2.6,3,5.7,2.5,8.1-0.8c1.7-2.3,3.6-4.6,5.3-6.8c3.3-4.2,6.7-8.3,9.7-12.6c3.9-5.6,7.5-11.4,11-17.2c2.5-4.2,4.5-8.7,5.4-13.5
	C323.7,180.8,322.7,172.5,318,165.1z M312.8,190.5c-1.6,6.3-5,11.8-8.6,17.1c-3.2,4.6-6.8,9-10.2,13.5c-1.7,2.2-3.3,4.4-5,6.6
	c-0.6,0.8-1.1,1.6-1.8,2.2c-1.1,1-2.3,0.9-3.2-0.4c-4.5-6.5-9-13-13.5-19.6c-2.6-4-5.2-8-7.4-12.1c-2.4-4.4-3.5-9.2-3.9-13.7
	c0.6-10,4.1-17.9,12-23.3c7.9-5.5,16.9-6.3,25.5-3.1c10.6,3.9,17.2,11.9,17.6,23.7C314.3,184.4,313.5,187.5,312.8,190.5z"/>
<path d="M323.3,338.1c-1.7,1.7-3.8,2.5-6.2,2.4c-6.3-0.1-12.5-0.3-18.8-0.3c-7.1,0-14.2,0.2-21.3,0.3c-1.1,0-2.2,0-3.3,0
	c-1.8,0-3-0.8-3.6-2.5c-0.7-1.7-0.5-3.4,1-4.5c1.2-0.8,2.7-1.5,4.1-1.6c2.7-0.3,5.5-0.1,8.3-0.1v-0.4c11.4,0,22.9,0,34.3,0
	c2.5,0,4.3,0.9,5.7,2.8C324.5,335.5,324.6,336.8,323.3,338.1z"/>
<path d="M228.1,183.4c0.2,2.1-1.5,4.3-3.8,4.8c-0.8,0.2-1.7,0.2-2.5,0.2c-7.2,0-14.4,0-21.5,0c0,0,0,0,0,0c-7.4,0-14.8,0-22.2,0
	c-2.4,0-3.9-1.1-4.5-3.3c-0.6-2.1,0-3.9,1.8-5.1c0.6-0.4,1.4-0.6,2.1-0.6c14.8,0.1,29.6,0.2,44.3,0.3c0.6,0,1.1,0,1.7,0
	C226.2,179.8,227.9,181.3,228.1,183.4z"/>
<path d="M328,313.5c-0.1,1.9-1.2,3.4-3.2,3.7c-1.3,0.2-2.7,0.2-4.1,0.2c-6.2,0-12.4,0-18.6,0.1c-4.6,0-9.1,0.3-13.7,0.2
	c-3.8-0.1-5.8-2.2-5.4-5.1c0.3-2.3,1.7-3.5,4.3-3.6c6-0.1,12,0,18,0c5.5,0,11,0,16.6,0c1,0,2.1,0,3.1,0.3
	C326.8,309.8,328,311.6,328,313.5z"/>
<path d="M210,208.9c-1.4,0.3-2.9,0.6-4.3,0.5c-10.2-0.1-20.4-0.2-30.6-0.4c-1.9,0-3.7-0.5-4.4-2.5c-0.6-1.7-0.2-3.4,1.3-4.4
	c0.8-0.5,1.9-0.8,2.9-0.9c2.2-0.1,4.4,0,6.6,0v-0.4h25.8c3,0,4.7,1.2,5.3,3.6C213.2,206.7,212.3,208.4,210,208.9z"/>
<path d="M265.4,399.4c0.7-9.1-8.2-17.3-15.5-17.5c-10-0.3-17.2,9-17.6,16.9c-0.3,7.6,6.8,16.4,16.5,16.5
	C256.4,415.4,266.3,407.6,265.4,399.4z M249.3,406.5c-4.5,0-7.9-3.2-7.9-7.5c0-4.3,3.8-8.1,8-8.2c3.7,0,7.8,4,7.8,7.8
	C257.2,402.8,253.5,406.5,249.3,406.5z"/>
<path d="M274.3,95.6c-0.6,1.8-2,2.8-3.9,2.9c-5.3,0.1-10.6,0-15.9,0.1c-0.7,0-1.4,0-2.1,0v0.3c-6.8,0-13.7,0-20.5,0
	c-2.2,0-4.5,0.1-6.3-1.5c-1.3-1.2-2.4-2.5-1.6-4.5c0.8-2,2.6-3.3,4.6-3.3c13.5,0.1,27.1,0.1,40.6,0.3c1.3,0,2.7,0.4,3.8,1.1
	C274.5,92,274.9,93.8,274.3,95.6z"/>
<path class="st0" d="M287.2,163.6c-11-0.3-20.2,9-20.3,20c-0.1,11,9.4,20.3,19.8,20.5c10.6,0.1,20.3-9.4,20.3-21.4
	C306.8,172.6,297.7,163.9,287.2,163.6z M287,195.1c-7.2-0.2-11.2-4.7-11.5-10.9c-0.3-6.1,4.4-12,11.3-11.9c6.6,0.2,11.8,5,11.8,11.3
	C299.3,189.1,293.4,195.3,287,195.1z"/>
</svg>
