<?xml version="1.0" encoding="utf-8"?>
<!-- Generator: Adobe Illustrator 24.0.1, SVG Export Plug-In . SVG Version: 6.00 Build 0)  -->
<svg version="1.1" id="Layer_1" xmlns="http://www.w3.org/2000/svg" xmlns:xlink="http://www.w3.org/1999/xlink" x="0px" y="0px"
	 viewBox="0 0 500 500" style="enable-background:new 0 0 500 500;" xml:space="preserve">
<path d="M423,243.1c0.3-57.8-37.9-13.8-48.7-51.3c-13.9-20.1,36.4-29.3,9.3-55.5c-58.4-65.9-54.9-19-74.2-14.3
	c-5.4,1.3-10.7-1.3-10.7-1.3c-5.3-2-8.5-5.4-9.9-7.1c3.1-21.2-4.8-30.5-6.9-32.7c-12.9-13.6-35.2-8.7-56.4-8.1
	c-6.1,0.2-10.8-0.5-15.2,5.5c-9.9,9.2-3.4,20.4-5.5,34.4c-30.7,38.8-36.7-22.3-63.3-7.1c-84.4,67.6-8,52.2-23.7,89.5
	c-12,31.5-55-12.8-50.1,61.1c2.3,56.5,43,14.1,51.8,49.2c-6.7,41.9-41.8,26.5,0.1,68.3c47.5,43.6,44.9-7.6,71.6-1.8
	c36.1,14.1-20.9,60.1,67.8,52.9c49.9,0.3,8.9-45.3,42.6-52.1c27.9-1,27,47.7,70,0c47.7-37.2-3.6-40.8-1.3-64.8
	c12.2-43.8,55.1,8.9,52.3-57c0.1,0,0.3,0,0.4,0C423,248.3,423.1,245.7,423,243.1z M403.8,264c-5.2,17-38.2-7.8-41.4,15.8
	c0,14-13.1,23.2-14,37.9c2.3,19,49.7,21.3-6.7,53.6c-24.7-7.4-9.6-34.9-45-16.3c-65.4,17.3,2,52.8-50.9,50.6v-0.1
	c-42.7,4.6-5.1-31.4-30.6-42.7c-62-27.1-28.9-6.7-65.9,8.4c-63.5-36.8,2.4-35.5-9.8-63.9c-16.8-31.8-4.4-38.9-41-37.2
	c-16.7,4.8-13.9-43-3.7-42.3c9.5-3.6,18.4,6,27.6-0.5c43.6-82.9-3.4-47.2,2.4-80.4c42.7-50.4,26,4.8,59.9-0.1
	c39.6-23.6,42.7-5.7,40.2-50.3c15.3-0.7,30.5-1.4,45.8-2.2c0.7,11.8,1.4,23.6,2.1,35.4c57.9,23.9,30.6,21,69.4-6.5
	c9.3,6.9,33.1,23.9,25.4,33.2c-28.1,28-19.1,18.4-6.6,51.3C370.5,255.7,410.7,191,403.8,264z"/>
<path d="M328,229.7C305.1,154.4,213.7,142,173.7,207c-32.5,56.9,10,123.3,72.2,125.3c0-0.1,0-0.2,0.1-0.4
	C295.6,332.9,342.9,280.5,328,229.7z M308.8,264.6c-23.4,77.4-133.6,55.7-128.2-24.2c17.1-86.4,132-65.1,129.5,6.8
	c0.3,0,0.5,0,0.8,0C310.3,253,309.9,258.9,308.8,264.6z"/>
</svg>
