<?xml version="1.0" encoding="utf-8"?>
<!-- Generator: Adobe Illustrator 24.0.1, SVG Export Plug-In . SVG Version: 6.00 Build 0)  -->
<svg version="1.1" id="Layer_1" xmlns="http://www.w3.org/2000/svg" xmlns:xlink="http://www.w3.org/1999/xlink" x="0px" y="0px"
	 viewBox="0 0 500 500" style="enable-background:new 0 0 500 500;" xml:space="preserve">
<style type="text/css">
	.st0{fill:none;stroke:#6092B6;stroke-width:4.3543;stroke-miterlimit:10;}
</style>
<g>
	<path d="M462.1,261.6c-1.1-14.9-2.1-29.8-3.2-44.6c-0.3-4.2,0.1-8.8-1.4-12.6c-3-7.5-6.8-14.6-10.8-21.6c-4-6.9-8.6-13.5-13.1-20.1
		c-5.8-8.5-13.2-14.7-23.5-17.6c-10.1-2.8-20-3.9-30.3-2.3c-1.3,0.2-2.7-0.2-4.8-0.4c1-1,1.3-1.4,1.7-1.5
		c11.1-4.1,16.7-13.7,22.8-22.8c3.1-4.7,4.4-10.2,5.1-15.9c1.7-13.2-0.6-25.2-9-35.8c-4.6-5.8-10.4-10.5-17.4-12.1
		c-13.9-3.2-27.6-2.8-39.3,6.9c-4,3.4-7.5,7.6-10.8,11.8c-2.6,3.3-4.3,7.2-6.6,10.8c-3.6,5.7-2.2,10.3,4.4,11.5
		c0.6,0.1,1.3,0.2,1.9,0.2c2.6,0,3.3,1.4,3.3,3.7c-0.2,8.4-0.6,16.8,3.8,24.5c2,3.6,3.9,7.3,6.5,10.5c4.3,5.3,10.3,8.1,17,9.6
		c1,0.2,1.9,0.8,2.8,1.1c0,0.3-0.1,0.5-0.1,0.8c-0.9,0.3-1.8,0.7-2.7,0.8c-8.4,1.1-14.7,6-19.8,12.1c-6.4,7.6-12.1,15.7-18.1,23.7
		c-1.2,1.6-2.4,2.3-3.5,0.1c-1.3-2.4-3.4-3.3-5.9-3.4c-2.5-0.1-5-0.4-7.5-0.4c-23.3-0.1-46.6-0.1-70-0.2c-9.2,0-18.4-0.3-27.6-0.5
		c-4-0.1-7.9-0.1-11.9,0.1c-5.1,0.2-6.3,1.5-7.1,6.2c-0.1,0.8-0.7,2-1.3,2.2c-0.8,0.2-2.1-0.1-2.7-0.6c-3.9-3.9-7.8-7.8-11.3-12.1
		c-6.5-8-13.1-16-20.9-22.7c-3-2.6-6.2-4.9-10.6-4.7c-1.1,0-2.3-0.6-3.5-0.9c1.3-1.2,2.5-1.7,3.8-2.2c2.8-1.1,5.9-1.8,8.5-3.3
		c6.8-3.9,11.2-10.2,13.6-17.2c2.3-6.4,2.7-13.4,3.5-20.3c0.4-3.3,0.9-4.8,3.7-5.1c5-0.7,7-3.4,5.6-8.3c-0.8-2.8-2.4-5.5-3.7-8.2
		c-4.2-8.8-10.4-15.9-18.7-20.9c-4-2.4-8.5-4.8-13-5.6c-9.2-1.6-18.4-1.6-27.2,2.9c-4.2,2.1-8,4.5-11,8c-6.7,7.8-10.1,17-10.1,27.3
		c0,2.7,0.1,5.4,0,8c-0.1,4.2,0.2,8.3,2.4,12c1.6,2.8,2.8,5.7,4.4,8.5c4.8,9,10.8,16.9,21.3,19.8c0.7,0.2,1.3,0.8,2,1.2
		c-0.1,0.3-0.1,0.6-0.2,1c-1.2,0-2.4,0.1-3.6,0c-1.7-0.1-3.5-0.4-5.2-0.4c-8.2-0.2-16.3,0.5-24.3,3c-6.4,2-12.3,4.7-16.6,9.8
		c-4.9,5.8-9,12.2-13.2,18.5c-3.6,5.3-6.9,10.8-10.1,16.4c-1.9,3.4-3.9,6.9-4.6,10.6c-1.6,9.1-2.7,18.4-3.7,27.7
		c-1,9.6-1.4,19.3-2.2,28.9c-0.5,5.8-1.6,11.5,0.7,17.4c2.8,7,13.1,12.4,20.8,7.9c1.4-0.8,2.3-0.5,2.7,1c0.2,0.9,0.4,1.8,0.5,2.7
		c0.8,7.6,1.8,15.2,2.4,22.8c0.8,11.6,1.9,23.2,1.9,34.8c-0.1,19.9-1,39.8-1.6,59.7c-0.3,8.6-0.8,17.1-0.9,25.7
		c-0.1,9.6,3.8,15.2,12.1,17.1c5.5,1.3,11.5,0.5,17.3,0.6c1.2,0,2.6-0.3,3.7-0.9c5.7-3.2,9.1-8,9.4-14.7c0.3-6.9,0.6-13.8,0.7-20.7
		c0.2-21.9,4-43.7,3.3-65.7c0-1.3,0.4-2.7,0.7-4.1c0.3,0,0.6,0,0.9,0c0.3,0.8,0.7,1.6,1,2.4c0.9,3,2,6,2.7,9
		c1.5,6.6,3.1,13.3,4.1,20c0.8,5.6,0.8,11.4,1.3,17.1c0.8,9.1,1.8,18.1,2.6,27.2c0.6,7.1,0.7,14.2,3.7,20.8c0.9,1.9,2.2,4,3.9,5.2
		c3.5,2.5,7.4,4.1,11.8,4.1c3.6,0,7.2,0.1,10.8,0c6.3-0.2,14.3-5.7,13.6-14.1c-0.5-5.4-1-10.8-1.4-16.2c-0.8-9.5-1.8-19.1-2.4-28.6
		c-0.6-9.9-0.7-19.9-1.3-29.8c-0.2-3.5-0.9-6.9-1.8-10.3c-1.5-6-3.3-11.9-5-17.8c-1.7-5.6-3.3-11.3-5.1-16.9
		c-2.9-8.8-5.9-17.6-9-26.3c-2.5-7.1-1.3-14.3-0.7-21.4c0.6-6.8,2-13.5,2.9-20.2c1.7-12.1,3.4-24.2,5.1-36.4
		c0.4-2.7,1.7-3.1,3.7-1.3c5,4.4,9.7,9.1,15,13.1c4.5,3.4,9.5,6.1,14.6,8.6c3.4,1.7,4.4,2.2,4.3,6.1c-0.1,8.2-0.4,16.4-0.5,24.6
		c0,4.1,0.2,8.3,0.5,12.4c0.2,3,1.8,4.9,4.7,5.3c2.4,0.3,4.9,0.3,7.4,0.1c1.8-0.1,2.8,0.3,3.3,2.1c2,7,5.9,10,13.2,10.3
		c2.4,0.1,3.4,1.1,3.8,3.3c0.8,4.3,1.4,4.7,5.8,5.7c1.1,0.3,2.5,1.3,3,2.4c1.7,4.1,3.3,5.2,7.8,4.6c2.5-0.4,4.1,0.7,5.9,2.3
		c1.4,1.2,3,2.4,4.7,2.9c4.1,1.1,7.7-0.3,11.3-2.4c3.5-2.1,7.1-3.9,10.7-5.7c2.1-1.1,4.3-2.2,6.5-3.4c2.3-1.3,4.4-3.1,6.9-3.8
		c4.9-1.3,8-4.1,9.9-8.7c0.5-1.2,1.9-2.6,3-2.8c3-0.4,4.5-2.2,5.7-4.6c2.2-4.1,4.6-7.9,10.3-6.4c0.2,0.1,0.4,0,0.6,0
		c5.2-0.3,6.7-1.7,6.7-6.9c-0.1-11-0.2-21.9-0.6-32.9c-0.1-3.5,1.3-5.4,4.1-6.7c2-0.9,4.2-1.6,5.9-3c5-4.3,9.8-8.9,14.6-13.4
		c1.3-1.2,2.2-2.7,3.5-3.9c1.9-1.9,2.7-1.7,3.3,0.9c1.3,5.8,2.5,11.7,3.6,17.6c1.5,8.3,2.8,16.7,4.1,25c0.8,5.5,0.9,11,2,16.4
		c1.1,5.4,1.8,10.3-0.3,15.8c-3.7,10-6.3,20.5-9.3,30.8c-0.1,0.4-0.3,0.9-0.5,1.3c-1.9,6.1-3.8,12.2-5.7,18.4
		c-1.3,4.3-3.2,8.6-3.6,13c-1.6,16.1-2.7,32.3-3.9,48.5c-0.5,6.9-0.9,13.8-1.6,20.7c-0.6,5.9-1.5,11.9-2.3,17.8
		c-0.6,4.8,5.5,12.5,10.6,13.3c8.7,1.4,17.5,1.6,25.1-3.5c2.7-1.8,5.3-5.3,6-8.4c1.6-7.3,2.3-14.9,3-22.4c0.7-7.5,0.8-15.1,1.5-22.6
		c1.4-14.6,2.9-29.1,7-43.3c0.3-1,0.8-1.9,1.2-2.8c0.3,0,0.7,0,1,0.1c0.3,1.8,0.8,3.6,0.9,5.4c0.2,4,0,8.1,0.3,12.2
		c0.6,10.5,1.5,21,2,31.4c0.5,9.7,0.5,19.4,1.3,29c0.4,5.7,1.5,11.3,2.7,16.9c1,4.4,4.4,7.3,8.5,8.1c5.1,1,10.4,1.3,15.6,1.1
		c8.5-0.3,16.5-6.7,15.7-17c-0.5-6.2-0.5-12.5-0.8-18.8c-0.7-14.3-2-28.5-1.9-42.8c0.2-20.7,1.3-41.4,2.2-62.1
		c0.3-6.6,1.3-13.2,2.2-19.8c0.4-3,1.4-4,4.7-3.3c3.7,0.8,8.4,1.2,11.5-0.5C460.2,278.6,462.8,270.7,462.1,261.6z M103,105.7
		c-2.2-5.8-1.8-11.9-0.4-17.7c1.2-5,2.1-10.3,5.8-14.5c2.6-3,5.2-5.9,9.3-7c4.4-1.2,8.8-2.4,11.9-3.3c10.6,0.9,18.7,4,24.8,11.1
		c2.5,2.9,4.9,5.8,7.1,8.8c0.5,0.7,0.3,2,0.4,3c-1,0.1-2.1,0.6-2.9,0.3c-6.5-3.2-13.6-2.9-20.6-3.6c-3.5-0.4-7.2-0.1-10.7-0.1
		c-7.8-0.1-11.3,5.2-14.2,11.2c-2,4.1-3.5,8.5-5.8,12.4C105.9,109.5,104.3,109.2,103,105.7z M116,126.8c-1.1-1.2-2.3-2.4-3.3-3.7
		c-2-2.6-1.8-5.5,1-7.1c3.4-2,4.7-5,6-8.5c1.6-4.3,3.8-8.4,6.1-12.5c1.1-1.9,3.1-2.3,5.4-1.9c7.1,1.1,14.3,2.1,21.5,3.2
		c2.7,0.4,3.2,1.5,3.2,7.3c-0.4,2.9-0.4,7.2-1.5,11.3c-1.7,6.1-4.7,11.7-10,15.4c-2,1.4-4.7,2.5-7.1,2.6
		C129.4,133.3,121.8,133,116,126.8z M141.8,317.2c1.5,4.2,3.2,8.4,4.4,12.7c1.8,6.2,3.5,12.4,4.8,18.6c2.5,11.9,2.8,23.9,3.2,36
		c0.4,14.9,1.4,29.8,3.6,44.6c0.7,4.5-1.3,6.9-6,7.2c-4,0.3-7.9,0-11.6-1.8c-1.9-0.9-2.9-2.1-3.1-4.1c-1.1-13.1-2.2-26.2-3.5-39.4
		c-1-10.1-1.9-20.2-3.6-30.2c-1.1-6.1-3.6-11.9-5.5-17.9c-1.7-5.4-3.5-10.8-5.3-16.2c-1.3-3.7-2.6-7.4-3.9-11.2
		c-1.4-4.1-2.7-8.2-4.1-12.2c-0.5-1.4-1.2-2.8-2.1-3.8c-0.9-0.9-2.6-2.1-3.5-1.9c-1.1,0.3-2.3,2-2.7,3.3c-0.6,1.8-0.6,3.8-0.6,5.7
		c-0.1,3.5,0,7,0,10.5c0.1,0,0.3,0,0.4,0c-0.8,14.9-1.7,29.8-2.5,44.7c-0.3,4.6-0.4,9.2-0.6,13.8c-0.7,15.6-1.5,31.1-2.2,46.7
		c-0.1,2.9-0.2,5.7-0.6,8.5c-0.4,3.5-2.6,5.9-6,6.2c-4.6,0.4-9.3,0.9-13.1-2.7c-1-1-2-2.6-2-3.9c0.4-14.5,0.8-28.9,1.6-43.4
		c1.2-20.3,1.9-40.5,0.7-60.8c-0.9-14.3-2.2-28.7-3.3-43c-0.1-1.6-0.6-3.3-0.5-4.9c0.1-1.9,1-3.2,3.1-3c7.3,0.7,14.6,1.4,21.9,2
		c9.2,0.8,18.4,1.3,27.5,2.3c1.5,0.2,3.5,2,4,3.6c2.2,5.9,3.9,12.1,5.9,18.1C138.1,306.8,140,312,141.8,317.2z M186.8,209.4
		L186.8,209.4c0.1,2.4,0.1,4.8,0,7.2c0,1-0.2,2.7-0.7,2.9c-1,0.4-2.7,0.3-3.5-0.3c-3.6-2.7-7.2-5.4-10.4-8.5
		c-6-5.9-11.9-12-17.6-18.2c-2-2.2-3.3-5.1-5.2-7.4c-2.4-3.1-5.6-2.6-6.5,1.2c-1.4,5.8-2.2,11.7-3.1,17.6c-0.7,4.5-1.3,8.9-2,13.4
		c-0.9,6.2-1.6,12.4-2.5,18.6c-1.5,9.8-3.2,19.6-4.8,29.4c-0.4,2.5-1.8,3.7-4.4,3.6c-7.9-0.4-15.8-0.6-23.7-1.1
		c-8.4-0.6-16.7-1.5-25-2.3c-2.7-0.3-3.7-1.8-3.3-4.6c1.5-8.6,3-17.2,4.5-25.8c1.6-9.1,2.9-18.2,4.6-27.2c1.4-7.1,3.3-14.1,5-21.2
		c0.5-2,0.8-3.8-0.9-5.4c-2.2-2.1-5-1.6-6.4,1.1c-3.8,7.3-6.9,15.2-11.8,21.7c-5.7,7.6-6.4,15.8-6.8,24.5
		c-0.6,12.7-1.1,25.4-1.7,38.1c-0.2,4.2-2.6,6.8-6.2,6.7c-3.6-0.1-5.6-1.9-5.4-5.5c0.9-12.7,2-25.3,2.9-38
		c0.5-6.2,0.6-12.5,1.5-18.7c0.9-6.2,2.7-12.1,6.1-17.5c4.4-6.9,8.3-14,12.7-20.9c2.4-3.8,4.9-7.7,8-10.9c2.4-2.5,5.7-4.9,9-5.6
		c7.2-1.6,14.5-3.7,22.1-3.1c1.2,0.1,2.4,0.2,3.6,0.4c6.7,0.8,13.3,2.2,20,2.3c4.7,0.1,8.4,1.8,11.4,4.7c5.2,5.1,10,10.8,15,16.1
		c5.8,6.2,11.6,12.3,17.6,18.4c1.7,1.7,3.9,2.8,5.9,4.1c1.8,1.2,2.6,2.7,2.3,4.9C186.6,205.7,186.8,207.6,186.8,209.4z M244.5,190.9
		c0.1-0.9,1.6-2.2,2.6-2.4c2-0.4,4.2-0.1,6.3-0.1v0c2.1,0,4.2-0.1,6.3,0c1.7,0.1,2.6,0.9,2.6,2.8c-0.1,2.7,0,5.5,0.1,8.2
		c0.1,4-1.1,4.6-4.9,3.7c-2.7-0.7-5.8-0.4-8.6,0.2c-3.4,0.7-4.2,0.6-4.4-2.9C244.3,197.3,244.2,194.1,244.5,190.9z M209.1,268.9
		c-0.3,0.7-0.9,1.2-1.4,1.8c-0.4-0.4-1.2-0.8-1.1-1.1c0.2-0.7,0.7-1.3,1.3-2.4C208.6,268.1,209.2,268.7,209.1,268.9z M217.2,279.2
		c-0.3-0.4-1.4-1.1-1.6-1.9c-0.4-1.9,3.3-6.5,5-6c1.2,0.3,2.8,1.6,3.1,2.8C224.2,276.1,220.6,279.1,217.2,279.2z M233.1,290.3
		c-2.2,0-3.1-1.3-3.2-3.3c-0.1-2.7,3-6.9,4.9-6.4c1.4,0.4,2.5,1.9,3.2,2.5C238,286.5,235,290.3,233.1,290.3z M243.8,297.3
		c-0.3,0.1-1-0.9-1.5-1.4c0.9-0.9,1.7-1.8,2.6-2.5c0.2-0.1,1.1,0.8,2.2,1.6C245.7,296.1,244.8,296.8,243.8,297.3z M255.3,301.2
		c-0.8-0.3-1.4-1.2-2.2-1.9c0.6-0.6,1.3-1.7,1.7-1.6c1,0.3,1.8,1.1,3.4,2.2C256.7,300.6,255.9,301.4,255.3,301.2z M294.3,274.3
		c-0.8,0.2-2-0.1-2.6-0.7c-2.7-2.4-5-5.3-7.8-7.4c-3.1-2.3-6.5-4.3-10-5.9c-2-0.9-4.3-0.5-5.6,1.6c-1.3,2.1-0.4,4.3,1,5.9
		c3.6,3.7,7.4,7.2,11.1,10.7c0.3,0.3,0.6,0.4,0.9,0.7c1.3,1.1,3,2.2,1.6,4c-1.3,1.8-3,0.6-4.3-0.4c-3.8-3-7.5-6.2-11.4-9.1
		c-1.9-1.5-4.1-1.7-6.1,0.1c-2,1.8-2.4,3.9-0.8,6.4c1.8,2.8,3.9,5.3,5.9,7.9c1.7,2.2,1.2,3.6-1.5,4.3c-3.7,0.9-6-1.7-8.2-3.6
		c-5.2-4.8-9.8-10.1-15-15c-2.5-2.4-5.6-4.1-8.4-6.1c-1.8-1.3-3.6-2.5-5.3-3.8c-2.1-1.5-4.1-3.1-6.1-4.8c-4.3-3.5-10.5-3.3-15.1-0.2
		c-2.4,1.7-5.4,2.5-8.8,4c-0.4-4.7-1-9-1-13.3c0-15.7,0.3-31.3,0.3-47c0-3.6-0.2-7.2-0.5-10.8c-0.2-2.5,0.7-3.5,3.3-3.5
		c10,0.1,19.9,0,29.9,0.1c3,0,4.8,0.7,4.2,4.8c-0.6,4.2,0.1,8.6,0.6,12.8c0.3,2.4-0.4,4-1.9,5.7c-5,5.4-9.9,10.9-14.6,16.5
		c-2.4,3-1.9,8.5,0.7,11.3c1.9,2.1,4,4.1,6.1,5.9c2.4,2.1,5.2,2.1,7.8,0.1c5.8-4.7,11.6-9.3,17.3-14.1c2.5-2.1,3.2-2.3,5.6,0
		c11.2,11,22.4,22,33.6,32.9c1.6,1.5,3.4,2.9,4.9,4.5c0.8,0.8,1.3,2,1.5,3.1C295.6,272.9,294.9,274.2,294.3,274.3z M303.2,261.4
		c-3.9-2.8-7.6-6-11.2-9.3c-9.5-8.9-18.8-18.2-28.5-27c-3.4-3.1-7-7.3-12.5-5.4c-3.3,1.1-6.3,3.2-9.1,5.3c-3.1,2.4-5.8,5.3-8.8,8
		c-0.7,0.7-1.6,1.5-2.5,1.7c-0.9,0.2-2.3-0.1-2.9-0.8c-0.4-0.5-0.3-2.1,0.2-2.7c4.9-5.3,9.5-11,15.2-15.4c3.6-2.8,8.9-3.7,13.8-2.7
		c3.3,0.7,6.8,1.2,9.1,4.1c0.2,0.2,0.4,0.4,0.7,0.5c2.1,1,4.4,2.9,6.7,1.2c2.3-1.7,0.8-4.4,0.4-6.7c-0.5-3.1-0.8-6.3-1-9.5
		c-0.2-3.3,0-6.6-0.3-9.9c-0.3-3.1,0.3-4.2,3.6-4.3c3.8-0.1,7.6,0,11.3,0c5.4,0,10.7,0,16.1,0c4.3,0,4.7,0.7,4.6,5
		c-0.2,10.4-0.1,20.8-0.1,31.3h-0.1c0,9.3,0,18.6,0,27.9c0,1.8,0.3,3.7,0.4,5.5C308.4,261.6,305.9,263.3,303.2,261.4z M336.3,79.9
		c2.4-4.2,5-8.5,9.3-11.1c3.7-2.3,7.9-4.3,12.1-5.1c5.1-0.9,10.7-1.2,15.6-0.1c7.8,1.8,14.1,6.2,17.7,14c2.2,4.7,4,9.3,3.9,14.5
		c-0.4,4.3-0.7,8.6-1.2,12.9c-0.1,0.8-1,2.1-1.6,2.2c-0.7,0.1-1.9-0.7-2.3-1.5c-1.9-3.3-3.5-6.7-5.3-9.9c-1.5-2.7-3.1-5.4-4.9-8
		c-4.7-6.5-11.4-6.9-18.6-6.1c-7.5,0.8-15,1.4-22.6,1.9C334.9,84,334.5,83,336.3,79.9z M343.7,118.3c-2.1-6.3-2.4-12.6-2.9-19
		c-0.2-3,1-4.4,4.4-4.8c5.8-0.7,11.5-1.3,17.3-1.8c2.3-0.2,4.6-0.2,6.8-0.1c0.8,0.1,1.9,0.8,2.4,1.6c2.6,4.6,4.9,9.4,7.5,14.1
		c1.4,2.6,2.9,5.1,4.6,7.5c1.3,1.9,1.4,3.7,0.3,5.7c-3.1,5.3-7.5,9-13.5,10.5c-2.2,0.5-4.5,1-5.8,1.3
		C354,132.5,347,128.2,343.7,118.3z M424.6,288.8c-0.5,7.5-1,15.1-1.6,22.6c-0.9,12.8-2.1,25.5-2.5,38.3
		c-0.3,11.2,0.1,22.5,0.5,33.7c0.3,8.4,1.4,16.7,1.9,25.1c0.4,6.8,0.6,13.6,0.7,20.4c0.1,5.6-2.7,8.4-8.4,8.6c-0.5,0-0.9,0-1.4,0
		v0.1c-1.3-0.1-2.6-0.1-3.9-0.3c-5.2-0.9-6.8-3.7-6.8-8.8c0-6.8-0.8-13.6-1.3-20.4c-0.5-7.6-1.2-15.2-1.5-22.9
		c-0.5-13.6-0.7-27.3-1.3-40.9c-0.3-6.6-1.2-13.2-1.3-19.8c-0.2-6.2,0.3-12.5,0.3-18.8c0-1.9-0.4-3.9-1.3-5.5
		c-0.5-1-2.3-1.8-3.4-1.8c-0.9,0.1-2.2,1.4-2.6,2.4c-2.8,7.2-5.3,14.5-8,21.7c-1.8,4.8-3.8,9.5-5.5,14.4c-1.9,5.8-3.6,11.7-5.2,17.7
		c-0.8,2.8-1.5,5.7-1.9,8.6c-0.8,5.8-1.3,11.7-1.9,17.5c-0.8,8.1-1.6,16.1-2.4,24.2c-0.7,7.1-1.2,14.1-2,21.2
		c-0.8,7-1.5,7.8-8.3,9.3c-4.1,0.9-8.1,0.4-11.9-1.4c-1.8-0.8-2.5-2.2-1.9-4.1c3.9-12.3,2.7-25.2,4-37.8c1.3-12.3,1.5-24.8,2.4-37.2
		c0.1-2.2,0.7-4.4,1.2-6.5c0.8-3.4,1.6-6.8,2.6-10.1c1.7-5.7,3.5-11.4,5.3-17.1c1.8-6,3.6-11.9,5.5-17.9c2.2-7,4.5-14,6.9-20.9
		c0.3-0.9,1.8-1.9,2.9-2.1c13-1.2,26-2.3,39.1-3.5c3.2-0.3,6.3-1,9.4-1.8c2.7-0.7,4-0.2,4.1,2.7
		C425.4,281.4,424.9,285.1,424.6,288.8z M450,269.5c-0.5,3.1-5.3,5.1-8.3,3.6c-3.4-1.7-4.6-4.3-4.1-6.3c-0.3-18-0.6-34.3-0.9-50.6
		c-0.1-3.2-1-5.9-3.6-8c-4.2-3.4-5.3-8.7-7.6-13.2c-2.7-5.1-4.9-10.5-7.6-15.6c-0.5-0.9-2.5-1.7-3.4-1.4c-1.4,0.5-2.7,1.8-3.4,3.1
		c-0.5,1.1,0.1,2.7,0.2,4c0.1,0.7,0.4,1.4,0.5,2.1c1.7,9.1,3.3,18.3,5.2,27.4c1.8,8.6,4,17.2,5.8,25.8c1.3,6.4,2.5,12.8,3.3,19.3
		c0.5,3.4-0.7,4.4-4,5c-10.9,2.1-21.9,2.9-33,3.3c-5.1,0.2-10.3,0.4-15.5,0.6c-3.1,0.1-3.9-0.9-4.4-4c-1.5-9.4-3.3-18.8-4.9-28.3
		c-0.6-3.5-1.1-6.9-1.6-10.4c-2-12.1-4-24.1-5.9-36.2c-0.1-0.7-0.3-1.4-0.6-2.1c-0.6-1.8-1-3.8-3.4-4.2c-2.7-0.4-4.8,0.8-6,3
		c-5,9.3-12,16.9-19.5,24.2c-2,1.9-4.2,3.6-6.4,5.2c-0.5,0.4-1.6,0.6-2,0.3c-0.6-0.4-1-1.4-1-2.1c0-5,0.1-9.9,0.4-14.9
		c0.1-1.1,0.8-2.4,1.6-3.3c5.2-5.9,10.7-11.6,15.8-17.7c3.1-3.6,5.7-7.7,8.3-11.7c3.8-5.9,9.3-9.1,15.9-10.4
		c8.3-1.6,16.7-2.8,25.1-3.8c6-0.8,12-0.3,17.7,1.7c3.9,1.3,8,1.7,11.6,4.1c5.6,3.7,9.5,8.6,13,14.1c1.5,2.4,3,4.8,4.5,7.2
		c4.3,7.1,9.1,13.9,12.6,21.3c2.3,4.8,3.2,10.4,3.6,15.8c0.8,10.2,0.9,20.4,1.3,30.7c0.2,4.9,0.7,9.7,0.8,14.6
		C450.6,264.3,450.4,267,450,269.5z"/>
	<path class="st0" d="M130.2,208.9h-14.7c-1.6,0-2.8-1.3-2.8-2.8v-22.5c0-1.6,1.3-2.8,2.8-2.8h14.7c1.6,0,2.8,1.3,2.8,2.8V206
		C133,207.6,131.7,208.9,130.2,208.9z"/>
</g>
</svg>
