<?xml version="1.0" encoding="utf-8"?>
<!-- Generator: Adobe Illustrator 24.0.1, SVG Export Plug-In . SVG Version: 6.00 Build 0)  -->
<svg version="1.1" id="Layer_1" xmlns="http://www.w3.org/2000/svg" xmlns:xlink="http://www.w3.org/1999/xlink" x="0px" y="0px"
	 viewBox="0 0 500 500" style="enable-background:new 0 0 500 500;" xml:space="preserve">
<style type="text/css">
	.st0{fill:#1671A2;}
</style>
<g>
	<path class="st0" d="M407.6,121.3c-7.5,1.5-15,2.9-22.5,4c-5,0.8-10,1.1-15,1.8c-4.7,0.7-9.4,1.8-14.1,2.7c-1.9,0.4-3.3,1.6-3,3.5
		c0.2,2.1,0.8,4.3,1.7,6.2c1.2,2.3,2.9,4.3,4.4,6.4c2.2,3,1.8,5.4-1,7.9c-10.5,9.5-20.9,19-31.3,28.5c-5.6,5.1-11.3,10.2-17,15.3
		c-7.5,6.7-15.1,13.3-22.6,20c-4.3,3.8-8.4,7.6-12.7,11.4c-7.9,6.9-15.8,13.7-23.6,20.7c-4.2,3.8-6.2,3.9-10.6,0
		c-2.1-1.9-4.4-3.5-6.8-5.2c-4.3-3-8.7-5.7-12.9-8.7c-4.5-3.2-8.8-6.6-13.3-9.9c-4.1-2.9-8.2-5.8-12.4-8.5c-1.5-1-3.2-1.6-4.7-2.3
		c-1.7,0.5-3.2,0.6-4.1,1.3c-3.4,2.5-6.7,5.1-9.9,7.8c-4.8,3.9-9.4,8-14.1,11.9c-6.7,5.6-13.5,11.1-20.3,16.6
		c-7.7,6.3-15.5,12.6-23.2,19c-6.8,5.7-13.7,11.4-20.3,17.3c-4.2,3.8-4.5,9.6-0.8,14c3,3.5,6.2,6.9,9.5,10c2.5,2.3,5.5,4.2,9,2.2
		c3.6-2.1,7.2-4.4,10.5-6.9c5.3-4.1,10.4-8.5,15.6-12.8c6.8-5.6,13.5-11.1,20.3-16.7c8.5-7,17-14.1,25.5-21.1c1.5-1.3,3.2-1,4.7,0
		c3.6,2.5,7.2,5.2,10.9,7.8c5.5,3.9,11.1,7.9,16.6,11.8c8,5.5,16,11,24,16.5c1.9,1.3,4.5,1.6,6.1,0.4c1.4-1,2.9-2.1,4.2-3.3
		c8.8-7.9,17.5-15.8,26.2-23.7c4.9-4.5,9.7-9.1,14.7-13.5c7.8-7,15.7-13.8,23.5-20.8c7.7-6.9,15.2-13.9,22.9-20.8
		c13.4-12,26.8-23.9,40.1-35.8c2.6-2.3,4.3-2.5,6.8-0.1c3.3,3.2,7.2,5.2,11.3,7c3.6,1.6,6.8,0,7.6-3.8c0.7-3.3,1.3-6.5,1.7-9.8
		c1.9-13.9,3.7-27.8,5.6-41.7C415.7,122.6,412.9,120.2,407.6,121.3z M403.8,136c-1.3,10.8-2.4,21.6-3.7,32.4c-0.1,1-0.5,2.5-1.3,2.9
		c-0.6,0.3-2.1-0.3-2.9-1c-1.9-1.7-3.5-3.6-5.3-5.4c-2.4-2.4-3.9-2.8-6.6-0.8c-4,3-7.9,6.1-11.8,9.4c-4.9,4.2-9.6,8.5-14.4,12.8
		c-6,5.4-12.1,10.8-18.1,16.3c-8.7,7.8-17.4,15.6-26.1,23.3c-4.9,4.4-9.8,8.7-14.7,13.1c-13,11.7-25.9,23.4-38.9,35
		c-3,2.7-5.9,5.3-9,7.8c-1.2,1-2.7,1.6-4,2.3c-1.3-0.5-2.3-0.7-3-1.2c-5.8-4.1-11.6-8.3-17.4-12.4c-5.8-4.1-11.6-8-17.3-12.2
		c-5.2-3.8-10.2-7.7-15.3-11.6c-3-2.3-3.5-2.5-6.6-0.1c-4,3.1-7.8,6.6-11.7,9.8c-10.4,8.6-20.9,17.2-31.3,25.9
		c-5.9,4.9-11.8,9.9-17.7,14.8c-3,2.5-6,5-9,7.5c-2.1,1.7-4.6,1.7-6.7-0.1c-1.7-1.5-3.2-3-4.7-4.6c-2.2-2.3-2.2-4.3,0.2-6.5
		c3.3-2.9,6.7-5.7,10.1-8.5c6.8-5.6,13.6-11.2,20.5-16.9c6.4-5.2,12.8-10.4,19.2-15.7c6.1-5,12-10.2,18.1-15.2
		c4.5-3.7,9.1-7.3,13.7-10.9c1.6-1.3,3.1-1.3,4.9,0c8.1,6,16.3,11.9,24.6,17.8c4,2.8,8.1,5.4,12,8.2c4.2,3,8.4,6.1,12.3,9.5
		c3.2,2.7,6.5,2.7,9.5-0.1c8.8-8.1,17.7-16,26.6-24c5.5-5,11.1-10,16.6-15c7.8-7,15.7-13.8,23.5-20.8c6.3-5.6,12.5-11.4,18.7-17.1
		c9.8-9,19.6-18,29.5-26.9c1.6-1.4,3.4-2.6,4.9-4c2.1-2,2.4-4.5,0.8-6.8c-1.4-2-3.3-3.6-4.8-5.5c-0.6-0.8-1.4-2.1-1.1-2.9
		c0.3-0.7,1.8-1.1,2.8-1.3c10.2-2,20.7-2.3,30.7-5.4C403,131.1,404.3,132.3,403.8,136z"/>
	<path d="M391.9,424c-0.1-29.7-0.4-59.3-0.4-88.9c0-11.9,0.3-23.9,0.3-35.8c0.1-13.6,0-27.1,0-40.7c0-3.8-0.1-7.6-0.3-11.4
		c-0.2-5.2-0.1-10.4-0.7-15.5c-0.5-4.5-1.8-5.4-6.5-5.4c-14,0-28,0-41.9,0.1c-1.9,0-3.7,0.2-5.6,0.5c-4.5,0.8-6.5,3.2-6.5,7.9
		c0.2,34,0.3,67.9,0.5,101.9c0,10.7,0,21.4,0,32.2c0,12.1,0,24.2,0,36.3h-0.5c0,7.6,0,15.1,0,22.7c0,6,2.1,8,8,8.3
		c0.4,0,0.8,0,1.2,0c14,0,28,0,41.9,0c1.7,0,3.4-0.2,5.1-0.3c3-0.3,4.6-2.1,5-4.8C392.1,428.6,392,426.3,391.9,424z M378.9,426.1
		c-11.5,0-23,0-34.6,0.1c-3.8,0-4.1-0.4-4.1-4.2c0-26,0-52,0.1-78c0-11.5,0.3-23.1,0.3-34.6c-0.1-21.6-0.3-43.2-0.4-64.8
		c0-1.9-0.2-3.9,0-5.8c0.2-2,1.6-2.7,3.6-2.7c7.1,0.1,14.3,0.1,21.4,0.1c4.6,0,9.3,0.2,13.9,0.2c1.7,0,2.3,1.2,2.4,2.6
		c0.1,1.8,0.1,3.6,0.1,5.4v68.8h0.1v69c0,11.7,0,23.4,0,35.1c0,1.9,0.2,3.7,0.3,5.6C382.2,425,381.2,426.1,378.9,426.1z"/>
	<path class="st0" d="M316.7,105.7c-0.8-4.7-1.6-9.5-3-14c-1.2-3.8-3.3-7.2-5-10.8c-3.6-8-9.4-14.1-15.8-19.8
		c-5.3-4.7-11.3-8.4-17.9-11.1c-4.9-2-10-3.9-15.1-5c-4.6-1-9.3-0.9-14-1.3c0,0.1,0,0.2,0,0.3c-0.7,0-1.3,0-2,0
		c-8.3-0.5-16.2,1.8-23.7,4.8c-5.6,2.3-10.6,6.1-15.9,9.2c-6.6,4-11.2,10-15.7,16.1c-3.6,4.8-5.9,10.2-8.3,15.6
		c-2.7,6.2-4.2,12.7-4.8,19.3c-1.4,14,2,27.5,7.8,40.2c3.6,8,8,15.7,12.4,23.3c4.8,8.1,9.9,16.2,15.3,23.9
		c6.5,9.3,13.5,18.3,20.5,27.2c3.4,4.4,7.3,8.5,11,12.7c1.1,1.3,2.5,1.9,4.1,0.9c1.2-0.8,2.5-1.7,3.3-2.8
		c10-13.1,19.9-26.2,29.8-39.4c3.3-4.4,6.4-9,9.6-13.5c2.5-3.6,5.1-7.1,7.4-10.8c3.2-5.2,5.9-10.6,9.2-15.7c4-6.1,6.6-12.9,8.6-19.7
		C317.3,125.5,318.4,115.6,316.7,105.7z M304,136.1c-3.7,10.1-8.7,19.5-14.7,28.3c-5.8,8.4-11.7,16.8-17.5,25.1
		c-5.2,7.4-10.4,14.9-15.7,22.2c-2.7,3.7-5.6,7.4-8.6,10.9c-1.9,2.2-2.9,2.1-4.7-0.2c-4.6-6-9.2-12-13.7-18
		c-5.4-7.3-11-14.5-16.1-22c-4.5-6.7-8.5-13.8-12.7-20.7c-1.9-3.1-3.7-6.2-5.3-9.5c-1.9-4-3.5-8.2-5.1-12.3
		c-2.6-6.8-4.3-13.9-5-21.3c-0.3-3.1-0.1-6.3,0.1-9.4c0.6-7.6,2.6-14.9,6.1-21.6c4-7.8,9.4-14.5,16.1-20.2c5.1-4.4,10.8-7.9,17-10.2
		c11.3-4.3,22.9-5.7,34.9-2.8c9.9,2.3,18.9,6.3,26.7,12.8c5.9,4.9,10.9,10.5,14.6,17.4c2.7,5.1,4.7,10.3,5.9,15.8
		c1,4.7,1.1,9.7,1.5,13.8C307.1,122.1,306.6,129.2,304,136.1z"/>
	<path d="M243.2,412.3c-0.2-27.5-0.4-54.9-0.5-82.4c0-7.1,0-14.3,0-21.4c0-6.8-3.4-10.2-10-10.1c-13.1,0.2-26.2,0.3-39.2,0.5
		c-1.5,0-2.9,0-4.4,0c-6.5,0.2-9,3-8.8,9.6c0.3,5.7,0.4,11.4,0.5,17c0.2,25.4,0.3,50.7,0.4,76.1c0,5.5-0.1,11-0.1,16.5
		c0,3.5-0.2,7,0.2,10.5c0.5,5.8,2.5,7.4,8.4,7.4c7.6,0,15.1,0,22.7,0v0.1c7.5,0,15,0,22.4,0c6.5,0,8.9-2.1,8.9-8.7
		C243.6,422.4,243.3,417.4,243.2,412.3z M230,426.2c-5.5,0.1-11,0-16.6,0v0.4c-6.5,0-13,0-19.5,0c-2.7,0-3.5-0.7-3.5-3.1
		c0-9,0.1-18,0.1-27c0-26.2,0-52.5,0-78.7c0-1.7-0.1-3.4-0.3-5.1c-0.2-2.1,0.7-3.1,2.7-3.1c7.1,0,14.3,0,21.4,0
		c4.4,0,8.8-0.3,13.1-0.3c1,0,2.1,0.1,3.1,0.3c1.7,0.5,2.3,1.6,2.3,3.5c-0.1,10.1-0.1,20.1-0.1,30.2c0,7.7,0,15.4,0.1,23.1
		c0.1,8,0.4,16.1,0.4,24.1c0,7-0.3,14-0.3,20.9c0,3.7,0.3,7.5,0.4,11.2C233.5,425.2,232.8,426.1,230,426.2z"/>
	<path d="M318.2,366.9c0-20.4,0-40.8,0-61.2c0-1.1,0-2.3-0.2-3.4c-0.7-4.4-2.4-5.9-6.8-6c-2.8,0-5.5,0-8.3,0c-8.5,0-17-0.1-25.6-0.1
		c-4.5,0-9.1-0.1-13.6-0.1c-4.6,0-7.1,2.1-7.7,6.7c-0.2,1.2-0.2,2.4-0.2,3.6c0.1,11,0.3,21.9,0.4,32.9c0.1,15.2,0.1,30.4,0,45.6
		c-0.1,14.1-0.3,28.3-0.4,42.4c-0.1,6.3,2.1,8.5,8.4,8.6c0.1,0,0.2,0,0.2,0c15.4,0,30.7,0,46.1,0c5.8,0,7.6-1.8,7.7-7.6L318.2,366.9
		L318.2,366.9z M304.5,426.1c-2,0-4-0.3-6.1-0.3c-9.6,0.1-19.2,0.3-28.8,0.4c-3.8,0-4.1-0.4-4.1-4.2c0-14.4,0-28.8,0-43.1h0
		c0-13.3,0-26.5,0-39.7c0-7.3,0.3-14.6,0.3-21.9c0-2.5-0.3-5-0.4-7.5c-0.1-2.7,0.6-3.4,3.2-3.4c11.8,0,23.6,0,35.3,0
		c3.1,0,3.8,0.9,3.8,3.9c0,18,0,35.9,0.1,53.9c0,9.9,0.3,19.8,0.3,29.7c0,5.9-0.3,11.9-0.3,17.8c0,3.5,0.3,7,0.4,10.5
		C308.6,425.1,307.6,426.1,304.5,426.1z"/>
	<path d="M195.9,456.4c-37.7,0-75.4,0-113.1,0c-3.9,0-5.7-1.4-5.9-4.6c-0.1-3.1,1.6-5.1,4.8-5.1c9.5-0.2,19-0.5,28.5-0.5
		c65.2,0,130.4,0,195.5,0c8.4,0,16.7,0,25.1,0c22.6-0.1,45.2-0.3,67.8-0.4c6.2,0,12.5,0,18.7,0.1c4.7,0.1,7.2,4.3,4.8,8.3
		c-0.6,1-2.5,1.7-3.9,1.8c-7.5,0.2-15,0.1-22.4,0.1c-27.1,0-54.1,0-81.2,0c-39.6,0-79.1,0-118.7,0
		C195.9,456.2,195.9,456.3,195.9,456.4z"/>
	<path d="M168.5,345.5c0-4-1.7-5.9-5.6-6.2c-2.2-0.2-4.4,0.1-6.6,0c-13.8-0.1-27.6-0.3-41.4-0.5c-6.3-0.1-8.7,2.5-8.2,8.8
		c0.2,2.7,0.3,5.4,0.3,8c0,24,0,48.1,0,72.1c0,5.9,2.2,8,8.1,8c11.5,0,22.9,0,34.4,0c3.8,0,7.6,0.1,11.5,0c4.2-0.1,6.4-2,7.2-6.2
		c0.2-1.2,0.3-2.4,0.3-3.6c0-13.2,0-26.5,0-39.7C168.5,372.8,168.6,359.2,168.5,345.5z M154.7,426.2c-5.7,0-11.4,0-17,0c0,0,0,0,0,0
		c-5.4,0-10.9,0-16.3,0c-3.8,0-4.6-0.9-4.2-4.6c0.1-1,0.1-2,0.1-2.9c0-21.1,0-42.2,0-63.3c0-0.7,0-1.5-0.1-2.2
		c-0.2-3,1.2-4.4,4.3-4.4c10.1,0.1,20.1,0.2,30.2,0.3c0.3,0,0.5,0,0.7,0c6-0.1,5.9-0.1,5.9,5.8c0,14,0.3,28.1,0.4,42.1
		c0.1,8.4,0,16.7,0.1,25.1C158.8,425.4,158.2,426.2,154.7,426.2z"/>
	<path class="st0" d="M245.9,77.7c-22.8,0.5-37,16.6-37.4,37.4c-0.5,21.7,16.5,39.5,37.8,39.3c23-0.2,37.9-17.4,38.9-37.8
		C284,93.9,268.3,77.2,245.9,77.7z M245.9,144.8c-15.6-0.1-27.9-13.3-27.6-29.1c-0.5-15.8,12.6-28.6,28.3-28.4
		c16.3,0.2,28.8,11.6,28.9,28.1C275.6,131.8,263.1,144.9,245.9,144.8z"/>
</g>
</svg>
