<?xml version="1.0" encoding="utf-8"?>
<!-- Generator: Adobe Illustrator 24.0.1, SVG Export Plug-In . SVG Version: 6.00 Build 0)  -->
<svg version="1.1" id="Layer_1" xmlns="http://www.w3.org/2000/svg" xmlns:xlink="http://www.w3.org/1999/xlink" x="0px" y="0px"
	 viewBox="0 0 500 500" style="enable-background:new 0 0 500 500;" xml:space="preserve">
<g>
	<path d="M427,134.2c-2.3-7.1-5.4-13.8-9.8-19.9c-7.3-10.1-16.8-18.1-25.8-26.7c-6.3-6.1-13.4-11.4-21.5-14.5
		c-8.8-3.3-17.9-6-27.8-5c-9.5-1.3-18.6,1.7-27.4,4.7c-10.4,3.5-19.2,10-26.8,17.9c-6.4,6.6-12.7,13.2-19.2,19.6
		c-9.4,9.4-18.9,18.6-28.3,28c-7.8,7.9-16.1,15.5-21.4,25.4c-2.2,4.1-4.2,8.4-5.1,12.9c-1.8,9.5-2.2,19.2-0.8,28.9
		c0.8,5.5-0.3,6.6-5.7,5.8c-9.2-1.4-18.4-0.2-27.1,2.3c-10.5,3-19.7,8.6-27.4,16.4c-11.4,11.7-22.7,23.4-34.2,35.1
		c-9.3,9.5-18.9,18.6-28.1,28.2c-8.9,9.3-16,19.9-18.6,32.8c-1.3,6.3-2.8,12.8-2.7,19.1c0.5,19.1,8.5,35.4,21.5,49.1
		c6.7,7,13.8,13.6,20.9,20.2c7,6.5,14.8,11.8,24,14.4c10.8,3.1,21.8,3.9,33,2c10.9-1.8,20.8-5.8,29.8-12.2
		c7.8-5.5,14-12.6,20.7-19.2c11.1-11,22.3-21.9,33.3-32.9c7.6-7.7,15.2-15.4,22.5-23.5c6.2-6.8,9.8-15,11.6-24.2
		c1.8-8.9,2.2-17.7,0.1-26.7c-0.9-3.7,0.7-5.1,4.5-4.6c9.3,1.3,18.6,1.3,27.6-2.1c4.9-1.9,10.1-3.3,14.6-6c9-5.5,16.4-13,23.7-20.5
		c9-9.2,18.1-18.5,27.2-27.6c8-8.1,16.3-15.9,24.3-24c3.3-3.4,6.5-6.9,9.4-10.7c7.7-10.3,11.3-22.1,12.3-34.8
		C431.1,152.5,429.9,143.3,427,134.2z M279,315.9c-1.5,9.4-5.6,17.4-12,24.1c-10.2,10.6-20.8,20.8-31.1,31.3
		c-9.6,9.7-19.2,19.4-28.8,29.1c-6.7,6.8-13.8,13.2-22.5,17.3c-5.7,2.8-11.8,4.5-18.3,5.1c-7.8,0.8-15.4,0.5-23.1-0.7
		c-6.9-1.1-13.2-4.1-18.7-8.4c-12.3-9.4-23.5-20-33.1-32.1c-12.3-15.5-16.2-33-11.7-52.4c2.8-11.7,9.1-21.3,17.3-29.8
		c11.1-11.5,22.4-22.8,33.6-34.2c9.2-9.4,18.4-18.9,27.8-28.2c5.6-5.5,11.8-10.1,19.1-13.3c11-4.8,22.4-5.2,34-3.4
		c3.5,0.5,6.3,2.4,9,4.6c2.6,2.2,5.3,4.3,8,6.3c1.8,1.3,1.5,3,0.5,4.2c-4.3,4.7-8.5,9.5-13.3,13.7c-1.3,1.2-4.5,1.1-6.6,0.6
		c-7.7-1.8-15.2-1.7-22.4,1.5c-3.4,1.5-6.8,3.8-9.5,6.5c-16.4,16.3-32.7,32.8-48.9,49.3c-4.4,4.5-8.8,9-13,13.6
		c-5.5,6.3-7.7,13.8-8,23c0.2,8.5,3.9,16.6,9.5,24c5.3,6.9,11.6,12.7,18.6,17.7c11.2,8,23.3,11.5,36.4,5.8
		c5.2-2.3,10.2-5.8,14.3-9.8c11.3-10.7,22.2-21.9,33.3-33c7.3-7.3,14.8-14.4,21.8-22c8.8-9.5,12-26.7,4.6-37.2
		c-1.1-1.5-0.9-3.1,0.5-4.4c5.5-5.4,11.1-10.8,16.6-16.1c1.5-1.4,3.1-1.6,4.4,0.1c3.1,4.2,6.3,8.5,9.2,12.9c0.9,1.3,1.5,2.9,1.7,4.5
		C279.5,296.1,280.7,305.9,279,315.9z M306.6,189.7c-3.8-3.2-8.3-4.6-12.9-5.7c-5-1.1-9.8,0.6-13.9,3c-5.5,3.3-10.6,7.4-13.8,13.3
		c-0.3,0.5-0.7,1.2-1.2,1.5c-1.2,0.7-2.6,1.8-3.7,1.6c-0.9-0.2-1.8-1.9-2.1-3c-2.4-7.7-0.6-14.5,4.5-20.5c3.8-4.4,7.7-8.8,11.8-12.9
		c13.3-13.5,26.6-26.9,39.9-40.4c4.5-4.5,9.5-8.4,15.6-10.8c8.8-3.5,16.9-2.6,24.9,2.3c8.4,5.1,15,12.1,21.2,19.6
		c4.6,5.6,7.3,11.9,7.3,22.5c0.1,4.3-3.2,10.8-8,16.2c-5.7,6.4-12.2,12.1-18.4,18.1c-7,6.9-13.9,14-21.1,20.8
		c-7.8,7.5-15.7,15-23.8,22.2c-4.9,4.3-10.8,3.7-16.6,2.1c-1.9-0.5-2.3-2.3-0.9-3.8c1.2-1.3,2.8-2.3,4-3.6c3.8-4,7.8-7.7,11-12.1
		C318.6,209.4,315.7,197.5,306.6,189.7z M276.6,201.3c2.6-2.6,5.7-5,8.8-7c4.3-2.8,11.8-1.3,16.7,3c5.2,4.6,6.2,12.1,1.8,17.5
		c-4.6,5.6-9.3,11.1-14.5,16.2c-13,12.9-26.2,25.5-39.4,38.2c-9.1,8.8-18,17.7-27.3,26.3c-3.1,2.9-6.9,5.1-10.8,6.9
		c-7.4,3.5-17.9-3.7-17.8-11.8c-0.1-4.8,2.5-8.5,5.4-11.7c7.7-8.6,15.8-16.9,24-25c8.5-8.5,17.4-16.6,25.9-25
		C258.6,219.8,267.5,210.4,276.6,201.3z M185.9,291.7c0.3,5.4,1.6,10.5,6,13.9c7,5.4,18.4,9.4,27.6,2.9c5.1-3.5,10.1-7,14-12
		c2.4-3,5.6-2,6.5,1.7c2,8.3,0,15.7-5.2,22.4c-9.7,12.6-22.4,22.2-33.3,33.6c-5.7,6-11.2,12.1-17.3,17.7c-4.4,4.1-9.3,8-14.5,11
		c-6,3.4-12.8,3.1-19,0.4c-13.6-5.9-24.7-15-31.6-28.3c-4.6-8.9-4.8-18,1.1-26.8c6.4-9.6,15.5-16.6,23.4-24.8
		c11.1-11.4,22.3-22.6,33.7-33.7c4-3.9,8.5-7.4,13.2-10.6c2.1-1.4,5-1.5,7.6-2.3c0,0.1,0.1,0.3,0.1,0.4c1.6,0.1,3.2,0.1,4.8,0.5
		c2.9,0.6,3.7,2.8,1.6,4.9c-2.4,2.5-5.4,4.4-8,6.8C190.3,275.6,185.3,282.3,185.9,291.7z M419,176.1c-2.7,8.7-7.6,16.3-13.9,22.7
		c-17.7,17.9-35.6,35.7-53.5,53.5c-5.5,5.5-11,11.1-17.2,15.9c-14.5,11.2-30.6,15.3-48.5,9.3c-2-0.7-3.8-2.6-5.4-4.2
		c-2.6-2.5-5-5.1-7.5-7.7c-1.8-1.8-2.3-4.1-0.4-6c4.1-4,8.3-7.9,12.8-11.4c1.2-0.9,3.8-0.9,5.3-0.3c5,2.2,10.4,3,15.5,2
		c4-0.8,8-2.8,11.3-5.1c4-2.8,7.6-6.3,11.1-9.7c16.1-15.6,32.1-31.3,48.1-47c5.6-5.6,11-11.4,13.5-19.2c2.9-9,3.8-18-0.4-26.9
		c-5.5-11.8-14.8-20.3-24.9-28.1c-5.8-4.5-11.9-8.3-19.5-9c-10-0.9-19.2,1.1-27.3,7.5c-11.6,9.2-21.2,20.7-31.8,30.9
		c-7.2,6.9-14.4,13.8-21.3,20.9c-4.1,4.2-8.1,8.7-11.5,13.5c-3.3,4.8-4.7,10.4-3.9,16.4c0.6,5.1,1.1,10.2,3.9,14.7
		c1.1,1.7,0.4,3.4-0.9,4.7c-1.8,1.8-3.9,3.5-5.8,5.2c-3.6,3.4-7,7-10.6,10.3c-2.9,2.6-4.6,1.8-6.1-1.8c-1.4-3.3-3.2-6.4-5.2-9.3
		c-1.7-2.5-3.2-4.9-3.4-8c-0.3-5.9-0.7-11.8-1.1-17.7c-0.8-14.8,5.8-26.5,15.5-36.6c13.8-14.6,28.1-28.7,42.3-43
		c6.8-6.9,13.5-13.9,20.6-20.5c10.6-9.8,23.8-14.1,37.9-15.3c11.9-1,23.5,1,34.1,6.7c5.2,2.8,10.3,6.3,14.6,10.4
		c8.2,7.9,16.1,16.1,23.6,24.6c8.2,9.4,11.4,20.9,12.6,33.1C422.7,160,421.5,168.2,419,176.1z"/>
</g>
</svg>
