<?xml version="1.0" encoding="utf-8"?>
<!-- Generator: Adobe Illustrator 24.0.1, SVG Export Plug-In . SVG Version: 6.00 Build 0)  -->
<svg version="1.1" id="Layer_1" xmlns="http://www.w3.org/2000/svg" xmlns:xlink="http://www.w3.org/1999/xlink" x="0px" y="0px"
	 viewBox="0 0 500 500" style="enable-background:new 0 0 500 500;" xml:space="preserve">
<g>
	<path d="M427,256.1c-1-11.2-1.9-22.4-2.9-33.6c-0.4-4.5-2.9-7.3-7.5-7.8c-6.9-0.7-13.8-1.4-20.7-1.7c-7.4-0.3-13.4-2.6-17.1-9.4
		c-1.9-3.6-3.9-7.1-5.6-10.7c-1.4-2.9-1.7-6,0-8.9c1.6-2.7,3.3-5.4,5.3-7.8c4.4-5.2,9.2-10.1,13.6-15.3c2.7-3.2,2.8-7,0.1-10.4
		c-4.4-5.5-8.6-11.4-13.7-16.3c-9.3-9-19.1-17.6-28.8-26.2c-4.6-4.1-8.9-4-13.4,0.1c-4.8,4.3-9.5,8.8-14,13.4
		c-4.4,4.4-9.6,6.2-15.3,4c-5.9-2.2-11.5-5.4-16.9-8.6c-1.5-1-2.3-3.7-2.8-5.7c-0.5-1.7-0.3-3.7,0-5.5c1.1-7.3,0.2-14.4-1.5-21.4
		c-1-4.1-3.3-7-7.4-8c-3.5-0.8-7.1-1.7-10.7-1.8c-12.5-0.2-25-0.1-37.5,0.2c-3.6,0.1-7.2,1.2-10.6,2.2c-4.3,1.2-6.2,4.3-6.9,8.7
		c-1.4,8.1-0.6,16.1-0.4,24.2c0.2,5.3-2.1,8.8-6.7,10.7c-5.5,2.2-11.2,4-16.9,5.7c-4.9,1.5-9.2,0.1-12.7-3.4
		c-5.3-5.2-10.6-10.4-15.7-15.8c-2.9-3.2-6.4-4-10.2-3c-2.4,0.7-4.8,2.2-6.5,3.9c-7,6.9-13.4,14.5-20.8,20.9
		c-6,5.3-10.6,11.6-15.5,17.8c-1.2,1.5-2.1,3.2-2.7,5c-0.4,1.3-0.5,3.1,0.1,4.1c2.2,4,4.6,8,7.4,11.7c4,5.2,8.6,10.1,12.7,15.3
		c2.2,2.8,2.4,6.2,0.6,9.3c-2.6,4.4-5.7,8.6-8.4,13.1c-3.1,5.1-8,6.2-13.4,6.2c-0.9,0-1.7-0.1-2.6,0c-6.9,1.2-13.8,2.2-20.6,3.9
		c-3.4,0.8-5.7,3.5-5.9,7.4c-0.5,8.6-1,17.3-1.5,25.4c0.5,8.8,0.8,17.1,1.4,25.4c0.6,8.6,6.8,12.6,14.2,13.4
		c6.5,0.7,13.1,0.2,19.6,0.6c2.3,0.2,4.8,1.1,6.8,2.4c1.8,1.2,3.1,3.2,4.2,5c2.5,4.1,4.7,8.3,7.1,12.5c2.4,4.2,2,8.2-0.9,11.9
		c-4.9,6.1-9.8,12.1-15,17.9c-4.6,5.2-4.8,10.5-0.3,15.8c2.1,2.5,4,5.2,6.2,7.6c3.6,4.1,7.2,8.3,11.2,12c6,5.5,12.3,10.7,18.5,16
		c3.2,2.7,6.5,5.1,10.9,5.4c5.5,0.3,9.6-2.3,13.4-5.8c4.2-3.9,8.3-8,12.6-11.9c4.1-3.7,8.7-3.7,13.5-1.5c3.2,1.5,6.4,3.3,9.3,5.2
		c5,3.3,7.7,7.9,6.9,14.2c-0.8,6.3-1.1,12.7,0.4,19c1.1,4.6,3,8.8,7.8,10.3c3.3,1.1,6.9,1.6,10.4,1.7c15.9,0.6,31.7,1,47.6-0.7
		c3.1-0.3,5.3-1.9,6.7-4.5c1.2-2.4,2.4-5,2.5-7.6c0.3-5.8,0.2-11.7-0.3-17.5c-0.6-7.4,2-14.5,9.4-17.4c1.6-0.6,3.1-1.5,4.6-2.4
		c5.9-3.5,14.8-3,20.1,1.5c5.3,4.5,10.5,9,15.5,13.8c3.9,3.7,8,4.4,12.7,2.2c2.1-1,4.2-2.4,5.9-4c3.8-3.4,7.3-7.1,11.1-10.5
		c7.1-6.4,15.2-12,20.7-20c2.7-4,4.3-8.9,5.8-13.6c0.6-1.8,0-4.4-1-6.1c-2.3-3.7-5.2-7.1-8-10.4c-2.7-3.2-6.1-5.9-8.6-9.3
		c-2.9-3.9-4.7-8.2-2.2-13.2c0.9-1.8,1.5-3.7,2.5-5.5c5.4-9.6,9.6-13.7,19.4-13.1c5.1,0.3,10.2,0.2,15.3,0.1
		c6.8-0.2,11.3-3.1,13.2-9.3C425.8,270.6,427.6,263.5,427,256.1z M411.9,263.1c-0.1,6.8-4.4,10.6-11.3,10.4
		c-5.7-0.1-11.5-0.7-17.2-1.5c-6.1-0.9-11.7,2.6-13.1,8.6c-0.4,1.8-1.4,3.6-2.1,5.3c-2.2,5.2-4.5,10.4-6.8,15.6
		c-1.5,3.5-3.2,7-4.2,10.6c-1.4,5.3-0.5,10.2,3.7,14.3c4.4,4.3,8.6,8.9,12.9,13.2c3.6,3.6,4.2,7.6,0.8,11.4
		c-3.5,3.9-7.3,7.6-11.1,11.2c-3.8,3.7-7.7,7.2-11.5,10.9c-4.3,4.2-9,4.3-13.2-0.1c-4.6-4.8-8.9-9.9-13.5-14.7
		c-4.8-5-10.3-5.6-16.4-2.4c-6.3,3.2-12.8,6.3-19.2,9.4c-0.8,0.4-1.6,0.9-2.4,0.9c-5.6,0.2-9.1,3.8-12.3,7.7
		c-1.2,1.5-2.2,3.8-2.2,5.7c0.2,5.9,1,11.7,1.3,17.6c0.1,2.7,0,5.4-0.5,8c-0.7,3.7-3.5,5.8-7,5.9c-10.9,0.3-21.9,0.4-32.9,0.1
		c-5.6-0.1-8.1-3.2-8-8.9c0.1-7.4,0.4-14.8,0.7-22.2c0.1-3.1-0.9-5.4-3.1-7.4c-3.5-3.3-7.1-5.8-12.2-6.5c-7.5-1-13.8-5.3-20.1-9
		c-4.9-2.9-7.5-3.4-11.7,0.3c-4.7,4.3-8.9,9.1-13.3,13.6c-1.3,1.4-2.7,2.8-4.2,4c-2.7,2.1-5.7,2.3-8.6,0.6c-2-1.2-3.9-2.4-5.6-4
		c-6.7-6.3-13.2-12.6-19.7-19.1c-1.4-1.4-2.6-3.1-3.4-4.9c-1.1-2.5-0.6-4.9,1.4-6.9c3.1-2.9,6.3-5.7,9.2-8.7
		c3.2-3.3,6.5-6.6,9.4-10.2c2.7-3.3,2.3-6.2-0.2-10.1c-4.3-6.7-8.5-13.4-11.2-21.1c-1.6-4.6-4.1-8.9-6.6-13.1
		c-2.3-3.9-6.4-4.3-10.4-4.5c-6.2-0.3-12.3-0.3-18.5-0.5c-8.2-0.2-11.2-3.6-10.9-11.8c0.2-6.7,0.1-13.4,0.1-20.2
		c0-11.1,2.5-13.6,13.5-13.8c4.8-0.1,9.6-0.1,14.4,0c6.6,0.1,10.9-3.3,13.4-9.7c2.7-6.5,6.3-12.6,9.3-19.1c1.9-4.1,3.6-8.3,4.9-12.6
		c0.5-1.6-0.1-4-1-5.5c-1.8-2.9-4-5.6-6.3-8.1c-3.4-3.7-7.2-7-10.6-10.6c-4.6-4.9-4.5-7.8,0.2-12.6c7.2-7.4,14.4-14.8,21.6-22.1
		c3.9-4,8.1-4.4,12.2-0.7c5.3,4.6,10.4,9.5,15.4,14.4c4.4,4.2,8.2,5.1,13.8,2.6c1.4-0.6,2.6-1.6,4-2.3c6.2-3.2,12.3-6.6,18.7-9.4
		c2.8-1.2,6.2-1.3,9.3-1.8c4-0.6,6-2.3,6.2-6.3c0.3-4.6,0-9.2-0.1-13.8c-0.1-3.9-0.4-7.9-0.4-11.8c0-4.8,2.5-7.5,7.3-8.1
		c2.3-0.3,4.6-0.5,6.9-0.6c2.2-0.1,4.4,0,6.6,0v0.5c6.4,0,12.9,0,19.3,0c5.2,0,8,2.6,7.8,7.8c-0.2,6.8-0.9,13.6-1.2,20.4
		c-0.1,2.5-0.1,5.3,0.8,7.6c0.7,1.8,2.6,4.1,4.3,4.5c10.6,2.3,20,7.2,29.4,12.2c5.9,3.1,12.9,2.7,17.4-2.2c3.9-4.3,8.6-8,12.9-11.9
		c4.5-4.2,7.8-4.6,12.4-0.5c8.2,7.4,16.4,14.9,24.2,22.6c3.1,3,3.1,6.5,0.4,10c-3.3,4.3-7.1,8.4-10.7,12.5c-1.6,1.8-3.3,3.5-4.9,5.3
		c-3,3.5-3.8,7.6-2.1,11.9c1.4,3.6,3.3,7.1,4.9,10.7c0.9,1.9,1.4,4,2.4,5.9c2.9,5.8,6,11.6,9.1,17.3c2.2,4.1,6.3,5.6,11.2,4.1
		c6.6-1.9,13.2-2.2,20-0.6c4.3,1,6.5,2.8,6.7,7.2C411.7,243.7,412.1,253.5,411.9,263.1z"/>
	<path d="M333.2,226.7c-1-3.9-1.8-7.9-2.8-11.8c-0.3-1.1-0.6-2.3-1.2-3.2c-3.4-5.2-6.6-10.6-10.3-15.6c-5.1-7.1-11.9-11.9-20.5-14
		c-1.2-0.3-2.3-0.9-3.5-1.4c-8.2-3.5-16.8-4.4-25.2-2c-6.1,1.7-11.7,5.1-17.4,8.1c-3.1,1.6-5.9,2-8.9-0.1c-3-2.1-6.1-4-9.3-5.8
		c-2.6-1.4-5.3-3-8.1-3.7c-11.7-2.8-23-2.2-33.7,4.2c-6.2,3.7-11.9,8-16.4,13.5c-4.2,5.1-7.7,10.6-9.6,17.2
		c-2.2,7.5-4.7,14.9-4,23.2c-0.8,7.7,1.5,15.2,4.5,22.6c1.1,2.7,2.1,5.6,3.6,8.1c3.2,5.2,6.5,10.4,10.2,15.3
		c3.2,4.3,6.6,8.5,10.4,12.3c5.4,5.4,11.2,10.5,17,15.5c3.8,3.3,7.9,6.4,12,9.4c5.6,4.2,11.4,8.1,17.1,12.3c5.4,4,10.9,7.2,17.7,3.1
		c2.1-1.2,4-2.6,6-3.9c5.4-3.5,10.8-6.9,16.2-10.4c1.1-0.7,2.3-1.4,3.4-2.2c3.8-3,7.5-6.3,11.4-9.2c14.3-10.7,25.8-23.9,34.4-39.5
		c1.2-2.2,2.9-4.4,3.7-6.8c1.3-4,2.1-8.2,3-12.3C334.6,242,335.1,234.3,333.2,226.7z M315.4,256.5c-5.6,12.4-14.3,22.5-24,31.8
		c-8.4,8-17.5,15-27.2,21.2c-3.5,2.2-6.5,5.1-9.8,7.6c-4.9,3.8-8.3,3.9-13.3,0.1c-5.3-4-10.5-8.1-15.5-12.4
		c-7.7-6.6-15.6-13.1-22.8-20.3c-7.1-7.1-13.6-14.8-18.6-23.7c-4-7-6.4-14.3-8.5-21.9c-0.6-2-0.5-4.2-0.7-6.3
		c-0.1-0.1-0.3-0.1-0.4-0.2c0.9-3.5,1.7-7,2.7-10.5c3-10.2,8.7-18.8,17.5-24.7c6.8-4.6,14.4-8.1,23-6.8c6.2,0.9,11.9,3.2,16.1,8.2
		c2.3,2.8,4.7,5.6,7.1,8.3c3.4,3.8,8.1,3.8,11.5,0c1.4-1.6,2.7-3.3,4-4.9c5.9-7.2,13.7-11.2,22.7-10.4c8.3,0.8,16.4,2.9,23.5,8.4
		c5.1,4,8.8,8.7,12.5,13.8c3.4,4.8,4.5,10.2,4.8,15.8C320.2,238.9,319.3,248,315.4,256.5z"/>
</g>
</svg>
