<?xml version="1.0" encoding="utf-8"?>
<!-- Generator: Adobe Illustrator 24.0.1, SVG Export Plug-In . SVG Version: 6.00 Build 0)  -->
<svg version="1.1" id="Layer_1" xmlns="http://www.w3.org/2000/svg" xmlns:xlink="http://www.w3.org/1999/xlink" x="0px" y="0px"
	 viewBox="0 0 500 500" style="enable-background:new 0 0 500 500;" xml:space="preserve">
<g>
	<path d="M365.3,183.6c-0.9-2.7-1.6-5.4-2.5-8.1c-3-9-6.1-17.9-9.2-26.8c-1.4-3.9-2.1-7.9-0.9-12c0.8-2.7,1.5-5.3,2.1-8
		c1.9-8.5,3.7-17.1,5.6-25.6c0.5-2.1,1.2-4.2,1.6-6.3c0.3-1.6-0.5-3.2-2.3-3c-4,0.4-8.2,0.5-11.8,2c-5.1,2.1-9.7,5.2-14.5,8.1
		c-2.2,1.3-4.2,1.5-6.3,0.1c-0.9-0.6-1.7-1.1-2.6-1.7c-4.1-2.6-8.2-5.4-12.4-7.8c-3.1-1.7-6.6-1.9-9.7-0.2
		c-4.5,2.5-8.9,5.2-13.2,8.1c-4.1,2.8-6,3-10.1,0.3c-4.1-2.6-8.2-5.2-12.3-7.8c-3.7-2.4-7.5-2.3-11.3-0.5c-2.8,1.3-5.4,3.1-8,4.8
		c-2.4,1.5-4.7,3.3-7,4.9c-1.7,1.1-3.4,1.2-5.1,0.1c-3.3-2.2-6.6-4.6-10-6.6c-2.7-1.6-5.7-3-8.7-3.8c-4.3-1.1-7.7,1.7-11,3.8
		c-3,1.9-5.7,4.3-8.6,6.3c-3.2,2.3-4,2.1-7.3,0.1c-5.1-3.2-10.3-6.3-15.5-9.2c-2.5-1.4-5.2-1.1-7.8-0.1c-4.7,1.8-8.6,4.8-12.7,7.7
		c-2.2,1.6-4.5,3.8-7.5,2.4c-4-1.9-7.9-3.8-11.6-6.2c-5.5-3.6-11.2-5.4-17.8-4.8c-1.7,0.1-2.8,1-3,2.6c-0.1,1.3,0.1,2.6,0.4,3.9
		c0.5,2.2,1.2,4.3,1.8,6.5c2.1,8.3,4.1,16.5,6.2,24.8c1.4,5.6,2.5,11.2,0.2,16.9c-1.6,4-2.9,8.2-4.3,12.4c-2.4,7.3-4.9,14.6-7.1,22
		c-1,3.5-2.2,7.2-1.9,10.7c0.7,10.5,2.1,21,3.1,31.5c1.6,16.3,3,32.7,4.6,49c1.7,18.1,3.5,36.2,5.2,54.2c0.8,8.3,1.3,16.6,2.1,24.8
		c1,10.4,2.3,20.7,3.1,31.1c0.6,7.3,1.9,8.9,9.3,8.9c43.4,0,86.8,0.1,130.2,0.1c3.7,0,7.4,0,11.2-0.1c2-0.1,2.6-1.1,1.7-2.9
		c-0.8-1.7-2-3.1-4-3.4c-2-0.3-4-0.6-6.1-0.6c-9.9,0-19.8,0.2-29.8,0.3c-29.6,0-59.3,0-88.9,0c-3.4,0-6.7-0.3-10.1,0
		c-4.9,0.4-6.6-1-7-6c-0.5-7.9-1.2-15.8-1.9-23.8c-1.5-15.6-3.2-31.2-4.7-46.8c-1.5-15.5-2.8-31.1-4.3-46.6
		c-0.7-7.8-1.6-15.5-2.3-23.3c-1.3-13.4-2.5-26.7-3.8-40.1c-0.3-3.4,0.8-4.7,4.2-4.7c7.5,0.1,15,0.3,22.5,0.3c31.4,0,62.8,0,94.1,0
		v0c20.1,0,40.3,0,60.4,0c13.8,0,27.6,0,41.4,0.1c5.3,0,10.7,0,16,0.2c3,0.1,4,1.4,3.6,4.2c-2,16.7-4,33.3-5.9,50
		c-0.4,3.5-0.7,7.1-0.7,10.7c0,2.3,1.3,3.3,3.3,3.3c1.9,0,3.1-1.1,3.4-3.3c0.4-3.3,0.7-6.7,1.1-10c1.9-16.7,3.9-33.3,5.8-50
		C366.5,194.8,367.2,189.2,365.3,183.6z M122.8,106.5c-0.1-0.6-0.3-1.1-0.4-1.7c-0.4-2.7,1.2-4,3.7-2.9c2.7,1.3,5.3,2.8,7.9,4.2
		c2.5,1.4,5,2.9,7.6,4.4c4.3,2.5,8.5,2.5,12.7-0.5c3.3-2.4,6.8-4.6,10.2-6.8c3.7-2.4,8.4-2.1,12,0.4c3.6,2.5,7.2,5,10.8,7.3
		c4.3,2.8,9,2.5,13-0.5c3-2.3,6-4.6,9-6.9c3.9-3,8.1-3,12.1-0.2c4,2.7,8,5.4,12.1,7.8c3.5,2.1,7.1,1.3,10.3-0.9
		c3.1-2.1,6.3-4.2,9.3-6.5c5-3.8,10-3.7,15.2-0.3c3.6,2.3,7.1,4.8,10.8,7c3.5,2.1,7.1,1.9,10.5-0.3c3.6-2.3,7.3-4.6,10.9-6.9
		c4.3-2.8,8.5-2.8,12.8,0.2c3.9,2.7,7.9,5.2,12,7.6c3.3,1.9,6.7,1.6,10-0.3c4.1-2.5,8.2-4.9,12.5-7.2c1.1-0.6,2.9-0.8,3.8-0.2
		c0.8,0.5,1.2,2.5,0.9,3.6c-1.4,6.4-3,12.7-4.6,19.1c-0.5,2.2-1.1,4.4-1.6,6.6c-0.9,4.1-2.4,5.4-6.6,5.4c-8.1,0-16.2,0-24.3,0h-78.3
		v0.1h-96.5c-2.3,0-4.5,0.1-6.8,0c-2.4-0.1-3.6-1.2-4.1-3.5C127.4,125.3,125.1,115.9,122.8,106.5z M356.2,187.2
		c-2,0.2-3.9,0.3-5.9,0.3c-36,0-72.1,0-108.1,0v0.4c-35.2,0-70.3,0-105.5,0c-5.4,0-10.8,0-16.2-0.3c-2.9-0.1-3.6-1.9-2.6-4.5
		c1.8-4.6,3.4-9.3,5-14c1.8-5.2,3.4-10.5,5.2-15.8c0.6-1.7,1.2-3.5,1.7-5.2c0.6-2,1.8-3.1,4-3.1c9.1,0.1,18.2,0.1,27.4,0.2
		c5.2,0,10.4,0.2,15.5,0.2c34.9,0,69.7,0,104.6,0c15.2,0,30.3-0.2,45.5-0.2c4.4,0,8.9,0,13.3,0c3.7,0,5.3,1.4,6.5,4.9
		c2.6,7.7,5.3,15.4,8.1,23.1c1.2,3.5,2.6,7,3.8,10.5C359,185.6,358.1,187,356.2,187.2z"/>
	<path d="M384.2,278.3c-10.6,0.3-21.1-0.6-31.1-4.7c-3-1.3-6.2-2.4-8.8-4.2c-4.4-2.9-8.5-6.3-12.7-9.5c-2.2-1.7-3.8-1.9-5.7-0.2
		c-5.6,5.2-11.6,9.7-18.8,12.5c-4.4,1.7-8.8,3.6-13.3,4.8c-7.4,1.9-15.1,2.3-22.8,1.9c-3.8-0.2-5.4,1.3-5.3,4.6
		c0,10.4,0,20.7,0,31.1h0.6c0,11.7-0.5,23.4,0.2,35c0.5,8.8,3.9,17,9.8,23.9c5.8,6.7,12,12.9,19.7,17.5c5.3,3.1,10.7,6.2,16.1,9.2
		c3.4,1.9,6.9,3.5,10.3,5.3c4,2.1,7.8,2.7,12,0c3-2,6.4-3.3,9.6-5.1c4.8-2.6,9.6-5.1,14.3-7.9c6.8-3.9,12.4-9.2,17.5-15
		c3.2-3.6,6.2-7.6,8.6-11.8c4.8-8,6.5-17,6.6-26.2c0.2-18.2,0.2-36.3,0.2-54.5C391.1,278.6,390.6,278.1,384.2,278.3z M384.3,315.2
		c-0.2,9.3-0.2,18.7-0.8,28c-0.7,9.8-4.3,18.5-10.5,26.2c-6,7.5-13.3,13.5-21.5,18.3c-6.2,3.6-12.8,6.6-19.2,9.9
		c-0.6,0.3-1.1,0.7-1.7,1c-1.6,1.1-3.2,1.2-5,0.3c-7.6-3.9-15.4-7.4-22.7-11.7c-9.4-5.6-17.9-12.7-24-22c-3.8-5.8-6-12.3-6-19.4
		v-26.7c0,0,0,0,0,0c0-9.5,0-19,0-28.5c0-3.2,1.3-4.5,4.5-4.4c9.6,0.3,18.8-2,27.7-5.3c5.5-2,10.7-4.9,15.9-7.6
		c1.9-1,3.5-2.6,5.1-4.1c1.5-1.3,2.9-1.5,4.3-0.1c4.9,5,11.4,7.2,17.4,10.2c3.2,1.6,6.8,2.7,10.4,3.4c6.2,1.1,12.5,1.7,18.8,2.5
		c0.8,0.1,1.6,0,2.4,0c3.7,0.4,4.8,1.6,4.7,5.4C384.4,298.9,384.5,307.1,384.3,315.2z"/>
	<path d="M366.6,313.3c-12.4,11.9-24.8,23.7-37.1,35.6c-2,2-3.9,4.2-5.9,6.1c-1.1,1-2.5,1.6-3.8,2.5c-1.2-0.7-2.3-1.2-3-1.9
		c-6.8-6.4-13.7-12.9-20.4-19.5c-1-0.9-1.8-2.4-1.9-3.7c-0.1-1,0.8-2.7,1.7-3.1c1-0.5,3-0.3,3.8,0.4c5.5,5.2,10.9,10.5,16.2,15.9
		c2.7,2.8,4.3,3,7.1,0.2c11.7-11.4,23.4-22.8,35.1-34.2c1.3-1.2,2.6-2.4,4-3.4c1.8-1.2,3.6-0.8,5,0.9
		C368.7,310.8,367.9,312.1,366.6,313.3z"/>
</g>
</svg>
