<?xml version="1.0" encoding="utf-8"?>
<!-- Generator: Adobe Illustrator 24.0.1, SVG Export Plug-In . SVG Version: 6.00 Build 0)  -->
<svg version="1.1" id="Layer_1" xmlns="http://www.w3.org/2000/svg" xmlns:xlink="http://www.w3.org/1999/xlink" x="0px" y="0px"
	 viewBox="0 0 500 500" style="enable-background:new 0 0 500 500;" xml:space="preserve">
<g>
	<path d="M403.5,116.2c-13.3-1.8-26.6-3.6-39.7-6c-7.9-1.4-15.6-3.6-23.3-6c-9.3-2.9-18.4-6.2-27.6-9.5c-3.9-1.4-7.6-3.4-11.4-5.3
		c-3.6-1.8-7.1-3.7-10.5-5.8c-7.5-4.6-15.1-9.1-22.4-14c-5.7-3.8-11-8.1-16.5-12.2c-2.2-1.6-4.3-1.7-6.5,0c-2.1,1.7-4.3,3.4-6.6,4.9
		c-8.9,6.2-17.7,12.4-26.7,18.4c-9.1,6-18.7,11.2-29,15c-8,2.9-16,6.3-24.2,8.5c-11.1,3-22.3,5.3-33.6,7.3
		c-10.2,1.8-20.6,2.8-30.9,4.2c-5,0.7-6.6,2.4-6.9,7.4c-0.1,2.2,0,4.4,0,6.6v63.2h0.7c0,17.2,0.1,34.5,0,51.7
		c-0.1,18.1,2.1,35.8,7.3,53.2c1.9,6.3,3.9,12.5,6.3,18.6c1.8,4.5,4.1,8.9,6.5,13.2c4.5,7.8,8.9,15.7,14,23
		c7.2,10.3,15.8,19.6,25.5,27.7c9.7,8,19.6,15.8,29.6,23.3c5.9,4.4,12.2,8.2,18.5,12.1c8.2,5,16.6,9.9,24.9,14.7
		c6.5,3.7,13.1,7.1,19.7,10.7c4.9,2.7,9.9,4.1,15.3,1.1c5.7-3.2,11.6-6,17.4-9.1c8.3-4.5,16.6-9,24.7-13.9
		c8.7-5.2,17.3-10.7,25.8-16.4c11.4-7.7,22.1-16.3,32.2-25.7c8.6-8,16.3-16.7,23.2-26.1c7-9.6,13.1-19.9,17.4-31.1
		c3.7-9.8,7.6-19.6,10.1-29.7c3.6-14.7,5.4-29.7,5.4-44.9c0-39.8,0.1-79.5,0.1-119.3C412.3,118.8,410.5,117.2,403.5,116.2z
		 M403.9,226.3c-0.1,12.9-0.4,25.9-1.6,38.8c-1,11.8-3.5,23.4-7.3,34.7c-4,12.1-9.2,23.8-15.6,34.8c-5.2,9.1-11.5,17.5-18.6,25.3
		c-8.6,9.3-17.9,18-28.2,25.4c-8.7,6.4-17.7,12.4-26.8,18.3c-9.9,6.3-19.9,12.4-30.1,18.2c-7.6,4.3-15.5,8.1-23.2,12.1
		c-2.6,1.3-5.1,1-7.6-0.4c-3.9-2.2-7.9-4.1-11.8-6.3c-8.5-4.9-17.1-9.7-25.5-14.8c-7.5-4.5-14.8-9.3-22.1-14.1
		c-4.7-3.1-9.3-6.4-13.8-9.9c-6-4.6-11.9-9.3-17.6-14.3c-9.8-8.6-18.6-18.2-26.2-28.9c-5.6-7.9-10.5-16.2-14.6-24.9
		c-8.2-17.6-13.4-36.2-15.4-55.5c-1-8.9-0.8-18-0.9-27c-0.1-15.6,0-31.2,0-46.8h-0.6v-58.5c0-0.7,0-1.5,0-2.2
		c0.2-5.1,1.7-6.5,6.8-6.9c14.9-1.1,29.8-3,44.2-6.9c11.6-3.1,23.2-6.4,34.5-10.3c6.9-2.4,13.5-5.9,20.1-9.2
		c5.4-2.7,10.8-5.7,15.9-9c7.5-4.8,14.7-10.1,22-15.2c2.2-1.6,4.3-3.3,6.5-4.9c1.9-1.3,3.8-1.1,5.6,0.2c5.5,4,10.9,8.3,16.6,12
		c8.6,5.5,17.3,10.7,26.2,15.6c5.5,3,11.2,5.7,17,8c9,3.5,18,7.1,27.3,9.6c11.8,3.2,23.9,5.6,36,7.9c7.9,1.5,15.8,2.3,23.8,3.2
		c3,0.3,4.6,1.8,4.6,4.6c0.1,3.1-0.1,6.2-0.1,9.3C403.7,167.6,404,197,403.9,226.3z"/>
	<path d="M366.9,149c-16-1.7-31.7-4.9-47-9.8c-6.8-2.2-13.5-4.9-20.1-7.7c-6.4-2.7-12.8-5.5-18.7-8.9c-9.7-5.6-19-11.8-28.5-17.8
		c-2.1-1.3-4.2-1.6-6.4-0.2c-1.9,1.3-3.8,2.5-5.7,3.8c-11,7.7-22.2,15.2-34.7,20.5c-3.2,1.4-6.3,2.9-9.5,4.2
		c-5.8,2.3-11.6,4.8-17.6,6.6c-7.6,2.2-15.3,4.1-23.1,5.6c-7.3,1.4-14.7,2.4-22.1,3.2c-5,0.5-8,3.4-8,8.5c0,17,0,34.1,0,51.1h0.1
		c0,11.2-0.1,22.4,0,33.6c0.1,7.1,0,14.3,0.8,21.3c1.3,10.8,2.6,21.8,6.9,32c2.9,6.9,5.4,14,9.3,20.3c5,8.1,10.8,15.7,16.9,23.1
		c8.5,10.3,18.9,18.8,29.5,26.7c8.6,6.4,17.6,12.2,26.8,17.9c10,6.2,20.3,12,30.7,17.7c1.6,0.9,4.3,0.8,6.2,0.2
		c2.9-1,5.5-2.8,8.2-4.3c8.3-4.8,16.7-9.4,24.8-14.4c9.3-5.8,18.6-11.4,27.3-18c8.3-6.3,15.9-13.6,23.5-20.8
		c7.6-7.2,14-15.4,18.8-24.6c3.7-7,7.1-14.2,9.9-21.5c2.6-6.9,4.9-14,5.9-21.3c1.4-9.9,2-20,2.2-30c0.4-29.6,0.5-59.3,0.7-88.9
		C373.9,152.1,371.8,149.6,366.9,149z M364.6,201.8c-0.2,18.4-0.3,36.8-0.6,55.2c-0.2,12.6-2.7,24.8-7.3,36.5
		c-2.9,7.3-5.8,14.6-9.8,21.3c-8.3,14.1-19.3,26-32,36.3c-10.8,8.7-22.1,16.6-34.1,23.6c-7.2,4.2-14.4,8.5-21.6,12.7
		c-0.9,0.5-1.8,1.2-2.7,1.9c-4.3,3.3-7.4,3.3-12,0.5c-8.5-5.3-17.2-10.2-25.6-15.6c-9.3-6-18.4-12.4-27.5-18.7
		c-9-6.3-16.9-13.9-24.4-21.9c-7.2-7.7-13-16.4-18-25.6c-8.5-15.6-12.9-32.4-13.6-50.2c-0.3-9.4,0-18.8,0-28.2c-0.2,0-0.4,0-0.6,0
		c0-17.8,0-35.7,0-53.6c0-4-0.3-8-0.4-12c-0.2-4.6,1.6-6.9,6.2-7.3c11.2-0.8,22.3-2.9,33-6c9.4-2.8,18.6-6.3,27.7-9.9
		c7.3-2.9,14.5-6.4,21.5-10.1c5.9-3.1,11.6-6.9,17.2-10.5c2.2-1.4,4.3-3.1,6.5-4.6c2.4-1.6,4.8-1.2,7.2,0.3
		c6.9,4.4,13.6,9.2,20.7,13.1c7.4,4.1,15.3,7.6,23.1,11c6.3,2.8,12.8,5.4,19.4,7.3c10.6,3,21.3,5.5,32,8.1c3.3,0.8,6.8,1,10.3,1.3
		c4.3,0.5,6,2.3,5.9,6.6C364.9,176.1,364.8,188.9,364.6,201.8z"/>
	<path d="M320.1,210.3c-0.8,1.1-1.8,3.3-3.4,4.9c-14,14.2-28.1,28.4-42.3,42.4c-11.2,11-22.6,21.7-34,32.4c-3.4,3.2-5.8,3.2-9.2-0.1
		c-12-11.4-24-22.9-36-34.4c-0.3-0.3-0.5-0.5-0.8-0.8c-2.4-2.6-2.8-4.7-1-6.8c1.8-2,3.7-2,6.7,0.5c4.2,3.6,8.3,7.4,12.3,11.2
		c6.6,6.4,13.1,13,19.6,19.5c3.1,3.1,4.7,3.1,7.8,0c18-17.9,35.9-35.7,53.9-53.6c6.2-6.2,12.5-12.2,18.8-18.3c0.6-0.6,1.3-1.1,2-1.5
		C317.3,204.2,320.1,205.8,320.1,210.3z"/>
</g>
</svg>
