<?xml version="1.0" encoding="utf-8"?>
<!-- Generator: Adobe Illustrator 24.0.1, SVG Export Plug-In . SVG Version: 6.00 Build 0)  -->
<svg version="1.1" id="Layer_1" xmlns="http://www.w3.org/2000/svg" xmlns:xlink="http://www.w3.org/1999/xlink" x="0px" y="0px"
	 viewBox="0 0 500 500" style="enable-background:new 0 0 500 500;" xml:space="preserve">
<g>
	<path d="M455.4,241.2c-3.6-7-7.1-14.1-10.5-21.2c-4-8.3-7.8-16.6-11.7-24.8c-3.4-7.3-6.7-14.7-10.3-21.9
		c-3.6-7.2-7.5-14.3-11.2-21.4c-4-7.8-7.9-15.7-12-23.5c-3.1-5.9-6.5-11.5-9.7-17.3c-1.8-3.2-4.5-4.1-7.8-3.3
		c-2.6,0.6-5.1,1.4-7.6,2.2c-6.6,2.3-13.1,4.8-19.8,6.8c-9.8,2.9-19.5,5.9-29.9,2.7c-5.5-1.7-11.2-2.5-16.6-4.5
		c-8.9-3.2-17.6-7.2-26.5-10.5c-4.1-1.5-8.4-2.2-12.7-3.2c-6.4-1.6-12.8-1.4-19.1,0.5c-5.7,1.7-11.1,3.7-16.3,6.6
		c-6.7,3.7-14.1,6.2-21.1,9.4c-2.2,1-4.3,2.3-6.4,3.6c-3.5,2.2-7.2,3.6-11.4,2.8c-7.8-1.6-15.6-3.2-23.4-5.2
		c-6.7-1.7-13.2-3.8-19.8-5.9c-2.8-0.9-5.5-1.9-8.2-2.9c-2.7-1-5.3-2.3-8-3.3c-6.3-2.4-12.5-4.9-18.9-7.1c-3.5-1.2-7,0-8.5,2.6
		c-2.5,4.4-4.9,8.9-7,13.5c-3.3,7.3-6.3,14.8-9.7,22.2c-2.8,6.1-5.8,12.1-8.6,18.2c-3.6,8-7,16.1-10.6,24.1
		c-3.8,8.4-7.7,16.8-11.5,25.2c-3.1,6.8-6.1,13.7-9.2,20.6c-2.4,5.4-5,10.7-7.3,16.1c-1.1,2.4-1.4,5.1,0.5,7.2
		c1.7,2,3.7,3.7,5.9,5.2c2.8,1.9,6.1,3.2,8.9,5.2c10.3,7.1,20.4,14.5,30.7,21.6c4.2,2.8,4.7,6.3,3.5,10.6c-1,3.3-1.7,6.7-2.4,9.6
		c0.3,1.9,0.5,3.4,0.8,4.8c0.8,4.9,4.8,7.5,7.7,10.9c3.5,4.1,8.2,5.4,13.3,6.1c7,1,11.1,4.2,11.4,11.7c0.2,4.4,1,8.9,4.7,11.8
		c3.9,3.2,8,6.4,13.3,7.1c2.5,0.4,5.1,0.3,7.6,0.4c5.7,0.2,7.6,2,9.2,7.3c1.1,3.6,2.4,7.4,4.6,10.3c6.1,8.2,13.7,11,21.8,8.6
		c8.3-2.4,10.3-1.5,13.6,6.4c2.6,6.1,7.3,9.8,13.4,11.9c6.5,2.3,13.2,2,19.5-0.2c5.1-1.7,9.9-4.2,12.6-9.3c2-3.7,4.3-4.4,8-2.2
		c2.2,1.3,4.2,2.9,6.4,4.2c7.8,4.6,16.3,5.1,24.3,1.3c5.5-2.7,10.7-6.8,14.7-11.5c5.3-6.1,11.9-9.7,19.1-12.6
		c3.4-1.4,5.6-3.6,6.9-7.2c1.5-4.2,4.2-7.7,8.8-9c2.7-0.8,5.7-0.9,8.1-2.2c9.6-4.8,17.6-11.3,20.4-22.3c1.3-5.1,5-7.5,10.3-7.1
		c1.8,0.1,4.1,0,5.5-1c4.3-3.1,8.6-6.4,12.3-10c2.2-2.2,3.4-5.3,5.3-7.9c2.4-3.3,3.4-7.1,2.5-10.9c-1.5-6.3,2.3-9.9,7.2-12.4
		c8.3-4.3,16.7-8.3,24.9-12.7c5.1-2.7,9.9-5.9,14.9-8.8c1.7-1,3.6-1.9,5.4-2.5C456.3,252.6,458.5,247.2,455.4,241.2z M128.8,308.2
		c-4.5,4.7-9.9,5.4-15.3,2c-4.4-2.8-8.6-6-8.6-13.4c-0.1-3.7,2.2-7.8,5.4-11.4c4.6-5.1,9.5-10.1,14.3-14.9
		c4.4-4.4,10.1-4.2,14.5,0.2c2.5,2.6,5.2,5.1,7.7,7.7c3.1,3.2,3.3,7.2,0.3,10.5C141.1,295.3,135,301.8,128.8,308.2z M164.2,334.5
		c-1.8,1.9-4,3.4-6.1,4.9c-3.2,2.3-6.5,2-9.8,0.2c-2.1-1.2-4-2.8-6-4.3c-3-2.3-4.4-5.2-4.1-8.8c-0.2-3.9,1.5-6.7,3.4-9.7
		c4.3-6.6,9.6-12.3,15.3-17.7c3-2.8,6.1-5.5,9.3-8c3.9-3,8.6-3.1,12.2,0.3c3.8,3.5,7.2,7.4,10.6,11.3c1.5,1.7,1.4,3.7,0,5.5
		c-0.3,0.4-0.6,0.9-1,1.3C180.1,317.8,172.2,326.2,164.2,334.5z M189.9,365.6c-5.9,4.8-10.9,4-15.5-2c-3.9-5.1-5.9-10.9-2.7-17
		c1.6-2.9,4.4-5.3,6.9-7.6c5.6-5.2,11.4-10.2,17.2-15.1c2.6-2.2,5.5-4.2,8.4-6.1c3.7-2.3,7.6-1,9.9,3c2,3.4,3.4,7,2.9,11.1
		c0.7,6.5-2.9,11.3-6.8,15.3C203.8,353.7,197,359.8,189.9,365.6z M236.4,376.3c-2.6,3-5,6.2-7.8,9c-2.4,2.5-5.6,3.1-9,3.2
		c-0.1,0.2-0.3,0.5-0.4,0.7c-2.1-1.1-4.3-2-6.2-3.4c-1.6-1.2-2.8-2.8-4-4.4c-4.5-5.8-4-10.2,1.5-15.2c3-2.7,6.1-5.4,9.1-8.2
		c2.4-2.2,6.3-2.8,8.8-0.7c3.2,2.7,6.3,5.8,8.8,9.2C239.5,369.6,238.9,373.4,236.4,376.3z M380.4,297.9c-2.1,3-4.5,5.9-7.3,8.4
		c-3.9,3.5-7.5,3.3-11.5,0c-3.8-3.1-7.4-6.4-11-9.7c-10.2-9.2-20.4-18.3-30.6-27.5c-3-2.7-5.8-5.5-8.9-8c-3.3-2.6-6.9-2.4-9.6,0.2
		c-2.4,2.3-2.7,5.8,0.2,9.1c4.5,5.3,9.3,10.4,14.4,15.2c9.2,8.8,18.6,17.3,27.9,26c1.1,1,2,2.4,3,3.5c3.1,3.5,4.2,7.3,2,11.8
		c-3.5,6.9-7.3,9.9-13.4,9.9c-3.6,0.2-6.9-1.2-9.7-3.6c-5.4-4.4-10.7-9-16-13.6c-8.5-7.6-16.9-15.4-25.4-23.1
		c-2.7-2.4-7.2-2.1-10,0.5c-2.9,2.8-3.3,7.7-0.5,10.7c5,5.3,10.2,10.3,15.5,15.3c3.6,3.4,7.4,6.7,11.3,9.9c3.3,2.7,6.6,5.3,10,8
		c6.9,5.5,6.4,11.7-1.2,16.3c-4.4,2.6-8.7,3.6-13.2,0.4c-2.8-2-5.7-3.8-8.5-5.9c-3.2-2.4-6.3-4.9-9.5-7.3c-5.5-4.3-11-8.7-16.6-12.7
		c-7.9-5.7-15.1-6.7-21.6-0.2c-2.6,2.6-1.8,7.1,1.3,9.1c7,4.4,13.8,9,20.9,13.3c5.2,3.2,10.7,5.8,15.8,9c2.9,1.8,5.5,4.1,7.8,6.6
		c1.7,1.8,1.4,4.2-0.4,6.2c-4.6,5-11,6.4-17.4,4.2c-7.1-2.5-12.8-6.4-15.9-13.5c-0.2-0.4-0.5-0.8-0.5-1.3c-0.7-7.3-6-11.8-10.4-16.7
		c-0.8-0.9-1.9-1.7-2.2-2.7c-1-2.9-2.7-5.1-4.7-7.4c-1.8-2.1-2.1-5.5-3-8.3c-3.8-12.3-11.3-21.2-23.6-25.7c-0.5-0.2-1-0.4-1.6-0.4
		c-4.3-0.2-6.5-3-7.9-6.5c-2.3-5.9-6.2-10.5-10.8-14.5c-3.2-2.7-6-6.5-10.6-6.9c-3.5-0.3-7.1-0.5-10.4,0.3c-6.1,1.4-10.1-0.3-12.8-6
		c-3.8-8.2-10.1-13.9-18.9-16.5c-2-0.6-4.4-0.3-6.4,0.3c-4.8,1.3-9,3.9-12.5,7.5c-2.4,2.4-4.8,4.8-7.2,7.1c-4.1,4-7.8,4.3-12.4,0.8
		c-4.9-3.8-9.7-7.7-14.8-11.2c-4.8-3.4-10-6.3-15-9.3c-0.8-0.5-1.8-1-2.6-1.6c-5.8-4.2-6.2-7.6-2.8-14c4.3-8.1,7.9-16.5,11.9-24.7
		c0.8-1.6,1.8-3.1,2.6-4.8c3-6,6.1-12,8.8-18.1c3.2-7.1,5.9-14.4,8.9-21.6c1.5-3.6,3.3-7.1,4.9-10.6c4.3-9.2,8.6-18.4,12.9-27.6
		c0.4-0.9,0.8-1.8,1.1-2.8c2.3-6.4,6.7-8.6,13.1-6.4c2.2,0.8,4.2,2.2,6.4,3c3.7,1.4,7.5,2.6,11.3,3.9c9.3,3.2,18.5,6.5,28.4,7.6
		c4.5,0.5,9,1.1,13.5,1.4c5,0.4,7.1,4,4.5,8.4c-2.1,3.5-4.7,6.7-6.8,10.2c-4,6.4-8,12.7-11.7,19.2c-3.1,5.5-5.8,11.2-8.7,16.9
		c-2.2,4.4-3.2,9.1-2.5,14c0.3,1.9,1,3.9,2.1,5.5c3.5,4.9,7.6,9.2,13.2,11.9c3.5,1.6,7,1.3,10.4,0.5c5.1-1.2,10.4-2.3,15.1-4.5
		c5.3-2.5,10.4-5.7,15-9.3c7.8-6.1,15.2-12.6,22.8-19.1c3.4-2.9,6.6-6,9.9-9c4-3.7,8.5-4,12.8-0.6c7,5.7,13.8,11.5,20.8,17.2
		c7.3,6,14.8,11.7,21.9,17.9c10.7,9.3,21.3,18.7,31.8,28.3c8,7.3,16,14.6,23.7,22.1c7,6.8,13.8,13.7,20.4,20.9
		C384.5,288.4,384.5,291.9,380.4,297.9z M431.6,249.4c-2,1.3-4.1,2.4-6.1,3.6c-6.9,4.1-13.7,8.1-20.6,12.2c-2,1.2-3.9,2.6-6,3.8
		c-5,2.8-9.1,2.1-13.3-1.8c-8.5-7.8-17.1-15.5-25.7-23.2c-8.3-7.6-16.6-15.2-25-22.7c-10-9-20-18-30-27c-5.6-5-11.1-10.2-17-14.9
		c-6.6-5.3-13.4-10.6-20.6-15.2c-7.5-4.7-15.6-6-23.6-0.6c-2.5,1.7-4.8,3.6-7,5.6c-7.3,6.6-14.4,13.3-21.6,19.9
		c-6.1,5.7-13.2,10-20.6,13.5c-3.5,1.7-8,1.9-12,1.7c-6.5-0.3-10.7-7.2-8.1-13.1c2.7-6.2,5.9-12.3,9.2-18.2c3.4-6.1,7.1-12,11-17.8
		c3.5-5.2,7.2-10.3,11.2-15c4-4.7,8.5-8.9,14.4-11.4c2.1-0.9,3.9-2.7,6-3.7c9.4-4.6,18.6-9.4,28.9-11.8c1.5-0.3,3-0.4,4.6-0.6
		c0-0.1,0.1-0.3,0.2-0.4c4.8,1.2,9.8,2,14.4,3.7c9.5,3.4,18.8,7.7,28.4,10.9c7.1,2.4,14.5,4.3,21.9,5.5c13.9,2.3,27.3-1.1,40.6-4.6
		c2.6-0.7,5-2.2,7.6-3.1c6.4-2.3,9.5-1,12.9,4.8c3.4,5.8,7,11.4,10.3,17.3c1.4,2.5,2.3,5.3,3.6,7.9c4.7,9.8,9.3,19.6,14.1,29.4
		c3.6,7.3,7.2,14.6,10.8,21.9c4.5,9.2,8.6,18.6,13.5,27.5C441.8,240.3,437.4,245.8,431.6,249.4z"/>
</g>
</svg>
