<?xml version="1.0" encoding="utf-8"?>
<!-- Generator: Adobe Illustrator 24.0.1, SVG Export Plug-In . SVG Version: 6.00 Build 0)  -->
<svg version="1.1" id="Layer_1" xmlns="http://www.w3.org/2000/svg" xmlns:xlink="http://www.w3.org/1999/xlink" x="0px" y="0px"
	 viewBox="0 0 500 500" style="enable-background:new 0 0 500 500;" xml:space="preserve">
<g>
	<path d="M419.1,204.6c-2.7-5.6-6.3-10.4-12.1-12.8c-5.4-2.2-10.9-4.1-16.6-5.4c-14.3-3.2-28.6-6-42.9-9c-9.3-2-18.5-4-27.7-6.2
		c-1.5-0.4-3-1.4-4.1-2.5c-1.4-1.4-2.4-3.1-3.4-4.9c-5.2-9.5-10.3-19.1-15.5-28.7c-6.1-11.2-12.2-22.4-18.5-33.6
		c-3.2-5.6-7-10.6-12.9-13.8c-5.2-2.8-10.6-3.9-15.7-3.6c-11.5-0.4-20.1,3.7-26.1,12.7c-1.5,2.2-2.9,4.5-4.2,6.8
		c-4.4,7.9-8.7,15.7-13,23.6c-2.9,5.4-5.6,10.9-8.6,16.3c-4.3,7.7-8.8,15.3-13,23.1c-1.9,3.6-4.7,5.4-8.4,6.2
		c-5.9,1.3-11.8,2.4-17.6,3.5c-9.7,1.9-19.4,3.8-29,5.8c-9.7,2-19.4,4.3-29.2,6.3c-4.4,0.9-8.5,2.8-11.9,5.5c-5,4-8.2,9.2-10,15.7
		c-3,10.7-0.6,20,6,28.3c7.9,9.9,16.5,19.3,25,28.9c8.6,9.7,17.2,19.4,26,28.9c2.6,2.8,3.3,5.9,3,9.6c-0.7,10.6-1.2,21.1-1.8,31.7
		c-0.9,14.5-1.9,29-2.7,43.5c-0.6,11.5,3.1,21.2,12.5,28.1c6.6,4.8,13.9,7.6,22.2,5.8c3.3-0.7,6.6-1.7,9.7-3
		c8.8-3.6,17.6-7.4,26.4-11.2c4.8-2.1,9.5-4.3,14.3-6.3c7.1-3.1,14.3-5.9,21.3-9.1c5.9-2.7,11.4-3.3,17.5-0.4
		c7.8,3.7,15.8,6.9,23.6,10.3c3.8,1.6,7.5,3.3,11.3,4.9c3.7,1.7,7.4,3.4,11.2,5c7.5,3,15.2,5.4,22.5,8.7c9,4.1,17.3,2.5,25.1-2.1
		c11.5-6.8,16.4-17.4,15.5-30.8c-1-14.8-1.9-29.6-2.8-44.5c-0.7-10.9-1.4-21.7-2.3-32.6c-0.2-3,0.3-5.6,2.4-7.9
		c2.6-2.9,5.1-5.8,7.7-8.7c8.7-9.6,17.5-19.2,26-28.9c6.7-7.7,13.2-15.5,19.6-23.5c2.5-3.2,4.6-6.9,4.9-11.1
		C423.1,216.9,422,210.6,419.1,204.6z M409.1,233.2c-9.5,11.2-19.3,22.2-28.9,33.3c-8.2,9.4-16.5,18.7-24.7,28.2
		c-0.8,1-1.2,2.6-1.2,3.9c0.2,6.1,0.7,12.2,1.1,18.2c0.6,9.3,1.2,18.6,1.7,27.9c0.8,12.7,1.7,25.4,2.2,38.1
		c0.4,10.7-3.7,18.3-13.8,23.2c-5.5,2.7-10.6,2.9-16.2,0.5c-9-3.8-18.2-7.2-27.2-10.9c-11.4-4.8-22.6-9.8-33.9-14.6
		c-5.4-2.3-10.9-4.5-16.5-6.5c-1.4-0.5-3.4-0.6-4.8,0c-8.8,3.4-17.7,6.8-26.4,10.5c-10.4,4.4-20.7,9.3-31.2,13.7
		c-6.5,2.8-13.2,5.2-19.8,7.7c-7.9,2.9-14.7,0.3-20.5-4.9c-5.6-5.1-8.1-11.7-8-19.3c0.7-8.9,1.6-17.8,2.2-26.7
		c0.6-9.3,0.9-18.6,1.5-27.9c0.6-8.8,1.4-17.5,1.9-26.2c0.1-1.3-0.2-2.9-1-4c-3.1-4.3-6.3-8.7-9.8-12.7
		c-9.8-11.2-19.8-22.2-29.6-33.3c-5.1-5.7-10.3-11.4-15.1-17.3c-6.7-8.3-8.5-17.3-3.2-27.1c3.4-6.4,9.3-9.5,16.1-11
		c18.2-3.9,36.5-7.8,54.7-11.6c5.9-1.2,11.7-2.7,17.7-3.5c6.6-0.9,11-4.5,14.2-10.1c5.4-9.5,11-18.9,16.4-28.5
		c6-10.8,11.8-21.8,17.8-32.6c2.8-5.2,5.8-10.2,10.8-13.6c6.9-4.7,14.4-5.3,22.2-2.8c6.5,2,10.8,6.8,14,12.5
		c6.2,11,12.1,22.1,18.1,33.2c4.6,8.6,9.1,17.3,13.8,25.9c1.9,3.4,4.3,6.6,6.4,9.9c1.8,2.7,4.4,4,7.4,4.7c4.2,0.9,8.4,1.6,12.6,2.4
		c8.9,1.9,17.8,3.8,26.7,5.7c9.7,2,19.3,4,29,6c4.1,0.8,8.2,1.6,12.3,2.6c7.6,2,12.4,7,15.4,14.1
		C417.1,218.9,414.9,226.4,409.1,233.2z"/>
	<path d="M332.6,270.9c0-18.7,0-37.5,0-56.2c0-4.6,0-9.2,0-13.8c0-4.3-1.2-5.5-5.4-5.7c-10.9-0.4-21.8-0.7-32.7-0.9
		c-5.2-0.1-6.8,1.5-6.8,6.7c0,7,0,13.9,0,20.9c0.1,9.8,0.2,19.6,0.2,29.4c0,29.6,0,59.3,0.1,88.9c0,1.1,0,2.2,0.2,3.3
		c0.4,2.9,2,4.3,5,4.3c2.4,0,4.9-0.1,7.3,0c9.5,0,19,0.1,28.5,0.1c2.7,0,4-1.3,4.3-4c0.2-1.5,0.2-3,0.2-4.5c0-22.8,0-45.7,0-68.5
		H332.6z M325.5,333.3c0,0.9,0,1.9-0.1,2.8c-0.2,2.7-1.6,4.1-4.3,4.1c-7.3,0.1-14.5,0.1-21.8,0.1c-2.7,0-3.8-1.4-3.8-4.6
		c0-16,0-31.9,0-47.9c0-24.3,0-48.5,0-72.8c0-2.6-0.2-5.2-0.3-7.8c-0.1-3.1,1.4-4.8,4.5-4.8c7.2,0.1,14.4,0.3,21.6,0.4
		c2.7,0.1,3.8,1.2,3.8,4.3c0,21.3,0,42.7,0,64c0.1,0,0.3,0,0.4,0C325.5,291.9,325.5,312.6,325.5,333.3z"/>
	<path d="M269.9,292.3c0-2.8,0-5.5,0-8.3c0.1-13.8,0.2-27.7,0.3-41.5c0-3.6-2-5.6-5.8-5.6c-11.3-0.1-22.6-0.2-33.9-0.3
		c-4.4,0-6.4,2-6.3,6.4c0.1,10.2,0.2,20.4,0.3,30.6c0.1,11.6,0.2,23.2,0.2,34.9c0,10.5,0.1,21-0.2,31.5c-0.1,5.2,2,7.6,7.2,7.6
		c10,0,19.9-0.1,29.9,0.2c7.2,0.2,8.5-0.8,8.5-8c0-15.8,0-31.6,0-47.4H269.9z M255.2,340.3c-5.4-0.3-10.9-0.1-16.3-0.1
		c-0.9,0-1.7,0.1-2.6,0c-3.1-0.4-3.9-1.4-3.9-4.5c0-13.8,0-27.7,0-41.5h0.1c0-12.3,0-24.7,0-37c0-2.4-0.3-4.9-0.4-7.3
		c-0.2-3.9,1.4-5.6,5.3-5.6c6.5,0,12.9-0.1,19.4-0.1c3.9,0,5.5,1.5,5.6,5.4c0.1,3.6,0,7.1,0,10.7c0,17.6-0.1,35.3-0.1,52.9
		c0,6.9,0,13.7,0.1,20.6C262.4,339.3,260.7,340.6,255.2,340.3z"/>
	<path d="M205.8,310.5c0-10.1,0-20.2,0-30.3c0-3.5-1.2-4.6-4.5-4.6c-11.9-0.1-23.9-0.1-35.8-0.1c-2.7,0-4.5,1.5-4.7,4.3
		c-0.2,3.1-0.1,6.3-0.1,9.5c-0.1,17.2-0.2,34.4-0.1,51.7c0,5.7,2.6,7.4,6.9,6.6c1-0.2,2.1-0.1,3.1-0.1c10.6,0.1,21.2,0.2,31.8,0.3
		c2.3,0,3.5-1.3,3.7-3.5c0.1-1.9,0.3-3.8,0.3-5.7c0-9.3,0-18.6,0-28H205.8z M198.6,336.4c0,2.9-1.3,4-4.1,4c-7.3,0-14.5,0-21.8,0
		c-3.1,0-4.4-1.4-4.4-4.5c0-7.4,0-14.9,0-22.3h-0.2c0-8.2,0-16.4,0-24.6c0-5.2,1.2-6.2,6.5-6c6,0.3,12,0.2,18,0.1
		c5.2,0,6.2,0.9,6.1,6.2c-0.1,12.5-0.2,25-0.3,37.4C198.4,329.9,198.7,333.2,198.6,336.4z"/>
</g>
</svg>
