<?xml version="1.0" encoding="utf-8"?>
<!-- Generator: Adobe Illustrator 24.0.1, SVG Export Plug-In . SVG Version: 6.00 Build 0)  -->
<svg version="1.1" id="Layer_1" xmlns="http://www.w3.org/2000/svg" xmlns:xlink="http://www.w3.org/1999/xlink" x="0px" y="0px"
	 viewBox="0 0 842.3 1000" style="enable-background:new 0 0 842.3 1000;" xml:space="preserve">
<g>
	<path d="M5386-445.7c166.6,99.2,331.7,197.5,495.9,295.3c0,138,0,273.3,0,406.6c-41,25-80.5,49.4-120.4,73.1
		c-30.1,17.9-61,34.5-91,52.6c-50.6,30.5-100.3,62.5-151.1,92.6c-45.1,26.7-91.3,51.8-137.4,77.8
		c-166-102.8-335.9-197.9-499.4-299.5c0-135.6,0-267.2,0-401.3c20.5-12.1,42.2-24.7,63.8-37.6c53.8-32.2,107.5-64.7,161.4-96.8
		c30.1-18,60.8-35.1,90.8-53.2c37.7-22.8,74.6-46.7,112.4-69.1C5335.7-419.8,5361.5-432.6,5386-445.7z M5364.9,156
		c-148.3-89-296.7-178.2-445.5-267.5c-6.5,34.4-8.3,225-3.5,352.3c24.4,13.8,48.9,26.3,72,41.1c64.5,41.1,131.4,78.1,197.4,116.7
		c36.9,21.6,72.2,45.9,108.9,67.9c22.2,13.3,45.6,24.5,70.7,37.7C5364.9,388.2,5364.9,274.5,5364.9,156z M5673.9,347.3
		c64.1-41.9,128.1-73.4,184.5-112.6c0-116.2,0-227.6-0.1-339c0-1.1-0.8-2.4-1.5-3.4c-0.8-1-1.9-1.7-5.2-4.4
		c-59.3,35.8-119.4,72.1-178.5,107.9c0,40,0,77.5,0,116c-24.1,24.2-55.6,36.6-87.9,55.8c-3.4-41.7,2.6-79.7-4.3-118.7
		c-63.2,38-123.3,74.1-180.6,108.6c0,117.1,0,230.8,0,350c63.7-36.9,123.8-71.7,184.2-106.6c0-40.1,0-80.3,0-121
		c26.9-19.8,55.8-36.1,89.4-54.5C5673.9,267.7,5673.9,304.6,5673.9,347.3z M5569.2,20.8c-152.6-90-303.8-179.2-457.9-270.1
		c-29.2,17.1-59.5,34.3-89.4,52.4c-30.7,18.6-61,38-92.5,57.7c152.8,91,302.7,180.2,454.9,270.7
		C5443.1,96.4,5504.3,59.7,5569.2,20.8z M5838.9-144.1c-48.5-22.8-88.6-52.1-132.7-75.2c-51-26.7-98.7-59.9-147.9-90.1
		c-34.2-21-68.4-42-102.9-62.5c-22.5-13.3-45.5-25.8-68.7-38.8c-65.2,31-123.1,70.8-185.1,107.3c154.7,93.5,305.6,184.8,453.7,274.3
		c33.4-20,64.2-37.1,93.5-56.5C5777.5-104.6,5810.5-117.4,5838.9-144.1z"/>
	<path d="M5416.3,296.4c37.1-23.2,72.3-45.2,107.7-67.2c0.5,0.4,1.7,1.1,2.4,2.1c0.7,1,1.4,2.3,1.4,3.4
		c0.1,61.6,0.1,123.2,0.1,183.2c-38,23-74.2,45-111.5,67.5C5416.3,422.8,5416.3,360,5416.3,296.4z"/>
	<path d="M5850.3,41.5c-29.9,17.4-57.7,33.6-87.4,50.9c0-46,0-89.9,0-136.8c25.4-15.8,53.1-33,84.4-52.5c5.6,23.9,2.2,46,2.8,67.6
		C5850.8-6.6,5850.3,16.1,5850.3,41.5z"/>
	<path d="M5298.3-340.3c33.9-19.6,63-36.4,90.9-52.6c34.4,20.9,67.2,40.9,104.7,63.7c-33.4,21-62.4,39.2-89,55.9
		C5370.1-295.1,5336.1-316.5,5298.3-340.3z"/>
</g>
<g>
	<path d="M159.3,205.7C99.9,174.8,103,121.6,108.6,69c3.9-36.3,28.9-56.6,63.2-64.6c13.5-3.1,27.9-3.2,41.8-3.3
		c137.6-0.2,275.2-0.2,412.7,0c14,0,28.3,0.3,41.9,3c35.4,6.9,65.6,35.3,64.3,72.3c-0.3,9.8,1.2,19.6,1.5,29.4
		c1.4,41.9-8.8,78.1-52.7,99.6c18.8,22.6,35.6,44.3,53.9,64.5c44.3,48.7,69.2,104.9,68.6,171.3c-1.3,130.5,0.9,261.1-5.3,391.4
		c-5.1,106.5-62.7,160.9-170.4,163.6c-138.8,3.6-277.9,3.6-416.7-0.1C104.3,993.4,44.3,935,40.9,827.2c-4.5-140.2-1.6-280.7-0.6-421
		c0.3-40.7,18.4-75.9,43.4-107.4C107.9,268.2,132.8,238.2,159.3,205.7z M731.3,620.5c0.1,0,0.2,0,0.4,0c0-66-0.4-132,0.2-198
		c0.3-31.2-10.5-57.8-29.8-81.2c-31.2-37.9-63.4-75.1-94.5-113.2c-9.7-11.8-20.6-16.9-36-16.8c-101.2,0.5-202.3-0.2-303.5,0.9
		c-10.9,0.1-24.6,6.5-32,14.5c-30.3,33.1-58.2,68.5-88,102.2c-29.5,33.4-41.3,72.3-41.2,116.1c0.5,115.2,0,230.4,0.9,345.6
		c0.2,22.3,3.5,44.9,8.1,66.8c7.2,34.5,27.3,58.5,63.9,63.8c26.3,3.9,52.8,8,79.3,8.2c108.2,0.9,216.4,1,324.6-0.1
		c27.8-0.3,55.9-4.5,83.4-9.5c28.6-5.2,47.5-23.9,54.9-52c4.6-17.5,8.7-35.7,9-53.6C732,749.8,731.3,685.1,731.3,620.5z M178.8,72.1
		c0,24.1,0,42.9,0,62.7c12.6,1.8,22.2,4.2,31.8,4.3c140.4,0.3,280.8,0.3,421.1-0.1c10.5,0,21-3.7,33.1-6c-1.1-22.3-2-41.2-3-60.8
		C498.9,72.1,340.7,72.1,178.8,72.1z"/>
	<path d="M381.5,399.9c8.3-38.1,18.3-50.8,38.1-50.7c19.5,0.1,28.6,12,36.9,47.5c19.9,10.6,42.4,17.9,58.3,32.4
		c16.9,15.3,30.2,36.2,40.1,57c9.3,19.5-0.3,38.3-16.9,45.4c-17.5,7.5-32.4,1.2-44.7-18.8c-26.8-43.7-68.3-59-109.4-39.3
		c-8.7,4.1-17.2,10-23.7,17c-19.6,21.4-13.4,47.3,14.2,56.2c14.4,4.7,30.3,4.6,45.6,6.7c23.5,3.3,47.9,3.7,70.3,10.5
		c51.4,15.4,77.4,48.7,80.4,96.1c3.4,52.1-19.7,89.2-64.7,113c-14.6,7.7-31.1,11.9-48.6,18.4c-6.7,18.8-7.3,45.6-38.1,45.1
		c-29.9-0.5-34-24-35.9-37.5c-33.4-23.6-63.4-39.8-86.4-62.9c-14.4-14.5-20.9-38.8-26.2-59.8c-4.1-16.2,6.3-29.6,23.1-35.2
		c17-5.7,35.1,0.8,40.8,19.2c7.6,24.5,19.5,42.9,43.6,52.7c28.7,11.6,58,9.3,86.9,2.1c24.9-6.2,37.5-23.1,36.6-44.7
		c-1-23.7-16.3-40.3-42.7-44.1c-15.2-2.1-31.1-0.2-46.2-2.9c-25.9-4.7-53.4-7.4-76.6-18.4c-62-29.4-76-95.4-35.2-151.4
		C320.9,426.3,348.4,410.5,381.5,399.9z"/>
</g>
</svg>
