<?xml version="1.0" encoding="utf-8"?>
<!-- Generator: Adobe Illustrator 24.0.1, SVG Export Plug-In . SVG Version: 6.00 Build 0)  -->
<svg version="1.1" id="Layer_1" xmlns="http://www.w3.org/2000/svg" xmlns:xlink="http://www.w3.org/1999/xlink" x="0px" y="0px"
	 viewBox="0 0 1047.5 1000" style="enable-background:new 0 0 1047.5 1000;" xml:space="preserve">
<g>
	<path d="M5386-445.7c166.6,99.2,331.7,197.5,495.9,295.3c0,138,0,273.3,0,406.6c-41,25-80.5,49.4-120.4,73.1
		c-30.1,17.9-61,34.5-91,52.6c-50.6,30.5-100.3,62.5-151.1,92.6c-45.1,26.7-91.3,51.8-137.4,77.8
		c-166-102.8-335.9-197.9-499.4-299.5c0-135.6,0-267.2,0-401.3c20.5-12.1,42.2-24.7,63.8-37.6c53.8-32.2,107.5-64.7,161.4-96.8
		c30.1-18,60.8-35.1,90.8-53.2c37.7-22.8,74.6-46.7,112.4-69.1C5335.7-419.8,5361.5-432.6,5386-445.7z M5364.9,156
		c-148.3-89-296.7-178.2-445.5-267.5c-6.5,34.4-8.3,225-3.5,352.3c24.4,13.8,48.9,26.3,72,41.1c64.5,41.1,131.4,78.1,197.4,116.7
		c36.9,21.6,72.2,45.9,108.9,67.9c22.2,13.3,45.6,24.5,70.7,37.7C5364.9,388.2,5364.9,274.5,5364.9,156z M5673.9,347.3
		c64.1-41.9,128.1-73.4,184.5-112.6c0-116.2,0-227.6-0.1-339c0-1.1-0.8-2.4-1.5-3.4c-0.8-1-1.9-1.7-5.2-4.4
		c-59.3,35.8-119.4,72.1-178.5,107.9c0,40,0,77.5,0,116c-24.1,24.2-55.6,36.6-87.9,55.8c-3.4-41.7,2.6-79.7-4.3-118.7
		c-63.2,38-123.3,74.1-180.6,108.6c0,117.1,0,230.8,0,350c63.7-36.9,123.8-71.7,184.2-106.6c0-40.1,0-80.3,0-121
		c26.9-19.8,55.8-36.1,89.4-54.5C5673.9,267.7,5673.9,304.6,5673.9,347.3z M5569.2,20.8c-152.6-90-303.8-179.2-457.9-270.1
		c-29.2,17.1-59.5,34.3-89.4,52.4c-30.7,18.6-61,38-92.5,57.7c152.8,91,302.7,180.2,454.9,270.7
		C5443.1,96.4,5504.3,59.7,5569.2,20.8z M5838.9-144.1c-48.5-22.8-88.6-52.1-132.7-75.2c-51-26.7-98.7-59.9-147.9-90.1
		c-34.2-21-68.4-42-102.9-62.5c-22.5-13.3-45.5-25.8-68.7-38.8c-65.2,31-123.1,70.8-185.1,107.3c154.7,93.5,305.6,184.8,453.7,274.3
		c33.4-20,64.2-37.1,93.5-56.5C5777.5-104.6,5810.5-117.4,5838.9-144.1z"/>
	<path d="M5416.3,296.4c37.1-23.2,72.3-45.2,107.7-67.2c0.5,0.4,1.7,1.1,2.4,2.1c0.7,1,1.4,2.3,1.4,3.4
		c0.1,61.6,0.1,123.2,0.1,183.2c-38,23-74.2,45-111.5,67.5C5416.3,422.8,5416.3,360,5416.3,296.4z"/>
	<path d="M5850.3,41.5c-29.9,17.4-57.7,33.6-87.4,50.9c0-46,0-89.9,0-136.8c25.4-15.8,53.1-33,84.4-52.5c5.6,23.9,2.2,46,2.8,67.6
		C5850.8-6.6,5850.3,16.1,5850.3,41.5z"/>
	<path d="M5298.3-340.3c33.9-19.6,63-36.4,90.9-52.6c34.4,20.9,67.2,40.9,104.7,63.7c-33.4,21-62.4,39.2-89,55.9
		C5370.1-295.1,5336.1-316.5,5298.3-340.3z"/>
</g>
<g>
	<path d="M655.4,864.8c3.2,17.1,5.4,29,8.1,43.4c12.3,2.5,25.1,5,39.5,7.9c0,27.4,0,54.2,0,82.9c-104.7,0-207.2,0-312.3,0
		c0-28.3,0-53.9,0-82c12.9-2.6,25.8-5.2,40.2-8.1c1.5-12.7,3-24.7,5.1-41.7c27.5,0,55.5,0,85.8,0c1.1-16.7,1.9-28.4,2.9-43.1
		c-14.4-2.7-27.2-5.1-41.1-7.8c-2.4-12.4-4.8-24.3-7.7-39.2c-12.3-2.2-25.3-4.6-40.4-7.3c0-41.8,0-84.1,0-128.7
		c12.9-2.4,25.8-4.8,40.4-7.5c2.3-12.9,4.4-24.8,7.1-39.5c41.5,0,83.3,0,128.5,0c1.6,12,3.3,24.9,5.1,39c13.8,3,26.8,5.8,41.5,9
		c0,42.2,0,83.2,0,126.6c-13.5,2.5-26.4,4.9-41.2,7.6c-1.6,12.3-3.1,24.3-5.1,39.1c-11.9,2.4-24.7,5.1-40.3,8.2
		c0,12.4,0,25.2,0,41.2C599.7,864.8,625.5,864.8,655.4,864.8z"/>
	<path d="M977.1,368.7c0,42.9,0,83.8,0,127.1c-12.8,1.9-24.5,3.6-39.4,5.8c-2.1,11.9-4.4,24.7-6.9,38.5c-13.1,2.3-25,4.4-40.5,7.1
		c-0.9,13-1.9,25.8-3.2,43.4c31.4,0,59.7,0,88.8,0c2,16.3,3.4,28.3,5.1,41.8c13.5,3,26.6,5.8,42.1,9.3c0,27,0,53.8,0,83.9
		c-104.7,0-208.2,0-314.1,0c0-28.5,0-55.4,0-84.1c13.7-2.7,26.8-5.3,41.3-8.1c2.1-12.9,4-24.9,6.5-40.1c27.4-1.2,55.6-2.5,86.1-3.9
		c0.6-13.9,1.2-25.7,1.8-39.9c-14.7-3.4-27.6-6.3-43-9.9c-1.8-10.8-3.8-22.6-6.3-36.9c-11.6-2.1-24.5-4.4-39.3-7.1
		c0-41.6,0-82.4,0-126.3c12.5-2.8,25.2-5.7,39-8.8c1.7-12.6,3.4-24.6,5.5-39.3c42,0,84.1,0,129.2,0c2.5,11.4,5.3,24.2,8.5,39.2
		C949.5,362.8,961.2,365.3,977.1,368.7z"/>
	<path d="M24.4,726.1c0-29.8,0-56.7,0-84.6c13.8-2.6,25.8-4.8,40.5-7.6c2.2-12.5,4.5-25.4,7.6-42.8c27.5,0,55.8,0,85.7,0
		c0-16.3,0-28.3,0-42.2c-13.3-3.1-26.3-6.1-41.1-9.5c-2-11.7-4.1-23.6-6.4-37.2c-12.4-2.1-25.4-4.3-39.9-6.7c0-42.3,0-83.1,0-126.9
		c13-2.7,25.7-5.3,39.6-8.2c2-13,3.8-24.9,5.9-39.3c42.9,0,84.9,0,129.9,0c2,12,4.1,24.9,6.4,39.3c12,2.5,23.8,5,38.5,8.1
		c0,41.4,0,83.3,0,127.9c-12.5,1.6-24.3,3-38.7,4.8c-1.7,11.8-3.3,23.5-5.4,38.2c-12.3,2.5-25.1,5.1-41.8,8.4
		c-0.7,12.8-1.4,25.5-2.3,42.1c30.5,0,57.5,0,87.1,0c2.7,15.9,4.8,28.7,7.3,43.2c14,2.7,27.1,5.3,41.8,8.2c0,27.8,0,54.9,0,84.7
		C234.8,726.1,132.3,726.1,24.4,726.1z"/>
	<path d="M612,175.1c-14.2,2-26.2,3.6-39.5,5.4c-2.4,14.4-4.7,27.7-7.2,42.6c-13,2-26.2,4-40.5,6.1c0,13.5,0,25.4,0,41.6
		c28.5,1.8,56.5,3.5,86.5,5.4c1.8,13.2,3.4,25,5.5,39.6c12.8,1.6,25.8,3.3,41.1,5.3c0,27.8,0,54.8,0,84.4c-104.3,0-206.6,0-312.2,0
		c0-27.3,0-55.1,0-85.1c12.3-1.1,24.2-2.2,38.1-3.4c3-13.4,5.8-26.2,9.2-41.2c26.8-1.2,52.5-2.4,82.8-3.7
		c1.5-13.1,2.9-25.9,4.6-41.4c-15.7-2.5-28.7-4.6-44-7c-1.6-12.6-3.3-25.8-5.2-41.4c-12.2-2.5-25-5.2-40.3-8.3c0-41.2,0-81.8,0-125
		c13-2.6,25.9-5.1,40.2-7.9c1.6-12.7,3-24.7,4.9-40c41.5,0,83.3,0,127.4,0c2.9,12.1,6,25,9.7,40.5c12.3,1.9,25.2,3.9,39.1,6
		C612,91,612,133.1,612,175.1z"/>
	<path d="M845.3,133.8c-63.1,0-119.1,0-179.5,0c-0.9-15.3-1.7-27.8-2.6-42.9c75,0,146,0,220.6,0c0,58.1,0,116.1,0,176.7
		c-11.5,0-22.8,0-38.5,0C845.3,223.8,845.3,181.7,845.3,133.8z"/>
	<path d="M337.9,133.3c-43.9,0-86.2,0-133,0c0,45.2,0,87.1,0,132.5c-15.4,2.1-26.6,3.6-41.6,5.6c0-61.4,0-119.4,0-180.1
		c57.7,0,114.8,0,174.6,0C337.9,104.5,337.9,117.1,337.9,133.3z"/>
	<path d="M204.4,865.2c46,0,88.1,0,134,0c0.7,16,1.3,28.6,1.9,43.5c-60.7,0-117.7,0-177.5,0c0-43.6,0-85.4,0-130.9
		c10.9-0.8,22.2-1.6,37.6-2.8C201.7,804.8,202.9,831.6,204.4,865.2z"/>
	<path d="M844.7,866.2c0-33,0-58.6,0-87.8c14-1.3,25.4-2.4,39.9-3.8c0,45.9,0,88.8,0,133.9c-42.4,0-82.9,0-127.8,0
		c-0.7-12.9-1.4-25.5-2.3-42.3C785.4,866.2,812.3,866.2,844.7,866.2z"/>
</g>
</svg>
