<?xml version="1.0" encoding="utf-8"?>
<!-- Generator: Adobe Illustrator 24.0.1, SVG Export Plug-In . SVG Version: 6.00 Build 0)  -->
<svg version="1.1" id="Layer_1" xmlns="http://www.w3.org/2000/svg" xmlns:xlink="http://www.w3.org/1999/xlink" x="0px" y="0px"
	 viewBox="0 0 1000 1000" style="enable-background:new 0 0 1000 1000;" xml:space="preserve">
<g>
	<path d="M5543.7-445.7c166.6,99.2,331.7,197.5,495.9,295.3c0,138,0,273.3,0,406.6c-41,25-80.5,49.4-120.4,73.1
		c-30.1,17.9-61,34.5-91,52.6c-50.6,30.5-100.3,62.5-151.1,92.6c-45.1,26.7-91.3,51.8-137.4,77.8
		c-166-102.8-335.9-197.9-499.4-299.5c0-135.6,0-267.2,0-401.3c20.5-12.1,42.2-24.7,63.8-37.6c53.8-32.2,107.5-64.7,161.4-96.8
		c30.1-18,60.8-35.1,90.8-53.2c37.7-22.8,74.6-46.7,112.4-69.1C5493.4-419.8,5519.2-432.6,5543.7-445.7z M5522.6,156
		c-148.3-89-296.7-178.2-445.5-267.5c-6.5,34.4-8.3,225-3.5,352.3c24.4,13.8,48.9,26.3,72,41.1c64.5,41.1,131.4,78.1,197.4,116.7
		c36.9,21.6,72.2,45.9,108.9,67.9c22.2,13.3,45.6,24.5,70.7,37.7C5522.6,388.2,5522.6,274.5,5522.6,156z M5831.6,347.3
		c64.1-41.9,128.1-73.4,184.5-112.6c0-116.2,0-227.6-0.1-339c0-1.1-0.8-2.4-1.5-3.4c-0.8-1-1.9-1.7-5.2-4.4
		C5950.1-76.2,5890-39.9,5830.8-4.2c0,40,0,77.5,0,116c-24.1,24.2-55.6,36.6-87.9,55.8c-3.4-41.7,2.6-79.7-4.3-118.7
		c-63.2,38-123.3,74.1-180.6,108.6c0,117.1,0,230.8,0,350c63.7-36.9,123.8-71.7,184.2-106.6c0-40.1,0-80.3,0-121
		c26.9-19.8,55.8-36.1,89.4-54.5C5831.6,267.7,5831.6,304.6,5831.6,347.3z M5726.9,20.8c-152.6-90-303.8-179.2-457.9-270.1
		c-29.2,17.1-59.5,34.3-89.4,52.4c-30.7,18.6-61,38-92.5,57.7c152.8,91,302.7,180.2,454.9,270.7C5600.7,96.4,5662,59.7,5726.9,20.8z
		 M5996.5-144.1c-48.5-22.8-88.6-52.1-132.7-75.2c-51-26.7-98.7-59.9-147.9-90.1c-34.2-21-68.4-42-102.9-62.5
		c-22.5-13.3-45.5-25.8-68.7-38.8c-65.2,31-123.1,70.8-185.1,107.3c154.7,93.5,305.6,184.8,453.7,274.3c33.4-20,64.2-37.1,93.5-56.5
		C5935.2-104.6,5968.2-117.4,5996.5-144.1z"/>
	<path d="M5573.9,296.4c37.1-23.2,72.3-45.2,107.7-67.2c0.5,0.4,1.7,1.1,2.4,2.1c0.7,1,1.4,2.3,1.4,3.4
		c0.1,61.6,0.1,123.2,0.1,183.2c-38,23-74.2,45-111.5,67.5C5573.9,422.8,5573.9,360,5573.9,296.4z"/>
	<path d="M6008,41.5c-29.9,17.4-57.7,33.6-87.4,50.9c0-46,0-89.9,0-136.8c25.4-15.8,53.1-33,84.4-52.5c5.6,23.9,2.2,46,2.8,67.6
		C6008.5-6.6,6008,16.1,6008,41.5z"/>
	<path d="M5456-340.3c33.9-19.6,63-36.4,90.9-52.6c34.4,20.9,67.2,40.9,104.7,63.7c-33.4,21-62.4,39.2-89,55.9
		C5527.8-295.1,5493.7-316.5,5456-340.3z"/>
</g>
<g>
	<path d="M999,290.5c0,22.9,0,42.7,0,65.5c-116.8,0-232.2,0-350.9,0c0-20.9,0-41.6,0-65.5C763.4,290.5,878.9,290.5,999,290.5z"/>
	<path d="M440.2,726.2c2.1,15.9,2.1,32.1,0,48V726.2z"/>
	<path d="M999,717.9v65.6H511.8c3.2-21.9,3.1-43.8-0.1-65.6H999z"/>
	<path d="M893.3,74.2c0,24,0,43.8,0,66.6c-82.4,0-163.2,0-246.1,0c0-22.7,0-43.5,0-66.6C729.1,74.2,809,74.2,893.3,74.2z"/>
	<path d="M647.3,568.6c0-22.6,0-43.4,0-66.5c82,0,161.7,0,244.5,0c0,22,0,42.7,0,66.5C810.9,568.6,729.9,568.6,647.3,568.6z"/>
	<g>
		<path d="M511.7,717.9c-5.8-39-21.6-77.8-46.3-115.9c-13.6-21-22.4-49-23-73.9c-2.8-120.4,0.1-241-3.2-361.5
			c-2-72.7-42.3-124.8-109.1-151.3c-24.7-9.8-49-14.5-72.5-14.2c-23.5-0.3-47.8,4.4-72.5,14.2C118.3,41.7,77.9,93.9,75.9,166.6
			c-3.3,120.4-0.4,241-3.2,361.5c-0.6,25-9.4,52.9-23,73.9C-7.8,690.9-17,782.8,36,874.2c49.6,85.4,126.2,128.3,221.6,124.6
			c95.3,3.7,172-39.2,221.6-124.6c17.5-30.2,28.3-60.5,32.7-90.7C515,761.6,514.9,739.7,511.7,717.9z M394.4,872
			c-38,39.2-87.4,58-136.8,56c-49.4,2-98.8-16.9-136.8-56c-59.9-61.8-64.6-171.3-4.8-235.4c24.2-26,30-51.6,29.7-84.2
			c-1.1-120.5-0.7-240.9-0.4-361.4c0.2-69.9,41.5-116.3,103.8-117.8c2.8-0.1,5.6,0,8.4,0.1c2.8-0.1,5.6-0.2,8.4-0.1
			c62.2,1.5,103.6,47.9,103.8,117.8c0.3,120.5,0.8,240.9-0.4,361.4c-0.3,32.6,5.5,58.2,29.7,84.2c23.2,24.8,36.7,56.5,41,89.5
			c2.1,15.9,2.1,32.1,0,48C435.4,810.6,419.9,845.6,394.4,872z"/>
		<path d="M148.6,751.2c69.8,0,136.6,0,203.3,0c5.2,55.7-39.6,104.3-96.7,106.8C198.8,860.4,149.8,812.9,148.6,751.2z"/>
	</g>
</g>
</svg>
