<?xml version="1.0" encoding="utf-8"?>
<!-- Generator: Adobe Illustrator 24.0.1, SVG Export Plug-In . SVG Version: 6.00 Build 0)  -->
<svg version="1.1" id="Layer_1" xmlns="http://www.w3.org/2000/svg" xmlns:xlink="http://www.w3.org/1999/xlink" x="0px" y="0px"
	 viewBox="0 0 500 500" style="enable-background:new 0 0 500 500;" xml:space="preserve">
<g>
	<path d="M474.2,254.9c-0.7-9.1-1.9-18.2-2.7-27.3c-0.4-4.2-0.3-8.4-1.1-12.6c-0.6-3.4-2-6.7-3.3-10c-1.6-3.9-3.3-7.7-5.2-11.4
		c-1.9-3.6-4-7.2-6.1-10.6c-3.9-6.2-7.4-12.6-11.9-18.4c-4.7-6-10.4-11.3-18.4-12.9c-1-0.2-1.9-0.6-2.8-1c-9-3.3-17.5-3.8-26.1,1.9
		c-4.7,3.1-5.8,6.8-5.1,11.7c0.2,1.1,0.3,2.3,0.1,3.4c-0.3,2-1.5,2.4-3.2,1.3c-1.8-1.1-2.3-2.6-1.7-4.7c1.8-6,1.1-7-5-8
		c-0.3-0.1-0.6-0.1-1-0.2c-6.3-0.8-11.9,0.2-16.7,4.8c-6.1,5.8-10.5,12.8-14.6,20.1c-3.1,5.5-5.8,11.2-8.5,16.9
		c-2,4.3-5.6,6.8-9.8,8.1c-6,1.8-12.1,2.9-18.2,4.2c-3.4,0.7-6.8,1.1-10.3,1.6c-5.4,0.9-10.8,2.1-16.3,2.6c-2.5,0.2-5.1-0.9-7.7-1.5
		c-2.8-0.7-5.5-1.7-8.3-2.3c-2.6-0.6-5.3-0.7-7.8-1.3c-7.8-1.9-15,0.7-22.4,2.2c-3,0.6-6.2,1.4-9.2,1.2c-5.9-0.3-11.5,0.4-16.8,3
		c-1,0.5-2.5,0.9-3.3,0.4c-3.1-1.8-6.5-1.4-9.8-2c-5.7-1-11.3-2.4-16.9-3.4c-4.2-0.8-8.5-0.9-12.7-1.8c-3.6-0.7-7.4-1.4-9.8-4.7
		c-3.9-5.2-7.4-10.7-9.3-17c-0.2-0.5-0.6-1-0.9-1.5c-0.9-1.7-1.8-3.5-2.7-5.2c-1.8-3.2-3-6.9-5.4-9.6c-4-4.6-8.7-8.8-13.3-12.9
		c-3.5-3.1-8.9-3.8-11.3-1.1c-2.7,3-4.6,2.7-8.1,1.5c-3.6-1.2-5.6-3.5-7.7-6c-0.3-0.3-0.5-1.1-0.3-1.3c0.4-0.3,1-0.6,1.5-0.5
		c1.4,0.4,2.8,0.8,4.2,1.4c5.2,2.3,10.6,1.9,15.8,0.8c5.3-1.1,10.4-3.1,14.7-6.7c4-3.3,7.6-7,10.4-11.5c2.8-4.4,3.8-9.3,5-14.4
		c2.3-10.2-0.4-19.3-6-27.4c-5.9-8.4-14.3-13.8-24.8-15.1c-1.9-0.2-3.8-0.5-5.7-0.5c-8-0.1-15.4,1.8-21.3,7.3
		c-3.2,3-6.2,6.4-8.6,10.1c-2.4,3.6-4.8,7.5-5.6,11.6c-1.6,8.1-2.2,16.2,2.2,24c3,5.4,6.1,10.5,10.9,14.4c1,0.8,1.7,2,2.6,3
		c-1.4,0.2-2.9,0.8-4.3,0.6c-5.4-0.7-10.9-1-15.9,1.1c-4.4,1.9-9.4,2.5-13.2,6c-2.3,2.2-5.1,3.9-7.1,6.3c-3.4,4.3-6.5,8.9-9.5,13.5
		c-1.8,2.7-3.4,5.6-5,8.5c-2.2,3.9-4.3,7.7-6.3,11.7c-1.8,3.6-4.2,7.1-5,10.9c-1.8,9.5-3.2,19.2-4.2,28.9c-1,10.4-1.4,20.9-2,31.3
		c-0.2,2.9-0.3,5.8,0.1,8.6c0.8,5.7,3.9,9.9,9.2,12.7c4,2.1,8.1,2.3,12.2,0.9c3.3-1.2,4-1,4.2,2.5c0.5,6.7,1,13.5,1.6,20.2
		c1.5,18.1,1.8,36.2,1.5,54.4c-0.3,19.8-0.7,39.6-1.1,59.4c-0.1,3.1-0.3,6.3-0.7,9.4c-0.7,5.3,2.9,12.2,7.5,14.9
		c5.4,3.1,11.2,3,17.1,3.2c5,0.2,9.2-1.5,12.7-4.6c2.9-2.6,5.4-5.6,5.2-10.2c-0.2-4.6,0.2-9.2,0.4-13.8c0.2-4.1,0.3-8.2,0.6-12.4
		c0.7-9,1.7-17.9,2.2-26.9c0.6-11.1,0.7-22.3,1.1-33.4c0-0.8,0.2-1.6,0.4-3c0.6,0.7,0.9,0.9,1,1.2c1.5,5.1,3,10.1,4.3,15.2
		c0.5,2,0.8,4,1.1,6.1c0.7,3.8,1.6,7.6,2,11.4c0.7,7.6,1,15.3,1.6,22.9c0.9,10.4,1.7,20.9,3,31.3c0.7,5.2,3.4,9.6,8.1,12.4
		c6.6,3.8,13.8,3.8,21.2,3.4c3.8-0.2,6.9-1.9,9.6-4.2c3.1-2.6,5.7-5.8,5.1-10.4c-0.8-5.9-1.8-11.7-2.3-17.6
		c-0.8-9.2-1.2-18.4-1.7-27.6c-0.4-8-0.3-16-1.1-24c-0.7-7.3-1.9-14.6-3.7-21.7c-2-8.1-4.7-16.1-7.1-24.1c-1.4-4.6-3.1-9.2-4.7-13.8
		c-2.1-6.3-4.5-12.5-6.3-18.9c-1.4-5.4-3.8-10.8-0.9-16.5c0.5-1.1,0.4-2.6,0.5-3.9c0.3-3.3,0.3-6.6,0.8-9.9
		c1.2-9.3,2.5-18.6,3.7-27.9c0.1-0.7,0.6-1.3,0.8-1.9c0.8,0.4,1.7,0.6,2.2,1.3c3,3.9,6.4,7.3,11,9.7c5,2.6,10.3,4.5,15.6,5.8
		c7.9,2,16,3.1,23.9,4.9c4.2,0.9,7.9,2.6,8.1,8.1c0.2,4,2.5,6.8,6.7,7.8c1.2,0.3,2.4,1.2,3.1,2.2c1.5,2,2.8,4.3,4.1,6.4
		c1,1.6,2.2,2.2,4.1,1.9c2.5-0.5,3.6,0.4,3.8,3c0.2,3.2,2,4.7,4.9,5.7c1.4,0.5,2.7,1.8,3.6,3c0.9,1.1,1.3,2.7,2.1,3.9
		c1,1.6,2.2,3.7,4.3,3.1c3.5-1.1,5.3,0.8,7,3.1c1.2,1.6,2.7,2.4,4.7,2.3c2.1-0.1,4.3-0.4,6.4-0.5c2.7,0,5-0.6,7.1-2.5
		c0.9-0.8,2.3-1.1,3.5-1.6c1.4-0.6,3-1,4.4-1.7c3.8-1.8,7.4-3.9,11.1-5.5c6.9-3.1,11.4-8.7,17.1-13c2.6-2,5.2-4,7.7-6.1
		c1.1-0.9,2.3-1.9,3.1-3.1c2.3-3.4,3-6.9,0.7-10.9c-1.7-2.9-0.3-5,3-5.8c5-1.1,10-2,15-3c4.4-0.9,8.8-1.6,13-3
		c4.6-1.5,9.1-3.8,13.6-5.7c4.3-1.9,8.2-4.4,11.2-8.2c0.5-0.7,1.5-1.1,2.2-1.7c0.4,0.9,1.1,1.8,1.3,2.8c0.5,2.2,0.6,4.4,1.1,6.5
		c0.6,2.6,1.5,5,2,7.6c0.6,3.4,1,6.8,1.5,10.3c0.9,7.3,2,14.5,2.3,21.8c0.1,3.1-1.5,6.3-2.4,9.4c-1.7,6.3-3.4,12.5-5.1,18.8
		c-0.4,1.6-1.1,3.1-1.6,4.7c-1.7,5.1-3.5,10.2-5.1,15.4c-1.3,4.1-2.5,8.3-3.6,12.5c-0.4,1.3-0.6,2.6-0.9,3.8c-0.7,2.8-1.3,5.6-2,8.4
		c-0.5,1.9-1.4,3.8-1.5,5.7c-0.9,11.8-1.6,23.5-2.4,35.3c-1,14.2-2,28.5-3,42.7c-0.4,5.9,1.8,11,6.1,13c9.4,4.4,19,5.2,28.2-0.3
		c3.6-2.2,6.8-5.3,7.3-10c1-8.4,2-16.9,2.8-25.3c0.7-7.3,0.7-14.7,1.8-21.9c1.9-13.1,3.4-26.3,6.8-39.2c0.3-1,0.7-1.9,1-2.8
		c0.3,0,0.6,0,0.9,0c0.3,1.3,0.8,2.7,0.8,4c-0.2,11.1,0.9,22,1.8,33.1c1.3,16,1.4,32.1,2.2,48.2c0.5,9.8,6,15.9,15.1,17.5
		c7.1,1.2,14.3,1.4,20.7-3.1c4.2-3,7.4-6.6,7.6-11.8c0.2-6.4-0.3-12.9-0.5-19.3c-0.1-3.9-0.2-7.8-0.4-11.6
		c-0.6-14.4-1.4-28.8-1.9-43.2c-0.3-8.2-0.5-16.4,0.3-24.5c1.3-15.6,3.2-31.2,3.2-46.9c0-0.7,0.1-1.5,0.3-2.2
		c0.4-1.4,1.2-1.8,2.6-1.3c6.4,2.5,12.5,2.7,17.8-2.5c3.4-3.3,6.6-6.8,6.5-12C474.8,267.6,474.7,261.2,474.2,254.9z M385.9,181.4
		c0.2-0.1,0.4-0.2,0.7-0.3c5.5-2.4,7-1.2,7.2,4.8c0.1,5.8,0.6,11.5,0.9,17.3c0.1,1-0.1,2-0.1,3c-0.3,0.1-0.6,0.3-1,0.4
		c-1.3-2.1-3-4-3.9-6.3c-2-4.8-3.5-9.9-5.3-14.8C383.5,183.5,384.2,182.3,385.9,181.4z M104.9,198.3c0.3-6.4,0.6-12.3,0.8-18.2
		c0.1-2-0.3-3.9-0.3-5.9c0-0.8,0.7-1.5,1.1-2.3c0.6,0.5,1.3,0.8,1.8,1.4c1.2,1.4,2.3,3,3.5,4.5c2.3,2.9,1.8,6.3,1,9.4
		c-0.7,2.8-2.1,5.5-3.1,8.3c-0.6,1.8-1,3.6-1.7,5.4c-0.3,0.7-1.2,1.2-1.8,1.7c-0.5-0.7-1.1-1.3-1.3-2
		C104.8,199.7,104.9,198.8,104.9,198.3z M95.9,130c-3-4.7-4.6-10.6-3.4-16.6c1.4-7.2,3.8-13.9,9.5-19c6-5.5,17.3-7.2,24.6-3.6
		c3.1,1.5,6.5,2.4,9.1,5.2c4.4,4.6,7.3,9.6,7.4,16.1c0,1,0,2,0,3c0.9,8.5-3,15.1-8.8,20.6c-2.8,2.6-6.3,5.2-10.6,5.4
		c-3.4,0.2-6.9,0.5-10.3,0.5C105.1,141.6,99.8,136.2,95.9,130z M127.9,321c0.4,1.4,1,2.8,1.6,4.1c0.2,0.6,0.7,1.2,0.9,1.8
		c1.7,6,3.5,12,5.2,18c0.6,2,1.1,4,1.5,6c0.9,5.3,2.2,10.5,2.6,15.8c1.2,15.6,1.9,31.3,2.9,46.9c0.4,6.4,1,12.8,1.6,19.2
		c0,0.5,0.1,1,0.3,1.5c1,3.8,0.4,4.8-3.3,6.2c-4.9,1.9-9.6,0.9-14.2-1c-2.7-1.2-3.2-4-3.5-6.5c-0.7-5.7-1-11.5-1.5-17.2
		c-0.9-10.3-1.8-20.7-2.7-31c-0.3-3.1-0.9-6.2-0.9-9.4c0-6.7-2.6-12.7-4.1-19c-1.4-6-3.2-11.9-4.9-17.8c-1-3.6-2.2-7.2-3.5-10.7
		c-1.7-4.8-3.6-9.5-5.4-14.2c-0.7-1.9-1.2-3.9-1.7-5.9c-0.8-2.9-1.9-4-4.3-3.9c-2.6,0.1-4.4,1.6-4.7,4.2c-0.4,3.9-0.5,7.9-0.7,11.8
		c0.2,0,0.4,0,0.6,0c-1,16.5-1.9,33.1-2.8,49.6c-0.6,10.6-1.1,21.3-1.5,31.9c-0.5,11.3-1,22.6-1.5,33.9c-0.2,3.5-2.7,5.1-5.4,6.1
		c-4.8,1.8-9.1,0.1-13.1-2.4c-1-0.6-1.6-2.5-1.6-3.8c0-6.7,0.3-13.4,0.6-20c0.1-2.4,0.2-4.8,0.3-7.2c0.4-12.8,1-25.5,1-38.3
		c0-13.3-0.5-26.7-0.9-40c-0.2-7.3-0.7-14.7-1.1-22c-0.3-6.4-0.6-12.8-1-19.3c0-0.6-0.1-1.1-0.3-1.7c-0.8-2.9,0.2-4.3,3.3-4.3
		c15.8,0.2,31.7,0.5,47.5,0.7c1.8,0,2.6,0.9,3.2,2.5c2.2,6.4,4.6,12.6,6.7,19C124.6,310,126.2,315.5,127.9,321z M204.6,230.5
		c-2,2.9-4,5.8-5.9,8.7c-1.3,2-3,2.8-5.5,2.3c-8.4-1.8-16.8-3.3-25.2-5.1c-3.1-0.7-6.2-1.7-9.3-2.6c-7.6-2.5-13.7-6.9-17.8-13.9
		c-1.6-2.7-3.1-5.6-4.7-8.3c-1.2-2-3.3-2.3-5.4-2.3c-1.8,0-2.6,1.3-3.2,3c-3.3,10.1-4.9,20.7-7,31.1c-1.4,6.8-1.6,13.8-2.4,20.6
		c-0.2,2-0.7,3.9-1.1,5.8c-0.4,2.1-1.8,2.9-3.8,2.8c-12.6-0.2-25.2-0.3-37.8-0.5c-3.4,0-6.8,0-10.1,0c-4.1,0-5-0.7-4.7-4.7
		c0.2-2.9,1.1-5.8,1.4-8.8c0.7-5.4,1.1-10.8,2-16.2c1.5-8.9,3.1-17.7,5-26.5c0.9-4.3,2.2-8.6,3.5-12.9c1.1-3.6,2.5-7.1,3.7-10.7
		c0.7-2.2,0.3-4.3-1.1-6.1c-1.4-1.8-3.7-2.1-5.1-0.4c-1.7,2-3,4.3-4.3,6.5c-1.5,2.6-2.7,5.2-4.1,7.9c-2.3,4.3-4.5,8.7-6.7,13.1
		c-0.4,0.8-0.6,1.7-0.9,2.5c-0.8,2.1-1.6,4.2-2.2,6.3c-0.6,2.3-1.3,4.6-1.4,7c-0.6,13.6-1,27.2-1.6,40.8c-0.2,5.5-4.1,8.7-8.9,7.5
		c-2.5-0.6-3.6-2-3.5-4.6c0.5-9,1-18,1.6-26.9c0.7-9.2,1.4-18.4,2.5-27.6c0.4-3.1,1.6-6.1,2.5-9.2c0.1-0.4,0.3-0.8,0.4-1.2
		c1.3-5.7,4.3-10.6,7.2-15.5c1.5-2.5,2.6-5.1,4.1-7.5c2.5-4.2,5.1-8.4,7.9-12.5c4.9-7.1,11.5-11.4,20.3-11.9
		c1.8-0.1,3.6-0.5,5.4-0.3c3.2,0.3,4.7,2,4.7,5.3v18.8c-0.2,0-0.3,0-0.5,0c0.5,9,0.8,18.1,1.5,27.1c0.4,4.8,1.3,9.6,2,14.4
		c0.1,0.9,0.3,1.8,0.6,2.7c1,3,3,3.5,5.4,1.5c3.8-3.1,5.9-7.4,8.3-11.5c1.7-2.9,3.6-5.7,5.3-8.6c2.1-3.8,4.1-7.6,6.2-11.4
		c0.2-0.4,0.3-0.8,0.5-1.1c4.8-6.2,4.2-13.4,3.5-20.5c-0.3-2.8,2.1-5.6,4.2-4.8c1.8,0.8,4,2.2,4.8,3.9c3.2,6.9,5.5,14.2,8.9,21
		c2.7,5.5,6.5,10.4,9.9,15.5c1.5,2.2,3,4.4,5.8,5.2c2.5,0.7,5,1.6,7.5,2.1c5.8,1.1,11.7,1.9,17.5,2.9c3.1,0.5,6.2,1,9.3,1.6
		c3.1,0.6,6.1,1.3,9.2,2C205.2,226.9,205.9,228.7,204.6,230.5z M287.8,267.1c-1,1.4-2.3,1.1-3.5,0.2c-4.2-3-8.3-6.2-12.7-8.9
		c-1.5-1-3.9-1.1-5.8-0.9c-2.1,0.3-2.8,3.2-1.2,5.3c2.1,2.6,4.6,4.9,7.1,7.1c1.6,1.5,3.6,2.6,5.2,4.1c0.6,0.5,0.6,1.7,0.9,2.5
		c-0.8,0.2-1.8,0.8-2.4,0.5c-1.5-0.6-3-1.4-4.2-2.5c-2.7-2.4-5.2-5.1-7.8-7.6c-2.1-2.1-5.9-2.7-7.4-1.2c-1.4,1.4-0.9,5.6,1,7.5
		c2.6,2.7,5.3,5.2,7.8,8c0.6,0.7,0.8,1.8,1.1,2.8c-1,0.2-2.3,0.8-3.1,0.4c-1.4-0.6-2.6-1.7-3.8-2.7c-1.8-1.5-3.3-3.3-5.2-4.5
		c-1.6-1.1-3.7-1.6-5.3,0c-1.6,1.7-1.2,3.7,0,5.5c0.7,1,1.7,1.9,2.2,3c0.3,0.9,0,2.1,0,3.2c-1-0.2-2.5-0.1-2.8-0.7
		c-1-1.8-2.3-3.8-2.2-5.7c0.1-4.4-2.9-6.6-5.5-9.2c-1-1-2-2-2.5-3.2c-1.4-3.2-3.4-5.7-6.8-6.8c-2-0.7-3.1-1.9-3.8-3.8
		c-1.3-3.3-2.1-3.9-5.7-3.8c-1.7,0-2.5-0.6-3.2-2.1c-1.6-3.8-4.4-5-8.4-3.8c-1.5,0.5-2.9,0.9-4.4,1.4c-0.3-0.3-0.6-0.6-0.8-0.9
		c1.2-1.7,2.3-3.4,3.4-5.1c2.4-3.6,4.5-7.4,7.2-10.8c2.5-3.3,3.2-7.9,7.3-10c1.5-0.8,3.2-1.3,4.9-1.4c1.9-0.2,2.5,1.1,1.4,2.7
		c-0.6,1-1.5,1.7-2.3,2.6c-3.1,3.3-3.7,7.2-2.5,11.4c0.3,1,1.1,2.1,1.9,2.8c3.3,2.4,6.7,4.5,10,6.8c2.7,1.8,5.4,1.8,7.8-0.1
		c2.1-1.7,4.3-3.5,5.6-5.8c2.9-4.9,8.6-6.2,12.9-2.3c6.1,5.4,12,11,18,16.5c2.3,2.1,4.5,4.1,6.8,6.1
		C288.4,264.7,288.8,265.8,287.8,267.1z M294.8,252.8c-0.7,0.4-2.2,0.4-2.7-0.1c-4.8-5.1-11.8-7.4-16-13.4c-3.6-5-8.3-9-13.8-12.1
		c-0.3-0.2-0.6-0.4-0.9-0.4c-4.8-0.5-9.6-1.3-14,1.1c-2.6,1.4-4.7,3.8-7.1,5.6c-0.7,0.5-1.6,0.7-2.5,1c-0.1-1-0.6-2.3-0.1-2.9
		c1.8-2.2,3.7-4.5,6-6.2c4-3.1,8.2-6,13.8-4.7c0-0.3,0-0.5,0-0.8c4,0.6,7.9,1,11.8,1.8c2.4,0.5,4.6,1.7,6.9,2.5
		c1.3,0.4,2.8,0.5,4.1,0.7c6,0.6,8.7,3.2,9.2,9.2c0.3,3.4,1.2,6.4,3,9.3c1.3,2.1,2,4.7,2.8,7.1C295.6,251.2,295.2,252.6,294.8,252.8
		z M434.4,409.4c0.3,7.5,1,15,1.3,22.5c0.3,6-1.7,7.5-5.8,8.5c-4.2,1-8,0.6-11.8-0.9c-0.9-0.4-1.6-1.5-2.1-2.5
		c-0.4-0.7-0.4-1.6-0.4-2.4c-0.4-7.9-0.6-15.8-1.1-23.7c-0.5-9-1.2-18.1-1.8-27.1c-0.3-5.5-0.5-11-0.6-16.6
		c-0.4-13.3-0.6-26.7-1.1-40.1c-0.2-6.3-0.9-12.5-1.4-18.7c-0.1-0.9-0.3-1.8-0.7-2.6c-1.3-2.7-4.4-3.1-6-0.7
		c-1.6,2.6-2.7,5.5-3.8,8.4c-0.9,2.3-1.7,4.8-2.5,7.2c-0.1,0.4-0.4,0.7-0.6,1.1c-1.7,4.8-3.3,9.6-4.9,14.4c-2,5.9-4.3,11.7-6.1,17.7
		c-1.2,4.1-1.5,8.5-2.7,12.5c-3.1,10.3-2.7,20.9-3.9,31.3c-1.3,11.6-2.3,23.3-3.5,34.9c-0.5,4.9-3,7.3-7.9,7.4
		c-2.9,0-5.8-0.2-8.6-0.6c-2.5-0.4-3.7-2.1-3.3-4.6c0.5-3.8,1.2-7.5,1.6-11.3c0.6-6.1,1.1-12.2,1.3-18.2c0.4-10.7,0.4-21.4,0.7-32.2
		c0-2.1,0.3-4.3,0.7-6.4c1-5.6,1.9-11.2,3.4-16.7c1.7-6.2,3.9-12.2,5.9-18.3c0.4-1.1,0.6-2.2,0.9-3.3c1-3.3,2-6.6,2.9-9.9
		c0.8-3,1.4-6.1,2.3-9.1c1.8-5.7,3.8-11.4,5.6-17.1c0.4-1.2,0.5-2.6,0.8-3.9c0.8-4,2.3-4.9,6.4-4.9c8.1,0,16.3-0.3,24.5-0.4
		c7.7-0.1,15.3-0.2,23-0.2c3.5,0,2,2.9,2.6,4.9c-0.7,7.1-1.6,14.4-2.2,21.7c-0.6,7.1-1.2,14.1-1.3,21.2c-0.4,13.4-0.6,26.9-0.5,40.3
		C433.5,383.8,434,396.6,434.4,409.4z M454.3,277.2c-2.3-0.5-3.2-1.6-3.2-3.9c0.1-5.8,0.1-11.6,0.1-17.3c-0.1-8.6-0.3-17.1-2.3-25.6
		c-0.8-3.2-0.6-6.6-1.3-9.8c-0.4-1.9-1.3-3.9-2.6-5.3c-2.5-2.8-4.4-5.8-5.6-9.4c-1.3-4-3.6-7.7-5.5-11.5c-0.6-1.2-1.3-2.3-1.9-3.5
		c-1.2-2.4-2.9-3.3-5.2-2.7c-2.2,0.6-3.8,2.6-3.3,5.1c0.5,2.8,1.4,5.6,2.2,8.4c0.9,3,2,5.9,3,8.8c0,0.1,0.1,0.2,0.1,0.2
		c1.8,7.1,3.8,14.3,5.4,21.5c1.1,4.6,2.1,9.4,2.5,14.1c0.6,6.1,0.7,12.3,1,18.5c0.1,1.2,0,2.3,0.1,3.5c0.4,3.9-0.3,4.5-4.1,4.5
		c-8,0-16,0-24,0v0h-24.5c-3.3,0-4-0.6-4-3.8c0-6.1-0.4-12-2.4-17.8c-0.8-2.2-0.8-4.7-1.3-7c-2-8.2-4-16.3-6-24.4
		c-0.6-2.6-1.2-5.1-1.8-7.7c-0.6-2.5-2.3-3.9-4.7-3.9c-2.7,0-4.5,1.2-5.1,3.7c-1.6,6.5-5.4,11.4-10.8,15.3
		c-5.5,3.9-11.3,6.5-17.9,7.7c-3.7,0.7-7.2,2.2-10.9,3c-4.3,0.9-8.6,1.5-12.9,2.1c-0.9,0.1-2.5-0.2-2.8-0.8c-2.2-3.9-4.3-7.9-6.2-12
		c-0.2-0.4,0.4-1.6,1-1.9c0.9-0.5,2-0.7,3.1-0.9c4.1-0.7,8.2-1.5,12.3-2.1c3.7-0.6,7.5-1,11.2-1.9c8.5-2.1,17-4.5,21.7-13
		c2.4-4.3,4.7-8.6,7-12.9c3.2-6,5.5-12.4,9.7-17.8c0.7-0.9,2-1.4,3.1-2c0.5,1,1.1,2.1,1.4,3.1c1.8,5.7,3.6,11.4,5.4,17.1
		c0.1,0.4,0.4,0.7,0.5,1.1c1.1,5.6,4.6,9.9,7.5,14.5c3.4,5.4,6.5,11,9.9,16.4c1,1.5,2.6,2.8,4.1,3.8c1.3,0.9,2.7,0.5,3.6-0.9
		c0.3-0.4,0.6-0.8,0.7-1.3c1.2-6.8,4-13.1,4.5-20.2c0.9-14.3,0.2-28.5-0.9-42.8c-0.2-3.1,2.3-6,5.8-6.1c2-0.1,4,0.1,5.9,0.6
		c9,2.3,16.5,7.1,21.6,14.9c3.2,4.8,5.9,9.8,8.7,14.8c3.3,5.9,6.9,11.6,9.5,17.7c2.2,5.3,3.8,11,4.5,16.6c1.1,9.1,1.1,18.3,1.7,27.4
		c0.4,6.2,1.3,12.3,1.5,18.5C463.7,275.5,460,278.3,454.3,277.2z"/>
	<path d="M323.8,138.8c-0.4-8.8-0.7-17.6-0.9-26.5c-0.2-11-0.3-22.1-0.5-33.2c-0.1-3.3-0.9-6.3-4.1-7.9c-3.3-1.6-6.8-3-10.2-4.4
		c-0.8-0.4-1.7-0.8-2.5-1.1c-4.2-2-8.4-4.1-12.6-6c-3.9-1.8-7.9-3.5-11.9-5.3c-4.8-2.2-9.5-4.4-14.3-6.6c-3.7-1.7-7.5-3.3-11.2-5
		c-0.4-0.2-0.8-0.6-1.2-0.9c-2.9-2.3-8.1-2.3-11.1-0.2c-1.6,1.1-3.5,1.7-5.3,2.5c-0.9,0.4-1.9,0.6-2.7,1c-4.4,2.2-8.8,4.4-13.1,6.5
		c-1,0.5-2.1,0.8-3.2,1.3c-4.2,2.1-8.3,4.3-12.5,6.2c-4,1.8-8.2,3.3-12.2,5.1c-3.8,1.8-7.3,4.3-11.2,5.6c-4.9,1.7-6,5.1-6,9.6
		c0,10.4,0,20.8,0,31.2h-0.1v10.6c0,7.1,0,14.2,0,21.3c0,3.2,0.8,6.1,4.1,7.5c6.9,2.9,13.7,5.9,20.6,8.8c0.4,0.2,0.7,0.4,1.1,0.6
		c4.5,2,8.9,4.2,13.3,6.1c4.1,1.8,8.3,3.4,12.4,5.3c4.9,2.2,9.7,4.6,14.6,7c1.2,0.6,2.4,1.1,3.5,1.9c3.1,2,7.3,1.9,10.4-0.3
		c0.7-0.5,1.4-0.9,2.1-1.3c6.7-3.1,13.4-6.1,20.1-9.2c0.4-0.2,0.7-0.4,1.1-0.6c3.7-2,7.3-4.1,11-5.9c3.9-1.9,7.9-3.6,11.8-5.4
		c0.3-0.1,0.5-0.4,0.8-0.5c3.8-2,7.6-4.1,11.5-5.9C320.7,148.5,324.1,144.7,323.8,138.8z M245,163.2c0,1-0.6,2.1-0.9,3.1
		c-1-0.4-2-0.6-2.9-1.1c-3.5-1.7-7.1-3.4-10.6-5.2c-4-2-8-4.2-12.1-6.1c-4.2-2-8.6-3.6-12.9-5.4c-4.1-1.8-8.1-3.7-12.1-5.6
		c-1.2-0.5-2.3-1.3-3.5-1.8c-1.9-0.8-2.5-2.1-2.5-4.1c0.2-15.5,0.3-31,0.4-46.5c0-0.9-0.1-1.8-0.1-2.7c-0.1-2.3,1.1-3.3,3.2-2.2
		c6.1,3,12,6.3,18.2,9.2c4.2,2,8.6,3.6,12.9,5.5c3.1,1.3,6.1,2.8,9.1,4.3c3.5,1.8,6.8,4,10.3,5.8c2.6,1.4,3.4,3.1,3.2,6.2
		c-0.4,6.5-0.1,13-0.1,19.5h0.4C245.1,145.2,245.1,154.2,245,163.2z M248.2,100.4c-1.3-0.8-2.8-1.3-4.1-2c-1.3-0.6-2.6-1.3-4-2
		c-1.2-0.6-2.3-1.1-3.5-1.7c-1.8-0.9-3.5-1.7-5.3-2.6c-0.4-0.2-0.6-0.5-1-0.7c-3.9-1.7-7.9-3.2-11.7-5c-3.8-1.8-7.4-3.8-11.1-5.7
		c-1.8-0.9-3.7-1.5-5.4-2.4c-1-0.6-2.2-1.7-2.2-2.5c0-0.8,1.4-1.9,2.3-2.4c4.9-2.4,10-4.6,15-6.8c4.3-1.9,8.7-3.8,13-5.7
		c4-1.8,7.9-3.9,12-5.7c2.4-1,4.9-1.8,7.3-2.6c0.1,0.1,0.1,0.2,0.2,0.4c1.1,0.2,2.4,0.2,3.4,0.7c4.3,2,8.6,4.1,12.8,6.2
		c0.4,0.2,0.6,0.5,1,0.7c4.1,1.7,8.3,3.3,12.4,5.2c3.7,1.7,7.3,3.6,11,5.4c2.4,1.1,4.8,2.2,7.2,3.3c0.7,0.3,1.3,0.7,1.8,1.2
		c1.5,1.3,1.2,2.4-0.5,3.2c-6.6,2.9-13.1,5.9-19.7,8.9c-5.3,2.4-10.7,4.9-16,7.5c-3.3,1.7-6.4,3.6-9.6,5.5
		C251.8,101.9,250,101.5,248.2,100.4z M310.9,137.6c-0.2,1.1-0.9,2.5-1.7,3c-3.1,1.7-6.3,3-9.5,4.5c-1.8,0.9-3.5,2.1-5.3,3
		c-4.8,2.4-9.6,4.8-14.4,7.2c-3.8,1.8-7.6,3.5-11.3,5.5c-2.9,1.5-5.6,3.4-8.4,5.1c-0.7,0.4-1.8,1-2.3,0.8c-0.6-0.3-0.9-1.5-1-2.3
		c-0.1-7.9,0-15.8,0-23.8h-0.4c0-8.6,0-17.3,0-26c0-0.9,0.6-2.2,1.3-2.7c2.1-1.5,4.4-2.8,6.7-4c4.2-2.1,8.6-4.1,12.8-6.2
		c0.4-0.2,0.8-0.6,1.3-0.8c4.1-1.8,8.3-3.5,12.4-5.5c3.5-1.7,6.8-3.7,10.1-5.6c2.3-1.3,4.4-2.8,6.7-4.1c1.5-0.8,2.5-0.3,2.6,1.4
		c0.2,9.3,0.3,18.6,0.3,28c0,6,0,12,0.1,18C310.9,134.7,311.2,136.2,310.9,137.6z"/>
	<path d="M323,413.7c0-17.9,0-35.8,0-52.5c-0.6-3.6-0.5-6.2-1.4-8.4c-1.4-3.1-4.2-4.9-7.5-5.9c-2-0.6-4-1.5-5.9-2.3
		c-1.4-0.6-2.7-1.4-4.1-2.1c-1.2-0.6-2.4-1-3.6-1.6c-3.8-1.9-7.6-3.9-11.5-5.7c-4.2-2-8.5-3.8-12.8-5.7c-4.8-2.2-9.5-4.5-14.2-6.8
		c-1.3-0.6-2.4-1.5-3.6-2c-3.1-1.5-6.3-4.2-9.9-2.9c-5.5,1.9-10.8,4.3-16.1,6.8c-4.4,2-8.6,4.4-13,6.5c-3.5,1.7-7.2,3.2-10.7,4.9
		c-4,2-8,4.1-12,6.1c-1.6,0.8-3.4,1.3-5,1.9c-2,0.8-3.8,2-5.8,2.5c-4.2,1.2-7.9,5.6-8,9.9c0,2.6,0,5.3,0,7.9c0,18.7,0,37.5-0.1,56.2
		c0,3.5,1.4,6.2,4.2,7.9c3.2,1.9,6.8,3.3,10.2,4.9c1.8,0.9,3.7,1.7,5.6,2.6c4,1.8,7.9,3.6,11.8,5.4c4.1,1.9,8.2,3.7,12.3,5.6
		c3.7,1.8,7.3,3.8,11,5.5c5.1,2.4,10.3,4.6,15.5,6.8c1,0.4,2.2,0.7,3.3,0.8c4.2,0.2,7.1-2.8,10.6-4.3c4.4-1.7,8.6-4.1,12.8-6.1
		c3-1.4,5.9-2.8,8.9-4.1c4-1.7,8-3.4,12-5.1c2.8-1.3,5.7-2.6,8.4-4c4.5-2.3,9-4.8,13.5-7c3.4-1.7,5.6-4.8,5.5-8.6
		C323.3,418.4,323,416,323,413.7z M241.5,443.6c-0.4-0.1-0.8-0.2-1.2-0.4c-4.4-2.2-8.8-4.5-13.2-6.5c-3.7-1.7-7.5-3.2-11.3-4.8
		c-4.6-2-9.1-4.1-13.6-6.3c-3.5-1.7-6.7-3.8-10.3-5.2c-3.2-1.3-3.9-3.7-3.9-6.7c0.2-13.9,0.3-27.8,0.4-41.8c0-1.6-0.1-3.1-0.3-4.7
		c-0.3-2.6,1.1-3.7,3.4-2.6c3.3,1.7,6.4,3.6,9.6,5.3c1.1,0.6,2.3,1,3.4,1.5c4.2,1.8,8.4,3.7,12.6,5.5c1.9,0.8,3.8,1.5,5.6,2.4
		c4.1,2,8.1,4.1,12.2,6.2c0.7,0.4,1.4,0.8,2.2,1c5.2,1.5,7.4,4.4,7.4,9.8c0,6.4,0,12.9,0,19.3h0c0,6.8,0,13.5,0,20.3
		c0,1.6,0.3,3.1,0.4,4.7C245.3,443.3,244.1,444.3,241.5,443.6z M250.6,379.9c-3.1-1.3-6.1-2.7-9.2-4c-1.7-0.8-3.4-1.5-5.2-2.3
		c-4-1.8-7.9-3.5-11.8-5.4c-3.9-1.9-7.7-3.9-11.6-5.8c-4-1.9-8.1-3.5-12.1-5.5c-1-0.5-1.8-1.8-2.6-2.7c1-0.8,2-1.7,3.1-2.4
		c1.6-1,3.3-1.8,5-2.6c4-1.8,8.1-3.5,12.1-5.3c2.7-1.2,5.3-2.6,7.9-3.9c3.9-1.9,7.8-3.8,11.7-5.7c3.3-1.6,6.7-3.1,10.1-4.4
		c0.9-0.3,2.3,0,3.3,0.4c4.9,2.1,9.8,4.2,14.5,6.5c4,1.9,7.8,4.1,11.7,6.1c1.2,0.6,2.7,0.9,3.9,1.5c4,2.1,7.9,4.3,11.8,6.3
		c1.3,0.7,2.9,0.8,4.1,1.6c1,0.6,2.2,1.7,2.3,2.7c0.1,0.7-1.3,1.8-2.3,2.3c-4.7,2.4-9.5,4.7-14.3,7c-4.1,1.9-8.2,3.6-12.3,5.5
		c-3.6,1.7-7.3,3.4-10.8,5.2c-2.6,1.3-5.2,2.8-7.8,4.2C251.8,379.6,251.3,379.7,250.6,379.9z M310,419.6c-2.8,1.8-5.8,3.2-8.8,4.8
		c-3.9,2-7.7,3.9-11.6,5.9c-0.5,0.3-1,0.5-1.5,0.8c-2.4,1.1-4.9,2.3-7.3,3.3c-4.1,1.8-8.3,3.5-12.4,5.4c-2.5,1.1-4.8,2.6-7.2,3.8
		c-2.9,1.4-4.1,0.7-4.2-2.6c-0.1-5.5,0-11.1,0-16.6c0.1,0,0.2,0,0.2,0c-0.3-10.2-0.6-20.4-1-30.7c-0.1-2.1,1.8-5.2,4-6.1
		c4.3-1.8,8.6-3.3,12.8-5.2c3.7-1.7,7.2-3.8,10.9-5.6c4-2,8.2-3.8,12.1-5.9c3.6-1.9,7-4.1,10.6-6c1.1-0.6,2.6-0.9,3.8-0.7
		c0.4,0.1,0.7,2.1,0.7,3.2c0.2,2.6,0.3,5.3,0.3,7.9c0,10,0,20,0,30c0,3.5,0.5,7.1,0.4,10.6C311.8,417.2,311,418.9,310,419.6z"/>
	<path d="M412.8,98c-3.1-6.5-7.6-11.4-13.4-15.4c-3.9-2.7-8.3-3.9-12.6-5.4c-8.8-3.2-16.8,0.1-24.6,3.2c-4.9,2-8.8,5.9-11.7,10.4
		c-2.3,3.6-4.2,7.6-5.6,11.7c-1,2.8-1.2,6-1.5,9c-0.9,9,1.2,17.4,6.5,24.7c6,8.2,14.1,13.7,23.7,17c4.9,1.7,9.9,0.5,14.9,0.6
		c0.2,0,0.5-0.1,0.7-0.2c3-1.6,6.2-3,9.1-4.9c6.8-4.6,12.2-10.4,15.5-18.3c2.1-5.1,2.8-10.1,3.2-15.3
		C417.2,109,415.4,103.5,412.8,98z M406,116.5c-0.2,1.9-0.5,3.8-1.2,5.5c-1.6,3.9-2.6,8-5.9,11.2c-5.2,5.1-10.7,9-18.8,8
		c-5.9,1.2-11.2-1.5-15.7-5.4c-3.2-2.8-5.7-6.3-7.5-10.5c-2.6-6-3.1-12.1-1.8-18.1c1.2-5.4,3.6-10.7,8.1-14.3
		C369,88.4,375.8,87,383,88c8.7,1.1,15,6.1,18.9,13.4C404.4,105.9,406.8,110.9,406,116.5z"/>
	<path d="M301.9,133.7c-2.3,1.9-5,3.2-7.5,4.7c-2,1.2-3.9,2.3-6,3.3c-1.7,0.8-3.6,1.4-5.4,2.1c-2.2-0.4-4-0.7-4.7-3
		c-0.7-2.5,0-5.3,2-6.4c3.5-2,7.1-3.8,10.6-5.7c0.9-0.5,1.8-0.9,2.5-1.5c2.4-1.9,5.1-1.8,7.8-1C304.1,127.1,304.6,131.5,301.9,133.7
		z"/>
	<path d="M300,413.7c-6.2,3.6-12.8,6.6-18.4,11.2c-2.5,2.1-6.1,0.7-7.2-2.4c-1.5-4.3,0.5-7.9,4.9-9.9c3.8-1.8,7.4-4.2,11.1-6.1
		c2.3-1.2,4.7-2.1,6.4-2.8c3.1,0.7,5.8,0.2,6.6,3.2C304.1,409.1,302.4,412.3,300,413.7z"/>
</g>
</svg>
