<?xml version="1.0" encoding="utf-8"?>
<!-- Generator: Adobe Illustrator 24.0.1, SVG Export Plug-In . SVG Version: 6.00 Build 0)  -->
<svg version="1.1" id="Layer_1" xmlns="http://www.w3.org/2000/svg" xmlns:xlink="http://www.w3.org/1999/xlink" x="0px" y="0px"
	 viewBox="0 0 500 500" style="enable-background:new 0 0 500 500;" xml:space="preserve">
<style type="text/css">
	.st0{fill:#FFFFFF;}
</style>
<path class="st0" d="M473.1,344.3c0-3.7-1.5-6.6-4.9-8.8c-4-2.5-7.8-5.4-11.5-8.4c-8.2-6.7-15.2-14.7-21.8-23c-2-2.5-3.8-5-5.8-7.5
	c-4-4.8-8.1-9.7-12.3-14.4c-5.8-6.6-11.7-13.1-17.5-19.8c-3.6-4.1-8.3-5.5-13.3-5.6c-13.2-0.3-26.3-0.1-39.5-0.1v-0.6
	c-6.1,0-12.2,0.1-18.3,0c-2.2,0-3.6,0.7-3.9,3c-0.2,1.1-0.4,2.3-0.4,3.4c-0.1,24.2-0.1,48.5-0.1,72.7c0,2.3-0.1,4.6-0.1,6.9
	c-0.1,5.4-0.2,10.8-0.2,16.2c-0.1,9.5,0,18.9-0.1,28.4c0,2.2,0.8,3.4,2.9,3.7c0.9,0.2,1.9,0,2.9,0c6.7,0,13.4-0.1,20.1,0.2
	c3.1,0.1,5.4-0.6,7.4-3c5.8-7,13.7-10.8,22.2-13.5c1.8-0.6,3.8-0.8,5.7-1.2c5.5-1,11-1.9,16.6-0.8c6.8,1.4,13.6,3.1,19.6,6.8
	c3.9,2.5,7.8,5.2,11.2,8.4c2.1,1.9,3.9,2.9,6.7,2.8c9.8-0.3,19.6-0.4,29.4-0.5c3.1,0,4.5-0.9,4.8-4c0.2-2.3-0.2-4.6-0.1-6.8
	C472.7,367.3,473,355.8,473.1,344.3z M368.6,351.9c-1.3,0-2.7,0-4,0.1c-1.2,0-2.5,0-3.7,0c0,0,0,0,0,0c-5.5,0-11,0.2-16.4-0.1
	c-3.3-0.1-4.4-1.8-4.6-5.3c-0.2-3.5,1.1-5.6,4-6.3c1.6-0.4,3.3-0.6,5-0.6c6.8,0.1,13.6,0.1,20.4,0.5c3.6,0.2,5.1,2.6,4.9,6.5
	C373.9,350.6,372.7,351.8,368.6,351.9z M430.3,328c-1.2,0.9-3.2,1-4.8,1c-7.1,0.1-14.2,0-21.2,0.1c-13.2,0.1-26.3,0.3-39.5,0.5
	c-4.2,0.1-8.5,0.4-12.7,0.4c-1.8,0-3.7-0.4-5.4-1c-4.7-1.6-5.7-3.2-5.8-8.2c0-5.9,0-11.9,0-17.8h-0.4v-22.8c0-0.2,0-0.4,0-0.5
	c-0.1-8.9,2.2-11.1,11.1-11.1c12.2,0,24.4,0.3,36.6-0.2c5.4-0.2,8.6,2.2,11.6,5.9c2.3,2.9,4.7,5.7,7,8.6c2.4,3,4.9,5.9,7.3,9
	c3.9,5.1,7.9,10.3,11.6,15.6c3.5,4.9,6.8,10,7.5,16.1C433.3,324.9,431.7,326.9,430.3,328z"/>
<path class="st0" d="M430.4,410.9c0-1.7-0.3-3.7-1.2-5.1c-2.2-3.5-4.8-6.9-7.4-10.1c-6-7.3-13.9-11.2-23.3-11.9
	c-2.4-0.2-4.8,0.1-7.2-0.1c-8.3-0.5-15.4,2.4-21.6,7.7c-1.9,1.6-3.5,3.6-5.4,5.3c-3.7,3.6-6.1,8.2-7,13.1
	c-1.2,7.1-0.7,13.9,2.6,20.8c3.3,6.9,8.1,12,14.4,15.2c6,3.1,12.4,6.4,19.8,4.9c0.5,0,1.1,0,1.6,0c8,0.4,15-2.5,21.4-7
	c2.2-1.5,4.3-3.4,5.9-5.5c2.6-3.6,5.8-7.2,6.8-11.3C431,421.8,430.4,416.2,430.4,410.9z M418.5,424.4c-1.1,2.6-3.1,4.9-5.1,7
	c-5.5,5.7-12.3,9-20.3,8.6c-5.3-0.3-10.2-2.4-14.7-5.3c-4.1-2.6-6.8-6.3-9.2-10.3c-1.2-2.1-1.5-4.8-2.2-7.2
	c0.1-6.6,3.6-11.3,7.9-15.3c2.9-2.7,6.5-5.3,10.3-6.2c6.2-1.5,12.7-2.5,18.7,1.2c2.9,1.8,5.8,3.6,8.7,5.4c0.2,0.1,0.4,0.3,0.6,0.5
	C418.5,407.5,421.3,417.7,418.5,424.4z"/>
<path class="st0" d="M459,400.3c6.1,0,12.2,0,18.3,0c2.8,0,4.3,1.3,4.3,4.1c0,2.4,0,4.7-0.1,7.1c0,2.5-2.3,4.7-5.1,4.6
	c-6.4-0.1-12.7-0.4-19.1-0.4c-3.5,0-7,0.4-10.6,0.4c-3.2,0-4.1-1.1-4.4-4.3c-0.2-2.6-0.6-5.2-1.2-7.8c-0.5-2.5,0-3.3,2.8-3.3
	c5,0,10.1,0,15.1,0C459,400.6,459,400.4,459,400.3z"/>
<path class="st0" d="M358.7,280.2c7.2,0,14.5,0,21.7,0c1.1,0,2.4,0.1,3.4-0.2c4.8-1.3,7.4,1.9,9.9,4.9c2.5,2.9,4.6,6.1,7,9.2
	c2.5,3.3,5,6.5,7.4,9.8c2.4,3.2,4.9,6.4,7.2,9.8c0.6,0.8,1.1,2.2,0.8,3c-0.2,0.6-1.7,1.1-2.7,1.1c-17.8,0.1-35.5,0.1-53.3,0
	c-1.8,0-3.5-0.3-5.3-0.5c-1.7-0.2-2.3-1.3-2.2-3c0.1-9,0.2-18,0.3-27c0-0.7,0-1.4,0-2.1C353.1,280.7,354.2,279.6,358.7,280.2z"/>
<path class="st0" d="M393.8,405.1c4.5,1.4,8.6,2.4,11.3,6.8c2,3.2,2.9,5.9,0.5,9.1c-1.9,2.6-3.2,5.2-6.9,6.4
	c-5,1.6-9.3,0.4-13.5-1.5c-4.4-2-5.3-8.3-3.5-12.9C384.1,407.2,389.2,406.9,393.8,405.1z"/>
<g>
	<path d="M455.3,403.5c-8.3-9.5-17.1-18.6-25.8-27.8c-5.3-5.6-10.8-10.9-16.2-16.4c-8.5-8.6-16.9-17.3-25.5-25.9
		c-4.3-4.3-7.5-4.4-12.5-0.7c-1.5,1.1-3.3,1.4-4.7,0.2c-3.8-3.1-7.6-6.4-11.2-9.8c-1.4-1.3-1.3-3-0.2-4.6
		c4.4-6.2,8.8-12.4,13.1-18.6c1.9-2.8,3.7-5.7,5-8.7c2.1-5.1,3.9-10.3,5.5-15.6c2.2-7.6,4.2-15.3,5.9-23c2.2-9.6,1.6-19.3,0.9-29
		c-0.4-5.2-1.3-10.5-2.4-15.6c-1.5-6.4-3.4-12.8-5.4-19.1c-1.3-4.2-3-8.3-5-12.2c-2.8-5.5-5.9-10.8-9.4-15.9
		c-4.1-6.1-8.5-12-13.3-17.6c-6.5-7.5-14.2-13.8-22.9-18.9c-2.3-1.4-4.6-3-6.9-4.3c-3.3-1.9-6.6-3.9-10.1-5.4
		c-4.9-2.1-9.9-4.1-15-5.7c-6.3-2-12.7-4.2-19.2-5.3c-7.7-1.3-15.6-1.5-23.4-2.2c-9.8,0.5-19.6,0.8-29.1,3.4
		c-6.6,1.8-13.3,3.7-19.8,5.9c-3.7,1.2-7.3,2.9-10.7,4.9c-4.9,2.8-9.8,5.7-14.4,9c-6.1,4.4-12.3,8.7-17.7,13.9
		c-5.7,5.5-10.7,11.7-15.6,17.9c-3.1,4-5.8,8.5-8.2,13c-2.2,4-3.9,8.2-5.6,12.4c-1.9,4.7-4.2,9.4-5.5,14.3
		c-1.8,7.1-3.3,14.4-4.2,21.7c-1.5,11.4-1.2,22.9,0.4,34.3c0.7,5.1,2,10.2,3.4,15.2c1.5,5.6,2.9,11.4,5.1,16.8
		c2.6,6.1,5.9,12,9.2,17.8c3.9,6.9,8.6,13.3,14.3,18.9c0.9,0.9,1.9,1.8,2.6,2.8c1.1,1.5,0.9,2.8-0.8,4c-3.7,2.5-7.7,4-12,4.5
		c-3.1,0.4-6.2,1.2-9.2,0.9c-4.6-0.5-8.9-2.1-13-4.5c-4.2-2.4-7.3-5.5-9.2-9.7c-1-2.2-1.3-4.9-1.3-7.4c0-4.6,0.7-9.2-1.4-13.5
		c-0.8-1.6-2.2-3.1-3.8-4c-4.3-2.4-9-4.1-13.2-6.5c-3.6-2.1-7.3-4.5-10.2-7.5c-3.8-3.9-7.4-8.3-10.4-12.8c-2.3-3.5-3.8-7.6-5.1-11.6
		c-1.1-3.5-1.8-7.2-2.2-10.8c-0.4-4.3-0.5-8.8-0.3-13.1c0.1-2.4,1.3-4.6,1.6-7c1.1-8.2,5.3-14.9,10-21.3c1.8-2.5,4.1-4.6,6.5-6.6
		c3.5-2.9,4.3-6.3,3.4-10.7c-1.3-6.6-2.4-13.3-2.8-20c-0.8-15.6,3-30.3,10.8-43.9c1.1-1.9,2.3-3.8,3.8-5.5
		c7.2-8.6,15.2-16.3,25.8-20.6c5.7-2.3,11.5-4.6,17.5-5.8c13.3-2.6,26.6-2.1,39.9,0.2c2.8,0.5,5.5,0.4,7.7-1.6
		c4.8-4.2,9.3-8.8,14.4-12.6c4.8-3.6,10-6.7,15.3-9.4c4.3-2.1,9-3.2,13.5-4.9c6.1-2.3,12.5-3,18.9-3.1c9.4-0.2,18.6,0.7,27.8,3.4
		c7.5,2.2,14.5,5.2,21,9.2c9.1,5.5,16.5,13.1,23.3,21.3c3.2,3.9,6.3,7.9,9.6,11.7c2.2,2.5,5,3.4,8.5,2.6c3.9-1,7.8-1.7,11.8-2.2
		c8.5-1.2,17.1-1.5,25.6,0c9.9,1.8,19.2,5.5,27.5,11.4c3.7,2.7,7.4,5.4,10.5,8.7c5.4,5.8,10.5,11.9,13.2,19.5
		c1.9,5.3,4.2,10.6,5.2,16.1c1.9,10.7,1.6,21.4-1.5,32.1c-2.5,8.7-6.2,16.6-11.5,23.7c-5.5,7.4-12.9,12.6-20.9,17
		c-2.8,1.5-5.7,2.8-8.4,4.5s-2.6,4.9,0.3,6c2.2,0.9,4.9,1.1,7.2,0.7c5.1-1,9.5-3.9,13.6-7c8.6-6.4,15.7-14.3,21.5-23.4
		c4.1-6.5,6.9-13.6,8.9-20.9c2.4-8.7,2.7-17.8,2-26.8c-0.4-5-1.5-10-2.9-14.8c-1.3-4.4-3.4-8.6-5.2-12.9
		c-2.5-6.1-6.2-11.5-10.3-16.6c-5.4-6.6-11.8-12-19.1-16.6c-6.2-3.9-12.9-7-19.8-9.1c-6.2-1.9-12.9-2.5-19.4-3.1
		c-8.7-0.8-17.3,0.8-25.8,2.5c-3,0.6-5.3-0.1-7.2-2.5c-3.2-4.2-6.2-8.6-9.9-12.4c-5-5.2-10.1-10.4-15.8-14.7
		c-5.1-3.8-10.9-6.7-16.6-9.5c-4.7-2.3-9.7-4.5-14.8-5.5c-12.4-2.4-24.9-5-37.6-1.8c-4.4,1.1-9,1.4-13.4,2.8
		c-4.9,1.5-9.5,3.7-14.2,5.8c-3.1,1.4-6.2,2.8-8.8,4.8c-6,4.7-11.8,9.8-17.6,14.9c-2.7,2.5-5.5,3.8-9.1,2.5
		c-1.1-0.4-2.3-0.7-3.5-0.9c-12-2-23.9-2.3-35.8,0.7c-2.5,0.6-5.3,0.8-7.7,1.7c-4.3,1.6-8.5,3.7-12.7,5.5c-6,2.5-11.3,6.1-16.2,10.2
		c-11.9,10.1-20.4,22.8-25,37.7c-2.6,8.5-4.5,17.3-4.3,26.2c0.2,7-0.1,14,2.3,20.7c1.2,3.4,0.4,6.3-2.1,9c-2.7,2.9-5.3,6-7.5,9.3
		c-4.1,6.3-7,13.2-9.2,20.5c-2.6,9.1-3.1,18.2-1.3,27.3c1.2,6,2.6,12.1,5.5,17.8c2.7,5.3,5.9,10.3,9.5,15
		c6.6,8.6,15.4,14.5,25.2,19.1c4.2,2,5.1,3.1,5,7.7c0,1.6-0.2,3.2,0,4.8c0.8,5.5,1.8,10.9,4.9,15.9c5,8,12.8,11.6,21,14.6
		c5.3,1.9,10.9,1.9,16.4,0.6c4.1-1,8.1-2.5,12.1-3.9c1.2-0.4,2.3-1.1,3.4-1.7c7.6-4.3,6-5.6,13,0.5c0.2,0.2,0.3,0.4,0.5,0.5
		c5.6,4,11.2,8.3,17,12.1c3.1,2,6.7,3.3,10.1,5c6.4,3.2,13.1,5.9,20.3,7.1c1.3,0.2,2.7,0.5,4,1c7.6,2.5,15.6,2.8,23.5,3.3
		c14.5,0.9,28.8-1.1,42.8-5.2c5.4-1.6,10.7-3.9,15.9-6.1c3.7-1.5,7.3-3.1,10.8-5c3.6-1.9,4.9-2,7.7,0.8c3.1,3,6.2,6.1,9.2,9.1
		c2,2,1.9,3.3,0,5.3c-3.1,3.3-3.2,6.6-0.1,10c2.9,3.1,5.9,6.2,8.7,9.3c9.7,10.6,19.3,21.2,29,31.7c5,5.4,10.1,10.7,15,16.2
		c5.6,6.3,11,12.8,17.8,17.9c2.8,2,6.1,3.8,9.4,4.4c10.9,1.9,20.8-1.3,29.2-8.1c7.9-6.4,13.1-14.7,14.5-25.1
		C461.6,415.6,460,408.9,455.3,403.5z M317,341.6c-6.4,3.4-13.1,6.2-20,8.6c-6.4,2.3-13,3.8-19.6,5.4c-8.9,2.1-18,2.1-27,1.9
		c-9.1-0.1-17.8-2.2-26.5-4.2c-4.9-1.1-9.7-3.3-14.4-5.2c-3.7-1.5-7.4-3.2-10.8-5.3c-4.8-2.9-9.5-6.2-14.1-9.5
		c-8.7-6.1-15.3-14.3-22.1-22.2c-5.4-6.4-10.3-13.3-13.7-21c-1.6-3.7-3.8-7.2-5.1-11c-2-6-3.9-12.2-5.2-18.4
		c-1.4-6.4-2.5-12.9-3.1-19.5c-0.8-9.2-0.4-18.4,1.7-27.5c0.5-2.3,0.7-4.6,1.1-6.9c1.1-6.9,3.4-13.5,6.4-19.8
		c2.5-5.4,5.1-10.8,7.9-16.1c4.8-8.9,10.9-16.8,18.2-23.7c4.4-4.1,8.8-8.2,13.7-11.7c4.8-3.5,10.1-6.4,15.3-9.3
		c4.3-2.4,8.8-4.7,13.4-6.4c10-3.8,20.5-5.6,31.1-6.8c11.2-1.2,22.4-1.5,33.4,1.3c2.5,0.7,5.3,0.7,7.8,1.3c2.6,0.6,5.2,1.4,7.8,2.1
		c2.2,0.6,4.6,1,6.7,1.9c6.7,3.2,13.8,5.4,19.9,9.8c4.5,3.2,9.5,5.7,13.8,9.1c4.9,3.9,9.5,8.1,13.7,12.8c4.5,5,8.6,10.5,12.5,16.1
		c2.4,3.4,4.2,7.3,6.1,11.1c1.6,3.1,3,6.3,4.3,9.6c1.8,4.5,3.9,9,5.1,13.7c1.7,6.9,2.8,14,3.9,21c0.6,3.9,0.5,7.8,0.7,11.7
		c0.4,10.5-2.1,20.6-4.1,30.7c-1.1,5.6-3.6,10.9-5.6,16.3c-1.4,3.7-2.8,7.5-4.8,10.9c-2.6,4.7-5.7,9.1-8.7,13.5
		c-1.4,2.1-3,4.1-4.6,6.1c-5.8,7.4-12.8,13.6-20.3,19.3C326.9,334.9,322.2,338.8,317,341.6z M344.4,353.5c-2.8-2.7-5.7-5.4-8.5-8.1
		c-1.3-1.3-1.5-2.7,0-4c4.1-3.7,8.3-7.3,12.5-10.9c1.4-1.2,3-1.2,4.4,0.1c3,2.8,5.9,5.6,8.8,8.4c2.1,2,2,2.7-0.2,4.6
		c-3.8,3.2-7.5,6.4-11.4,9.6c-0.9,0.7-2,1.2-3.2,1.9C345.9,354.5,345,354.1,344.4,353.5z M450.5,423.1c-1.6,4.2-2.8,8.6-6.1,12.1
		c-3.8,4.2-7.9,7.6-13.5,9.2c-2.5,0.7-5,1.5-7.5,2.3c-4.5-0.4-8.1-2.2-11.4-4.7c-8.9-6.8-15.6-15.8-23.1-24
		c-6.9-7.6-13.8-15.2-20.7-22.7c-6.8-7.4-13.7-14.8-20.7-22.1c-1.6-1.7-1.4-3,0.3-4.5c4.9-4.2,9.8-8.4,14.6-12.7
		c3.9-3.5,7.1-7.8,12.1-10.2c1.5-0.7,2.6-2.1,3.8-3.3c1.4-1.4,2.7-1.4,4-0.1c5.3,5.3,10.5,10.6,15.7,15.9c1.7,1.8,3.4,3.6,5.1,5.4
		c12.7,12.9,25.5,25.7,38.1,38.7c3.1,3.3,5.9,6.9,8.5,10.7C451.9,416.1,451.8,419.9,450.5,423.1z"/>
	<path d="M148.3,367.2c-2.2-6.1-5.8-11.1-11.6-14.8c-7.4-4.7-15-4.5-22.3-1.3c-5.8,2.6-10.4,7.2-12.4,14.1c-2,7-0.7,13.3,2.5,19.2
		c4.6,8.4,12.5,11.7,24.6,12.3c3.3,0.4,7.8-2.9,12.1-6.4c3-2.4,4.5-6,6.3-9.3C150.2,376.6,149.9,371.8,148.3,367.2z M126,386.5
		c-6.9,0.1-15-6.6-14.5-14.4c0.1-6.7,7-13.2,14.1-12.9c6.5,0.3,13.5,6.9,13.5,14.6C139.1,380.7,133,386.4,126,386.5z"/>
	<path d="M105.8,403.3c-4.8-7.7-11.5-11.4-20.4-11.7c-6.4-0.4-11.4,2.4-15.9,6.6c-3.1,2.8-3.8,6.6-5.4,10c-1.6,3.2-1.7,6.6-0.6,9.8
		c4.2,12.4,13.3,18.1,26.7,17c8.8-0.8,14.2-6.1,17.3-13.4C109.9,415.8,109.5,409.3,105.8,403.3z M86.3,425.5
		c-6.8,0.6-12.8-5.7-12.8-11.4c0-6.8,5.7-13,12.3-12.6c6.9,0.4,12.9,5.8,13.2,12.8C99.3,419.9,93.4,426.2,86.3,425.5z"/>
	<path d="M359.3,237.4c0-4.5,0.2-7.5,0-10.5c-0.3-4.1-0.9-8.1-1.6-12.1c-0.5-3-1.3-5.9-2.3-8.8c-1.5-4.6-3.1-9.3-4.8-13.8
		c-1-2.7-2.2-5.3-3.8-7.7c-4.5-7.1-9-14.1-14.8-20.3c-5.5-5.8-11.3-11.2-18.1-15.3c-5.7-3.5-11.7-6.7-17.8-9.2
		c-6.3-2.6-12.8-4.8-19.4-6.1c-12.1-2.3-24.4-2.9-36.6-0.4c-6.8,1.4-13.5,3.2-20.1,5.4c-4.2,1.4-8.1,3.7-12.1,5.7
		c-2.8,1.5-5.7,3-8.2,4.8c-6.7,4.8-12.9,10.1-18.5,16.4c-6.9,7.8-12.7,16.2-17.2,25.6c-2.7,5.6-4.7,11.3-6.2,17.3
		c-0.5,1.9-1.3,3.7-1.6,5.5c-1.5,8.9-1.8,17.9-1.4,26.9c0.3,5,0.7,10.1,2,15c1.7,6.4,4.1,12.6,6.4,18.8c1.4,3.6,2.9,7.3,5,10.6
		c4,6.1,8.2,12.3,13,17.8c4.6,5.4,9.7,10.5,15.4,14.8c6.7,5,13.8,9.5,21.7,12.5c5.3,1.9,10.6,4.3,16.1,5.5
		c10.6,2.4,21.3,3.7,32.2,2.6c8.9-0.9,17.6-2.8,25.9-6c6.4-2.4,12.4-5.9,18.2-9.5c5-3,9.6-6.6,14-10.5c8.3-7.5,15.2-16.1,21-25.8
		c3.9-6.5,7.3-13.2,9.4-20.4C357.9,256.2,360.6,246.4,359.3,237.4z M343.7,267c-5.2,14.2-13.5,26.3-24.4,36.5
		c-5.6,5.2-11.9,9.5-18.6,13.4c-7.8,4.6-16.2,7.4-24.7,9.5c-6.1,1.5-12.5,1.6-18.8,2.3c0-0.2,0-0.4,0-0.7
		c-10.5,0.9-20.5-1.6-30.1-5.1c-5.9-2.2-11.3-5.8-16.9-8.9c-8-4.5-14.5-10.8-20.6-17.5c-5.9-6.4-11.1-13.2-14.5-21.3
		c-1.8-4.4-3.7-8.8-5.5-13.3c-0.1-0.2-0.1-0.3-0.2-0.5c-1.5-8.2-3.4-16.3-4.2-24.5c-0.9-8.9-0.4-17.8,2.8-26.3
		c1.4-3.9,2.5-7.9,3.9-11.8c2.5-6.7,6-12.9,10.4-18.5c2.5-3.2,5.2-6.3,7.8-9.4c4.9-6,11.2-10.2,17.5-14.6c3.3-2.3,6.7-4.4,10.3-6.1
		c4.5-2,9.2-3.7,13.9-5.1c4.8-1.3,9.6-2.6,14.5-3c10.9-0.8,21.9-1.7,32.6,2.1c2.4,0.9,5.1,0.7,7.5,1.7c6.6,2.7,13.4,5.1,19.3,9.4
		c5.4,4,11.2,7.6,16,12.1c5.9,5.5,10.9,11.9,14.5,19.3c1.8,3.6,4.2,6.9,5.6,10.6c2.3,6,5,12,5.4,18.6c0.5,7,2.2,14,2,21
		C348.8,247.2,347.3,257.3,343.7,267z"/>
	<path d="M311,198.2c-1.1-7.1-4.5-13.1-8.7-18.4c-8.1-10.5-18.4-18.1-31.6-21.2c-1.2-0.3-2.4-0.5-3.5-1c-4.4-1.6-8.9-2-13.5-1.3
		c-7.3,1.1-14.4,3-20.9,6.7c-2.7,1.5-5.6,2.9-8,4.8c-6.3,4.8-11.5,10.6-15.5,17.5c-4.4,7.8-6.7,16.3-6.8,25.3
		c0,7.1,0.8,14.3,4.6,20.6c3.5,5.6,7.2,11.1,10.7,16.7c1.9,2.9,4.5,5.7,5.4,8.9c2.5,8.6,3,17.5,3.2,26.4c0.1,5.6,3,9.7,7.8,12.3
		c1.6,0.9,2.4,2,3.1,3.7c0.9,2.3,2,5.1,3.9,6.3c3.8,2.3,8,4.3,12.2,5.3c9.8,2.3,18.3-4.2,20.3-11.8c0.9-3.6,1.4-4.1,5.1-4.6
		c5.1-0.7,8-3.9,8.1-9c0.2-7.8,0.3-15.7,0.5-23.5c0-1.4,0.3-3,1.1-4c2.9-3.9,6.1-7.6,9.1-11.5c2.9-3.7,5.9-7.3,8.6-11.2
		c3.2-4.7,4.5-10.2,5.7-15.7c0.6-2.7,0.9-5.5,1.5-9C312.8,206.5,311.6,202.4,311,198.2z M266,293.4c-2.3,0.5-4.5,0.9-6.3,1.2
		c-1.1-0.1-1.7,0-2.2-0.2c-3.5-1.2-7-1.3-10.6-0.9c-1.4,0.2-3.6,0.3-3.7-1.7c-0.1-2,2-2.1,3.6-2.1c4.9,0,9.9-0.1,14.8,0
		c1.6,0,3.2,0.4,4.7,0.8c0.5,0.2,1.2,1.1,1.1,1.6C267.4,292.6,266.6,293.3,266,293.4z M274.2,279.2c-6.3-0.2-12.5-0.5-18.7-0.7
		c0,0.1,0,0.2,0,0.2c-4.5,0-9,0-13.5,0c-1.2,0-2.6,0-3.5-0.6c-1-0.8-2.1-2.2-2.2-3.4c-0.1-1.1,0.9-2.6,1.9-3.2
		c1-0.7,2.6-0.9,3.9-0.9c6.4-0.1,12.8,0.1,19.2,0c4.6-0.1,9.2-0.5,13.8-0.6c2.6-0.1,3.2,0.6,3.3,3.3c0,0.6,0,1.1,0,1.7
		C278.5,278.4,277.6,279.3,274.2,279.2z M251.9,205.6c4.1,0,8.1,0.3,12.2,0.5c2.7,0.2,3.9,1.4,3.7,4.3c-0.4,4.2-1.2,8.4-1.8,12.6
		c-0.6,4.3-1.5,8.5-1.8,12.8c-0.4,6.9-0.3,13.9-0.3,20.9c0,2.5-0.8,3.5-3.3,3.7c-0.8,0-1.6,0-2.4,0v0.1h-1.4c-4.7,0-4.8-0.6-4.9-5.3
		c-0.1-8-0.3-16-1.2-23.9c-0.6-6-2.3-11.9-3.5-17.8c-0.1-0.6-0.3-1.3-0.4-1.9C246.3,207.3,247.7,205.6,251.9,205.6z M301.6,219.2
		c-0.5,4.9-2.8,9.2-5.6,13.1c-3.7,5.3-8.3,10.1-12.1,15.4c-1.9,2.6-3.1,5.7-4.6,8.6c-0.3,0.6-0.3,1.7-0.7,2c-1,0.7-2.3,1.5-3.5,1.4
		c-0.7-0.1-1.7-1.6-1.8-2.6c-0.3-2.1-0.1-4.3-0.1-6.5c0,0,0,0-0.1,0c0.4-6.6,0.5-13.3,1.2-19.9c0.5-4.3,1.9-8.6,2.9-12.9
		c0.6-2.6,1.1-5.2,1.7-7.7c1.2-4.5,0.1-8.8-2.4-12.1c-2.9-3.8-7.8-5-12.5-3.7c-4.7,1.3-9,1.5-13.6,0.1c-5.5-1.7-10,1-12.9,6.1
		c-2.4,4.4-2.2,8.4-0.9,13.1c1.8,6.6,2.8,13.4,3.8,20.2c0.8,5.9,1.2,11.8,1.7,17.7c0.1,1.6,0.2,3.2,0.3,4.8c0.1,1.7-0.3,3.1-2.2,3.4
		c-1.9,0.3-3.7,0.1-4.5-1.9c-3.4-8-9-14.7-13.7-21.9c-3-4.5-5.7-9.3-7.6-14.4c-2.1-5.5-2-11.6-1.1-17.4c1.8-10.4,6.5-19.2,14.7-26.2
		c8.5-7.2,18.1-11.3,29.4-11.1c8.7,0.1,16.8,2.4,23.8,7.5c3.8,2.8,7.8,5.5,10.9,8.9c2.8,3,4.5,6.9,6.6,10.4
		C303.4,201.9,302.4,210.6,301.6,219.2z"/>
</g>
</svg>
