<?xml version="1.0" encoding="utf-8"?>
<!-- Generator: Adobe Illustrator 24.0.1, SVG Export Plug-In . SVG Version: 6.00 Build 0)  -->
<svg version="1.1" id="Layer_1" xmlns="http://www.w3.org/2000/svg" xmlns:xlink="http://www.w3.org/1999/xlink" x="0px" y="0px"
	 viewBox="0 0 500 500" style="enable-background:new 0 0 500 500;" xml:space="preserve">
<g>
	<path d="M389.3,225.1c-40.2-190.3-303.4-134.9-279,46.7C149.7,459.2,414.1,409.8,389.3,225.1z M233.3,120.7c4-1.9,7.3-3.4,9.8-2.1
		c4.4,2.4,1.7,10.8,2.2,28.3c0.5,17.6,3.5,24.1-0.9,27.6c-1.9,1.6-4.8,1.8-15.6-0.3c-11-2.1-29.9-1.9-31.4-10.8
		C205.9,148.7,215.4,129.4,233.3,120.7z M245.1,236.2c2.3,10.9-25.6,4.5-32.4,6.1v0.1c-9.5-1.6-30.1,3.6-31.4-3
		c1.5-19,1.8-43.8,12.6-61C260,193.5,243,174.7,245.1,236.2z M169.5,145.9c11.5-9.4,25.9-17,41.7-22.7c0.2,0.3,0.3,0.6,0.4,0.9
		c-32.9,31.6-12.5,48.1-43.9,28.8C164.5,150.7,164.8,149.3,169.5,145.9z M119.4,237.2c3.4-27.2,15-60.6,37.6-78.3
		c8.3,2.7,14,9.8,23.2,12.7c5.1,4.8-5.3,20.4-5.1,28.5c-6,16.4-0.4,45-10.4,42.4C151.5,240,116.2,247.7,119.4,237.2z M154,337.5
		c-20.8-21.7-33.3-52-34.9-83.7c11.5-2.4,49.3-2.4,50.6,0.9C173.6,335.4,201.4,313.4,154,337.5z M211.2,374.5
		c-49-22.4-60.1-26.9-25.4-41.3c8.9,12.2,14.3,28,25.9,40.7C211.6,374.1,211.4,374.3,211.2,374.5z M245.3,375.2
		c-7,19.8-51.1-38.1-47.4-47.5c13.4-5.2,27.5-6.7,42.8-9.8c0,0.2,0.1,0.4,0.1,0.7C251.1,317.9,243,369.7,245.3,375.2z M245.5,303.6
		c0.6,5.3-39.4,8.1-52.4,13.1c-5.9-8.1-18.1-64.7-8.7-64c71.9,1.7,59.8-8.5,60.7,26.2c0.1,0,0.2,0,0.3,0V303.6z M345.4,158.4
		c18,19.3,60.7,96.2,11,83.7v0.1c-42.3,4.1-20.3-10.7-30.1-36.1C319.4,164.9,306.5,177.7,345.4,158.4z M290.7,123.5
		c18.2,8.9,68.5,22.7,22.9,38.6c-7.4-12.5-13.7-26.7-25.4-38.2C289.1,123.8,289.9,123.4,290.7,123.5z M255.4,121.7
		c6.1-17.3,50.6,35.2,45.6,44.9c-6.5,3.3-34.8,17-43.6,7.8c-3.1-3.3-2.2-7.9-2.1-39.7C255.4,129,255.4,124.5,255.4,121.7z
		 M255.7,190.5c1.9-7.8,22.6-3.1,30.7-7.7c11.4-1.5,21.3-11.6,24,5c17.9,71.1,8.6,52.2-22.7,54.7v-0.3c-8.9-0.9-23,1.9-31.7-1.3
		C254.2,224.6,256.4,207.6,255.7,190.5z M255.6,257.3c-0.6-9.4,24.5-2.6,30.8-4.4c41.6-0.2,39.4-8.1,21,64.4
		C237.7,301,258.7,316.9,255.6,257.3z M271.6,372.6c-24.4,18-13.9-9-16-22.6h0.1c2.2-27.1-8.2-34.1,14.5-30.7
		c10.1,3.9,28.6,1.9,32.3,12.4C294.5,344.9,286.9,362.9,271.6,372.6z M334.1,349.3c-11.6,9-28.1,19.2-43.7,23.9
		c2.8-10,17.8-26.4,24.1-39.9C317.3,333.8,339.8,344.7,334.1,349.3z M379.9,257.3c0.6,23.8-25.3,84.2-37.9,80.4
		c-7.1-9.9-25.5-9.6-23.4-20.1c23.3-66.9-7.3-66.4,36.4-64.9v0C360.1,253.9,383.1,248.9,379.9,257.3z"/>
	<path d="M271.8,59.6c-34.3,40.2-47.1,30.1-18,1.7c-107,2.9-147.3,57.4-188.5,136.3c-12.8-1.8,4.2-29.5,8.2-39.4
		c33.9-67.7,103.6-107.5,179-108.8C203.8-2.5,280.8,43.6,271.8,59.6z"/>
	<path d="M439.6,310.9c-28.2,89.2-106.6,138-191,139.6c-4.9,5.5,23.5,16.8,12,23.9c-6.5,0.8-6.1-0.7-11.8-5.9
		c-37.1-31.8-17.4-24.1,4.4-51.9c20.6-5.8,1.6,14.4-4.6,21.4C421.9,436.4,424.4,269.4,439.6,310.9z"/>
	<path d="M468.1,237.6c-8.7,6.8-20.7,29.2-29.5,23.3c-9.9-12-27.7-21.6-27.3-31.8c6.7-14.1,21.7,19.5,26.1,11.8
		c-6.6-84-47.3-130.4-116-167.6c0.2-14.5,16.1-2.1,27.9,3.5c57.5,33,95.4,93.2,98.3,160.2c-0.1,0-0.1,0-0.2,0c0,1.2,0.2,1.8,0.7,4.7
		C454.7,234.5,484,209.4,468.1,237.6z"/>
	<path d="M179.4,429.6c-0.7,2.6-2.4,3.9-5.2,4.4C92.9,399.3,62.1,334.7,49.9,261c-15.8,21.4-32.5,21.3-15.5,1
		c11-9,16.6-25.3,26.8-20.7c21.9,15.7,44.6,58.9,2.6,18.6C72.6,398.5,187,418.3,179.4,429.6z"/>
</g>
</svg>
