<?xml version="1.0" encoding="utf-8"?>
<!-- Generator: Adobe Illustrator 24.0.1, SVG Export Plug-In . SVG Version: 6.00 Build 0)  -->
<svg version="1.1" id="Layer_1" xmlns="http://www.w3.org/2000/svg" xmlns:xlink="http://www.w3.org/1999/xlink" x="0px" y="0px"
	 viewBox="0 0 500 500" style="enable-background:new 0 0 500 500;" xml:space="preserve">
<g>
	<path d="M482.3,311c-0.1-2.6-0.9-5.6-3.9-6.4c-3.6-1-3.9-3.4-3.9-6.4c0.1-11-0.3-22,0.2-33c0.3-7.4-3.2-12.4-8.3-16.7
		c-7.2-6-13.8-12.5-19.4-19.9c-7.3-9.7-14.2-19.6-21.6-29.1c-5.1-6.6-10.4-13.1-16.3-18.9c-2.6-2.6-6.8-4-10.5-5
		c-3.3-0.9-7-0.6-10.5-0.6c-13.6,0-27.2,0.2-40.9,0.3c-2.6,0-3.9-1.2-3.8-3.6c0.2-3.3,0.5-6.7,0.3-10c-0.4-7.5-2-14.5-6.9-20.6
		c-2.8-3.5-6.1-6.7-10.3-7.9c-4.9-1.5-10.3-2.5-15.5-2.5c-34.7-0.1-69.5,0.2-104.2,0.4c-6.6,0-13.2-0.3-19.8-0.4
		c-18.1-0.1-36.2-0.2-54.3,0c-5.6,0.1-11.2,0.9-16.7,1.6c-5.3,0.6-9.2,3.8-12.6,7.5c-4.4,5-6.2,10.9-5.6,17.5
		c0.3,3.1-0.8,3.9-3.9,3.6c-1.2-0.1-2.6-0.5-3.6,0c-1.4,0.7-3,1.8-3.5,3.1c-1.6,4,0.5,6.7,4.8,6.7c23.5-0.1,46.9-0.3,70.4-0.5
		c0.7,0,1.4,0,2.1-0.1c3.5-0.4,4.8-1.6,4.8-4.4c0-3.3-1.4-4.9-4.9-5.4c-1.2-0.2-2.5-0.1-3.7-0.1c-16.1,0.2-32.2,0.4-48.3,0.4
		c-1.3,0-3.2-1-3.8-2.1c-2-3.6,0.1-10.7,3.2-13.5c3.4-3.1,7.2-3.9,11.6-3.9c32,0.1,64,0,96,0c0,0,0,0,0,0c32.4,0,64.7,0,97.1,0
		c9.5,0,16,6.3,16.3,15.7c0.1,3.8,0,7.5,0,11.3c0.1,26.3,0.3,52.6,0.4,78.9c0.1,17.9,0,35.9,0.1,53.8c0,2.4-1.2,3.3-3.4,3.3
		c-2.4,0-4.9-0.1-7.4-0.1c-33.2,0-66.5,0-99.7,0.1c-2.9,0-5.8,0.3-8.7,0.4c-2.3,0.1-4.3-0.4-5.8-2.4c-0.5-0.7-1.2-1.3-1.8-1.9
		c-5.6-4.9-11.7-8.6-18.9-11c-10-3.3-19.5-1.4-28.7,2.2c-4.7,1.9-9,5.1-12.4,9.1c-1.9,2.2-4.3,3.1-7.2,3c-8.6-0.1-17.2-0.2-25.9-0.1
		c-6.6,0.1-6.5,0.2-6.5-6.5c0-4.9,0.2-9.9-0.3-14.7c-0.5-4.5-0.6-4.7,3.8-4.7c9.8,0,19.5,0,29.3,0c3.7,0,5.6-1.7,5.7-4.8
		c0.1-3.3-1.9-5.7-5.3-6.1c-1.5-0.2-3-0.1-4.5-0.1c-9.9,0-19.8,0-29.8-0.1c-10.9-0.1-21.8-0.3-32.7-0.3c-3.2,0-5,1.9-5.3,5.1
		c-0.3,3.9,2.6,6.5,6.9,6.4c6.7-0.1,13.3,0,20,0c2.1,0,2.8,1.2,2.7,3.1c-0.1,1.3-0.3,2.6-0.3,3.9c0.1,5.4,0.2,10.9,0.4,16.3
		c0.1,2.3-0.9,3.3-3.2,3.6c-4.3,0.4-7.4,3.8-7.4,8.1c-0.1,5.3-0.1,10.6,0.1,15.8c0.2,5.5,4.4,9.7,9.9,9.9c7.3,0.2,14.6,0.4,21.9,0.4
		c4.6,0.1,9.2,0.1,13.7-0.2c3.2-0.2,5,0.6,6.4,3.4c1.2,2.4,2.6,4.7,3.8,7.1c3.7,7.3,9.6,12.6,16.9,16c4.5,2.1,9.2,4,14.4,3.9
		c6.1-0.1,12-0.1,17.8-2.6c4.2-1.8,8.3-3.7,11.7-6.7c5.5-4.7,9.3-10.7,11.8-17.5c1-2.6,2.6-4,5.5-4c8.7,0.1,17.4,0.1,26.1,0.1
		c30.1,0.1,60.1,0.3,90.2,0.3c6.3,0,12.7-0.1,19-0.3c4.4-0.2,6.1,1,7.8,5.1c2.5,6.1,6.1,11.6,11.3,15.9c4.7,3.9,10,6.4,15.7,8.2
		c6.4,2,12.9,2.1,19.2,0.4c4.6-1.3,9.1-2.9,13.3-5.5c7.8-4.7,12.4-11.8,15.8-19.7c2-4.6,2-5,7.1-5c9.5,0,19,0.1,28.5-0.1
		c5.2-0.1,7.2-1.4,7.6-6.4C482.6,324.7,482.5,317.8,482.3,311z M137.1,317.7c-0.4,2.5-0.8,5-0.8,7.5c-0.1,3.9-0.5,4.1-4.5,4
		c-9.7-0.2-19.5-0.2-29.3-0.1c-4.9,0-6.7-1.5-6.8-6.6c0-1.1,0-2.1,0-3.2c0.3-5.4,1.3-6.2,6.6-6.1h29.5c0.8,0,1.6-0.1,2.4,0
		c1.4,0.3,2.8,0.6,4.2,1C138,315.4,137.3,316.5,137.1,317.7z M177.5,359.1c-20.5-0.7-30.8-13.3-31.3-31.8
		c-0.4-15.6,11.8-29.1,30.8-28.9c19.2,0.2,30.8,14.8,30.7,31.2C207.5,346.7,195.6,358.3,177.5,359.1z M361.2,317.5
		c-0.8,2.6-0.9,5.5-1,8.3c-0.1,2.6-0.4,3.3-3.1,3.3c-22.4,0-44.9,0-67.3,0V329c-20.3,0-40.6,0-61,0c-2.5,0-5.1,0.1-7.6,0.3
		c-1.9,0.1-2.9-0.5-3.3-2.5c-0.5-3.1-1.2-6.2-2.1-9.2c-0.8-3-0.4-3.5,2.6-3.5c14.5,0.1,29,0.1,43.5,0.1c12.4,0,24.8,0,37.2-0.1
		c19.1-0.1,38.2-0.3,57.2-0.4c0.7,0,1.4,0,2.1,0C362.2,313.8,362.2,314.2,361.2,317.5z M421.1,351.9c-6.7,5.8-15,7.3-23.7,6.5
		c-2.2-0.2-4.4-0.4-6.5-1c-6.1-1.7-11.2-5.1-14.7-10.3c-4.4-6.7-7.5-13.9-6.6-22.2c0.5-5,2.4-9.5,5.3-13.8c2.8-4.2,6.3-7.4,10.8-9.7
		c6.8-3.4,13.9-5,21.6-3.3c8,1.8,14.1,6.2,18.7,12.7c3.8,5.4,5.6,11.7,5.4,18.8C431.6,338.4,427.8,346,421.1,351.9z M436.1,303.3
		c-1.5,0-3.3-0.4-4.5-1.2c-4.4-3.1-8.4-6.7-12.8-9.6c-4.2-2.8-8.8-5.3-14.1-5.1c-3.6,0.1-7.3-0.3-10.8,0.6
		c-4.4,1.1-8.6,3.3-12.8,5.1c-4.8,2-8.3,5.8-12.1,9.2c-1.2,1.1-3.3,1.9-5,1.9c-5.6,0.3-11.3,0.1-16.9,0.1c-2.8,0-3.4-0.8-3.4-4
		v-53.8h0c0-17.2,0-34.3,0-51.5c0-1.4-0.1-2.8-0.2-4.2c-0.4-3.6,1-5.3,4.6-5.3c14.6,0.2,29.2,0.3,43.8,0.5c2.5,0,5.1,0,7.5,0.5
		c1.6,0.3,3.3,1.3,4.5,2.4c6.3,5.9,11.6,12.7,16.3,19.9c3.6,5.5,7.7,10.6,11.5,16c5.9,8.5,12.6,16.2,20,23.4
		c3.5,3.3,7.2,6.5,10.7,9.7c2,1.8,2.8,3.9,2.7,6.6c-0.2,8.9-0.4,17.7-0.4,26.6c0,2.6,0.3,5.1,0.4,7.6c0,3.2-1,4.4-4.2,4.3
		c-5.4-0.1-10.7-0.3-16.1-0.4C441.8,302.8,438.9,303.3,436.1,303.3z M472.9,324.8c-0.2,2.8-1.2,3.6-4,3.6c-7.7,0-15.4,0-23.1,0.1
		c-2.1,0-3.1-0.6-3.6-2.8c-0.6-3.1-1.5-6.1-2.5-9c-0.8-2.5-0.3-3.5,2.3-3.5c4.7,0,9.3,0,14,0c4.6,0,9.1,0,13.7,0
		c2.5,0,3.5,1,3.4,3.5C472.9,319.4,473.1,322.1,472.9,324.8z"/>
	<path d="M279.1,222.8c-5,4.2-10.2,8-15.2,12.1c-6.7,5.4-13.2,11-20,16.3c-7.7,6.1-15.5,12-23.4,17.9c-1.8,1.3-3.8,2.4-6.1,1.3
		c-2.5-1.3-3.7-3.6-3.6-6.3c0.1-4.8,0.3-9.7,0.8-14.5c0.5-4.7-0.5-6-5.1-6c-28.3,0-56.6,0-84.9,0.1c-7.5,0-15.1,0.3-22.6,0.3
		c-5.5,0-11-0.4-16.6-0.3c-19.1,0.1-38.2,0.3-57.2,0.4c-1.1,0-2.3,0-3.4-0.1c-3-0.4-4.2-1.9-4.2-4.7c0.1-3,1.6-4.6,4.6-4.7
		c4-0.1,8.1-0.1,12.1-0.1c26.3,0,52.6,0.1,78.9,0.1c33.4,0,66.8,0,100.2-0.1c5.9,0,7.9,2.8,6.9,8.6c-0.6,3.5-0.4,7.1-0.3,10.7
		c0.1,2,2,2.6,3.7,1.2c4.5-3.7,8.8-7.5,13.3-11.1c6.7-5.4,13.5-10.6,20.3-15.9c3-2.4,6-4.8,9-7.2c1.7-1.4,1.7-2.9,0.1-4.2
		c-3.3-2.8-6.7-5.4-9.9-8.2c-6.5-5.4-12.9-10.9-19.3-16.3c-4.4-3.7-8.8-7.5-13.3-11.2c-0.6-0.5-1.8-0.8-2.3-0.5
		c-0.6,0.4-1.2,1.5-1.2,2.3c0,4.1,0.1,8.3,0.4,12.4c0.2,4.2-1.3,6.3-5.4,6.9c-1.4,0.2-2.8,0.2-4.2,0.2c-23.4,0-46.8,0-70.2,0v0.1
		c-23.4,0-46.8,0-70.2,0c-1.6,0-3.2,0-4.7-0.4c-2.1-0.5-3.6-1.9-3.5-4.3c0.1-2.3,1.6-4.2,4-4.6c1.2-0.2,2.5-0.2,3.7-0.2
		c45.5,0,90.9,0,136.4,0c5,0,5.8-0.8,5.7-5.9c-0.1-4.3-0.6-8.6-0.7-12.9c0-2,0.3-4,0.9-5.9c0.9-3,3-3.4,5.8-1.9
		c8.3,4.4,15,11,22.1,16.9c9.3,7.8,18.6,15.5,27.9,23.3c3.7,3.2,7.4,6.5,11,9.8C281.6,218.6,281.7,220.6,279.1,222.8z"/>
	<path d="M106.3,256.5c-0.6,3.1-2.2,4.2-4.9,3.9c-2.6-0.3-3.9-1.8-4.1-4.9c0-0.3,0-0.7,0-1c-0.1,0-0.1,0-0.2,0
		c0.2-1.2,0.3-2.5,0.7-3.6c0.8-2.1,2.5-3.1,4.7-3.1c2.1,0,3.2,1.5,3.5,3.3C106.4,252.8,106.6,254.8,106.3,256.5z"/>
	<path d="M432.2,243.6c-0.8-3.6-2.7-7-4.6-10.2c-2.8-4.7-6.1-9.1-9.3-13.7c-4.6-6.5-9.1-13-13.7-19.5c-2.4-3.3-5.6-4.2-9.7-4.1
		c-9.7,0.3-19.3,0.4-29,0.2c-4.8-0.1-7,1.3-7.8,6.1c-0.2,1.2-0.1,2.4-0.1,3.7c0.1,6.2,0.3,12.3,0.4,18.4c0.1,5.3-0.2,10.6,0.3,15.8
		c0.8,8.4,2.5,9.9,11,9.9c9.1,0.1,18.3,0,27.4,0v0.1c4.7,0,9.5,0,14.2,0c5.1,0,10.2,0.1,15.3-0.2C431.1,250.1,433.2,248,432.2,243.6
		z M416,240.5c-7,0.1-14,0.1-21.1,0.1c-4.2,0-8.4,0-12.6,0c-3.2,0-6.5,0.1-9.7,0.3c-3.2,0.1-4-0.5-4.1-3.6c-0.1-4.5,0-9,0-13.4
		c0,0,0,0,0,0v-12.6c0-3.3,0.8-4,4-4c7.1,0,14.2,0.2,21.3-0.1c3.7-0.2,6,1.5,7.8,4.3c4,6.2,7.8,12.4,11.8,18.6
		c1.5,2.3,3.2,4.4,4.7,6.6c0.6,1,0.8,2.3,1.2,3.5C418.2,240.2,417.1,240.5,416,240.5z"/>
	<path d="M384.7,268c-0.8,2.1-2.3,3.1-4.5,3.1c-5.7,0-11.4,0-17.1-0.1c-3.8-0.1-6-2.1-6.2-5.2c-0.2-3.4,1.6-5.5,5-5.8
		c1-0.1,1.9,0,2.9,0v0.1c4.6,0,9.3,0,13.9,0C383.2,260,386.3,264,384.7,268z"/>
	<path d="M400.1,308c-10.9,0-20.7,9-20.6,20.4c0.1,10.1,9.3,20.5,21,20.1c10.6,1.4,21.3-10.9,21.2-20.2
		C421.7,317.8,411.6,308.1,400.1,308z M411,328.5c-1.1,6.8-5.1,10.7-11.2,9.9c-5.9-0.8-10.7-3.9-9.8-10c0.6-6.3,5.6-11,10.9-10.4
		C406.2,318.7,411.7,324.2,411,328.5z"/>
	<path d="M176.2,308.4c-9,0-20.7,9.4-20.5,20.5c0.1,9,9.4,21,21.5,20.2c10,0.9,20.6-10.2,20.4-20.8
		C197.5,318.9,186.6,308.4,176.2,308.4z M177.3,339.1c-5.8,0-11.7-4.8-11.3-9.6c0.4-5.9,3.9-10.6,10.8-10.5
		c6.6,0.1,10.4,4.6,10.7,9.8C187.7,333.5,182.6,339.5,177.3,339.1z"/>
</g>
</svg>
