<?xml version="1.0" encoding="utf-8"?>
<!-- Generator: Adobe Illustrator 24.0.1, SVG Export Plug-In . SVG Version: 6.00 Build 0)  -->
<svg version="1.1" id="Layer_1" xmlns="http://www.w3.org/2000/svg" xmlns:xlink="http://www.w3.org/1999/xlink" x="0px" y="0px"
	 viewBox="0 0 500 500" style="enable-background:new 0 0 500 500;" xml:space="preserve">
<style type="text/css">
	.st0{fill:#FFFFFF;}
</style>
<path d="M492.3,393.6c-0.3-0.9-1.1-2.1-1.9-2.4c-3.6-1.3-4.1-4-4.1-7.4c0.1-12.8,0.1-25.7-0.1-38.5c-0.1-5.1-1.6-10.1-5.2-13.5
	c-7-6.6-14.7-12.4-21.9-18.8c-4.4-4-8.4-8.5-12.4-12.9c-2.4-2.6-4.4-5.7-6.7-8.4c-3.6-4.4-7.4-8.7-11-13.2
	c-3.8-4.8-7.2-9.8-11.1-14.5c-2.7-3.2-5.8-6.1-8.8-9.1c-6.2-6.3-13.8-9.5-22.5-9.6c-15.7-0.3-31.5-0.4-47.2-0.5
	c-3.7,0-7.4,0.2-11.1,0.4c-3.4,0.2-4.6-0.9-4.5-4.3c0-0.8,0.1-1.6,0.1-2.4c0.1-3.1,0.2-6.1-2-8.8c-0.9-1.2-1.2-2.9-1.9-4.4
	c-0.4-1-0.8-2.1-1.5-2.8c-6.2-6.5-13.5-10.4-22.9-10.3c-34.1,0.2-68.1,0.1-102.2,0.1c-19.6,0-39.3,0-58.9,0c-1.4,0-2.8,0.3-4.2,0.4
	c-2.5,0.3-4.1,1.6-4.2,4.3c-0.2,3.1,0.7,4.8,3.7,5.6c2,0.6,4.2,0.8,6.3,0.9c35.3,0.2,70.6,0.3,105.9,0.5c10.7,0,21.4,0,32.1,0
	c1.4,0,2.8-0.2,4.2-0.2c8.5,0,17-0.7,25.2,2.3c5,1.8,6.1,3.2,6.3,8.7c0.1,1.3,0.1,2.7,0,4c-0.1,5.3-0.4,10.6-0.4,15.9
	c-0.1,15.9,0,31.8,0,47.8c0,25.9,0,51.9,0,77.8c0,1.9,0,3.9,0.3,5.8c0.4,3.7-0.8,5-4.6,4.7c-2.7-0.2-5.5-0.3-8.2-0.3
	c-13.1,0-26.2-0.1-39.3,0c-29,0.2-58,0.6-87,0.8c-1.1,0-2.3-0.3-3.2-0.9c-4.6-3.4-8.9-7.3-13.8-10.2c-4.2-2.5-8.9-4.6-13.6-5.5
	c-12-2.3-23.9-2.3-35.4,3.6c-5.5,2.9-10.7,5.9-15.2,10.3c-1.8,1.7-3.5,2.3-5.9,2.1c-4-0.4-8.1-0.7-12.2-0.6c-7.5,0-15,0.3-22.5,0.4
	c-2.3,0.1-3.5-1-3.4-3.4c0.1-2.7,0.4-5.5,0.4-8.2c0-9,0-18,0-27v-44.1h0.1c0-14.9,0-29.7,0-44.6c0-2.5-0.2-4.9-0.5-7.4
	c-0.2-2-1.1-3.8-3.3-4.3c-4.4-1.1-8.5,1.9-8.8,6.4c-0.1,1.5-0.1,3-0.1,4.5c0,23.8,0,47.6-0.1,71.4c0,9.4-0.3,18.8-0.3,28.1
	c0,7.6,0.2,15.2,0.3,22.8c0.1,4.4-0.3,5-4.5,5.9c-1,0.2-2.1,0.4-3.1,0.7c-5.7,1.8-6.8,7-7.4,11.6c-0.8,6.7-2.1,13.5,2.2,20
	c2.2,3.2,4.4,5.5,8.3,5.6c6.1,0.2,12.2,0.4,18.3,0.4c3.4,0,6.9-0.3,10.3-0.3c6,0,12-0.1,18,0.1c1.2,0,3,0.6,3.6,1.5
	c1.7,2.3,2.8,5,4.3,7.4c1.3,2.2,2.8,4.2,4.2,6.3c4.8,7.1,11.5,11.6,19.4,14.4c3.5,1.3,7.1,2.4,10.7,3.4c1.7,0.5,3.5,0.4,5.3,0.6
	c11.1,0.9,21.6-1,31.6-6.1c0.5-0.3,1.1-0.6,1.5-1c3-2.4,6.1-4.8,9-7.3c4.9-4.4,8.3-10,10.5-16.2c0.8-2.1,2-3.2,4.3-3.1
	c2.7,0.2,5.5,0.3,8.2,0.3c27,0,54,0.1,81,0.1c24.2,0,48.5-0.1,72.7,0c1.4,0,3.2,1,4.1,2.2c1.2,1.5,1.7,3.7,2.8,5.4
	c2.3,3.5,4.4,7.3,7.3,10.3c2.9,3,6.3,5.8,9.9,7.7c4.7,2.6,9.8,5.3,15,6.1c12,1.9,24,2.4,35.6-3c6-2.8,11.3-6,15.5-11
	c2.3-2.8,4.4-5.9,6.4-9c1.2-1.9,2.2-3.9,2.8-6c0.6-2,1.5-3.3,3.8-3.3c2.9,0,5.8,0,8.7,0c9-0.1,18-0.3,27.1-0.4
	c1.6,0,3.2-0.2,4.7-0.4c4.4-0.8,6.7-2.6,7.1-7c0.7-7.1,0.8-14.3,1-21.4C493.6,397.2,492.9,395.4,492.3,393.6z M79.8,405.1
	c-0.6,2.4-0.9,4.9-1.2,7.3c-0.4,4.1-1.5,5.3-5.7,5.3c-12.5-0.1-24.9-0.3-37.4-0.4c-1.9,0-3.4-0.9-3.5-2.6c-0.2-3.7-0.3-7.5,0.1-11.2
	c0.2-1.8,2-2.2,3.7-2.2c6.1,0,12.2,0,18.3,0v-0.5c7.4,0,14.8,0,22.3,0C80,400.7,80.7,401.6,79.8,405.1z M165,419.1
	c-0.2,5.9-1.5,11.4-5,16.4c-3.1,4.4-6.9,8-11.6,10.6c-6.5,3.6-13.2,6.4-21,5.1c-1.9,0-3.7,0-5.6,0c-6.7-0.2-12.3-3.3-17.6-6.9
	c-4.9-3.3-7.6-8.3-10.5-13.4c-2.9-5.1-3-10-3-15.2c0-3.2,0.5-6.1,2.5-8.8c0.7-1,0.9-2.3,1.4-3.4c1.1-1.9,2.2-3.9,3.5-5.7
	c1.8-2.6,4.1-4.7,6.8-6.4c5.7-3.8,11.6-7,18.7-7.1c6.3-0.1,12.3,0.9,18.3,3.1c7.9,2.8,13.6,7.8,18.3,14.1
	C164,406.5,165.2,412.7,165,419.1z M345.1,415.4c-0.1,2.3-1.5,2.8-3.4,2.8c-41.6-0.2-83.3-0.3-125-0.5c-9.1-0.1-18.2-0.3-27.3-0.4
	c-1.3,0-2.6,0-4,0.2c-5.2,0.6-6.9-0.6-8-5.7c-0.3-1.5-0.7-2.9-1.3-4.3c-1.2-3,0-5.2,3.3-5.2c5.7-0.1,11.3,0,17,0v-0.4h26.2
	c33.8,0,67.5,0,101.3-0.1c6.1,0,12.2,0,18.3,0.1c2.2,0,3.5,1,3.3,3.4C345.4,408.7,345.2,412,345.1,415.4z M429.8,426.9
	c-1,4.1-4.2,7.7-6.8,11.3c-1.6,2.1-3.7,4-5.9,5.5c-6.4,4.5-13.4,7.4-21.4,7c-0.5,0-1.1,0-1.6,0c-7.3,1.4-13.8-1.8-19.8-4.9
	c-6.2-3.2-11.1-8.3-14.4-15.2c-3.3-7-3.9-13.8-2.6-20.8c0.9-4.9,3.3-9.5,7-13.1c1.8-1.8,3.4-3.7,5.4-5.3c6.2-5.3,13.3-8.2,21.6-7.7
	c2.4,0.2,4.8-0.1,7.2,0.1c9.4,0.7,17.3,4.6,23.3,11.9c2.6,3.2,5.2,6.6,7.4,10.1c0.9,1.4,1.2,3.4,1.2,5.1
	C430.4,416.2,431,421.8,429.8,426.9z M431.9,387.3c-3.4-3.1-7.2-5.9-11.2-8.4c-6-3.7-12.7-5.4-19.6-6.8c-5.6-1.1-11.1-0.2-16.6,0.8
	c-1.9,0.3-3.9,0.6-5.7,1.2c-8.4,2.7-16.4,6.5-22.2,13.5c-2,2.4-4.3,3.2-7.4,3c-6.7-0.3-13.4-0.1-20.1-0.2c-1,0-2,0.2-2.9,0
	c-2-0.3-2.9-1.5-2.9-3.7c0.1-9.5,0.1-18.9,0.1-28.4c0-5.4,0.1-10.8,0.2-16.2c0-2.3,0.1-4.6,0.1-6.9c0-24.2,0.1-48.5,0.1-72.7
	c0-1.1,0.2-2.3,0.4-3.4c0.4-2.3,1.7-3,3.9-3c6.1,0.1,12.2,0,18.3,0v0.6c13.2,0,26.3-0.2,39.5,0.1c5,0.1,9.7,1.5,13.3,5.6
	c5.7,6.7,11.7,13.1,17.5,19.8c4.1,4.7,8.2,9.6,12.3,14.4c2,2.4,3.8,5,5.8,7.5c6.6,8.3,13.6,16.3,21.8,23c3.7,3,7.5,5.9,11.5,8.4
	c3.4,2.1,4.9,5,4.9,8.8c-0.1,11.5-0.4,23-0.5,34.5c0,2.3,0.4,4.6,0.1,6.8c-0.3,3.1-1.7,4-4.8,4c-9.8,0.1-19.6,0.2-29.4,0.5
	C435.8,390.2,433.9,389.2,431.9,387.3z M481.5,411.6c0,2.5-2.3,4.7-5.1,4.6c-6.4-0.1-12.7-0.4-19.1-0.4c-3.5,0-7,0.4-10.6,0.4
	c-3.2,0-4.1-1.1-4.4-4.3c-0.2-2.6-0.6-5.2-1.2-7.8c-0.5-2.5,0-3.3,2.8-3.3c5,0,10.1,0,15.1,0v-0.3c6.1,0,12.2,0,18.3,0
	c2.8,0,4.3,1.3,4.3,4.1C481.5,406.8,481.5,409.2,481.5,411.6z"/>
<path d="M216.8,291.1c-1.3,1-0.3,2.2,1.1,2.3c2.3,0,4.6-0.4,6.8-0.4c3.6,0,7.2-0.2,10.7,0.4c1.4,0.2,3,2.1,3.6,3.7
	c0.6,1.6-2.3,5.2-4.2,5.5c-2.3,0.3-4.7,0.3-7.1,0.2c-6-0.2-12-0.6-18-0.7c-1,0-2,1-3.1,1.6c0.7,0.8,1.3,1.8,2.1,2.4
	c3,2.1,6.1,3.9,9,6c2.9,2,6,1.5,9.2,1c2.2-0.4,4.5-0.4,6.7-0.1c5.6,0.8,7.8,5.2,9.5,9.9c0.3,0.9,0.5,2.1,0.2,2.9
	c-0.6,1.5-1.4,3.5-2.7,4.1c-1,0.4-2.8-1.1-4.2-1.9c-0.8-0.5-1.5-1.5-2.3-1.6c-1.1-0.2-2.6-0.1-3.4,0.5c-0.6,0.5-0.3,2.1-0.2,3.2
	c0.1,0.6,0.6,1.1,0.8,1.7c0.9,2,0.6,4.2-1.1,5.3c-1.4,0.8-3.8,1.3-5.1,0.7c-4.9-2.5-9.6-5.4-10.7-11.6c-0.2-1.4-1.7-2.6-2.8-3.7
	c-3.5-3.3-7.1-6.6-10.7-9.8c-0.3-0.3-0.7-0.6-1.1-0.8c-5.3-2.3-6.6-0.7-6.4,3.7c0.1,2.4-0.1,4.8-0.2,7.1c-0.2,2.8,1,5,3.3,6.5
	c2.1,1.4,4.3,2.7,6.5,4c2.2,1.4,3.7,3.2,3.7,6c0,3.2-1.6,5-4.9,4.8c-1.5-0.1-2.9-0.8-4.3-1.1c-1-0.2-2.6-0.5-2.8-0.1
	c-0.5,0.8-0.9,2.5-0.4,3.2c2.2,3.2,0.7,5.8-0.6,8.7c-1.3,2.9-3.7,4.1-6.5,4.2c-2.6,0.1-3.8-1.9-4.7-4.1c-0.3-0.7-0.8-1.4-1.2-2
	c-1.4-2-1.4-3.8,0-5.9c0.5-0.8,0.4-2,0.6-3.1c-1,0-2,0-2.9,0.1c-1.9,0.2-3.8,0.9-5.6,0.6c-1.2-0.2-3-1.4-3.3-2.5
	c-0.4-1.4,0-3.5,0.9-4.6c3.2-3.9,6.7-7.4,10.1-11.1c0.4-0.4,1.1-0.9,1.1-1.4c0.2-4.4,0.3-8.8,0.2-13.2c0-0.5-1.8-1.5-2.6-1.4
	c-1.7,0.2-3.6,0.7-5,1.7c-2.7,2-5.1,4.3-7.5,6.6c-2.1,2-4.3,3.9-6,6.1c-1.4,1.8-2.5,4.1-3,6.3c-0.9,4.3-4.3,6.2-7.5,8
	c-1.9,1.1-4.2,0-5.7-1.7c-1.4-1.6-1-3.4-0.1-5.2c0.4-1,0.9-2.5,0.4-3.1c-0.6-0.8-2.1-1.1-3.2-1.1c-1.3-0.1-2.6,0.3-4,0.4
	c-2.3,0.2-4.3-0.4-5.3-2.6c-1-2-0.3-5.8,1-7.3c2.5-2.7,5.5-4.1,9.1-3.9c1.9,0.1,3.9,0,5.8,0c4.9,0.2,8.1-3.2,11.8-5.5
	c1.3-0.8,0.4-2.9-1.5-3.2c-3.2-0.4-6.5-0.5-9.7-0.9c-3.5-0.4-7-1.1-10.5-1.7c-1.9-0.3-3.8-1.3-3.5-3.3c0.3-1.8,1.3-4.2,2.7-5
	c2.6-1.3,5.7-2,8.6-2.1c2-0.1,4.1,1.2,6.1,2c2.2,0.9,4.2,2.1,6.5,3c2.5,1,5.2,1.7,7.8,2.4c0.6,0.2,1.7,0.2,1.9-0.1
	c0.4-0.5,0.6-1.6,0.3-2.1c-0.5-1-1.3-1.9-2.3-2.5c-4-2.7-7.9-5.4-12.2-7.8c-1.7-0.9-4.1-1.3-6-1c-6,1.1-10.4-2.2-14.7-5.4
	c-1.2-0.9-1.5-4-1-5.8c0.6-2,2.8-3,5.2-2.6c1.5,0.2,3,0.3,4.5,0.1c1.5-0.3,2.6-0.9,1.5-3c-1.6-2.9-0.9-5.4,1.5-7.3
	c2.4-1.8,5-1.5,7.5,0.2c4.2,2.9,5.7,7.3,7.5,11.8c0.9,2.2,2.7,4.2,4.5,5.9c2.5,2.4,5.3,4.6,8.1,6.7c1.5,1.1,3.2,2.2,5,2.8
	c3.3,1.2,4.4,0.3,4.4-3.2c0-1.4,0-2.8,0-4.2h-0.1c0-0.1,0-0.2,0-0.3c1.1-6.1-1.7-10.2-6.6-13.5c-2.2-1.5-4-3.8-5.4-6
	c-0.6-1-0.6-3.1,0-4.1c1.7-2.8,4.1-4.9,7.7-4.8c2.7,0.1,3.7-1.3,3.9-3.9c0.3-4.3,3.2-6.8,7.3-6.6c3.3,0.2,5.2,2.8,5.3,7
	c0,0.5,0,1.1,0,1.6c-0.1,2.1,0.4,2.8,2.8,2.3c5-1.2,9.4,2.2,8.1,6.3c-0.7,2.3-2.6,4.3-4.3,6.2c-1.1,1.2-2.6,2.2-4,3
	c-3.1,1.7-3.8,4.5-3.9,7.6c-0.1,4.1-0.2,8.1-0.2,12.2c0,1,0.4,2.5,1,2.7c0.9,0.3,2.4,0,3.2-0.5c3.8-2.8,7.5-5.9,11.3-8.8
	c0.8-0.6,1.6-1.4,2.6-1.8c3.6-1.7,5.6-4,6.1-8.4c0.6-4.7,4.1-8.2,8.2-10.5c2.6-1.5,6.9,0.5,6.4,4.2c-0.1,0.4,0,0.9,0,1.3
	c0,3.5,0.7,4.1,4.1,3.4c5.2-0.9,4.9,0.1,7.5,3.6c0.4,0.5,0.3,2-0.1,2.6c-1,1.2-2.4,2-3.5,3.1c-0.8,0.8-1.8,1.6-2,2.6
	c-0.5,2.4-2.1,3.1-4.2,3.1c-2.8,0-5.6,0.1-8.4,0.1C221.9,286.1,219.5,289,216.8,291.1z"/>
<path d="M106.7,160.1c-2.1-1.8-4.8-4.4-4.9-6.8c-0.7-9.5-0.8-19.1-0.6-28.6c0.3-13.5,1.2-27,1.8-40.4c0.3,0,0.5-0.1,0.8-0.1
	c-0.8-4.3-1.4-8.6-2.5-12.8c-2.1-8.1-8.2-13.1-15.5-15.5c-8.3-2.7-17-2.9-25.4,1.9c-5.5,3.1-8.8,7.9-11.2,13
	c-2.3,4.7-3.2,10.2-3.1,15.7c0.2,21,0.1,42.1,0.1,63.1c0,1.9-0.4,4-1.4,5.5c-1.4,2.1-3.5,3.7-5.2,5.6c-3.6,4.2-7.5,8.5-8.3,14.1
	c-1.5,10.3-2.2,20.5,3.2,30.4c3.6,6.6,8.2,12.1,14.3,15.8c5,3,10.4,5.4,16.5,6.3c17.9,2.5,33.4-1.1,45.5-15.5
	c4.7-5.7,7.7-12.1,8.5-19.3C120.8,179.6,116.8,168.7,106.7,160.1z M96.4,209.2c-6.8,6.1-14.9,8.1-24,7.5c-8.6-0.5-16-3.6-22-9.6
	c-1.9-1.9-3.2-4.4-4.3-6.8c-1.6-3.4-3.5-6.8-4.1-10.5c-1.7-9.5,1.2-17.6,8.8-23.8c2-1.7,4.2-3.3,5.8-5.4c1.1-1.4,1.9-3.4,1.9-5.2
	c0.2-12.4,0-24.8,0.1-37.2c0.1-13.2,0.4-26.3,0.4-39.5c0-3.5,1.3-6.1,3.5-8.6c4.2-4.7,13.2-7.4,19-4.8c4.7,2.1,8.8,5.4,8.9,11.4
	c0,1.4,0,2.8,0,4.2h-0.5c0,24.6,0.1,49.2-0.1,73.8c-0.1,5.1,2.4,8.1,6.2,10.5c5.9,3.9,9.9,8.7,11.2,16.1
	C109.1,193,104.7,201.8,96.4,209.2z"/>
<path d="M140.6,98.2c-0.3,2.7-2.5,3.3-4.6,3.5c-5.1,0.5-10.2,0.9-15.3,1.1c-2.5,0.1-5.1,0-7.5-0.5c-2.2-0.5-4.1-1.8-4.1-4.5
	c0-2.8,1.8-4.4,4.4-4.8c4.1-0.5,8.2-0.8,12.4-1.1c0,0.1,0,0.2,0,0.4c2.7,0,5.5,0,8.2,0c1,0,2.1,0.2,3.1,0.6
	C139.7,93.7,140.9,95.6,140.6,98.2z"/>
<path d="M139.2,117.2c0.2,1.1-1.6,3.1-3,3.9c-1.5,0.9-3.6,0.9-5.4,1.1c-4.7,0.4-9.5,0.8-14.3,0.7c-5-0.1-7.5-3.1-6.2-7.4
	c0.4-1.3,1.8-2.6,3-3.1c1.5-0.6,3.3-0.4,4.9-0.5c1.7-0.1,3.4,0,5,0c0-0.1,0-0.2,0-0.2c3.7,0.3,7.4,0.5,11.1,0.9
	C137.2,112.8,138.7,115,139.2,117.2z"/>
<path d="M137.9,141.3c-2.3,0.9-4.9,1.7-7.3,1.7c-4.7-0.1-9.5-0.8-14.2-1.3c-3.7-0.4-5.3-1.9-5.2-5c0.1-2.9,1.8-4.5,5.3-4.6
	c5-0.1,10,0,15.1,0v-0.3c1.3,0.1,2.6,0.2,4,0.3c2.2,0.2,4,1.2,4.5,3.4C140.7,137.7,140.5,140.3,137.9,141.3z"/>
<path d="M140.3,78.4c0.2,3-1.5,5.2-4.6,5.3c-3.2,0.1-6.5,0-9.8,0v0c-3,0-6.1,0.4-9-0.1c-2.3-0.4-4.8-1.3-6.6-2.8
	c-2.5-2.2-1.3-5.6,2-6.4c0.7-0.2,1.4-0.3,2.1-0.3c6.8,0,13.6-0.1,20.4,0C138.2,74.2,140.1,75.8,140.3,78.4z"/>
<path class="st0" d="M473.1,344.3c0-3.7-1.5-6.6-4.9-8.8c-4-2.5-7.8-5.4-11.5-8.4c-8.2-6.7-15.2-14.7-21.8-23c-2-2.5-3.8-5-5.8-7.5
	c-4-4.8-8.1-9.7-12.3-14.4c-5.8-6.6-11.7-13.1-17.5-19.8c-3.6-4.1-8.3-5.5-13.3-5.6c-13.2-0.3-26.3-0.1-39.5-0.1v-0.6
	c-6.1,0-12.2,0.1-18.3,0c-2.2,0-3.6,0.7-3.9,3c-0.2,1.1-0.4,2.3-0.4,3.4c-0.1,24.2-0.1,48.5-0.1,72.7c0,2.3-0.1,4.6-0.1,6.9
	c-0.1,5.4-0.2,10.8-0.2,16.2c-0.1,9.5,0,18.9-0.1,28.4c0,2.2,0.8,3.4,2.9,3.7c0.9,0.2,1.9,0,2.9,0c6.7,0,13.4-0.1,20.1,0.2
	c3.1,0.1,5.4-0.6,7.4-3c5.8-7,13.7-10.8,22.2-13.5c1.8-0.6,3.8-0.8,5.7-1.2c5.5-1,11-1.9,16.6-0.8c6.8,1.4,13.6,3.1,19.6,6.8
	c3.9,2.5,7.8,5.2,11.2,8.4c2.1,1.9,3.9,2.9,6.7,2.8c9.8-0.3,19.6-0.4,29.4-0.5c3.1,0,4.5-0.9,4.8-4c0.2-2.3-0.2-4.6-0.1-6.8
	C472.7,367.3,473,355.8,473.1,344.3z M368.6,351.9c-1.3,0-2.7,0-4,0.1c-1.2,0-2.5,0-3.7,0c0,0,0,0,0,0c-5.5,0-11,0.2-16.4-0.1
	c-3.3-0.1-4.4-1.8-4.6-5.3c-0.2-3.5,1.1-5.6,4-6.3c1.6-0.4,3.3-0.6,5-0.6c6.8,0.1,13.6,0.1,20.4,0.5c3.6,0.2,5.1,2.6,4.9,6.5
	C373.9,350.6,372.7,351.8,368.6,351.9z M430.3,328c-1.2,0.9-3.2,1-4.8,1c-7.1,0.1-14.2,0-21.2,0.1c-13.2,0.1-26.3,0.3-39.5,0.5
	c-4.2,0.1-8.5,0.4-12.7,0.4c-1.8,0-3.7-0.4-5.4-1c-4.7-1.6-5.7-3.2-5.8-8.2c0-5.9,0-11.9,0-17.8h-0.4v-22.8c0-0.2,0-0.4,0-0.5
	c-0.1-8.9,2.2-11.1,11.1-11.1c12.2,0,24.4,0.3,36.6-0.2c5.4-0.2,8.6,2.2,11.6,5.9c2.3,2.9,4.7,5.7,7,8.6c2.4,3,4.9,5.9,7.3,9
	c3.9,5.1,7.9,10.3,11.6,15.6c3.5,4.9,6.8,10,7.5,16.1C433.3,324.9,431.7,326.9,430.3,328z"/>
<path class="st0" d="M196.5,401.9c8.8,0,17.5,0,26.3,0c33.8,0,67.6,0,101.3-0.1c6.1,0,12.2,0,18.3,0.1c2.2,0,3.5,1,3.3,3.4
	c-0.2,3.3-0.4,6.7-0.5,10c-0.1,2.3-1.5,2.8-3.4,2.8c-41.7-0.2-83.3-0.3-125-0.6c-9.1,0-18.2-0.3-27.3-0.4c-1.3,0-2.7,0-4,0.2
	c-5.2,0.6-6.9-0.6-8-5.7c-0.3-1.4-0.7-2.9-1.3-4.3c-1.2-3,0-5.2,3.3-5.2c5.7-0.1,11.3,0,17,0C196.5,402.2,196.5,402,196.5,401.9z"/>
<path class="st0" d="M160.3,401.5c-4.7-6.4-10.4-11.3-18.3-14.1c-6.1-2.2-12-3.2-18.3-3.1c-7.1,0.1-12.9,3.3-18.7,7.1
	c-2.7,1.8-5,3.9-6.8,6.4c-1.3,1.8-2.4,3.7-3.5,5.7c-0.6,1.1-0.7,2.4-1.4,3.4c-2,2.6-2.5,5.6-2.5,8.8c0,5.3,0.1,10.2,3,15.2
	c2.9,5.1,5.5,10.1,10.5,13.4c5.4,3.6,10.9,6.8,17.6,6.9c1.8,0,3.7,0,5.6,0c7.7,1.3,14.5-1.5,21-5.1c4.7-2.6,8.4-6.2,11.6-10.6
	c3.5-5,4.9-10.5,5-16.4C165.2,412.7,164,406.5,160.3,401.5z M150.5,428.1c-3.9,5.4-9.3,8.8-15.1,11.5c-2.2,1-5,0.9-7,1.2
	c-7.2-0.4-12.9-2.9-18-7.3c-3.5-3-5.5-6.8-7.5-10.7c-1.5-2.9-1-6,0.4-8.9c0.4-0.9,1.1-1.7,1.4-2.6c2.4-7,7.6-11,14.1-14
	c6.7-3.2,12.7-2.7,19.3,0.1c4.5,2,8.2,4.7,11.5,8.2C155.1,411.4,155.3,421.5,150.5,428.1z"/>
<path class="st0" d="M430.4,410.9c0-1.7-0.3-3.7-1.2-5.1c-2.2-3.5-4.8-6.9-7.4-10.1c-6-7.3-13.9-11.2-23.3-11.9
	c-2.4-0.2-4.8,0.1-7.2-0.1c-8.3-0.5-15.4,2.4-21.6,7.7c-1.9,1.6-3.5,3.6-5.4,5.3c-3.7,3.6-6.1,8.2-7,13.1
	c-1.2,7.1-0.7,13.9,2.6,20.8c3.3,6.9,8.1,12,14.4,15.2c6,3.1,12.4,6.4,19.8,4.9c0.5,0,1.1,0,1.6,0c8,0.4,15-2.5,21.4-7
	c2.2-1.5,4.3-3.4,5.9-5.5c2.6-3.6,5.8-7.2,6.8-11.3C431,421.8,430.4,416.2,430.4,410.9z M418.5,424.4c-1.1,2.6-3.1,4.9-5.1,7
	c-5.5,5.7-12.3,9-20.3,8.6c-5.3-0.3-10.2-2.4-14.7-5.3c-4.1-2.6-6.8-6.3-9.2-10.3c-1.2-2.1-1.5-4.8-2.2-7.2
	c0.1-6.6,3.6-11.3,7.9-15.3c2.9-2.7,6.5-5.3,10.3-6.2c6.2-1.5,12.7-2.5,18.7,1.2c2.9,1.8,5.8,3.6,8.7,5.4c0.2,0.1,0.4,0.3,0.6,0.5
	C418.5,407.5,421.3,417.7,418.5,424.4z"/>
<path class="st0" d="M54.1,400.8c7.4,0,14.8,0,22.3,0c3.6,0,4.3,0.8,3.4,4.3c-0.6,2.4-0.9,4.9-1.2,7.3c-0.5,4.1-1.5,5.3-5.7,5.3
	c-12.5-0.1-24.9-0.3-37.4-0.4c-1.9,0-3.4-0.9-3.5-2.6c-0.2-3.7-0.3-7.5,0-11.2c0.2-1.8,2-2.2,3.7-2.2c6.1,0,12.2,0,18.3,0
	C54.1,401.1,54.1,400.9,54.1,400.8z"/>
<path class="st0" d="M459,400.3c6.1,0,12.2,0,18.3,0c2.8,0,4.3,1.3,4.3,4.1c0,2.4,0,4.7-0.1,7.1c0,2.5-2.3,4.7-5.1,4.6
	c-6.4-0.1-12.7-0.4-19.1-0.4c-3.5,0-7,0.4-10.6,0.4c-3.2,0-4.1-1.1-4.4-4.3c-0.2-2.6-0.6-5.2-1.2-7.8c-0.5-2.5,0-3.3,2.8-3.3
	c5,0,10.1,0,15.1,0C459,400.6,459,400.4,459,400.3z"/>
<path class="st0" d="M107.1,181.4c-1.3-7.4-5.3-12.2-11.2-16.1c-3.8-2.5-6.2-5.4-6.2-10.5c0.2-24.6,0.1-49.2,0.1-73.8h0.5
	c0-1.4,0-2.8,0-4.2c0-6.1-4.2-9.3-8.9-11.4c-5.8-2.6-14.8,0-19,4.8c-2.2,2.4-3.5,5.1-3.5,8.6c0,13.2-0.3,26.3-0.4,39.5
	c-0.1,12.4,0.1,24.8-0.1,37.2c0,1.8-0.8,3.8-1.9,5.2c-1.6,2.1-3.8,3.7-5.8,5.4c-3.8,3.1-6.5,6.8-7.9,10.8c-1.9,5.2-1.3,9.8-0.8,13
	c0.4,2.8,2,10.6,8.5,17.3c0.9,1,3.6,3.6,7.7,5.8c4.3,2.3,9,3.5,14.3,3.9c9.1,0.6,17.1-1.4,24-7.5C104.7,201.8,109.1,193,107.1,181.4
	z M92,199.8c-4.8,5.5-10.7,8.4-17.7,8.7c-4.4,0.2-8.5-1.6-11.7-4.8c-2.7-2.7-5.2-5.6-7.6-8.7c-0.8-1-1-2.6-1.1-4
	c-1.2-8.5,2.8-14.6,9.3-19.3c3.7-2.7,5.2-5.6,5.1-10.2c-0.2-16.5-0.1-33.1,0-49.6c0-1.3,0-2.7,0.2-4c0.5-3.5,3-5.2,6.9-5
	c3.4,0.2,5.4,2.1,5.5,5.5c0.1,3.7,0,7.4,0,11.1c0.1,0,0.2,0,0.3,0c0.3,14.9,0.4,29.8,0.9,44.7c0,1.4,1.2,3.1,2.3,4.1
	c2.6,2.6,5.6,4.8,8.2,7.5C98.1,181.9,97.4,193.6,92,199.8z"/>
<path d="M425.6,307.4c-3.8-5.3-7.7-10.4-11.6-15.6c-2.3-3.1-4.8-6-7.3-9c-2.3-2.9-4.7-5.7-7-8.6c-3-3.7-6.2-6.1-11.6-5.9
	c-12.2,0.5-24.4,0.2-36.6,0.2c-8.9,0-11.2,2.2-11.1,11.1c0,0.2,0,0.4,0,0.5V303h0.4c0,5.9,0,11.9,0,17.8c0,5,1.1,6.6,5.8,8.2
	c1.7,0.6,3.6,1,5.4,1c4.2,0,8.5-0.3,12.7-0.4c13.2-0.2,26.3-0.4,39.5-0.5c7.1-0.1,14.2,0,21.2-0.1c1.6,0,3.6-0.1,4.8-1
	c1.4-1,3-3.1,2.8-4.5C432.5,317.4,429.1,312.3,425.6,307.4z M416.2,316.8c-0.2,0.6-1.7,1.1-2.7,1.1c-17.8,0.1-35.5,0.1-53.3,0
	c-1.8,0-3.5-0.3-5.3-0.5c-1.7-0.2-2.3-1.3-2.2-3c0.1-9,0.2-18,0.3-27c0-0.7,0-1.4,0-2.1c0-4.6,1.1-5.7,5.7-5.1c7.2,0,14.5,0,21.7,0
	c1.1,0,2.4,0.1,3.4-0.2c4.8-1.3,7.4,1.9,9.9,4.9c2.5,2.9,4.7,6.1,7,9.2c2.5,3.3,5,6.5,7.4,9.8c2.4,3.2,4.9,6.4,7.2,9.8
	C416,314.6,416.5,315.9,416.2,316.8z"/>
<path d="M360.9,352c-5.5,0-11,0.2-16.4-0.1c-3.3-0.1-4.4-1.8-4.6-5.3c-0.2-3.5,1.1-5.6,4-6.3c1.6-0.4,3.3-0.7,5-0.6
	c6.8,0.1,13.6,0.1,20.4,0.5c3.6,0.2,5.1,2.6,4.9,6.5c-0.2,3.8-1.5,5-5.5,5.2c-1.3,0-2.7,0-4,0.1C363.4,352,362.1,352,360.9,352
	C360.9,352,360.9,352,360.9,352z"/>
<path d="M149.5,405.5c-3.3-3.5-7-6.2-11.5-8.2c-6.6-2.8-12.6-3.2-19.3-0.1c-6.5,3.1-11.7,7.1-14.1,14c-0.3,0.9-1,1.7-1.4,2.6
	c-1.4,2.9-1.8,6-0.4,8.9c2,3.9,4,7.8,7.5,10.7c5.1,4.4,10.8,6.8,18,7.3c2-0.3,4.8-0.2,7-1.2c5.9-2.6,11.2-6.1,15.1-11.5
	C155.3,421.5,155.1,411.4,149.5,405.5z M141.8,417.7c0,4.2-3.3,8.1-7.2,9.8c-4.2,1.8-7.9,1.3-12,0c-4.7-1.6-6.3-4.4-6.8-8.7
	c-0.5-4.4,2.6-8.5,6.3-10.4c4.8-2.5,9.7-2.1,14,0.3C139.2,410.3,142.2,413.2,141.8,417.7z"/>
<path d="M413.1,402.8c-0.2-0.2-0.4-0.3-0.6-0.5c-2.9-1.8-5.8-3.6-8.7-5.4c-6-3.8-12.6-2.7-18.7-1.2c-3.7,0.9-7.4,3.5-10.3,6.2
	c-4.2,4-7.8,8.7-7.9,15.3c0.7,2.4,0.9,5.1,2.2,7.2c2.4,4,5.1,7.7,9.2,10.3c4.6,2.9,9.5,5,14.7,5.3c8,0.4,14.8-2.9,20.3-8.6
	c2-2.1,4-4.4,5.1-7C421.3,417.7,418.5,407.5,413.1,402.8z M405.6,421.1c-1.9,2.6-3.2,5.2-6.9,6.4c-5,1.6-9.3,0.4-13.5-1.5
	c-4.4-2-5.3-8.3-3.4-12.9c2.3-5.8,7.5-6.1,12-7.9c4.5,1.4,8.6,2.4,11.3,6.8C407,415.2,408,417.8,405.6,421.1z"/>
<path d="M92.4,175.9c-2.5-2.7-5.6-4.9-8.2-7.5c-1.1-1.1-2.2-2.7-2.3-4.1c-0.4-14.9-0.6-29.8-0.9-44.7c-0.1,0-0.2,0-0.3,0
	c0-3.7,0.1-7.4,0-11.1c-0.1-3.5-2.1-5.4-5.5-5.5c-3.9-0.2-6.4,1.5-6.9,5c-0.2,1.3-0.2,2.6-0.2,4c0,16.5-0.2,33.1,0,49.6
	c0.1,4.6-1.4,7.6-5.1,10.2c-1.3,0.9-6.7,5.7-8.8,11.4c-1.9,5.3-0.3,10.2,0.1,11.5c1.9,5.8,6,8.8,7.7,10c1.5,1,4.6,3,9,3.7
	c0.6,0.1,1.7,0.3,3.3,0.2c7.1-0.3,12.9-3.2,17.7-8.7C97.4,193.6,98.1,181.9,92.4,175.9z M74.8,195.7c-4.4-0.2-8.4-5-8.3-9.9
	c0.1-4.7,4.5-8.7,9.3-8.5c3.6,0.2,7.8,5.4,7.7,9.5C83.4,190.7,78.4,195.8,74.8,195.7z"/>
<path class="st0" d="M358.7,280.2c7.2,0,14.5,0,21.7,0c1.1,0,2.4,0.1,3.4-0.2c4.8-1.3,7.4,1.9,9.9,4.9c2.5,2.9,4.6,6.1,7,9.2
	c2.5,3.3,5,6.5,7.4,9.8c2.4,3.2,4.9,6.4,7.2,9.8c0.6,0.8,1.1,2.2,0.8,3c-0.2,0.6-1.7,1.1-2.7,1.1c-17.8,0.1-35.5,0.1-53.3,0
	c-1.8,0-3.5-0.3-5.3-0.5c-1.7-0.2-2.3-1.3-2.2-3c0.1-9,0.2-18,0.3-27c0-0.7,0-1.4,0-2.1C353.1,280.7,354.2,279.6,358.7,280.2z"/>
<path class="st0" d="M141.8,417.7c0,4.2-3.3,8.1-7.2,9.8c-4.2,1.8-7.9,1.3-12,0c-4.8-1.6-6.3-4.4-6.8-8.7c-0.5-4.4,2.6-8.5,6.3-10.4
	c4.8-2.5,9.7-2.1,14,0.3C139.2,410.3,142.2,413.3,141.8,417.7z"/>
<path class="st0" d="M393.8,405.1c4.5,1.4,8.6,2.4,11.3,6.8c2,3.2,2.9,5.9,0.5,9.1c-1.9,2.6-3.2,5.2-6.9,6.4
	c-5,1.6-9.3,0.4-13.5-1.5c-4.4-2-5.3-8.3-3.5-12.9C384.1,407.2,389.2,406.9,393.8,405.1z"/>
<path class="st0" d="M83.5,186.7c-0.1,4-5.1,9.1-8.7,8.9c-4.4-0.2-8.4-5-8.3-9.9c0.1-4.7,4.5-8.8,9.3-8.5
	C79.4,177.4,83.6,182.6,83.5,186.7z"/>
</svg>
