<?xml version="1.0" encoding="utf-8"?>
<!-- Generator: Adobe Illustrator 24.0.1, SVG Export Plug-In . SVG Version: 6.00 Build 0)  -->
<svg version="1.1" id="Layer_1" xmlns="http://www.w3.org/2000/svg" xmlns:xlink="http://www.w3.org/1999/xlink" x="0px" y="0px"
	 viewBox="0 0 911.4 1000" style="enable-background:new 0 0 911.4 1000;" xml:space="preserve">
<g>
	<path d="M5249.9-445.7c166.6,99.2,331.7,197.5,495.9,295.3c0,138,0,273.3,0,406.6c-41,25-80.5,49.4-120.4,73.1
		c-30.1,17.9-61,34.5-91,52.6c-50.6,30.5-100.3,62.5-151.1,92.6c-45.1,26.7-91.3,51.8-137.4,77.8
		c-166-102.8-335.9-197.9-499.4-299.5c0-135.6,0-267.2,0-401.3c20.5-12.1,42.2-24.7,63.8-37.6c53.8-32.2,107.5-64.7,161.4-96.8
		c30.1-18,60.8-35.1,90.8-53.2c37.7-22.8,74.6-46.7,112.4-69.1C5199.6-419.8,5225.5-432.6,5249.9-445.7z M5228.8,156
		c-148.3-89-296.7-178.2-445.5-267.5c-6.5,34.4-8.3,225-3.5,352.3c24.4,13.8,48.9,26.3,72,41.1c64.5,41.1,131.4,78.1,197.4,116.7
		c36.9,21.6,72.2,45.9,108.9,67.9c22.2,13.3,45.6,24.5,70.7,37.7C5228.8,388.2,5228.8,274.5,5228.8,156z M5537.9,347.3
		c64.1-41.9,128.1-73.4,184.5-112.6c0-116.2,0-227.6-0.1-339c0-1.1-0.8-2.4-1.5-3.4c-0.8-1-1.9-1.7-5.2-4.4
		c-59.3,35.8-119.4,72.1-178.5,107.9c0,40,0,77.5,0,116c-24.1,24.2-55.6,36.6-87.9,55.8c-3.4-41.7,2.6-79.7-4.3-118.7
		c-63.2,38-123.3,74.1-180.6,108.6c0,117.1,0,230.8,0,350c63.7-36.9,123.8-71.7,184.2-106.6c0-40.1,0-80.3,0-121
		c26.9-19.8,55.8-36.1,89.4-54.5C5537.9,267.7,5537.9,304.6,5537.9,347.3z M5433.1,20.8c-152.6-90-303.8-179.2-457.9-270.1
		c-29.2,17.1-59.5,34.3-89.4,52.4c-30.7,18.6-61,38-92.5,57.7c152.8,91,302.7,180.2,454.9,270.7C5307,96.4,5368.2,59.7,5433.1,20.8z
		 M5702.8-144.1c-48.5-22.8-88.6-52.1-132.7-75.2c-51-26.7-98.7-59.9-147.9-90.1c-34.2-21-68.4-42-102.9-62.5
		c-22.5-13.3-45.5-25.8-68.7-38.8c-65.2,31-123.1,70.8-185.1,107.3c154.7,93.5,305.6,184.8,453.7,274.3c33.4-20,64.2-37.1,93.5-56.5
		C5641.4-104.6,5674.4-117.4,5702.8-144.1z"/>
	<path d="M5280.2,296.4c37.1-23.2,72.3-45.2,107.7-67.2c0.5,0.4,1.7,1.1,2.4,2.1c0.7,1,1.4,2.3,1.4,3.4
		c0.1,61.6,0.1,123.2,0.1,183.2c-38,23-74.2,45-111.5,67.5C5280.2,422.8,5280.2,360,5280.2,296.4z"/>
	<path d="M5714.3,41.5c-29.9,17.4-57.7,33.6-87.4,50.9c0-46,0-89.9,0-136.8c25.4-15.8,53.1-33,84.4-52.5c5.6,23.9,2.2,46,2.8,67.6
		C5714.8-6.6,5714.3,16.1,5714.3,41.5z"/>
	<path d="M5162.3-340.3c33.9-19.6,63-36.4,90.9-52.6c34.4,20.9,67.2,40.9,104.7,63.7c-33.4,21-62.4,39.2-89,55.9
		C5234-295.1,5200-316.5,5162.3-340.3z"/>
</g>
<g>
	<path d="M542,917.2c-117.4,0-231.2,0-347.1,0c-0.8,16.6-0.7,30.9-2.3,45c-2.8,24-14.4,34.9-38.5,36.1c-17.1,0.9-34.2,0.9-51.3,0
		C79.5,997,69.1,988,66.7,965.1c-2-18.2-1.6-36.8-1.2-55.2c0.4-16.5-3.3-30.1-14.8-43.1c-21.8-24.6-30.1-55-30.1-87.5
		c0-146-0.3-292.1,0.2-438.1C21,279.5,51.1,234,107.2,211.8c39.8-15.8,83.1-26.9,125.6-30.7c100.9-8.9,202.4-11.3,303,4.4
		c30.9,4.8,62.2,12.4,90.9,24.5c54,22.6,86.3,64.1,88,124.3c1.7,59.2,1.3,118.4,1.4,177.6c0.2,85.5-0.4,171,0.3,256.5
		c0.3,38-6.6,72.6-32.1,102.8c-6.8,8-8.9,21.3-9.9,32.4c-1.7,18.3,0.6,36.9-1.1,55.2c-2.6,27.6-15.6,38.6-43.8,39.6
		c-14.5,0.5-29,0.6-43.4,0c-26.3-1.1-37.6-11.2-41.4-37.7C542.9,947.9,543,934.7,542,917.2z M108.5,351c0,73.9,0,142.9,0,211.6
		c53.1,8.2,493.2,5.8,519.9-2.4c0-69.1,0-138.1,0-209.2C454.1,351,282.6,351,108.5,351z M239,762.7c-1-37.1-32.7-66.8-69.6-65.1
		c-36.2,1.7-63.9,31-63.2,66.9c0.8,37.8,31.2,66.4,69,64.9C211.1,827.8,240,797.6,239,762.7z M563.8,829.4
		c36.6,0.6,65.5-26.6,66.6-62.7c1.2-38.5-26.7-68.7-64.2-69.3c-36.5-0.5-65.2,26.7-66.3,62.8C498.8,800.1,525.4,828.8,563.8,829.4z"
		/>
	<path d="M806.6,824.4c0-23.4,0-46.8,0-70.2c0-123.8,0.7-247.6-0.5-371.4c-0.3-34-3.6-68.4-10.4-101.7
		C782,215,740.7,168.8,681.2,138.7c-57.1-28.9-118.3-45.5-181.8-47.9c-80.1-3-160.3-1-240.5-1.2c-11.5,0-23,0-38,0
		c26.7-43.9,67.8-58,109.5-69.3C414-2.2,499.9,0.5,585.4,1.9C642,2.8,698.7,4.8,753.8,20c17.7,4.9,35.9,9.5,52.1,17.6
		c49.4,24.6,80.2,63,83.2,120.1c0.8,14.5,1.5,28.9,1.5,43.4c0.1,127.7-0.3,255.5,0.3,383.2c0.2,41.8-4.3,81.1-34.5,114
		c-6.1,6.6-7.1,19.2-7.8,29.2c-1.2,18.4,0.5,36.9-0.8,55.3C845.9,810.5,837.6,818.1,806.6,824.4z"/>
</g>
</svg>
