<?xml version="1.0" encoding="utf-8"?>
<!-- Generator: Adobe Illustrator 24.0.1, SVG Export Plug-In . SVG Version: 6.00 Build 0)  -->
<svg version="1.1" id="Layer_1" xmlns="http://www.w3.org/2000/svg" xmlns:xlink="http://www.w3.org/1999/xlink" x="0px" y="0px"
	 viewBox="0 0 500 500" style="enable-background:new 0 0 500 500;" xml:space="preserve">
<style type="text/css">
	.st0{clip-path:url(#SVGID_2_);}
	.st1{clip-path:url(#SVGID_4_);}
</style>
<g id="Arrow_3">
	<g id="Arrow_6">
	</g>
</g>
<g id="Arrow_26">
</g>
<g>
	<g>
		<defs>
			<rect id="SVGID_1_" x="0" width="500" height="500"/>
		</defs>
		<clipPath id="SVGID_2_">
			<use xlink:href="#SVGID_1_"  style="overflow:visible;"/>
		</clipPath>
		<g class="st0">
			<defs>
				<rect id="SVGID_3_" x="0" width="500" height="500"/>
			</defs>
			<clipPath id="SVGID_4_">
				<use xlink:href="#SVGID_3_"  style="overflow:visible;"/>
			</clipPath>
			<path class="st1" d="M331.7,222.8c0,0.8,0.1,1.5,0,2.3c-0.2,2.1-0.1,4.5-2.7,5.1c-2.6,0.5-4.2-1.4-5.1-3.3c-0.8-1.7-1-3.7-1-5.6
				c0-4.5,0.3-9.1,0.3-13.6c0-32.4,0-64.8,0.1-97.2c0-3.4-0.5-6.6-2.9-9.4c-3.2-3.8-7-6.2-12.1-6.2c-14.9,0-29.7,0-44.5,0
				c-46.6,0-93.3,0-139.9-0.1c-5,0-9.6,0.8-13.3,4.3c-3.4,3.3-4.9,7.4-4.9,12.1c0,12.7,0,25.5,0,38.2c0,12.2,0,24.5,0.1,36.7
				c0.1,21.1,0.4,42.2,0.3,63.2c-0.1,46.5-0.2,92.9-0.4,139.4c0,5.3,1.8,9.6,5.6,13.3c3,2.9,6.7,3.1,10.3,3.1
				c15.4,0.1,30.9,0.1,46.3,0.1c32.2,0.1,64.4,0.3,96.6,0.4c10.8,0,21.6-0.2,32.4-0.4c4.4-0.1,8.9-0.1,13.3-0.5
				c6.4-0.6,10.1-4.8,11.6-10.7c0.9-3.4,0.6-7,0.9-10.5c0.2-2.2,0.7-4.3,3.4-4.5c2.4-0.2,4.9,1.7,5,4.4c0.1,5,0.4,10.1-0.8,14.8
				c-1.1,4.3-4.4,7.8-8.2,10.6c-4.6,3.5-10,5.1-15.6,5.3c-10.4,0.4-20.9,0.2-31.3,0.2c-3.8,0-7.6,0-11.4,0c-47.4,0-94.8,0-142.2-0.1
				c-8.4,0-15.8-2.8-20.4-10.5c-2.7-4.5-4.3-9.4-4.2-14.9c0.1-46.6,0.1-93.1,0.1-139.7h-0.1c0-46.1,0.1-92.1-0.1-138.2
				c0-5.9,1.6-11.1,4.8-15.6c4.3-6.2,10.6-9.1,18.3-9.1c14.2,0,28.3,0,42.5,0c20.1,0,40.2,0,60.2,0c26.6-0.1,53.1-0.3,79.7-0.4
				c4,0,8.1,0.3,12.1,1.1c5.5,1.1,9.5,4.8,13,9c3.5,4.2,4.6,9,4.6,14.3c-0.1,20.4-0.1,40.8-0.2,61.2c-0.1,13.4-0.3,26.8-0.3,40.2
				C331.3,215.4,331.6,219.1,331.7,222.8"/>
			<path class="st1" d="M402.3,388.3c-2-3.8-3.9-7.7-6.5-11c-3.2-4-7.1-7.4-10.8-11c-10.1-9.9-20.2-19.9-30.3-29.7
				c-1.5-1.5-2.1-3-1.4-5c0.4-1,0.8-2,1.2-3.1c4-9.1,6.4-18.6,6.1-29.8c0.5-5.1-0.9-11.2-2.4-17.3c-1.7-7.1-4.6-13.6-8.3-19.6
				c-4.1-6.8-9.2-12.9-15.5-17.8c-6.2-4.8-13-8.9-20.4-11.5c-7.2-2.5-14.7-4.8-22.4-4.5c-6.7,0.3-13.6,0.1-20.1,1.7
				c-8.9,2.2-17.1,6.3-24.7,11.6c-11.3,7.9-19.3,18.4-24.5,30.8c-3.2,7.6-4.8,15.9-5,24.3c-0.2,10.9,1.8,21.3,6.7,31
				c2.8,5.4,5.4,11.1,9.1,15.9c5.9,7.7,13.1,14.1,21.8,18.9c7.4,4.1,15.2,6.9,23.4,8.5c12.1,2.3,24.2,0.7,35.8-3.6
				c3-1.1,5.9-2.4,8.6-4.1c1.8-1.2,3-1.1,4.4,0.4c2.7,2.9,5.4,5.8,8.2,8.6c7.1,7.4,14.1,14.9,21.3,22.3c4.8,4.9,9.8,9.7,14.9,14.4
				c1.4,1.3,3.2,2.3,5,2.8c11.4,2.9,21.3-3.4,25.4-13.4C403.1,394.9,404,391.6,402.3,388.3 M288.7,362.3c-36,0-61.8-27.7-62.4-63.5
				c-0.6-34.7,26.9-62.2,61.8-62.3c35.7-0.1,64,27.5,63.9,63.5C351.3,336.7,325.3,362.3,288.7,362.3 M382.1,403.4
				c-2.6-0.4-5.5-2-7.4-3.9c-12.3-12.3-24.4-24.9-36.5-37.4c-0.1-0.1-0.1-0.1-0.2-0.2c-4-4.6-3.9-4.6,0.4-8.8
				c2.4-2.4,4.6-4.9,6.9-7.4c2.6-2.9,3.5-3,6.2-0.5c7.3,7,14.6,14,21.8,21.1c5.2,5.2,10.3,10.4,15.3,15.8c2,2.1,3.6,4.7,5.1,7.2
				c0.5,0.9,0.4,2.1,0.6,3.2C394,398.1,387.7,404.2,382.1,403.4"/>
			<path class="st1" d="M196.4,373.8c-2.1-3.2-4.2-6.3-6.6-9.2c-2-2.5-2.1-3.2-0.5-6c1.8-3.2,3.8-6.4,5.1-9.8
				c0.7-1.9,0.9-4.5,0.2-6.4c-1.5-4.3-3.2-8.6-5.5-12.4c-5.6-9-13.4-14.4-26-14.7c-1.8,0.4-5.5,0.5-8.4,2
				c-10.8,5.6-17.8,14.3-18.1,27c-0.1,4.1-0.2,8.4,2.5,11.9c1.7,2.2,2.2,4.7,1.9,7.4c-0.5,4,1.1,5.6,5.1,4.5
				c3.8-1.1,6.6-0.2,9.2,2.7c2,2.3,4.4,4,7.9,3.8c3.2-0.1,6-1.1,8.8-2.6c5.1-2.9,9.7-2.9,14,2.6c1.4,1.8,3.1,3.5,5,4.8
				c1.6,1.1,3.6,1,5.1-0.5C197.6,377.4,197.5,375.5,196.4,373.8 M174,360.5c-1.3,0.5-2.5,1.4-3.8,2c-4.2,1.9-8.3,2-12.3-0.7
				c-2.2-1.5-4.5-2.8-6.7-4.4c-4.1-3.1-6.9-9-6.4-13.7c0.9-7.3,3.8-13.1,10.6-16.9c3.1-1.8,6-3,9.7-2.9c7.5,0.2,12.9,3.6,16.7,9.9
				c1.2,1.9,2.4,3.9,2.9,6.1C187,348.6,182.3,357.3,174,360.5"/>
			<path class="st1" d="M292.8,194.1c0.1,2.2-0.7,3.9-2.7,4.7c-1.3,0.5-2.8,0.7-4.2,0.7c-12.3,0-24.6,0-36.9,0
				c-35.7-0.1-71.3-0.3-107-0.5c-1.4,0-2.9-0.1-4.3-0.4c-2.4-0.6-4.1-2.8-3.8-5c0.5-2.5,2.4-3.1,4.5-3.1c8.5,0,17,0,25.6,0h41.7
				v-0.1c21,0,42,0,63,0c5.5,0,11-0.3,16.4-0.4c1.5,0,3,0.2,4.5,0.6C291.4,191,292.7,192.1,292.8,194.1"/>
			<path class="st1" d="M292.7,165.3c-0.2,2.1-1.3,3.5-3.5,3.8c-1.1,0.1-2.2,0.1-3.3,0.1c-35.1,0-70.2,0-105.3,0.1
				c-12.6,0-25.1,0.2-37.7,0.3c-1.8,0-3.7-0.2-5.5-0.4c-2.3-0.3-3.6-1.9-3.5-4.2c0.1-2.3,1.3-3.6,3.6-3.8c0.9-0.1,1.8-0.1,2.8-0.1
				c20.6,0,41.2,0,61.7,0V161c20.3,0,40.7,0,61,0c7.5,0,15-0.3,22.5-0.3c1.4,0,2.9,0.1,4.2,0.5C291.8,161.7,293,163.1,292.7,165.3"
				/>
			<path class="st1" d="M293,134.9c0,2-0.9,3.5-2.9,4c-1.4,0.3-2.8,0.5-4.2,0.5c-10,0.1-20.1,0-30.1,0.1
				c-23.4,0.1-46.9,0.3-70.3,0.4c-0.7,0-1.4,0-2,0c-2.9-0.2-4.5-1.6-4.5-3.8c0.1-2.7,2-4.8,4.8-4.8c4.8-0.1,9.6,0,14.4,0h28.1v0
				c13.1,0,26.1,0.1,39.2,0c6.8,0,13.7-0.3,20.5-0.4c1.3,0,2.7,0.1,4,0.4C292,131.5,293,132.9,293,134.9"/>
			<path class="st1" d="M232.6,223.4c-0.1,2.8-1.2,4-4.3,4c-14.9,0-29.9,0-44.8,0v-0.1c-14.3,0-28.5,0-42.8,0c-1,0-2,0-3-0.1
				c-2.2-0.3-3.6-1.4-3.7-3.7c0-2.4,1.6-4.4,3.8-4.6c1-0.1,2-0.1,3-0.1c28.2,0,56.3,0,84.5,0c1,0,2,0,3,0.1
				C231.3,219,232.6,220.5,232.6,223.4"/>
			<path class="st1" d="M334.4,280.8c-1.7-3.2-2.8-6.7-4.9-9.6c-5-7.2-11.4-13-19.5-16.7c-6.6-3-13.3-5.1-20.4-5.4
				c-1.8,0.1-3.4,0.1-5,0.4c-6.3,1.2-12.4,2.7-18.3,5.6c-5.1,2.5-9.8,5.4-13.4,9.6c-5.9,6.8-10.1,14.5-12.1,23.5
				c-2.9,12.6-0.1,24.2,5.5,35.2c4,7.9,10.1,14.4,18,19.1c9.5,5.7,19.7,8,30.7,6.9c8.7-0.9,16.5-4.1,23.2-9.5
				c7.7-6.2,13.6-13.8,17.2-23.3c2.3-6,2.7-12.1,2.6-18.4C338,292.1,337.2,286.2,334.4,280.8 M318.4,328.3
				c-9,9.3-20.1,13.8-33.3,12.2c-11-1.4-20.1-6.2-27.1-14.9c-7.7-9.6-10.3-20.6-9-32.7c1.3-12.1,7.5-21.5,17.6-28.1
				c3.1-2.1,6.9-3.4,10.6-4.6c7.5-2.4,15-2.4,22.6-0.2c9,2.5,16.8,7.1,22.1,15c4.9,7.4,8.1,15.7,7.4,24.4
				C329.8,310.9,325.8,320.5,318.4,328.3"/>
		</g>
	</g>
</g>
</svg>
