<?xml version="1.0" encoding="utf-8"?>
<!-- Generator: Adobe Illustrator 24.0.1, SVG Export Plug-In . SVG Version: 6.00 Build 0)  -->
<svg version="1.1" id="Layer_1" xmlns="http://www.w3.org/2000/svg" xmlns:xlink="http://www.w3.org/1999/xlink" x="0px" y="0px"
	 viewBox="0 0 500 500" style="enable-background:new 0 0 500 500;" xml:space="preserve">
<g>
	<path d="M460.5,424.8c-1.9-10.1-4.1-20.2-6.1-30.4c-0.5-2.6-0.8-5.3-1.4-7.9c-1.9-8.4-4.3-16.7-5.8-25.1c-2.5-14.6-1-29.2,0.3-43.8
		c1.2-13.6,3.1-27.2,4-40.8c0.8-11.5-1.6-22.8-3.7-34.2c-3.3-17.1-5.5-34.4-8.2-51.6c-0.8-4.9-1-10-2.3-14.7
		c-1.3-4.7-3.3-9.4-5.8-13.6c-2.6-4.5-5.7-8.8-9.3-12.5c-3.1-3.2-7.1-5.6-8.2-10.3c-0.4-1.6-0.6-3.7,0.1-5c1.9-3.7,4.8-6.9,6.5-10.7
		c2.4-5.3,4.8-10.8,6.1-16.5c1.1-5.1,0.8-10.5,0.8-15.7c-0.1-3.3-0.3-6.8-1.4-9.9c-2.4-6.5-6.3-12.2-11.5-17
		c-4.3-3.9-9.2-7-14.6-8.1c-6-1.2-12.5-1.3-18.6-0.5c-7,0.9-13.8,3.1-20.6,4.9c-6.6,1.8-12.6,1.4-17.8-3.8c-2.5-2.5-6-1.8-7.2,1.5
		c-0.8,2.2-0.9,4.8-0.8,7.2c0.1,3,1.1,5.9,0.9,8.8c-0.4,8.8,4.8,13.8,11.6,17.6c3.9,2.2,4.6,3.7,4.5,8.2c-0.3,8.9-1.1,17.8,2.8,26.5
		c3,6.5,7,11.8,12.7,15.8c2.6,1.8,5.6,3.3,8.4,4.8c2.8,1.6,3.1,3,1.1,5.4c-1.5,1.8-3.4,3.5-4.4,5.6c-1.9,4-4.4,8.2-4.7,12.4
		c-0.6,11.9-0.3,23.9-0.2,35.9c0,3.4-1,5.5-3.8,6.3c-6.6,1.9-13.3,3.6-19.9,5.3c-2.6,0.7-4.2-0.8-4.3-3.5
		c-0.2-8.7-0.5-17.4-0.7-26.1c-0.1-5.1-1.3-6.3-6.3-6.3c-55.1,0-110.2,0-165.3,0c-4.5,0-6.9,2-7.1,6.5c-0.3,8-0.2,16.1,0,24.1
		c0.1,4-1.1,5.3-5,4.2c-4.9-1.3-9.8-2.6-14.6-4c-1.6-0.5-3.3-1.1-4.8-1.9c-2-1-2.6-2.7-2.6-5c0.2-14.1,2.6-28.4-3.1-42
		c-1.6-3.8-3.8-7.4-6.3-10.7c-2.2-2.9-2.1-5.4,1.4-6.4c3.3-1,6-2.6,8.8-4.5c5.5-3.9,9.1-9.3,11.1-15.3c2.9-8.9,5.3-18.1,2.1-27.6
		c-0.3-1,0.4-2.8,1.3-3.6c1.7-1.7,3.9-2.8,5.6-4.4c3.6-3.3,7.3-6.7,8-11.9c0.8-5.1,1.7-10.2,1.8-15.3c0.1-2-1.3-4.3-2.7-6
		c-2.1-2.7-3.4-2.7-5.9-0.3c-5.8,5.4-12.6,5.6-19.6,3.7c-5.5-1.5-10.8-3.7-16.3-5.5c-0.8-0.3-1.7-0.4-2.5-0.4
		c-7.1,0.1-14-0.5-21.1,2.6c-7.6,3.4-13.1,8.6-17.2,15.3c-3.9,6.2-5.5,13.2-5.2,20.5c0.3,8.4-0.1,16.9,4,24.7
		c2.4,4.6,4.4,9.4,7.1,13.9c2.7,4.6,1.9,11.1-2.4,14.3c-1.3,1-2.6,1.9-3.8,3c-8.3,7.1-12.1,16.9-14.8,26.9
		c-2.2,8.1-3.3,16.5-4.7,24.8c-2.8,16.6-5.4,33.2-8.1,49.8c-0.4,2.3-0.8,4.5-1.4,6.7c-1.5,5.7-2.1,11.5-1.4,17.4
		c0.8,6.8,1.8,13.7,2.5,20.5c1.2,12.5,2.4,25,3.2,37.5c0.4,7.2,0.5,14.6-0.5,21.7c-1.4,10.1-3.9,20.1-6,30.1
		c-1,4.9-2.4,9.6-3.4,14.5c-0.9,4.6-1.7,9.2-2.4,13.9c-0.7,5-1.4,10-1.8,15.1c-0.3,4.6,2.5,8.1,6.2,9.5c5.3,1.9,11.1,3.2,16.7,3.4
		C67.6,443,73,441,75,435.2c3.1-8.8,5.8-17.8,8.4-26.8c1.9-6.6,3.5-13.3,5.2-19.9c0.1-0.4,0.3-0.7,0.4-1.1c0.9-3,1.8-6,2.6-9
		c0.8-3.1,1.5-6.3,2.1-9.5c0.5-2.1,1-4.3,1.3-6.5c0.8-6.3,1.5-12.5,2.4-18.8c0.1-0.8,0.7-1.6,1.1-2.4c0.7,0.7,1.8,1.2,2,2
		c1.5,4.5,3.1,9.1,4,13.7c2.5,12.9,4.1,25.8,4.6,39c0.4,12,2,24,3.6,36c0.8,5.9,4.6,10.2,10.4,11.3c4.9,0.9,10.4,1.3,15.1,0
		c7.2-2,11.3-5,11.1-13.3c-0.5-18.6-0.1-37.2-0.3-55.8c-0.1-7.5-0.4-14.9-2.6-22.2c-2-6.6-3.4-13.5-5.2-20.2
		c-1.6-5.8-3.5-11.5-5.2-17.3c-2.2-7.4-4.2-14.9-6.3-22.3c-0.5-1.9-0.9-3.9-1.7-5.7c-1.7-3.8-2.5-7.6-1.3-11.7
		c0.9-3,1.8-6.1,2.2-9.2c0.5-3.9,0.5-7.8,0.8-11.7c0.1-1.9,0.2-4,3.2-3.5c8.6,1.5,17.1,3.1,25.7,4.5c2.5,0.4,3.3,1.6,3.3,4
		c-0.1,20.5,0,41,0,61.5c0,1.1,0,2.3,0.2,3.4c0.6,4.9,1.9,6,6.9,6c53.4,0,106.8,0,160.2,0.1c8.6,0,9.9-1.3,9.9-9.7
		c-0.1-20.1-0.1-40.2-0.1-60.4c0-3.8,0.4-4.2,4.1-4.8c2.5-0.4,4.9-0.7,7.4-1.2c5.1-1,10.1-2.2,15.2-3.1c4-0.7,4.7-0.1,5.3,3.9
		c1,6.2,2.1,12.5,3,18.7c0.4,2.5,1,5.2,0.5,7.7c-1.2,6-2.6,12-4.4,17.8c-3,9.3-6.5,18.3-9.4,27.6c-2.2,7-3.7,14.2-5.5,21.3
		c-0.3,1.2-0.6,2.4-0.8,3.7c-0.7,4.8-1.9,9.6-2,14.4c-0.2,16.2-0.1,32.4-0.1,48.6c0,5.8-0.1,11.5-0.1,17.3c0,4,2.1,7,5.4,8.9
		c4.1,2.4,8.8,3.4,13.6,3.1c10-0.6,15.3-5.1,17-12.7c1.8-7.9,2.5-16.1,3.2-24.2c0.7-9.3,0.4-18.8,1.4-28.1c0.9-8.7,2.8-17.4,4.5-26
		c0.7-3.5,2-7,3.1-10.4c0.2-0.8,0.7-1.5,1-2.3c0.4,0,0.8,0,1.2,0c0.3,1.8,0.8,3.6,1,5.3c0.3,2.3,0.1,4.6,0.5,6.9
		c1.7,9.1,3.7,18.2,5.5,27.2c0.5,2.5,0.8,5.1,1.5,7.6c1.8,6.1,4,12.1,5.8,18.3c2.9,9.6,5.7,19.2,8.4,28.9c1.1,4,3.6,6.1,7.4,7.2
		c6,1.9,11.7,0.9,17.5-0.7C456.8,438.8,461.8,431.9,460.5,424.8z M350.7,81.5c-1.4-0.9-2.8-2.1-3.7-3.6c-0.7-1.2-1-2.9-0.7-4.2
		c0.1-0.5,2.3-1,3.5-0.8c5.7,0.7,11.2,0,16.7-1.7c6.4-2,13-4.2,19.7-5c9.9-1.1,18.9,1.9,25.1,10.1c4.2,5.6,5.7,12.2,5.7,21.8
		c-0.8,3.9-2,10.3-3.3,16.8c-0.1,0.6-0.8,1.1-1.3,1.7c-0.6-0.5-1.5-0.9-1.8-1.6c-1-2.6-1.7-5.3-2.8-7.8c-2.6-5.6-4.9-11.5-8.2-16.6
		c-4.4-6.7-11.6-6.4-18.7-5.7c-6.1,0.6-12.2,1.1-18.3,1.6C357.8,86.9,354.4,83.7,350.7,81.5z M404.7,145.2c-1.4,1.8-3.3,1.3-5.2,0.4
		c0.8-2.4,2.4-3,4.4-2.6C404.4,143.1,405,144.9,404.7,145.2z M364.8,126c-3.1-6-2.4-12.3-2.8-17.6c0-3.2,0.1-5.5,0-7.8
		c-0.1-2.5,0.6-3.8,3.3-3.9c4.6-0.1,9.2-0.2,13.8-0.4c2.3-0.1,4.6-0.2,6.9-0.5c4.6-0.5,6.9,1,8.5,5.3c2.7,7.3,5.5,14.6,8.2,22
		c1.5,4.1,0.3,7.3-3.3,9.6c-6.1,4-12.7,6.5-20.1,4.4C373.1,135.3,367.9,132.1,364.8,126z M238.9,197.8c0.1-3.3,0.5-3.7,3.9-3.8
		c2.5,0,5,0,7.5,0c0,0.1,0,0.1,0,0.2c3.4-0.2,6.9-0.3,10.3-0.5c2.5-0.1,3.7,0.9,3.7,3.5c0,6.1,0.3,12.2,0.4,18.3
		c0,2.3-1.2,3.6-3.4,3c-6.6-1.7-13.1-0.9-19.7-0.1c-2.3,0.3-3.1-0.9-3.1-3C238.6,209.6,238.7,203.7,238.9,197.8z M135.6,123.9
		c-1.9,6.8-8.1,15.1-18.5,13.7c-5.8,0.2-11.6-0.7-16.7-4c-4.7-3-6.1-5.8-3.1-10.5c2.5-3.9,3.9-8.6,5.8-13c1.5-3.4,2.9-6.8,4.6-10.1
		c1.2-2.4,3.6-3.1,6.1-3c6,0.1,12,0.4,18.1,0.4c2.5,0,3.9,0.9,4.3,3.5C137.3,108.6,137.7,116.4,135.6,123.9z M110.1,148.4
		c-4.9,0.6-8.7-0.8-12.4-2.5c-0.3-0.1-0.4-0.8-0.4-1.2c0-0.2,0.5-0.5,0.9-0.6c0.3-0.1,0.6,0,0.8,0
		C102.5,145.4,105.8,146.7,110.1,148.4z M84.6,88c1.6-6.8,4.6-13.4,11.2-17.1c4.5-2.5,9.3-4.5,14.7-4c0.1-0.3,0.1-0.5,0.2-0.8
		c6.3,1.8,12.7,3.3,18.9,5.4c6,2.1,11.9,3.3,18.2,2.3c1.3-0.2,2.8,0.5,4.2,0.7c-0.3,1.3-0.2,2.8-0.9,3.9c-3.6,6-8.4,9.5-16,8.8
		c-8.3-0.7-16.6-0.7-25-0.8c-6.3-0.1-10.9,3.7-12.9,9.7c-2.2,6.7-4.7,13.2-7.2,19.8c-0.2,0.6-1.1,1.5-1.5,1.4
		c-0.7-0.2-1.5-0.9-1.7-1.6C83.5,106.8,82.4,97.4,84.6,88z M132.7,340.5c5.1,15.3,5.3,31,5,46.9c0,1.9,0,3.8,0,5.8
		c-0.2,0-0.3,0-0.5,0c0.5,11.5,1.1,22.9,1.4,34.4c0,1.2-0.7,2.9-1.6,3.7c-2.9,2.6-6.6,2.6-10,1.6c-2.5-0.7-4.3-2.7-4.5-5.7
		c-1-12.7-2.2-25.4-3.2-38.1c-0.6-7.3-0.4-14.8-1.8-22c-1.9-9.8-4.9-19.4-7.7-29c-2.1-7-4.7-13.9-7.2-20.7c-2.2-6-4.6-11.9-7.1-17.8
		c-1.1-2.6-3.6-3.2-5.9-1.6c-3.3,2.2-3.6,5.6-3.4,9c0.9,17.2,1.1,34.3-1.5,51.3c-1.3,8.5-2.3,17.2-5.6,25.4
		c-2.2,5.5-3.1,11.4-4.8,17c-2.1,7.2-4.4,14.4-6.6,21.7c-0.5,1.6-1,3.1-1.2,4.7c-0.3,2.5-1.6,3.9-4,4.1c-2.1,0.2-4.2,0.4-6.3,0.1
		c-5.9-0.9-7.1-2.7-5.9-8.6c2.4-12.3,4.8-24.6,7.4-36.8c1.6-7.9,4-15.6,5.2-23.5c1.1-6.9,1.7-13.9,1.3-20.8
		c-1.1-17.8-2.8-35.5-4.3-53.2c-0.2-2.6-0.8-5.1-1-7.7c-0.3-2.7,1-4,3.4-3.7c8.9,1.1,17.8,2.4,26.8,3.3c6.9,0.8,13.9,1.3,20.9,1.7
		c4.4,0.3,5.4,0.9,6.7,5.2c2.8,9.6,5.7,19.2,8.5,28.8C127.7,324.1,129.9,332.4,132.7,340.5z M142.7,240.6
		c-5.1-0.9-10.2-1.8-15.1-3.5c-7-2.5-14.6-4.3-19.2-11.1c-1.6-2.4-3.3-4.8-4.7-7.4c-3.2-6.1-6.2-12.3-9.2-18.4
		c-2-4.2-3.9-8.5-6-12.7c-1.8-3.7-4.3-4.6-7.1-2.9c-2.9,1.7-3.9,5.6-2.3,8.5c3.6,6.7,6.9,13.6,10.7,20.2c4.9,8.3,8.7,17.3,15.5,24.3
		c2.4,2.4,5.6,4.2,8.5,6.1c1.6,1.1,3.5,1.6,5,2.8c0.9,0.7,1.6,2.3,1.4,3.4c-1.1,6.5-2.6,12.9-3.9,19.4c-0.5,2.1-2,2.6-3.9,2.4
		c-5.4-0.5-10.8-1.2-16.3-1.7c-9.2-1-18.5-1.8-27.7-3c-2.7-0.3-5.6-1.1-7.8-2.6c-2.8-2-0.2-5-0.1-7.5c0.1-3.1,1-6.2,1.5-9.3
		c1-6,1.8-12.1,2.9-18.1c2-11.1,4.1-22.1,6.3-33.2c1.5-7.5,2.9-15,4.8-22.4c2-7.7,6.2-13.9,13.4-17.7c1.6-0.8,3.9-0.5,5.8-0.2
		c2.9,0.5,5.8,1.8,8.7,1.9c6.8,0.2,11.7,3.6,15.1,8.9c1.9,3,2.6,6.9,3.3,10.6c0.8,3.7,1,7.6,1.3,11.4c0.1,0.9-0.2,1.9-0.4,2.9
		c-0.3,0.1-0.6,0.1-0.9,0.2c-1.4-2.7-2.8-5.3-4.1-8c-2.1-4.3-4.1-8.8-6.4-13.1c-1.7-3-3.9-3.7-6.1-2.5c-2.4,1.3-4.1,5.4-3,7.7
		c2.5,4.8,5.3,9.5,7.7,14.3c2.3,4.5,4.2,9.1,6.4,13.7c2,4.4,3.2,9.6,6.3,12.9c3.2,3.3,8.3,5.3,12.9,6.9c7.8,2.7,15.9,4.6,23.9,6.8
		c0.9,0.3,1.8,0.6,2.8,0.8c6.3,1.5,12.7,2.8,18.8,4.7c2.4,0.8,4.6,3,6.4,5c1.7,1.9-0.9,5.7-4.2,6.3c-1.2,0.2-2.5,0.1-3.7-0.1
		C167.7,245.2,155.2,243,142.7,240.6z M328.1,312.3c0,6.6,0.2,6.5-6.4,6.5c-16.1,0-32.2,0-48.3,0v-0.1c-15.8,0-31.6,0-47.4,0
		c-16.4,0-32.7,0-49.1,0c-4.4,0-4.6-0.5-4.4-4.8c0.2-7.2,0.2-14.4,0.1-21.6c-0.1-9-0.3-18-0.4-27c-0.1-7.1,0-7.1,7-6.9
		c1.6,0,3.3,0,4.9,0.1c5.6,0.4,9.1-2.7,12.1-6.8c1.7-2.5,3.2-5,3.3-8.3c0.2-6.5-2.9-10.9-7.9-14.3c-5.3-3.7-11.4-5.6-17.7-6.9
		c-3.3-0.7-3.8-1.6-3.6-4.9c0.2-5.6,0.3-11.3,0.1-16.9c-0.2-5,1.2-6.4,6.3-6c5.6,0.4,11.3,0.2,16.9,0.1c8.4-0.1,16.9-0.3,25.3-0.5
		c2.1,0,4.2-0.1,6.3-0.3c2.3-0.3,3.6,0.6,3.5,2.9c-0.1,8.9-0.3,17.8-0.4,26.7c0,2.2-0.3,4.4,0.1,6.6c0.5,3.3,2.5,4.4,5.6,3.4
		c3.3-1,6.5-2.3,9.8-3.4c5.9-1.9,11.7-2.5,17.5,0.5c2.2,1.1,4.5,2.1,6.8,3.1c4.1,1.8,8.4-1.2,8.3-5.7c-0.2-9.6-0.4-19.1-0.5-28.7
		c-0.1-4.6,1-5.2,5.4-5c4.7,0.3,9.4,0,14-0.1c10-0.1,19.9-0.1,29.9-0.2c2.4,0,3.5,0.9,3.6,3.3c0.1,7.5,0.3,14.9,0.2,22.4
		c0,1-1.4,2.6-2.4,3c-4.6,1.4-9.3,2.2-13.9,3.6c-9.1,2.6-16.3,9.8-14,20.4c0.6,2.9,3,5.7,5.2,7.9c5,5.1,11.6,4.8,18.1,4.3
		c1.1-0.1,2.3-0.3,3.4-0.5c2.5-0.3,3.4,0.6,3.4,3.2C328.4,278.5,328.2,295.4,328.1,312.3z M336.6,245.5c-6.2,1.3-12.4,2.1-18.7,3
		c-4.8,0.7-7.2-0.4-7.9-4c-0.3-1.4,0.1-3.6,1.1-4.3c2.2-1.8,4.7-3.4,7.3-4.1c8.7-2.5,17.6-4.5,26.4-6.7c1-0.3,2-0.5,3.1-0.8
		c7.1-1.7,14.2-3.2,21.1-5.2c5.8-1.7,9.2-6.1,11.4-11.6c1.8-4.5,3.8-8.9,5.8-13.3c1.4-3,3-6,4.5-8.9c1.8-3.4,3.7-6.8,5.6-10.3
		c1.6-3,1.5-5.9-0.1-8.8c-1.5-2.8-3.8-3.1-6-0.9c-0.9,0.9-1.7,1.9-2.2,3c-2.7,5.6-5.3,11.2-8,16.8c-0.6,1.2-1.3,2.4-1.9,3.6
		c-0.2-0.1-0.4-0.1-0.7-0.2c-0.2-0.7-0.5-1.4-0.4-2.1c0.8-6.9,1.2-14,2.8-20.7c1.7-7.4,7.2-11.3,14.9-12.2c4.5-0.5,8.9-1.3,13.3-2.1
		c2.7-0.5,5.2-0.6,7.1,1.7c2.2,2.8,4.7,5.5,6.3,8.6c5.1,10,6.6,21,8.3,32c1.8,12.6,4.3,25.1,6.1,37.6c1.3,8.6,2.1,17.3,4.7,25.7
		c0.7,2.3-0.4,3.6-2.8,3.9c-10.3,1.3-20.7,2.7-31,3.9c-6.1,0.8-12.2,1.3-18.3,2.1c-2.3,0.3-3.4-0.4-3.9-2.6
		c-1.2-5.8-2.3-11.6-3.7-17.4c-0.6-2.5,0-3.9,2.4-5c5.9-2.8,11.3-6.4,15.2-11.9c1.6-2.3,3.2-4.5,4.5-7c3.1-5.8,6-11.7,9-17.5
		c3-5.7,6.1-11.3,9.2-16.8c1.1-1.9,1.8-3.6,0.2-5.6c-1.6-2-3.7-2.6-6.2-1.9c-3,0.8-4.8,2.6-5.9,5.6c-1.4,3.8-3.3,7.5-5.1,11.2
		c-2,4.3-3.9,8.7-6.2,12.9c-3.1,5.6-6,11.5-10.1,16.2c-2.3,2.7-6.7,4.1-10.4,5C363.9,239.8,350.3,242.7,336.6,245.5z M442.9,431
		c-8.5,0.3-7.8-0.2-9.6-5.7c-0.5-1.5-1.2-3-1.7-4.6c-2.4-8.1-5-16.2-7.2-24.4c-2-7.7-3.7-15.4-5.5-23.1c-1-4.4-2.5-8.7-3-13.1
		c-1.2-11-1.9-22.1-2.8-33.2c-0.2-2.8-0.4-5.5-0.6-9.1c0.4-3.8,1.1-8.4,1.3-13c0.1-2-0.2-4.2-1-6.1c-1.4-3.4-4.8-3.5-7-0.5
		c-2.1,3-3.5,6.2-4.4,9.8c-1.4,5.6-3.8,11-5.7,16.5c-1.8,5-3.5,10.1-5.1,15.2c-1.9,5.8-3.8,11.6-5.4,17.5c-1.1,3.9-2,7.8-2.4,11.7
		c-0.7,8.2-0.7,16.5-1.3,24.7c-0.8,10.7-2.1,21.3-3,32c-0.3,3.4-2.2,5.6-5.3,6.4c-3.6,0.9-7.3,0.6-10.3-2.1
		c-0.7-0.6-0.8-2.1-0.7-3.2c1.7-15.4,2-30.8,1-46.2c-0.8-12,0.9-23.7,3-35.4c1.2-6.4,3.8-12.6,5.8-18.9c1.5-4.9,3-9.9,4.5-14.8
		c1.9-6,4-11.9,6-17.9c0.9-2.7,1.8-5.5,2.3-8.2c0.4-2.1,1.3-3.3,3.5-3.4c3.7-0.1,7.5-0.2,11.2-0.5c3.5-0.2,7-0.6,10.6-1.1
		c7.8-0.9,15.6-1.9,23.3-2.9c0.9-0.1,1.9-0.2,2.8-0.4c3.4-0.9,4.7,0,4.4,3.5c-0.6,6.9-1.5,13.9-2.1,20.8c-0.8,9-1.6,17.9-2.3,26.9
		c-0.4,5.1-1.2,10.1-1,15.2c0.2,7,0.7,14,1.9,20.9c1.6,8.9,3.9,17.7,6,26.6c0,0.2,0.1,0.4,0.2,0.5c2.1,10.7,4.3,21.4,6.1,32.1
		C450.3,429.2,448.7,430.8,442.9,431z"/>
	<path d="M329.1,118.4c-14.5,12.9-29.1,25.7-43.7,38.5c-2.1,1.9-4.8,2.6-7.5,1.7c-2.6-0.9-2.9-3.4-2.9-5.8c0-3.3,0.1-6.7,0.2-10
		c0.1-5.3-0.5-5.8-5.7-5.8c-8.7,0-17.4-0.4-26.1-0.4c-16-0.1-32,0-48,0c-1.4,0-2.9-0.1-4.3-0.3c-2.1-0.4-3.9-1.5-4.2-3.8
		c-0.3-2.4,0.9-4.4,3.1-5.3c1.7-0.7,3.7-1,5.6-1c16.2,0.1,32.4,0.4,48.6,0.4c11.2,0,22.4-0.3,33.6-0.4c5.2,0,6.3,0.8,6.7,6
		c0.3,2.9-0.1,5.9,0,8.9c0,0.9,0.6,1.7,0.9,2.6c0.8-0.3,1.8-0.5,2.5-1.1c8-7.4,16-14.8,24-22.2c1.7-1.6,3.5-3,5.1-4.6
		c2.3-2.3,2.2-3.6-0.2-5.7c-5.1-4.6-10.3-9.1-15.5-13.7c-3.5-3.1-7-6.3-10.5-9.4c-0.8-0.7-1.6-1.4-2.5-2c-2.4-1.6-3.8-1-3.9,1.9
		c-0.1,2.8-0.1,5.6,0.2,8.3c0.4,4.7-1.4,6.8-6.1,6.8c-7.1,0.1-14.2,0-21.3,0v0.5c-20.2,0-40.4,0-60.6,0c-2.2,0-4.4-0.3-6.6-0.6
		c-2.2-0.3-3.6-1.7-3.8-4c-0.2-2.4,0.9-4.1,3.2-4.9c1.1-0.4,2.2-0.7,3.4-0.7c18-0.2,36-0.4,54-0.6c8.2-0.1,16.5-0.1,24.7,0
		c2.6,0,3.8-1.2,3.7-3.7c0-4-0.2-8-0.3-12c0-1.1-0.4-2.2,0-3.1c0.8-1.8,1.5-4.1,3-5.1c2.2-1.4,4.9-0.8,6.9,1
		c10.6,9.4,21.2,18.8,31.8,28.2c4.1,3.6,8.1,7.3,12.3,10.8C332.9,111.3,333.2,114.8,329.1,118.4z"/>
	<path d="M308.2,401.4c-0.9,2.8-3.2,3.6-5.9,3.7c-5.7,0-11.3,0.1-17,0.1c-7.5,0-14.9,0-22.4,0v-0.1c-12.6,0-25.1,0-37.7,0
		c-5.4,0-5.8,0.6-5.5,6c0.2,3.9,0.2,7.9-0.3,11.7c-0.7,4.8-4,6.2-7.9,3.5c-4.7-3.4-9.1-7.3-13.5-11.1c-9.7-8.5-19.4-17.1-29-25.7
		c-1.8-1.7-3.5-3.5-5.1-5.5c-1.9-2.4-1.4-5.3,0.6-7.2c7.8-7,15.5-14.2,23.5-21.1c6.6-5.8,13.5-11.3,20.4-16.7c1.7-1.3,4-1.9,6.1-2.5
		c2.6-0.7,4.3,1,4.7,3.2c0.7,4.6,1.1,9.3,1,13.9c-0.1,5.1,1.3,6.7,6.3,6.2c2.4-0.2,4.8,0,7.1,0c14.5,0,29,0.1,43.4,0
		c8.3,0,16.7-0.4,25-0.5c3.8-0.1,6.2,2,6.3,5.1c0.1,3.5-2.2,5.8-6.1,5.8c-14,0-28,0.1-42,0c-13.9-0.1-27.8-0.4-41.7-0.5
		c-7.1-0.1-9.1-2.3-8.2-9.4c0.2-1.9,0.3-3.8,0.2-5.7c-0.1-0.9-0.7-2.1-1.4-2.4c-0.6-0.3-1.9,0.2-2.5,0.8c-7,6.3-13.9,12.6-20.9,18.9
		c-2.6,2.4-5.5,4.5-8.2,6.7c-2.5,2-2.5,3.8-0.1,5.9c9.7,8.7,19.4,17.3,29.2,25.9c0.7,0.6,2.1,1.3,2.7,1c0.8-0.4,1.6-1.7,1.7-2.7
		c0.2-2.7,0.1-5.4,0.1-8c0.1-3.7,1.9-5.4,5.6-5.4c17.2,0,34.5-0.1,51.7-0.1c11.3,0,22.6-0.1,33.9,0
		C307.4,394.9,309.5,397.4,308.2,401.4z"/>
	<path d="M261.8,305.6c-0.1,2.6-1.4,4.1-4,4.5c-0.7,0.1-1.3,0.1-2,0.1c-12.3,0.2-24.5,0.4-36.8,0.5c-1.2,0-2.5,0-3.7-0.3
		c-2.7-0.6-4.5-2.8-4.4-5.3c0-2.9,1.9-5.1,4.8-5.6c1.6-0.2,3.2-0.2,4.9-0.2c5.5,0,10.9,0,16.4,0v0c6.3,0,12.6-0.1,19,0
		C260.4,299.4,262,301.2,261.8,305.6z"/>
	<path d="M261.4,289.5c-0.1,3.1-1.6,4.5-5.1,4.6c-6.4,0.1-12.8,0-19.3,0v0c-5.8,0-11.7,0-17.5,0c-1.4,0-2.9-0.1-4.3-0.4
		c-3.1-0.6-4.1-2.2-3.9-5.3c0.2-2.8,1.7-4.4,4.6-4.5c5.3-0.2,10.5-0.1,15.8-0.1c8,0,16.1,0,24.1,0.1
		C260,283.9,261.5,285.6,261.4,289.5z"/>
</g>
</svg>
