<?xml version="1.0" encoding="utf-8"?>
<!-- Generator: Adobe Illustrator 24.0.1, SVG Export Plug-In . SVG Version: 6.00 Build 0)  -->
<svg version="1.1" id="Layer_1" xmlns="http://www.w3.org/2000/svg" xmlns:xlink="http://www.w3.org/1999/xlink" x="0px" y="0px"
	 viewBox="0 0 500 500" style="enable-background:new 0 0 500 500;" xml:space="preserve">
<g>
	<path d="M460.8,310.6c-12.4-13.8-24.7-27.7-37.1-41.5c-1-1.1-2.2-2.8-3.4-2.9c-4.9-0.3-8.9-2.6-13.2-4.4
		c-5.2-2.2-10.4-4.4-15.5-6.6c-5.1-2.2-10.1-4.4-15.2-6.5c-4.8-2-9.8-3.7-14.6-5.8c-4.9-2.1-9.7-4.4-14.5-6.6
		c-9.8-4.3-19.7-8.6-29.5-13c-9.3-4.2-18.5-8.5-27.8-12.7c-1.2-0.5-2.9-0.6-4.2-0.2c-3.7,1.3-7.3,2.9-10.8,4.5
		c-4.8,2.2-9.4,4.5-14.2,6.6c-5,2.1-10.1,4-15.1,6c-0.4,0.1-0.7,0.4-1,0.6c-5.9,2.6-11.9,5.2-17.8,7.7c-4.2,1.8-8.4,3.6-12.6,5.3
		c-5.8,2.4-11.6,4.9-17.4,7.2c-5.2,2.1-10.6,3.9-15.8,5.9c-3.6,1.4-7.1,2.8-10.6,4.3c-5.5,2.2-10.7,5.1-16.4,6.6
		c-4.4,1.1-7.4,3.6-10.1,6.6c-12,13.3-23.8,26.7-35.7,40.1c-2.2,2.5-2.6,6.9-0.4,8.6c2.4,1.8,5.2,3,7.9,4.2c1.5,0.7,3.1,0.9,4.6,1.5
		c6.1,2.5,12.2,5.2,18.4,7.6c3,1.2,5.7,4.3,5.7,7.2c-0.1,6.6,0,13.2-0.1,19.8c-0.1,15.3-0.3,30.6-0.4,46c0,3.5,0.5,7.2,3.9,9
		c3.8,2,7.9,3.4,11.9,5c4.9,2,9.9,3.9,14.8,5.8c0.3,0.1,0.5,0.3,0.7,0.4c4.7,2.2,9.4,4.5,14.3,6.6c5.1,2.1,10.3,4,15.4,5.9
		c0.4,0.1,0.7,0.4,1,0.6c4.9,2.3,9.8,4.6,14.8,6.8c3.4,1.5,6.8,2.9,10.2,4.3c5.4,2.2,10.8,4.3,16.2,6.5c6,2.4,11.9,4.9,17.9,7.5
		c4.7,2,9.4,4.2,14.1,6.3c2.2,1,4.5,1.8,6.6,2.7c2.4-0.8,4.5-1.3,6.3-2.1c5.4-2.5,10.8-5.1,16.2-7.6c4.1-1.9,8.3-3.8,12.5-5.7
		c5.1-2.3,10.2-4.7,15.3-7c4.6-2.1,9.3-3.9,13.9-6c4.8-2.2,9.5-4.7,14.4-6.9c4.6-2.1,9.3-4,14-5.9c6.4-2.7,12.8-5.4,19.2-8.1
		c0.6-0.3,1.2-0.6,1.8-0.8c5.9-2.6,11.8-5.4,17.8-7.8c5-2,7.3-4.7,7.3-10.1c0-21.9,0-43.9,0-65.8c0-2.3,0.4-4.6,2.7-5.7
		c4-2,8.1-3.8,12.2-5.5c6.5-2.7,13.2-4.9,19.6-7.7C463.8,319.3,464.4,314.6,460.8,310.6z M139.1,320.5c-4.5-1.9-8.8-4.1-13.2-6.2
		c-2.3-1.1-2.1-2.2-0.6-3.9c9.3-10.1,18.4-20.2,27.7-30.3c1-1.1,2.4-1.7,3.3-2.3c1.2,0.2,1.8,0.2,2.3,0.5c3.8,1.8,7.5,3.7,11.3,5.5
		c0.5,0.3,1,0.6,1.5,0.8c4.8,1.9,9.7,3.5,14.4,5.5c4.9,2.1,9.6,4.6,14.5,6.7c4.7,2.1,9.5,3.9,14.2,5.9c5.7,2.4,11.4,4.9,17.1,7.3
		c1,0.4,2,0.7,2.9,1.1c2.5,1,5.1,2,7.7,3.1c4.8,1.9,9.5,3.9,14.3,5.8c1.5,0.6,3,1.1,4.5,1.8c2.7,1.1,5.4,2.5,8.1,3.5
		c3.8,1.4,4.2,3.6,1.6,6.7c-7,8.2-13.8,16.6-20.7,24.9c-1.5,1.8-2.7,3.8-4.3,5.4c-0.7,0.7-2.3,1.3-3.2,1.1c-3.2-1-6.2-2.5-9.3-3.8
		c-0.5-0.2-0.9-0.7-1.4-0.9c-4.6-1.8-9.2-3.6-13.8-5.5c-5.6-2.3-11.2-4.9-16.8-7.2c-4.5-1.9-9-3.6-13.5-5.5
		c-6-2.5-11.9-5.2-17.8-7.6c-4.6-1.9-9.2-3.6-13.8-5.4C150.4,325.2,144.7,322.9,139.1,320.5z M277,457.6c-0.2-0.1-0.4-0.1-0.5-0.2
		c-4.5-2.1-8.9-4.2-13.4-6.3c-1.3-0.6-2.7-0.9-4-1.5c-5.1-2.3-10.2-4.7-15.3-6.9c-4.7-2.1-9.5-4-14.2-6c-6-2.5-11.9-5-17.9-7.5
		c-3.5-1.5-6.9-3.1-10.4-4.6c-4.8-2-9.8-3.8-14.6-5.8c-5.2-2.2-10.4-4.7-15.6-7c-1-0.4-2-0.7-2.9-1.2c-3.4-1.5-6.9-2.9-10.1-4.7
		c-1-0.6-1.7-2.5-1.7-3.9c-0.1-14.4-0.1-28.7-0.1-43.1c0-2.4,0.1-4.8,0.1-7.2c-0.1-2-0.2-4-0.6-5.9c-0.4-2.4,0.6-3.8,3.2-3.8
		c0.4,0.1,1,0.2,1.6,0.5c5.4,2.5,10.8,5.1,16.3,7.4c5,2.1,10.2,3.8,15.2,5.7c4.4,1.7,8.8,3.6,13.2,5.4c5.9,2.5,11.7,4.9,17.6,7.5
		c5.5,2.4,10.9,4.9,16.5,7.1c2.7,1.1,5.6,2,8.5,2.2c1.5,0.1,3.7-1.1,4.7-2.4c5.9-7.7,11.6-15.6,17.4-23.4c1.8-2.4,3.7-4.7,5.8-6.8
		c0.9-0.9,2.4-1.2,3.6-1.8c0.2,1.1,0.4,2.3,0.5,3.4c0.2,2.8,0.4,5.5,0.4,8.3c0,29.9,0,59.8,0,89.7c0,3.4,0,6.9,0.1,10.3
		C280.2,457.5,279.3,458.2,277,457.6z M288.4,317.8c-2.4,0.7-5.3-0.6-7.9-1.3c-1.5-0.4-2.7-1.3-4.1-1.9c-6.3-2.7-12.6-5.4-18.9-7.9
		c-5-2-10.2-3.8-15.2-5.8c-4.9-1.9-9.7-4-14.5-6c-2.3-0.9-4.6-1.8-6.9-2.8c-5.2-2.3-10.4-4.7-15.6-6.9c-4.7-2-9.5-3.9-14.3-5.9
		c-4.6-1.9-9.2-3.7-13.6-5.8c-2-0.9-1.9-2.9,0.1-4c0.7-0.4,1.4-0.5,2.2-0.8c6.4-2.7,12.8-5.4,19.2-8c4.9-2,9.9-3.9,14.9-5.9
		c5.3-2.2,10.5-4.4,15.8-6.6c0.8-0.3,1.5-0.8,2.3-1.1c9.2-3.5,18.4-6.8,27.5-10.6c7.8-3.3,15.4-7.1,23-10.6c1.4-0.6,2.9-1,3.9-1.4
		c1,0.1,1.7,0.1,2.2,0.3c4.4,1.9,8.7,3.8,13.1,5.7c1.7,0.8,3.4,1.6,5.2,2.3c2.4,1,4.7,2,7.1,2.9c1.9,0.8,4,1.3,5.9,2.2
		c5,2.2,9.9,4.7,15,6.9c4.9,2.1,9.9,3.8,14.8,5.9c5,2.1,9.8,4.5,14.7,6.8c0.5,0.2,1,0.6,1.5,0.8c5.2,2,10.4,3.8,15.4,6
		c3.7,1.6,7.2,3.9,11.4,4.3c0.8,0.1,2,1.5,2,2.3c0,1-0.9,2.4-1.8,2.8c-4.8,2.1-9.8,3.8-14.6,5.8c-5.2,2.2-10.2,4.6-15.3,6.9
		c-0.3,0.1-0.5,0.3-0.8,0.4c-5.2,2-10.4,3.8-15.4,5.9c-5,2.1-9.8,4.5-14.8,6.6c-5.2,2.2-10.5,4.1-15.6,6.2c-5,2.1-9.9,4.4-14.8,6.6
		C297,314.2,292.8,316.6,288.4,317.8z M412.5,397.2c0,1.5,0,3.1,0,4.6c0,2.1-1.1,3.1-3.1,4c-5.4,2.2-10.8,4.8-16.1,7.2
		c-0.3,0.1-0.7,0.4-1,0.5c-8.2,3.5-16.5,6.9-24.7,10.5c-4.9,2.1-9.6,4.6-14.4,6.8c-4.9,2.2-9.8,4.1-14.7,6.2c-3,1.3-5.9,2.6-8.8,4
		c-4.8,2.3-9.6,4.6-14.4,6.8c-0.3,0.2-0.6,0.5-1,0.6c-4.9,2-9.9,4-14.8,6.1c-1.1,0.5-2,1.4-3.1,1.9c-1,0.5-2.2,1.3-3,1
		c-0.7-0.3-1.2-1.8-1.2-2.8c-0.1-5.1-0.1-10.2-0.1-15.2h0.6c0-24.6,0-49.2,0-73.8c0-6.5-0.4-13-0.5-19.5c0-1,0.6-2.1,0.9-3.1
		c0.9,0.6,2,1,2.7,1.8c6.6,8.4,13.1,16.9,19.6,25.4c1.2,1.6,2.1,3.5,3.5,4.9c2.8,2.9,6.5,3,10,1.1c4.7-2.5,9.5-4.8,14.4-7
		c6.2-2.7,12.4-5.3,18.7-7.8c5.5-2.2,11-4.2,16.5-6.4c5.1-2.1,10.1-4.5,15.2-6.6c5.3-2.2,10.6-4.3,16-6.2c2-0.7,3.2,0.8,3.2,3.2
		C412.7,362.6,412.6,379.9,412.5,397.2z M443.3,314.3c-5.8,2.3-11.6,4.9-17.4,7.2c-5,2-10.1,3.9-15.1,6c-4.8,2-9.5,4.2-14.3,6.4
		c-0.5,0.2-1,0.6-1.5,0.8c-5.5,2.1-11.1,4-16.6,6.3c-4.9,2-9.7,4.3-14.6,6.5c-0.4,0.2-0.8,0.5-1.3,0.7c-5,1.9-10,3.6-14.9,5.7
		c-5.3,2.2-10.6,4.7-15.8,7.1c-1.6,0.7-3.3,1.4-5.2,2.2c-1.2-0.7-2.6-1.1-3.3-2.1c-6.1-7.9-12.1-16-18.2-24
		c-1.4-1.8-2.9-3.6-4.4-5.3c-2.2-2.5-2.1-3.7,0.9-5.4c3.1-1.7,6.2-3.4,9.4-4.8c4.9-2.1,10-3.8,14.9-5.8c4.2-1.7,8.4-3.5,12.6-5.3
		c6.4-2.7,12.8-5.3,19.2-8.1c4.8-2.1,9.5-4.5,14.3-6.6c5.1-2.2,10.2-4.1,15.3-6.3c4.1-1.7,8.3-3.5,12.3-5.3
		c4.1-1.9,8.1-3.9,12.1-5.9c1.9-0.9,3.4-0.6,4.8,1c9.2,10.4,18.5,20.7,27.8,31C446.2,312.3,445.9,313.3,443.3,314.3z"/>
	<path d="M387.9,170.6c-0.6-5.6-2.1-11.1-3.7-16.5c-1.7-5.9-3.8-11.8-6.1-17.5c-1.9-4.6-4.5-8.8-6.7-13.3
		c-5.1-10.4-11.7-19.8-19.7-28.1c-5.3-5.6-11.5-10.4-17.5-15.3c-7.4-6-15.2-11.5-24-15.5c-4.1-1.8-8.1-3.8-12.3-5.2
		c-7-2.4-14.1-5.1-21.4-6.4c-13.3-2.4-26.8-3.5-40.3-1.9c-5.6,0.7-11.3,1-16.8,2.4c-7.6,1.9-15.1,4.3-22.3,7.2
		c-7.4,2.9-14.8,6.1-21.6,10.3c-10.9,6.7-21.3,14-30.5,23.1c-7.3,7.3-13.6,15.3-19.2,23.8c-2.4,3.7-4.4,7.8-6.3,11.8
		c-2,4.1-3.9,8.3-5.7,12.5c-1,2.3-1.8,4.6-2.6,6.9c-0.7,2-1.2,4-1.8,6c-0.8,2.7-1.7,5.5-2.3,8.2c-0.7,3.1-1.3,6.2-1.7,9.3
		c-0.8,5.9-1.8,11.7-2.2,17.6c-0.7,10.9,0.7,21.6,3,32.2c0.8,3.7,1,7.7,2.2,11.3c1.9,5.9,4.7,11.5,6.7,17.3
		c2.2,6.4,5.9,11.7,10,16.9c1.1,1.4,2.4,3,3.9,3.7c1.6,0.7,3.9,1,5.6,0.5c0.8-0.3,1.3-3,1-4.5c-0.3-2-1.3-4-2.2-5.9
		c-2.6-5.5-5.6-10.8-8-16.4c-2.1-4.8-3.4-10-5.3-14.8c-3.4-8.5-3.5-17.6-4.8-26.5c-0.6-3.7,1.9-5.4,5.7-5.3
		c13.8,0.2,27.6,0.4,41.4,0.4c4.9,0,6,0.8,6.2,5.7c0.2,6.9,0.2,13.8,0.9,20.6c0.6,5.8,1.8,11.5,3.1,17.2c0.6,3,3.4,4.3,6.8,3.7
		c2.9-0.4,3.4-2.5,3.2-4.9c-0.2-3.3-0.8-6.6-1.1-10c-0.8-9-1.7-17.9-2.3-26.9c-0.3-4.1,1-5.3,5.1-5.4c17.1-0.2,34.3-0.4,51.4-0.5
		c2.2,0,3.8,0.8,3.9,3.2c0.2,2.4,0.1,4.8,0.4,7.2c0.4,2.9,0.6,6,1.6,8.7c1.2,3.2,4.7,3.9,6.9,1.2c1.7-2,2.7-4.8,3.4-7.3
		c0.5-2,0-4.2-0.2-6.3c-0.5-5,1.3-7,6.3-6.6c3.1,0.2,6.3,0.5,9.5,0.4c7.2-0.1,14.4-0.4,21.5-0.5c6.9-0.1,13.8,0,20.6,0
		c2.9,0,3.9,1,4,4c0.1,3.8,0,7.7,0.1,11.5c0.1,2.3,1.4,3.6,3.6,4.2c2.2,0.6,4.1,0.2,5.4-1.6c2-2.8,3.3-5.8,2.8-9.4
		c-0.2-1.3-0.4-2.7-0.3-4c0.1-3.6,1.5-4.8,5-4.8h28.1c0,0,0,0,0,0.1c5.3,0,10.5,0,15.8,0c2.2,0,4,0.6,3.9,3.1
		c-0.5,6.5-0.9,13-1.9,19.4c-0.6,3.8-2.2,7.5-3,11.4c-0.7,3.7,1.6,6.9,5.1,7.5c3.3,0.5,5-0.9,6-5c1.9-7.7,3.7-15.4,4.5-23.3
		C389.8,197.9,389.3,184.2,387.9,170.6z M176.6,127.5c-0.2,1.2-0.5,2.5-0.8,3.6c-5,16.9-8.3,34.1-7.8,51.9c0.1,3.6-1,4.6-4.6,4.6
		c-3.6,0-7.2,0-10.8,0h-10.8c-7.1,0-14.2,0-21.3,0c-4.7,0-5.8-1.3-5.1-5.9c1-6.4,1.5-13,3.1-19.2c1.4-5.7,3.9-11.1,6.1-16.6
		c1.8-4.4,3.6-8.9,5.9-13c3.2-5.8,6.9-11.4,10.5-17c0.9-1.4,1.9-2.6,2.8-4c2.3-3.4,4.8-4.1,7.9-1.5c6.7,5.7,14.8,9,22.5,12.9
		C176,124.3,176.9,125.6,176.6,127.5z M174.4,112.1c-5-2.8-9.9-5.7-14.8-8.7c-2.3-1.4-2.6-4-0.7-5.8c5.7-5.5,11.6-10.8,18.7-14.5
		c3.4-1.8,6.3-4.2,9.7-6c4.2-2.3,8.5-4.3,12.8-6.2c1-0.4,2.5,0.2,3.7,0.3c-0.4,1.2-0.5,2.7-1.3,3.5c-5.5,5.8-9.5,12.7-12.9,19.9
		c-2.6,5.4-4.9,10.9-7.6,16.3c-0.6,1.3-2.1,2.2-3.2,3.2C177,113.2,175.6,112.8,174.4,112.1z M241.3,145.7c-0.3,4.7-0.2,9.4-0.3,14.1
		c0,7.6,0,15.1,0,22.7c0,4.1-1.6,5.6-5.7,5.6c-7.9,0-15.9,0-23.8,0v-0.3c-9.6,0-19.1,0.1-28.7,0c-3.6,0-4.4-1.3-4.1-4.9
		c0.6-7,0.4-14,1.5-20.9c1.5-9.2,3.8-18.3,5.8-27.5c0.2-1.1,0.6-2.4,1.3-3.1c0.8-0.8,2.4-1.6,3.3-1.3c9.9,3.5,19.8,6.4,30.2,7.6
		c5.5,0.6,11,1.6,16.4,2.4C241.3,140.8,241.6,141.6,241.3,145.7z M241.7,95.1L241.7,95.1c0,9.3,0,18.6,0,27.9c0,4.2-1.6,5.7-5.6,5.3
		c-7.4-0.9-14.9-1.3-22.2-2.8c-6.8-1.4-13.4-3.8-19.9-6.1c-2.9-1-3.3-3.2-1.9-5.8c2.8-5.3,5.4-10.7,8.3-16
		c5.6-10.3,12.4-19.7,21.5-27.2c4.4-3.7,9.7-5.3,14.7-7.4c3.7-1.6,5.2-0.2,5.2,3.7C241.7,76.2,241.7,85.7,241.7,95.1z M252.5,67
		c0-4.6,1-5.5,5.5-4.5c7.2,1.6,12.7,6,17.9,10.8c7.4,6.9,13.3,15.1,17.9,24.1c2.7,5.2,4.6,10.9,6.8,16.4c0.7,1.8,0.2,3.4-1.5,4.4
		c-1.4,0.8-2.8,1.8-4.3,2.3c-9.7,3-19.3,6.4-29.5,6.9c-2.9,0.2-5.7,0.8-7.9,1.1c-3.8,0.1-5.1-1.6-5.1-5.2
		C252.3,104.6,252.4,85.8,252.5,67z M308.7,187.7h-26.1v0.1c-8.5,0-17,0-25.6,0c-4.8,0-5.2-0.7-5.2-5.5c0.2-12.3,0.1-24.7-0.1-37
		c0-3.6,1-5.1,4.6-5.3c12.5-0.4,24.6-3.1,36.6-6.5c3.1-0.9,6.3-1.7,9.5-2.4c2.8-0.6,4.5,0.4,5.1,3.2c2.3,10.1,4.9,20,5.4,30.5
		c0.2,5.6,1.2,11.2,1.6,16.8C315,186.5,313.6,187.7,308.7,187.7z M315.2,113.9c-1.1-1.1-2.4-2-3.3-3.2c-0.8-1.1-1.3-2.6-1.6-4
		c-2-7.8-5.8-15-10-21.7c-3.3-5.3-7.8-9.8-11.7-14.7c-0.5-0.7-0.7-1.6-1-2.4c1-0.1,2.1-0.6,2.8-0.2c6.1,2.7,12.3,5.2,18,8.5
		c5.8,3.3,11.2,7.2,16.5,11.2c3.6,2.6,7,5.6,10.3,8.6c2.7,2.4,2.6,4-0.3,6c-3.6,2.6-7.5,4.9-11.3,7.3c-1.4,0.9-2.9,1.8-4.4,2.6
		C318.1,112.4,316.9,113,315.2,113.9z M374.4,187.5c-7.3,0.1-14.5,0.1-21.8,0.2c-7.5,0-15.1,0-22.6,0c-3,0-4.2-1.3-4.4-4.4
		c-1.4-17.5-2.3-35.1-7.3-52.2c-1.6-5.3-0.9-5.8,4-8.7c7.4-4.3,14.5-9,21.7-13.7c1.6-1.1,3-1.3,4.3,0.1c1.7,1.8,3.4,3.7,4.9,5.6
		c5.2,6.6,9.5,13.7,13,21.5c3.7,8.5,6.4,17.1,8,26.2c1.3,7.1,2.9,14.2,4.4,21.3C377.9,186.2,376.7,187.5,374.4,187.5z"/>
	<path d="M482.6,143.2c-6.7,8.4-13.3,17-19.9,25.5c-4.1,5.3-8.1,10.7-12.2,16c-3.1,4-7.1,4.3-10.6,0.7c-3.2-3.3-6.1-6.9-9-10.4
		c-5.4-6.7-10.7-13.5-16-20.2c-3.3-4.2-6.9-8.3-10-12.5c-4-5.3-1.7-11.9,4.7-13c6.6-1.1,13.3-1.6,20-1.7c5.1-0.1,8,4.6,6.1,9.3
		c-0.5,1.3-2.2,2.9-3.6,3.1c-3.2,0.5-6.5,0-9.7,0.2c-1.1,0-2.2,0.7-3.3,1.1c0.4,1.2,0.5,2.8,1.3,3.5c7.2,6.1,12.4,13.8,17.8,21.3
		c1.2,1.6,2.2,3.4,3.4,5c2,2.7,4.5,2.2,6.3-0.6c3.2-5.1,6.5-10.1,10.1-14.9c2.8-3.8,6.2-7.3,9.1-11.1c0.6-0.8,1.1-2.2,0.8-3
		c-0.2-0.6-1.7-1.2-2.6-1.2c-5.1,0.1-10.1,0.4-15.2,0.5c-4.1,0.1-5.6-1-6.6-4.9c-1.5-6.1-2.6-12.4-4.2-18.5
		c-1.6-6.2-3-12.5-5.6-18.3c-3.5-7.8-7.7-15.3-12.1-22.7c-4.2-7.1-9.9-12.9-16.6-17.7c-6.4-4.6-13.1-9.1-20.2-12.5
		c-7.2-3.4-15-5.4-23-6.8c-12.9-2.2-25.6-0.9-38.2,1.6c-3.3,0.7-6.5,2.1-9.7,3.4c-5.1,2.1-10.2-0.4-10.5-5.6c-0.1-1.3,0.6-3.3,1.6-4
		c2.3-1.6,5-3.2,7.7-3.8c7.8-1.8,15.8-3.2,23.7-4.4c3.3-0.5,6.7-0.4,10-0.5c11.4-0.7,22.5,2.1,33,5.6c13.8,4.5,26.4,12,37.2,22.1
		c7.3,6.9,13.9,14.3,18.7,23.1c3.9,7.1,7,14.6,10,22.1c2.6,6.7,4.5,13.8,6.6,20.7c0.6,2,0.8,4.1,1.3,6.2c1,3.6,1.9,3.7,5.6,3.4
		c6.4-0.4,12.8-0.8,19.1-0.1C485.2,130,487.2,137.4,482.6,143.2z"/>
	<path d="M134.7,404.4c-4.2-0.7-8.3-1.8-12.3-3.3c-3.5-1.3-6.9-3.2-10.2-5c-15-7.9-27.3-18.9-37-32.8c-5-7.2-9.3-14.8-12.6-23
		c-4.4-11-7.2-22.4-10-33.8c-0.4-1.8-0.9-3.5-1.5-5.2c-0.7-2.1-2.1-3.3-4.6-3c-4.2,0.4-8.4,0.8-12.6,0.9c-4,0.1-8-0.3-12-0.5
		c-2.8-0.1-5.2-1.1-6.3-3.8c-1.1-2.6-0.8-5.3,1-7.6c9.4-12.2,18.8-24.4,28.2-36.5c3.1-4,6.4-7.8,9.9-11.6c3.4-3.7,6.4-3.5,9.6,0.3
		c4.6,5.7,9.3,11.5,13.7,17.3c6.9,9,13.7,18.2,20.4,27.3c2.1,2.9,2.5,6.3,0.7,9.5c-2.2,3.8-5.7,6.7-10.1,5.7
		c-5.1-1.1-10.1-0.3-15.1-0.8c-2-0.2-4.6-1.2-5.6-2.7c-1.2-1.7-1.6-4.6-1-6.7c0.7-2.5,3.3-3.8,6-3.6c2.2,0.1,4.5,0.9,6.7,1.5
		c1.7,0.4,3.8,1.4,4.6-0.6c0.5-1.3,0.1-3.7-0.8-4.9c-3-4-6.4-7.6-9.5-11.5c-3.8-4.9-7.5-9.9-11-15c-2.6-3.9-4.6-3.9-7.3-0.3
		c-3.5,4.7-7.3,9.1-10.9,13.7c-4,5.1-8.1,10.2-11.9,15.4c-1.7,2.3-1,3.7,2,3.9c1.9,0.1,3.8,0,5.7,0v0.1c4.5-0.2,9-0.6,13.5-0.7
		c3.8-0.1,5.5,1.2,6.4,4.9c1.4,5.4,2.4,11,4,16.4c2.2,7.9,4.4,15.8,7.4,23.4c3.1,7.8,6.8,15.6,11.1,22.8c4.4,7.4,10,14,16.7,19.5
		c8.4,7,17.9,12.3,27.6,17.3c2.8,1.4,5.7,2.6,8.4,4.2c1.1,0.6,2,1.9,2.5,3.1C139.5,401.8,137.6,404.9,134.7,404.4z"/>
	<path d="M344.4,425.2c-5.4,2.7-10.8,5.7-16.3,8.1c-6.3,2.8-12.7,5.1-19.1,7.5c-2.3,0.9-4.4,0.4-5.8-1.8c-1.5-2.3-1-6.3,1.3-7.8
		c4.3-2.7,8.6-5.2,13.1-7.5c5.1-2.6,10.3-5,15.5-7.3c2.2-1,4.6-1.7,6.9-2.6c4.3,0.5,6.5,2.3,7.1,6.2
		C347.4,422.3,346.6,424.1,344.4,425.2z"/>
	<path d="M336,404c0,4.6-2.3,6.3-4.9,7.7c-5,2.7-9.9,5.4-15,7.8c-2.4,1.1-5,1.9-7.6,2.6c-2.7,0.7-5-0.1-6.4-2.5
		c-1.5-2.4-0.5-4.7,1-6.6c0.7-0.9,1.7-1.5,2.7-2c6.1-3.1,12.2-6.1,18.4-9c2.1-1,4.6-1.5,6.9-1.8C334.2,399.8,336.1,401.9,336,404z"
		/>
</g>
</svg>
