<?xml version="1.0" encoding="utf-8"?>
<!-- Generator: Adobe Illustrator 24.0.1, SVG Export Plug-In . SVG Version: 6.00 Build 0)  -->
<svg version="1.1" id="Layer_1" xmlns="http://www.w3.org/2000/svg" xmlns:xlink="http://www.w3.org/1999/xlink" x="0px" y="0px"
	 viewBox="0 0 500 500" style="enable-background:new 0 0 500 500;" xml:space="preserve">
<g>
	<path d="M438.2,233.8C419.4,61,218.4,4.8,110,120.3C-1.7,247.7,91.3,439.9,252.9,439.5c0,0.2,0,0.5,0,0.7
		C368.5,437.6,447.3,342.2,438.2,233.8z M416,291.5c-64.1,223.6-378.6,133.6-330.9-85C150.6-15.5,462.5,74,416,291.5z"/>
	<path d="M389.3,244.7C363.5,43.3,104.6,80.6,111.1,261.1C139.2,445.2,387.2,425.1,389.3,244.7z M368,263.9
		c-18.2,97.3-32.1,38.3-44.9,55c-7.1,10,16,9.5,8.1,18.8c-72.9,77.2-198.7,13-202.2-85C138.3,76.2,382.8,93.7,368,263.9z"/>
	<path d="M312.2,277.2c-8.8,19.1-26.2-5.3-39.2-10.4c-9.1-7.6-27.5-9.2-31.2-18.4c-1-56.2-9.2-94,15.5-78.7
		c9.1,27.8-7,63.7,7.1,72.5C278,248.8,317.3,264.2,312.2,277.2z"/>
</g>
</svg>
