<?xml version="1.0" encoding="utf-8"?>
<!-- Generator: Adobe Illustrator 24.0.1, SVG Export Plug-In . SVG Version: 6.00 Build 0)  -->
<svg version="1.1" id="Layer_1" xmlns="http://www.w3.org/2000/svg" xmlns:xlink="http://www.w3.org/1999/xlink" x="0px" y="0px"
	 viewBox="0 0 500 500" style="enable-background:new 0 0 500 500;" xml:space="preserve">
<g>
	<path d="M449.4,360c-0.5-3.7-2.8-4.7-6.2-4.7c-15.3,0.3-30.6,0.6-45.9,0.7c-25.4,0.1-50.7,0.1-76.1,0.1c-6.1,0-6.8-0.8-6.3-7
		c0.2-2.5,0.5-5.1,0.5-7.6c0-40.7,0-81.4,0-122.1h0.1c0-6.9,0-13.8,0-20.7c-0.2-37.8-0.4-75.5-0.6-113.3c0-5.9-1.3-7.2-7.2-7.2
		c-5.5,0-11,0-16.5,0c-6.9,0-8.3,1.3-8.4,8.2c-0.1,12.1-0.2,24.2-0.2,36.4c0,6.3-0.7,7-6.8,7.6c-1.3,0.1-2.7,0-3.7,0.6
		c-1.7,1-4.4,2.6-4.3,3.9c0.1,2,1.7,4.2,3.3,5.7c1,0.9,3.1,0.9,4.8,0.9c4.9-0.1,6.1,1,6,6c-0.2,6.9-0.6,13.8-0.6,20.6
		c0,13.1,0.4,26.2,0.5,39.3c0.3,26.9,0.5,53.8,0.8,80.7c0.1,6,0.2,12,0.4,18c0.1,2.6-1.1,3.8-3.6,3.8c-3.9,0.1-5.3-1.4-5.8-5.5
		c-0.5-3.9-1.2-7.8-2.3-11.6c-3.6-11.7-7.4-23.3-11-34.9c-1.7-5.5-2.9-11.1-4.6-16.5c-3.6-11.5-7.3-23-11-34.5
		c-3.2-10.1-6-20.3-9.3-30.2c-5.1-15.2-10.4-30.3-16-45.3c-3.5-9.5-10.5-16.2-20-19.2c-6.8-2.1-14.2-2.9-21.4-3.1
		c-12.7-0.3-25.5,0.4-38.2,0.5c-19.3,0.1-38.5,0-57.8,0.1c-8.6,0-12.3,2.8-14.5,10.7c-0.6,2.2-0.6,4.5-0.6,6.8
		c0.2,33.4,0.4,66.8,0.7,100.2c0,1.1,0,2.3,0.2,3.4c0.8,3.7-1.1,5.3-4.4,5.6c-2.3,0.2-4.6,0.2-6.9,0.2c-19.5,0.1-37,17.9-36.4,37.6
		c0.8,24.1,0.6,48.2,0.8,72.3c0.1,10.7,0,21.4,0.1,32.1c0,5.6,4.2,9.6,9.7,10.3c1.8,0.3,3.9,1.3,5,2.7c2,2.6,3,5.8,4.8,8.6
		c8.5,13.8,21.5,21.2,37.2,21.1c16.6-0.1,30.3-8.4,38.4-23.1c3.7-6.6,7.4-8.8,14.7-8.6c21,0.5,42.1,0.1,63.1,0.1
		c2.9,0,5.5,0.5,6.8,3.7c6.6,15.6,18.6,24.5,34.9,27.7c9.9,1.9,18.8-1.5,27.4-6c12.2-6.4,19.5-16.7,22.8-29.9
		c0.6-2.2,1.3-3.8,3.9-3.9c2.6-0.2,3.4-1.9,4-4.3c0.6-2.7,1.7-5.5,3.1-7.9c1.3-2.4,1.6-4.2-0.5-6.1c-2.7-2.6-3.7-5.7-3-9.4
		c0.3-1.4,0.1-2.8,0.1-4.2c0.1-84.6,0.2-169.1,0.3-253.7c0-5.1,1.3-6.3,6.4-6.1c4.1,0.2,4.9,1.4,4.9,6.8
		c-0.2,45.9-0.5,91.8-0.5,137.7c0,18.7,0.4,37.5,0.4,56.2c0.1,22.8,0,45.7,0,68.5c0,5.3,0.9,6.3,5.7,6.4c22.6,0.5,45.1,1.1,67.7,1.3
		c19.6,0.2,39.3,0.1,58.9,0.1c2.3,0,4.6,0.1,6.9-0.1C448,366.4,449.9,364,449.4,360z M259.7,294.9c1.2,3.5,2.4,7,3.4,10.5
		c0.9,3.3,0,4.5-3.5,4.5c-5.6,0-11.2,0.1-16.7-0.1c-4.3-0.1-5-1.5-4.3-5.7c0.4-2.2,0.4-4.6,0.3-6.8c-0.5-9.1-1.1-18.3-1.6-27.4
		c-0.1-1.5,0.7-3,1.2-4.4c1.4,0.9,3.3,1.4,4.2,2.7c2.9,4,2.8,4.1,7.5,0.2C253.5,277.5,256.7,286.2,259.7,294.9z M241.5,230.1
		c2.3,9.3,4,18.6,5.9,28c0.1,0.4-0.3,0.9-0.6,2c-1-0.6-1.8-0.8-2.3-1.3c-5.7-5.6-11.4-11.3-17-17c-3-3-3-4.5,0.1-7.2
		c2.5-2.2,5.2-4.1,7.9-6C238.2,226.7,240.8,227.3,241.5,230.1z M77.9,230.9c0.3-1.6,0.4-3.3,0.4-4.9c0-32.1-0.1-64.3-0.1-96.4
		c0-1.3,0-2.6,0.1-3.8c0.2-2.8,1.7-4.5,4.6-4.6c0.6,0,1.3,0,1.9,0c32.9,0,65.8,0,98.7-0.1c6.2,0,12.2,0.7,17.6,4
		c4.2,2.6,7.4,5.8,8.9,10.5c5.7,17.1,11.4,34.2,17,51.4c3,9,5.8,18.2,8.9,27.2c0.7,2,0.6,3.2-1.3,4.5c-9.9,6.4-19.8,12.9-29.6,19.5
		c-2.1,1.4-4,3.1-5.7,4.9c-1.7,1.8-2.2,4.1-0.2,6.1c2,2.1,4.5,2.6,6.9,1.1c1.5-0.9,2.7-2.3,4-3.5c3.6-3.3,6-3,8.6,1.1
		c1.2,1.8,2.2,3.9,3.8,5.3c4,3.3,4.5,7.5,4.5,12.3c0,13.4,0.4,26.8,0.9,40.1c0.1,3.5-1.9,4.1-4.5,4.2c-4.1,0.1-8.1,0-12.2,0.1
		c-3.3,0-4-1.7-3.8-4.7c0.9-11.4-2.1-21.6-9-30.8c-3.6-4.8-8.4-6.3-14-6.3c-11,0-21.9-0.1-32.9-0.1c-5.3,0-6.3-0.8-6.3-6.1
		c-0.1-19.9-0.2-39.8-0.2-59.6c0-14.3-15.2-22-25.8-17.9c-5.2,2-7.8,5.7-7.9,11c-0.4,14.6-0.5,29.3-0.8,44c0,1.4-0.2,2.9-0.4,4.3
		c-0.3,0.2-0.5,0.4-0.8,0.5c-4-5.2-9.7-6.5-15.5-7.2c-3.7-0.4-7.4-0.2-11.1-0.3C78.4,236.5,77.3,235.1,77.9,230.9z M157.9,310.8
		c-3.8,0-6.1-1.7-8-5.3c-4.1-7.7-9-15.1-13.4-22.6c-0.6-1.1-0.8-2.5-1.1-3.8c1.3-0.3,2.6-0.9,3.9-0.9c14.1,0.2,28.2,0.6,42.4,0.6
		c7.9,0,10.2,1.1,11.9,8.7c1.5,6.3,2.1,12.8,3,19.2c0.4,2.9-1.4,4.2-4.1,4.2c-5.9,0-11.7,0-17.6,0v-0.1
		C169.1,310.8,163.5,310.9,157.9,310.8z M134.1,263.4c0,2.4-0.1,4.8-3.1,5.3c-2.8,0.5-4.6-0.8-5.7-3.3c-0.7-1.4-1.9-2.5-2.4-3.9
		c-1.1-3.3-2.6-6.7-2.6-10c0-15.7,0.5-31.3,0.8-47c0-1.2,0-2.3,0-3.4c0-2.8,0.2-5.5,3.5-6.3c3.2-0.8,7,1,8.1,4.2
		c0.8,2.1,1.2,4.5,1.2,6.7c0.1,9.6,0,19.1,0,28.7C134.1,244,134,253.7,134.1,263.4z M78.5,409c-20.5,0.2-34.4-14.6-34.7-31
		c-0.4-18.9,13.9-34.1,33.5-34.4c17.1-0.3,34.4,16.4,33.2,32.9C111.8,392.3,96.2,408.8,78.5,409z M241.6,408.8
		c-11.9,0.7-21.5-4.2-28.3-13.9c-5.5-7.9-6.5-17.1-4.3-26.4c2.2-9.3,6.8-17.2,15.5-22.2c5.3-3,10.9-3.4,16.6-3.3
		c17.1,0.5,31.3,14.2,33.6,30.6C277,389.9,263.1,410.8,241.6,408.8z M282.5,327.6c-0.4,7.6-0.2,15.3-0.3,22.9c0,1.3,0,2.7,0,5.1
		c-2-1.7-3.4-2.5-4.3-3.8c-7.5-10.7-17.8-17.6-30.3-20.5c-5.6-1.3-12-0.4-17.8,0.6c-12.4,2.3-21.4,9.8-27.2,20.8
		c-3.4,6.5-6.1,13.4-5.8,21.1c0.2,4.7-0.3,4.6-5.1,4.6c-13.4-0.2-26.8-0.1-40.2-0.1c-8.7,0-17.4-0.1-26,0c-3.1,0-4.4-1.1-4.5-4.2
		c-0.6-15.2-7.9-26.6-20.2-34.9c-9.6-6.5-20.4-7.2-31.6-5.9c-11.3,1.4-20.5,6.8-27.3,15.7c-2.4,3.2-3.7,7.2-5.5,10.8
		c-0.7,1.4-1.4,2.7-2.1,4.1c-0.4,0-0.8-0.1-1.2-0.2c-0.3-1.5-0.9-3-0.9-4.5c-0.3-28.4-0.7-56.9-0.8-85.3c0-10.1,4.3-18.6,13.5-23.1
		c4.4-2.1,9.8-2.6,14.8-2.7c11.6-0.2,23.2,0.2,34.8,0.7c2,0.1,4.6,1.4,5.8,3c5,6.2,9.7,12.7,14.2,19.3c6.3,9.1,12.4,18.3,18.5,27.5
		c3.5,5.3,7.2,10.6,10.1,16.1c2.4,4.5,5.9,6.5,10.7,6.6c11.1,0.1,22.2,0.1,33.3,0.1c19.5,0,39-0.1,58.5-0.2
		c10.2-0.1,20.4-0.5,30.6-0.7C282,320.7,282.8,322.1,282.5,327.6z"/>
	<path d="M479.5,320c0-32,0-64,0-96c0-8.1,0.5-16.3,0.3-24.5c-0.1-7-2.6-8.9-9.6-8.6c-6.2,0.3-12.5,0.5-18.7,0.5
		c-14.1,0-28.2-0.3-42.3-0.3c-19.9,0-39.7,0-59.6,0v0.4c-5.1,0-10.2,0-15.3,0c-8.2,0-9.6,1.4-9.6,9.6c0,38.9-0.1,77.7,0,116.6
		c0,7,0.2,14,0.8,21c0.4,4.8,3.6,7.8,8.3,8.6c1.6,0.3,3.3,0.3,5,0.3c44.6-0.2,89.2-0.4,133.9-0.7c5.5,0,7.5-2.1,7.4-7.8
		C479.9,332.7,479.5,326.3,479.5,320z M392.2,218.2c0-4-0.1-7.9,0-11.8c0.2-4,1.4-4.7,5.2-4.5c4.6,0.2,9.2,0.2,13.7-0.1
		c4.1-0.3,5.4,0.5,5.5,4.7c0.1,6.6-0.1,13.2,0,19.9c0,2.3,0.5,4.6,0.5,6.8c0,1-0.8,2.2-1.5,2.7c-0.5,0.3-1.9-0.3-2.6-0.9
		c-7.3-5.9-9.2-6-16.9-0.5c-0.8,0.6-2.3,1-3,0.6c-0.7-0.4-1.3-1.8-1.3-2.8c0.1-4.7,0.4-9.4,0.6-14.1H392.2z M464.5,335.5
		c-16.2,0.1-32.4,0.5-48.6,0.7c-20,0.2-40,0.5-60.1,0.6c-5.3,0-10.7-0.4-16-0.7c-3.9-0.2-5-2-5-6.1c0.1-21.5,0.1-43.1,0.1-64.6
		c0-17.7-0.1-35.4-0.1-53.2c0-2.3-0.1-4.6,0.1-6.9c0.2-2.7,1.6-4,4.5-4c12,0.1,24,0,36,0c3.5,0,5.2,1.8,5.1,5.2
		c-0.2,13.4-0.4,26.7-0.6,40.1c0,2.9-0.1,5.8,3.2,7.1c3.1,1.2,5.3-0.2,7.3-2.6c1.6-1.9,3.4-3.8,5.5-5.3c5.9-4.4,11.7-3,17.2,0.9
		c2.1,1.5,4.1,3,6.2,4.5c4,2.9,6.6,1.9,7.5-3c0.3-1.7,0.4-3.5,0.5-5.3c0.1-5.6,0-11.2,0-16.8h-0.1c0-6.1,0-12.2,0-18.4
		c0-4.3,1.1-5.6,5.3-5.6c10.7,0,21.4,0,32.1,0c3.6,0,4.6,1.9,4.6,5.1c-0.2,14-0.4,28-0.4,42.1c0,14.1,0.3,28.3,0.4,42.4
		c0.1,12.9,0,25.7,0.2,38.6C469.4,333.9,468.2,335.5,464.5,335.5z"/>
	<path d="M77.1,355.9c-10.5,0-21,10.2-21,20.4c0,10.4,11,21.6,21.5,21.5c11.2-0.1,21.2-10.5,21-21.7
		C98.3,365.2,89.2,356.3,77.1,355.9z M77.3,386.7c-4.9,0.1-9.8-4.7-9.8-9.7c0-5.2,4.1-8.7,10.2-8.8c6-0.1,8.6,2.2,8.8,7.5
		C86.8,381.4,82.4,386.6,77.3,386.7z"/>
	<path d="M241,354.6c-11-0.1-21.4,9.9-21.6,21.1c-0.2,10.6,10.6,22.4,21.8,21.8c9.8,0.9,21.4-10.6,21.3-21.3
		C262.4,364.2,251.2,354.7,241,354.6z M241.1,386.5c-4.5-0.3-10-3.1-9.9-9.8c0.1-7.2,5-10,10.2-10.5c4.9-0.5,9.6,4.7,9.6,9.7
		C251,381.2,246,386.8,241.1,386.5z"/>
	<path d="M401.4,299.9c-0.1-5.1-1.5-6.6-6.7-6.6c-6.8,0-13.5,0-20.3,0v-0.1h-19.1c-7.4,0-9.1,1.6-9.1,8.9c0,4.3,0,8.7,0,13
		c0,7.1,1.7,9.2,9,9.3c13.5,0.2,27,0.2,40.5,0c5,0,6.4-1.8,6.3-7C401.9,311.7,401.6,305.8,401.4,299.9z M393.3,310.6
		c-0.2,1.3-2.7,2.9-4.3,3.1c-4.5,0.4-9.1,0.1-13.7,0.1v0.1c-4.2,0-8.4,0.1-12.6,0c-3.9-0.1-5.1-1.4-5-5.1c0.1-3.8,1.3-4.9,5.2-4.9
		c8,0,16,0.1,24,0.1c0.9,0,1.8,0,2.6,0.2C392.6,305.3,393.8,307.9,393.3,310.6z"/>
</g>
</svg>
