<svg width="85" height="50" viewBox="0 0 85 50" fill="none" xmlns="http://www.w3.org/2000/svg">
<path d="M26.6471 21.4799C27.5503 21.3029 28.3691 22.0363 28.8925 22.7107C31.4671 26.4875 32.8768 30.888 34.7762 35.002C35.9411 36.7386 36.7346 39.0316 38.8533 39.7735C40.2208 39.6892 41.4533 38.8293 42.289 37.7924C43.7831 36.1822 45.9694 34.9935 48.2148 35.6174C50.7219 36.393 51.4732 39.1581 53.4316 40.6502C55.1536 41.1392 56.0991 39.3351 57.3737 38.5595C59.138 37.9188 60.7418 39.1749 62.0418 40.1866C62.9282 40.979 64.3041 40.7767 65.3424 40.3889C65.9755 39.9674 66.119 39.1749 66.2203 38.4752C65.7645 35.5752 63.9749 33.1473 62.4386 30.7279C61.3327 29.0081 59.923 27.3642 59.4166 25.341C59.0451 24.4221 59.4165 23.0817 60.4042 22.7613C61.4003 22.2302 62.4554 22.8709 63.2658 23.4863C63.46 23.638 63.6204 23.7982 63.7554 23.9921C65.0554 25.7962 65.7982 27.929 66.9885 29.8174C68.3053 32.279 70.078 34.6142 70.5085 37.4467C70.9897 39.6639 70.0274 42.1592 68.1281 43.4238C66.5917 44.3679 64.6671 44.9581 62.9028 44.3427C61.223 44.2584 60.0581 42.3363 58.2938 42.8927C56.5549 43.5334 55.0777 45.5482 53.0686 44.8906C50.5531 44.1825 49.8947 41.0043 47.4045 40.3383C45.4629 39.8156 43.9857 41.6197 42.8883 42.9179C41.1747 44.8485 38.2202 44.5281 36.1099 43.4406C34.3034 42.6482 33.4171 40.802 32.2184 39.352C31.4418 39.529 30.9691 40.4142 30.2094 40.7177C27.7192 42.2857 24.8997 43.3142 22.0128 43.879C16.3486 45.0424 10.5578 44.84 4.80925 44.7642C4.15082 44.7473 3.49239 44.6799 2.85084 44.545C1.70282 44.3089 0.335313 44.1656 0.00609899 42.9601C-0.0783148 42.2604 0.732058 41.9991 1.28919 41.9738C5.23131 41.5523 9.23253 42.1508 13.1747 41.6281C17.2687 41.3415 21.2784 40.2709 25.0601 38.7197C26.453 38.1464 28.1497 37.6153 28.7659 36.0979C29.5763 34.3444 28.749 32.5066 27.9302 30.947C27.0016 29.4127 26.2335 27.7857 25.4484 26.1924C25.1867 24.9447 24.5199 23.5706 25.1867 22.3398C25.44 21.6991 26.0815 21.5895 26.6471 21.4799Z" fill="#CF3339"/>
<path d="M69.3686 22.1794C71.2594 21.9096 72.7198 23.3428 73.6652 24.8181C73.7581 24.9698 73.8678 25.1216 73.9776 25.2733C76.3074 28.3925 78.2995 31.7393 79.9456 35.2547C80.6294 36.73 81.2625 38.3401 81.119 40.0009C81.0768 40.4814 80.5872 40.8186 80.1313 40.6584C79.8021 40.532 79.4898 40.2622 79.3209 39.9756C77.295 37.5983 75.4886 35.0524 73.4204 32.7172C72.188 31.225 70.8711 29.8088 69.6725 28.2913C69.3264 27.8698 68.9887 27.4567 68.6173 27.0605C68.1614 26.5716 67.866 25.9562 67.5874 25.3407C67.4777 25.0794 67.4102 24.7928 67.4102 24.5062C67.4186 23.3512 68.1868 22.2721 69.3686 22.1794Z" fill="#CF3339"/>
<path d="M19.0757 28.9316C19.9958 28.7293 21.338 28.8051 21.6925 29.7409C21.7854 30.0107 21.7094 30.3142 21.4984 30.508C20.7555 31.1909 19.7848 31.5703 19.1179 32.329C19.388 33.1804 20.6373 33.7958 20.0042 34.7737C19.101 35.9624 17.3367 36.3165 15.9355 36.6368C14.1121 36.9403 12.1537 37.345 10.3895 36.6115C10.3051 36.5694 10.2798 36.4598 10.3388 36.3923C10.5414 36.19 10.8031 36.0467 11.0817 35.9793C12.6265 35.6083 14.0784 35.4734 15.6232 34.9423C15.927 34.7653 16.5433 34.6304 16.3238 34.1499C16.0199 33.8043 15.6569 33.5514 15.2686 33.2984C15.0745 33.172 14.9816 32.9697 14.9816 32.7421C15.0069 32.329 15.218 31.9496 15.4881 31.6461C16.5855 30.761 17.6491 29.8252 18.814 29.0328C18.8984 28.9822 18.9828 28.9569 19.0757 28.9316Z" fill="#CF3339"/>
<path d="M58.7407 49.5184C60.0042 49.5184 61.0284 48.4955 61.0284 47.2338C61.0284 45.9721 60.0042 44.9492 58.7407 44.9492C57.4773 44.9492 56.4531 45.9721 56.4531 47.2338C56.4531 48.4955 57.4773 49.5184 58.7407 49.5184Z" fill="#CF3339"/>
<path d="M49.0502 44.8402C49.0502 43.6262 48.0626 42.623 46.8302 42.623C45.6146 42.623 44.6101 43.6094 44.6101 44.8402C44.5679 44.8402 44.5257 44.8402 44.4835 44.8402C43.0569 44.8402 41.9004 46.0036 41.9004 47.4198C41.9004 48.8445 43.0653 49.9995 44.4835 49.9995C45.91 49.9995 47.0665 48.8361 47.0665 47.4198C47.0665 47.285 47.0496 47.1585 47.0412 47.0405C48.1723 46.9309 49.0502 45.9867 49.0502 44.8402Z" fill="#CF3339"/>
<path d="M34.9946 23.251C34.792 24.7516 37.1725 27.365 38.0504 28.2839C38.8017 29.0763 39.4348 29.9277 39.899 29.6074C40.3633 29.2786 39.7893 28.3091 39.1984 27.3818C38.5991 26.4545 37.6368 25.249 37.3075 24.76C36.9783 24.2711 37.1809 24.3638 37.6874 24.3891C38.2108 24.406 38.464 24.4397 38.7173 23.976C38.9621 23.4955 38.3712 22.2394 38.2783 21.9949C38.1854 21.7504 37.966 21.506 38.6919 21.7504C39.1478 21.9022 39.2153 21.7673 39.5445 21.3964C39.7809 21.135 39.5698 20.7135 39.5192 20.3426C39.4263 19.8874 39.2068 19.5754 39.6289 19.6176C40.0679 19.6597 40.1776 19.6682 40.3549 19.3731C40.549 19.0612 40.0932 18.5217 39.6542 18.058C39.2406 17.6365 38.5484 17.0295 37.9997 17.8641C37.7971 18.176 37.9322 18.547 37.9997 18.9685C38.0673 19.39 38.2445 19.7862 37.4004 19.6682C37.1556 19.6429 36.7588 19.5164 36.4803 19.9126C36.3537 20.1065 36.4803 20.7641 36.6069 21.1603C36.7166 21.5565 36.9868 22.3321 36.8433 22.4839C36.4718 22.8801 35.0875 22.3827 34.9946 23.251Z" fill="#EE7623"/>
<path d="M42.3056 21.4539C41.7063 22.3138 41.242 23.8987 41.0985 24.8681C40.9634 25.7702 40.9465 26.2085 41.2504 27.237C41.4277 27.8103 41.9342 27.7681 41.9511 27.237C41.9679 26.5963 42.0608 25.8545 42.3647 24.9777C42.6686 24.101 43.2679 23.5024 43.9686 22.7353C44.627 21.9934 44.3653 21.2347 43.9179 21.0155C43.2342 20.7205 42.5504 21.1167 42.3056 21.4539Z" fill="#EE7623"/>
<path d="M63.4269 10.6136C63.3425 9.72847 62.988 9.02876 62.3717 8.54824C61.4094 7.79795 59.89 7.57876 57.8556 7.89068L57.7627 7.90754C57.2985 7.99184 56.9439 8.04243 56.8595 7.95812C56.7667 7.89068 56.7329 7.53661 56.6991 7.08138L56.6063 6.16249C56.5134 5.38691 56.3362 2.84098 56.3362 2.81569C56.3362 2.79883 56.2855 2.43633 56.2855 2.43633C56.0913 1.07064 55.9394 0 54.7407 0C53.6011 0 51.5077 0.438371 48.3084 1.32354C48.2831 1.32354 45.9786 1.98953 43.9948 2.79883C39.8923 4.47644 37.8073 5.67353 37.7651 6.33952C37.7398 7.00551 38.0521 7.52818 38.4657 8.18574L38.9047 8.91074C39.6053 10.1668 41.6313 13.5305 42.5345 14.8709C42.6611 15.0648 42.9988 15.5032 43.3702 15.4189C43.75 15.3346 43.8345 14.8287 43.8513 14.6686C43.8936 14.4072 43.9189 14.1459 43.9189 13.9014C43.9189 12.9151 43.615 12.0383 43.3195 11.3218C43.1676 10.9677 42.9059 10.4619 42.6189 9.93079C42.1631 9.05405 41.6059 7.97498 41.5384 7.53661C41.7832 6.90435 47.5571 4.29941 49.009 3.7936C51.0603 3.08546 53.1284 2.58808 53.407 2.75668C53.6518 3.01802 53.8966 5.50493 54.0232 6.69359L54.1498 7.86539C54.3524 9.55986 54.631 10.3776 55.0362 10.6558C55.1881 10.7485 55.3485 10.7822 55.5258 10.7064C59.0712 9.56829 60.0672 10.0235 60.3289 10.268C60.5062 10.445 60.5484 10.7064 60.4555 11.0604C60.2952 11.7011 59.1725 11.8529 57.6108 12.0721C56.64 12.207 55.5427 12.3587 54.3777 12.6622C52.5544 13.1427 49.7772 13.9436 46.8396 15.4104C45.776 15.9415 43.75 17.2988 41.952 18.8584C40.9391 19.7604 40.4326 20.4433 40.4495 20.9491C40.4495 21.1936 40.5592 21.3453 40.6436 21.4043C40.9475 21.6488 41.5046 21.2779 43.176 20.0892L43.7332 19.693C44.7208 18.9933 48.2324 16.8351 50.8493 16.0005C53.1369 15.2756 55.8297 14.6601 58.8854 14.1796C61.3081 13.8003 63.6548 13.2101 63.4269 10.6136Z" fill="#FFC629"/>
<path d="M83.5758 40.3549C82.9343 40.3549 82.4531 39.8659 82.4531 39.2168C82.4531 38.534 82.9765 38.0703 83.5758 38.0703C84.1752 38.0703 84.6985 38.5255 84.6985 39.2168C84.6985 39.9081 84.192 40.3549 83.5758 40.3549ZM83.5758 38.2642C83.0862 38.2642 82.6979 38.6436 82.6979 39.2084C82.6979 39.7311 83.0271 40.1526 83.5758 40.1526C84.0654 40.1526 84.4537 39.7732 84.4537 39.2084C84.4537 38.6436 84.0654 38.2642 83.5758 38.2642ZM83.3563 39.8659H83.1538V38.6098H83.6349C83.9388 38.6098 84.0992 38.7194 84.0992 38.9808C84.0992 39.2168 83.9472 39.2927 83.77 39.3264L84.1245 39.8744H83.8882L83.5589 39.3433H83.3563V39.8659ZM83.5843 39.1494C83.7362 39.1494 83.8882 39.1325 83.8882 38.9471C83.8882 38.7953 83.7362 38.7869 83.618 38.7869H83.3732V39.1578L83.5843 39.1494Z" fill="#CF3339"/>
</svg>
