<svg width="118" height="50" viewBox="0 0 118 50" fill="none" xmlns="http://www.w3.org/2000/svg">
<path d="M75.46 5.56369C77.8537 5.56369 79.6659 7.42665 79.6659 9.85441C79.6659 12.2822 77.8537 14.1451 75.46 14.1451C73.0662 14.1451 71.2541 12.2822 71.2541 9.85441C71.2541 7.42665 73.0578 5.56369 75.46 5.56369ZM75.0723 17.5086C76.699 17.5086 78.1571 17.0028 79.3624 16.0334L80.1295 15.4096V17.0365H83.6864V2.74817H80.2222V4.49312L79.4215 3.8356C78.233 2.83247 76.7243 2.29297 75.0638 2.29297C72.9314 2.29297 71.0096 3.06007 69.6442 4.42568C68.2872 5.81658 67.5117 7.74698 67.5117 9.90498C67.5117 12.0714 68.245 14.0271 69.6442 15.418C71.0518 16.733 72.9482 17.5086 75.0723 17.5086Z" fill="black"/>
<path d="M114.74 19.5488C113.383 19.5488 112.312 20.6363 112.312 21.9766C112.312 23.3338 113.4 24.4043 114.74 24.4043C116.097 24.4043 117.167 23.3169 117.167 21.9766C117.176 20.6447 116.08 19.5488 114.74 19.5488Z" fill="black"/>
<path d="M85.8025 24.4121C87.1595 24.4121 88.2299 23.3247 88.2299 21.9844C88.2299 20.6272 87.1426 19.5566 85.8025 19.5566C84.4623 19.5566 83.375 20.6441 83.375 21.9844C83.375 23.3416 84.4623 24.4121 85.8025 24.4121Z" fill="black"/>
<path d="M112.582 32.1759C112.582 34.4519 110.719 36.298 108.46 36.298H100.343C98.1435 36.298 96.3735 34.5194 96.3735 32.3276C96.3735 30.0516 98.27 28.2055 100.546 28.2055C102.678 28.2055 104.457 29.9505 104.457 32.0663H108.781C108.781 27.5396 104.962 23.8811 100.428 23.8811C95.8931 23.8811 92.0749 27.5564 92.0749 32.0663V32.3023C92.0749 33.7775 92.4626 35.1516 93.1622 36.357H91.468C89.4536 36.357 87.8268 34.7301 87.8268 32.7154V30.9705V30.9367V26.1908H83.5366V32.5299C83.5366 34.6627 81.7245 36.3486 79.592 36.3486C77.35 36.3486 75.4198 34.5362 75.4198 32.2939V19.3965H70.8262V32.2265C70.8262 36.8544 74.8467 40.5803 79.4403 40.5803C82.3735 40.5803 84.3879 39.4592 85.6944 37.7648C86.8828 39.5097 88.8298 40.5803 91.2573 40.5803H95.6992V39.1557C97.0057 40.0745 98.6324 40.5803 100.377 40.5803H108.528C113.155 40.5803 116.881 36.846 116.881 32.2265V26.2077H112.59L112.582 32.1759Z" fill="black"/>
<path d="M61.6809 26.8903C63.7628 26.8903 65.4654 28.433 65.7014 30.4477H69.9916C69.7556 26.0895 66.2577 22.5996 61.8073 22.5996C57.2137 22.5996 53.3112 26.334 53.3112 30.9534V31.0715C53.3112 33.2716 54.1625 35.2442 55.5532 36.7025C52.9741 37.9417 51.9963 39.9564 51.8193 42.0722C51.5496 44.854 53.0921 47.6358 56.059 48.9508C58.8067 50.1394 63.7881 50.8138 69.1234 48.1837L68.2721 43.9436C63.5268 46.6074 55.3257 46.3376 55.9157 41.9795C56.1854 39.8973 58.6128 39.3494 61.1667 39.3494C62.7092 39.3494 65.0777 39.3157 65.0777 39.3157H69.1656V34.9491H61.4027C59.2703 34.9491 57.5845 33.2547 57.5845 31.1305V30.9787C57.6267 28.7027 59.4389 26.8903 61.6809 26.8903Z" fill="black"/>
<path d="M56.6144 8.61555C56.6144 7.07291 57.8534 5.83375 59.3959 5.83375C60.9383 5.83375 62.1773 7.07291 62.1773 8.61555V16.9947H66.3495V8.20249C66.3495 4.61144 64.3014 2.36914 61.0479 2.36914C57.491 2.36914 55.7463 5.06664 55.7463 5.06664V2.81591H52.3242V16.9862H56.6144V8.61555Z" fill="black"/>
<path d="M90.0937 8.61555C90.0937 7.07291 91.3327 5.83375 92.8751 5.83375C94.4176 5.83375 95.6566 7.07291 95.6566 8.61555V16.9947H99.8625V8.20249C99.8625 4.61144 97.8143 2.36914 94.5609 2.36914C91.0039 2.36914 89.2592 5.06664 89.2592 5.06664V2.81591H85.8203V16.9862H90.1105L90.0937 8.61555Z" fill="black"/>
<path d="M108.669 5.59741C111.063 5.59741 112.875 7.46037 112.875 9.88812C112.875 12.3159 111.063 14.1788 108.669 14.1788C106.275 14.1788 104.463 12.3159 104.463 9.88812C104.463 7.42665 106.275 5.59741 108.669 5.59741ZM108.29 17.5086C109.916 17.5086 111.375 17.0028 112.58 16.0334L113.347 15.4096V17.0365H116.904V2.74817H113.431V4.49312L112.63 3.8356C111.442 2.83247 109.933 2.29297 108.273 2.29297C106.14 2.29297 104.219 3.06007 102.853 4.42568C101.496 5.81658 100.721 7.74698 100.721 9.90498C100.721 12.0714 101.454 14.0271 102.853 15.418C104.227 16.733 106.157 17.5086 108.29 17.5086Z" fill="black"/>
<path d="M34.5315 0H9.65846C4.35682 0 0.117188 4.29072 0.117188 9.54242V34.4184C0.117188 37.7397 1.81135 40.6396 4.35682 42.3845L4.39053 42.4182C5.89926 43.4214 7.71143 43.9946 9.6416 43.9946H34.5231C39.8247 43.9946 44.0644 39.7039 44.0644 34.4522V9.58456C44.1065 4.29072 39.8331 0 34.5315 0Z" fill="black"/>
<path d="M34.4987 33.2642C33.344 33.3485 32.1387 33.3485 30.9081 33.2305C30.7901 33.5002 30.6046 33.7362 30.4023 33.9639H30.4361C31.2368 34.0481 32.0628 34.0819 32.8635 34.0819C33.4535 34.0819 34.052 34.0481 34.642 33.9976C34.6167 33.77 34.5324 33.5002 34.4987 33.2642Z" fill="#ABFF01"/>
<path d="M26.3056 34.9242C25.9516 36.3151 25.5049 37.6723 24.9149 38.9789C24.1479 40.7913 23.2207 42.5025 22.1334 44.1126H9.50723C7.54335 44.1126 5.72275 43.5225 4.20559 42.5363L4.17188 42.5025C5.71432 42.2328 7.13877 41.7017 8.61379 40.7239C13.6794 37.4363 16.0226 31.4512 16.1406 30.6504C16.6126 31.6198 17.4471 32.3448 18.5681 32.6651C18.6018 32.6651 18.6018 32.6651 18.6524 32.6988C19.2761 33.9717 20.3971 35.0085 21.8553 35.4469C23.3303 35.8684 24.8222 35.6492 26.0275 34.8568H26.0612C26.1539 34.8905 26.2382 34.8905 26.3056 34.9242Z" fill="#ABFF01"/>
<path d="M34.565 20.0544C34.2953 20.4759 33.798 20.712 33.2586 20.5602C32.7191 20.4085 32.3735 19.869 32.4578 19.3211L30.7131 18.6973C30.2917 20.2399 31.2188 21.8668 32.7613 22.3389C33.149 22.4569 33.562 22.4906 33.9497 22.4232C34.6071 22.3389 35.2562 22.0354 35.7282 21.5381C35.9642 21.302 36.1496 20.9986 36.3182 20.653L34.565 20.0544Z" fill="#ABFF01"/>
<path d="M20.3199 18.6964C21.8623 19.1685 23.489 18.2749 23.9948 16.766L22.132 16.3782C21.896 16.8503 21.3313 17.0695 20.8256 16.9177C20.3536 16.7997 20.0586 16.3782 20.0248 15.9483L18.1621 15.5605C18.1621 15.7629 18.1621 15.9146 18.1621 16.1C18.2464 16.8334 18.5498 17.5247 19.0808 17.9967C19.4264 18.3086 19.8647 18.5447 20.3199 18.6964Z" fill="#ABFF01"/>
<path d="M30.3264 28.9399C31.2115 29.4794 31.5992 30.2465 31.6835 30.4151C33.1079 28.7882 34.3806 26.5037 35.1561 24.1603C33.6811 24.3963 31.9869 23.8062 30.9839 22.7356C31.1356 20.839 29.02 19.7684 29.7954 17.9391L38.2915 20.3416C38.713 18.7652 38.3253 17.172 37.3728 15.9834C36.9851 15.5114 36.1338 14.6768 34.9116 14.3565C34.9116 14.3565 35.8809 14.0868 36.9935 14.4745C39.0417 13.817 40.6347 10.7739 41.1152 8.57375C41.1152 8.57375 37.297 7.77293 33.9761 11.1195C31.9616 8.18598 28.1771 7.17442 24.9405 8.72548C23.6678 3.86155 20.4143 3.5918 20.4143 3.5918C19.5293 5.75823 19.7232 7.91623 20.33 9.84663C21.805 9.88035 22.4962 10.7655 22.4962 10.7655C21.6112 10.5294 20.8695 10.5294 19.9844 10.7992C18.796 11.187 17.085 12.4936 16.6298 14.1205L25.1259 16.582C24.7719 18.4786 22.3445 18.2426 21.4847 19.937C20.0603 20.291 18.3493 19.8527 17.2451 18.8495C16.7057 21.1593 16.3938 23.5955 16.8911 25.6102C16.8911 25.6102 17.6581 25.1044 18.7033 25.1381H18.737C17.4643 25.6776 16.5371 26.9505 16.5371 28.4257C16.5371 30.3898 18.1133 31.983 20.094 31.983H20.1277C21.5522 31.983 22.7912 31.0979 23.3306 29.8503C23.4149 29.6986 23.4486 29.4962 23.5329 29.3445C24.2241 27.3298 25.0417 24.1687 25.1091 24.0085C25.4631 22.9211 25.3114 22.0444 23.3643 21.1593L23.6678 20.468C24.9405 21.0918 25.6822 21.7746 25.9098 22.6345C26.5672 22.0444 27.5365 21.9432 28.961 22.1624L28.843 22.9295C26.7105 22.5755 26.1458 23.1655 25.7918 24.3204C25.7075 24.5564 24.2156 29.1506 24.0471 29.9515C23.9628 30.2549 23.8954 30.609 23.8954 30.9209C23.8954 32.885 25.4715 34.4782 27.4523 34.4782C29.4161 34.4782 31.0092 32.9018 31.0092 30.9209C30.9754 30.2128 30.7479 29.5131 30.3264 28.9399Z" fill="#ABFF01"/>
<path d="M16.2581 26.6886C15.3394 25.9974 14.7831 25.5 14.5977 25.382C17.9523 20.8553 7.95589 18.7394 6.29543 16.4634L6.26172 16.4297C6.26172 16.4297 6.26172 16.4634 6.29543 16.514C7.45016 19.3295 6.21115 23.4685 8.75661 25.6349C10.1811 26.8235 12.0775 27.1101 13.502 26.3262C11.4201 24.8172 8.79032 21.3779 7.93903 19.4138C7.93903 19.4138 11.7235 24.0417 14.0414 25.9384C14.1931 26.0901 14.8927 26.6718 15.9379 27.4473C16.039 27.1944 16.1401 26.9247 16.2581 26.6886Z" fill="#ABFF01"/>
</svg>
