<?xml version="1.0" encoding="utf-8"?>
<!-- Generator: Adobe Illustrator 24.0.1, SVG Export Plug-In . SVG Version: 6.00 Build 0)  -->
<svg version="1.1" id="Layer_1" xmlns="http://www.w3.org/2000/svg" xmlns:xlink="http://www.w3.org/1999/xlink" x="0px" y="0px"
	 viewBox="0 0 1000 1000" style="enable-background:new 0 0 1000 1000;" xml:space="preserve">
<g>
	<path d="M999,290.5c0,22.9,0,42.7,0,65.5c-116.8,0-232.2,0-350.9,0c0-20.9,0-41.6,0-65.5C763.4,290.5,878.9,290.5,999,290.5z"/>
	<path d="M440.2,726.2c2.1,15.9,2.1,32.1,0,48V726.2z"/>
	<path d="M999,717.9v65.6H511.8c3.2-21.9,3.1-43.8-0.1-65.6H999z"/>
	<path d="M893.3,74.2c0,24,0,43.8,0,66.6c-82.4,0-163.2,0-246.1,0c0-22.7,0-43.5,0-66.6C729.1,74.2,809,74.2,893.3,74.2z"/>
	<path d="M647.3,568.6c0-22.6,0-43.4,0-66.5c82,0,161.7,0,244.5,0c0,22,0,42.7,0,66.5C810.9,568.6,729.9,568.6,647.3,568.6z"/>
	<g>
		<path d="M511.7,717.9c-5.8-39-21.6-77.8-46.3-115.9c-13.6-21-22.4-49-23-73.9c-2.8-120.4,0.1-241-3.2-361.5
			c-2-72.7-42.3-124.8-109.1-151.3c-24.7-9.8-49-14.5-72.5-14.2c-23.5-0.3-47.8,4.4-72.5,14.2C118.3,41.7,77.9,93.9,75.9,166.6
			c-3.3,120.4-0.4,241-3.2,361.5c-0.6,25-9.4,52.9-23,73.9C-7.8,690.9-17,782.8,36,874.2c49.6,85.4,126.2,128.3,221.6,124.6
			c95.3,3.7,172-39.2,221.6-124.6c17.5-30.2,28.3-60.5,32.7-90.7C515,761.6,514.9,739.7,511.7,717.9z M394.4,872
			c-38,39.2-87.4,58-136.8,56c-49.4,2-98.8-16.9-136.8-56c-59.9-61.8-64.6-171.3-4.8-235.4c24.2-26,30-51.6,29.7-84.2
			c-1.1-120.5-0.7-240.9-0.4-361.4c0.2-69.9,41.5-116.3,103.8-117.8c2.8-0.1,5.6,0,8.4,0.1c2.8-0.1,5.6-0.2,8.4-0.1
			c62.2,1.5,103.6,47.9,103.8,117.8c0.3,120.5,0.8,240.9-0.4,361.4c-0.3,32.6,5.5,58.2,29.7,84.2c23.2,24.8,36.7,56.5,41,89.5
			c2.1,15.9,2.1,32.1,0,48C435.4,810.6,419.9,845.6,394.4,872z"/>
		<path d="M148.6,751.2c69.8,0,136.6,0,203.3,0c5.2,55.7-39.6,104.3-96.7,106.8C198.8,860.4,149.8,812.9,148.6,751.2z"/>
	</g>
</g>
</svg>
