<?xml version="1.0" encoding="utf-8"?>
<!-- Generator: Adobe Illustrator 24.0.1, SVG Export Plug-In . SVG Version: 6.00 Build 0)  -->
<svg version="1.1" id="Layer_1" xmlns="http://www.w3.org/2000/svg" xmlns:xlink="http://www.w3.org/1999/xlink" x="0px" y="0px"
	 viewBox="0 0 1000 1000" style="enable-background:new 0 0 1000 1000;" xml:space="preserve">
<g>
	<path d="M991.2,997.9c-0.2,0.3-0.5,0.5-0.7,0.8H877.8c-0.5-0.1-0.9-0.3-1.4-0.4c-0.3-19.7-0.3-37.5-0.3-52.6
		c0-13.5,0.1-25,0.2-34.1c1.2-114.1-0.1-228.1-0.1-342.2c0-35.5,3.1-30.7-36.7-30.7c-174.2-0.1-348.3-0.1-522.5-0.1
		c-53.4,0-106.7-0.2-160.1,0.1c-25,0.1-25.5,0.5-25.5,23.8c-0.2,124.2-0.1,248.3-0.1,372.5c0,8.7,0.1,17.3,0,26
		c-0.2,16.8,0.7,25.4-5.6,31.7c-3.6,3.6-8.1,5.2-11.3,6c-10.1-0.1-18.1,0-23.1,0.1c-17.9,0.4-33.8,0.2-65.4-0.1
		c-7.2-0.1-13.3-0.2-18.1-4.1c-7.6-6.2-6.9-17.6-6.7-21.2c1-17.3-0.1-376.3-0.1-454.8c0-26,0.2-52-0.1-78
		c-0.2-14.4,7.9-21.1,22.6-21.8c11-0.5,22-0.1,33-0.1h447.2c155.3,0,310.7-0.1,466,0.1c28.6,0,29.2,0.4,29.2,25
		c0,41.3-0.3,399.5-0.1,501.8c0,14.8,0.1,24.3,0.1,26.6C999.1,977.1,999.4,988.7,991.2,997.9z"/>
	<path d="M87.3,157.1c28.9-28,53.8-52,78.6-76c34.4-0.5,68.7-1.5,103.1-1.6c89.3-0.2,178.6-0.6,268,0.4c19.4,0.2,32.7-4.8,43.3-19.3
		c29-39.6,72-56.4,121.7-58.6c42.2-1.8,84.6-0.9,126.9-0.4c32.4,0.4,46.7,12.2,47,40.4c0.7,75,0.6,150,0,224.9
		c-0.2,24.1-14.4,37.8-39.7,38.3c-48.6,0.9-97.2,1.8-145.7-0.6c-29.2-1.4-57.3-10.7-79.3-30.5c-8.9-8.1-19.5-15.1-26.5-24.4
		c-14.1-18.8-32.5-25.4-56.4-22c-21.8,3.1-39.2-3.6-53.3-19.7c-8.8-10-19.6-18.6-29.8-27.6c-31.5-28.1-24.7-31.3-56.7-1.4
		c-17.4,16.3-34.1,33.2-53.2,51.9c-24.8-23.8-46.8-44.4-68.1-65.5c-9.9-9.8-17.7-8.2-27,0.8c-17.3,16.7-35.2,32.9-53.2,48.9
		c-16.9,15-17.3,15-33.2,1C131,196.2,108.6,176.1,87.3,157.1z M791.6,157.1c0-14.3,0-28.7,0-43c0-1.4,0-2.9-0.2-4.3
		c-2.9-15.3-17.7-28.3-34.1-30.1c-23.3-2.5-31.4,1.2-41.5,18.9c-2.9,5-8.1,10.3-7.7,15.2c2.6,30.9-9.1,62.8,6.9,92.9
		c10.5,19.6,20,24.2,44.3,20.7c16.5-2.3,30.6-15.4,32-31.6C792.4,183,791.5,170.1,791.6,157.1z"/>
	<path d="M754.6,687H247.5c-20.4,0-37-16.6-37-37v-3.6c0-20.4,16.6-37,37-37h507.1c20.4,0,37,16.6,37,37v3.6
		C791.6,670.4,775,687,754.6,687z"/>
	<path d="M754.6,842.5H247.5c-20.4,0-37-16.6-37-37V802c0-20.4,16.6-37,37-37h507.1c20.4,0,37,16.6,37,37v3.6
		C791.6,826,775,842.5,754.6,842.5z"/>
	<path d="M754.6,995.8H247.5c-20.4,0-37-16.6-37-37v-3.6c0-20.4,16.6-37,37-37h507.1c20.4,0,37,16.6,37,37v3.6
		C791.6,979.2,775,995.8,754.6,995.8z"/>
</g>
</svg>
