<?xml version="1.0" encoding="utf-8"?>
<!-- Generator: Adobe Illustrator 24.0.1, SVG Export Plug-In . SVG Version: 6.00 Build 0)  -->
<svg version="1.1" id="Layer_1" xmlns="http://www.w3.org/2000/svg" xmlns:xlink="http://www.w3.org/1999/xlink" x="0px" y="0px"
	 viewBox="0 0 1207 1000" style="enable-background:new 0 0 1207 1000;" xml:space="preserve">
<g>
	<path d="M554.9,908c0-35.2,0-63.3,0-97.9c-110.6,0-219-4.4-326.9,1C29,820.9-5.1,753.9,1.5,585.6c5.4-137.5,0.6-275.3,1.3-413
		C3.3,77.9,56.2,24.7,151.1,23.9c115.6-1,231.3-0.2,351.1-0.2c-10,32.5-18.4,59.5-28,90.6c-100.3,0-199.7-0.2-299.1,0.1
		c-74.7,0.2-83.1,8.7-83.2,85.1c-0.2,144.9-0.2,289.8,0,434.8c0.1,77.2,8,85.2,82.4,85.2c286.2,0.1,572.5,0.1,858.7,0
		c37.6,0,58.8-1.7,69.6-13.3c29.6-23.6,21.9-109,25-170.5c26.2-22,52.4-44.1,78.6-66.1c-4.7,88.8-0.4,175.1-16.6,257.4
		c-11.1,56.3-66.3,82.7-126.7,82.9c-115.9,0.2-231.9,0.2-347.8,0.2c-19.7,0-39.3,0-63.4,0c0,32,0,60,0,97.9c37.4,0,76.2,0,115,0
		c32.7-0.1,63.7,11.7,57.7,47c-2.9,17.2-36.1,40.8-56.3,41.6c-110.4,4.1-220.9,2-331.4,1.8c-29.9-0.1-60.8-9.8-53.9-43.7
		c3.7-18.3,32.6-40.4,53.4-44.5C472.6,902.8,511.5,908,554.9,908z"/>
	<path d="M1100,192.1c-40.5-37.1-75.4-68.6-109.7-100.7c-22.9-21.4-39.4-47.3-13.2-74.9c26.1-27.5,51.9-13.4,74.7,9.6
		c41.9,42.5,83.9,84.9,126.8,126.4c29,28,30.8,56,2.7,84.6c-44.4,45.1-89.9,89.2-134.3,134.3c-23.3,23.7-46.5,26.6-70.1,2.1
		c-22.9-23.8-13.8-45.9,6.4-66.1C1019,271.9,1054.9,236.6,1100,192.1z"/>
	<path d="M657.6,192.6c45.4,42.9,79.6,74.9,113.5,107.3c22.5,21.5,39.9,45.1,12.1,74.2c-26.9,28.2-51,16.4-74.2-7.1
		c-41.9-42.5-84.3-84.6-126.8-126.5c-30.3-29.9-31.1-57.9,0.8-88.2c44.6-42.4,87.5-86.5,131-129.9c22.1-22,50.2-32.8,68.7-4.1
		c9.4,14.6,5.3,50.2-6.7,64.1C743,120.4,702.6,151.9,657.6,192.6z"/>
</g>
</svg>
