<?xml version="1.0" encoding="utf-8"?>
<!-- Generator: Adobe Illustrator 24.0.1, SVG Export Plug-In . SVG Version: 6.00 Build 0)  -->
<svg version="1.1" id="Layer_1" xmlns="http://www.w3.org/2000/svg" xmlns:xlink="http://www.w3.org/1999/xlink" x="0px" y="0px"
	 viewBox="0 0 500 500" style="enable-background:new 0 0 500 500;" xml:space="preserve">
<style type="text/css">
	.st0{fill:#6092B6;}
</style>
<g>
	<path class="st0" d="M395,135.2c0-17.8,0.1-35.5-0.1-53.3c-0.1-6-0.4-12.3-6.3-16.2c-3.8-2.6-7.7-5.4-12.4-5.4
		c-20.9-0.2-41.8-0.1-62.8,0c-4.9,0-8.8,2.8-11.3,6.6c-2.4,3.6-4,7.8-3.5,12.4c0.3,3.2,0.5,6.5,0.5,9.7c0,11.4,0,22.7,0,34.1
		c0,2.4-0.3,4.9,0.2,7.2c0.8,3.6,3.4,7.2,7.2,6.3c3.7-0.9,5.2-3.4,4.7-8.1c-0.3-2.7-0.3-5.3-0.3-8c0-3.2,1.7-4.5,4.9-4.2
		c1.6,0.2,3.2,0.4,4.8,0.4c19.5,0,38.9,0,58.4,0c3.4,0,4.5,1.1,4.4,4.6c-0.1,2.9-0.4,5.8-0.4,8.7c0,7.2,0.3,14.4,0.4,21.6
		c0,3.6-0.4,6.7-4.3,8.7c-2.2,1.1-3.8,3.7-5,6c-0.3,0.6-0.6,1-0.9,1.4l2.9,1.5c3.9-0.1,7.5-1.4,11-3c3.7-1.6,6.4-4,7.1-8.1
		c0.4-2.5,0.8-5,0.8-7.5C395.1,145.4,395,140.3,395,135.2z M310.8,74.4c1.5-2.6,3.7-4,6.9-3.1c16.3,0,32.6,0,48.9,0
		c1.5,0,2.9-0.1,4.4-0.3c3.9-0.3,7.3,1,10.5,3.1c1.9,1.3,2.7,5.2,1.5,7.1c-0.6,0.9-2,1.9-3,1.9c-12.1,0.2-24.3,0.2-36.5,0.2
		c-6.2,0-12.3-0.3-18.5-0.3c-2.8,0-5.7,0.3-8.5,0.4c-2.1,0.1-4.6,0.8-5.8-1.4C309.2,79.7,309.4,76.9,310.8,74.4z M383.4,102.5
		c-0.5,1.9-2.1,2.5-4.2,2.5c-10.1-0.1-20.3,0-30.4,0c0,0,0,0,0,0c-9.3,0-18.5,0-27.7,0c-1.9,0-3.7,0.2-5.6,0.4
		c-3.8,0.4-6-1.7-5.5-5.4c0.1-0.6,0.2-1.3,0.3-1.9c0-3.1,1.3-4.3,4.4-4.2c5.2,0.2,10.3,0.4,15.5,0.4c13.8,0.2,27.6,0.3,41.3,0.4
		c2.7,0,5.3-0.2,8-0.4c2.5-0.2,3.7,0.7,3.9,3.2C383.4,99.1,383.8,100.9,383.4,102.5z"/>
</g>
<g>
	<path d="M438.7,298.3c-3.5-4.3-7.1-8.5-10.5-12.8c-3.7-4.6-7.3-9.4-11.1-14c-4.3-5.3-8.8-10.5-13.3-15.7c-1.4-1.6-1.2-3.1,0.1-4.6
		c3-3.5,5.9-7.1,9-10.5c3.3-3.6,7-7,10.3-10.6c3.6-4,6.9-8.2,10.5-12.2c2.9-3.3,5.9-6.4,8.7-9.7c1.4-1.6,1.9-3.3,1.7-4.8
		c-0.1-0.7-0.6-2.2-2.9-3.9c-6-4.2-30.3-13.6-31.6-14.1c-19.1-7.6-38.3-15.2-57.4-22.9c-2.2-1.2-4-2-5.2-2.5
		c-5.8-2.4-8.8-3.3-14.4-5.4c-0.6-0.2-1.1-0.8-1.7-1c-2.7-0.9-5.5-2-8.3-2.4c-2.8-0.4-4,0.9-4.1,3.8c-0.2,4.3,4.1,8.9,9.3,10.5
		c2.6,0.8,5.1,2.2,7.7,3.3c0.7,0.3,1.5,0.5,2.3,0.8c5.3,1.9,10.6,3.8,15.9,5.7c0.2,0.1,0.4,0.3,0.6,0.4c1.6,0.7,3.2,1.4,4.8,2.1
		c4.5,1.9,9,3.7,13.6,5.6c1.9,0.8,3.8,1.7,5.7,2.5c2.1,0.9,4.2,1.7,6.3,2.5c1,0.4,2,0.9,3.1,1.3c4.8,1.8,9.6,3.6,14.4,5.4
		c0.4,0.1,0.7,0.5,1,0.6c1.9,0.8,3.7,1.5,5.6,2.3c1,0.4,2,0.5,3,0.9c2.9,1.2,5.8,2.4,8.6,3.7c1.4,0.6,2.8,1.3,4,2.2
		c2.4,1.7,2.6,2.5,0.8,4.7c-3.1,3.8-6.4,7.5-9.8,11.1c-5.2,5.7-10.4,11.3-15.6,16.9c-2.5,2.7-5.1,5.4-7.8,8c-1.4,1.4-3.1,1.6-4.7,0
		c-0.7-0.7-1.8-1-2.8-1.4c-4.9-1.7-9.7-3.3-14.6-5c-0.5-0.2-1-0.6-1.5-0.8c-1.8-0.8-3.5-1.6-5.3-2.3c-4.6-1.8-9.2-3.4-13.8-5.2
		c-2.6-1-5.2-2.1-7.8-3.1c-0.6-0.2-1.2-0.5-1.8-0.7c-4.8-2.1-9.6-4.3-14.5-6.2c-2-0.8-4.8-1.3-6.1,0.7c-1,1.5-0.6,3.9-0.6,6
		c0,0.7,0.7,1.5,1.3,1.9c2.7,1.7,5.5,3.3,8.3,4.9c1.3,0.7,2.8,1.3,4.2,1.9c1.5,0.6,2.9,1.3,4.4,1.8c4.7,1.7,9.3,3.4,14,5.1
		c0.3,0.1,0.5,0.4,0.8,0.5c1.5,0.7,3,1.6,4.6,2.2c5,1.9,9.9,3.8,14.9,5.6c0.2,0.1,0.3,0.1,0.4,0.2c0.8,0.9,1.5,1.8,2.2,2.7
		c-1,0.6-1.9,1.3-2.9,1.7c-4.6,1.8-9.2,3.3-13.8,5.1c-5,2.1-9.9,4.6-14.9,6.7c-4.4,1.9-9,3.4-13.5,5.2c-5.3,2.1-10.5,4.4-15.7,6.7
		c-2.3,1-4.6,1.9-6.9,2.8c-2.9,1.1-5.8,2.1-8.6,3.2c-5,2-9.9,4.1-14.9,6.1c-1.9,0.8-3.9,1.6-5.8,2.4c-2.7,1.1-5.4,2.1-8.1,3.2
		c-2.1,0.9-4.2,2-6.3,2.9c-3.8,1.6-7.6,3.2-11.3,4.8c-0.4,0.2-0.8,0.5-1.2,0.8c-2.5,1.9-5.9,2-8.7,0.5c-1.8-1-3.8-1.6-5.7-2.4
		c-2-0.8-4-1.7-6-2.5c-1.2-0.5-2.4-1-3.6-1.4c-4.7-1.8-17.8-7.1-19.6-7.9c-2.1-0.9-9.3-3.6-10.8-4.3c-1.6-0.7-32.8-13.5-32.8-13.5
		c-2.7-0.9-27.3-10.9-29.9-12c-2.3-1-4.6-1.9-6.9-2.9c-0.2-0.1-0.4-0.2-0.5-0.3l-10.7-4.4c-0.4,0.2-8.9-3.8-5.9-7.5
		c1.3-1.6,1.9-3.4,0.5-5.1c-1.3-1.7-3.2-1.3-4.9-0.5c-2.1,1-4.2,2.1-6.2,3.3c-1.5,0.8-2.7,1-3.9-0.3c-1.9-1.9-3.8-3.9-5.7-5.8
		c-3.8-3.9-7.5-7.8-11.2-11.8c-5.5-6.1-10.9-12.2-16.4-18.3c-1.5-1.6-1.2-3.1,0.9-4c1.3-0.5,2.5-1,3.8-1.6c4-1.8,8-3.7,12.1-5.5
		c1.1-0.5,2.3-0.7,3.4-1.2c3.9-2,7.8-4.1,11.8-6c3.5-1.7,7.1-3.1,10.5-4.8c3.2-1.5,4.6-4.6,3.9-8.1c-0.6-2.7-1.9-3.8-4.5-3.1
		c-3,0.8-5.9,2.1-8.8,3.2c-1.8,0.7-3.6,1.3-5.4,2.1c-1.1,0.4-2.2,0.9-3.3,1.4c-4.1,2-8.2,4.1-12.3,6.1c-0.1,0.1-0.3,0.1-0.5,0.1
		c-4.2,1.7-8.4,3.3-12.5,5c-0.7,0.3-1.3,1-2,1.4c-0.8,0.5-1.5,0.9-2.3,1.2c-2.7,1.1-5.4,2-8,3.3c-4.4,2.2-5.3,7.3-2,11.1
		c2.5,2.8,4.9,5.6,7.3,8.3c1.7,1.9,3.5,3.6,5.1,5.5c4.1,4.6,8.2,9.3,12.4,13.9c3.9,4.4,8,8.7,12,13c1.6,1.7,1.7,4,0.3,5.8
		c-2,2.7-4,5.4-6.1,8.1c-2.4,3.2-4.7,6.3-7.1,9.5c-1.7,2.3-3.4,4.8-5.2,7c-3.6,4.6-7.3,9.2-11.1,13.7c-1.9,2.3-3.7,4.7-5.8,6.8
		c-3.6,3.5-3.7,8,0.7,10.3c4.8,2.6,10,4.3,15,6.3c1,0.4,2.2,0.4,3,1c2.7,2,6,2.2,9,3.5c6.3,2.6,12.5,5.6,18.6,8.6
		c0.6,0.3,1,1.6,1,2.5c0,24.6-0.1,49.1-0.2,73.7c0,5.4,2,7.7,7,9.4c5.5,1.9,11,4.2,16.4,6.3c0.2,0.1,0.3,0.2,0.4,0.2
		c4.3,2,8.5,4.1,12.9,5.9c4.8,2,9.8,3.6,14.7,5.5c2.2,0.8,4.2,2.1,6.3,2.9c4.7,1.9,9.4,3.6,14.2,5.4c0.2,0.1,0.4,0.3,0.6,0.3
		c1.9,0.9,3.8,1.8,5.7,2.6c4.7,1.9,9.5,3.6,14.2,5.4c0.1,0.1,0.3,0.1,0.4,0.2c4,1.9,8,3.9,12.2,5.6c5.4,2.2,10.9,4,16.3,6.1
		c1.7,0.7,3.2,1.8,4.9,2.5c4.6,1.8,9.3,3.5,14,5.2c0.5,0.2,1,0.6,1.4,1c3.6,2.9,11.5,3.2,15.4,0.6c1.5-1,3.1-1.6,4.7-2.3
		c1.3-0.5,2.6-0.8,3.9-1.4c4.5-2.1,9-4.3,13.5-6.4c1.4-0.6,3-0.7,4.4-1.3c4.5-2.1,8.9-4.4,13.5-6.3c5-2.1,10.1-3.8,15.2-5.7
		c0.4-0.1,0.7-0.3,1.1-0.5c4.8-2.1,9.5-4.3,14.3-6.4c0.6-0.3,1.3-0.2,1.9-0.4c0.8-0.3,1.6-0.7,2.4-1.1c2-0.9,3.9-1.8,5.9-2.6
		c1.2-0.5,2.4-1,3.6-1.5c1.8-0.8,3.5-1.6,5.3-2.3c1.7-0.7,3.5-1.2,5.2-2c4.6-2,9.2-4.1,13.9-6c4.6-1.9,9.3-3.6,13.9-5.5
		c5.4-2.2,10.7-4.5,16.1-6.5c2.1-0.8,3.6-1.8,4-4c0.3-1.7,0.7-3.5,0.8-5.3c0.1-3.7,0-7.5,0-11.2c0-19.9,0-39.7,0-59.6
		c0-1.2,0.4-2.8,1.2-3.4c2.2-1.7,4.6-3.3,7.2-4.4c4.6-2,9.3-3.5,14-5.3c0.3-0.1,0.6-0.3,0.9-0.4c2.5-1,4.9-2,7.3-2.9
		c0.8-0.3,1.5-0.6,2.2-0.9c2.5-1,5.1-1.9,7.6-3.1c2.3-1.1,4.5-2.4,6.6-3.9c1.6-1.1,1.7-3.1,0.8-4.7
		C442,302.7,440.4,300.4,438.7,298.3z M97.3,319.5c-4.7-1.9-9.3-4.1-14-6.1c-1.2-0.5-2.4-0.9-3.6-1.4c-1.9-0.8-3.8-1.7-5.7-2.5
		c-0.9-0.4-1.9-0.8-2.8-1.3c-2.9-1.3-5.8-2.5-8.6-3.9c-1.5-0.8-1-2.1-0.1-3.1c3.1-3.6,6.3-7.1,9.4-10.7c1.3-1.5,2.3-3.3,3.5-4.9
		c3.4-4.6,6.7-9.3,10.2-13.8c2.8-3.5,5.8-6.7,9-9.8c0.6-0.6,2.2-0.9,3.1-0.7c2.4,0.7,4.6,1.8,6.9,2.8c0.2,0.1,0.4,0.3,0.6,0.4
		c4.7,1.7,9.3,3.5,14,5.2c4.7,1.7,9.3,3.5,14,5.3c2.5,1,5,2.1,7.5,3.2c4.6,2,9.2,4.1,13.8,6.1c2.2,0.9,4.5,1.4,6.6,2.3
		c4.7,1.9,9.3,4.1,13.9,6c1.8,0.8,3.9,1.1,5.7,1.9c4.6,2,9.1,4.4,13.8,6.3c4.8,2,9.8,3.6,14.7,5.4c0.6,0.2,1.2,0.4,1.8,0.7
		c2.7,1.1,5.7,2,8.2,3.5c3.6,2.2,7.6,3.3,11.5,4.9c2.9,1.2,2.8,3.3,0.5,5.3c-2.3,2-4.2,4.4-6.2,6.8c-4,4.9-8.1,9.8-12,14.9
		c-3.6,4.7-7.1,9.5-10.6,14.4c-1.4,1.9-3.1,3-5.8,3.4c-1.1-0.6-2.6-1.3-4-1.9c-2-0.9-4-1.6-6-2.4c-1.8-0.8-3.5-1.6-5.3-2.4
		c-1-0.4-2.1-0.8-3.1-1.2c-2-0.8-4-1.7-5.9-2.6c-0.3-0.1-0.5-0.4-0.8-0.6c-4.8-1.8-9.7-3.6-14.5-5.4c-0.4-0.1-0.8-0.2-1.2-0.3
		c-4.7-2-9.4-4.1-14.1-6.2c-0.1-0.1-0.3-0.2-0.4-0.2c-4.8-1.8-9.5-3.5-14.2-5.4c-5-2.1-10-4.4-15-6.6c-0.1-0.1-0.3-0.2-0.4-0.2
		C106.8,323,102,321.4,97.3,319.5z M238.2,418.6c-0.1,11.4-0.3,22.9-0.5,34.3c0,1.3,0.3,2.6,0.2,3.9c0,0.9-0.3,2.1-0.9,2.4
		c-0.7,0.3-2.2,0.2-2.6-0.4c-1.8-2.3-4.4-2.4-6.8-3.3c-5-1.8-9.7-4.3-14.6-6.3c-4.4-1.8-8.8-3.5-13.3-5.2c-0.2-0.1-0.5-0.1-0.7-0.2
		c-5.1-2.2-10.2-4.4-15.3-6.6c-0.8-0.3-1.5-0.6-2.3-0.9c-2.8-1.2-5.5-2.4-8.2-3.4c-1.7-0.6-3.6-0.8-5.3-1.6c-4.7-2-9.2-4.1-13.9-6.2
		c-0.4-0.2-0.7-0.4-1.1-0.5c-3.1-1.3-6.2-2.7-9.4-3.9c-4.6-1.7-9.3-3.2-13.8-5.1c-4.9-2-9.7-4.4-14.5-6.6c-1.3-0.6-2.7-1.3-4.1-1.5
		c-4-0.7-5-3.7-5-7c0-10,0-19.9,0-29.9h0c0-10,0-20.1,0-30.2c0-3.8,0.7-4.5,4.3-3.1c6.1,2.3,12,5,18.1,7.5c1.4,0.6,3,0.6,4.4,1.2
		c4.6,2,9.2,4.2,13.8,6.2c1.2,0.5,2.5,0.8,3.6,1.3c2.7,1.1,5.3,2.2,8,3.3c1.3,0.5,2.8,0.6,4.2,1.2c4.7,2,9.4,4.1,14,6.2
		c0.1,0.1,0.3,0.2,0.4,0.3c4.7,1.9,9.3,3.7,13.9,5.6c1.3,0.5,2.6,0.9,3.7,1.7c4.3,3.2,8.2,3,11.7-1c2.8-3.2,5.2-6.8,7.9-10.1
		c3.2-4,6.5-8,9.7-12c2.1-2.7,4.1-5.5,6.2-8.3c1.7-2.3,3.4-4.7,5.2-7c0.3-0.4,1.1-0.9,1.4-0.8c0.5,0.2,1,0.9,1,1.4
		c0.1,2.1-0.1,4.2,0,6.3c0.1,7.6,0.4,15.2,0.4,22.8c0.1,7.7,0,15.4,0,23.1C238.3,397,238.3,407.8,238.2,418.6z M380.5,404.7
		c-2.7,1.2-5.5,2.3-8.2,3.5c-1,0.5-2,1-3,1.5c-0.6,0.3-1.2,0.9-1.9,1.1c-5,1.9-10,3.7-14.9,5.5c-0.8,0.3-1.4,0.8-2.1,1.1
		c-1.8,0.8-3.6,1.6-5.5,2.4c-0.4,0.2-0.8,0.1-1.2,0.3c-4.3,1.9-8.5,3.7-12.8,5.6c-0.5,0.2-1,0.6-1.5,0.8c-5,1.9-10.1,3.7-15.1,5.5
		c-0.1,0-0.2,0-0.2,0.1c-4.2,1.9-8.5,3.8-12.7,5.8c-1.3,0.6-2.6,1.2-4,1.8c-2.1,0.9-4.1,1.9-6.2,2.7c-4.9,2-9.8,3.9-14.8,5.8
		c-0.2,0.1-0.5,0.1-0.7,0.2c-3.5,1.5-7.1,2.9-10.6,4.6c-3.5,1.7-6.9,3.7-10.4,5.5c-1.8,0.9-3.2,0.1-3.1-1.7
		c0.1-3.5,0.2-6.9,0.2-10.4c0-12.5,0-25,0-37.4c0-22.7,0.1-45.4,0-68.1c0-2.1-0.4-4.2-0.4-6.3c0-0.8,0.6-1.7,0.9-2.5
		c0.8,0.5,1.8,0.8,2.4,1.4c1.3,1.5,2.4,3.3,3.6,4.9c3.2,4.5,6.3,9,9.6,13.3c5.2,6.7,10.5,13.2,15.9,19.7c2.6,3.2,7.5,3.5,10.9,1
		c1.4-1,3.1-1.7,4.6-2.5c1.6-0.8,3.3-1.6,5-2.4c0.4-0.2,0.6-0.5,1-0.6c4-1.6,8.1-3.2,12.1-4.7c4.7-1.8,9.5-3.2,14.1-5.2
		c4.3-1.8,8.3-4.2,12.5-6.1c4.6-2,9.4-3.7,14.1-5.5c1.1-0.4,2.2-1,3.3-1.5c1.6-0.7,3.3-1.4,4.9-2.1c1.9-0.8,3.7-1.6,5.6-2.3
		c2.7-1,5.4-2.2,8.2-2.8c2.5-0.5,2,1.9,2.6,3.6c0,19.8,0,39.9,0,60C382.9,402.5,382.4,403.9,380.5,404.7z M424.5,305
		c-1.1,0.8-2.3,1.4-3.6,1.9c-5,1.9-10,3.6-14.9,5.7c-4.3,1.8-8.5,4-12.7,6c-0.1,0-0.1,0.1-0.2,0.1c-4.6,1.8-9.3,3.6-13.9,5.4
		c-1.1,0.4-2.3,0.9-3.4,1.3c-2.5,1-5,1.9-7.4,2.9c-0.8,0.3-1.6,0.8-2.4,1.1c-2,0.9-4.1,1.7-6.2,2.6c-2.6,1.1-5.2,2.4-7.9,3.5
		c-5.8,2.5-11.7,5-17.6,7.3c-4.8,1.9-9.6,3.7-14.4,5.6c-2.2,0.9-4.1,2.2-6.3,3c-4.5,1.8-9.1,3.3-13.6,5.1c-1.4,0.5-2.6,1.6-4,2.3
		c-1.1,0.6-2.3,1-4,1.6c-1.4-1-3.1-1.7-4.1-2.9c-2.9-3.4-5.6-7.1-8.3-10.7c-3.9-5.1-7.6-10.4-11.5-15.5c-2.9-3.9-6.1-7.5-9.1-11.4
		c-2.3-3-1.7-4.6,1.8-6c5-2.1,10-4.4,14.9-6.6c0.5-0.2,1.1-0.4,1.6-0.6c5.7-2.1,11.4-4.1,17-6.4c4.8-1.9,9.5-4.2,14.3-6.1
		c4.9-2,9.9-3.5,14.7-5.6c4.1-1.7,8.1-4,12.2-5.8c4.3-1.9,8.8-3.5,13.2-5.3c1.6-0.7,3.2-1.4,4.9-2c5.5-2.1,11.2-4.1,16.7-6.4
		c5.1-2.1,10.1-4.4,15.2-6.5c1.5-0.6,3.2-0.9,4.9-1.2c2.6-0.4,4.1,0.7,5.4,3c1.2,2.1,3.1,3.9,4.7,5.8c3,3.5,6,6.9,9,10.5
		c3.6,4.4,7.1,8.9,10.8,13.3c1.5,1.9,3.2,3.7,4.8,5.5C427.2,302.2,427.1,303.2,424.5,305z"/>
</g>
<g>
	<path class="st0" d="M209.6,189.2c0-8.9-0.2-17.8,0-26.7c0.1-4.9-1-9.1-3.8-13.2c-3-4.3-6.9-6.3-11.9-6.3
		c-20.2-0.1-40.4-0.1-60.6-0.1c-5.1,0-9.9,0.8-13.8,4.8c-3.5,3.6-6.5,7.2-6.4,12.6c0,2,0,3.9,0,5.8c0.1,13.3,0.3,26.6,0.4,39.8
		c0.1,14.2,0,28.4,0.1,42.6c0,1.5,0.7,2.9,1.1,4.3c0,0,0,0,0,0l9.4,3.6c0-0.1,0.1-0.2,0.2-0.4c0.6-1.3,0.9-2.8,0.9-4.2
		c0-13.9,0-27.7,0-41.6c0-2-0.4-4-0.3-6c0-4.4,1.1-5.4,5.5-5.4c18.2,0,36.3,0.1,54.5,0.1c3.6,0,7.1-0.2,10.7-0.4
		c2-0.1,2.9,0.9,3.1,2.6c0.2,1.7,0,3.4,0,5.1h-0.3c0,17.6-0.1,35.2,0,52.7c0.1,7.1-2.2,9.8-9,12.1c-1.5,0.5-3.2,0.6-4.8,0.7
		c-3.8,0.3-7.3,1.1-10.2,3.7l16.2,6.2c3.6,0,7.1-0.6,10.2-3.1c4.5-3.7,8.7-7.6,8.8-14c0.1-5.3,0.4-10.7,0.4-16
		C209.9,228.8,209.7,209,209.6,189.2z M198.8,182.4c-0.1,6.3-0.2,6.4-6.4,6.3c-3.6-0.1-7.3,0-10.9,0c-7.9-0.1-15.7-0.3-23.6-0.3
		c-9,0-18,0.2-26.9,0.3c-1.1,0-2.3-0.2-3.4-0.3c-1.9-0.1-2.7-1.3-2.6-3.1c0-1.5,0-3,0.1-4.6c0.1-1.9,1.1-3,3-3.1c2.3,0,4.5,0,6.8,0
		h25.3v-0.1c7.7,0,15.4,0,23.1,0c3.7,0,7.5-0.2,11.2-0.4c3.4-0.2,4.4,0.7,4.4,4.1C198.9,181.6,198.8,182,198.8,182.4z M198.1,164.5
		c-0.4,0.9-2,1.6-3.1,1.7c-3.6,0.1-7.3-0.3-10.9-0.3c-11.9,0.1-23.8,0.3-35.7,0.4c-6.1,0.1-12.1,0.2-18.2,0.2c-1.8,0-4,0.4-4.8-1.8
		c-0.9-2.2-0.9-4.4,0.7-6.7c2.2-3.2,5-4.4,8.9-4.3c9.2,0.2,18.5,0.1,27.7,0.1v0h28.7C197.2,153.6,200.8,159.2,198.1,164.5z"/>
</g>
<path class="st0" d="M313,188.5c0.4-11.9,0.5-23.8-0.9-35.7c-0.3-2.8-1.7-4.9-3.9-6.1c-2.6-1.5-5.5-3.4-8.3-3.5
	c-10.7-0.5-21.3-0.4-32-0.5c-7.5,0-15.1,0.4-22.6,0c-5.1-0.2-10,0-14.9,1.2c-3.9,0.9-7,3.5-9.2,6.4c-2.7,3.5-4.3,7.8-4.2,12.5
	c0.1,6,0.4,12,0.4,18c0.1,13.5,0,26.9,0,40.4c0,13.9,0,27.7,0,41.6c0,4.1,1.6,7.7,4.2,10.6c4.2,4.6,9.7,7.4,15.8,8.3
	c4.1,0.7,8.4,1,12.6,0.9c11.3,0,22.5-0.4,33.8-0.4c6.1,0,12-0.8,17.6-3.2c6.2-2.7,10.8-6.9,11-14.2c0.3-7.7,0.4-15.4,0.5-23
	c0.2-14.7,0.3-29.3,0.4-44C313.2,194.6,312.9,191.5,313,188.5z M228.9,159.2c1.6-4.4,4.8-5.6,9.2-5.6c9.7,0.1,19.5,0,29.2,0v0
	c9.8,0,19.6,0,29.4,0c4.2,0,5.2,0.9,5.4,5c0.1,1.8-0.1,3.7-0.4,5.5c-0.3,1.6-1.5,2.2-3,2.2c-12.6-0.2-25.1-0.3-37.7-0.4
	c-7.2-0.1-14.4-0.1-21.6,0c-1.9,0-3.7,0.3-5.6,0.4c-2,0.2-3.7-0.3-4.9-2C227.7,162.5,228.3,160.9,228.9,159.2z M301.6,253.2
	c0,3.5,0,6.9,0,10.4c0,2.3-1.5,3.3-3.2,4.5c-5.4,3.9-11.7,3.4-17.8,3.7c-6.3,0.3-12.7,0.1-19,0.1v0.1c-6.3,0-12.5-0.2-18.7,0.1
	c-4.9,0.2-8.8-1.9-11.9-5c-1.6-1.6-2.1-4.7-2.4-7.1c-0.4-3.4-0.1-6.8-0.1-10.2c-0.2-14.6-0.4-29.2-0.5-43.8c0-0.7,0-1.5,0-2.2
	c0-4,1.3-5.1,5.3-5.1c15,0.2,30,0.3,45,0.3c6.7,0,13.4-0.3,20.2-0.5c2.8-0.1,3.6,0.7,3.6,3.8C302,219.2,301.8,236.2,301.6,253.2z
	 M302.1,183.5c-0.2,4.4-0.3,4.7-4.7,4.7c-10.6,0-21.2,0-31.8,0c0,0,0,0,0,0H234c-0.9,0-1.8,0-2.7-0.1c-0.6-0.1-1.4-0.2-1.8-0.6
	c-2.6-2-1.1-4.8-1.2-7.3c0-0.9,1.3-2.3,2.3-2.6c1.5-0.5,3.2-0.3,4.8-0.3c20.1,0,40.2,0.3,60.3-0.2
	C302.4,177.1,302.3,178.6,302.1,183.5z"/>
<path class="st0" d="M289.9,61.7c0-4.6-1.7-8.6-4.5-11.8c-3.5-4.1-8.2-6.4-14.1-6.4c-19.8,0.2-39.6,0-59.4,0.2c-3,0-6.2,0.6-8.9,1.8
	c-6.9,3.1-9.6,9-9.6,16.3c0.1,19.1,0,38.1,0.1,57.2c0,4.7,0.3,9.4,0.9,14c0.6,4.1,3.6,5.2,6.9,2.9c1.9-1.3,3.2-3,3.2-5.4
	c0-8.3,0-16.5-0.1-24.8c-0.1-4,0.8-5.2,4.7-5.1c9.7,0.1,19.4,0.4,29.1,0.4c11.6,0,23.2-0.2,34.8-0.3c3.4,0,5.6,1.5,5.5,4
	c-0.2,5.3-0.5,10.7-0.7,16c-0.1,3.1,0,6.3,0.3,9.4c0.3,2.7,2.6,4.4,5.2,4.5c3.9,0.1,6.3-2.4,6.3-6.7c0.1-11.1,0-22.2,0-33.3h0
	C289.9,83.6,289.8,72.7,289.9,61.7z M273,89.4c-6.7,0-13.5,0-20.2,0V89c-7.9,0-15.9-0.1-23.8,0c-6.8,0.1-13.6,0.4-20.4,0.7
	c-2.1,0.1-3.7-1-3.9-3.4c-0.2-1.9-0.1-3.9,0.1-5.8c0.2-2.1,1.7-2.8,3.6-2.8c19,0.2,38,0.3,56.9,0.4c2.3,0,4.7-0.1,7-0.3
	c4.2-0.4,5.8,1.3,6.2,6.6C278.8,87.4,276.6,89.4,273,89.4z M274.1,67c-2.7,0.1-5.3-0.1-8-0.1c-13.1,0.1-26.2,0.3-39.4,0.5
	c-5.9,0.1-11.8,0.1-17.7,0.1c-3.3,0-4.2-0.8-4.2-4.1c-0.1-6.2,2.7-9.1,9-9c9.1,0,18.2,0,27.2,0c0,0,0,0,0,0c9.1,0,18.3,0.2,27.5-0.1
	c4.5-0.1,7.3,2.3,9.5,5.6C280.3,63.4,278.3,66.9,274.1,67z"/>
<path d="M307.5,425.5c-6.3,2.4-12.5,5.1-18.8,7.5c-1.7,0.7-3.7,0.8-5.3,1.6c-4,1.9-7.8,4.1-11.8,6c-1.5,0.7-3.2,1-4.8,1.5
	c-3.2-0.3-4.2-1.1-5.2-3.8c-0.6-1.7,0.6-5.4,2.4-6.4c3-1.6,6.2-3.1,9.3-4.5c4.6-2.2,9.3-4.4,14-6.5c0.6-0.3,1.2-0.4,1.8-0.7
	c2.3-1,4.4-2.3,6.8-3c3.4-1.1,7-2.1,10.5-2.5c3.2-0.3,5,1.5,5.3,3.9C312.1,421.6,310.2,424.5,307.5,425.5z"/>
<path d="M296,409.5c-1.9,2.3-3.9,4.4-7.1,4.7c-0.2,0-0.5,0.1-0.7,0.2c-4.6,2.2-9.3,4.2-13.8,6.7c-3.3,1.8-9.5,2.5-12,0.7
	c-1.6-1.1-2.1-2.6-1.4-4.2c0.8-1.6,1.7-3.7,3.1-4.5c3.9-2.1,8-3.7,12.1-5.4c0.7-0.3,1.6-0.3,2.3-0.6c3.7-1.7,7.4-3.5,11.1-5.2
	c0.6-0.3,1.4-0.4,1.7-0.5c3-0.1,4.2,1.8,5.4,3.7C297.7,406.7,297.1,408.2,296,409.5z"/>
<path d="M378.7,172.6L378.7,172.6l-0.6-0.2C378.3,172.5,378.5,172.5,378.7,172.6z"/>
</svg>
