<?xml version="1.0" encoding="utf-8"?>
<!-- Generator: Adobe Illustrator 24.0.1, SVG Export Plug-In . SVG Version: 6.00 Build 0)  -->
<svg version="1.1" id="Layer_1" xmlns="http://www.w3.org/2000/svg" xmlns:xlink="http://www.w3.org/1999/xlink" x="0px" y="0px"
	 viewBox="0 0 500 500" style="enable-background:new 0 0 500 500;" xml:space="preserve">
<style type="text/css">
	.st0{fill:#FFFFFF;}
	.st1{fill:#1671A2;}
</style>
<g>
	<path class="st0" d="M368.3,311c-9.7,0-19.3,0-29,0h57.5C387.3,311.1,377.8,311,368.3,311z"/>
	<path d="M473.3,359c-0.5-5.9-1.3-11.8-4.7-17c-2.5-3.9-4.5-8.1-7.3-11.8c-5.5-7.3-12.8-12.2-21.2-16c-4.9-2.2-9.7-3.2-14.9-3.2
		c-9.5,0-19,0-28.5,0s-19,0-28.5,0c-9.7,0-19.3,0-29,0h-29c-1.4,0-2.9,0.1-4.3,0c-1.9-0.1-3-1.1-3-3.1c-0.1-8.5-0.1-17.1-0.1-25.7
		c0-30.1,0-60.2-0.1-90.3c0-5.2-0.3-10.3-0.5-15.5c-0.1-2.8-1.8-4.8-4.6-5.3c-1.6-0.3-3.2-0.5-4.8-0.5c-15.3,0.1-30.5,0.3-45.8,0.3
		c-10.8,0-21.5-0.3-32.3-0.3c-11,0-22,0-33,0.1c-13.3,0-26.6,0.1-39.8,0c-3.8,0-6,1.2-7.1,4.8c-0.4,1.3-0.5,2.7-0.5,4
		c-0.1,6.5-0.1,13,0,19.5c0.2,31.1,0.3,62.2,0.5,93.3c0,4.5,0.2,9,0.5,13.5c0.2,3.9-0.8,5.1-4.7,5.1c-6.3,0-12.7,0-19-0.1
		c-11.4-0.1-22.9-0.5-34.3-0.3c-4.8,0.1-9.7,0.6-14.2,2c-4.6,1.4-9.2,3.3-13,6.5c-2.5,2.1-5,4-7.3,6.3c-4.3,4.3-7.5,9.3-10.3,14.7
		c-2.8,5.4-3.8,11.3-5.3,17.1c-1.7,6.4,0,12.8,2,19c0.8,2.6,1,5.4,2.2,7.8c1.9,3.8,3.9,7.6,6.6,10.8c3.7,4.4,7.7,8.8,12.4,12.2
		c3.9,2.8,9.1,3.9,13.5,6.1c5.5,2.7,11.3,2.8,17.1,2.8c61.5,0,122.9,0.1,184.4,0c27,0,54.1-0.3,81.1-0.4c14.7,0,29.5,0,44.2,0
		c9.7,0,19.3,0.3,29,0.3c3,0,6,0,8.9-0.7c7.5-1.7,14.9-3.9,21.3-8.4c6.1-4.2,11.6-9.1,15-15.9c1.5-3,3.2-5.9,4.7-8.9
		C473.2,374.7,474,366.8,473.3,359z M205.2,198h0.4c0-4.1,0-8.1,0-12.2c0-3.3,0.5-3.9,3.8-4c6.4-0.1,12.9-0.1,19.3-0.2
		c1.9,0,2.9,1,2.9,2.8c0,8.3-0.2,16.6-0.2,24.9c0,1.3,0.4,2.7,0.3,4c-0.1,1.1-0.6,2.3-0.9,3.4c-1.1-0.3-2.4-0.3-3.1-1
		c-3.5-3.4-7.6-4.3-12.2-3.3c-1.5,0.3-2.9,1.3-4.3,2.1c-0.9,0.5-1.6,1.4-2.4,1.8c-0.8,0.4-2.1,0.9-2.5,0.5c-0.6-0.5-1-1.7-1-2.6
		C205.1,208.8,205.2,203.4,205.2,198z M153.3,182.3c12.3,0.1,24.6,0,36.9,0c3.5,0,3.8,0.3,3.8,3.7c0,13.2,0,26.5,0,39.7
		c0,1.6,0.1,3.2,0.4,4.8c0.7,3.7,4.5,5.5,7.8,3.5c2.8-1.7,5.6-3.5,8.1-5.6c4.6-3.8,11.4-3.8,16.2-0.2c2.8,2.1,5.8,4.1,8.9,5.8
		c3.7,2.1,7.3,0.3,7.9-3.9c0.3-2.1,0.1-4.2,0.1-6.3c-0.2-12.8-0.3-25.6-0.5-38.4c0-2.4,0.9-3.5,3.3-3.5c10.6,0.1,21.2,0.2,31.8,0.3
		c2.7,0,5.4-0.3,8.1-0.3c4.4-0.1,5.2,0.8,5.2,5v26.2c0,6.7,0,13.4,0,20.1c0.2,23.6,0.3,47.3,0.5,71c0,5.9-0.5,6.5-6.5,6.4
		c-9.2-0.1-18.3,0-27.5-0.1c-10.5-0.1-21-0.3-31.5-0.3c-4.7,0-9.5,0.4-14.2,0.3c-16.1-0.1-32.2-0.3-48.3-0.4
		c-4.2,0-8.5,0.3-12.7,0.4c-3.5,0.1-4.3-0.5-4.4-4c-0.1-2.5,0.1-4.9,0-7.4c-0.2-36.6-0.3-73.2-0.5-109.9
		C146.1,182.3,146.1,182.3,153.3,182.3z M461.8,369.8c-2,9.7-6.4,18.2-14.3,24.7c-8.8,7.3-19.2,9.5-30,9.6
		c-25.3,0.4-50.5,0.1-75.8,0.1v0c-25.1,0-50.2,0-75.3,0c-60.5,0.1-121.1,0.2-181.6,0.4c-7.3,0-14.5-0.9-21.2-3.5
		c-6-2.3-11.3-6.1-15.5-11.4c-4.7-6-7.5-12.7-9.1-20.1c-1.9-8.6-0.1-16.6,3.5-24.4c2.3-5,5.1-9.8,9.4-13.4c3.5-3,7.4-5.3,11.7-7.3
		c5.9-2.8,12-2.8,18.1-2.8c16.5,0,33.1,0,49.6,0c50.8,0,101.5,0,152.3,0c25.8,0,51.5,0,77.3,0.1c8.7,0,17.4,0.3,26.1,0.3
		c6.1,0,12.2-0.3,18.3-0.3c7.2,0,14.5-0.2,21.6,0.6c4.7,0.5,9.4,2.2,13.7,4.2c6.6,3.2,11.8,8.3,15.4,14.6c3.1,5.7,6.1,11.6,6,18.4
		C462,363,462.5,366.5,461.8,369.8z"/>
	<path class="st1" d="M437.1,147.7c-0.7,0.1-1.3,0.1-2,0.1c-5.6,0-11.2,0-16.7,0c-5.2,0-6.2,1.3-6.3,6.4c-0.2,7.7-0.6,15.4-1.2,23
		c-0.3,3.7-0.7,7.5-1.6,11c-3.2,11.5-8.9,21.8-17.1,30.4c-7.1,7.4-15.5,13.1-25,17c-10,4.1-20.2,7.5-31.2,7.3
		c-4-0.1-5.5-1.3-5.6-4.9c-0.1-3.3,1.7-5.1,5.4-5.2c5.4-0.1,10.5-1.4,15.7-2.7c5.2-1.3,10.2-3,15-5.3c8-3.8,14.7-9.5,20.6-16.1
		c5.8-6.5,9.3-14.2,12.3-22.2c0.8-2.2,0.8-4.7,1.3-7c2.2-10.3,2-20.7,1.9-31.1c0-1.3,0-2.7,0.2-4c0.8-4.4,3.1-5.8,7.6-5.5
		c4,0.3,8.1,0,12.2-0.3c2-0.1,2.4-1.9,0.8-3.8c-2.2-2.5-4.6-4.9-6.9-7.4c-8-8.8-16-17.7-24-26.5c-2.1-2.3-3.9-2.5-6-0.2
		c-6.8,7.5-13.6,15.1-20.3,22.7c-3.3,3.7-6.6,7.3-9.8,11c-0.6,0.7-0.9,1.7-1.3,2.6c1,0.4,1.9,1.1,2.9,1.1c3.5,0,7,0,10.4-0.3
		c5-0.4,7.7,1.9,7.8,6.9c0,1.5,0,3.1,0,4.6v4.6c1.1,8.2-0.8,16.1-2.9,23.8c-0.9,3.2-2.6,6.4-4.7,8.8c-3.4,3.8-7,7.6-11.3,10
		c-5.2,2.9-10.7,5.8-17.1,5.7c-1.7,0-3.4,0.4-5.1,0.4c-3.2,0.1-4.9-1.3-5.1-4.1c-0.3-3.4,1.1-5.5,4.4-5.9c2.9-0.4,6-0.2,8.8-1.1
		c6.8-2.3,13.2-5.2,17.8-11.4c3.4-4.6,4.7-9.7,4.9-15.2c0.2-4.2,0.5-8.5,0.7-12.7c0.1-2.1-0.9-3.5-3-3.6c-2.1-0.1-4.2,0-6.3,0
		c-4.6,0-9.1,0-13.7,0.1c-2.5,0-5.6,0.1-6.2-2.7c-0.4-2.1,0.3-5.1,1.6-6.8c5.7-7.1,11.8-13.8,17.9-20.7c7.6-8.6,15.2-17.1,22.8-25.7
		c2-2.3,3.9-4.7,5.9-7c2.2-2.5,6-2.4,8.2,0.1c9.3,10.5,18.6,21,28,31.5c4.6,5.2,9.3,10.3,14,15.4c1.8,2,3.8,3.9,5.4,6
		C443.6,142.7,441.7,147,437.1,147.7z"/>
	<path class="st1" d="M275.9,348.9c-5.6-8.2-12.4-13.8-22.9-13.8c-3.3,0.6-6.9,0.5-9.9,1.8c-9.8,4-15.7,11.8-18.6,21.8
		c-1.5,5.3,0.1,10.2,2.2,15.2c3.9,9.5,11.5,14,20.5,16.6c7.5,2.1,14.7-0.3,20.8-4.4c4-2.7,7.5-6.5,10-10.6c1.9-3.2,2.4-7.6,2.4-11.5
		C280.4,358.5,279.1,353.6,275.9,348.9z M252.3,380.1c-10,0.5-18.1-8.1-17.3-18.4c0.6-8.4,7.4-16.4,17.6-16.1
		c8.8,0.2,18.4,7.1,17.3,17.2C270.5,374.6,262,379.7,252.3,380.1z"/>
	<path class="st1" d="M191.3,343.5c-3.1-3-6.9-5.9-11-7c-7.3-2-14.6-2.1-21.7,2.5c-5.6,3.6-9.9,8.3-12.3,14.1
		c-4.8,11.5-3.2,19.5,4.9,28.8c2.4,2.8,6.2,4.3,9.3,6.4c4.3,3,9.1,3.3,14.1,2.8c6.3-0.6,11.5-3.6,16.3-7.5
		c6.2-5.1,9.3-11.6,9.8-19.4C200.4,356,197,349,191.3,343.5z M172.4,380.8c-8.8,0.7-18.3-7.7-18.1-15.3c0.2-11.5,7.3-19.4,17-20
		c10.3-0.6,18.3,9.2,18.5,16.5C190.3,373,182.9,381.2,172.4,380.8z"/>
	<path class="st1" d="M359.2,362.7c-0.4-5-2-9.8-5.2-14.1c-5.1-7-11.3-11.9-20.2-12.8c-10.5-1.1-18.3,3.3-24.6,11.2
		c-2.8,3.6-3.8,7.8-5.1,12.1c-2,6.9-0.4,13.4,3.2,19c5.4,8.5,13.7,12.8,24.9,13.1c1.8-0.3,4.6-0.3,7-1.3c5.1-2,9.7-4.8,13.2-9.1
		C356.8,375.5,359.8,369.6,359.2,362.7z M348.5,363.6c-0.5,2.6-0.9,5.3-1.6,7.9c-2.2,7-14.7,10.9-21.6,7.7c-3.3-1.5-6.9-2.5-8.7-6.1
		c-1.9-3.9-2.6-7.9-2.2-12.3c0.6-6,3.6-10.3,8.8-13.1c5.3-2.8,11.1-3.3,16.3-0.2C345.2,351,348.8,356.3,348.5,363.6z"/>
	<path class="st1" d="M408.2,335.1c-15,0.5-27.3,11.9-27.2,27.3c0.1,17.1,10.9,27.2,27.8,27.8c13.5,0.5,27.8-10.5,27.4-26.7
		C437,349.6,422,334.6,408.2,335.1z M409.1,379.7c-10.2,0.2-18.8-7.6-18.1-16.9c0.8-9.8,7.1-17.5,18.7-17.2
		c8.6,0.3,15.8,8,15.8,17.2C426.3,373.2,417.4,379.5,409.1,379.7z"/>
	<path class="st1" d="M93,335.5c-13.3-0.8-27.2,12.9-27.4,28.1c-0.2,14.9,14.5,26.9,27.2,27.1c15.1,0.2,27.1-11.2,27.7-26.2
		C121.1,349.7,107.6,334.7,93,335.5z M92.7,380c-9.2-0.5-16.9-5.9-16.8-16.6c-0.3-10.8,8.2-17.4,17-17.7
		c10.5-0.4,17.5,8.4,17.6,16.3C110.6,372.3,102.9,380.5,92.7,380z"/>
	<path d="M214.3,294.7c-0.1,3.4-1.6,5.4-4.9,5.7c-2.9,0.3-5.9,0-8.8,0c-10.3,0.1-20.7,0.3-31,0.3c-2.9,0-5.8-0.1-8.6-0.5
		c-2.6-0.3-4-2.3-4.1-5.3c-0.1-3.2,1-4.8,3.9-5.3c1.8-0.3,3.7-0.4,5.5-0.5c4.5-0.1,9,0,13.5,0v0.4c9,0,17.9,0,26.9,0
		c1,0,2,0.1,3,0.3C213,290.7,214.3,292.1,214.3,294.7z"/>
	<path d="M195.3,281.3c-2.3,0.9-4.9,1.3-7.4,1.5c-3.4,0.2-6.8,0.1-10.2,0.1v-0.2c-4,0-8,0.1-11.9-0.1c-2-0.1-4.1-0.5-5.9-1.3
		c-2.9-1.2-3.7-5.1-1.4-7.2c1.5-1.3,3.8-2.5,5.8-2.6c9.1-0.1,18.3,0.1,27.4,0.5c1.6,0,3.3,0.8,4.6,1.8
		C199.1,275.9,198.5,280,195.3,281.3z"/>
</g>
</svg>
