<?xml version="1.0" encoding="utf-8"?>
<!-- Generator: Adobe Illustrator 24.0.1, SVG Export Plug-In . SVG Version: 6.00 Build 0)  -->
<svg version="1.1" id="Layer_1" xmlns="http://www.w3.org/2000/svg" xmlns:xlink="http://www.w3.org/1999/xlink" x="0px" y="0px"
	 viewBox="0 0 500 500" style="enable-background:new 0 0 500 500;" xml:space="preserve">
<g>
	<path d="M402.6,149c-0.1-4.5-0.7-9.1-0.8-13.6c-0.3-6.2-3-9-9.2-9.3c-4.1-0.2-8.2-0.7-12.3-1.3c-5.5-0.8-10.9-1.9-16.3-3
		c-5.3-1-10.5-2-15.7-3.3c-3.6-0.9-7-2.3-10.6-3.3c-2.5-0.8-5.2-1.2-7.6-2.1c-2-0.7-3.8-2.2-5.8-2.8c-6.3-1.9-12.5-4.1-18.4-7.2
		c-5.8-3.1-11.9-5.4-17.9-8.1c-1.4-0.7-2.7-1.7-4-2.5c-4.5-2.9-9.1-5.6-13.4-8.7c-4.7-3.4-9.6-6.8-13.6-11
		c-4.6-4.8-11.5-4.3-15.1-1.7c-3.1,2.2-5.9,4.7-9,6.9c-7.5,5.3-15,10.7-22.5,15.9c-2.2,1.5-4.7,2.4-7.1,3.6c-6,3.2-12,6.5-18.1,9.5
		c-4.3,2.1-8.7,3.8-13.2,5.5c-6.3,2.3-12.5,4.7-18.9,6.5c-6.4,1.8-13.1,2.7-19.5,4.5c-8.4,2.4-16.9,3.8-25.6,3.9
		c-6.1,0.1-9.4,3-10.3,9c-0.4,2.3,0,4.8,0,7.1v27.1c0.9,15.1,1.4,26.1,2.1,37c0.7,11,1.5,22.1,2.5,33.1c0.5,5.1,1.4,10.1,2.4,15.2
		c0.9,4.5,2,9,3,13.5c1,4.3,1.7,8.7,2.9,13c1,3.5,2.5,6.8,3.6,10.2c1,3.1,1.5,6.4,2.6,9.5c1,2.7,2.4,5.2,3.6,7.8
		c2.9,6.2,5.5,12.5,8.7,18.5c2.6,4.9,5.8,9.5,8.9,14.1c4.1,6,8.3,12.1,12.8,17.9c7.3,9.3,15.4,17.9,24.5,25.5
		c5.3,4.4,10.3,9.1,15.9,12.9c7.2,4.8,13.8,10.5,21.8,14c4.1,1.8,7.5,4.8,11.6,6.9c5.1,2.6,10.1,5.5,15.1,8.3
		c6.5,3.8,15.7,4.6,21.9-0.6c1.4-1.2,3.3-1.9,5-2.8c4.8-2.4,9.7-4.8,14.6-7.3c0.4-0.2,0.7-0.7,1.1-0.9c2.7-1.8,5.3-3.6,8-5.4
		c4.5-2.8,9.3-5.3,13.6-8.5c6.2-4.5,12-9.5,18-14.3c3.3-2.7,6.8-5.3,9.8-8.4c5.9-6,11.5-12.3,17.1-18.5c2.1-2.3,4.2-4.5,5.9-7
		c4.7-7,9.2-14,13.8-21.1c1.9-2.9,3.9-5.7,5.5-8.8c2.8-5.6,5.2-11.4,7.8-17c2.2-4.6,4.7-9,5.5-14.2c0.4-3,2-5.8,2.9-8.6
		c1-3,2.3-6,2.7-9.2c0.7-6,2-11.7,4.2-17.3c0.8-2,1.2-4.1,1.3-6.3c0.8-9.5,1.5-19.1,2.1-28.7c0.7-12.8,1.4-25.6,1.9-38.4
		c0.3-7.8,0-15.7,0.1-23.6C402.3,157.1,402.7,153,402.6,149z M383.9,186.2c-0.4,12.5-0.8,25.1-1.5,37.6c-0.3,5-1.6,9.9-2.3,14.9
		c-1,7.3-1.5,14.7-3.1,21.8c-1.8,8.5-4,17.1-6.9,25.3c-2.4,7.1-6.6,13.6-8.9,20.8c-2.1,6.5-6.3,11.5-9.1,17.5
		c-2.3,4.8-5.9,8.9-9,13.3c-1.9,2.8-3.8,5.5-6,8.1c-4.9,5.7-9.8,11.4-15,16.8c-3.6,3.7-7.6,7.2-11.6,10.5
		c-7,5.8-14.1,11.3-21.2,16.9c-1.1,0.9-2.4,1.5-3.6,2.2c-0.6,0.3-1.2,0.5-1.8,0.8c-5,3.1-9.9,6.2-14.9,9.2c-1,0.6-2.1,0.9-3.1,1.5
		c-2.8,1.4-5.6,2.8-8.3,4.4c-4.8,3-9.6,3.3-14.5,0.6c-6.1-3.3-11.8-7.3-18-10.2c-5.8-2.7-10.9-6.4-16.1-10
		c-7-4.9-13.8-10.2-20.3-15.7c-4.8-4-9.1-8.6-13.4-13.2c-4.5-4.7-9.1-9.4-13.3-14.4c-2.9-3.4-5.1-7.3-7.6-10.9c-0.9-1.4-2.1-2.6-3-4
		c-1.5-2.3-2.8-4.6-4.2-7c-0.6-1.1-1.2-2.2-1.8-3.3c-1.2-2.1-2.5-4.2-3.6-6.4c-1.4-2.8-2.9-5.5-4.1-8.4c-1-2.3-1.8-4.8-2.6-7.2
		c-0.9-2.5-1.7-5-2.5-7.5c-1.3-3.7-2.6-7.4-3.8-11.2c-0.8-2.4-1.4-4.9-2-7.4c-1.4-6.2-3-12.3-4.2-18.5c-1.5-7.9-2.8-15.8-3.9-23.7
		c-0.7-5-1.1-10-1.3-15c-0.4-10.7-0.7-21.5-1.1-35.6c0-4.2,0-11.8,0-19.3c0-2-0.2-4-0.4-5.9c-0.5-4.6,2.2-7.8,6.7-8.8
		c11.5-2.5,23.1-5.1,34.5-7.9c5.2-1.3,10.3-3,15.3-4.7c3.9-1.3,7.8-2.7,11.6-4.3c3-1.3,5.9-2.9,8.9-4.3c5.9-2.7,11.9-5.3,17.7-8.2
		c2.1-1,3.8-2.7,5.8-3.8c4.7-2.8,9.7-5.3,14.3-8.3c4.5-3,8.5-6.5,12.8-9.8c4-3,6.2-3,9.9,0.2c3.3,2.8,6.5,5.5,9.9,8.2
		c0.9,0.7,2,1.1,3,1.6c0.7,0.3,1.5,0.4,2.1,0.8c5.1,3,10,6.4,15.3,9.1c6.7,3.5,13.7,6.4,20.6,9.6c2,0.9,4,1.7,6,2.5
		c3.9,1.5,7.9,2.9,11.8,4.3c0.8,0.3,1.7,0.3,2.4,0.7c7.6,4.4,16.5,4.6,24.6,7.3c6.6,2.2,13.2,3.5,20,4.4c2.7,0.4,5.4,0.5,8.1,1.1
		c5.2,1,7.2,3.8,7.1,9.1C384.2,163.7,384.2,174.9,383.9,186.2z"/>
	<path d="M342.8,201.5c-0.3,3.9-2.6,6.2-4.8,8.4c-4.8,4.8-9.7,9.4-14.5,14.1c-4.5,4.6-8.9,9.3-13.4,13.9
		c-8.9,9.2-17.7,18.5-26.6,27.7c-7.4,7.6-14.9,15-22.2,22.7c-6.8,7.1-13.4,14.4-19.9,21.7c-3.5,4-11.3,4.3-15.1,0.5
		c-4.9-4.9-9.9-9.7-14.8-14.7c-6.8-7-13.5-14-20.1-21.2c-4.7-5.1-9.3-10.3-13.6-15.7c-1.6-2.1-2.7-4.7-3.4-7.3
		c-0.8-3,1.3-5.1,3.5-6.8c2-1.6,4.3-2.1,6.4-0.4c3.2,2.6,6.3,5.3,9.3,8.2c6.6,6.5,13.1,13,19.6,19.6c5.3,5.4,10.6,10.9,15.9,16.3
		c2.4,2.5,5.5,2.7,7.9,0.2c2.6-2.8,4.8-5.9,7.3-8.7c2.7-3,5.5-5.9,8.3-8.8c5.3-5.6,10.5-11.3,15.8-16.8
		c10.6-10.8,21.3-21.5,31.8-32.4c5.6-5.8,10.8-12,16.5-17.8c4-4,8.4-7.6,12.7-11.3c1.8-1.5,3.8-1.5,5.7-0.1c1.7,1.3,3.6,2.4,5,4
		C341.2,198.1,341.9,199.9,342.8,201.5z"/>
</g>
</svg>
