<?xml version="1.0" encoding="utf-8"?>
<!-- Generator: Adobe Illustrator 24.0.1, SVG Export Plug-In . SVG Version: 6.00 Build 0)  -->
<svg version="1.1" id="Layer_1" xmlns="http://www.w3.org/2000/svg" xmlns:xlink="http://www.w3.org/1999/xlink" x="0px" y="0px"
	 viewBox="0 0 500 500" style="enable-background:new 0 0 500 500;" xml:space="preserve">
<style type="text/css">
	.st0{fill:#1671A2;}
	.st1{fill:#FFFFFF;}
</style>
<g>
	<g>
		<path d="M445.3,406.3c-0.6-4.6-1.9-9.2-2.8-13.8c-0.3-1.6-0.6-3.1-0.9-4.7c-1.8-8.6-3.8-17.2-5.5-25.8c-0.7-3.3-0.7-6.7-1.4-10
			c-1.3-6-1.5-12-0.9-18c0.6-5.5,1.1-11,1.7-16.5c0.8-9.1,1.5-18.2,2.5-27.3c1.2-10.8,1.8-21.6-0.1-32.4c-1.7-9.9-3.5-19.8-5.2-29.8
			c-0.8-4.4-1.6-8.9-2.3-13.4c-0.9-5.6-1.2-11.4-2.7-16.9c-2.1-7.8-2.5-16.1-5.9-23.6c-1.5-3.3-2.7-6.9-4.6-10
			c-3.3-5.2-7.7-9.5-12.9-13c-3.6-2.4-4.3-6.1-1.8-9.7c1.5-2.3,3-4.7,4.4-7c1.3-2.2,3.1-4.3,3.8-6.8c1.7-5.6,4-10.9,4.3-17
			c0.6-11.3,0-22-6.7-31.8c-3.7-5.5-8.6-9.1-14.4-11.6c-11-4.8-21.9-1.7-32.8,1.2c-2.7,0.7-5.3,1.9-8,2.1c-5.7,0.5-11.5,1-16.8-2.5
			c-3.2-2.1-6.6-0.8-7.6,2.9c-0.8,2.9-0.6,6-0.8,9c-0.6,9.5,4.8,15.3,12.3,19.7c2.9,1.7,3.9,3.1,3.7,6.4c-0.2,3.8-0.4,7.5-0.5,11.3
			c-0.2,10.2,2.9,19.3,9.9,26.9c3.3,3.6,7.4,6.3,11.9,8.2c1,0.4,2.5,1,2.6,1.7c0.1,0.9-0.9,2-1.5,2.9c-1.9,2.8-4.3,5.3-5.6,8.3
			c-2.7,6.4-4,13.1-3.7,20.1c0.3,8.4,0.5,16.8,0.6,25.2c0,1.2-0.8,2.9-1.8,3.4c-2.8,1.3-5.8,2.2-8.7,3.2c-1.7,0.6-3.6,0.8-5.3,1.6
			c-3.5,1.6-4,1.5-4-2.5c0-11.7,0-23.4,0-35.1c0-7.5-1.1-8.6-8.5-8.6c-35.4,0.2-70.7,0.3-106.1,0.5c-15.1,0.1-30.3-0.1-45.4,0.1
			c-6.3,0.1-9.8,2.7-9.5,9.5c0.4,10.5,0.1,21,0.1,31.5c0,1.2,0.2,2.5,0.5,3.7c0.5,2.1-0.1,3.1-2.2,3.1c-1,0-2-0.3-2.9-0.6
			c-3.1-0.9-6.3-1.8-9.4-2.8c-2.9-1-5.8-2.1-8.6-3.3c-1.7-0.7-2.3-2.2-2-4c1.4-8.6,0.7-17.3,0.7-25.9c0-9.9-3-18.6-9.2-26.2
			c-1.7-2.2-1.2-4.3,1.1-5.4c2.1-1,4.2-2.1,6.2-3.1c9-4.6,13.5-12.7,15.4-21.9c1.3-6,0.9-12.6,0.1-18.8c-0.5-4.2,0.9-6.3,3.9-8.2
			c0.6-0.4,1.4-0.7,1.9-1.2c3-3.3,7.2-6.3,8.6-10.2c1.7-4.7,1.3-10.3,1.1-15.4c-0.2-4.2-2.4-5.4-6.6-4.8c-3.6,0.5-7.3,1.1-10.9,1.7
			c-5.5,0.9-11,0.2-15.9-1.7c-7.9-3-15.9-3.2-24.1-3c-5.9,0.1-10.6,3.1-15.3,6.2c-4.3,2.9-7,7.1-9.3,11.5c-1.8,3.5-3.2,7.3-3.8,11.1
			c-1.8,10.5,0.8,20.7,3.3,30.8c0.3,1,0.8,2,1.3,3c2.5,4.8,5.1,9.5,7.5,14.3c1.4,2.9,0.7,6-1.9,8c-2.2,1.8-4.6,3.3-6.7,5.3
			c-3.6,3.4-6.9,7.1-8.7,11.9c-1.8,4.7-4.1,9.2-5.3,14c-1.9,8.1-3,16.3-4.5,24.5c-0.3,1.9-0.5,3.8-0.9,5.7
			c-1.9,9.9-3.8,19.7-5.7,29.6c-0.5,2.9-0.6,5.9-1.4,8.7c-3.7,13-2.1,26.2-1.5,39.4c0.3,6.1,1.6,12.1,2.1,18.3
			c0.7,8,0.9,16.1,1.7,24.1c1,10.6-0.7,20.9-2.5,31.3c-0.6,3.9-1.5,7.7-2.3,11.6c-0.5,2.4-1,4.8-1.5,7.1c-0.5,2.4-1.1,4.7-1.6,7.1
			c-0.9,4-1.8,8-2.7,12c-0.2,1-0.5,2-0.6,3c-0.8,4.8-1.5,9.6-2.2,14.4c-0.2,1.4-0.4,2.9,0.1,4.2c2.1,5.6,5.7,9.5,12.1,10.3
			c5.1,0.6,10.2,1.5,15.2-0.3c1.7-0.6,3.6-2,4.3-3.5c2.4-5.1,4.7-10.4,6.3-15.8c3.1-10.3,5.7-20.6,8.6-31c0.1-0.3,0.2-0.6,0.3-1
			c1.8-6.8,3.9-13.5,5.2-20.4c1.4-7.8,1.9-15.8,2.9-23.8c0.1-0.8,0.8-1.5,1.2-2.3c0.6,0.7,1.5,1.3,1.7,2.1c0.8,2.4,1.4,4.8,2,7.3
			c1.5,6.2,3.4,12.3,4.3,18.6c1,6.6,0.8,13.4,1.4,20.1c0.8,10.4,1.8,20.7,2.9,31.1c0.3,3.2,0.5,6.6,1.4,9.7
			c1.9,5.9,5.8,9.7,12.3,10.3c1.2,0.1,2.3,0.6,3.4,0.7c8,0.7,17-1.7,17.9-11.4c0.1-1.3,0.2-2.5,0.2-3.8c-0.2-13.1-0.2-26.2-0.6-39.3
			c-0.5-15.7,0.6-31.4-4.3-46.7c-2-6.1-3-12.5-4.7-18.8c-2.2-8.2-4.6-16.3-6.9-24.4c-0.1-0.3-0.2-0.7-0.3-1c-3-6.5-3.4-13.2-2-20.2
			c1.1-5.8,1.8-11.7,2.7-17.6c0.3-2,1.4-2.4,3.3-2c7.2,1.5,14.5,2.8,21.7,4.3c2.6,0.5,3.4,2.1,3.2,5.1c-0.4,5.2-0.8,10.4-0.8,15.6
			c0,10.3,0.2,20.5,0.4,30.8c0.1,5.1,2.9,7.9,8,7.9c50.4,0,100.7,0,151.1,0c0.8,0,1.7,0,2.5-0.1c5.3-0.6,7-2.6,7-7.9
			c0-14.6,0-29.3,0-43.9c0-1.4,0-2.9-0.2-4.3c-0.5-2.5,0.7-3.3,2.8-3.8c5.7-1.3,11.4-2.6,17.1-4c2.6-0.6,3.8,0.2,3.8,2.9
			c0,1.3-0.2,2.7,0,4c0.9,6.1,1.9,12.1,2.9,18.2c0.7,4.2-0.1,8.1-1.5,12.1c-1.9,5.6-3.6,11.3-5.3,17c-1.7,5.8-3.1,11.6-4.8,17.5
			c-1.8,6.2-4.2,12.3-5.4,18.6c-1.4,7.2-2.1,14.6-2.4,22c-0.4,8.9-0.1,17.8-0.1,26.7c0,3.6,0,7.2-0.2,10.8
			c-0.2,7.5-0.7,14.9-0.7,22.4c0,5.5,4.1,10.3,9.3,11.9c5.2,1.6,10.2,1.1,15.3-0.5c3.9-1.2,6.4-3.6,8-7.1c2.4-5.2,3.2-10.7,3.6-16.3
			c0.9-13.4,2.2-26.8,3.2-40.2c0.4-6,1.6-11.8,3.2-17.5c1.6-5.5,2.7-11.1,4.1-16.6c0.1-0.5,0.5-0.8,0.7-1.3c0.3,0,0.6,0,0.8,0
			c0.2,1.2,0.5,2.3,0.6,3.5c0.1,2.9-0.2,5.9,0.3,8.8c1.7,9.1,3.5,18.3,5.6,27.3c1.4,6.3,3.2,12.5,4.9,18.7c0.2,0.7,0.5,1.4,0.8,2.1
			c0.7,2.1,1.4,4.3,2,6.5c1.5,5.6,2.9,11.2,4.4,16.8c0.1,0.3,0.3,0.6,0.4,0.9c0.8,2,1.5,4.1,2.3,6.1c1.7,3.8,3.7,7.1,8.2,8.1
			c5.9,1.3,11.9,1.3,17.4-0.9c3.7-1.5,7.6-4,7.7-8.8C446.4,417.8,446,412,445.3,406.3z M338.7,84.1c-0.6-0.9-0.2-2.5-0.3-3.8
			c1.1,0,2.3-0.2,3.3,0.1c3.9,1.1,7.7,1.3,11.7,0.2c6.5-1.8,13.1-3.8,19.7-5c4.5-0.8,9.2-0.7,13.8-0.3c7.1,0.6,14,7.1,16.3,14
			c1.6,4.7,3,9.3,2.4,14.3c0.3,0,0.5,0.1,0.8,0.1c-1.1,5.8-2.3,11.6-3.5,17.4c-0.1,0.6-0.9,1.1-1.4,1.6c-0.5-0.5-1.2-1-1.3-1.7
			c-0.7-3.4-2.3-6.2-4.9-8.6c-0.7-0.7-1.3-1.9-1.3-2.9c-0.1-5.1-2.9-8.9-5.8-12.5c-3.3-4.2-7.8-5.1-12.9-4.5
			c-6.8,0.8-13.7,2-20.5,1.6C348.1,93.8,342.4,90.1,338.7,84.1z M358.9,136.1c-2.1-3-3.8-6.2-4-10.1c-0.2-3.6-1.2-7.2-1.7-9.7
			c0.4-4.1,0.6-6.9,1-9.7c0.2-1.7,1.3-2.6,3.1-2.7c6.6-0.3,13.2-0.7,19.9-0.9c3.7-0.1,4.3,0.5,4.6,4.3c0.3,3.3,2.4,5.6,4.2,8.1
			c1.2,1.7,2,3.6,3,5.4c1.3,2.5,2.7,5,3.9,7.6c2,4.2-0.5,10.3-4.8,11.8c-3.8,1.3-7.5,2.8-11.4,3.4
			C369.3,144.8,363.2,142.2,358.9,136.1z M391.7,149.7c-0.1,0.7-0.4,1.5-0.9,1.9c-1.2,1-4.4,1-6.1,0c0.7-1.5,4.5-3.5,6-3.1
			C391.1,148.8,391.8,149.4,391.7,149.7z M243.1,182.1c3.3,0,6.6,0,9.8,0c0,0,0,0,0,0c3.5,0,7.1,0,10.6,0c2.6,0,3.8,1.4,3.7,4
			c-0.3,9.6-0.9,19.2,0.5,28.8c0.2,1.8-0.8,2.5-2.5,1.8c-0.5-0.2-1-0.6-1.5-1c-0.7-0.6-1.3-1.3-2-1.9c-8.2-6.9-9.5-6.7-16.8-0.8
			c-1.1,0.9-2.2,1.8-3.4,2.6c-1.5,1.1-2.4,0.7-2.5-1.1c-0.1-1.7,0.4-3.3,0.3-5c-0.1-7.7-0.2-15.4-0.4-23.1
			C239,183.2,240,182.1,243.1,182.1z M146.6,131.7c-1.5,3.3-4.5,6.1-7.2,8.7c-4.7,4.6-10.7,4.6-16.5,3.3c-4.9-1.1-9.7-3.2-12.8-7.7
			c-2.4-3.4-1.9-5.3,0.6-8.5c2.5-3.1,4.5-6.6,6.2-10.2c1.6-3.3,2.5-6.9,3.5-10.5c0.6-2,1.7-3.1,3.7-3.1c2.7,0,5.4,0.1,8,0.1
			c3.2,0,6.4,0.1,9.6,0.1c4.8,0,6.1,1.1,7,5.9c0.2,1.1,0.4,2.2,0.5,3.2c0.1,1.5,0,3,0,4.5c0.3,0.1,0.5,0.1,0.8,0.2
			C148.9,122.5,148.4,127.4,146.6,131.7z M120.6,153.5c-0.1,0.4-0.2,0.8-0.3,1.2c-3.2-0.7-6.4-1.3-9.5-2.1c-0.7-0.2-1.3-1.4-1.6-2.3
			c-0.1-0.2,0.6-1.2,0.9-1.2c0.9,0.1,2.1,0.3,2.6,0.9c1.7,1.9,3.8,2.6,6.2,2.9C119.5,153,120,153.3,120.6,153.5z M99.5,121.5
			c-1.1-9.2-4.2-18.3-1.2-27.9c1.4-4.5,3.1-8.7,6.5-12c5.1-5,11.5-7.2,18.4-6.1c7.6,1.1,15.1,2.9,22.6,4.7c5,1.2,9.9,1.4,14.9-0.1
			c2.7-0.8,4.5,0.7,3.5,3.2c-1.1,2.7-2.9,5.3-5.1,7.3c-3.7,3.3-8.2,5.3-12.2,4.4c-8.4-0.3-15.5-0.5-22.6-0.9
			c-6.3-0.4-11.3,3.2-13.2,9c-0.9,2.8-1.4,5.7-2.7,8.3c-1.9,3.7-4.1,7.2-6.4,10.7C101.1,123.5,99.7,122.9,99.5,121.5z M138.7,318.1
			c1.9,6.7,3.4,13.5,5,20.2c0.9,3.8,2.2,7.7,2.4,11.5c0.6,10.5,0.7,21,1,31.5c0.1,4.6,0,9.3,0,13.9h0.1c0,8.4,0,16.8,0,25.2
			c0,3.4-0.6,4.1-4,4.4c-1.2,0.1-2.4,0.4-3.5,0.3c-5-0.5-6.9-2.1-7.6-7.4c-0.7-5.4-1-10.9-1.5-16.3c-1.2-14.8-2.1-29.7-3.8-44.4
			c-0.6-5.6-2.8-11-4.5-16.5c-1.8-5.8-3.8-11.6-5.9-17.3c-1.6-4.6-3.4-9.2-5.2-13.8c-1.3-3.4-2.6-6.9-4-10.3c-0.7-1.7-2-3.4-3.9-2.8
			c-1.4,0.5-2.9,2.1-3.4,3.6c-0.7,2-0.6,4.3-0.6,6.5c-0.1,7.6,0.1,15.3-0.2,22.9c-0.3,7.7-0.8,15.5-2,23.1c-1.3,8.1-3.6,16-5.4,24
			c-0.2,0.9-0.4,1.8-0.6,2.7c-2.1,7.7-4.3,15.3-6.4,23c-0.4,1.5-0.6,3-1.1,4.4c-1.5,4.9-2.9,9.8-4.5,14.7c-0.7,2.2-2.3,3.3-4.6,3.2
			c-1.8,0-3.7,0-5.5-0.2c-4-0.5-5.4-2.1-5.1-6c0.4-4.3,1.2-8.5,1.9-12.7c0.6-3.4,1.4-6.7,2.1-10.1c0.6-2.6,1.4-5.2,1.9-7.8
			c0.7-3.7,1.3-7.4,2-11.2c1.5-7.9,2.9-15.8,4.6-23.7c1.6-7.3,1.4-14.5,0.8-21.8c-0.8-11.2-1.8-22.4-2.8-33.6
			c-0.5-5.1-1-10.2-1.7-15.3c-0.6-4.3,0.3-5.1,4.5-4.5c7,0.9,14,1.4,21,2.1c7,0.7,14,1.5,21,2.3c1.7,0.2,3.3,0.2,5,0.3
			c2.2,0.2,3.7,1.2,4.3,3.5c1.6,5.7,3.2,11.4,5,17.1C135.3,307.8,137.3,312.9,138.7,318.1z M173.8,245.6c-7.8-1.4-15.7-2.7-23.5-4.2
			c-4.9-0.9-9.9-2-14.7-3.4c-6.9-2.1-12.7-5.6-16.1-12.6c-2.5-5.2-5.9-10.1-8.8-15.2c-1.7-3-3.2-6.2-4.9-9.3c-1.5-2.9-3-5.8-4.6-8.6
			c-0.5-0.8-1.3-1.8-2.1-2.1c-1.4-0.5-3.3-0.9-4.5-0.4c-1,0.5-2.1,2.5-1.9,3.6c0.6,3.1,1.6,6.1,2.9,9c1.5,3.3,3.4,6.3,5.2,9.5
			c1.8,3.3,3.8,6.5,5.7,9.7c1.6,2.8,3.1,5.5,4.7,8.3c2.6,4.5,5.1,9.1,9.6,12.1c2.8,1.8,5.7,3.6,8.7,4.9c2,0.9,2.8,1.9,2.4,4
			c-1,5.8-2,11.6-3.1,17.4c-0.5,2.5-2.3,3.5-5.4,3.3c-5.5-0.4-11.1-0.6-16.6-1.1c-7.1-0.6-14.2-1.2-21.3-2
			c-3.6-0.4-7.1-1.3-10.7-1.8c-2.2-0.3-3-1.4-2.5-3.6c0.9-4.5,1.5-9.1,2.3-13.6c0.6-3.4,1.6-6.7,2.2-10.1c0.8-4.6,1.3-9.3,2.1-13.9
			c1.7-9,3.6-17.9,5.4-26.9c0.4-2,0.6-4,0.9-6c1.4-8.2,3.1-16.3,7.4-23.6c1.1-1.8,2.8-3.5,4.5-4.6c3.8-2.4,7.6-5.2,12.5-2.4
			c1.1,0.6,2.6,0.6,3.9,1c4.7,1.3,9.5,2.2,14,4c2.6,1,4.7,3.3,5.1,6.5c0.7,5.8,1.3,11.5,1.9,17.3c0.2,1.8,0.3,3.6,0.5,5.4
			c-0.3,0.1-0.6,0.2-0.9,0.3c-1-1.2-2.2-2.3-2.9-3.7c-2.7-5-5.3-10.1-7.8-15.2c-1-2-2.7-3-4.7-3.3c-2.9-0.5-5.2,1.6-4.7,4.6
			c0.3,1.7,0.9,3.5,1.7,5c2.8,4.9,5.8,9.6,8.6,14.5c1.9,3.3,3.3,6.9,5.1,10.3c1.9,3.7,3.9,7.4,6,10.9c2.1,3.5,6.1,4.1,9.4,5.4
			c4.8,1.9,9.9,3.1,14.9,4.5c8.5,2.3,17,4.4,25.5,6.6c1.4,0.4,2.9,0.4,4.2,0.9c2.1,0.9,4.3,1.8,6.1,3.2c2.2,1.7,2.2,3.9,0.9,6.9
			c-1,2.3-3,2.7-5.1,2.3c-3.6-0.6-7.3-1.3-10.9-2C178.2,246.7,176,246,173.8,245.6z M325.9,305.1c-3.1-0.1-6.2-0.3-9.3-0.3
			c-42.8,0-85.6,0-128.3,0c-2.6,0-5.2,0.1-7.8,0.1c-2.4,0-3.4-1.3-3.4-3.7c0-5.5,0-11.1,0-16.6h0.4c0-6.6,0-13.1,0-19.7
			c0-1.4-0.1-2.8-0.3-4.3c-0.3-1.9,0.5-3,2.4-2.8c3.3,0.3,6.7,0.8,10,1.2c6,0.8,13.3-1.9,15.8-8.3c0.6-1.5,1.6-3,2-4.6
			c1.6-7.1-0.4-9.7-6.6-14.9c-5-4.2-11.5-4.3-17.3-6.2c-0.2-0.1-0.5-0.1-0.8-0.1c-5-0.8-5.1-1.1-5.1-6.1c0-10.4-0.2-20.8-0.5-31.2
			c-0.1-4.3,0.8-5.5,5-5.5c15,0.1,30.1,0.3,45.1,0.5c2.7,0,3.6,1.2,3.6,4c-0.1,13.4-0.3,26.7-0.3,40.1c0,3.2,1.9,4.6,4.8,3.4
			c3.1-1.3,5.9-3.1,8.7-4.9c2.5-1.6,4.9-3.6,7.5-5.1c1-0.6,3-0.6,4,0c4.2,2.5,8.1,5.3,12.3,7.9c1.4,0.8,3.1,1.4,4.7,1.5
			c2.6,0.2,4-1.6,4-4.1c-0.2-11.3-0.4-22.5-0.6-33.8c0-1.4-0.3-2.8-0.4-4.3c-0.3-3.9,1.2-5.5,5-5.5c14.3-0.1,28.6-0.2,42.8-0.3
			c5.9-0.1,6,0.4,5.8,6.4c-0.3,10-0.1,20,0,30c0.1,3.3-0.8,5.1-4.1,5.8c-1.9,0.4-3.8,0.5-5.7,0.9c-5.2,1.1-10.4,2.1-15.4,3.6
			c-2,0.6-4,2.4-5.2,4.1c-3.5,4.9-6.2,8.9-2.5,15.2c1.4,2.3,2.6,4.7,4.3,6.7c4,4.9,9.7,4.4,15.1,3.9c3.6-0.3,7.1-1.2,10.6-2
			c1.6-0.4,2.6-0.1,2.7,1.6c0.1,1.7,0,3.5,0,5.3c0,11.7,0,23.4,0.1,35c0,1.3,0.3,2.5,0.3,3.8C329.4,304.2,328.2,305.2,325.9,305.1z
			 M359.6,238.4c-8,1.9-16,3.8-23.9,5.7c-2.3,0.5-4.6,0.9-6.9,1.3c-4.7,0.9-9.4,1.8-14.1,2.6c-1.2,0.2-2.3,0.3-3.5,0.3
			c-3.6,0.1-5.3-1.5-5.8-5.2c-0.3-2.8,1.7-5.5,4.7-6.2c6.6-1.5,13.3-2.8,19.9-4.5c5.7-1.5,11.4-3.4,17.1-5.1
			c1.5-0.4,2.9-0.7,4.4-1.2c2-0.7,3.9-1.5,5.8-2.2c1-0.4,2-0.9,3.1-1.1c5-0.9,7.8-4,9.6-8.6c1.5-3.9,3.7-7.5,5.5-11.3
			c1.5-3.3,2.7-6.8,4.4-10.1c1.7-3.2,3.8-6.3,5.7-9.4c0.9-1.5,2-3,2.4-4.6c0.7-2.3-1-5.3-3-6c-2.1-0.8-5.2,0.2-6.4,2.4
			c-2.7,5.1-5.3,10.3-8,15.4c-0.9,1.7-2,3.3-3,4.9c-0.2-0.1-0.4-0.2-0.6-0.3c-0.1-0.4-0.3-0.8-0.3-1.1c0.1-3.5,0.4-7.1,0.2-10.6
			c-0.3-4.6,1.3-8.8,2.7-13c1.3-3.8,6.1-8.3,11.2-7.7c4.9,0.6,9.9,0.1,14.4-2.4c2.1-1.2,4.4-0.8,6.3,0.9s4.4,2.9,5.9,5
			c2.1,3,4,6.4,5.2,9.9c1.5,4.2,2.4,8.6,3.2,12.9c1.8,9.7,3.3,19.5,5.1,29.3c1.6,8.9,3.4,17.8,4.9,26.7c1,6.2,1.8,12.5,2.5,18.7
			c0.2,1.9-1.2,2.7-2.8,2.9c-10.9,1.1-21.7,2.2-32.6,3.2c-5.4,0.5-10.9,0.7-16.3,1c-3.1,0.2-3.8-0.8-4.2-3.7
			c-0.7-5.5-1.6-11-2.5-16.4c-0.5-3-0.3-3.5,2.5-4.8c4.4-2.1,9.5-3.1,12.5-7.5c2-3,3.9-6.1,5.7-9.2c3.1-5.1,6.3-10.3,9.2-15.5
			c3.3-6,6.6-12.1,9.7-18.2c1.4-2.8,0.8-5.1-1.1-6.3c-2.1-1.3-4.9-0.8-6.8,1.3c-0.6,0.7-1.2,1.4-1.6,2.2
			c-5.2,9.7-10.3,19.5-15.5,29.2c-1.3,2.5-3.2,4.7-4.8,7.1c-3.4,5.4-9.1,6.4-14.6,7.9C363.2,237.6,361.4,237.9,359.6,238.4z
			 M434.8,423c-2.1,0.8-4.3,1.3-6.5,1.4c-5,0.2-6-1-7.2-5.8c-1.1-4.5-2.5-9-3.8-13.5c-1-3.6-2-7.3-3.1-10.9
			c-1.7-5.9-3.5-11.7-5.2-17.5c-0.2-0.6-0.4-1.3-0.5-1.9c-1.6-8.1-3.2-16.1-4.6-24.2c-1.9-10.8-2.7-21.7-2.7-32.6
			c0-4.5,0.3-9.1,0.4-13.6c0-1,0-2-0.1-3c-0.2-2-0.5-4-2.9-4.5c-2.1-0.5-3.5,0.8-4.4,2.6c-0.8,1.7-1.6,3.5-2.3,5.3
			c-1.8,4.8-3.5,9.5-5.3,14.3c-0.6,1.6-1.2,3.3-1.8,5c-1.9,5.3-4,10.5-5.5,15.9c-1.9,6.4-4,12.9-4.8,19.5
			c-1.7,13.8-2.4,27.8-3.8,41.6c-0.7,6.7-1.9,13.3-3,19.9c-0.3,2.2-1.7,3.4-3.9,3.5c-2.2,0.1-4.3,0.2-6.5,0.1c-1.9,0-2.9-1.2-3.3-3
			c-0.2-0.9-0.4-1.8-0.3-2.7c0.4-11,0.9-22,1.4-34.3c0-9.7-0.2-20.7,0.1-31.7c0.1-4,1.3-7.9,2.1-11.8c0.3-1.3,0.6-2.6,1-3.9
			c2.1-7.6,4.3-15.3,6.5-22.9c0.1-0.3,0.2-0.6,0.3-1c1.5-5.6,3-11.3,4.6-16.9c1.2-4.1,2.3-8.2,4-12.1c0.5-1.2,2.5-2.3,3.9-2.5
			c14.5-1.5,29.1-2.7,43.6-4.1c1.4-0.1,2.8-0.7,4.2-0.9c2.4-0.3,3.6,0.6,3.4,3.1c-0.2,3.1-0.8,6.2-1,9.2
			c-1.3,13.9-2.9,27.7-3.7,41.7c-0.5,9-1.1,18.1,1.6,27c1.1,3.5,1,7.3,1.8,10.9c0.8,4.1,2,8.1,2.9,12.2c2.1,9.8,4.1,19.5,6.1,29.3
			c0.5,2.6,1,5.3,1.3,8C437.8,420.2,436.9,422.2,434.8,423z"/>
	</g>
	<path class="st0" d="M312.2,133.5c-3.7,4-7.6,7.8-11.3,11.9c-3,3.4-5.8,7-8.4,10.7c-1.9,2.7-3.1,3.5-5.2,2.4
		c-3-1.6-4.3-4.6-2.8-7.1c0.8-1.3,1.9-2.5,3-3.7c5-5.2,10-10.4,14.9-15.6c1.4-1.5,1.4-3.1-0.1-4.7c-4.3-4.4-8.5-9.1-13-13.3
		c-1.5-1.3-3.9-2.2-5.9-2.4c-4.3-0.4-8.7-0.1-13.1-0.1v0.6c-14.9,0-29.7,0-44.6,0c-1.1,0-2.2,0.1-3.3-0.2c-4.7-1.4-7.8,1-10.7,4.2
		c-4,4.3-8.1,8.5-12.3,12.6c-2.1,2-2.3,3.4-0.2,5.5c4.2,4.1,8.5,8.1,12.6,12.3c1.6,1.6,2.9,3.5,4.1,5.4c1.3,2.1,0.7,4.6-1.2,6.3
		c-1.7,1.5-4,1.7-5.9-0.1c-1.4-1.3-2.3-3-3.5-4.6c-1.3-1.7-2.4-3.4-3.8-5c-3.4-3.8-6.9-7.6-10.4-11.3c-1.1-1.2-2.4-2.1-3.5-3.2
		c-2.2-2.2-2.1-4.6,0.1-6.8c5.8-5.7,11.5-11.6,17.3-17.2c2.8-2.7,5.8-5,8.9-7.4c0.8-0.6,2.2-0.6,3.3-0.6c2.7,0,5.4,0.4,8,0.4
		c19.2,0.2,38.5,0.3,57.7,0.5c3,0,6,0.5,9,1.1c1.1,0.2,2.3,1,3.1,1.9c5,5.4,10,10.9,14.9,16.4c0.8,0.9,1.6,1.8,2.3,2.7
		C315.5,128.7,315.5,130,312.2,133.5z"/>
	<path class="st0" d="M278.4,149.1c-0.4,2.7-2.6,2.7-4.6,2.9c-0.3,0-0.7,0.1-1,0.1v-0.2h-13.8c-7.9,0-15.8,0-23.7-0.1
		c-3.6,0-7.2-0.3-10.8-0.5c-2.7-0.2-4.7-1.7-4.8-3.7c-0.1-2.6,1.6-3.8,3.7-4.4c1.9-0.5,4-1,5.9-0.9c8.2,0,16.5,0.3,24.7,0.4
		c5.1,0.1,10.2,0,15.3,0.1c1.7,0,3.5,0.3,5.2,0.8C277.2,144.4,278.7,146.7,278.4,149.1z"/>
	<path class="st0" d="M270.3,131.3c-1.1,0.2-2.3,0.4-3.5,0.4c-12.6,0-25.2,0-37.8,0c-1,0-2-0.1-3-0.4c-2.4-0.8-3.9-3.3-3.6-5.7
		c0.4-2.7,2.6-2.9,4.6-2.9c5.6-0.1,11.3,0,16.9,0h4.8c7,0,13.9,0,20.9,0c3.3,0,4.5,0.9,4.7,3.3C274.6,129,273.3,130.7,270.3,131.3z"
		/>
	<path class="st1" d="M120.3,154.6c-3.2-0.7-6.4-1.3-9.5-2.1c-0.7-0.2-1.2-1.4-1.6-2.3c-0.1-0.2,0.6-1.2,0.9-1.2
		c0.9,0.1,2.1,0.3,2.6,0.9c1.7,1.9,3.8,2.6,6.2,3c0.6,0.1,1.2,0.4,1.7,0.5C120.5,153.8,120.4,154.2,120.3,154.6z"/>
	<path class="st1" d="M384.7,151.7c0.7-1.5,4.5-3.6,6-3.1c0.5,0.2,1.1,0.8,1.1,1.1c-0.1,0.7-0.4,1.4-0.9,1.9
		C389.6,152.6,386.4,152.6,384.7,151.7z"/>
</g>
</svg>
