<?xml version="1.0" encoding="utf-8"?>
<!-- Generator: Adobe Illustrator 24.0.1, SVG Export Plug-In . SVG Version: 6.00 Build 0)  -->
<svg version="1.1" id="Layer_1" xmlns="http://www.w3.org/2000/svg" xmlns:xlink="http://www.w3.org/1999/xlink" x="0px" y="0px"
	 viewBox="0 0 500 500" style="enable-background:new 0 0 500 500;" xml:space="preserve">
<style type="text/css">
	.st0{fill:#FFFFFF;}
</style>
<path d="M-447.8,162.5"/>
<g>
	<g>
		<path d="M170.6,148.5c-34,0-61.7,27.4-61.7,61.2s27.6,61.2,61.7,61.2s61.7-27.4,61.7-61.2S204.7,148.5,170.6,148.5z M170.6,257.5
			c-25.8,0-46.7-21.4-46.7-47.9c0-26.4,20.9-47.9,46.7-47.9c25.8,0,46.7,21.4,46.7,47.9C217.3,236.1,196.4,257.5,170.6,257.5z
			 M170.6,148.5c-34,0-61.7,27.4-61.7,61.2s27.6,61.2,61.7,61.2s61.7-27.4,61.7-61.2S204.7,148.5,170.6,148.5z M170.6,257.5
			c-25.8,0-46.7-21.4-46.7-47.9c0-26.4,20.9-47.9,46.7-47.9c25.8,0,46.7,21.4,46.7,47.9C217.3,236.1,196.4,257.5,170.6,257.5z
			 M285.8,189.9l-30.7-5c-1.8-6.2-4.3-12.2-7.3-17.8l17.9-25.7c1.5-2.1,1.2-4.9-0.6-6.7l-20.2-20.3c-1.8-1.8-4.6-2-6.7-0.5L213,132
			c-5.7-3.2-11.6-5.7-17.8-7.5l-5.4-30.8c-0.4-2.5-2.6-4.3-5.1-4.3h-28.6c-2.6,0-4.7,1.8-5.1,4.4l-5,30.6
			c-6.2,1.8-12.2,4.3-17.9,7.4l-25.1-18c-2.1-1.5-4.9-1.3-6.7,0.5l-20.2,20.3c-1.8,1.8-2,4.6-0.6,6.7l17.7,25.4
			c-3.1,5.7-5.7,11.8-7.5,18.1l-30.3,5.1c-2.5,0.4-4.3,2.6-4.3,5.2v28.8c0,2.5,1.8,4.7,4.3,5.2l30.3,5.4c1.8,6.3,4.3,12.4,7.5,18.1
			l-17.9,25.2c-1.5,2.1-1.2,4.9,0.5,6.7l20.2,20.3c1.8,1.8,4.6,2,6.7,0.6l25.3-17.8c5.7,3.2,11.7,5.6,17.9,7.5l5.1,30.7
			c0.4,2.5,2.6,4.4,5.1,4.4h28.6c2.5,0,4.7-1.8,5.1-4.3l5.4-30.8c6.2-1.9,12.2-4.4,17.8-7.5l25.5,18c2.1,1.5,4.9,1.2,6.7-0.6
			l20.2-20.3c1.8-1.8,2-4.7,0.5-6.8l-18.2-25.4c3.1-5.7,5.5-11.6,7.3-17.8l30.8-5.4c2.5-0.4,4.3-2.6,4.3-5.2v-28.8
			C290.2,192.5,288.3,190.3,285.8,189.9z M279.4,222.4c0,2.3-1.7,4.2-3.9,4.6l-28,4.9c-1.6,5.6-3.8,11-6.6,16.1l16.5,22.9
			c1.4,1.9,1.1,4.5-0.5,6.1l-18.4,18.3c-1.6,1.6-4.2,1.8-6.1,0.5l-23.2-16.2c-5.1,2.8-10.5,5.1-16.2,6.8l-4.9,27.8
			c-0.4,2.3-2.4,3.9-4.7,3.9h-26c-2.3,0-4.3-1.7-4.7-3.9l-4.6-27.6c-5.7-1.6-11.1-3.9-16.3-6.7l-23,16.1c-1.9,1.3-4.4,1.1-6.1-0.5
			L84.4,277c-1.6-1.6-1.8-4.2-0.5-6.1l16.3-22.7c-2.9-5.2-5.1-10.6-6.8-16.3l-27.6-4.9c-2.3-0.4-3.9-2.4-3.9-4.6v-25.9
			c0-2.3,1.7-4.3,4-4.6l27.6-4.6c1.7-5.7,3.9-11.2,6.8-16.3l-16.1-22.9c-1.3-1.9-1.1-4.4,0.5-6l18.4-18.3c1.6-1.6,4.2-1.8,6.1-0.5
			l22.8,16.3c5.1-2.8,10.6-5,16.3-6.7l4.5-27.6c0.4-2.3,2.4-4,4.7-4h26c2.3,0,4.3,1.6,4.7,3.9L193,133c5.6,1.6,11.1,3.9,16.2,6.7
			l22.9-16.4c1.9-1.3,4.5-1.1,6.1,0.5l18.4,18.3c1.6,1.6,1.8,4.2,0.5,6l-16.3,23.2c2.8,5.1,5,10.5,6.7,16l28,4.6
			c2.3,0.4,4,2.3,4,4.6V222.4z M170.6,148.5c-34,0-61.7,27.4-61.7,61.2s27.6,61.2,61.7,61.2s61.7-27.4,61.7-61.2
			S204.7,148.5,170.6,148.5z M170.6,257.5c-25.8,0-46.7-21.4-46.7-47.9c0-26.4,20.9-47.9,46.7-47.9c25.8,0,46.7,21.4,46.7,47.9
			C217.3,236.1,196.4,257.5,170.6,257.5z"/>
		<path class="st0" d="M170.6,148.5c-34,0-61.7,27.4-61.7,61.2s27.6,61.2,61.7,61.2s61.7-27.4,61.7-61.2S204.7,148.5,170.6,148.5z
			 M170.6,257.5c-25.8,0-46.7-21.4-46.7-47.9c0-26.4,20.9-47.9,46.7-47.9c25.8,0,46.7,21.4,46.7,47.9
			C217.3,236.1,196.4,257.5,170.6,257.5z"/>
		<path d="M170.6,148.5c-34,0-61.7,27.4-61.7,61.2s27.6,61.2,61.7,61.2s61.7-27.4,61.7-61.2S204.7,148.5,170.6,148.5z M170.6,257.5
			c-25.8,0-46.7-21.4-46.7-47.9c0-26.4,20.9-47.9,46.7-47.9c25.8,0,46.7,21.4,46.7,47.9C217.3,236.1,196.4,257.5,170.6,257.5z"/>
	</g>
	<g>
		<path d="M354.4,270c-26.9,0-48.7,21.7-48.7,48.4s21.8,48.4,48.7,48.4s48.7-21.7,48.7-48.4S381.3,270,354.4,270z M354.4,356.2
			c-20.4,0-36.9-16.9-36.9-37.8c0-20.9,16.5-37.8,36.9-37.8c20.4,0,36.9,16.9,36.9,37.8C391.3,339.3,374.8,356.2,354.4,356.2z
			 M354.4,270c-26.9,0-48.7,21.7-48.7,48.4s21.8,48.4,48.7,48.4s48.7-21.7,48.7-48.4S381.3,270,354.4,270z M354.4,356.2
			c-20.4,0-36.9-16.9-36.9-37.8c0-20.9,16.5-37.8,36.9-37.8c20.4,0,36.9,16.9,36.9,37.8C391.3,339.3,374.8,356.2,354.4,356.2z
			 M445.4,302.8l-24.3-4c-1.4-4.9-3.4-9.6-5.8-14.1l14.2-20.3c1.1-1.6,0.9-3.9-0.5-5.3l-16-16.1c-1.4-1.4-3.7-1.6-5.3-0.4L387.9,257
			c-4.5-2.5-9.2-4.5-14.1-5.9l-4.2-24.3c-0.3-2-2-3.4-4-3.4h-22.6c-2,0-3.7,1.5-4.1,3.5l-3.9,24.2c-4.9,1.4-9.7,3.4-14.1,5.8
			L301,242.5c-1.6-1.2-3.9-1-5.3,0.4l-16,16.1c-1.4,1.4-1.6,3.7-0.5,5.3l14,20.1c-2.5,4.5-4.5,9.3-5.9,14.3l-24,4
			c-2,0.3-3.4,2.1-3.4,4.1v22.7c0,2,1.4,3.7,3.4,4.1l24,4.3c1.4,5,3.4,9.8,5.9,14.3L279,372.2c-1.2,1.6-1,3.9,0.4,5.3l16,16.1
			c1.4,1.4,3.6,1.6,5.3,0.5l20-14.1c4.5,2.5,9.2,4.5,14.2,5.9l4,24.2c0.3,2,2,3.4,4,3.4h22.6c2,0,3.7-1.4,4-3.4l4.3-24.3
			c4.9-1.5,9.6-3.4,14.1-5.9l20.2,14.2c1.6,1.2,3.9,1,5.3-0.5l16-16.1c1.4-1.4,1.6-3.7,0.4-5.3l-14.4-20.1c2.4-4.5,4.4-9.2,5.8-14.1
			l24.3-4.3c2-0.3,3.4-2.1,3.4-4.1v-22.7C448.9,304.8,447.4,303.1,445.4,302.8z M440.4,328.5c0,1.8-1.3,3.4-3.1,3.7l-22.1,3.9
			c-1.3,4.4-3,8.7-5.3,12.7l13.1,18.1c1.1,1.5,0.9,3.5-0.4,4.8l-14.5,14.5c-1.3,1.3-3.3,1.5-4.8,0.4l-18.3-12.8
			c-4,2.2-8.3,4-12.8,5.3l-3.9,21.9c-0.3,1.8-1.9,3.1-3.7,3.1h-20.6c-1.8,0-3.4-1.3-3.7-3.1l-3.6-21.8c-4.5-1.3-8.8-3.1-12.9-5.3
			l-18.2,12.7c-1.5,1-3.5,0.9-4.8-0.4l-14.5-14.5c-1.3-1.3-1.5-3.3-0.4-4.8l12.9-17.9c-2.3-4.1-4.1-8.4-5.4-12.9l-21.8-3.8
			c-1.8-0.3-3.1-1.9-3.1-3.7V308c0-1.8,1.3-3.4,3.1-3.7l21.8-3.6c1.3-4.5,3.1-8.8,5.4-12.9L286,269.7c-1-1.5-0.9-3.5,0.4-4.8
			l14.5-14.5c1.3-1.3,3.3-1.5,4.8-0.4l18.1,12.9c4.1-2.2,8.4-4,12.9-5.3l3.6-21.8c0.3-1.8,1.9-3.1,3.7-3.1h20.6
			c1.8,0,3.4,1.3,3.7,3.1l3.9,21.9c4.5,1.3,8.8,3.1,12.8,5.3l18.1-13c1.5-1.1,3.5-0.9,4.8,0.4l14.5,14.5c1.3,1.3,1.5,3.3,0.4,4.8
			L409.9,288c2.2,4,4,8.3,5.3,12.7l22.1,3.6c1.8,0.3,3.1,1.8,3.1,3.7V328.5z M354.4,270c-26.9,0-48.7,21.7-48.7,48.4
			s21.8,48.4,48.7,48.4s48.7-21.7,48.7-48.4S381.3,270,354.4,270z M354.4,356.2c-20.4,0-36.9-16.9-36.9-37.8
			c0-20.9,16.5-37.8,36.9-37.8c20.4,0,36.9,16.9,36.9,37.8C391.3,339.3,374.8,356.2,354.4,356.2z"/>
		<path class="st0" d="M354.4,270c-26.9,0-48.7,21.7-48.7,48.4s21.8,48.4,48.7,48.4s48.7-21.7,48.7-48.4S381.3,270,354.4,270z
			 M354.4,356.2c-20.4,0-36.9-16.9-36.9-37.8c0-20.9,16.5-37.8,36.9-37.8c20.4,0,36.9,16.9,36.9,37.8
			C391.3,339.3,374.8,356.2,354.4,356.2z"/>
		<path d="M354.4,270c-26.9,0-48.7,21.7-48.7,48.4s21.8,48.4,48.7,48.4s48.7-21.7,48.7-48.4S381.3,270,354.4,270z M354.4,356.2
			c-20.4,0-36.9-16.9-36.9-37.8c0-20.9,16.5-37.8,36.9-37.8c20.4,0,36.9,16.9,36.9,37.8C391.3,339.3,374.8,356.2,354.4,356.2z"/>
	</g>
	<g>
		<path d="M345.6,117.7c-18,0-32.5,14.4-32.5,32.3s14.6,32.3,32.5,32.3c18,0,32.5-14.4,32.5-32.3S363.5,117.7,345.6,117.7z
			 M345.6,175.2c-13.6,0-24.6-11.3-24.6-25.2c0-13.9,11-25.2,24.6-25.2c13.6,0,24.6,11.3,24.6,25.2
			C370.2,163.9,359.2,175.2,345.6,175.2z M345.6,117.7c-18,0-32.5,14.4-32.5,32.3s14.6,32.3,32.5,32.3c18,0,32.5-14.4,32.5-32.3
			S363.5,117.7,345.6,117.7z M345.6,175.2c-13.6,0-24.6-11.3-24.6-25.2c0-13.9,11-25.2,24.6-25.2c13.6,0,24.6,11.3,24.6,25.2
			C370.2,163.9,359.2,175.2,345.6,175.2z M406.3,139.5l-16.2-2.7c-0.9-3.3-2.2-6.4-3.9-9.4l9.5-13.6c0.8-1.1,0.6-2.6-0.3-3.5
			l-10.7-10.7c-0.9-1-2.4-1.1-3.5-0.3l-13.3,9.6c-3-1.7-6.1-3-9.4-3.9l-2.8-16.2c-0.2-1.3-1.4-2.3-2.7-2.3h-15.1
			c-1.3,0-2.5,1-2.7,2.3l-2.6,16.1c-3.3,0.9-6.4,2.3-9.4,3.9l-13.2-9.5c-1.1-0.8-2.6-0.7-3.5,0.3l-10.6,10.7
			c-0.9,0.9-1.1,2.4-0.3,3.5l9.3,13.4c-1.7,3-3,6.2-3.9,9.5l-16,2.7c-1.3,0.2-2.3,1.4-2.3,2.7v15.2c0,1.3,1,2.5,2.3,2.7l16,2.8
			c1,3.3,2.3,6.5,3.9,9.5l-9.4,13.3c-0.8,1.1-0.7,2.6,0.3,3.6l10.7,10.7c0.9,0.9,2.4,1.1,3.5,0.3l13.3-9.4c3,1.7,6.2,3,9.4,3.9
			l2.7,16.2c0.2,1.3,1.4,2.3,2.7,2.3H353c1.3,0,2.5-1,2.7-2.3l2.9-16.2c3.3-1,6.4-2.3,9.4-4l13.4,9.5c1.1,0.8,2.6,0.6,3.5-0.3
			l10.6-10.7c0.9-1,1.1-2.5,0.3-3.6l-9.6-13.4c1.6-3,2.9-6.1,3.9-9.4l16.2-2.9c1.3-0.2,2.3-1.4,2.3-2.7v-15.2
			C408.6,140.9,407.6,139.7,406.3,139.5z M402.9,156.6c0,1.2-0.9,2.2-2.1,2.4l-14.8,2.6c-0.9,2.9-2,5.8-3.5,8.5l8.7,12.1
			c0.7,1,0.6,2.3-0.3,3.2l-9.7,9.7c-0.9,0.8-2.2,1-3.2,0.3l-12.2-8.5c-2.7,1.5-5.6,2.7-8.6,3.6l-2.6,14.6c-0.2,1.2-1.2,2-2.5,2
			h-13.7c-1.2,0-2.3-0.9-2.5-2.1l-2.4-14.6c-3-0.9-5.9-2-8.6-3.5l-12.1,8.5c-1,0.7-2.3,0.6-3.2-0.3l-9.7-9.7c-0.9-0.9-1-2.2-0.3-3.2
			l8.6-12c-1.5-2.7-2.7-5.6-3.6-8.6l-14.5-2.6c-1.2-0.2-2.1-1.2-2.1-2.4V143c0-1.2,0.9-2.3,2.1-2.5l14.5-2.4c0.9-3,2.1-5.9,3.6-8.6
			l-8.5-12.1c-0.7-1-0.6-2.3,0.3-3.2l9.7-9.7c0.9-0.9,2.2-1,3.2-0.3l12,8.6c2.7-1.5,5.6-2.7,8.6-3.5l2.4-14.5
			c0.2-1.2,1.2-2.1,2.5-2.1h13.7c1.2,0,2.2,0.9,2.5,2.1l2.6,14.6c3,0.9,5.8,2.1,8.6,3.5l12.1-8.6c1-0.7,2.4-0.6,3.2,0.3l9.7,9.7
			c0.9,0.9,1,2.2,0.3,3.2l-8.6,12.2c1.5,2.7,2.7,5.5,3.5,8.5l14.7,2.4c1.2,0.2,2.1,1.2,2.1,2.5V156.6z M345.6,117.7
			c-18,0-32.5,14.4-32.5,32.3s14.6,32.3,32.5,32.3c18,0,32.5-14.4,32.5-32.3S363.5,117.7,345.6,117.7z M345.6,175.2
			c-13.6,0-24.6-11.3-24.6-25.2c0-13.9,11-25.2,24.6-25.2c13.6,0,24.6,11.3,24.6,25.2C370.2,163.9,359.2,175.2,345.6,175.2z"/>
		<path class="st0" d="M345.6,117.7c-18,0-32.5,14.4-32.5,32.3s14.6,32.3,32.5,32.3c18,0,32.5-14.4,32.5-32.3
			S363.5,117.7,345.6,117.7z M345.6,175.2c-13.6,0-24.6-11.3-24.6-25.2c0-13.9,11-25.2,24.6-25.2c13.6,0,24.6,11.3,24.6,25.2
			C370.2,163.9,359.2,175.2,345.6,175.2z"/>
		<path d="M345.6,117.7c-18,0-32.5,14.4-32.5,32.3s14.6,32.3,32.5,32.3c18,0,32.5-14.4,32.5-32.3S363.5,117.7,345.6,117.7z
			 M345.6,175.2c-13.6,0-24.6-11.3-24.6-25.2c0-13.9,11-25.2,24.6-25.2c13.6,0,24.6,11.3,24.6,25.2
			C370.2,163.9,359.2,175.2,345.6,175.2z"/>
	</g>
</g>
</svg>
