<?xml version="1.0" encoding="utf-8"?>
<!-- Generator: Adobe Illustrator 24.0.1, SVG Export Plug-In . SVG Version: 6.00 Build 0)  -->
<svg version="1.1" id="Layer_1" xmlns="http://www.w3.org/2000/svg" xmlns:xlink="http://www.w3.org/1999/xlink" x="0px" y="0px"
	 viewBox="0 0 500 500" style="enable-background:new 0 0 500 500;" xml:space="preserve">
<style type="text/css">
	.st0{fill:#1671A2;}
</style>
<g>
	<path d="M434.4,150.6c0-2.5-0.7-4.6-3.3-5.8c-3-1.3-6-2.8-9-4.2c-3-1.4-6.1-2.9-9.1-4.4c-3.6-1.7-7.1-3.6-10.7-5.2
		c-3.9-1.7-7.8-3.3-11.8-4.9c-0.3-0.1-0.6-0.4-1-0.5c-3.3-1.7-6.6-3.5-10-5.1c-3.6-1.7-7.2-3.2-10.9-4.8c-2.6-1.2-5.2-2.4-7.7-3.7
		c-3.5-1.8-6.8-3.7-10.3-5.4c-7.2-3.5-14.5-7-21.8-10.4c-2.8-1.3-5.5-2.7-8.3-4c-3.7-1.7-7.5-3.3-11.2-5c-4.4-2-8.7-4.1-13-6.2
		c-3.6-1.8-7.1-3.8-10.7-5.5c-5.2-2.5-10.4-5-15.7-7.4c-6.1-2.8-12.3-5.6-18.4-8.4c-0.6-0.3-1.2-0.6-1.7-1
		c-3.2-2.7-6.9-2.5-10.4-1.2c-2.8,1-5.4,2.5-8.1,3.9c-4.5,2.2-9,4.5-13.5,6.7c-0.4,0.2-0.8,0.4-1.2,0.6c-3.7,1.9-7.4,3.8-11.2,5.6
		c-1,0.5-2.3,0.7-3.3,1.2c-3.6,1.8-7.1,3.7-10.7,5.5c-0.3,0.1-0.6,0.2-0.8,0.3c-3.5,1.6-7.1,3.2-10.6,4.9c-3.7,1.8-7.3,3.6-11,5.4
		c-2.4,1.2-4.7,2.4-7.1,3.4c-3.6,1.6-7.3,3.1-10.9,4.8c-2.8,1.3-5.5,2.7-8.3,4c-3.9,1.9-7.8,3.9-11.8,5.8c-3.2,1.5-6.5,2.7-9.6,4.3
		c-3.5,1.7-7,3.7-10.5,5.5c-1.5,0.8-3.2,1.2-4.7,1.9c-3.5,1.7-6.8,3.7-10.3,5.3c-3.9,1.8-7.8,3.3-11.7,5c-0.3,0.1-0.5,0.3-0.8,0.4
		c-3.5,1.8-7,3.7-10.5,5.4c-3.5,1.6-7,3-10.5,4.5c-0.4,0.2-0.7,0.5-1.1,0.7c-1.8,0.8-3.6,1.9-5.5,2.4c-2.2,0.6-3.8,1.8-4.4,3.9
		c-0.5,1.8-0.7,3.6-0.7,5.4c0,3.4,0.2,6.8,0.3,10.2c0.1,5.2,0,10.5,0.1,15.7c0.1,4.1,2.9,5.7,6.5,4c5-2.3,10-4.6,15-6.9
		c2.8-1.3,3.6-0.8,3.6,2.4c0,3.3,0,6.6,0,9.9c0,52.2,0,104.5,0.1,156.7c0,11.9,0.2,23.7,0.3,35.6c0,0.9-0.2,1.9-0.4,2.8
		c-0.3,1.4-1.2,1.8-2.6,1.8c-6,0-12.1,0-18.1,0.3c-1.2,0.1-2.9,1.1-3.5,2.2c-2.2,4,0.2,7.8,4.8,7.8c11.3,0,22.5,0,33.8,0
		c17.5,0,35.1,0,52.7,0c0.8,0,1.6-0.2,2.4-0.2c6.2-0.1,12.4-0.1,18.6-0.2c1.8,0,2.8,0.9,2.7,2.7c-0.2,4.6-0.2,9.3-0.5,13.9
		c-0.3,5.1,1,7.4,5.7,9c0.4,0.2,0.8,0.4,1.2,0.5c4,1.8,8,3.6,12,5.4c2.3,1,4.6,2.2,7,3.2c3.9,1.6,7.9,3.2,11.8,4.8
		c0.3,0.1,0.6,0.4,1,0.5c4.2,1.9,8.4,3.9,12.6,5.7c3.9,1.7,7.8,3.4,11.7,5.1c4.1,1.8,8.1,3.6,12.2,5.5c1.5,0.7,3.1,1.2,4.5,2.1
		c3.2,2,8.2,2,11.2,0.3c3.6-2.1,7.3-3.9,11.1-5.7c3.6-1.6,7.3-3,11-4.4c0.5-0.2,0.9-0.6,1.3-0.8c3.8-1.8,7.7-3.7,11.5-5.4
		c3.6-1.7,7.2-3.2,10.8-4.8c2.5-1.1,4.9-2.2,7.4-3.4c3.8-1.9,7.6-3.8,11.4-5.6c1.3-0.6,2.8-1,4.1-1.5c1.9-0.8,3.8-1.8,5.8-2.5
		c1.8-0.7,3.5-1.5,3.6-3.7c0.2-5.7,0.4-11.5,0.3-17.2c0-3,0.4-3.7,3.4-3.7c6.3,0,12.7-0.1,19-0.1c21.7,0,43.4,0,65.1,0.1
		c1.7,0,3.4,0.2,5,0c2.4-0.4,3.4-1.9,3.3-4.5c-0.1-2.5-1.3-4.2-3.6-4.3c-4-0.3-8.1-0.2-12.1-0.3c-1,0-2.1,0-3.1-0.2
		c-1.8-0.2-2.3-1.2-2.2-3.1c0.3-4.3,0.4-8.7,0.1-13c-0.2-2.9-3.6-4.1-6-2.4c-2.5,1.9-4.3,4.2-4.2,7.6c0.1,2.7,0.1,5.5,0.1,8.2
		c0,1.7-0.8,2.6-2.5,2.6c-4.8,0-9.6,0-14.3,0c-5.7-0.1-11.4-0.5-17-0.3c-6.1,0.2-6.7-0.2-5.4-6.1c0.8-3.5,0-6.6-1.4-9.7
		c-1-2.2-2.7-2.8-4.9-2.1c-2.3,0.7-3.5,2.3-3.5,5c0,3.5,0.1,6.9,0.2,10.4c0.1,2.1-0.8,3.2-2.9,3.2c-3.5,0.1-7,0.2-10.6,0.3
		c-1.6,0.1-2.6-0.5-2.7-2.2c-0.2-5.4-0.3-10.8-0.4-16.1c0-1.8,0.5-3.3,2.1-4.4c1.7-1.1,2.3-2.7,1.5-4.6c-0.7-1.9-2.3-2.9-4.2-2.5
		c-3.9,0.8-7.7,2-11.5,3.1c-1.7,0.5-3.4,1.4-5.1,2.1c-4.2,1.6-8.4,3.1-12.5,4.8c-4.1,1.7-8.2,3.6-12.2,5.4
		c-4.2,1.9-8.4,3.7-12.6,5.6c-1.8,0.8-3.3,0.8-4.5-0.8c-4.8-5.9-9.5-11.8-14.3-17.7c-0.9-1.1-1.1-2.3,0.1-3.1c1.7-1.1,3.5-2.2,5.4-3
		c3.9-1.6,7.8-3,11.7-4.5c0.2-0.1,0.4-0.2,0.6-0.3c4.1-1.9,8.2-3.9,12.3-5.8c2.8-1.3,5.6-2.6,8.4-3.7c3.9-1.6,8-2.9,11.9-4.4
		c0.6-0.2,1.1-0.5,1.6-0.8c1.9-1.4,2.5-4,1.4-5.9c-1.9-3-4-3.9-6.5-2.7c-1.4,0.7-2.9,1.1-4.3,1.7c-4.7,2-9.4,4.1-14.1,6.1
		c-4.1,1.7-8.3,3.3-12.5,4.9c-0.5,0.2-1,0.6-1.6,0.8c-4,1.8-8,3.7-11.9,5.6c-1.3,0.6-2.7,1.2-4,1.9c-3.9,2.1-7.7,4.1-12.3,2
		c-3.8-1.7-7.7-3.2-11.6-4.9c-3-1.3-5.9-2.5-8.9-3.8c-4.2-1.9-8.4-3.8-12.6-5.7c-3.7-1.6-7.4-3.1-11.1-4.6c-4.8-2-9.6-4-14.3-6.1
		c-0.8-0.3-1.8-1.1-1.9-1.8c-0.1-0.7,0.8-1.8,1.5-2.1c3.4-1.7,6.9-3.2,10.4-4.7c3.3-1.5,6.7-2.9,10-4.4c5-2.3,10-4.6,14.9-7
		c0.5-0.2,0.9-0.5,1.4-0.7c4.1-2,8.2-3.9,12.3-5.8c1-0.5,2.1-0.9,3.2-1.5c4.7-2.6,9.5-4,14.8-1.5c2,1,4.1,2,6.1,3
		c1.6,0.8,3.1,1.6,4.7,2.3c3.4,1.6,6.7,3.2,10.2,4.8c3.9,1.7,7.8,3.3,11.7,5c4.5,2,8.9,3.9,13.4,5.9c1.2,0.5,2.5,1,3.6,1.6
		c2.5,1.3,4.4,0.5,4.9-2.2c0.5-2.7,0.1-5.3-2.6-6.7c-5.4-2.8-10.8-5.5-16.3-8.1c-3.8-1.8-7.8-3.3-11.7-5c-0.1-0.1-0.2-0.2-0.4-0.2
		c-3.7-1.8-7.3-3.8-11-5.5c-3.8-1.8-7.6-3.3-11.5-5c-0.4-0.2-0.8-0.4-1.1-0.7c-2.2-1.8-4.8-2.2-7.3-1.4c-3.8,1.2-7.4,3-11.1,4.6
		c-2.4,1-4.7,2-7,3.1c-3.9,1.9-7.7,3.9-11.6,5.8c-0.5,0.2-1,0.2-1.5,0.4c-3.7,1.7-7.5,3.4-11.2,5.2c-3.6,1.7-7.1,3.5-10.6,5.2
		c-3.2,1.6-6.5,3.1-9.8,4.6c-4,1.9-8,4.3-12.2,5.3c-4,1-6.4,3.3-8.8,6.1c-5.3,6.4-10.6,12.8-15.9,19.2c-2.2,2.6-4.5,5-6.5,7.8
		c-0.6,0.8-0.5,2.7,0,3.6c1,1.5,2.5,2.9,4.1,3.6c5.3,2.6,10.6,4.9,16,7.3c3.3,1.5,4,3,3.8,6.6c-0.3,3.4-0.3,6.9-0.1,10.4
		c0.2,3.1-1.3,4.9-4.4,5c-7.8,0.1-15.6,0.3-23.4,0.4c-3.3,0.1-4.3-1.1-4.1-4.4c0.1-2.9,0.3-5.9,0.3-8.8c-0.1-28.8-0.3-57.7-0.4-86.5
		c0-9.7,0-19.5-0.1-29.2c0-1.7,0-3.4,0-5.1c0.1-1.9,1-2.8,3-2.7c5.1,0.1,10.1,0.1,15.2,0.1c26.8,0,53.5,0,80.3-0.1
		c1.7,0,3.6,0.2,4.4-1.8c0.8-2-0.2-3.6-1.5-5.2c-2.4-2.8-5.1-3.9-8.6-2.9c-0.8,0.2-1.8,0.1-2.6,0.1h-42.7v0c-13.9,0-27.9,0-41.8,0
		c-5.7,0-5.7,0-5.6-5.5c0.1-2.1-0.2-4.3,0-6.4c0.2-2.7,1-3.3,3.8-3c2.2,0.2,4.4,0.4,6.6,0.3c4.9,0,9.7-0.3,14.6-0.3
		c15.1,0.1,30.2,0.2,45.3,0.4c2.4,0,4.7,0.2,7.1,0.3c2.3,0.1,3.9-0.7,4.4-2.5c1.2-3.9-1-7.4-5.1-7.9c-1.6-0.2-3.2-0.1-4.9-0.1
		c-15.3,0-30.7,0-46,0c-3.7,0-7.4-0.1-11-0.2c-5.5,0-11.1,0.1-16.6,0c-6.3-0.2-7.1,0.8-7.3,8.2c-0.4,12.4-0.4,24.8-0.5,37.2
		c0,6.8,0.3,13.6,0.3,20.3c0.1,27.1,0.1,54.1,0.1,81.2c0,6.7,0.2,13.4,0.4,20.1c0.1,3.2-0.5,3.9-3.6,4.2c-1.7,0.2-3.4,0.3-5.1,0.3
		c-7.2,0-14.5,0-21.7,0c-1.8,0-3.7,0.3-5.5,0.2c-2.9-0.1-3.4-0.7-3.5-3.7c0-2.5,0-5,0-7.5c0-65.1,0-130.1-0.1-195.2
		c0-2.1-0.3-4.1-0.3-6.2c0-1,0.1-2.3,0.8-2.8c1.7-1.5,3.7-2.6,5.6-3.8c1.2-0.7,2.5-1.2,3.8-1.8c3.3-1.7,6.5-3.5,9.8-5
		c3.6-1.7,7.4-3.3,11.1-5c2.6-1.2,5.2-2.4,7.7-3.7c6.2-3,12.3-6.1,18.5-9.1c3.3-1.6,6.7-3,10-4.5c2.5-1.2,5-2.5,7.5-3.7
		c3.9-1.9,7.7-3.9,11.6-5.8c2.5-1.2,5-2.4,7.6-3.6c3.7-1.7,7.4-3.3,11-5c2.5-1.2,5.1-2.3,7.6-3.6c3.9-1.9,7.8-4,11.8-5.9
		c3.1-1.6,6.4-3,9.5-4.6c3.7-1.8,7.3-3.8,11-5.5c3.9-1.8,7.9-3.6,11.9-5.1c1.1-0.4,2.6-0.4,3.7,0.1c3.2,1.4,6.4,3.1,9.5,4.6
		c3.9,1.9,7.8,3.6,11.7,5.5c3.3,1.6,6.6,3.2,9.8,4.8c2.4,1.2,4.7,2.4,7.1,3.5c3.9,1.7,7.8,3.2,11.7,4.9c4.6,2.1,9.1,4.4,13.6,6.6
		c2.9,1.4,5.8,2.8,8.7,4.2c3.7,1.8,7.3,3.8,11,5.5c3.4,1.6,6.9,2.9,10.3,4.5c5,2.3,10.1,4.7,15.1,7.1c1.6,0.8,3.2,1.8,4.8,2.6
		c3.6,1.7,7.2,3.2,10.8,5c3.7,1.8,7.3,3.7,11,5.5c3.5,1.7,7.1,3.2,10.6,4.9c1.5,0.7,3,1.6,4.3,2.7c0.7,0.6,1.3,1.7,1.3,2.6
		c0,12.1-0.1,24.2-0.1,36.3c0,4.7,0,9.4,0.2,14.1c0.1,3.3,0.2,6.7,2.9,9.2c2.4,2.2,5,1.8,6.1-1.3c0.6-1.8,0.9-3.7,0.9-5.6
		c0.1-14.1,0-28.2,0-42.3c0-0.9-0.2-1.8-0.1-2.7c0.1-1.2,0.1-3,0.8-3.5c0.8-0.6,2.5-0.1,3.7,0.2c0.8,0.2,1.5,1,2.2,1.5
		c0.8,0.6,1.7,1.2,2.6,1.6c3.9,1.8,7.8,3.3,11.7,5.2c3.9,1.8,5.8,0.8,6.1-3.5c0.1-2.6,0.1-5.2,0.1-7.7
		C434.5,164.6,434.5,157.6,434.4,150.6z M256.4,441.2c0.3-1.1,0.5-2.3,0.5-3.5c0-14.2,0-28.5,0-42.7c0-7.1,0-14.3,0-21.4
		c0-0.8,0.6-1.5,0.9-2.3c0.7,0.4,1.7,0.7,2.1,1.3c3.4,4.4,6.7,8.9,10.1,13.4c0.6,0.8,1.2,1.7,1.9,2.4c2.1,2,4.4,3.2,7.6,1.8
		c4.3-1.9,8.8-3.4,13.1-5.3c3.5-1.5,6.7-3.5,10.2-5.1c3.9-1.8,8-3.3,12-4.9c1.2-0.5,2.2-1.2,3.3-1.7c1.5-0.7,3.1-1.5,4.7-1.9
		c2-0.5,2.8,0.3,2.4,2.4c0.5,11,0.9,22.1,1.4,33.1c0,0.7,0.1,1.3,0.3,2c0.5,2.1-0.2,3.6-2.2,4.5c-4.9,2.2-9.8,4.3-14.6,6.6
		c-3.5,1.6-6.9,3.4-10.4,5.2c-0.1,0.1-0.2,0.2-0.4,0.2c-3.6,1.6-7.2,3.2-10.8,4.8c-2.7,1.2-5.3,2.5-8,3.7c-3.9,1.8-7.7,3.6-11.6,5.4
		c-1.1,0.5-2.2,0.8-3.3,1.3c-1.4,0.6-2.7,1.4-4,2.1c-0.8,0.4-1.5,1-2.3,1.2C257.1,444.6,256,443.3,256.4,441.2z M246,371.9
		c0.3,0.8,0.7,1.7,1,2.5c-0.1,0-0.2,0.1-0.3,0.1c0,7.9,0,15.9,0,23.8c-0.1,12.8-0.3,25.5-0.4,38.2c0,1.4,0.2,2.8,0.2,4.2
		c0,0.9,0,2.2-0.5,2.5c-0.7,0.4-2.1,0.4-2.9,0.1c-6.3-2.9-12.5-6-18.8-8.9c-3.7-1.7-7.6-3.2-11.3-4.9c-3.9-1.8-7.8-3.7-11.8-5.4
		c-3.8-1.6-7.7-3-11.4-4.6c-3.6-1.6-7.3-3.2-10.7-5.1c-1.9-1-2.7-2.9-2.7-5.2c0.1-10,0-19.9,0-29.9c0-2.1-0.4-4.1-0.3-6.2
		c0.2-2.7,1.2-3.3,3.7-2.1c5.1,2.3,10.2,4.8,15.4,7.1c3.5,1.6,7.2,2.9,10.7,4.5c3.7,1.7,7.3,3.7,11,5.5c2.9,1.3,5.8,2.6,8.8,3.6
		c2,0.7,4.9-1.1,6.5-3.3c3.7-5.1,7.5-10.2,11.4-15.2C244.1,372.6,245.2,372.3,246,371.9z M157.7,351.2c-1.9-1-1.9-2.8-0.4-4.4
		c4-4.5,8-9,12-13.5c1.3-1.5,2.6-3,4.1-4.3c0.6-0.5,1.9-0.7,2.6-0.4c2.1,0.7,4.1,1.6,6.1,2.5c1.6,0.7,3.3,1.3,4.9,2
		c4,1.9,7.9,3.8,11.8,5.7c0.2,0.1,0.3,0.3,0.5,0.4c3.6,1.5,7.2,2.9,10.7,4.4c4.6,1.9,9.1,4,13.7,5.9c0.7,0.3,1.4,0.5,2.1,0.8
		c1.9,0.9,3.8,1.8,5.8,2.6c1,0.5,2.1,0.8,3.1,1.2c2.4,1.1,4.8,2.1,7.1,3.5c1.8,1,0.8,2.4-0.2,3.5c-2.4,2.6-5,5.2-7.3,7.9
		c-2.3,2.6-4.3,5.4-6.6,8c-1.2,1.3-2.5,2.5-3.8,3.7c-1.3-0.6-2.1-0.9-2.9-1.3c-1.7-0.8-3.4-1.8-5.1-2.5c-3.9-1.8-7.7-3.5-11.6-5.2
		c-4-1.7-8-3.3-11.9-5c-4.1-1.8-8.2-3.8-12.3-5.6c-3.9-1.7-7.9-3.2-11.8-4.9C164.7,354.5,161.1,353,157.7,351.2z M424.9,157.2
		c-0.3,3-0.2,6.2-0.4,9.2c-0.1,1-0.2,2.3-0.8,2.8c-0.6,0.4-2,0.3-2.8-0.1c-3-1.5-5.9-3.3-8.9-4.8c-3.9-2-7.9-3.8-11.8-5.8
		c-2.2-1.1-4.3-2.2-6.4-3.3c-3.7-1.9-7.5-3.8-11.2-5.7c-0.5-0.2-0.9-0.6-1.3-0.8c-4.6-2.2-9.2-4.4-13.9-6.5c-3.5-1.6-7-3-10.4-4.7
		c-3.8-1.8-7.4-3.8-11.2-5.6c-2.4-1.2-4.8-2.3-7.2-3.4c-3.7-1.7-7.3-3.4-11-5c-1-0.5-2-1-3-1.4c-1.7-0.8-3.3-1.5-5-2.3
		c-3.8-1.8-7.5-3.6-11.2-5.5c-0.4-0.2-0.7-0.5-1.1-0.7c-6.3-2.8-12.6-5.5-18.8-8.5c-5.8-2.8-11.5-5.9-17.3-8.7
		c-3.5-1.8-7.2-3.3-10.8-5c-4-1.9-8-3.7-11.9-5.7c-3.4-1.8-7.3-1.5-10.3,0.9c-0.5,0.4-0.9,0.7-1.5,1c-3.3,1.4-6.6,2.7-9.9,4.3
		c-3.8,1.8-7.4,3.8-11.1,5.6c-2.4,1.2-4.7,2.3-7.1,3.4c-4,1.8-8,3.5-12,5.4c-2.4,1.1-4.8,2.2-7.1,3.4c-3.5,1.7-7,3.4-10.5,5.1
		c-3.5,1.7-7,3.3-10.5,4.9c-4,1.9-8,3.9-12,5.9c-0.4,0.2-0.8,0.5-1.2,0.6c-3.8,1.7-7.7,3.2-11.5,5c-3.4,1.6-6.5,3.5-9.9,5.1
		c-3.8,1.8-7.8,3.4-11.7,5.1c-2.8,1.3-5.5,2.7-8.3,4c-4.5,2.2-9.1,4.4-13.6,6.7c-3.5,1.8-6.8,3.7-10.3,5.4c-3.4,1.7-7,3.1-10.4,4.7
		c-3.7,1.8-7.3,3.7-11,5.5c-1.9,0.9-3.9,1.8-5.9,2.5c-1.4,0.5-2.2-0.9-1.8-3.3c-0.2-3.4-0.3-6.8-0.5-10.1c-0.2-2.2,0.6-3.5,2.7-4.5
		c3.6-1.6,7-3.6,10.6-5.2c3.8-1.8,7.7-3.3,11.5-5c2.5-1.1,4.9-2.3,7.3-3.5c3.4-1.7,6.8-3.4,10.2-5.1c3.5-1.7,7-3.3,10.5-5
		c4-2,8-4,12-5.9c0.3-0.2,0.6-0.4,1-0.5c3.8-1.6,7.6-3.2,11.3-4.9c3.4-1.6,6.6-3.4,10-5c3.8-1.8,7.8-3.5,11.6-5.3
		c2.4-1.1,4.7-2.3,7.1-3.5c3.6-1.8,7.1-3.5,10.7-5.3c3.6-1.7,7.3-3.4,11-5.1c3.8-1.8,7.6-3.8,11.5-5.6c2.4-1.2,4.8-2.3,7.1-3.4
		c3.9-1.8,7.7-3.5,11.5-5.4c3.2-1.5,6.3-3.2,9.4-4.7c0.5-0.2,0.9-0.6,1.3-0.8c4.6-2,9.3-4.1,13.9-6c0.8-0.3,1.8-0.4,2.6-0.1
		c2.8,1.1,5.5,2.4,8.3,3.6c3.3,1.5,6.6,3.1,9.9,4.7c4.3,2.1,8.5,4.2,12.8,6.3c3.1,1.5,6.3,2.8,9.4,4.3c3.9,1.9,7.8,3.9,11.7,5.9
		c0.3,0.1,0.5,0.3,0.7,0.5c3.8,1.6,7.6,3.2,11.3,4.9c3.4,1.6,6.6,3.4,10,5.1c0.5,0.2,0.9,0.5,1.3,0.7c6.2,2.8,12.4,5.5,18.6,8.4
		c3.7,1.8,7.3,3.8,11,5.6c3.3,1.6,6.7,2.9,10,4.4c3.8,1.8,7.5,3.8,11.3,5.7c1.2,0.6,2.5,0.8,3.7,1.4c3.7,1.9,7.4,3.9,11.1,5.7
		c2.4,1.2,4.9,2.3,7.4,3.4c3.8,1.6,7.6,3.2,11.3,4.9c3.1,1.4,6.1,2.8,9.2,4.3c2.6,1.2,5.2,2.4,7.7,3.8
		C424.9,152.7,425.3,154,424.9,157.2z"/>
	<path class="st0" d="M465.5,345c-2.2-3.4-4.9-6.4-7.7-9.3c-3.5-3.6-7.3-6.8-10.8-10.4c-2-2.1-1.8-2.8,0-5.1
		c2.1-2.7,4.2-5.5,4.3-9.2c0.1-6.5,0.4-13.1,0.3-19.6c0-2.2-0.2-4.2-0.5-6.2c0,0-1.2-8.2-5.9-16.7c-14.7-27.1-42.8-34.6-42.8-34.6
		c-4.6-1.2-19.6-4.6-36.8,1.1c-11.8,3.8-19.8,10.3-23.4,13.3c-5.7,4.7-9.6,9.3-11.6,11.8c-3.7,4.7-10.7,13.8-13.8,27.6
		c-0.5,2.4-2.2,10.7-1,21.5c0.4,3.3,1.6,12,6.4,21.9c2.8,5.8,9.8,20.1,25.9,29.4c2.5,1.4,8.9,4.9,17.9,6.8c27,5.6,48.5-9,49.6-10.8
		c0.1-0.1,0.5-0.9,1.2-1c0.5-0.1,1.1,0.1,1.7,0.7c3.8,3.5,7.7,6.9,11.3,10.6c3.5,3.6,7.8,5.5,12.3,7c1.2,0.4,2.8,0.5,3.9,0
		c2.4-1,5-2.1,6.8-3.9c3.8-3.6,7.3-7.4,10.6-11.5C466.9,354.3,468.5,349.7,465.5,345z M409.6,350.3c-3.3,1.6-6.5,3.4-9.8,5
		c-1.2,0.6-2.6,0.9-4,1.2c-5,1-9.8,3.1-15,2.3c-6.3-0.9-12.8-1.4-18.8-3.4c-5.6-1.8-11.2-4.3-15.6-8.7c-3.2-3.2-6.7-6-9.6-9.4
		c-2.3-2.7-3.5-6.3-5.6-9.2c-3.5-4.9-3.4-10.9-5.2-16.3c-1.1-3.3-0.8-7-1.2-10.5c-0.6-7,1.4-13.6,3.8-19.9c1.9-4.9,5.2-9.3,8.1-13.8
		c3.7-5.6,8.5-10.2,13.7-14.3c2.7-2.2,5.8-3.9,8.9-5.6c11.3-6.2,23.5-6.7,35.8-5.2c4.3,0.5,8.5,2.3,12.5,4c3.6,1.5,7.2,3.4,10.5,5.5
		c5.9,3.6,11,8.1,14.5,14.2c2.2,3.9,5.1,7.5,6.5,11.7c3.7,11,5,22.4,3,34c-0.1,0.9,0,2-0.4,2.8c-0.4,1-0.9,2.3-1.8,2.7
		c-0.7,0.3-2.1-0.3-2.9-0.9c-2-1.5-3.6-3.5-5.6-5c-2.2-1.7-4.5-3.3-7-4.5c-4.1-1.9-4.7-3.2-4.5-7.7c0.3-5.1,0-10.1-2.9-14.7
		c-1.4-2.2-2.1-4.9-3.6-7c-4.1-5.8-9.2-10.3-15.6-13.6c-6.1-3.2-12.4-5.3-19.2-5.1c-6.4,0.2-12.6,1.5-18.3,5
		c-4.8,3-8.7,6.8-11.8,11.3c-3.4,4.8-4.6,10.4-5.4,16.2c-1,6.9-0.4,13.6,1.9,20.1c1.4,3.8,3.6,7.5,6.9,10.1c2.9,2.3,5.8,4.9,9,6.6
		c3.8,1.9,7.9,3.4,12,4c7,1,14.1,1,21-0.9c2.7-0.8,4.4,1.3,6,3c3.6,3.7,6.9,7.7,10.4,11.4C412.7,348,412.6,348.8,409.6,350.3z
		 M408.8,308.7c-6,12.2-20.3,13.9-24,14.4c-2.5,0.3-9.6,0.7-17.3-2.5c-5.7-2.4-10.2-6.5-13-12.5c-2.2-4.9-2.4-9.9-2.3-15.1
		c0-2.1,1.3-11.7,9.1-18.5c11.8-10.3,28.1-4.9,29.5-4.4c2.4,0.8,10.7,3.9,16,12.6C407.7,284.1,414.9,296.5,408.8,308.7z
		 M453.6,355.2c-2.2,2.4-4.5,4.7-6.9,6.9c-2.5,2.3-4.7,2.2-7.2-0.1c-7-6.6-14.2-13.1-21.1-19.8c-3.9-3.8-7.3-8.1-10.9-12.2
		c-1.3-1.4-1.2-2.9,0.1-4.3c3-3.4,5.9-6.8,8.8-10.2c1.5-1.8,3.8-2,5.7-0.4c3.3,2.6,6.5,5.3,9.6,8.2c5.3,5.1,10.5,10.4,15.7,15.6
		c2.2,2.2,4.6,4.2,6.7,6.4c1.2,1.2,1.9,2.8,3.1,4.6C456,351.8,455,353.6,453.6,355.2z"/>
	<path class="st0" d="M284.5,198.1c-2.9-0.5-6-0.4-9-0.2c-3.7,0.3-4.8-0.5-4.9-4.2c-0.1-16.9-0.3-33.8-0.4-50.6c0-4.1-1.8-6-6-6
		c-3.9-0.1-7.8,0-11.7,0c-5.1,0-10.3-0.1-15.4,0.2c-4.6,0.3-5.3,1.3-5.4,6c0,8.3,0,16.7,0,25h0c0,8.2,0,16.4,0,24.6
		c0,4.5-0.7,5.3-5.3,5.3c-4,0-8.1-0.1-12.1,0c-2.2,0.1-3.3,1.3-2.9,3.5c0.2,1.2,0.7,2.7,1.6,3.5c3.5,3,6.3,6.5,9,10.2
		c4.7,6.3,10.3,11.9,15.4,18c3,3.6,6,7.3,8.4,11.3c1.8,3.2,6,4.3,8.5,1.2c5.4-6.5,11.1-12.8,16.7-19.2c2.6-3,5.1-6.1,7.6-9.2
		c2.9-3.6,5.6-7.3,8.6-10.9C290.1,203.2,289,198.9,284.5,198.1z M272.9,208.8c-3.5,4.2-7.2,8.4-10.7,12.6c-2.9,3.4-5.7,6.9-8.5,10.4
		c-2.3,2.8-4.2,2.6-6.3-0.3c-2-2.8-4-5.6-6.2-8.3c-3.6-4.4-7.4-8.6-11-13c-0.7-0.8-0.8-2.2-1.2-3.3c1.1-0.3,2.3-0.5,3.4-0.7
		c0.5-0.1,1,0.1,1.5,0.2c5.1,0.3,7.2-1.8,7.1-6.9c-0.2-14.1-0.3-28.2-0.4-42.2c0-2.6,0-5.3,0-7.9c0-1.9,1.1-2.7,2.8-2.7
		c2.6,0,5.2,0,7.8,0v0c2.4,0,4.9-0.1,7.3,0c2.8,0.1,3.7,0.9,3.8,3.8c0.1,2-0.3,4-0.3,6c-0.1,8.1,0,16.2-0.1,24.3
		c-0.1,6-0.3,11.9-0.4,17.9c0,1.3,0,2.7,0.3,3.9c0.9,3.7,3.8,5.3,7.4,4.4c0.7-0.2,1.4-0.6,2.1-0.7c0.7,0,1.5,0.2,2.2,0.4
		C273.3,207.4,273.3,208.3,272.9,208.8z"/>
	<path d="M357,228.7c0,2.2-1.5,3.5-3.6,3.8c-2.7,0.5-4.7-0.3-5.7-2.3c-0.5-0.9-1-1.9-1-2.9c-0.1-2.6-1.8-3.2-3.9-3.1
		c-2,0-4,0.3-5.9,0.3c-7.3,0-14.6,0-21.9,0v0c-7.6,0-15.2,0-22.8,0c-1.5,0-3-0.1-4.4-0.5c-2.4-0.7-2.8-2.6-1.7-4.9
		c1.7-3.4,4.5-4.3,8-4.3c11.7,0,23.4,0,35.1,0c6.8,0,13.5-0.2,20.3-0.3c1.1,0,2.2,0.1,3.3,0.2c2.3,0.3,3.7,1.6,3.9,3.8
		C357,221.9,357.1,225.3,357,228.7z"/>
	<path d="M333.7,248.7c-2.3,0.7-4.8,1.1-7.2,1c-15.6-0.1-31.3-0.2-46.9-0.5c-4-0.1-8.1-0.4-12.1-0.8c-3.2-0.4-3.6-2-2-4.8
		c2.2-3.7,5.7-4.4,9.5-4.4c6-0.1,11.9,0,17.9,0v0.3h21.7c5.9,0,11.8,0,17.6,0c0.1,0,0.1,0,0.2,0c3.5,0.2,5,1,5.4,2.9
		C338.2,244.6,336.2,248,333.7,248.7z"/>
	<path d="M292.9,420.1c0.1,1.9-0.8,3.4-2.6,4.3c-6.6,3.3-13.3,6.6-20,9.9c-0.5,0.3-1.1,0.4-1.7,0.6c-1.8,0.5-3.9,1-4.9-0.8
		c-0.8-1.4-0.7-3.5-0.9-5.2c0-0.3,0.3-0.8,0.5-0.9c2.6-1.5,5.1-3,7.8-4.3c1.9-1,4.1-1.5,6.1-2.4c3.7-1.6,7.3-3.5,11.1-4.9
		C291.5,415.2,292.9,416.5,292.9,420.1z"/>
	<path d="M284.5,414.3c-3.2,2-6.6,3.8-9.9,5.6c-2.1,1.2-4.2,2.3-6.4,3.3c-0.8,0.4-1.8,0.5-2.7,0.7c-2.9-0.2-4.3-1.1-4.9-3.4
		c-0.7-2.5,0-4.1,2.6-5.4c2.9-1.4,5.9-2.6,8.8-3.8c3-1.2,6.1-2.5,9.2-3.5c2.5-0.8,4.1-0.2,4.9,1.5
		C287.1,411.2,286.7,412.8,284.5,414.3z"/>
	<path class="st0" d="M384.2,294.8c0,2.5-1.9,4.3-4.3,4.2c-2.3-0.1-3.9-1.8-3.9-4.2c0.1-2.2,2-3.8,4.6-3.8
		C382.9,291.2,384.2,292.5,384.2,294.8z"/>
	<path d="M393.5,298.3L393.5,298.3z"/>
	<path class="st0" d="M382.3,275.4h-4.5c-10.5,0-19,8.5-19,19v2.3c0,10.5,8.5,19,19,19h4.5c10.5,0,19-8.5,19-19v-2.3
		C401.3,283.9,392.8,275.4,382.3,275.4z M392.5,296.3c0,6.1-5,11.1-11.1,11.1h-2.6c-6.1,0-11.1-5-11.1-11.1v-1.3
		c0-6.1,5-11.1,11.1-11.1h2.6c6.1,0,11.1,5,11.1,11.1V296.3z"/>
</g>
</svg>
