<?xml version="1.0" encoding="utf-8"?>
<!-- Generator: Adobe Illustrator 24.0.1, SVG Export Plug-In . SVG Version: 6.00 Build 0)  -->
<svg version="1.1" id="Layer_1" xmlns="http://www.w3.org/2000/svg" xmlns:xlink="http://www.w3.org/1999/xlink" x="0px" y="0px"
	 viewBox="0 0 500 500" style="enable-background:new 0 0 500 500;" xml:space="preserve">
<g id="Arrow_3">
	<g id="Arrow_6">
	</g>
</g>
<g>
	<path d="M442.5,308.6c-0.6-1.1-1.2-2.2-2.1-3.1c-3.2-3.6-6.4-7.1-9.7-10.6c-7.2-7.8-14.4-15.7-21.7-23.4c-1.9-2-4.1-4.8-6.6-5.2
		c-4.9-0.9-9.1-3.4-13.5-5.2c-4.3-1.7-8.4-3.6-12.6-5.4c-4.6-2-9.2-4.1-13.8-6c-7.7-3.1-15.4-6.1-23-9.2c-3.4-1.4-6.9-2.6-10.3-4.1
		c-7.4-3.2-14.8-6.5-22.2-9.8c-6.2-2.7-12.4-5.3-18.5-8.1c-3.8-1.7-7.6-2.6-11.7-0.9c-3.1,1.4-6.3,2.7-9.5,3.9
		c-8,3.2-16.1,6.1-24.1,9.5c-10.5,4.4-20.9,9.2-31.4,13.7c-10.8,4.6-21.8,9-32.7,13.5c-4,1.7-7.9,3.5-11.9,5c-2.2,0.9-4.6,1.7-6.9,2
		c-2.9,0.5-5.4,1.4-7.2,3.7c-1.9,2.3-3.7,4.6-5.7,6.9c-9.2,10.4-18.5,20.7-27.7,31c-3.2,3.6-2.8,6.4,1.5,8.6
		c1.3,0.6,2.7,0.9,4.1,1.3c1.5,0.4,3.2,0.6,4.7,1.3c5.3,2.3,10.4,4.8,15.7,7c6.1,2.6,6.7,3.9,6.5,10.5c-0.3,10-0.1,20-0.1,30h0.2
		c0,9.5,0,19.1,0,28.7c0,2.3,0.7,4.3,2.9,5.4c2.8,1.3,5.6,2.5,8.4,3.7c7.4,3.1,14.8,6,22.2,9.2c10.6,4.6,21.2,9.5,31.8,14.2
		c8.5,3.8,17.2,7.4,25.8,11c4.4,1.9,8.9,3.5,13.2,5.4c4.7,2,9.4,4,13.9,6.4c5.1,2.6,10.1,3.6,15.5,1c4.6-2.2,9.3-4.2,14-6.3
		c6.8-3,13.7-6,20.5-9c5-2.2,10.1-4.4,15.1-6.6c7.3-3.2,14.5-6.3,21.8-9.5c7-3,14-6.1,21-9.1c7.6-3.3,15.2-6.7,22.8-9.8
		c4.7-1.9,6.6-4.4,6.6-9.4c-0.1-12.5,0-25-0.1-37.6c0-7.1-0.3-14.2-0.3-21.3c0-2.9,1.1-5.2,3.8-6.3c4.1-1.8,8.3-3.3,12.6-4.9
		c4.9-1.8,9.8-3.6,14.6-5.4c1.1-0.4,2.1-1,3.1-1.7C443.1,312.3,443.7,310.6,442.5,308.6z M144.6,314.2c-2.9-1.2-5.8-2.4-8.6-3.8
		c-4-2-3.9-3.4-1-6.6c5.5-5.9,10.8-12.1,16.1-18.2c2.6-2.9,5.2-5.8,7.9-8.5c0.9-0.9,2.1-1.5,3-2.1c1,0.3,1.5,0.4,2,0.6
		c9.3,4.2,18.6,8.5,28,12.6c7.8,3.4,15.8,6.4,23.7,9.6c8.1,3.3,16.1,6.7,24.1,10c4.2,1.7,8.6,3.3,12.8,5.1c4.5,2,9,4.1,13.3,6.4
		c3,1.6,2.8,2.9,0.7,5.5c-7.7,9.4-15.2,18.9-22.8,28.4c-1.3,1.6-2.5,2.4-4.6,1.4c-3.7-1.8-7.4-3.6-11.2-5.3c-5-2.1-10.2-4-15.3-6.1
		c-7.5-3.2-14.9-6.6-22.5-9.8c-7.4-3.1-15-6.1-22.4-9.2C160.1,320.8,152.3,317.5,144.6,314.2z M275.3,385.4c0,16.7,0,33.3,0,50
		c0,0.9,0,1.8-0.2,2.7c-0.4,2-1.6,2.7-3.6,1.8c-8.9-4.1-17.7-8.3-26.7-12.2c-7.7-3.4-15.6-6.4-23.4-9.7c-12.6-5.3-25.2-10.6-37.7-16
		c-6.2-2.6-12.4-5.3-18.6-8c-2.7-1.2-3.9-3.2-3.9-6.5c0-17.1-0.1-34.2-0.2-51.3c0-3.6,1.4-4.8,4.9-3.5c3.7,1.4,7.3,3,10.9,4.6
		c11.1,4.7,22.1,9.5,33.2,14.2c4.2,1.8,8.5,3.3,12.8,5.1c4.7,2,9.3,4.2,14,6.3c1.2,0.5,2.4,1.1,3.7,1.6c4.9,1.7,6.8,0.8,9.8-3.3
		c5.6-7.7,11.3-15.3,17-23c1.4-2,2.8-4,4.3-5.8c0.5-0.6,1.6-1.2,2.4-1.1c0.5,0,1.1,1.3,1.2,2.1c0.1,2.3-0.1,4.7-0.1,7
		C275.2,355.3,275.2,370.4,275.3,385.4L275.3,385.4z M273.8,311.5c-9.5-3.7-19.1-7.5-28.5-11.4c-8-3.3-15.8-6.9-23.8-10.2
		c-7.3-3-14.7-5.9-22-8.9c-4.3-1.8-8.6-3.7-12.9-5.5c-2.1-0.9-4.2-1.5-6.3-2.4c-0.8-0.4-2-1.2-2-1.8c0-0.9,0.8-2.1,1.6-2.5
		c5.2-2.5,10.4-5,15.7-7.2c7.7-3.3,15.4-6.5,23.1-9.8c3.9-1.6,7.8-3.3,11.7-4.9c12.9-5.3,25.8-10.5,38.7-15.8
		c3.1-1.3,6.1-2.6,9.3-3.5c1.6-0.4,3.6-0.3,5.1,0.3c4.9,1.7,9.7,3.7,14.6,5.6c9.1,3.6,18.2,7.1,27.3,10.7c4.2,1.7,8.3,3.4,12.4,5.2
		c5.6,2.4,11.3,4.7,16.9,7.1c3.5,1.5,7.1,3,10.6,4.6c5.3,2.3,10.6,4.5,15.8,7c1.1,0.5,1.8,2,2.7,3c-1.1,0.7-2.2,1.6-3.4,2
		c-4.9,1.9-9.8,3.6-14.6,5.4c-5.7,2.2-11.4,4.5-17,6.7c-4.8,1.9-9.6,4-14.5,5.9c-8.3,3.3-16.8,6.5-25.1,9.9
		c-8.3,3.4-16.5,7.1-24.8,10.6c-1.4,0.6-2.8,1-4.2,1.5C277.9,312.6,275.8,312.2,273.8,311.5z M393.2,393.9
		c-8.1,3.3-16.2,6.4-24.3,9.7c-4.5,1.8-8.8,4-13.2,6c-3,1.4-6.1,2.6-9.1,3.9c-7.3,3.1-14.5,6.2-21.8,9.4c-7.2,3.2-14.3,6.6-21.6,9.8
		c-4.8,2.2-9.7,4.2-14.7,6.1c-3.4,1.3-4.4,0.4-4.4-3.3c0-15.2,0-30.5,0.1-45.7v-2.2h0c0-15.4,0-30.8,0-46.2c0-2.6-0.4-5.2-0.5-7.8
		c0-0.8,0.5-1.6,0.8-2.4c0.8,0.4,1.7,0.5,2.2,1.1c2.8,3.2,5.6,6.5,8.3,9.9c4.9,6,9.7,12.1,14.5,18.2c3.5,4.5,6.1,4.8,11.1,2.1
		c4.2-2.2,8.6-4,13-5.8c9-3.7,17.9-7.3,26.9-11c4.7-1.9,9.4-3.6,14.1-5.5c5.4-2.2,10.8-4.5,16.2-6.7c0.7-0.3,1.3-0.6,2-0.9
		c4.6-1.5,6-0.2,6,4.5c-0.1,16,0,32.1,0,48.1C398.9,390,397.7,392.1,393.2,393.9z M426.2,309.6c-1.5,0.8-3.1,1.5-4.7,2.1
		c-7.7,3-15.4,6-23,9.1c-8.4,3.4-16.8,6.9-25.2,10.2c-11.7,4.6-23.4,9.2-35.1,13.8c-4.8,1.9-9.6,4.1-14.3,6.2
		c-0.7,0.3-1.3,0.6-2,0.8c-4.9,1.8-6.3,1.4-9.5-2.7c-5.7-7.2-11.4-14.4-17.1-21.6c-0.9-1.1-2-2.1-3-3.1c-2.8-2.7-2.3-5.5,1.4-7.1
		c2.6-1.1,5.3-2.3,7.9-3.4c8.2-3.2,16.5-6.2,24.7-9.4c8.2-3.2,16.3-6.6,24.5-9.9c8-3.2,16-6.4,24-9.6c6.9-2.8,13.8-5.6,20.7-8.4
		c1-0.4,2-0.7,3.7-1.2c1.3,0.8,3,1.6,4.2,2.9c7.9,8.6,15.7,17.3,23.6,26C428.9,306.4,428.7,308.2,426.2,309.6z"/>
	<path d="M375.4,190.8c-1-16.7-4.8-32.6-12.1-47.6c-3.9-8-8.8-15.7-13.7-23.2c-7.3-11.2-17.4-19.7-28.3-27.1
		c-7.9-5.4-16.1-10.1-25-13.7c-7.5-3-15.1-5.8-23.2-6.8c-2.3-0.3-4.6-0.9-6.9-1.3c-4.4-0.7-8.9-1.7-13.3-1.9
		c-9.8-0.5-19.5,0.8-29.2,2.6c-12.2,2.3-23.5,6.4-34.6,11.7c-9.4,4.5-18,10.2-25.9,17c-7.9,6.8-15.3,14.2-21.4,22.7
		c-5.3,7.3-9.6,15.1-13.5,23.3c-4.4,9.3-7.6,18.9-9.6,28.8c-3.4,16.5-2.6,33.3,0.3,49.7c2.3,13.2,7.3,25.6,14.3,37.1
		c1.4,2.3,3.1,4.5,5.2,6.1c1,0.8,3.5,0.9,4.7,0.2c1.7-1,0.3-2.7-0.4-4c-1.9-3.3-3.9-6.5-5.5-9.9c-4.1-8.7-7.5-17.7-9.2-27.3
		c-1.1-6.6-2.4-13.3-3.1-20c-0.4-3.9,1.4-5.3,5.4-5.2c3.1,0.1,6.1,0.4,9.2,0.4c10.3,0,20.6,0,30.8,0c4.8,0,5.8,1.1,6,5.9
		c0.3,7.2,0.5,14.4,1.2,21.6c0.5,4.3,1.9,8.6,3,12.8c0.5,2,2.1,2.9,4.2,2.5c2.2-0.4,2.9-2,2.8-4c0-0.9-0.2-1.8-0.4-2.7
		c-3-10.2-2.9-20.8-3.7-31.3c-0.3-3.9,1.4-5.3,5.3-5.3c15.8,0.1,31.7,0.1,47.5,0.2c4.6,0,5.9,1.3,6,5.9c0.1,2.8,0,5.6,0.6,8.3
		c0.2,1.1,1.8,2.6,2.8,2.7c1,0,2.6-1.4,2.9-2.5c0.7-2.6,1-5.3,1.2-8c0.3-5.1,1.8-6.6,6.8-6.6h25.9v-0.1c6.9,0,13.7,0,20.5,0
		c4.5,0,5.8,1.4,5.7,5.8c0,1.3-0.4,2.5-0.3,3.8c0.2,2.2,0.3,4.5,1,6.6c0.9,2.5,3.5,3,5.1,0.9c1.3-1.7,2.2-3.9,2.7-6
		c0.5-2.1,0.3-4.3,0.5-6.5c0.4-3.5,1.6-4.6,5-4.6c5.9,0,11.7,0,17.6,0c6.8,0,13.7-0.1,20.5,0.2c6.3,0.2,7.8,2,6.8,8.1
		c-1.2,7-2.9,13.9-4.2,20.9c-0.3,1.8-0.2,4,0.6,5.6c1.4,2.8,4.1,2.6,5.4-0.3c1-2.4,2.1-4.8,2.5-7.4
		C374.3,216.5,376.2,203.9,375.4,190.8z M221.1,86.8c4.5-4.1,9.5-7,15.5-8.3c4.2-0.9,5.7,0.2,5.8,4.5c0,8.2,0,16.4,0,24.6h0.3
		c0,9.3,0,18.5,0,27.8c0,4.1-1.8,6-6,5.6c-13.5-1.3-26.6-4.2-39.4-8.8c-3.3-1.2-4-2.5-2.6-5.8C201.1,111.6,209,97.8,221.1,86.8z
		 M163.6,111.3c6.3-6,12.6-12.1,20.4-16.3c6.3-3.4,12.7-6.7,19.1-9.9c1.8-0.9,3.7-1.3,4.8-1.6c2.6-0.2,3.2,0.8,2.7,2.3
		c-0.3,0.9-0.8,1.9-1.6,2.5c-5.7,5-9.3,11.4-12.7,18c-3,6-5.9,12.1-8.7,18.3c-1.5,3.3-4.4,4.5-7.5,2.6c-5.6-3.5-11-7.2-16.4-10.9
		C161.8,114.7,162,112.8,163.6,111.3z M182.2,143.2c-4,14.3-6.8,28.9-6.2,43.9c0.3,6.7-1.7,8.1-8.4,7.8c-6.6-0.3-13.1-0.1-19.7-0.1
		v-0.3c-6,0-11.9,0-17.8,0c-3.9,0-5.3-1.4-5.1-5.3c0.2-4,0.4-8.1,1.4-12c2.3-9.6,5.2-19,9.4-28.1c4.4-9.4,9.9-17.9,16.2-26
		c2.9-3.8,4.4-3.6,8.3-1c5.2,3.6,10.8,6.7,16.3,10c0.2,0.1,0.3,0.1,0.5,0.2C184.4,136.3,184,136.5,182.2,143.2z M237.4,195
		c-9.3,0-18.5,0-27.8,0v-0.5c-6.5,0-13,0-19.4,0c-6.1,0-7.1-1.1-6.8-7.1c0.7-13,2-26,5-38.8c0.4-1.8,0.6-3.5,1.1-5.3
		c0.9-3.5,3.3-4.7,6.8-3.5c12.6,4.4,25.5,7.4,38.9,8.1c0.9,0,1.8,0.2,2.7,0.3c3.8,0.7,4.9,1.9,5,5.8c0.1,3.4,0,6.8,0,10.3
		c0,8.4,0.1,16.8,0.1,25.1C242.9,193.8,241.6,195,237.4,195z M285.8,83.2c5.1,2.2,10.2,4.4,15.1,7.1c5.6,3,11,6.4,16.3,9.9
		c3.8,2.5,7.3,5.5,10.8,8.5c1,0.8,1.6,2.2,2.5,3.6c-0.9,1.4-1.4,2.8-2.3,3.5c-5.6,3.7-11.4,7.3-17.2,10.7c-2.2,1.3-4,0.5-5.1-1.8
		c-2.6-5.7-5.1-11.5-7.8-17.2c-3.4-7.1-7.6-13.6-13.5-19c-0.5-0.4-1.1-0.8-1.3-1.4c-0.4-1.2-0.5-2.5-0.8-3.7
		C283.7,83.2,284.9,82.8,285.8,83.2z M249.3,111.3c0-9.5,0-19.1,0-28.6c0-4.4,2.2-5.6,6.8-4.6c11.3,2.5,18.5,10.1,25.3,18.6
		c7,8.8,12.1,18.7,16.1,29.1c1.4,3.7,0.4,5.6-3.3,6.9c-12.5,4.5-25.4,7.2-38.7,8.2c-3.9,0.3-5.6-1.4-5.6-5.4c0-8.1,0-16.2,0-24.3
		H249.3z M301.7,194.6c-6.8-0.1-13.7,0-20.5,0v0.4c-8.8,0-17.6,0-26.5,0c-2.6,0-4.3-1.3-4.5-4c-0.1-1.3,0.1-2.7,0.1-4
		c-0.1-10.3-0.1-20.5-0.4-30.8c-0.1-5.3,1.1-7.5,6.5-7.8c10.5-0.6,20.7-2.8,30.8-5.5c3.3-0.9,6.4-2.3,9.7-3.4
		c3.9-1.3,5.5-0.1,6.6,3.9c3.8,14,5,28.4,6.3,42.7C310.4,193.3,308.9,194.7,301.7,194.6z M361.2,194.5c-6.5,0-13,0-19.5,0v0.1
		c-6.4,0-12.8,0-19.2,0c-3.7,0-4.7-1.2-5.1-4.8c-1.4-12.8-2.8-25.6-4.5-38.3c-0.5-3.5-1.8-7-2.8-10.4c-1.3-4.1-0.5-6.4,3.5-8.4
		c3.8-1.9,7.7-3.5,11.4-5.5c3.3-1.8,6.4-3.9,9.4-6.2c2.6-2.1,4.7-2.3,6.7,0.3c6.4,7.8,12,16.1,15.8,25.4c4.8,11.6,8.9,23.4,10.3,36
		c0.1,1.3,0.5,2.7,0.7,4C368.8,192.1,366.9,194.5,361.2,194.5z"/>
	<path d="M461.1,151.1c-5.4,7-10.9,13.8-16.3,20.8c-4.2,5.4-8.4,10.8-12.6,16.2c-3.8,4.9-7.5,4.9-11.1,0c-6.7-8.8-13.3-17.7-20-26.5
		c-2.3-3.1-4.7-6.2-7-9.3c-1.7-2.3-2.3-5-1.1-7.7c1.2-2.8,3.8-3.8,6.6-3.9c4.1-0.2,8.3-0.3,12.4-0.2c1.5,0,3.1,0.3,4.5,0.6
		c2.2,0.6,3.2,2.2,3,4.5c-0.2,2.3-1.6,3.5-3.8,3.4c-2.3,0-4.6-0.6-7-0.5c-1.7,0-4.2,0.2-5,1.3c-1.3,1.6,0,3.6,1.3,5.3
		c5.4,6.6,10.7,13.3,16,20c1,1.3,1.9,2.6,3,3.8c1.8,2,3.8,2,5.5-0.1c4-5,7.7-10.2,11.7-15.2c2.2-2.8,4.5-5.5,6.8-8.3
		c0.6-0.7,1.2-1.4,1.5-2.2c1.3-2.9,0.5-4.4-2.7-4.3c-3.7,0-7.4,0.3-11,0.8c-5.3,0.6-7.4-0.9-8.7-6c-2.3-9.3-4.2-18.8-7.3-27.9
		c-4.7-13.9-12.3-26.3-23.6-35.9c-5.9-5-12.3-9.7-19.1-13.5c-9.6-5.3-20.1-8.4-31-9.4c-12-1.1-23.7,0.1-35.2,4
		c-1.2,0.4-2.4,0.9-3.5,1.4c-2.2,1-4.2,0.6-6.1-0.8c-2.7-2-2.3-5.5,1.2-6.7c3.8-1.4,7.7-2.7,11.6-3.3c7.9-1.3,15.8-2.2,23.8-3.2
		c13,0.5,25.2,3.3,37,8.5c11.4,5,21.8,11.8,30.2,20.9c5.6,6.1,10.4,13.1,14.8,20.2c6,9.8,9.3,20.8,12.3,31.9c0.6,2.1,0.7,4.3,1,6.4
		c0.8,4.8,3,6.5,7.8,6.2c4.7-0.3,9.3-0.4,14-0.5c0.9,0,1.8,0,2.7,0.2C463.5,143.1,464.7,146.4,461.1,151.1z"/>
	<path d="M145,387.2c-0.8,2.5-3,2.6-4.9,1.8c-5.5-2.1-11.2-4.1-16.4-6.8c-9.5-5-18.4-11-25.7-19c-6.7-7.3-12.2-15.3-16.5-24.2
		c-5-10.4-8.5-21.2-10.9-32.4c-0.6-3-1-6-1.4-9.1c-0.4-2.5-1.8-3.6-4.2-3.6c-3.7,0-7.4,0-11.1,0v0.1c-3.7,0-7.4,0.1-11.1,0
		c-5.1-0.2-7.6-4.1-4.9-8.6c2-3.4,4.6-6.4,7-9.6c5.8-7.5,11.5-15,17.4-22.4c2.8-3.5,5.7-7,8.7-10.3c2.4-2.6,5.1-2.5,7.4,0.3
		c8,10,15.9,20,23.8,30.1c2.2,2.8,4.3,5.8,6.4,8.7c1.8,2.5,2.1,5.2,0.6,7.9c-1.5,2.7-3.9,4.2-7,4.3c-5,0.1-10,0.2-15.1,0.2
		c-3.5,0-4.9-1.3-4.9-4.3c0-3.2,1.5-4.6,5-4.4c1.4,0.1,2.8,0.5,4.3,0.6c1.6,0.2,3.2,0.5,4.8,0.4c3.6-0.3,4.8-3,2.6-5.9
		c-2.4-3-5.1-5.8-7.5-8.8c-4.7-6-9.2-12.2-13.8-18.3c-1.6-2.2-4.4-2.2-6.2,0.1c-5.9,7.6-11.6,15.3-17.4,23c-1.1,1.4-2.5,2.6-3.4,4.1
		c-0.6,1-1.2,2.5-0.9,3.4c0.3,0.9,1.9,1.8,2.9,1.8c5.5,0.1,11,0.1,16.4-0.3c3.9-0.2,5.5,0.3,6.4,4c1.1,4.5,1.4,9.3,2.5,13.8
		c1.9,7.4,4.1,14.7,6.4,22c1.2,3.7,3,7.1,4.6,10.6c6.1,13.2,15.3,23.9,27,32.3c8.1,5.8,16.8,10.4,26,14
		C144.1,383.6,145.9,384.6,145,387.2z"/>
	<path d="M333.1,407.8c-8.5,4.1-17,8.1-25.5,12.2c-2.3,1.1-4.6,2-7.4,3.2c-1.1-1-2.6-1.7-3.1-2.9c-0.8-2-0.3-4.3,1.7-5.5
		c3.4-2,6.9-3.9,10.4-5.6c6.7-3.1,13.4-6.1,20.2-9c2.4-1,4.6-0.1,5.7,2.1C336.4,404.6,335.8,406.5,333.1,407.8z"/>
	<path d="M324.4,395.5c-5.9,2.7-11.8,5.3-17.7,7.9c-1.7,0.8-3.5,1.5-5.3,2.1c-2.4,0.8-5.1-0.2-6-2.3c-0.9-2-0.1-3.6,2.7-5
		c5.4-2.7,10.8-5.2,16.2-7.8c2.5-1.2,4.9-2.5,7.3-3.7c2.6,0.5,4,1.7,4.6,3.8C327,392.7,326.6,394.6,324.4,395.5z"/>
</g>
</svg>
