<?xml version="1.0" encoding="utf-8"?>
<!-- Generator: Adobe Illustrator 24.0.1, SVG Export Plug-In . SVG Version: 6.00 Build 0)  -->
<svg version="1.1" id="Layer_1" xmlns="http://www.w3.org/2000/svg" xmlns:xlink="http://www.w3.org/1999/xlink" x="0px" y="0px"
	 viewBox="0 0 500 500" style="enable-background:new 0 0 500 500;" xml:space="preserve">
<g id="Arrow_3">
	<g id="Arrow_6">
	</g>
</g>
<g>
	<path d="M447.4,304.8c0-1-0.7-2.3-1.5-2.9c-2.6-2-3.1-4.6-3.1-7.6c0.1-9.8,0.3-19.6,0.1-29.4c-0.1-9.1-2.8-17.2-10.7-22.6
		c-3.9-2.7-8.2-4.9-12.2-7.3c-2.9-1.7-6.5-3-8.4-5.4c-8.6-11.1-16.8-22.5-25-33.9c-5.8-7.9-11.2-16.1-17.2-23.8
		c-6.4-8.4-14.6-13.4-25.8-12.8c-10.5,0.5-21,0.1-31.5,0.1c-3.8,0-4.5-0.9-4.4-4.6c0.1-4.1,0.1-8.1-2.7-11.6c-4-5-9.3-6.6-15.2-6.6
		c-35.5-0.1-71-0.1-106.5-0.1v0.1c-16.2,0-32.4,0-48.7,0c-19.4,0-38.7-0.1-58.1,0.1c-11.6,0.1-17.9,6.6-17.9,18.3
		c0,3.3,0.3,6.6,0.3,9.9c0.1,19,0.1,38,0.2,57c0.1,23.9,0.2,47.9,0.3,71.8c0,2,0.1,3.9-2.2,4.8c-3.3,1.3-4.5,4-4.6,7.2
		c-0.2,4.1-0.3,8.1-0.4,12.2c-0.2,8.3,4.4,13.6,12.7,14c5.2,0.3,10.4,0.1,15.6,0.1c7,0,14.1,0,21.1,0c2.3,0,3.6,1.2,4.6,3.2
		c1.4,3.1,2.9,6.3,4.5,9.3c4.4,8.6,11.7,14.1,20.6,16.9c20,6.4,40.4-2,49.7-21.8c2.5-5.3,5.3-7.4,11.5-7.4
		c35.8,0.3,71.5,0.2,107.3,0.1c10.4,0,20.8-0.2,31.2-0.3c2,0,3.2,1.1,4,2.8c1.8,3.6,3.3,7.4,5.5,10.9c5,8,12.2,13.5,21.1,16.4
		c10,3.3,19.7,1.9,29.3-2.4c10.3-4.7,16.4-12.7,20.1-22.9c1.4-3.9,2.8-4.8,6.9-4.7c5.7,0.2,11.4,0.2,17.2-0.1
		c6.8-0.3,11.6-4.6,12.3-11.4C447.9,315.2,447.6,310,447.4,304.8z M374.6,191.3c6.4,9.1,12.7,18.2,19.1,27.3c1.4,2,2.9,3.9,4.2,5.9
		c0.6,0.9,0.8,2,1.1,3c-1.1,0.4-2.2,1-3.2,1c-10.1,0.1-20.3,0-30.5,0c0,0,0,0,0,0h-31c-2.7,0-3.8-1.1-3.7-3.8
		c0.1-10.9,0.2-21.7,0.2-32.5c0-4.3,0.9-4.8,5.2-4.8c9.4,0.1,18.8,0.6,28-0.7C369.3,186.1,372,187.7,374.6,191.3z M107,309.7
		c-1.9,3.4-2.3,7-2.5,10.8c-0.3,3.3-1,3.7-4.3,3.6c-9.4-0.2-18.7-0.1-28.1-0.2c-1.3,0-2.6,0-3.9,0c-4.8-0.1-7.1-2.1-8.1-6.8
		c-0.2-0.9-0.3-1.9-0.3-2.8c0.3-7.9,1.4-8.9,9.3-8.8c5.3,0.1,10.6,0,15.9,0c0,0,0,0,0,0c6.5,0,13,0,19.5,0
		C107.7,305.5,108.6,306.8,107,309.7z M144.2,355.2c-17.4-0.1-32.2-13.7-31.8-33.2c0.3-15.2,13-31.5,32.1-31.4
		c18,0.1,33.5,15.5,32.9,31.8C177.6,338.7,162.7,355.3,144.2,355.2z M175.8,297.3c-7.9-7.7-16.9-13.4-28.2-14.2
		c-7.1-0.5-14.3,0.5-20.6,4.2c-4.2,2.5-8.1,5.6-12,8.6c-1.7,1.3-3.3,2-5.4,2c-10.3-0.2-20.5-0.3-30.7-0.5c-2.1,0-4.2,0-6.2,0.2
		c-4.3,0.5-5.4-0.4-5.4-4.7c-0.1-16-0.3-31.9-0.3-47.9c0-25,0.2-50,0.3-75c0-3.7-0.2-7.4-0.3-11.2c0-1-0.1-2.1-0.1-3.1
		c0.1-8.1,3.1-11.1,11.1-11.1c34.9,0,69.8,0,104.6,0v-0.1c34.4,0,68.7,0,103.1,0c2.6,0,5.2,0.2,7.8,0.6c4.1,0.6,6,2.8,6.1,7.1
		c0.1,3.6-0.1,7.1-0.1,10.7c-0.1,16.8-0.2,33.7-0.2,50.5c0,24.7,0,49.3,0,73.9c0,2.4,0.2,4.9,0.3,7.3c0.1,2.4-1.1,3.6-3.4,3.7
		c-1.7,0.1-3.5,0-5.2,0c-27.4,0-54.8,0-82.3,0.1c-7.4,0-14.7,0.2-22.1,0.3c-1.3,0-2.7,0-3.8,0.4
		C179.9,300.4,177.9,299.3,175.8,297.3z M334.8,310.2c-0.9,3.1-1.4,6.4-1.7,9.7c-0.3,3.9-0.7,4.4-4.6,4.4
		c-14.4-0.1-28.8-0.3-43.2-0.2c-29.7,0-59.3,0.2-89,0.2c-2.5,0-5,0.1-7.5,0.1c-2.3,0-3.3-1.2-3.7-3.5c-0.5-3.5-1.3-6.9-2.1-10.4
		c-0.7-3-0.3-3.8,2.8-3.8c24.5,0,48.9,0,73.4,0v-0.1c14,0,27.9,0,41.9,0c10.2-0.1,20.5-0.3,30.7-0.4C336,306,336,306.3,334.8,310.2z
		 M337.4,298.8c-8.9,0.1-17.9,0-26.8-0.1c-2.2,0-3.5-1.3-3.5-3.6c0.1-16.3,0.2-32.6,0.2-48.9c0-4.3,0-8.7,0-13h0.1
		c0-20.5,0-40.9,0-61.4c0-4.1,1-5.1,5-5.1c11.2,0,22.4,0.1,33.6-0.1c7.6-0.1,12.8,4.1,17.3,9.6c1.5,1.8,0.5,3.7-2.1,3.9
		c-2.9,0.2-5.7,0.4-8.6,0.4c-8.2,0.1-16.5,0.1-24.7,0.1c-3.5,0-4.9,1.4-4.9,4.8c0,14.3,0.1,28.6,0.1,42.9c0,0.3,0,0.7,0,1
		c0.3,5.7,1,6.4,6.6,6.4c24.6,0,49.1,0,73.7,0.1c2.4,0,5.1,1,7.3,2.3c5.5,3,10.9,6.3,16.2,9.8c6.1,4.1,8.5,10.4,8.4,17.5
		c0,9.3-0.2,18.5-0.3,27.8c-0.1,4.2-1.3,5.1-5.4,5c-6.4-0.1-12.8-0.1-19.2,0c-3,0.1-5.3-0.8-7.6-2.7c-3.9-3.3-7.9-6.6-12.3-9
		c-7.7-4.3-16-5-24.7-3.2c-9.6,2-17.3,7.1-24.4,13.6C340.5,298.1,338.8,298.7,337.4,298.8z M373.5,355.6
		c-17.7,0.4-32.6-15.3-32.3-33c-0.5-15.6,12.2-31.8,31.4-32.1c19.1-0.2,32.4,14.2,33.1,32.4C406.3,340,391.9,355.1,373.5,355.6z
		 M439.8,318.8c-0.5,3.2-2.8,5.3-6,5.4c-5.6,0.1-11.3,0.1-16.9,0.1c-2.2,0-3.1-1.5-3.6-3.4c-0.8-3.7-1.7-7.4-2.7-11.1
		c-0.7-2.9,0-3.7,3.1-3.7c3.5,0,6.9,0,10.4,0v0.4c4.1,0,8.2-0.2,12.2,0c3,0.2,4.3,1.9,4.2,4.8C440.4,313.8,440.2,316.3,439.8,318.8z
		"/>
	<path d="M260.2,198.3c-4.7-2.4-9.4-4.7-14.1-7.2c-9.3-4.9-18.5-9.8-27.8-14.7c-1.5-0.8-3.2-1.1-4.7-1.6c-1.2,0.3-2.2,0.3-3.1,0.7
		c-5.2,2.4-10.3,4.9-15.4,7.4c-6,2.9-12,5.8-18,8.7c-3.8,1.8-7.8,3.2-11.5,5.2c-3.3,1.8-3.3,3.4-1.3,6.6c1.1,1.7,2.5,3.6,2.6,5.5
		c0.2,11.7,0.2,23.4-0.1,35.1c-0.1,3.2,1,5.5,3.6,6.8c5.2,2.6,10.4,5,15.7,7.6c6.1,3,12.5,5.5,18.4,9c5.7,3.3,10.8,3.3,16.7,0.5
		c9.9-4.8,20-9,30.2-13.3c4.8-2,6.1-3.7,6.1-8.9c0-11.2,0.1-22.4,0-33.6c0-3.2,0.3-5.8,3.4-7.7C263.6,202.7,263.1,199.8,260.2,198.3
		z M209.4,256c0,3.9-1.2,4.5-4.8,2.8c-8.9-4.3-17.9-8.6-26.9-12.7c-2.3-1.1-3.1-2.5-3-5.1c0.2-4.3,0.1-8.7,0.1-13h-0.3
		c0-5.5-0.1-11.1,0-16.6c0-1.1,0.5-2.5,1.3-3.1c0.5-0.4,2.1,0.3,3,0.8c6.5,3.3,12.9,6.6,19.3,10.1c3.3,1.8,6.6,3.6,9.7,5.9
		c1.1,0.8,1.8,2.8,1.8,4.3C209.6,238.2,209.5,247.1,209.4,256z M206.2,214.6c-8.4-4.3-16.8-8.6-25.2-12.9c-0.6-0.3-1.3-1-1.3-1.4
		c0.1-0.6,0.7-1.5,1.2-1.7c4.6-2.3,9.2-4.4,13.8-6.6c3-1.5,6.1-2.9,9.1-4.4c2.6-1.2,5.1-2.6,7.7-3.7c1.1-0.4,2.7-0.4,3.7,0.1
		c7,3.4,13.9,7.1,20.8,10.6c3,1.5,6.1,2.9,9.1,4.3c2.1,0.9,2.4,2.4,0.8,4c-0.5,0.5-1.1,0.8-1.7,1.1c-8.2,3.8-16.4,7.4-24.5,11.2
		c-2,0.9-3.9,2.1-5.9,3.2C211.1,217.1,208.6,215.9,206.2,214.6z M250.2,227.8L250.2,227.8c-0.1,4.8-0.1,9.5,0,14.3
		c0,3.7-1,5-4.5,6.5c-7.6,3.3-15.2,6.7-22.8,10.1c-0.2,0.1-0.3,0.2-0.5,0.3c-1.4,0.5-2.9,1-4.3,1.5c-0.3-1.5-0.8-3.1-0.8-4.7
		c-0.2-8.9-0.2-17.9-0.3-26.8c0-2.8,1.6-4.5,3.8-5.6c8.7-4.3,17.4-8.6,26.1-12.9c2.2-1.1,3.3-0.5,3.3,2
		C250.3,217.5,250.2,222.7,250.2,227.8z"/>
	<path d="M154.7,215.5c0.1,2.4-1.2,3.8-4.1,4c-2.8,0.2-5.7,0.2-8.6,0.2c-9.1,0-18.2,0-27.3,0c-10,0-20,0-29.9,0
		c-2.9,0-5.9,0.3-8.8,0.3c-2.4,0-4.5-0.8-5-3.6c-0.6-3,1-5,4-5.1c2.8,0,5.7,0.4,8.6,0.4c19.3,0.2,38.7,0.3,58,0.5
		c3,0,5.9-0.2,8.8-0.2C153.2,212,154.6,213.2,154.7,215.5z"/>
	<path d="M154,243.2c-1.2,0.4-2.6,0.4-3.8,0.4c-8.6,0-17.2,0-25.7,0v0.3h-27c-0.3,0-0.5,0-0.8,0c-2.1-0.5-4.4-0.9-4.6-3.5
		c-0.2-2.5,1.7-3.6,3.7-4.4c0.8-0.3,1.7-0.3,2.5-0.3c17.4,0,34.8-0.1,52.3,0c1.6,0,3.5,0.6,4.7,1.6
		C157.6,239.3,156.9,242.3,154,243.2z"/>
	<path d="M158.1,192.8c0.2,2-1,3.1-2.8,3.6c-1.6,0.4-3.2,0.7-4.8,0.7c-7.8,0.1-15.6,0-23.4,0v-0.3c-7.4,0-14.7,0-22.1,0
		c-1.3,0-2.6,0-3.9-0.2c-1.8-0.3-3.2-1.2-3.2-3.2c0-1.9,0.9-3.4,2.8-3.9c1.1-0.3,2.4-0.4,3.6-0.4c14.5,0,29,0,43.4,0
		c2.3,0,4.7,0.2,7,0.4C156.7,189.7,157.9,190.8,158.1,192.8z"/>
	<path d="M351.8,254.6c0,2.3-1.5,3.8-4.2,3.9c-3.3,0.1-6.6,0-9.9,0c0,0,0,0,0,0c-3.4,0-6.8,0.1-10.1,0c-2.6-0.1-3.9-1.3-3.9-3.5
		c0-2.3,1.2-3.5,3.8-3.6c6.7-0.2,13.4-0.3,20-0.4C350.3,251.1,351.8,252.4,351.8,254.6z"/>
	<path d="M145.6,304.7c-9.6,0-18.3,9.4-18.7,19.7c-0.3,9.6,10.8,17.4,17.6,17.3c8.8-0.1,18.9-7.8,18.3-18.4
		C163.4,312.2,154.3,304.7,145.6,304.7z M154.9,322.9c-0.2,6-5.2,11.4-10.4,11.1c-5.7-0.3-10.1-5.2-9.9-11.2
		c0.2-5.1,5.9-10.7,10.8-10.4C149.6,312.8,155.7,316.3,154.9,322.9z"/>
	<path d="M374.3,304.5c-10.7-0.5-19,8.1-19.2,18.3c-0.3,10.3,8.4,18.3,18.6,18.5c7.8,0.1,18.3-7.1,18-18
		C391.9,312.9,384.3,304.9,374.3,304.5z M383.9,322.7c-0.3,6.3-5.1,11.6-10.5,11.3c-6.3-0.3-10.7-5.1-10.3-11.6
		c0.3-6.1,5-10.4,11.1-10.2C378.9,312.3,384.5,317.5,383.9,322.7z"/>
</g>
</svg>
