<?xml version="1.0" encoding="utf-8"?>
<!-- Generator: Adobe Illustrator 24.0.1, SVG Export Plug-In . SVG Version: 6.00 Build 0)  -->
<svg version="1.1" id="Layer_1" xmlns="http://www.w3.org/2000/svg" xmlns:xlink="http://www.w3.org/1999/xlink" x="0px" y="0px"
	 viewBox="0 0 500 500" style="enable-background:new 0 0 500 500;" xml:space="preserve">
<g id="Arrow_3">
	<g id="Arrow_6">
	</g>
</g>
<g>
	<polygon points="286.1,178.8 252.8,223.3 219.5,178.8 236.7,178.8 236.7,134 268.8,134 268.8,178.8 	"/>
	<g>
		<polygon points="286.1,178.8 252.8,223.3 219.5,178.8 236.7,178.8 236.7,134 268.8,134 268.8,178.8 		"/>
	</g>
	<path d="M462.4,207.8c-2.7-14.7-6.1-29.1-12.1-42.7c-4.8-10.9-10.1-21.8-16.2-32.1c-5-8.5-10.8-16.7-17.3-24.2
		C405,95,391.8,82.5,376.7,71.9C365.4,64,353.3,57.7,341,51.7c-9.5-4.6-19.8-7.3-29.8-10.6c-6.5-2.1-13.1-4.5-19.9-5.4
		c-13.3-1.8-26.7-2.6-38.9-3.7c-13.4,1-25.6,1.6-37.7,3.1c-6.4,0.8-12.6,3.3-19,4.7c-13.4,2.9-26.1,7.5-38.3,13.8
		c-2,1-4.1,2-6.1,3.1c-7.1,3.8-14.4,7.3-21.2,11.6c-7,4.5-13.5,9.9-20.3,14.9c-11.3,8.3-20.6,18.5-29.2,29.4
		c-4.7,6-8.8,12.4-12.9,18.8c-3.9,6-8.1,12-11,18.5c-4.3,9.6-7.8,19.6-11.3,29.5c-2.4,6.7-4.6,13.5-6,20.4
		c-4.2,20.3-6.8,40.7-4.6,61.5c1.5,13.9,2.5,27.9,6.7,41.3c2.8,9,5.4,18,8.7,26.7c2.9,7.6,6.5,14.9,10.2,22.2
		c3.6,7.1,7.3,14.1,11.6,20.8c3.9,6,8.6,11.6,12.8,17.4c8.9,12.1,19.9,22,31.6,31.2c8.7,6.9,18.1,12.9,27.7,18.5
		c8.7,5.1,17.8,9.9,27.3,13.2c12.1,4.1,24.1,9.3,37,10.7c13,1.4,26,3.3,39.1,4.2c13.4,0.9,26.6-1.2,39.7-3.5
		c7.8-1.4,15.6-3.3,23.3-5.3c5-1.3,9.9-2.8,14.7-4.7c8.5-3.4,17.1-6.7,25.3-10.8c6.9-3.4,13.4-7.6,19.9-11.9c7.2-4.7,14.4-9.5,21-15
		c7-6,13.2-13,19.7-19.6c12.6-12.8,22.7-27.4,30.5-43.4c5.3-10.9,9.9-22.1,14.1-33.4c2.5-6.8,3.4-14.2,5.2-21.2
		c4.1-15.6,5.7-31.6,5.5-47.7C466,236.7,465.1,222.2,462.4,207.8z M446.8,291.1c-1.5,6.1-2.5,12.4-4,18.6c-0.8,3.4-2.1,6.7-3.4,9.8
		c-4.4,10.3-8.4,20.9-13.7,30.7c-8.3,15.3-18.7,29.2-31.7,41c-8.3,7.5-16.5,15.3-25.2,22.4c-5.7,4.5-12.3,7.8-18.4,11.7
		c-8.9,5.6-18.7,9.5-28.4,13c-12.6,4.6-25.2,9.4-38.7,10.8c-10,1-19.9,3-29.9,3.5c-15.1,0.8-30.1-1.6-44.8-5
		c-7.4-1.7-14.7-4-21.9-6.5c-9.2-3.3-18.6-6.4-27.3-10.8c-19.6-9.9-37.8-22.2-52.5-38.6c-9-10.1-16.7-21.5-24.4-32.7
		c-4.4-6.3-7.9-13.2-11.6-20c-1.2-2.3-1.7-5-2.8-7.3c-7-15.4-10.8-31.8-14.4-48.2c-3.9-17.6-3.8-35.6-2.6-53.5c0.3-5,0.7-10,1.1-15
		c0.7-8.8,3.3-17.1,6.3-25.3c1.1-3,1.2-6.3,2.4-9.1c3.5-8.4,7-16.9,11.1-25c3.3-6.6,7.2-13,11.2-19.2c7.9-12.2,16.8-23.7,28.2-32.9
		c9-7.3,17.9-14.7,27.3-21.4c5.7-4.1,12.4-6.7,18.4-10.5c8.4-5.4,17.9-8,26.9-11.9c2.6-1.1,5.3-1.9,8-2.6c7.5-1.9,15-4.2,22.6-5.4
		c11.6-1.8,23.4-2.8,35-4.2c0,0.3,0.1,0.6,0.1,1c18.6-0.4,36.9,2.1,54.6,7.8c9.8,3.1,19.5,6.3,29,10.2c6.8,2.8,13.1,6.9,19.5,10.6
		c6.6,3.8,13.2,7.6,19.5,11.9c5.2,3.6,10.2,7.5,14.8,11.8c14.4,13.3,26.1,28.7,36.1,45.5c7.9,13.2,13.6,27.3,18.8,41.6
		c2.1,5.6,2.5,11.7,3.7,17.6c1.6,8.4,3.7,16.7,4.5,25.1C452,250.6,451.8,271,446.8,291.1z"/>
	<path d="M402,215.6c-2.2-2.1-4.8-3.8-7.4-5.3c-8.5-5-17.2-9.9-25.7-14.8c-0.9-0.5-1.7-1.3-2.6-2c-3.4-2.7-4.6-6.1-4-10.4
		s0.9-8.7,1-13.1c0.1-13.1,0-26.2,0-39.3c0.8-3.4,1.1-7-2.4-9c-4-2.2-8-4.4-12.2-6.2c-9.2-4-18.5-7.7-27.6-11.8
		c-7.2-3.2-14.1-6.9-21.2-10.2c-11.9-5.6-23.8-11.5-36.4-15.4c-7.5-2.3-15-4.7-22.7-1.6c-11.4,4.6-22.8,9.4-34,14.5
		c-8.2,3.6-16,7.9-24.2,11.6c-6.3,2.8-13.1,4.6-19.1,8.5c-4.9,3.1-10.7,4.9-16,7.3c-4.5,2-7.3,5.1-7.2,10.3c0.1,7.2-0.1,14.4,0,21.6
		c0.1,9.2-0.1,18.4,0.9,27.4c1.1,9.4-1.6,16-10.4,19.8c-4.2,1.8-8.4,3.6-12.3,5.9c-4,2.4-7.6,5.4-12.5,6.2c-1.6,0.3-3.1,1.5-4.5,2.6
		c-5.4,4-5,9,0.7,12.5c3.8,2.3,7.7,4.7,11.4,7.1c3.3,2.1,5.3,5.1,5.2,9.2c-0.1,6.1-0.1,12.2-0.1,18.3c0.2,20.6,0.5,41.3,0.7,61.9
		c0,1.2,0.2,2.4,0.3,3.6c0,8.4,0.9,16.9-0.2,25.1c-1.1,7.9,3.9,15.8,12.1,17.4c1.7,0.3,3.4,0.9,4.9,1.7c6.4,3.5,12.6,7.4,19.2,10.5
		c10.2,4.8,20.7,9.1,31.1,13.7c9.7,4.3,19.3,8.5,28.8,13c8.4,4,16.8,8.3,25,12.8c4.7,2.6,9.3,3.6,14.4,1.4
		c11.1-4.8,22.3-9.5,33.4-14.3c8.6-3.7,17.1-7.6,25.7-11.4c6-2.6,12.1-5.1,18-7.8c7.3-3.4,14.4-7.3,21.7-10.6
		c6.1-2.8,12.4-5.5,18.8-7.6c4.9-1.6,7.8-4.6,7.9-9.8c0.2-11.1,0.4-22.3,0.6-33.4c0.3-18.9,0.6-37.8,0.7-56.7
		c0-8.8-0.5-17.7-0.5-26.5c0-6,2-8.3,7.3-10.8c4.6-2.2,9-5,13.1-7.9C404.7,221.5,404.8,218.3,402,215.6z M241.2,399.4
		c-2.5,1.8-5.1,1-7.4-0.3c-7.5-4-14.8-8.3-22.4-12.1c-4.2-2.1-8.7-3.4-13-5.2c-11.8-4.9-23.8-9.8-35.5-15
		c-6.8-3.1-13.5-6.6-19.9-10.6c-5-3.1-7.3-8.1-7.3-14.2c-0.1-19.6-0.4-39.1-0.7-58.7c-0.1-9.1-0.5-18.1-0.6-27.2
		c0-3.1,0.3-6.1,0.7-9.1c0.4-3.3,2.2-4.8,5.5-4.8c1.4,0,2.9,0,4.2,0.6c5,2.4,9.9,5,14.9,7.4c4.1,2,8.2,3.9,12.4,5.8
		c2.5,1.1,5,2.2,7.4,3.4c7,3.5,14,7.1,21.1,10.5c7.2,3.4,14.6,6.3,21.7,9.8c5.6,2.7,11,5.9,16.2,9.2c4.1,2.6,4.8,7.1,4.8,11.6
		c0.1,10.5,0,21,0,31.5h-0.7c0,14.8-0.1,29.5,0,44.2c0,5.3,0.5,10.7,0.8,16C243.7,395,243.6,397.6,241.2,399.4z M366,271.2h-0.7
		c0,22.4,0,44.8,0,67.2c0,4.2-0.1,8.5-0.7,12.6c-0.6,4.1-3.7,6.5-7.4,8.2c-10.3,4.6-20.6,9.4-30.9,14.1c-1.5,0.7-3,1.2-4.5,1.9
		c-11.2,5-22.4,10-33.6,15.2c-6.2,2.9-12.4,5.9-18.5,8.9c-5.3,2.6-11.5,1.1-11.4-7.4c0.3-28,0.1-55.9,0.1-83.9
		c0-3.6,0.1-7.2-0.1-10.8c-0.2-5.9,3.6-8.9,8-11.3c7.8-4.2,15.6-8.1,23.5-12.1c1.9-1,4.1-1.6,6.1-2.5c10.7-4.9,21.3-9.9,32.1-14.7
		c7.5-3.4,15.2-6.4,22.8-9.8c2-0.9,3.7-2.2,5.6-3.3c4.6-2.7,8.4-1.1,9.1,4.1c0.5,3.9,0.5,7.8,0.6,11.8
		C366.1,263.3,366,267.3,366,271.2z M363.2,223.9c-7.3,3.1-14.7,6.2-21.9,9.4c-4.2,1.9-8.2,4.1-12.3,6.1
		c-11.5,5.4-23.1,10.7-34.7,16c-8.1,3.7-16.3,7.3-24.4,11.2c-3.8,1.8-7.4,4.1-11.2,6.1c-5.9,3.1-12,2.4-17.7-0.4
		c-8.9-4.3-17.5-9.2-26.4-13.6c-8.5-4.2-17.1-8.1-25.7-12.1c-9.4-4.4-18.7-8.9-28.2-13c-7.8-3.3-15.8-6-23.8-8.9
		c-2.5-0.9-5-1.8-5.7-4.8c-0.7-3.1,0.9-5.6,3.3-6.9c4-2.2,8.1-4.5,12.5-5.5c8.1-1.9,10.5-10.1,10.1-15.9
		c-0.6-11.2-1.3-22.4-1.8-33.7c-0.3-6.1-0.6-12.2-0.6-18.3c0.1-7.7,2.8-10.8,10.2-12.7c1.4-0.4,2.7-0.8,4-1.5
		c8.3-4.1,16.5-8.3,24.9-12.2c8.3-3.9,16.7-7.4,25.1-11.1c7.7-3.4,15.3-7,23-10.3c2.4-1,5-1.4,7.3-2.1c2.4,0.5,4.6,0.6,6.4,1.4
		c8.5,3.6,17,7.4,25.4,11.2c7.6,3.3,15.2,6.6,22.7,10c11,5,22,10,33,15c0.7,0.3,1.4,0.7,2.1,0.9c8.2,2.8,9.1,6.8,9.3,14.7
		c0.1,8.4-0.3,16.8-0.4,25.2c0,8.4,0.1,16.8-2.7,24.9c-1.8,5.1,3.6,12.2,9.8,14c2.8,0.8,5.6,1.8,8.4,2.7c3.4,1.2,5.2,3.6,5.3,7.1
		C368.5,220.4,366.3,222.6,363.2,223.9z"/>
</g>
<g id="Arrow_26">
</g>
</svg>
