<?xml version="1.0" encoding="utf-8"?>
<!-- Generator: Adobe Illustrator 24.0.1, SVG Export Plug-In . SVG Version: 6.00 Build 0)  -->
<svg version="1.1" id="Layer_1" xmlns="http://www.w3.org/2000/svg" xmlns:xlink="http://www.w3.org/1999/xlink" x="0px" y="0px"
	 viewBox="0 0 500 500" style="enable-background:new 0 0 500 500;" xml:space="preserve">
<g id="Arrow_3">
	<g id="Arrow_6">
	</g>
</g>
<g>
	<path d="M453.3,343.7c0.1-4.1-1.4-7.2-5-9.3c-1.7-1-2.5-2.4-2.5-4.4c0.1-12.9,0.2-25.8,0-38.7c-0.1-3.9-0.3-8.2-1.9-11.6
		c-3.8-8.3-8.5-16.2-13-24.1c-3.9-7-7.9-14-12.2-20.8c-4.6-7.3-9.4-14.5-14.2-21.7c-2.8-4.1-6.6-6.8-11.6-7.4
		c-3.1-0.4-6.2-0.8-9.3-0.9c-2-0.1-3.1-0.9-3.8-2.7c-1-2.8-1.8-5.6-3-8.3c-3.6-7.9-9.6-13.4-18.3-14.5c-8-0.9-16.1-0.5-24.2-0.5
		c-7,0-7,0.1-7-6.9c0-10.8-6.7-17.5-17.4-17.5c-14.4,0-28.9-0.1-43.3-0.1c-1.1,0-2.2,0.1-3.3,0.4c-2.2,0.7-3,2.4-2.9,4.5
		c0.1,2.1,1.4,3.2,3.4,3.5c1.4,0.2,2.9,0.2,4.3,0.2c13.4,0,26.8-0.1,40.2,0c7.5,0.1,11,2.8,10.7,10.8c-0.3,7.8-0.3,15.6-0.3,23.4
		c0,17.9,0,35.8,0,53.7h-0.6c0,26.3,0,52.6,0,79c0,3.1-1.3,4.3-4.6,4.3c-3.3,0-6.6-0.2-9.9-0.2c-30,0-59.9,0-89.9,0
		c-12.8,0-25.6-0.2-38.4,0.2c-3.6,0.1-6.1-0.7-8.6-3.2c-5.3-5.2-11.6-9.1-18.7-10.9c-15-3.8-28.6-0.6-40.2,9.9
		c-2.6,2.4-5.4,3.5-9.2,3.4c-8.3-0.4-16.6-0.4-24.9-0.2c-4.8,0.1-6.2-0.9-6.2-5.7c-0.1-24.9-0.3-49.9-0.3-74.9
		c-0.1-26.3-0.1-52.6-0.1-78.9c0-1.7,0.2-3.4,0.5-5.1c0.6-3.4,3.8-6.3,7.2-6.5c3.3-0.2,6.6,0,9.9,0c29.4,0,58.8,0,88.1,0
		c1.1,0,2.4,0.2,3.2-0.4c1-0.6,2.1-1.9,2.2-2.9c0.1-3.3-2.9-5.8-6.2-5.6c-1.7,0.1-3.4,0.3-5.1,0.3c-26.9,0-53.8,0-80.7,0
		c-4.9,0-9.8,0.3-14.7,0.3c-3.6,0-5.9,2.1-8.3,4.4c-3.8,3.9-4.5,8.8-4.5,13.9c0.1,28.1,0.1,56.2,0.2,84.3
		c0.1,22.1,0.2,44.2,0.3,66.2c0,2,0.1,4.1,0,6.1c-0.2,3.1-1,3.8-4,4.2c-0.6,0.1-1.2,0.2-1.8,0.3c-4.5,0.8-6.3,2.6-6.5,7
		c-0.2,5.9-0.2,11.9,0.1,17.8c0.2,4.3,2.4,7.7,6.9,8.8c2.9,0.7,5.8,1.2,8.8,1.2c8.9,0.2,17.8,0.1,26.7,0.1c3.8,0,5.4,1.2,6.9,4.7
		c1.4,3.2,2.9,6.3,4.4,9.4c4.7,9.8,13,15.5,22.9,18.5c10.1,3.1,20.2,2.3,30-2.5c11.1-5.5,18.5-14,22.3-25.7c0.7-2.1,1.8-3.5,4-3.6
		c2.6-0.1,5.2-0.1,7.9-0.1h118.4c7.8,0,15.6,0.1,23.4,0.1c2.1,0,3.5,0.8,4.2,2.9c2,6.8,5.5,12.8,10.5,17.8
		c8.1,8.3,18.2,12.4,29.9,12.3c11.4-0.1,20.9-4.4,29-12.3c4.8-4.7,8-10.5,10.4-16.7c0.5-1.3,1-2.6,1.9-3.5c0.9-0.9,2.2-1.7,3.4-1.7
		c7.2,0,14.4,0.2,21.6,0.2c1.5,0,3.1-0.1,4.5-0.5c5-1.5,8.3-6,8.5-11.8C453.4,351.9,453.2,347.8,453.3,343.7z M97.7,345.5
		c-1.3,3.5-2.3,7-3.2,10.6c-0.8,3.2-1.6,4-5,4c-4.5,0-9,0-13.5,0v-0.4c-5.6,0-11.2,0.1-16.8-0.1c-3.3-0.1-4.4-1.7-4.4-5
		c0-3,0-5.9,0-8.9c0.1-3.8,1.4-4.7,5.2-4.7c9.1,0.2,18.2,0.1,27.2,0.1c2.4,0,4.9-0.1,7.4-0.1C98,341.1,98.7,342.5,97.7,345.5z
		 M136.4,394.7c-19.8,0-33.9-15.7-34-34.5c-0.1-16.6,14.4-34.3,34-33.4c17.2-0.9,34,14.9,33.7,33
		C169.7,379.5,153.8,394.7,136.4,394.7z M403.1,233.9c3.4-0.9,5-0.5,6.9,2.5c4.1,6.7,8,13.6,12,20.4c2.7,4.5,5.5,8.9,8.1,13.5
		c0.7,1.1,1.4,2.9,0.9,3.9c-0.4,0.9-2.4,1.3-3.6,1.3c-9.8,0.1-19.5,0.1-29.3,0.1v-0.1c-9.6,0-19.2-0.1-28.7,0c-5,0-6.4-1.5-6-6.5
		c0.7-9.5,0.3-19,0.3-28.5c0-5.2,1.3-6.3,6.5-6.2c10.2,0.1,20.3,0.1,30.5,0C401.5,234.3,402.3,234.1,403.1,233.9z M327,190.4
		c0.1-2.7,1.1-3.6,3.8-3.6c4,0,8,0,11.9,0v0.1c3.6,0,7.1,0,10.7,0c9.3,0.1,14.5,6.2,16.8,14c0.7,2.3-0.6,3.7-3.4,3.8
		c-3.8,0.2-7.6,0.3-11.4,0.4c-8.2,0.1-16.5,0.1-24.7,0.1c-2.6,0-4.1-1.4-4-4.1C326.7,197.5,326.8,194,327,190.4z M334.9,346.3
		c-2,3.4-3.3,6.8-3.1,10.8c0.1,2.9-1.4,3.9-4.2,3.9c-22-0.1-44-0.2-65.9-0.3c-24.6-0.1-49.2-0.1-73.8-0.1c-1.7,0-3.4,0.1-5.1,0.1
		c-3,0.1-4.4-1.1-4.9-4c-0.6-3.6-1.3-7.1-2-10.7c-0.6-3,0.1-3.9,3.2-3.9h74.1v0.1c23.2,0,46.3,0,69.5,0c3.4,0,6.8-0.3,10.2-0.1
		C335.7,342.3,336.4,343.8,334.9,346.3z M373.2,394.3c-18.4-0.4-33.5-15.7-33.3-34.7c0.1-16.9,14.9-33.3,33-32.6
		c19-0.5,34.1,16.3,34.4,35.1C407.5,377.1,390.9,394.7,373.2,394.3z M404.4,332.4c-7.4-6.9-15.7-12.1-26-13.3
		c-7.4-0.9-14.5,0.1-21.4,3.2c-5.4,2.5-10.2,5.6-14.2,10c-0.7,0.8-2,1.5-3.1,1.6c-3.5,0.3-6.9,0.3-10.4,0.1c-2.3-0.1-2.9-1.9-2.9-4
		c0.1-8.5,0.1-17,0.1-25.5c0-9.8,0-19.7,0-29.5h0.3c0-17.1,0-34.1,0-51.2c0-2-0.2-4.1-0.3-6.1c-0.1-2.9,1.3-4.4,4-4.4
		c18.5,0,37,0,55.5,0c0.6,0,1.2,0.1,1.8,0c6.4-0.6,10,3.3,12.9,8.1c1.4,2.4,0.3,4.2-2.8,4.4c-5.1,0.3-10.2,0.6-15.3,0.6
		c-6.8,0.1-13.6,0.1-20.4,0c-3.9,0-6.3,2-6.4,5.9c-0.2,5.3,0,10.7,0,16c0,9,0,18-0.1,27c0,5.5,2,7.7,7.4,7.7
		c21.2,0.2,42.4,0.3,63.6,0.3c1.7,0,3.4-0.3,5.1-0.4c3.6-0.2,5.6,1.8,5.6,5.3c-0.1,13.7-0.3,27.3-0.5,41c0,3.5-1.4,4.4-5,4.4
		c-7.4,0-14.7,0.2-22.1,0.5C407.8,334.5,406.1,334,404.4,332.4z M445.6,349.8c0,1.6-0.1,3.2-0.3,4.8c-0.3,3.7-2.3,5.5-6.1,5.6
		c-1.6,0-3.2,0-4.8,0c-1.6,0-3.2,0-4.8,0V360c-3.5,0-6.9,0.1-10.4,0c-2.9-0.1-4.4-1.4-4.3-4.2c0.1-3.5-1.1-6.4-2.5-9.5
		c-1.6-3.5-0.6-4.8,3.2-4.7c7.4,0.2,14.7,0.1,22.1,0.2C444.3,341.7,445.8,343.1,445.6,349.8z"/>
	<path d="M274.1,218.8c-6.1-2.8-12.2-5.4-18.3-8.2c-6.5-3-12.9-6.1-19.3-9.1c-5.1-2.4-10.2-4.7-15.3-6.9c-0.9-0.4-2.2-0.4-3.2,0
		c-3.6,1.3-7.1,2.8-10.6,4.3c-3.5,1.5-6.9,3.2-10.4,4.8c-6.2,2.9-12.4,5.7-18.7,8.6c-4.2,2-8.4,4-12.7,5.8c-2,0.9-3.8,1.7-4.2,4
		c-0.4,2.3,1.5,3.3,2.9,4.4c2,1.5,3.3,3.3,3.3,6c-0.1,13.6,0,27.2,0,40.7c-0.8,3.2-0.1,6.1,3.1,7.7c2.6,1.3,5.2,2.4,7.8,3.6
		c8.6,4,17.2,7.9,25.8,12c3.2,1.5,6.2,3.4,9.3,5.1c3.4,1.9,6.7,2.1,10.2,0.2c2.2-1.2,4.5-2.4,6.8-3.5c3.1-1.5,6.1-2.9,9.2-4.2
		c4.2-1.8,8.6-3.6,12.8-5.5c5.1-2.2,10.3-4.4,15.3-6.8c2-0.9,3.1-2.6,3-4.9c0-3.3-0.1-6.6-0.1-9.9c0-11.1,0.1-22.2-0.2-33.3
		c-0.1-3.6,0.4-6.2,3.7-8.1C277.5,223.8,277.3,220.3,274.1,218.8z M215,288.5c0,3-1.9,4.1-4.6,2.8c-8.2-4.2-16.4-8.4-24.6-12.5
		c-2.4-1.2-4.9-2-7.2-3.2c-2-1-3.3-2.5-3.3-5c0.1-11.5,0.2-23.1,0.3-34.6c0-0.6,0-1.2,0-1.8c0.3-2.3,1.6-3.1,3.8-2.1
		c2.5,1.1,4.8,2.4,7.2,3.7c6.2,3.1,12.3,6.3,18.5,9.5c2.2,1.1,4.4,2.1,6.5,3.3c2.2,1.3,3.3,3.2,3.2,5.9c-0.1,5.6,0,11.2,0,16.8h0.1
		V288.5z M216.3,242c-5.7-2.8-11.4-5.6-17.1-8.4c-6-2.9-12-5.8-18-8.8c-0.9-0.4-2.1-1.4-2.1-2.2c0-0.8,1-1.9,1.9-2.3
		c3.8-1.9,7.6-3.6,11.5-5.5c3.9-1.8,7.8-3.7,11.7-5.6c4.2-2,8.3-4.2,12.6-5.9c1.4-0.6,3.6-0.6,5,0.1c9.3,4.3,18.4,8.9,27.6,13.4
		c2.6,1.3,5.3,2.2,7.9,3.5c1,0.5,1.6,1.8,2.4,2.7c-1,0.8-2,1.7-3.1,2.2c-2.8,1.3-5.8,2.3-8.6,3.6c-8.5,4.2-17,8.5-25.5,12.7
		c-1.1,0.6-2.4,0.9-3.4,1.3C218,242.4,217.1,242.4,216.3,242z M263.4,271c0,3.5-1,4.9-4.1,6.2c-9.4,3.9-18.7,7.9-28,11.9
		c-1.4,0.6-2.5,1.7-3.9,2.3c-2.9,1.2-4.3,0-4.3-3.1c0-10.5,0.1-21.1-0.4-31.6c-0.3-5,2-7.4,5.7-9.3c6-2.9,12.1-5.7,18.1-8.5
		c4.2-2,8.3-4.2,12.6-6.2c1-0.5,2.5-1,3.2-0.5c0.8,0.5,1.1,2,1.2,3.1c0.1,6,0,12,0,18.1c0,0,0,0,0,0
		C263.4,259.3,263.4,265.2,263.4,271z"/>
	<path d="M249.7,153.4c-0.5-1.1-2.7-1.8-4.2-2.1c-2-0.3-4.1,0-6.1-0.1c-3.2-0.1-4.2-1.2-4.2-4.4v-22.4h0.1c0-7.4,0-14.8,0-22.2
		c0-3.8-1.2-5.1-5-5.1c-7.1-0.1-14.1-0.1-21.1,0c-4.7,0-5.8,1.1-5.8,5.9c0,13.7,0,27.3,0,41c0,6.6-2.1,8.4-8.6,7.5
		c-1.3-0.2-2.7-0.3-4-0.2c-2.6,0.3-3.6,1.8-2.3,4.1c1.6,2.8,3.5,5.6,5.6,8.1c6.7,8,13.6,15.8,20.3,23.8c3.5,4.2,5.8,4.2,9.3,0.1
		c5.7-6.8,11.5-13.6,17.3-20.3c2.6-3,5.4-5.9,7.8-9.1C249.6,156.9,250.3,154.6,249.7,153.4z M235,162.8c-4.1,5-8.2,9.9-12.3,14.9
		c-2.3,2.7-3.9,2.6-6.2,0c-4.4-5.1-8.8-10.1-13.2-15.1c-0.7-0.8-1.3-1.8-1.6-2.8c-0.5-1.6,0.1-2.7,1.9-2.8c0.6,0,1.2,0,1.8-0.1
		c3.8-0.2,5.1-1.7,5.1-5.4c-0.1-9.2-0.1-18.5-0.1-27.7c0-4.9-0.1-9.9,0-14.8c0-3.5,1.1-4.6,4.5-4.6c2.8,0,5.6,0,8.4,0
		c4.2,0.1,5.5,1.4,5.4,5.6c-0.1,3.3-0.2,6.6-0.3,9.9c0,3.2,0,6.5,0,9.7h-0.4c0,7.3,0,14.6,0,21.9c0,5,1.6,6.2,5.2,6.6
		C237.1,158.4,237.5,159.7,235,162.8z"/>
	<path d="M136.4,341.9c-10.3,0.4-19.2,7.4-19.4,19.1c-0.2,10.1,9.3,19.4,18.3,19c9,0.8,19.9-8.4,19.8-18.8
		C155.1,351.1,146.3,341.5,136.4,341.9z M136,371.8c-5.4-0.1-10.7-3.3-10.7-10.1c0-6.2,4.4-10.9,10.5-11.1
		c5.7-0.2,10.8,4.8,10.9,10.5C146.8,366.8,141.8,371.9,136,371.8z"/>
	<path d="M374.2,341.8c-8.6-0.4-20.2,7.4-20.3,19.3c-0.1,10.5,11,18.7,18.2,18.6c11-0.1,20-7.6,20.5-18.4
		C393.1,351.6,383.6,341.9,374.2,341.8z M373.5,371.3c-5.5-0.1-11.5-4.5-11-10.9c-0.6-5.6,5.3-10.3,10.9-10.4
		c5.9-0.1,10.2,4.5,10.3,10.6C383.7,366.5,379.2,371.4,373.5,371.3z"/>
</g>
</svg>
