<?xml version="1.0" encoding="utf-8"?>
<!-- Generator: Adobe Illustrator 24.0.1, SVG Export Plug-In . SVG Version: 6.00 Build 0)  -->
<svg version="1.1" id="Layer_1" xmlns="http://www.w3.org/2000/svg" xmlns:xlink="http://www.w3.org/1999/xlink" x="0px" y="0px"
	 viewBox="0 0 500 500" style="enable-background:new 0 0 500 500;" xml:space="preserve">
<g id="Arrow_3">
	<g id="Arrow_6">
	</g>
</g>
<g>
	<path d="M442,299.7c-2,9.8-4.1,19.6-8.5,28.8c-2.1,4.4-3.6,9.1-5.2,13.8c-1.4,3.9-4.9,6.9-8.1,6.5c-3.7-0.5-6.9-4.4-6.9-8.7
		c0-1.5,0.2-3.1,0.8-4.4c2.7-6,5.7-12,8.4-18c0.8-1.8,1.3-3.8,1.8-5.7c3.8-15.3,7.2-30.7,6.9-46.6c-0.2-12.1-0.9-24.1-4.7-35.7
		c-1.6-4.9-2.1-10.3-4-15.1c-3.9-10.2-7.8-20.5-12.8-30.2c-11.3-22.1-26-41.5-46.6-55.9c-8-5.6-16.1-11.2-24.7-16
		c-6.7-3.7-14.3-5.8-21.1-9.3c-10.6-5.3-22.2-7.1-33.4-9.9c-6.6-1.6-13.8-1.4-20.7-1.8c-3.5-0.2-7,0-10.5,0c0-0.2,0-0.3,0-0.5
		c-9.1,0.6-18.3,0.5-27.3,1.9c-11.1,1.7-22.2,3.9-32.9,7.2c-8,2.5-16.2,5.1-23.5,9.9c-5.5,3.6-11.8,6-17.3,9.7
		c-6.7,4.5-13,9.5-19.1,14.6c-10,8.3-19.1,17.6-26.7,28.1c-5.9,8.1-11.3,16.6-16.2,25.3c-4.2,7.4-8,15.1-10.6,23.2
		c-4,12.8-7.3,25.8-8.8,39.3c-2.1,20-0.8,39.6,4.1,58.9c2.2,8.6,3.9,17.7,9,25.5c1.3,2,2.1,4.6,2.6,7c0.9,3.8-0.3,6.1-3.4,7.5
		c-3.5,1.6-7.4,1.1-9.3-1.7c-2.2-3.3-4.3-6.9-5.5-10.6c-3.3-10.8-6.9-21.7-9-32.8c-2.9-15.5-4.1-31.4-2.7-47.1
		c1.1-12.1,2.7-24.2,5.8-35.9c3-11.4,7.9-22.3,12.5-33.1c2.9-6.7,6.6-13.1,10.6-19.2c4.6-7.2,9.6-14.3,14.9-21
		c7.9-9.8,17-18.5,27-26.1c8.7-6.6,17.9-12.5,27.2-18.2c8.5-5.3,17.4-9.6,26.9-13.2c17.8-6.6,35.9-11.2,55-11.9
		c17.8-0.6,35.6-0.5,53.1,3.2c9.2,2,18.4,4.3,27.4,7.1c6.7,2.2,13.2,5.2,19.6,8.3c7.1,3.4,14.3,6.9,20.9,11.3
		c7.8,5.2,15.1,11.3,22.4,17.3c11,9,20.2,19.8,28.6,31.3c3.7,5,6.4,10.6,9.4,16.1c3.1,5.8,6.1,11.7,8.9,17.7
		c2.4,5.2,4.4,10.5,6.5,15.8c6.9,17.8,11.1,36.1,11.2,55.4C444.3,274.2,444.5,287.1,442,299.7z"/>
	<path d="M377.5,344.8c-0.3-2.5-1.5-5.3-3.2-7.1c-8.7-9.2-17.7-18.1-26.5-27.2c-5.8-6-11.3-12.3-16.8-18.5c-2.4-2.8-4.1-6.2-6.5-8.9
		c-2.9-3.2-6.8-3-9.8,0.1c-1.1,1.1-2.1,2.5-3,3.8c-5.6,7.9-10.7,16.3-16.9,23.7c-9.3,11.2-19.2,21.8-29,32.7c-2.1,2.3-3.3,4.9-2.4,8
		c0.9,3.1,3.6,4.1,6.3,4.2c5.7,0.2,11.4,0.3,17.1,0c7.3-0.5,8.6,3.1,8.6,8.2c0.1,8.5,0,16.9,0,25.3h0c0,4.3,0,8.7,0,13s0,8.6,0.1,13
		c0.2,5.6,2.3,7.6,7.8,7.6c10.9,0,21.9-0.1,32.8-0.2c2.4,0,4.8-0.2,7.2-0.5c2.9-0.3,4.8-2,5.4-4.9c2-9.6,2.4-19.3,2-29.1
		c-0.3-8.4-0.3-16.9-0.2-25.3c0.1-3.8,2.1-6.5,5.6-8.3c4-2.1,8-1.1,12.1-0.7C374.3,354.2,378.2,350.8,377.5,344.8z M350.7,338.2
		c-0.9,1.9-3.7,2.9-5.8,4.2c-0.6,0.4-1.6,0.3-2.4,0.4c-3.2,0.3-5.1,2.2-5.3,5.2c-0.3,5-0.1,10,0,15c0,5.8,0,11.6,0.1,17.4
		c0.1,6.8,0.4,13.7,0.5,20.5c0.1,7.6-2.4,9.6-9.9,8.7c-3.7-0.4-7.4-0.2-11.1-0.3c-5.3-0.1-8.3-2.7-8.5-8.1c-0.2-4.5,0-9,0-13.6
		c0-3.7,0-7.4,0-11.2h0c0-7.7,0.1-15.5,0-23.2c-0.1-7.1-3.3-11-9.5-11.9c-1.3-0.2-2.8,0.3-4.2,0.1c-1.4-0.2-3.1-0.7-3.8-1.6
		c-0.6-0.8-0.3-2.8,0.3-3.8c1.2-2.2,2.9-4.1,4.5-6c6.3-7.4,12.7-14.7,18.9-22.2c3.5-4.2,6-4.8,10.1-1.2c3,2.7,5.4,5.9,8.3,8.7
		c4.4,4.4,8.9,8.7,13.4,13c0.7,0.7,1.5,1.3,2.3,2C350.6,332.6,352.1,335.5,350.7,338.2z"/>
	<path d="M307.7,179.5c-2.4,0.2-5,1.1-6.9,2.5c-3.9,2.9-7.6,6.3-11.1,9.7c-9.5,9.3-18.8,18.7-28.2,28
		c-10.2,10.1-20.7,19.9-30.6,30.4c-6.8,7.2-11.4,15.4-10.8,26.2c0.8,12.3,8.3,22.6,18.2,25c4.5,1.1,9.1,1.5,13.6,2.2
		c12.2-0.1,18.9-4.1,24.1-13.7c2.3-4.3,4-8.9,5.8-13.4c0.6-1.5,0.7-3.1,1.2-4.7c4.3-12.2,8.6-24.3,13-36.5c2.3-6.5,4.6-13,6.8-19.6
		c0.7-2,1-4.1,1.8-6c3-7.2,6.2-14.3,9.2-21.6C316,182.7,313.3,179,307.7,179.5z M288.8,218.9c-0.3,2.4-0.9,4.7-1.8,6.9
		c-3.4,8.3-7.2,16.5-10.5,24.9c-3.2,8.3-6,16.8-9.1,25.1c-1,2.8-2.3,5.6-3.8,8.2c-2.4,4.4-5.6,5.8-12,5.8
		c-9.5-0.1-18.5-8.6-18.3-17.2c0.1-3.8,1.6-7,4.3-9.7c5.8-6,11.5-12.1,17.3-18c7.5-7.6,15.2-15.1,22.8-22.7c2-2,3.7-4.3,5.8-6.1
		c1-0.8,3-1.5,4-1.1C288.4,215.5,289,217.6,288.8,218.9z"/>
	<path d="M403.8,266.3c-2.2,0.9-4.6,1.4-6.9,1.6c-4.6,0.4-9.2,0.4-13.8,0.7c-3.9,0.2-6.8-2.3-7.1-6.5c-0.4-4.5,2-8.1,5.9-8.4
		c1.5-0.1,3,0,4.5,0h4.2c0-0.1,0-0.2,0-0.3c4,0.4,8,0.6,12,1.1c2.6,0.4,4.3,2,4.7,4.8C407.5,262.3,406.8,265,403.8,266.3z"/>
	<path d="M383,192.2c-1.5,1.7-3.3,3.2-5.1,4.6c-3.1,2.3-6.2,4.5-9.4,6.5c-5,3.1-11.9-0.5-12.6-6.5c1-1.6,1.7-3.7,3.2-4.7
		c5.1-3.7,10.4-7.2,15.8-10.4c3.1-1.8,6.5-0.9,8.4,1.5C385.4,185.8,385.4,189.5,383,192.2z"/>
	<path d="M124.6,264.6c0.2,2.4-2.1,5.3-5,6.2c-1.9,0.5-3.9,0.9-5.9,0.8c-5.2-0.2-10.5-0.5-15.6-1.2c-2.2-0.3-4.4-1.8-6.2-3.2
		c-2.1-1.8-1.7-4.3,0.2-6.4c2.5-2.7,5.7-3.2,9.1-3c0-0.2,0-0.5,0-0.7c6.1,0.7,12.3,1.3,18.4,2.3
		C122.4,259.7,124.4,261.5,124.6,264.6z"/>
	<path d="M143.4,203.4c-1.3,3-4.1,4.3-7.4,4.3c-0.1,0.3-0.3,0.5-0.4,0.8c-4-2-8-3.9-11.9-6c-1.5-0.8-2.7-2.1-3.9-3.3
		c-2.6-2.5-3.3-5.3-2.1-8.2c1.3-3,4.4-5.1,7.7-4.6c2.2,0.3,4.6,1,6.5,2.1c3.3,2,6.4,4.4,9.4,7C143.6,197.6,144.7,200.5,143.4,203.4z
		"/>
	<path d="M186,158.9c-1.6,0.5-4,0.3-5.3-0.6c-6.1-4.4-7.8-11.4-10.3-18c0.8-2,1.3-3.8,2.3-5.4c1.7-2.8,5.4-3.6,7.5-1.1
		c3.8,4.6,7.5,9.4,10.5,14.5C192.5,151.5,189.6,157.7,186,158.9z"/>
	<path d="M256.7,124.2c-0.2,4.2-0.1,8.3-0.7,12.2c-0.4,2.6-1.3,5.5-4.9,5.6c-3.6,0.2-5.5-2.2-6.3-5.1c-0.8-2.8-0.9-5.9-1-8.9
		c-0.1-3.2,0.2-6.4,0.6-9.6c0.2-1.5,0.6-3.2,1.4-4.5c1.1-2,3-3.5,5.2-2.6c1.7,0.7,3.8,2.3,4.3,3.9
		C256.4,118.1,256.3,121.4,256.7,124.2z"/>
	<path d="M333.4,140.3c-2.5,4.9-5.2,9.8-8.2,14.3c-1.3,1.9-3.7,3-4.7,3.7c-5.2,0-7.8-3.3-7.2-7.5c0.3-1.7,0.8-3.6,1.8-5
		c2.7-4,5.6-7.8,8.7-11.5c1.9-2.3,5.8-2.5,8.3-1C334.2,134.6,334.9,137.2,333.4,140.3z"/>
</g>
</svg>
