<?xml version="1.0" encoding="utf-8"?>
<!-- Generator: Adobe Illustrator 24.0.1, SVG Export Plug-In . SVG Version: 6.00 Build 0)  -->
<svg version="1.1" id="Layer_1" xmlns="http://www.w3.org/2000/svg" xmlns:xlink="http://www.w3.org/1999/xlink" x="0px" y="0px"
	 viewBox="0 0 825 1000" style="enable-background:new 0 0 825 1000;" xml:space="preserve">
<g>
	<path d="M824.3,428.7c1.9,87.8-41.1,173.7-93.1,255.9C663.3,792.1,575,882.2,483,968.7c-39.4,37-96.9,39.9-136,3.4
		C220.1,854,100.5,729.7,32,566c-64.2-153.6-27.3-341.3,88.5-448.1C254.7-5.9,441-34.9,596.2,43.8
		C747.6,120.6,824.3,245.6,824.3,428.7z M412.7,894.5c25.9-24.7,49-45.4,70.5-67.5c85-87.2,166.2-177.4,213.8-291.8
		c61.4-147.6,2.6-322-136.2-394.6C446,80.5,332.2,86.3,227.8,165.8C118.5,249.1,80,363,115.9,493
		C162.7,662.1,289.7,775.6,412.7,894.5z"/>
	<path d="M411.6,514.5c-55.4-0.4-101.3-45.3-102.4-100.1c-1.1-55.1,48.6-104.9,104.3-104.3c55.5,0.6,100.5,45.7,100.9,101.4
		C514.9,470.5,470.7,514.9,411.6,514.5z"/>
</g>
</svg>
