<?xml version="1.0" encoding="utf-8"?>
<!-- Generator: Adobe Illustrator 24.0.1, SVG Export Plug-In . SVG Version: 6.00 Build 0)  -->
<svg version="1.1" xmlns="http://www.w3.org/2000/svg" xmlns:xlink="http://www.w3.org/1999/xlink" x="0px" y="0px"
	 viewBox="0 0 500 500" style="enable-background:new 0 0 500 500;" xml:space="preserve">
<style type="text/css">
	.st0{fill:none;}
	.st1{fill:none;stroke:#000000;stroke-width:14.2505;stroke-miterlimit:10;}
	.st2{fill:none;stroke:#000000;stroke-width:16.4727;stroke-miterlimit:10;}
	.st3{fill:none;stroke:#000000;stroke-width:17.3637;stroke-miterlimit:10;}
	.st4{fill:none;stroke:#000000;stroke-width:16.33;stroke-miterlimit:10;}
</style>
<g id="Layer_2">
</g>
<g id="Layer_1">
	<polyline class="st0" points="1187.3,349.1 1159.1,349.4 1099.9,350.2 1074.3,350.5 	"/>
</g>
<g id="Layer_3">
	<g>
		<path class="st1" d="M388.7,199.4c-22.9,0-43.8-8.2-60.2-21.7c-20.8-17.3-34-43.4-34-72.5c0-1.6,0-3.1,0.1-4.7
			c0.7-15.4,5.2-29.8,12.5-42.4H115.6c-40.3,0-73,33.8-73,75.5v215c0,41.7,32.7,75.5,73,75.5h46.7c7.6,9.1,15.1,18.2,22.5,27.4
			c8.9,11,17.8,22.1,26.5,33.3c3.4,4.4,8.4,6,11.6,2.3c9.1-10.6,17.9-21.4,26.7-32.2c6-7.3,11.6-14.9,17.6-22.1
			c2.5-3,5.1-5.9,7.7-8.7h47.8c40.3,0,73-33.8,73-75.5V199.1C393.5,199.3,391.1,199.4,388.7,199.4z"/>
		<g>
			<g>
				<ellipse class="st2" cx="289.8" cy="310.5" rx="17.2" ry="18.1"/>
				<ellipse class="st3" cx="289.8" cy="310.5" rx="17.2" ry="18.1"/>
			</g>
			<path class="st2" d="M329.1,333.1c-1.1,4-3.4,9.2-8.3,12.4c-5.2,3.4-8.5,1.3-11.5,4.1c-5.9,5.6,3.9,18.1-0.3,28.3
				c-1.9,4.6-7.3,10.2-23.2,13c-2.6,0.1-10.1,0.1-17.2-5.1c-11-8-11.1-21.4-11.1-22.9c-12.8,0.1-25.5,0.2-38.3,0.3
				c-12.8-0.1-25.5-0.2-38.3-0.3c0,1.5-0.2,14.9-11.1,22.9c-7.1,5.1-14.6,5.2-17.2,5.1c-15.9-2.9-21.3-8.5-23.2-13
				c-4.3-10.2,5.6-22.7-0.3-28.3c-2.9-2.8-6.3-0.8-11.5-4.1c-4.9-3.2-7.1-8.4-8.3-12.4c0.2-63.5,0.4-127.1,0.6-190.6
				c0-23.8,19.3-43,43-43h132.5c3.2,0,6.3,0.3,9.2,1c-0.1,1.5-0.1,3.1-0.1,4.7c0,29.2,13.2,55.2,34,72.5
				C328.7,229.5,328.9,281.3,329.1,333.1z"/>
			<path d="M190.3,120.5H248c4.2,0,7.6,3.4,7.6,7.6c0,2.1-0.8,4-2.2,5.4c-1.4,1.4-3.3,2.2-5.4,2.2h-57.7c-2.1,0-4-0.8-5.4-2.2
				c-1.4-1.4-2.2-3.3-2.2-5.4C182.7,123.9,186.1,120.5,190.3,120.5z"/>
			<ellipse class="st2" cx="148.5" cy="310.5" rx="17.2" ry="18.1"/>
			<path class="st2" d="M246.2,321.5c-2.8,2.8-6.7,4.6-11,4.6h-32c-4.3,0-8.2-1.8-11-4.6c-2.8-2.8-4.6-6.7-4.6-11
				c0-8.6,7-15.6,15.6-15.6h32c8.6,0,15.6,7,15.6,15.6C250.8,314.8,249,318.7,246.2,321.5z"/>
			<path class="st2" d="M156.2,248.6c-11.6,0-21-9.5-21-21v-50.4c0-11.6,9.5-21,21-21h126c11.6,0,21,9.5,21,21v50.4
				c0,11.6-9.5,21-21,21H156.2z"/>
			<ellipse class="st2" cx="289.8" cy="310.5" rx="17.2" ry="18.1"/>
			<ellipse class="st2" cx="148.5" cy="310.5" rx="17.2" ry="18.1"/>
			<path class="st3" d="M250.8,310.5c0,4.3-1.8,8.2-4.6,11c-2.8,2.8-6.7,4.6-11,4.6h-32c-4.3,0-8.2-1.8-11-4.6
				c-2.8-2.8-4.6-6.7-4.6-11c0-8.6,7-15.6,15.6-15.6h32C243.8,294.9,250.8,301.9,250.8,310.5z"/>
			<ellipse class="st3" cx="148.5" cy="310.5" rx="17.2" ry="18.1"/>
			<path class="st4" d="M303.2,177.2v50.4c0,11.6-9.5,21-21,21h-126c-11.6,0-21-9.5-21-21v-50.4c0-11.6,9.5-21,21-21h126
				C293.7,156.1,303.2,165.6,303.2,177.2z"/>
		</g>
		<path class="st1" d="M482.9,105.2c0,49.6-38.4,90.3-87.1,93.9c-2.3,0.2-4.7,0.3-7.1,0.3c-22.9,0-43.8-8.2-60.2-21.7
			c-20.8-17.3-34-43.4-34-72.5c0-1.6,0-3.1,0.1-4.7c0.7-15.4,5.2-29.8,12.5-42.4C323.4,29.9,353.8,11,388.7,11
			C440.7,11,482.9,53.1,482.9,105.2z"/>
		<g>
			<path d="M396.4,170.4h-0.5c-3.8,0-6.8,3.1-6.8,6.8v21.8h14.1v-21.8C403.2,173.5,400.2,170.4,396.4,170.4z"/>
			<path d="M396.4,42.9h-0.5c-3.8,0-6.8-3.1-6.8-6.8V14.3h14.1v21.8C403.2,39.9,400.2,42.9,396.4,42.9z"/>
			<path d="M396.1,56.7L396.1,56.7c-3.9,0-7.1,3.2-7.1,7.1v45.3h14.1V63.8C403.2,59.9,400,56.7,396.1,56.7z"/>
			<path d="M441.5,112.2L441.5,112.2c0,3.9-3.2,7.1-7.1,7.1h-45.3v-14.1h45.3C438.3,105.2,441.5,108.3,441.5,112.2z"/>
			<path d="M326.6,96.4v4.9c0,3.2-2.6,5.8-5.8,5.8h-24.2V90.6h24.2C324.1,90.6,326.6,93.2,326.6,96.4z"/>
			<path d="M326.6,96.4v4.9c0,3.2-2.6,5.8-5.8,5.8h-24.2V90.6h24.2C324.1,90.6,326.6,93.2,326.6,96.4z"/>
			<path d="M453.8,97.1v4.9c0,3.2,2.6,5.8,5.8,5.8h24.2V91.3h-24.2C456.4,91.3,453.8,93.9,453.8,97.1z"/>
		</g>
	</g>
</g>
</svg>
