<?xml version="1.0" encoding="utf-8"?>
<!-- Generator: Adobe Illustrator 24.0.1, SVG Export Plug-In . SVG Version: 6.00 Build 0)  -->
<svg version="1.1" id="Layer_1" xmlns="http://www.w3.org/2000/svg" xmlns:xlink="http://www.w3.org/1999/xlink" x="0px" y="0px"
	 viewBox="0 0 1409 1000" style="enable-background:new 0 0 1409 1000;" xml:space="preserve">
<g>
	<path d="M414.7,421c-28.1-15.2-52.3-28.3-74.7-40.5c-2.9-11-5.1-19.2-8.4-31.5c89.2-51,178.7-102.2,271.1-155.1
		c-20.9,53.5-41.8,106.9-62.7,160.4c29.8,16.2,57.8,31.4,85,46.1c-1.2,32-20,42-45,54.7c-75.8,38.6-148.7,83-223.9,125.7
		C375.6,527.5,395.1,474.3,414.7,421z"/>
	<path d="M1325.3,519.8c-0.2-13.6-8.2-28.9-16.6-40.3c-49.1-66.6-100.3-131.7-148.9-198.7c-7.1-9.8-14.8-16.6-23.2-21.1
		c-10.4-5.5-20.1-6.4-39.1-7.3c-14.9-0.6-33.6-1.1-55.4-0.9c15.3-82.8,30.6-165.6,45.9-248.5C797.1,2.9,506.3,2.7,215.6,2.4
		c-10.3,0-20.6,0.4-30.7,1.9c-63,9.4-102.1,57.9-97.4,126.1c286-0.4,572-0.8,858.1-1.2C904.7,316,863.9,502.8,823.1,689.7
		c-93.1,0-181.4,0.7-269.7-0.7c-13.6-0.2-28.7-7.4-40.3-15.5c-87.9-60.6-158.3-60.8-244.2-2.1c-16.1,11-37.1,14.7-60.5,23.5
		c-62.8,0.1-125.5,0.3-188.3,0.4C41,734.5,61.9,773.8,82.8,813h116.5c26.9,121.4,88.2,182,182.1,187c95.1,5.1,152.9-46.7,203-182.6
		h239.8c24.3,117,89.4,180.3,185.3,182.9c96.5,2.7,159.6-55.6,198.3-187.5H1326C1326,711.2,1326.7,615.5,1325.3,519.8z M387.5,906.6
		c-50.2-1.5-91.1-45.7-89.6-96.8c1.5-48.8,42.1-87.7,92-88c51.5-0.3,92.8,41.4,92.4,93.3C481.8,865.7,437.8,908.1,387.5,906.6z
		 M1012.9,906.8c-49.3-0.6-92.2-44.2-92.4-93.9c-0.3-49.8,42.8-91.5,94.1-91.2c50.5,0.3,93,43,92.8,93.1
		C1107.1,863.2,1061.7,907.4,1012.9,906.8z M955.8,498.9V347.8c46.8,0,91.2-1.3,135.5,0.9c11,0.5,24.1,10.1,31.6,19.3
		c33.2,40.1,64.7,81.5,103.5,130.9H955.8z"/>
</g>
</svg>
