<?xml version="1.0" encoding="utf-8"?>
<!-- Generator: Adobe Illustrator 24.0.1, SVG Export Plug-In . SVG Version: 6.00 Build 0)  -->
<svg version="1.1" id="Layer_1" xmlns="http://www.w3.org/2000/svg" xmlns:xlink="http://www.w3.org/1999/xlink" x="0px" y="0px"
	 viewBox="0 0 1370 1000" style="enable-background:new 0 0 1370 1000;" xml:space="preserve">
<g>
	<g>
		<path d="M1360.9,504.6c-28.1-45.4-59.9-93.1-95.8-142c-28.3-38.7-56.6-74.6-84.3-107.8c-50.3-0.8-100.7-1.5-151-2.3
			c16.3-70.6,32.7-141.2,49-211.8c-13-13.2-26.1-26.5-39.1-39.7H368.7c1.5,24.3-7.3,48.9,28,65.6h596.7
			c-52.7,228.5-105.4,457-158,685.4H515.9c-24.7-41.1-52.5-81.8-99-99.8c-43.9-17-91.4-17-135.4,0.4
			c-46.6,18.5-73.9,59.3-100.1,101.8c0,0-85.9-0.1-146.2,0c-43,11.1-34.5,63.5,3.4,64.9h136.4c-15.3,94.2,79.4,172.5,166.7,178.2
			c88.4,5.8,175.3-65.4,186.6-178.4h348.5c-1.8,14.7-3.2,41.5,7.6,72.2c14.8,42.3,44.1,67.3,61.6,79.2c44.8,30.5,90.9,29,108.8,28.2
			c16.7-0.8,82.1-4.9,131.1-59.7c44.1-49.2,45.8-106.8,45.8-121.8h52.7c11.4-11.1,22.2-21.7,32.6-31.8
			c17.1-81.9,34.2-163.7,51.2-245.6C1365.7,528.1,1363.3,516.3,1360.9,504.6z M437.2,900.3c-110.6,99-264.9-38.6-171-153.5
			C377.2,636.9,541.7,784.6,437.2,900.3z M1135.7,900.3c-110.3,98.9-264.6-38.2-171.3-153.2C1074.4,636.5,1240.7,784.2,1135.7,900.3
			z M1290,581.6H951.6c21.4-93.1,36.7-184.5,67.1-270.5h116.5c49.5,64,101.7,131.4,154.9,200.1V581.6z"/>
	</g>
	<path d="M109.2,349.7c-31.9,0-59.5,0-85,0c-7.8-8.3-13.6-14.4-22.4-23.7c54.1-87.4,108.3-175,164.4-265.6
		c7.1,57,14.2,113.9,21.3,170.9c33.9,0,65.8,0,96.7,0c14.2,28.7,2.4,46.4-13.5,69.5c-48.2,70.1-91.2,143.8-136.9,217.3
		C125.6,461.9,117.4,405.8,109.2,349.7z"/>
</g>
</svg>
