<?xml version="1.0" encoding="utf-8"?>
<!-- Generator: Adobe Illustrator 24.0.1, SVG Export Plug-In . SVG Version: 6.00 Build 0)  -->
<svg version="1.1" id="Layer_1" xmlns="http://www.w3.org/2000/svg" xmlns:xlink="http://www.w3.org/1999/xlink" x="0px" y="0px"
	 viewBox="0 0 1000 1000" style="enable-background:new 0 0 1000 1000;" xml:space="preserve">
<g>
	<path d="M996.7,299.1c-0.2-9.2-1-24.5-4.9-42.8c-6-27.8-18.7-60.8-108.3-168c-34.3-41-43.4-49.4-57-57.5
		c-26.9-16.2-58.5-24-94.2-24c-153.8,0.2-307.5,0.1-461.3,0c-65,0-116,26.4-151.5,81.3c-32.6,50.5-66.2,100.4-96.1,152.6
		c-11.7,20.4-19.6,46-20,69.5c-1.9,114.5-1.8,229.2,0,343.7C4.2,709.5,6,765.8,14.8,820.5c6.8,41.9,20.4,79.9,54.6,113.8
		c39.6,39.2,91.7,52.3,110.6,56.2c11.6,2.4,21.6,3.4,28.8,3.9h376.7c11.5,0,21.9-4.7,29.4-12.2c6.1-6.1,10.3-14.1,11.7-23
		c0.3-2.1,0.5-4.2,0.5-6.4c0-23-18.6-41.6-41.6-41.6c-211.3,10.1-366.8,8-405.5,0c-37.4-7.7-59.7-28.4-59.7-28.4
		c-2.9-2.7-10.8-10.3-18.3-22.5c-10-16.3-17.4-40.1-19.9-86.4c-7.9-147.8-4.5-296.3-5.6-444.5c0-2.2,3.3-4.5,4.8-6.3h842.8
		c0,20.3,0,37.6,0,54.9c0.1,72,0,144,0.7,215.9c0.1,6,0.6,19.2,9.6,29.3c7.1,7.9,16.5,10.7,21.9,11.8c2.9,0.4,15.9,2,27.7-6.8
		c8-5.9,11.4-13.5,12.7-16.9c0.2-8.9,0.3-17.8,0.4-26.8C998.5,489.4,998.3,394.3,996.7,299.1z M459.3,244.9H100.7
		c39.9-54,73.7-101.8,110.1-147.6c6.8-8.6,23.6-12.7,35.9-12.9c69.8-1.2,139.7-0.6,212.6-0.6V244.9z M538.5,242.2V83.7
		c71.6,0,140.5-3.3,208.7,1.8c23.9,1.8,52,19.5,68.2,38.4c29.2,34.1,50.9,74.7,79.5,118.3H538.5z"/>
	<path d="M988.8,892.8C965.6,962.7,879.6,1010.4,808,990c-11.9-3.4-26.7-21.5-27-33.3c-0.3-11.7,13.4-29.1,25.2-34.5
		c15-6.9,34.4-3.6,51.8-5.9c39.2-5.3,64.4-33.5,64.2-70.6c-0.2-38.4-28.4-70.7-68.5-71.9c-64.2-2-128.4-0.5-192.6-0.5
		c-1.3,2.8-2.6,5.5-4,8.3c19,15.4,41.5,28.2,55.7,47.2c32.6,30.7,7.5,50.4,7.5,50.4s-25.4,24.3-49.9,4.8
		c-41.1-32.5-79.5-68.9-116.2-106.5c-25-25.7-24.6-58.3-0.2-83.4c36.6-37.6,75.7-73.2,117.1-105.3c23.4-18.3,37.4-4.9,50.1,4.1
		c25.7,25.4-8.2,51-8.2,51s-36.5,32-53.1,57.2c65,0,130-1.5,194.9,0.3C954.8,704.2,1020.1,798.7,988.8,892.8z"/>
	<path d="M613.8,486.1H384.2c-21,0-38.1-17.1-38.1-38.1v-0.1c0-21,17.1-38.1,38.1-38.1h229.6c21,0,38.1,17.1,38.1,38.1v0.1
		C651.9,469.1,634.8,486.1,613.8,486.1z"/>
</g>
</svg>
