<?xml version="1.0" encoding="utf-8"?>
<!-- Generator: Adobe Illustrator 24.0.1, SVG Export Plug-In . SVG Version: 6.00 Build 0)  -->
<svg version="1.1" id="Layer_1" xmlns="http://www.w3.org/2000/svg" xmlns:xlink="http://www.w3.org/1999/xlink" x="0px" y="0px"
	 viewBox="0 0 500 500" style="enable-background:new 0 0 500 500;" xml:space="preserve">
<g>
	<path d="M480.2,334.4c-0.8-0.4-1.3-2-1.3-3c-0.1-11.2-0.1-22.4,0-33.6c0-4.7-1.7-8.5-5.2-11.6c-3.1-2.7-6.3-5.3-9.3-8.2
		c-7.5-7.1-13.4-15.5-19.3-23.9c-5.9-8.3-11.6-16.7-17.6-24.9c-5.4-7.5-12.2-12.3-21.9-12.2c-8.6,0.1-17.2-0.2-25.7-0.3
		c-5.1,0-10.3,0-15.4,0c-3.7,0-4.4-1-4.4-4.6c0-13.2,0.1-26.4-0.5-39.6c-0.4-8-5.2-13.6-12.3-17.1c-4.4-2.2-9.1-2.8-14-2.8
		c-30.3,0.1-60.6,0-90.9,0c0,0.1,0,0.2,0,0.4c-10.9,0-21.7,0-32.6,0c-20.3,0-40.6,0-60.8,0.1c-7,0-13.4,1.9-17.9,7.7
		c-2,2.6-3.9,5.6-4.8,8.7c-2.2,7.3-1.5,14.8-0.8,22.2c0.2,2,2.1,2.9,4.2,2.8c2-0.2,2.9-1.5,3.2-3.3c0.2-1.2,0.2-2.3,0.2-3.5
		c0-4.1-0.2-8.2-0.2-12.4c0-3.9,1.5-7.1,4.2-9.9c3.1-3.2,6.9-4.2,11-4.2c21.1-0.3,42.2-0.7,63.3-0.8c24.4-0.1,48.8,0,73.2-0.1
		c17-0.1,34-0.2,51-0.4c4.7,0,8.4,1.9,11.7,5.1c4.2,4.1,5.3,9.2,5.3,14.7c0.2,20,0.3,40,0.4,60.1c0.2,24.6,0.4,49.3,0.6,73.9
		c0,5.5,0.1,10.9,0,16.4c0,3.2-1.2,4.2-4.3,4.3c-1.6,0.1-3.2-0.1-4.8-0.1c-22,0.1-44.1,0.3-66.1,0.4c-13.2,0.1-26.4-0.3-39.6,0.2
		c-5.2,0.2-8.9-1.2-12.4-4.8c-5.3-5.5-11.9-9.2-19.5-10.4c-13.9-2.2-25.4,2.7-35,12.6c-1.8,1.9-3.7,2.7-6.2,2.6
		c-9.4-0.1-18.8-0.1-28.2-0.2c-3.3,0-4.2-1.2-4.1-4.5c0.2-4.9,0.2-9.8,0-14.6c-0.1-2.4-1.8-4-3.8-3.9c-2.3,0.1-3.8,1.4-4.1,3.7
		c-0.3,1.7-0.4,3.5-0.3,5.3c0.1,3.2,0.3,6.4,0.5,9.6c0.2,3.1-0.6,4.1-3.7,4.4c-4.3,0.5-6.6,2.9-6.5,7.1c0,4.3,0.2,8.6,0.4,12.9
		c0.2,7.5,2.6,10,10.1,10.2c11.3,0.3,22.5,0.5,33.8,0.6c4,0.1,5.3,1,6.4,4.7c0.3,0.9,0.6,1.8,1,2.6c4.9,9,12.1,15.7,21.7,19
		c10.5,3.7,21.1,2.5,30.6-3.5c7.2-4.5,12.7-10.7,15.6-18.9c1-2.9,3.1-4.4,5.8-4.4c31.7,0,63.4,0,95.2,0.1c11.1,0,22.2,0.2,33.3,0.2
		c4,0,5.6,1,7.2,4.5c1.3,3,2.7,6,4.6,8.6c5.9,8.1,13.8,13.1,23.8,14.6c10.4,1.5,19.9-0.9,28.3-7.3c5.4-4.1,9.3-9.5,11.6-15.9
		c1.5-4.1,2.9-5.3,7.4-5.3c8.8,0,17.7,0,26.5-0.1c3.8,0,5.6-1.1,6.3-4.9c0.8-4.8,0.8-9.7,1-14.5C486,340.6,484.5,336.8,480.2,334.4z
		 M164.6,345.9c-0.8,2.5-1.3,5.2-1.5,7.8c-0.2,3.6-0.8,4.4-4.5,4.4c-10.2,0-20.4,0-30.5,0c-3.8,0-5-1.1-5.2-4.8
		c-0.1-2.3-0.3-4.5-0.2-6.8c0.2-3.5,2-5,5.4-4.9c2.9,0.1,5.7,0.2,8.6,0.3c2.8,0,5.5,0,8.3,0v0c5.6,0,11.3,0,16.9,0
		C165.2,342,165.6,342.8,164.6,345.9z M200.6,386.5c-16.4,0.6-30.6-13.9-30.3-30.8c0.3-14.6,12.3-29.3,29.7-29.2
		c15.9,0,30.2,14.7,30.1,30.5C230,372.8,216.2,387.2,200.6,386.5z M374.2,346.1c-0.8,2.4-1.1,5.1-1.2,7.6c-0.1,3-0.7,4-3.7,4.2
		c-2,0.1-4-0.2-6-0.2c-40.5,0-81.1,0-121.6,0c-3.9,0-4.5-0.6-4.7-4.5c-0.2-2.6-0.7-5.2-1.2-7.7c-0.5-2.2,0.2-3.3,2.4-3.4
		c3.9-0.1,7.7-0.1,11.6-0.1c18.7,0,37.3,0,56,0v-0.2c21.9,0,43.7,0,65.6,0C375.1,341.9,375.4,342.4,374.2,346.1z M410.5,386.4
		c-17.4,0-30.4-13.9-30.1-31.6c0.2-13.3,13.1-28.9,30.6-28.5c16.4,0,29.5,15.1,29.5,31.1C440.4,372.2,427.2,386.4,410.5,386.4z
		 M437.5,331.7c-4.9-5.1-10.5-9.2-17.2-11.5c-6.3-2.1-12.8-2.2-19.1-0.3c-7.5,2.2-14,6.3-19.2,12.4c-1.6,1.8-3.6,2.6-6,2.5
		c-3.8-0.1-7.6-0.1-11.3-0.1c-2.6,0-3.6-1.4-3.6-4.4c0.1-13,0.2-26.1,0.2-39.1c0-4.1,0-8.2,0-12.4h-0.5c0-17,0-34,0-51
		c0-3.8,0.9-4.4,4.7-4.3c6.2,0.2,12.4,0.2,18.7,0.2c7.7,0.1,15.5,0.3,23.2,0.4c4.6,0,8.2,2,10.9,5.5c4.7,5.9,9.2,11.9,13.8,18
		c7.8,10.4,15.3,21.1,23.4,31.2c3.4,4.3,8,7.6,12.3,11.2c2.8,2.4,4.3,5.1,4.3,8.9c0,10,0.2,20,0.3,30c0.1,4.1-1.1,5.2-5.2,5.2
		c-7.4,0-14.8,0-22.2,0.3C441.9,334.5,439.6,333.9,437.5,331.7z M478.4,353.1c-0.1,3.2-1.1,4.3-4.4,4.4c-2.5,0-5-0.2-7.5-0.2
		c-5,0-9.9,0.2-14.9,0.2c-3,0-3.7-1-4.1-3.9c-0.3-2.5-0.9-5.1-1.7-7.5c-1.3-3.6-0.8-4.5,3.2-4.5c4,0,8.1,0,12.1,0v0
		c4.1,0,8.2,0,12.3,0c4.1,0,5.1,0.9,5.2,5C478.6,348.7,478.5,350.9,478.4,353.1z"/>
	<path d="M251.4,250.5c-0.1,0.5,0.9,1.5,1.6,1.9c1.3,0.9,2.8,1.5,4.2,2.3c2,1.2,2.7,3.2,1.7,4.9c-0.9,1.6-2.8,1.8-4.9,0.7
		c-1.3-0.7-2.6-1.6-4-2.1c-2.3-0.7-3.6,0.5-3.4,2.9c0.1,1.3,0.6,2.5,0.4,3.7c-0.1,0.9-0.9,2.1-1.7,2.5c-0.6,0.3-2.2-0.1-2.6-0.7
		c-1.1-1.7-2.5-3.7-2.4-5.6c0.2-7.6-4.3-12-9.9-15.8c-1.7-1.2-3.4-2.5-5.3-3.3c-2.4-1-4.2,0-4.3,2.6c-0.2,4.9-0.3,9.9,0.3,14.8
		c0.2,1.9,2.5,3.6,4.1,5.2c2.6,2.5,5.1,5,5.5,8.7c0.1,1-0.1,2.5-0.7,2.9c-0.8,0.6-2.2,0.4-3.3,0.3c-0.9-0.2-1.6-0.9-2.4-1.3
		c-2.4-1.3-4.2-0.3-4.5,2.3c-0.1,1.3,0,2.5-0.1,3.8c-0.2,2.2-1.9,4.2-3.5,4c-2.2-0.3-2.6-2.2-2.8-4c-0.1-1.2,0.3-2.4,0.2-3.5
		c-0.1-1.2-0.3-2.9-1.1-3.3c-0.9-0.5-2.5-0.1-3.7,0.3c-0.8,0.2-1.3,1.2-2,1.4c-1.4,0.3-2.8,0.2-4.2,0.3c0-1.4-0.6-3.2,0.1-4.1
		c1.8-2.6,3.9-5.1,6.4-7c3.3-2.6,5.1-5.4,4.5-9.7c-0.3-2.1,0.1-4.2,0-6.3c0-1.5,0-3-0.3-4.5c-0.7-3-3.3-4-5.8-2.1
		c-3.5,2.6-6.8,5.5-10.3,8c-2.4,1.7-3.1,4-3.5,6.7c-0.4,2.7-1,5.4-1.7,8.1c-0.5,1.8-1.9,2.9-3.8,2.6c-1.9-0.3-2.5-1.7-2.5-3.5
		c0-0.9,0-1.8,0-2.8c-0.2-2.9-1.7-3.8-4.4-2.6c-0.8,0.3-1.5,1.1-2.2,1.1c-1.2,0-2.9-0.1-3.5-0.8c-0.6-0.8-0.7-2.8-0.1-3.6
		c1-1.2,2.8-1.7,4.1-2.6c1.2-0.8,2.2-1.7,3.3-2.6c-1-1.1-1.8-2.3-2.9-3.1c-1.1-0.8-2.6-1.1-3.9-1.8c-2.1-1.1-2.4-3.1-0.3-4.2
		c1.4-0.8,3.2-1.2,4.7-0.9c2.5,0.4,5,1.1,7.2,2.3c3,1.8,5.5,0.7,8.1-0.7c3.2-1.8,6.4-3.7,9.5-5.6c0.8-0.5,1.7-1.5,1.6-2.2
		c-0.1-0.7-1.2-1.5-2-2c-2.6-1.6-5.5-3-8-4.7c-3.4-2.3-6-2.7-9.5-0.4c-3.3,2.1-6.9,2.5-10.7,2c-1-0.1-2.7-1.5-2.6-2.3
		c0.1-1.1,1.2-2.5,2.2-3.1c1.3-0.7,2.9-0.6,4.4-1c2.6-0.8,3-2.6,1-4.5c-1-0.9-2.4-1.6-3.6-2.3c-2.5-1.4-3.5-3.6-2.5-5.3
		c1.3-2.2,3.9-2.7,6.4-1.3c0.9,0.5,1.9,1.1,3,1.4c0.8,0.2,1.7,0.1,2.6,0.2c0-0.9,0.1-1.8,0-2.7c-0.3-1.5-0.9-2.9-1-4.4
		c-0.2-1.7,0.7-2.9,2.4-3.4c1.7-0.4,2.9,0.4,3.4,1.9c1.1,3.1,2.2,6.2,2.8,9.4c0.7,3.6,2.1,6.7,5,9c2.7,2.2,5.3,4.6,8.1,6.8
		c2.6,2,5,1.1,5.3-2.2c0.3-2.7,0.1-5.4,0.1-8.1h0.3c0-2.1,0.3-4.3-0.1-6.3c-0.3-1.5-1.3-3-2.3-4.2c-2.9-3.5-6-6.7-8.8-10.2
		c-0.5-0.6-0.2-2.7,0.5-3.3c0.8-0.7,2.6-0.9,3.6-0.5c1.4,0.6,2.4,2.1,3.7,2.9c0.8,0.5,2.2,1.1,2.8,0.8c0.7-0.3,1.2-1.7,1.2-2.7
		c0.1-1.7-0.4-3.4-0.1-5c0.2-1.1,1.3-2.7,2.2-2.8c1.1-0.1,3,0.7,3.4,1.7c0.8,1.7,0.7,3.9,1.2,5.8c0.3,1.2,0.7,3.2,1.3,3.4
		c1.1,0.2,2.5-0.6,3.7-1.2c1.3-0.7,2.4-1.7,3.8-2.2c0.6-0.2,1.9,0.4,2.3,1c0.3,0.6,0.1,1.9-0.3,2.5c-3,3.7-6.3,7.1-9.2,10.9
		c-1,1.3-1.6,3.1-1.8,4.8c-0.3,3.7-0.3,7.4-0.1,11.1c0.1,1.5,0.4,3.5,1.4,4.2c0.8,0.6,3.1,0.1,4.1-0.7c4.1-3.2,8.1-6.6,11.8-10.1
		c0.9-0.8,1-2.5,1.2-3.9c0.3-2.3,0.1-4.7,0.5-7c0.2-1.3,0.8-2.7,1.7-3.5c0.7-0.7,2.2-1.1,3.1-0.8c0.8,0.2,1.5,1.5,1.7,2.5
		c0.2,1-0.3,2.2-0.3,3.2c0.1,1.3,0.2,2.9,1,3.6c0.6,0.6,2.3,0.3,3.5,0c1.4-0.4,2.6-1.2,3.9-1.8c1.6-0.7,3.2-0.7,4.2,1
		c1,1.5,0.4,3-0.8,4c-1,0.8-2.1,1.3-3.2,2c-1.3,0.9-2.8,1.6-3.9,2.7c-0.6,0.5-1.2,1.9-0.9,2.3c0.5,0.7,1.6,1.1,2.5,1.2
		c1.2,0.2,2.5-0.1,3.8-0.1c1.9,0,3.6,0.5,3.8,2.8c0.2,1.8-1.7,3.4-4,3.2c-3.9-0.4-7.8-0.8-11.7-1.6c-2.5-0.5-4.7-0.5-6.9,1
		c-2.2,1.6-4.7,2.9-7,4.4c-2.4,1.5-2.9,3.7-0.5,5.2c3.8,2.4,7.9,4.3,12.1,6c1.2,0.5,2.9-0.2,4.4-0.4c3.2-0.5,6.3-1.3,9.4-1.5
		c1.2-0.1,3.2,0.7,3.7,1.7c0.9,1.8-0.9,2.8-2.3,3.6c-1.3,0.7-2.7,0.9-4,1.6C252.5,248.9,251.6,249.7,251.4,250.5z"/>
	<path d="M318.2,264.4c-2.2-1.7-3-3.7-3-6.3c0-10.5,0-21,0-31.5h0.1c0-10.3,0.2-20.5-0.1-30.8c-0.1-3.3-0.5-6.9-1.9-9.8
		c-2.6-5.5-10.7-9.1-16.1-7.1c-6.6,2.5-11.4,5.7-11.5,14.2c-0.2,9.6-0.1,19.2-0.2,28.7c-0.1,11.4-0.4,22.7-0.3,34
		c0,4.4-1.3,7.8-4.4,11c-2.2,2.3-4.1,5.2-5.3,8.1c-3,7.2-1.7,14.6,0.8,21.7c0.8,2.1,2.3,4.2,4,5.7c4.4,4.1,9.4,7.3,15.5,8.4
		c6.7,1.2,13.2,0.3,19-3.1c7.7-4.5,12.2-11.4,12.4-20.6C327.5,278.2,325.7,270.1,318.2,264.4z M317.8,296.5
		c-4.1,5.7-14.4,9.6-21.4,7.9c-8.5-2-14.1-6.9-16.5-15.5c-1.8-6.7,1.8-16.6,7.8-20c2.3-1.3,3.2-3.1,3.2-5.7
		c0.2-22.6,0.5-45.3,0.7-67.9c0-6.8,4-9.5,10.3-9.8c3.5-0.2,6.1,2,6.4,5.5c0.4,5.6,0.4,11.3,0.5,16.9c0,1.8,0,3.7,0,5.6h-0.7
		c0,15.9,0,31.8,0,47.7c0,3,0.7,5.3,3.6,6.8C322.4,273.5,323.5,288.7,317.8,296.5z"/>
	<path d="M465.1,172.5c-2.5-7.7-6.9-14.4-11.8-20.7c-3.5-4.5-7.3-8.8-11.3-12.9c-0.9-1-3.2-1.4-4.5-1.1c-1,0.3-2,2.3-2,3.6
		c-0.3,7.6-4.3,13.6-8.3,19.6c-3.8,5.8-8.2,11.2-10,18.2c-2,7.7-1,14.9,3.9,21.2c2.2,2.8,5.3,5.1,8.1,7.4c3,2.5,6.2,3,8,1.4
		c1.7-1.5,1.5-4.3,0-7.7c-2.4-5.6-1.3-11,1-16.3c1-2.3,4.2-2.4,5.8-0.6c3.4,3.8,4.3,12.5,1.8,16.8c-0.4,0.8-0.8,1.7-0.9,2.6
		c-0.3,2-1.3,4.7,1,5.7c1.6,0.7,4.2,0.1,5.9-0.7c10.5-4.9,15.1-13.5,15.5-26.8C466.9,180.3,466.3,176.3,465.1,172.5z M457,197.1
		c-0.4,0.7-1.6,0.9-2.4,1.3c-0.3-0.8-0.8-1.6-0.9-2.4c-0.2-0.8,0-1.7,0-2.8c0.6-5.3-1.8-9.7-5.2-13.7c-1.5-1.7-2.9-3.5-4.5-5.1
		c-1.7-1.7-3.7-1.8-5.3-0.1c-5.4,5.5-9,11.6-7.4,19.9c0.3,1.5-0.6,3.2-0.9,4.9c-1.3-1-2.8-1.7-3.8-2.9c-4.9-5.8-4.7-15.4-0.2-22.2
		c5.1-7.9,9.8-16,14.6-24.1c1.2-2.1,2.5-2.4,3.8-0.5c3.4,5.1,6.8,10.2,9.9,15.4c1.8,3,3.2,6.3,4.5,9.5
		C462.2,182.3,461.7,189.9,457,197.1z"/>
	<path d="M406.3,130.1c-4.7-8.4-9.9-16.4-17.6-22.4c-3.7-2.9-5.4-2.1-6.6,2.4c-0.8,3-2,6-3.5,8.7c-1.8,3.2-4,6.2-6.2,9.1
		c-6.5,8.7-8.1,18.3-5,28.6c1.8,6,6.4,9.7,12.2,11.8c2.2,0.8,4.4,0.3,5.8-1.9c1.3-2,0.5-3.7-0.7-5.5c-0.9-1.3-1.5-3.1-1.5-4.6
		c0-2.3,0.5-4.7,0.9-7c0.4-2.5,2.1-4.3,3.9-4.3c2.5,0.1,3.1,2.1,3.6,3.9c0.5,1.8,0.4,3.9,1.2,5.6c1.1,2.4,0.7,4.2-0.9,6.2
		c-1.8,2.2-1.7,4.9-0.2,6.7c1.3,1.5,3.9,1.8,6.3,0.6c0.8-0.4,1.5-0.8,2.2-1.3c7.5-4.8,10.2-12.1,10.8-20.4
		C410.7,140.6,409.1,135.2,406.3,130.1z M402.8,152.1c-0.4,1.3-1.5,2.4-2.4,3.4c-0.6,0.6-1.8,1-2.4,0.8c-0.6-0.3-0.9-1.4-1.2-2.3
		c-0.1-0.3-0.1-0.7,0-1c1.8-6.9-2.5-11.2-6.7-15.5c-1.4-1.4-3.4-1.8-4.8-0.4c-3.9,3.9-8,7.9-6.7,14.5c-0.7,1.4-1.1,3.7-2,4
		c-2.1,0.6-2.3-1.8-3-3.3c-2.8-5.9-1.4-11.4,1.6-16.6c3.4-6.1,7.4-11.8,11.1-17.7c1.7-2.7,2.8-2.7,4.5,0c3.6,5.6,7.6,11.1,10.9,16.9
		C404.7,140.4,404.6,146.3,402.8,152.1z"/>
	<path d="M145,236.7c-1.1,0.3-2.3,0.4-3.5,0.4c-7.4,0.2-14.8,0.4-22.1,0.4c-14.5,0-29.1,0-43.6-0.1c-18.7-0.1-37.3-0.2-56-0.3
		c-0.2,0-0.3,0-0.5,0c-3.2-0.1-5-1.2-5-3.1c0.1-1.8,2-3.1,5.1-3.1c11.3,0,22.7,0,34,0h24v0.1c19.1,0,38.2,0,57.2,0
		c1.7,0,3.4-0.7,5.1-1.1c2.4-0.6,4.9-0.8,6.8,1.2C148.8,233.2,148,235.9,145,236.7z"/>
	<path d="M143.8,274.3c-6.2-0.1-12.4-0.4-18.6-0.5c-14.9-0.2-29.7-0.4-44.6-0.5c-7.7-0.1-15.3,0-23,0.1c-1.1,0-2.4,0.2-3.2-0.2
		c-1-0.6-2.3-1.7-2.4-2.7c-0.1-1,1.1-2.5,2-2.9c1.6-0.6,3.4-0.7,5.2-0.7c14-0.1,27.9,0,41.9,0v0.1c14,0,28.1,0,42.1,0
		c2.1,0,4.2,0.1,4.6,2.8C148.3,272.4,146.7,274.3,143.8,274.3z"/>
	<path d="M151.7,301.9c0,2.5-2.1,3.8-5.5,3.8c-20.5-0.2-41-0.3-61.5-0.4c-1.4,0-2.9,0-4.3-0.1c-2.2-0.2-3.8-1.8-3.6-3.7
		c0.2-2.2,1.8-2.8,3.8-2.8c11.1,0,22.2,0,33.3,0c0,0,0,0,0,0c10.9,0,21.7,0,32.6,0C149.8,298.5,151.7,299.7,151.7,301.9z"/>
	<path d="M147.9,204.9c-0.5,1-1.9,1.8-3.1,2.2c-1.3,0.4-2.8,0.2-4.3,0.1c-19.9-1.1-39.8-0.4-59.6-0.1c-1.2,0-2.4,0-3.5-0.2
		c-1.7-0.2-2.7-1.2-2.8-3c-0.1-1.8,0.8-3,2.4-3.4c1.3-0.3,2.7-0.4,4-0.4c8.8,0,17.7,0,26.5,0v0.6c8,0,16,0.1,24,0
		c4.3-0.1,8.6-0.5,12.8-0.6C147.5,200,149.3,202.3,147.9,204.9z"/>
	<path d="M333,227.7c-0.3,0.1-0.7,0.1-1,0.1c-2.1,0.2-4.2,0.5-6.3,0.7c-0.1,0.2-0.3,0.4-0.4,0.6c-1.4-0.9-3.6-1.5-4.2-2.9
		c-0.7-1.5-0.5-3.9,0.2-5.4c0.9-1.9,3.2-1.7,5.2-1.4c1.7,0.2,3.5,0.4,5.2,0.3c2.4-0.1,3.5,0.6,4,3.1
		C336.2,225.1,335.1,227.2,333,227.7z"/>
	<path d="M336.1,238.6c0.1,2.1-0.8,3.5-2.9,3.7c-1.6,0.2-3.2,0-4.8,0v0.1c-1.4,0-2.9,0.1-4.3,0c-2.5-0.2-3.7-1.7-3.7-4.2
		c0.1-2.6,1.5-4.3,4-4.2c2.9,0.1,5.8,0.3,8.7,0.6C335.5,234.8,336,236.6,336.1,238.6z"/>
	<path d="M132.8,253.2c-0.4,3.1-2.2,4.5-4.1,4.2c-2.3-0.3-4.1-2.5-4.2-5.2c0-0.3,0-0.7,0-1c-0.1,0-0.2-0.1-0.3-0.1
		c0.6-2.3,0.9-4.8,2-6.9c0.6-1.2,2.4-2.3,3.7-2.4c1.9-0.1,2.3,1.9,2.5,3.5C132.5,247.9,133.1,250.6,132.8,253.2z"/>
	<path d="M335.6,208.9c-0.1,1.8-0.9,3.1-2.8,3.3c-1,0.1-2,0-3,0c0,0,0-0.1,0-0.1c-1.6,0.1-3.2,0.3-4.8,0.4c-2.8,0.2-4.4-1-4.7-3.1
		c-0.3-2.3,1.2-4.2,3.9-4.4c2.9-0.2,5.9,0,8.8,0.2C335,205.4,335.7,207,335.6,208.9z"/>
	<path d="M133.2,282.9c-0.3,2.1-0.4,3.8-0.8,5.4c-0.7,2.7-3.1,3.4-5.2,1.6c-3.2-2.7-2.5-10.4,1.1-12.5c1.6-0.9,2.9-0.3,3.5,1.1
		C132.5,280,132.8,281.6,133.2,282.9z"/>
	<path d="M129.4,221.8c-2.7,0.1-4.8-2-5.4-5c1-2,1.9-4.2,3.2-6c1-1.4,2.8-1.6,3.9-0.1c1.2,1.8,2.3,3.9,2.8,6.1
		C134.5,219.2,132,221.7,129.4,221.8z"/>
	<path d="M335.7,196.2c0,0.9-1.2,2.1-2.1,2.6c-1,0.5-2.3,0.2-3.4,0.3c0-0.1,0-0.2,0-0.2c-1.5,0.2-3,0.6-4.5,0.5
		c-1.5-0.1-3.2-0.3-4.4-1.2c-1.7-1.3-1-3.9,1.2-4.1c3.7-0.3,7.4-0.4,11-0.2C334.3,193.9,335.8,195.4,335.7,196.2z"/>
	<path d="M335.3,250.6c-0.1,0.9-1,2.4-1.8,2.5c-3.5,0.5-7,0.8-10.5,0.9c-0.7,0-2-1.5-2-2.2c0-1,1-2.5,1.8-2.8
		c1.8-0.6,3.8-0.4,5.7-0.6c0,0.1,0,0.2,0,0.2c1.5,0,3.1-0.2,4.5,0.1C333.9,248.9,335.3,250,335.3,250.6z"/>
	<path d="M439.6,275.9c-2.4-4.1-4.8-8.3-7.5-12.2c-5.2-7.8-10.4-15.4-15.7-23.1c-2.2-3.2-5.4-4.6-9.4-3.9c-1.6,0.3-3.3,0.3-5,0.3
		c-7.5,0-15-0.1-22.4-0.2c-4,0-5.3,1.3-5.5,5.2c0,0.7,0,1.3,0,2c0.1,11.8,0.2,23.5,0.3,35.3c0,4.7,1.4,6.1,6.2,6.1
		c8.7,0,17.5,0,26.2,0v0.4h16.6c3.6,0,7.2,0.2,10.8-0.1C441,285.3,442.9,281.7,439.6,275.9z M431.2,276.8c-0.2,0.6-1.6,1-2.5,1
		c-7.3,0.1-14.6,0-21.9,0v-0.2c-7.1,0-14.1,0-21.2,0c-4.1,0-4.5-0.9-4.4-5.1c0.2-7.7,0.2-15.5,0-23.2c-0.1-4.6,0.5-5.6,5.1-5.5
		c7,0.1,14,0.3,20.9,0.4c2.4,0,4.2,0.7,5.6,2.7c3,4.5,6.1,9,9.2,13.5c2.9,4.4,5.9,8.8,8.7,13.2C431.2,274.7,431.5,276,431.2,276.8z"
		/>
	<path d="M428.9,356.5c0-9.7-8.8-18-19-18c-9.5,0.1-18.3,8.9-18.2,18.4c0.1,9.7,8.8,18.2,18.9,18.2
		C420.7,375.2,429.3,365.6,428.9,356.5z M410.7,367.8c-7.1,0-11.3-4.1-11.2-11c-0.4-6.7,5.8-10.9,10.7-11.1
		c5.8-0.2,11.5,5.8,11.3,11.6C421.3,362.5,417,367.8,410.7,367.8z"/>
	<path d="M201.4,338.9c-11.5-0.2-19.3,6.9-19.4,17.8c-0.2,10.3,7.5,18.4,17.5,18.6c10.7,0.2,18.6-7.4,19-17.9
		C218.8,347.9,209.9,339.1,201.4,338.9z M200.1,368.1c-6.5,0.2-10.4-3.2-10.6-10.6c-0.1-6.5,4.3-11.5,10.5-11.4
		c6.5,0.1,11.3,4.1,11.3,11C211.2,364,206.8,367.9,200.1,368.1z"/>
	<path d="M309.1,294c-4,3.9-9,3.5-13.8,2.1c-4.1-1.3-6.4-4.9-7-9.1c-0.8-5.7,0.2-10.6,6-13.7c1.4-0.7,2.2-3.5,2.3-5.4
		c0.3-7,0.1-14,0.1-20.9c0.1-6.7,0.3-13.4,0.4-20.2c0-1.7,0.2-3.6,2.2-3.6c2.2-0.1,2.9,1.7,2.9,3.6c0,6.4,0,12.8,0,19.2h0.4
		c0,7.4,0,14.8,0,22.2c0,3.1,1.3,5.2,4,6.8C314.1,279.1,315.2,288.1,309.1,294z"/>
</g>
</svg>
