<?xml version="1.0" encoding="utf-8"?>
<!-- Generator: Adobe Illustrator 24.0.1, SVG Export Plug-In . SVG Version: 6.00 Build 0)  -->
<svg version="1.1" id="Layer_1" xmlns="http://www.w3.org/2000/svg" xmlns:xlink="http://www.w3.org/1999/xlink" x="0px" y="0px"
	 viewBox="0 0 500 500" style="enable-background:new 0 0 500 500;" xml:space="preserve">
<style type="text/css">
	.st0{fill:#FFFFFF;}
</style>
<g>
	<path d="M344.1,301c-1.9-0.7-3.6-2.1-3.4-4.7c0.3-3.3,0.5-6.6,0.4-9.8c-0.1-4-1.3-7.7-4.4-10.5c-3.3-2.9-6.7-5.7-9.7-9
		c-5.3-5.9-10.5-11.9-15.5-18c-4.1-5-8-10.2-11.8-15.4c-2.6-3.4-5.6-5.6-10.2-5.1c-1.5,0.2-3,0.1-4.5-0.1c-2.8-0.3-3.2-1.1-3.1-4
		c0.1-5,0.2-10.1,0-15.1c-0.4-9.1-7.5-17.7-16.4-18c-1.7-0.1-3.4-0.1-5-0.1c-20.3,0.1-40.5,0.3-60.8,0.2
		c-11.4-0.1-22.8-0.2-34.1-1.2c-9.2-0.8-17,1.6-23.2,7.9c-4.8,4.9-8.7,10.6-12.9,16.1c-5,6.6-10,13.1-14.7,19.8
		c-5.3,7.7-11.7,14.4-18.5,20.8c-2.5,2.3-4.1,4.9-4.1,8.3c0,11,0,22,0.1,32.9c0,2.4-0.6,4.3-2.8,5.4c-2.4,1.2-3.3,3.1-3.2,5.7
		c0,4.1,0,8.2,0.1,12.2c0.1,3.3,2.7,6.4,5.6,6.5c6.5,0.1,13,0.2,19.4,0.1c2.4,0,4,0.7,5.1,2.8c4.7,9.2,11.8,15.5,22,18.2
		c10.2,2.6,19.2,0.1,27.3-6.1c4.1-3.1,7.3-7.1,9.5-11.9c1-2.2,2.8-3.1,5.3-2.8c2.6,0.3,5.3,0.2,7.9,0.2c23.9,0,47.8,0,71.6,0.1
		c1.1,0,2.4,0.6,3.3,1.4c1.1,0.9,1.8,2.2,2.6,3.4c5.4,8.3,12.9,13.5,22.7,15.4c5.5,1,10.9,0.5,15.8-1.8c6.8-3.3,12.4-8.3,15.7-15.3
		c1.2-2.4,3-3.3,5.6-3.3c2.5,0.1,5,0,7.4,0v0c2.6,0,5.3,0.1,7.9,0c4.6-0.2,7.4-3,7.5-7.6c0.1-3.2-0.1-6.4,0.1-9.6
		C349.1,305.2,348.2,302.4,344.1,301z M281.4,266.4c0.2-8,0.2-16,0.3-24c0-2.2-0.4-4.6,2-6c2.3-1.3,7.5-0.7,9,1
		c3,3.5,5.9,7.1,8.8,10.8c4.8,6.1,9.7,12.1,14.5,18.2c0.6,0.8,0.9,1.9,1.4,2.8c-1,0.3-2,0.8-3.1,0.9c-4.9,0.1-9.8,0-14.7,0v0
		c-5,0-9.9,0-14.9,0C281.7,270.2,281.3,269.5,281.4,266.4z M114,316.6c-0.2,0.8-1.6,1.7-2.5,1.7c-2.1,0.2-4.3-0.2-6.4-0.3
		c0,0.1,0,0.2,0,0.3h-6.5c-2.1,0-3.5-0.9-3.7-3.2c0-0.7-0.2-1.4-0.3-2.1c-0.3-4,1.1-5.3,5.1-5.3c4.1,0,8.1-0.1,12.2-0.2
		c1.8-0.1,2.8,0.6,2.7,2.5C114.4,312.2,114.4,314.5,114,316.6z M168.9,316.1c-0.4,12.9-8.7,23.4-23.6,23.2
		c-13.8-0.2-23.1-9.7-23-21.9c0.1-12.9,9.6-24,23.1-23.7C158.7,293.5,169.3,303.4,168.9,316.1z M261.8,312.7
		c-0.2,0.9-0.4,1.9-0.4,2.8c-0.2,2.3-1.1,3.2-3.3,3.1c-7,0-14.1-0.1-21.1-0.1c-16.3-0.1-32.7-0.1-49-0.2c-2.5,0-5,0.1-7.4,0.2
		c-2.2,0.1-3.2-0.8-3.3-3.1c-0.2-6.5-0.2-6.5,6.3-6.5h36v-0.5h38.9C261.6,308.5,262.5,309.6,261.8,312.7z M292.8,338.5
		c-13.5,0.4-23.4-10.1-23.2-22.2c0.1-14.4,9.9-24.4,22.4-24.5c12.4-0.1,23.9,10.3,23.7,24.5C315.6,326.1,304.5,339.9,292.8,338.5z
		 M319.8,299.6c-7.6-11.3-18.1-16.9-31.8-15.5c-8.9,0.9-15.8,5.4-20.9,12.6c-2,2.7-4.4,3.8-7.8,3.7c-4.6-0.2-9.3-0.1-13.9,0
		c-20,0.1-40.1,0.1-60.1,0.2c-2.6,0-5.2,0.1-7.7,0.6c-2.5,0.5-4.4-0.3-5.6-2.2c-3.5-5.4-8.6-8.9-14.3-11.2c-2.8-1.2-6-1.7-9.1-1.9
		c-11.3-1.1-20.4,3.3-27.9,11.5c-1.1,1.2-2.9,2-4.5,2.2c-3.8,0.4-7.7,0.3-11.5,0.3c-3.3,0-4.3-1.1-4.3-4.3c0-9.2,0.1-18.4,0-27.6
		c-0.1-3.5,1-6.4,3.4-8.7c12.4-12,21.8-26.4,32-40.1c4.2-5.6,8.4-11.2,13-16.6c3.1-3.7,7.6-5.1,12.3-5c10,0.2,20,0.8,30,1.2
		c4.2,0.2,8.3,0.3,12.5,0.3c18.9,0,37.8,0,56.7-0.1c4.2,0,7.8,0.8,10.7,4.3c1.6,2,2.7,3.9,2.7,6.4c0,10.7,0,21.5,0,32.2h-0.1
		c0,10.6,0,21.2,0,31.7c0,2.4,0.1,4.9,2.7,5.9c1.4,0.5,3.1,0.4,4.6,0.2c2.4-0.3,4.7-1.2,7.1-1.2c11.6-0.3,23.2-0.4,34.8-0.5
		c1.5,0,3.1,0,4.5,0.4c3.3,1.1,5.7,3,5.7,7.1c-0.1,3.8,0.4,7.7,0.5,11.5c0,2.1-1.3,3.2-3.3,3.5c-2.2,0.4-4.4,0.6-6.6,0.9
		C321.7,301.5,320.7,301,319.8,299.6z M334.7,318c-2.7-0.3-5.4-0.2-8.2-0.3c-2.7-0.1-3.7-1.7-3.6-5.6c0.1-2.5,0.9-3.2,3.7-3.2
		c1.6,0,3.2,0,4.8,0c2.2,0,4.3,0,6.5,0c2,0,3.1,1.2,3,3C340.7,316.5,340.9,318.8,334.7,318z"/>
	<path d="M365.6,309.6c0-1-0.1-2.1-0.4-3.1c-0.6-1.8-2-2.7-3.9-2.5s-2.9,1.3-3,3.1c-0.1,1.8,0.2,3.5,0.2,5.3
		c0.1,11.6,0.2,23.2,0.3,34.9c0,5.4,0.1,10.7-0.2,16.1c-0.1,3.3-1.2,4-4.4,4c-51,0-101.9,0-152.9,0c-6.2,0-12.3,0.2-18.5,0.3
		c-3.8,0.1-5.1-1.1-5.2-4.9c-0.1-4.6,0-9.3-0.1-13.9c0-1.3,0-2.6-0.4-3.8c-0.4-1-1.4-1.8-2.1-2.6c-0.8,0.8-2.1,1.4-2.4,2.3
		c-0.7,2.3-1.3,4.7-1.3,7c-0.1,13.9-0.1,27.9-0.1,41.8c0,6.2,1.2,12,4.7,17.4c5.1,8,12.1,12.8,21.9,13c5.4,0.1,10.9,0.1,16.3,0.1
		c17.9,0,35.9,0,53.9,0v0.2c21.2,0,42.3,0.1,63.5-0.1c7.3,0,14.7-0.2,21.3-4.6c6.3-4.2,10.5-9.8,12-17.2c0.8-3.8,0.9-7.8,0.9-11.7
		C365.7,363.8,365.6,336.7,365.6,309.6z M357.9,400.3c-0.9,8.1-8.7,15.6-16.7,16.4c-3.7,0.4-7.3,0.6-11,0.7c-20.7,0.1-41.5,0-62.2,0
		v-0.1c-21.1,0-42.3,0-63.4,0c-2.7,0-5.5,0-8.1-0.5c-2.9-0.6-6.1-1.4-8.4-3.1c-5.7-4.4-9.4-10.1-9.5-17.7c0-5-0.4-10.1-0.5-15.1
		c-0.1-5,1.5-6.2,6.5-6c7.1,0.3,14.2,0.2,21.4,0.1c17.9-0.1,35.9-0.4,53.8-0.4c28.7,0,57.5,0.1,86.2,0.1c3,0,6.1-0.2,9.1-0.3
		c2.3-0.1,3.8,1.1,3.8,3.3C358.7,385.2,358.8,392.8,357.9,400.3z"/>
	<path d="M361.4,89.2c-2.6-3.4-5.5-6.9-9.1-9.4c-4.7-3.3-10.3-4.3-16.2-4.2c-24.5,0.3-49,0.2-73.6,0.2c-20,0-40.1,0.2-60.1,0
		c-10.3-0.1-18.8,3.6-25.2,11.6c-4.4,5.4-6.8,11.7-6.8,18.9c0,12.1,0,24.2,0,36.3h-0.2c0,12.5,0,25,0,37.5c0,3.3,1.6,5.3,4,5.2
		c2.1-0.1,3.1-1.8,3.1-5.1c0-3.2,0.1-6.4,0.1-9.6c0-14.5,0-29,0-43.5c0-3.8,1.3-5.1,5.1-5.1c15.9,0.1,31.7,0.1,47.6,0.2
		c19,0,38,0,57,0c22.6-0.1,45.2-0.3,67.8-0.4c2.1,0,3.4,0.9,3.5,3c0.1,1.2,0.1,2.4,0.1,3.6c0,4.3-0.1,8.5-0.1,12.7
		c0,2.5,2.2,4.9,4.2,4.8c1.7-0.1,2.9-1.9,3-4.6c0-0.3,0-0.6,0-1c0-10.9,0-21.8,0.1-32.7C365.8,101.1,365.5,94.6,361.4,89.2z
		 M355.1,114.7c-6.6,0-13.3,0-19.9,0c-21.1,0.1-42.1,0.1-63.2,0.2c-29.2,0.1-58.5,0.2-87.7,0.3c-1,0-2.1,0-3.1-0.2
		c-2.3-0.4-3.7-1.7-3.4-4.1c0.4-4.1,0.5-8.2,1.5-12.1c2.1-8.9,11.1-15.8,20.4-15.8c23-0.1,46,0,69,0v-0.4c22,0,44.1,0.1,66.1,0
		c6.4,0,12,1.5,16.7,5.9c4.1,3.8,7.1,8.2,7.2,14.1c0.1,2.9,0.3,5.8,0.3,8.6C358.7,113.5,357.3,114.7,355.1,114.7z"/>
	<path d="M413.7,204.3c0-13.2-4.5-24-12.4-33.3c-10.1-11.8-23.4-17.2-38.8-17.7c-5.8-0.2-11.4,1.4-16.9,3c-5.6,1.6-10.5,4.4-15,7.9
		c-9.6,7.6-15.7,17.5-18.3,29.6c-2.2,10.3-1.4,20.4,2.9,30.1c2.3,5,4.6,10,7.3,14.8c3.4,6,7,11.8,10.8,17.5
		c3.9,5.9,8,11.6,12.2,17.2c4.1,5.5,8.3,11,12.6,16.4c2,2.5,4.4,2.5,6.9,0.4c1-0.9,2-1.9,2.8-3c6.9-9.5,13.8-19.1,20.7-28.6
		c7.8-10.8,15.3-21.7,20.3-34.1C411.5,217.8,414,211,413.7,204.3z M406.5,203.1c0,7.3-2.1,14-5.2,20.5
		c-7.7,16.5-18.8,30.8-29.3,45.5c-2.4,3.3-4.8,6.6-7.2,9.9c-1.8,2.6-3.6,2.7-5.5,0.3c-3.7-4.8-7.4-9.6-11-14.6
		c-5.1-7.2-10.2-14.3-14.9-21.8c-5.7-9.2-11-18.6-13.8-29.2c-1.9-7.3-1.9-14.8,0.3-21.9c2.9-9.1,7.9-17.1,16-22.8
		c10.6-7.5,22.2-10.2,34.8-7.8c16.3,3.2,27.8,12.5,33.2,28.5c1.4,4.2,2.1,8.7,3.1,13C406.9,203,406.7,203,406.5,203.1z"/>
	<path d="M175.2,225.7c0-4.4-2.3-6.9-6.7-7c-7.4-0.3-14.9-0.4-22.3-0.6c-2.4-0.1-4.2,0.9-5.5,2.8c-2.4,3.6-4.9,7.1-7.3,10.7
		c-3.6,5.6-7.1,11.4-10.8,17c-1.7,2.4-2.4,4.8-1.1,7.4c1.3,2.7,4,2.7,6.5,2.7c6.7,0,13.4,0,20.2,0v-0.5c7.1,0,14.2,0.1,21.4,0
		c3.5,0,4.7-1.2,5.4-4.6c0.2-0.9,0.3-1.9,0.3-2.9C175.2,242.4,175.3,234,175.2,225.7z M167.1,247.7c-0.1,2.2-1.3,3.1-3.7,3.1
		c-7.4-0.1-14.9-0.3-22.3-0.3c-2.5,0-4.9,0.4-7.4,0.4c-0.8,0-2-0.3-2.5-0.9c-0.3-0.4,0.1-1.7,0.5-2.4c4.2-6,8.4-11.9,12.6-17.8
		c1.8-2.6,4.3-3.7,7.5-3.3c1.8,0.2,3.7,0,5.5,0v-0.2c2.2,0,4.5,0,6.7,0c2.7,0,3.6,0.8,3.5,3.6C167.5,235.9,167.3,241.8,167.1,247.7z
		"/>
	<path d="M292.8,299.4c-7.2-0.6-16.7,8.2-16.7,16.7c0,7.1,9.3,16.4,16.6,16.2c8.2-0.2,17-8.9,16.9-16.5
		C309.5,308.5,301.1,299,292.8,299.4z M294.5,324.2c-0.5,0.2-1.1,0.2-1.7,0.3c-3.8-0.6-6.3-3-7.9-6.3c-1.4-2.9,0-5.3,1.8-7.5
		c0.3-0.4,0.6-0.7,1-1.1c3.9-4,8.1-3.9,11.3,0.7C303,316.2,300.4,321.8,294.5,324.2z"/>
	<path d="M145.9,299.9c-8.8,0.1-16.9,8.6-17.3,17.1c-0.3,6.7,8,16.6,16,15.7c9.9,0.7,17.6-7.9,17.5-16.2
		C161.9,308.7,154.5,299.8,145.9,299.9z M153.6,316.3c0.3,5-5.1,9-9,8.7c-4.2-0.3-7.5-3.9-7.3-8.5c0.1-4.4,4.6-8.8,8.8-8.4
		C149.5,308.4,153.9,311.4,153.6,316.3z"/>
	<path d="M267.2,379.8c-8,0-14.4,6.3-14.5,14.2c-0.2,10.7,8.1,16.1,14.9,16.1c8.2,0,14.8-6.8,14.9-15.3
		C282.5,386.7,275.5,379.8,267.2,379.8z M267.1,403.2c-4-0.1-8.2-4.5-8.1-8.7c0.1-4,4.1-7.6,8.4-7.6c4.4,0,8.2,3.5,8.2,7.4
		C275.7,398.6,271.1,403.4,267.1,403.2z"/>
	<path d="M290.3,98.7c0,2.3-1,3.2-3.7,3.2c-6.3,0-12.7,0-19,0c0,0,0,0,0,0c-6.5,0-13,0-19.5,0c-2.5,0-3.6-1-3.6-3.1
		c-0.1-2.4,1.2-3.8,3.6-3.8c12.8,0,25.6,0,38.4,0.1C289.1,95.1,290.2,96.3,290.3,98.7z"/>
	<path d="M362,178.2c-15.8-0.3-26.5,12.4-26.5,26.6c0,14.1,12.1,25.4,27.5,25.7c14.1,0.3,26.4-11.9,26.1-26.2
		C388.9,190.5,378.1,177.9,362,178.2z M363,223c-12.8-0.1-19.9-9.1-19.8-18.7c0.1-10.6,7.8-18.8,19.5-18.8
		c10.4,0,18.9,8.5,18.9,18.7C381.8,214.7,373.3,223.1,363,223z"/>
	<path class="st0" d="M267.5,387c4.4,0,8.2,3.5,8.2,7.4c0,4.2-4.6,8.9-8.6,8.8c-4-0.1-8.2-4.5-8.1-8.7
		C259.1,390.6,263.1,387,267.5,387z"/>
</g>
</svg>
