<?xml version="1.0" encoding="utf-8"?>
<!-- Generator: Adobe Illustrator 24.0.1, SVG Export Plug-In . SVG Version: 6.00 Build 0)  -->
<svg version="1.1" id="Layer_1" xmlns="http://www.w3.org/2000/svg" xmlns:xlink="http://www.w3.org/1999/xlink" x="0px" y="0px"
	 viewBox="0 0 500 500" style="enable-background:new 0 0 500 500;" xml:space="preserve">
<style type="text/css">
	.st0{fill:#FFFFFF;}
</style>
<g>
	<path d="M435.2,410.4c0-3.8,0.1-7.6,0-11.5c-0.2-5-1.8-6.4-6.8-6.5c-2.4-0.1-4.8,0-7.1,0c-3-0.1-3.9-1.1-3.8-4.1
		c0.2-11.8,0.5-23.6,0.4-35.4c0-40.2-0.2-80.4-0.3-120.5c0-5.1-1.6-6.7-6.8-6.6c-16.3,0.1-32.6,0.1-48.9,0.2c-4.2,0-8.3,0-12.5,0.2
		c-4.2,0.2-5.3-0.8-5.3-5c0-15.3,0-30.6,0-45.9c0-2.4-0.4-4.7-0.4-7.1c0-3,1-3.9,4-3.6c2,0.2,3.6-0.6,4.4-2.3
		c0.7-1.5,1.2-3.2,1.2-4.9c0-6.3-0.3-12.6-0.4-18.8c-0.1-4.9-1.4-6.1-6.3-6c-13.1,0.2-26.2,0.4-39.2,0.5
		c-31.7,0.1-63.4,0.1-95.1,0.2c-10,0-20,0.3-30.1,0.3c-9.7,0-19.4-0.3-29-0.4c-5-0.1-7.1,1.9-7.1,6.5c0.1,5.6,0.3,11.2,0.3,16.8
		c0,4.7,1.4,8.1,6.2,9.5c1.9,0.5,2.5,1.9,2.1,3.8c-0.1,0.7-0.2,1.5-0.2,2.3c0,15,0,30.1,0.1,45.1c0.1,7.9,0.1,7.8-7.7,7.8
		c-19.9-0.1-39.8-0.1-59.6-0.1c-3.7,0-6.4,2.8-6.5,6.5c-0.1,3-0.1,5.9-0.1,8.9c0.1,42.5,0.2,84.9,0.4,127.4c0,6.6,0.3,13.2,0.7,19.8
		c0.2,3.5-0.8,5-4.3,5.1c-2.8,0.1-5.6-0.1-8.4-0.1c-2.9,0-4.2,1-4.3,3.8c-0.2,6.2-0.4,12.4-0.4,18.6c0,3.1,1.8,4.8,5,4.9
		c5.5,0.1,11,0.3,16.6,0.3c9.2,0,18.3-0.2,27.5-0.2c14.4,0,28.9,0.2,43.3,0.2c30.9,0,61.8,0,92.8,0v0.2c49.9,0,99.9,0,149.8,0
		c10.1,0,20.2,0,30.3-0.1c4.1,0,5.6-1.8,5.4-6C435.2,412.7,435.2,411.5,435.2,410.4z M89.5,236.9c0.2-3.3,1.5-4.5,4.8-4.5
		c17.7,0.2,35.3,0.4,53,0.6c6.2,0.1,6.8,0.8,6.8,7.1c0,4,0.3,8,0.3,12c0,2.9-1.5,4.1-4.4,4c-5.6-0.1-11.2-0.2-16.8-0.3
		c-9-0.1-18-0.2-27,0c-1.6,0-3.7,0.9-4.7,2.2c-0.8,0.9-0.8,3.4-0.1,4.4c0.9,1.2,2.9,2.2,4.4,2.2c10.5,0.1,21.1-0.1,31.6-0.2
		c4.2,0,8.5-0.1,12.7-0.1c2.7,0,4,1.2,4,3.8c0,4.4,0,8.8-0.1,13.3c-0.1,2.9-1.3,3.9-4.1,3.9c-14.6-0.2-29.2-0.3-43.8-0.3
		c-1,0-2,0.2-3,0.6c-2.1,0.8-3.1,2.9-2.6,5.2c0.5,2.3,2.2,3.1,4.4,3.1c14.8-0.1,29.5-0.3,44.3-0.4c4.4,0,5.3,0.9,5.3,5.4
		c0,3.9,0,7.8,0.1,11.7c0.2,3.5-0.9,4.8-4.5,4.8c-3.8,0-7.6,0-11.5,0c-10.4-0.1-20.9-0.2-31.3-0.3c-1,0-2,0-3,0.2
		c-2.3,0.5-4.1,3.1-3.8,5.4c0.2,2,2.1,3.3,4.8,3.3c4.1,0,8.1,0,12.2,0c10.8-0.1,21.6-0.2,32.3-0.4c3.2,0,4.5,1.1,4.7,4.3
		c0.2,4.3,0.3,8.7,0.5,13c0.1,2.3-1.1,3.4-3.1,3.5c-1.8,0.2-3.6,0-5.3,0c-12.7-0.1-25.3-0.2-38-0.3c-1.3,0-2.6-0.1-3.8,0.1
		c-2.4,0.4-4.2,2.7-4,5.2c0.2,2.5,2.1,3.4,4.3,3.6c2.3,0.2,4.6,0.1,6.9,0.1c12.7,0,25.5,0,38.2-0.1c4.3,0,5.3,0.9,5.4,5.1
		c0,10.2,0,20.4-0.1,30.6c0,1.1-1.3,2.5-2.3,3.2c-0.8,0.6-2.1,0.5-3.2,0.5c-18.4,0-36.9,0-55.3,0c-3.7,0-4.7-1.1-4.7-4.9
		c0-15.4,0-30.7,0-46.1h-0.1v-41.3c0-19.5,0-38.9,0-58.3C89.7,240.2,89.4,238.5,89.5,236.9z M153.2,410.3c-1.3,0.2-2.5,0.4-3.8,0.4
		c-12,0-23.9,0-35.9,0v0.1c-12,0-24,0-35.9,0c-3.5,0-5-1.2-5.1-3.9c-0.1-3.5,1.7-5.6,5.1-5.6c20.2,0,40.4,0.1,60.6,0.1
		c3.7,0,7.5-0.1,11.2-0.3c4.1-0.2,6.4,1.8,6.5,5.8C155.9,408.7,155.1,410,153.2,410.3z M241.8,410.8c-3.2,0.1-6.5,0-9.7,0v0.1
		c-3,0-6.1-0.1-9.2,0c-3.2,0.1-4.7-1.6-4.4-4.7c0.2-1.9,0.3-3.7,0.3-5.6c0-13.8-0.1-27.5-0.1-41.3c0-3.1,1.2-4.3,4.3-4.3
		c6.2,0,12.4,0,18.6,0.1c2.5,0,3.7,1.3,3.7,3.8c-0.1,14.3-0.3,28.5-0.3,42.8c0,1.7,0.3,3.4,0.4,5.1
		C245.5,409.4,244.3,410.8,241.8,410.8z M279.5,407.1c0,2.6-1.7,3.4-3.8,3.5c-3.2,0.2-6.5,0.1-9.7,0.1c-3.1,0-6.1,0.1-9.2,0
		c-2.7-0.1-3.6-1.2-3.6-3.8c0-7.5,0-15.1,0-22.6h0.2c0-8.5,0-16.9,0-25.4c0-2.1,1-3.5,3.1-3.5c6.5-0.1,13.1-0.2,19.6-0.1
		c2.4,0,3.5,1.6,3.5,3.8c-0.1,8-0.2,15.9-0.3,23.9C279.5,391,279.5,399,279.5,407.1z M331.9,410.9c-13.3,0-26.5,0-39.8-0.1
		c-3.7,0-4.8-1.3-4.3-5c0.2-1.7,0.2-3.4,0.2-5.1c0-16.3,0-32.6,0.1-48.9c0-4-2-5.8-6.4-5.7c-8.1,0.1-16.3,0.3-24.4,0.4
		c-12.3,0.1-24.6,0.1-36.9,0.1c-1.4,0-2.7,0-4.1-0.2c-4.3-0.4-6.4,1.5-6.3,5.9c0,6.3,0.2,12.6,0.2,18.8c0,9.9,0,19.7,0,29.6
		c0,2,0.2,3.9,0.3,5.8c0.2,2.9-0.8,4.1-3.7,4.3c-2,0.1-4.1,0-6.1,0c-10.7,0-21.4,0.1-32.1,0.1c-1.1,0-2.2,0-3.3-0.3
		c-1.7-0.5-2.5-1.7-2.5-3.6c0.3-10.4,0.6-20.8,0.6-31.3c0.1-9.1-0.2-18.2-0.2-27.2c0-57.8-0.1-115.5-0.1-173.3
		c0-1.8-0.1-3.6-0.1-5.4c-0.1-3.6,1.5-5.2,5-5.2c8.8,0,17.7,0,26.5,0c29.7-0.1,59.4-0.2,89.2-0.3c15,0,30.1,0,45.1-0.1
		c0.9,0,1.9,0,2.8,0.2c3,0.4,4.1,1.8,4.1,4.7c-0.1,13.8-0.2,27.5-0.2,41.2c0,11.1,0,22.2,0,33.3c0,14.8,0,29.6,0,44.4
		c0,8.4,0,16.8,0,25.2v25.2c0,8.4,0,16.8,0,25.2c0,8.4,0,16.8,0,25.2c0,6,0.3,12,0.4,18.1C336.2,409.9,335.2,410.9,331.9,410.9z
		 M339.9,154.9c-14.9,0.1-29.9,0.3-44.8,0.3c-16.5,0.1-32.9,0-49.4,0v0.1c-28.9,0-57.8,0-86.6,0c-3.6,0-4.7-1.2-4.4-4.8
		c0.1-1.3,0.1-2.5,0.1-3.8c0.1-3.4,2-5.2,5.3-5.1c23.7,0.1,47.4,0.3,71.1,0.4c18.5,0,37-0.2,55.5-0.3c17.8-0.1,35.5-0.1,53.2-0.2
		c2.6,0,4,1.3,4.1,4.1c0.1,2.1,0,4.3-0.3,6.3C343.5,154.1,342,154.9,339.9,154.9z M343.9,237c0.1-2.3,2-3.1,4.2-3.1
		c5.2,0,10.3,0,15.5,0c11.4,0,22.8-0.1,34.1-0.1c2.3,0,4.6-0.3,6.9-0.4c3.1-0.1,4.5,1.3,4.5,4.4c0,38.1-0.1,76.3-0.1,114.4
		c0,12.1,0.1,24.1,0.2,36.2c0,2.8-1.1,4-4,4c-9.6,0-19.2,0-28.8,0v-0.1c-9.1,0-18.2,0-27.3,0c-5,0-5.4-0.7-5.3-5.6
		c0.2-8.7,0.1-17.5,0.1-26.2c0-0.4,0-0.8,0-1.3c0-5.3,0.9-6.2,6.2-6.1c13.2,0.1,26.3,0.3,39.5,0.4c1.5,0,3.1-0.2,4.5-0.7
		c2.4-0.8,3.5-2.9,3-5.5c-0.5-2.5-2.4-3.2-4.6-3.2c-1.8,0-3.7,0.4-5.6,0.4c-12.7,0.2-25.5,0.3-38.2,0.4c-4.3,0-5-1-4.9-5.1
		c0.2-4,0.1-8,0.2-12c0.1-3.5,0.8-4.3,4.2-4.3c14,0,28,0.1,42,0.1c1.3,0,2.7,0,4.1-0.2c2.3-0.5,3.7-2.4,3.5-4.9
		c-0.1-2.4-1.5-3.8-3.9-3.9c-2.6-0.1-5.3,0.2-7.9,0.2c-11.8,0.1-23.6-0.2-35.4,0.2c-8,0.3-7.2-1.8-7-7.2c0.1-3.4,0.1-6.8,0-10.2
		c-0.1-3.3,0.8-4.4,4.1-4.4c14.3,0,28.5,0.1,42.8,0.1c1.4,0,2.9-0.1,4.3-0.5c2.3-0.7,3.1-2.6,2.9-4.8c-0.1-2.1-1.4-3.3-3.4-3.5
		c-2.1-0.1-4.2,0.1-6.3,0.1c-13.6,0-27.2,0-40.8,0.1c-2.1,0-3.3-1-3.4-3c-0.1-5.1-0.1-10.2,0-15.3c0.1-1.9,1.5-2.7,3.4-2.7
		c14.4,0.1,28.9,0.1,43.3,0.2c2.4,0,4.9,0,5.9-2.5c0.6-1.4,0.5-3.6-0.3-5c-1.2-2.2-3.6-2-5.9-1.9c-5.9,0.2-11.7,0.4-17.5,0.4
		c-8.5,0.1-17,0-25.5,0c-2.3,0-3.7-1.1-3.8-3.2C343.7,247.1,343.7,242,343.9,237z M426.6,409.2c-0.6,0.9-2.2,1.6-3.4,1.6
		c-11.8,0.2-23.6,0.3-35.4,0.4h-2.3v-0.3c-10.1,0-20.2,0-30.3,0c-2,0-3.9,0.2-5.8,0.2c-4,0.1-5.6-1-5.7-4.1
		c-0.1-3.9,1.5-5.5,5.5-5.5h14c16.3,0,32.6,0.1,48.9,0c3.5,0,6.9-0.4,10.4-0.3C426.8,401.3,429,405.7,426.6,409.2z"/>
	<path d="M484.6,175.8c-8.7,8.4-17.5,16.8-26.3,25.2c-1.5,1.4-3.2,2.6-5,3.4c-1.2,0.5-3.2,0.6-4.1-0.1c-0.9-0.8-1.1-2.7-1.1-4.1
		c0-1,0.9-2,1.7-2.8c5.9-5.7,11.9-11.4,17.8-17.1c0.8-0.8,1.2-1.9,1.8-2.9c-1.1-0.5-2.2-1.4-3.2-1.4c-10-0.1-20-0.1-30-0.1v-0.1
		c-9.7,0-19.4,0-29,0c-3.5,0-5.6-1.6-5.7-4.4c-0.1-2.7,2-4.5,5.5-4.7c3.2-0.1,6.5-0.1,9.7-0.1c16.3,0,32.6,0,48.9,0
		c1.1,0,2.2-0.5,3.3-0.8c-0.6-1.2-0.8-2.6-1.7-3.4c-6.2-5.8-12.6-11.4-18.8-17.1c-1-0.9-2-1.9-2.7-3c-1.3-2.2-0.8-4.9,0.9-6
		c1.7-1.1,4.4-0.7,6.1,1c7.1,7,14.2,14.1,21.4,21.1c3.5,3.4,7.2,6.4,10.7,9.8C487.2,170.4,487.2,173.3,484.6,175.8z"/>
	<path d="M97.3,177.7c0,2.2-1.7,3-3.5,3.4c-0.8,0.2-1.7,0.2-2.5,0.2c-8.7,0-17.3,0-26,0v-0.4H34.9c-0.7,0-1.4-0.1-2,0
		c-0.6,0.1-1.6,0.4-1.7,0.8c-0.1,0.6,0.1,1.5,0.6,2c2.5,2.8,4.9,5.7,7.5,8.3c4,4,8.3,7.8,12.4,11.7c0.5,0.5,1.1,0.9,1.3,1.5
		c0.4,1.3,1.2,3,0.7,3.9c-0.6,1.1-2.3,2.2-3.6,2.2c-1.4,0-3.1-0.8-4.2-1.8c-6.8-6.5-13.5-13.1-20.2-19.7c-3.3-3.3-6.6-6.6-9.9-9.9
		c-3-3-3-5.4,0.1-8.4c9.2-8.9,18.4-17.8,27.7-26.7c1-1,2.1-2.1,3.4-2.6c1.2-0.4,3.2-0.5,3.9,0.2c1,0.9,1.7,2.8,1.5,4.2
		c-0.2,1.4-1.4,2.9-2.5,4c-6.3,6.1-12.8,12.1-19.2,18.3c-0.8,0.7-1.1,1.9-1.6,2.9c1.1,0.4,2.3,1.2,3.4,1.2
		c16.7-0.1,33.5-0.2,50.2-0.3c2.8,0,5.6,0,8.4,0c1,0,2.1,0,3,0.4C96.4,173.7,97.2,175.6,97.3,177.7z"/>
	<path d="M225.2,80.8c-8.7-0.4-18.4,8.2-18.3,18.6c0.1,11,7.7,18.7,19.2,18.9c9.8,0.8,18.3-8.1,18.4-17.7
		C244.5,89.5,236.3,81.2,225.2,80.8z M225.6,111.1c-6.5-0.1-10.2-4.4-10.3-11.5c-0.1-6.4,4.6-11.6,11.1-11.1
		c5.2,0.4,10.3,5.9,10.2,11.6C236.4,106.1,232.7,111.4,225.6,111.1z"/>
	<path d="M201.9,113.4c0,3.2-1.3,4.7-4,4.7c-3,0-4.4-1.4-4.5-4.5c-0.1-2.8,0.1-5.6,0-8.4c-0.1-3.1-1-3.8-4-4
		c-2.4-0.1-4.7-0.4-7.1-0.5c-2.9-0.1-4.1,1-4.2,3.9c-0.1,3.1,0,6.1-0.1,9.2c-0.1,2.8-1.6,4.3-4,4.4c-2.2,0-3.6-1.5-3.7-4.3
		c-0.1-4.6,0-9.2,0-13.8h-0.2c0-5.1,0-10.2,0-15.3c0-2.7,1.3-4.7,3.5-4.8c2.5-0.1,4.7,2,4.7,4.7c0,2.4,0,4.7,0.3,7.1
		c0.2,2,1.6,2.9,3.6,2.9c2.6,0,5.3,0,7.9,0c1.9,0,3.1-0.9,3.3-2.8c0.2-1.5,0.3-3,0.4-4.6c0.1-1.2-0.1-2.4,0.1-3.6
		c0.4-2.1,2.3-3.4,4.5-3.2c2.3,0.2,3.2,1.7,3.2,3.8c0,1.5-0.1,3.1-0.1,4.6C201.6,97.1,201.8,105.2,201.9,113.4z"/>
	<path d="M304,114.9c0,2.3-1.2,3.6-3.4,3.6c-5.7,0.1-11.4,0.1-17-0.1c-3-0.1-4.6-1.9-4.6-5c-0.1-4.4,0-8.8,0-13.2h0
		c0-4.2-0.1-8.5,0-12.7c0.1-4.4,1.7-6,6.1-6c4.6,0,9.2,0,13.7,0c0.5,0,1,0,1.5,0c2.3,0.3,3.6,1.9,3.5,4.2c-0.1,2.3-1.5,3.4-3.6,3.4
		c-2.5,0-4.9-0.1-7.4-0.1c-1.3,0-2.7,0.1-4,0.3c-1.7,0.2-2.5,1.4-2.5,3c-0.1,1.7,0.8,2.8,2.4,3c1.6,0.3,3.2,0.3,4.8,0.4
		c2,0.1,3.9,0,5.8,0.2c2.5,0.3,3.6,1.7,3.5,4.1c-0.1,2.5-1.6,3.5-3.8,3.5c-3.2,0-6.4-0.3-9.7-0.2c-2.6,0.1-4,2.2-3,4.6
		c0.5,1,1.9,2.2,2.9,2.3c3.4,0.3,6.9,0.2,10.4,0.3C302.6,110.7,304,112.2,304,114.9z"/>
	<path d="M273.9,85.2c0,2.5-1.1,3.9-3.6,3.8c-7.9-0.3-6.6,2.1-6.6,7.3c0,5.1,0,10.2-0.1,15.3c0,1.1-0.2,2.2-0.4,3.3
		c-0.3,1.7-1.4,2.7-3.2,2.7c-1.8,0-3.2-0.7-3.6-2.6c-0.3-1.2-0.4-2.5-0.4-3.8c0.1-6.3,0.2-12.5,0.3-18.8c0-2.1-1-3.3-3.2-3.3
		c-1.4,0-2.9,0.2-4.3,0.2c-2.8,0-3.9-1.1-4-3.5c-0.1-2.6,1.3-4.1,4-4.2c3.7-0.1,7.3,0,10.9,0v-0.1c3.5,0,7-0.1,10.4,0
		C272.8,81.5,273.9,82.6,273.9,85.2z"/>
	<path d="M334.5,115.9c0.1,2.1-1.5,3-3.1,3.5c-1.3,0.4-2.6,0.6-4,0.6c-4,0-8-0.2-12-0.3c-3.6-0.1-5.1-1.4-5.2-5.1
		c-0.2-4.8,0-9.7,0-14.5h-0.2c0-4.6-0.1-9.2,0-13.8c0-3.4,1-4.7,3.3-4.8c2.7-0.1,4.2,1.5,4.3,4.8c0.2,6.5,0.2,12.9,0.2,19.4
		c0,0.8,0,1.5,0.1,2.3c0.4,3.2,1.7,4.5,4.9,4.6c2.7,0.1,5.4,0.1,8.1,0.4C332.6,113.1,334.4,113.7,334.5,115.9z"/>
	<path class="st0" d="M335.6,243.5c0,14.8,0,29.6,0,44.4c0,8.4,0,16.8,0,25.2v-25.2C335.6,273.1,335.6,258.3,335.6,243.5z"/>
	<path d="M204.9,304.7h-0.3c0-5,0.1-10,0-15c0-3.4-1.5-5.2-4.9-5.3c-6.5-0.2-13.1-0.3-19.6-0.1c-3.6,0.1-5.2,1.9-5.2,5.6
		c-0.1,10-0.1,20,0,30c0,3.7,1.6,5.1,5.4,5.2c6.1,0,12.2,0,18.3,0c4.8,0,6.2-1.4,6.3-6.2C205,314.2,204.9,309.5,204.9,304.7z
		 M192.1,316.4c-1.9,0-3.7,0-5.6,0c-2.2,0-3.4-1.2-3.4-3.3c-0.2-5.5-0.3-11-0.3-16.5c0-2.1,1.1-3.3,3.3-3.5c1.3-0.1,2.7,0,4.1,0
		c7-0.2,7-0.1,6.6,7c-0.2,3.5,0,7.1,0.2,10.7C197.1,315,196.2,316.3,192.1,316.4z"/>
	<path d="M244.8,194.4c0-2.6,0-5.3-0.1-7.9c-0.3-4.1-2.4-6.4-6.1-6.4c-6.3-0.1-12.5-0.1-18.8,0c-3,0-4.4,1.2-4.6,4.3
		c-0.3,4.8-0.3,9.7-0.3,14.5c0,5.8,0,11.5,0.3,17.3c0.2,3.3,1.5,4.3,4.8,4.3c3.1,0.1,6.1,0,9.2,0v0.1c2.5,0,4.9,0,7.4,0
		c6.1,0.1,8-1.3,8.3-7.3C245.1,207,244.9,200.7,244.8,194.4z M231.7,211.7c-1.9,0.1-3.9-0.1-5.8-0.3c-1.9-0.3-2.4-1.8-2.4-3.4
		c-0.1-2.7,0-5.4,0-8.2c0,0,0,0,0,0c0-2.5-0.1-4.9,0-7.4c0.1-2.9,1.1-3.8,3.9-3.9c2-0.1,3.9,0,5.9,0c2.2,0,3.4,1.2,3.5,3.3
		c0.1,2.4,0,4.7,0,7.1c0,2.2,0.1,4.4,0.2,6.6C237.1,209.7,235.8,211.4,231.7,211.7z"/>
	<path d="M324.6,198.5h-0.8c0-4.2,0.2-8.5,0-12.7c-0.2-4.5-2-6-6.5-5.9c-5.9,0.1-11.9,0.1-17.8,0.2c-3,0-4.8,1.3-5.4,4.3
		c-0.3,1.6-0.4,3.4-0.4,5c-0.2,7.5-0.4,15.1-0.4,22.6c0,4.5,2.6,9.1,8.4,8.7c5.4-0.3,10.9-0.1,16.3-0.3c4.6-0.2,6.8-2.8,6.7-7.2
		C324.5,208.3,324.6,203.4,324.6,198.5z M315.6,208.1c-0.1,2.8-1.5,4-4.2,4c-1.9,0-3.7,0-5.6-0.1c-2.4-0.1-3.9-1.2-3.9-3.8
		c0-5.6-0.1-11.2-0.1-16.8c0-2.1,1.3-2.9,3.1-3c2.4-0.2,4.7-0.3,7.1-0.2c2.2,0.1,3.7,1.2,3.7,3.6c0,1,0,2,0,3c0,1.7,0,3.4,0,5.1
		C315.6,202.7,315.7,205.4,315.6,208.1z"/>
	<path d="M204.6,239c-0.1-4.6-2.2-6.6-6.8-6.7c-5.5,0-11,0-16.6,0c-5.2,0-6.6,1.4-6.7,6.7c-0.1,4.5,0,9,0,13.5h0c0,5-0.1,10,0,15
		c0.1,3.2,1.4,4.8,4.1,4.8c6.8,0.1,13.6,0.2,20.3-0.2c4.9-0.3,5.8-1.4,5.8-6.4C204.9,256.9,204.7,248,204.6,239z M196.1,260.8
		c0,1.9-1.4,2.9-3.2,3c-2.5,0.2-5.1,0.2-7.6,0.1c-2-0.1-2.7-1.5-2.7-3.3c0-2.6,0-5.3,0-7.9h-0.2c0-2.6-0.1-5.1,0-7.6
		c0.1-3.6,1.3-4.7,4.8-4.6c1.9,0,3.7,0,5.6,0c2.2,0,3.5,1.1,3.5,3.2C196.4,249.4,196.3,255.1,196.1,260.8z"/>
	<path d="M323.1,306.1c0-5,0.2-10-0.1-15c-0.3-5.4-1.9-6.7-7.3-6.8c-5.2,0-10.4,0-15.5,0.1c-4.5,0.1-6.4,1.9-6.5,6.3
		c-0.1,8.2,0,16.5,0.1,24.7c0,1.6,0.3,3.2,0.7,4.8c0.9,3.5,2.9,5.2,6.5,5.2c5.4,0.1,10.9,0.1,16.3,0.1c4.3,0,6.2-1.8,6.2-6.2
		c0-4.4,0-8.8,0-13.2H323.1z M306.8,316.9c-3-0.1-4.9-1.9-4.9-4.8c0-5.2,0-10.3,0-15.5c0-0.3,0-0.7,0.1-1c0.6-2.9,3.8-4.1,9.6-3.5
		c2.1,0.2,3.5,1.8,3.6,4.3c0.1,2.3,0,4.6,0,6.9H315c0.1,2.8,0.3,5.6,0.5,8.4c0,0.3,0.1,0.5,0,0.8
		C315.3,315.5,312.3,317.1,306.8,316.9z"/>
	<path d="M284.5,294.8c0-1.3-0.1-2.5-0.3-3.8c-0.8-4.6-2.8-6.5-7.5-6.6c-5.3-0.1-10.7,0-16,0c-4.3,0-6,1.5-6.1,5.9
		c-0.1,4.8,0,9.5,0,14.3h0c0,4.7-0.1,9.3,0,14c0,1.5,0.3,3.1,1,4.4c0.6,1,2,2.2,3.1,2.2c6.1,0.2,12.2,0.1,18.3,0.1
		c3.6,0,5.6-2.2,6.6-5.3c0.6-1.8,0.9-3.6,0.9-5.5C284.5,307.8,284.5,301.3,284.5,294.8z M275.9,300.1c0,1,0,1.9,0,2.9
		c0,0.5,0,1,0,1.4c0,2.5,0,4.9,0,7.4c0,3.9-2.3,5.9-6.2,5.4c-6.9-0.8-7.2-1.2-7-8.2c0.1-4,0.1-8,0-11.9c0-3.7,1.2-5,4.9-5.3
		C275.5,291.4,276.2,292.1,275.9,300.1z"/>
	<path d="M244.3,239.5c-0.1-4.9-2.9-7.4-7.8-7.4c-4.9,0-9.8,0-14.8-0.2c-5.4-0.2-6.9,1.1-7,6.5c-0.1,4.8,0,9.7,0,14.5h-0.1
		c0,4.9,0,9.9,0,14.8c0,2.5,1,4.4,3.5,4.5c7.3,0.2,14.6,0.3,21.8-0.1c3.5-0.2,4.6-1.8,4.6-5.5C244.6,257.6,244.5,248.5,244.3,239.5z
		 M236.2,260.3c0,2.1-0.9,3.5-3,3.7c-2.5,0.3-5.1,0.4-7.6,0.2c-2.1-0.1-2.8-1.7-2.8-3.6c0-2.6,0-5.3,0-7.9c0,0,0,0,0,0
		c0-2.5-0.1-5.1,0-7.6c0.1-3.6,1.2-4.7,4.8-4.6c1.5,0,3.1-0.1,4.6,0.1c3.1,0.4,4.4,2.1,4.4,5.2C236.4,250.6,236.2,255.4,236.2,260.3
		z"/>
	<path d="M284.1,240c0-5.8-1.9-7.6-7.6-7.6c-5.1,0-10.2,0.3-15.2,0c-5.1-0.3-6.8,0.9-6.9,6.1c-0.1,7.2,0,14.4-0.1,21.6
		c0,2.5-0.1,4.9,0,7.3c0.3,3.5,1.9,5,5.4,5.1c5.6,0.1,11.2,0,16.8,0c5.3,0,7.3-1.8,7.4-7.1c0.1-4.4,0-8.8,0-13.2h0.1
		C284.1,248.2,284.1,244.1,284.1,240z M275.3,259.6c-0.1,3.5-1.3,4.7-4.9,4.8c-1.5,0-3.1,0.1-4.6-0.1c-2.5-0.2-3.6-1.6-3.5-4
		c0-1,0.2-2,0.2-3c0-1,0-2,0-3.1c0.1,0,0.1,0,0.2,0c-0.1-2.7-0.3-5.4-0.4-8.1c-0.1-4.4,1.5-6.8,5.7-5.8c0.7,0.2,1.5-0.1,2.3-0.1
		c3.9-0.2,5.5,1.3,5.4,5.2C275.6,250.1,275.4,254.8,275.3,259.6z"/>
	<path d="M323.4,254.5c0-5.3,0.2-10.7-0.1-16c-0.1-3.2-1.9-4.8-5.1-4.9c-6.6-0.2-13.2-0.3-19.8-0.2c-3.2,0-5,2.2-5,5.2
		c0,8.1,0.1,16.3,0.2,24.4c0,1.7,0.3,3.4,0.6,5c0.4,2.3,2,4,4.3,4.1c7.1,0.2,14.2,0.4,21.3,0.1c3.1-0.1,4-1.7,4-4.8
		c0-4.3,0-8.7,0-13H323.4z M315.2,261.2c-0.1,2-1.5,2.7-3.3,2.8c-2,0.1-4.1,0.1-6.1,0c-2.4-0.1-3.4-1.3-3.5-3.8c0-2.5,0-4.9,0-7.4
		h-0.1c0-2.5,0-4.9,0-7.4c0-3.3,1.4-4.6,4.7-4.5c1.4,0,2.9,0,4.3,0c2.9,0,4.4,1.2,4.3,4.1C315.6,250.3,315.4,255.8,315.2,261.2z"/>
	<path d="M245,305.4c-0.2-5-0.3-10-0.8-15c-0.3-3.4-2.9-6.3-6.2-6.4c-6-0.2-12,0-18,0.5c-3.8,0.4-4.8,2-4.8,5.9
		c0,9.1-0.1,18.2,0,27.3c0,6.2,2.2,8,8.3,7.7c4.3-0.2,8.6-0.3,13-0.1c4.9,0.2,7.7-1.7,8-6.6c0.3-4.4,0.1-8.8,0.1-13.2
		C244.7,305.4,244.8,305.4,245,305.4z M233.2,316.5c-2.5,0.4-5.1,0.4-7.5,0c-2.3-0.4-2.8-2.5-2.7-4.6c0-5.1,0.1-10.2,0.1-15.2
		c0-3.3,1.3-4.9,4.6-5.1c0.9-0.1,1.9-0.1,2.8-0.1c4.8,0.3,6.3,2,6.1,6.7c-0.1,2.1-0.2,4.2-0.3,6.3c0.1,2.5,0.2,4.9,0.4,7.2
		C236.9,314.3,235.7,316.1,233.2,316.5z"/>
	<path d="M204.4,187.6c0-0.8-0.1-1.7-0.3-2.5c-0.8-3.3-2.5-4.7-6-4.7c-5.8,0-11.5,0-17.3,0.2c-5,0.1-6.3,1.5-6.4,6.5
		c-0.1,4.6,0,9.2,0,13.7c0,0,0.1,0,0.1,0c0,5.1-0.1,10.2,0.1,15.3c0.1,2.8,1.5,4.4,4,4.4c7.4,0,14.8-0.2,22.1-0.4
		c2.1-0.1,3.4-1.4,3.8-3.5c0.3-1.6,0.5-3.2,0.4-4.8C204.8,203.7,204.6,195.6,204.4,187.6z M196.3,209.3c0,1.9-1.2,3-3.1,3
		c-2.6,0.1-5.3,0.2-7.9,0.1c-2-0.1-3.1-1.4-3.1-3.3c0-3,0-6,0-8.9H182c0-2.7,0-5.4,0-8.1c0-2.4,1.3-3.6,3.6-3.6
		c2.5,0,4.9,0.1,7.4,0.1c2.1,0,3.2,1.1,3.2,3.2C196.3,197.6,196.3,203.5,196.3,209.3z"/>
	<path d="M284.5,199.6c-0.1-2.9-0.2-7.3-0.5-11.6c-0.4-5.5-2.8-7.7-8.2-7.8c-5.2,0-10.3,0-15.5,0.1c-3.6,0-4.7,0.9-5.5,4.4
		c-0.3,1.3-0.4,2.7-0.4,4c-0.1,6.4-0.3,12.7-0.2,19.1c0,3,0.5,6.1,1,9.1c0.4,2.3,2.1,3.6,4.6,3.6c5.6,0,11.2,0.2,16.8,0.1
		c5.7-0.1,8-2.5,8.1-8.2C284.6,208.6,284.5,204.8,284.5,199.6z M276.3,196.1c0,1.4-0.2,2.9-0.3,4.3h-0.1c0,2.6,0.1,5.3,0,7.9
		c-0.1,3-1.4,4.2-4.4,4.6c-0.8,0.1-1.7,0-2.5,0c-7.2,0.5-6.5-2-6.6-6.9c-0.1-4.1-0.1-8.3-0.2-12.4c-0.1-4.7,1.2-5.9,5.8-5.8
		c1.6,0.1,3.2,0,4.8,0.2c2.1,0.3,3.3,1.6,3.4,3.8C276.3,193.2,276.3,194.6,276.3,196.1z"/>
</g>
</svg>
