<svg width="301" height="318" viewBox="0 0 301 318" fill="none" xmlns="http://www.w3.org/2000/svg">
<path d="M300.671 170.428C300.118 175.007 299.25 182.587 298.46 190.166C298.223 192.456 298.223 194.745 297.75 196.956C297.197 199.798 296.408 202.641 295.618 205.404C294.592 209.115 293.565 212.826 292.302 216.458C291.039 220.011 289.46 223.406 287.96 226.879C285.591 232.327 283.38 237.933 280.617 243.223C278.564 247.171 275.959 250.96 273.274 254.513C269.563 259.408 265.774 264.225 261.668 268.804C257.72 273.146 253.378 277.252 249.035 281.2C245.877 284.121 242.561 287.042 239.008 289.569C234.666 292.648 230.008 295.332 225.507 298.096C223.376 299.438 221.323 301.096 218.954 302.043C211.138 305.122 203.479 308.438 195.426 311.044C180.109 316.018 164.397 318.15 148.449 317.992C139.053 317.913 129.658 316.255 120.42 314.676C114.42 313.649 108.577 311.518 102.813 309.544C96.4972 307.333 90.1809 305.122 84.1804 302.122C77.3904 298.727 70.7583 294.78 64.521 290.437C53.5465 282.779 43.8352 273.541 35.3871 263.119C30.492 257.119 26.0706 250.723 21.965 244.17C19.1227 239.591 17.1489 234.38 14.7803 229.485C13.9907 227.985 12.9643 226.564 12.4117 224.906C9.56933 216.379 6.01642 207.931 4.27944 199.088C2.14769 188.429 0.568624 177.612 0.0949024 166.638C-0.378819 154.953 0.96339 143.583 3.17409 132.214C4.12153 127.161 5.30583 122.187 6.727 117.292C8.06921 112.792 9.49037 108.291 11.4642 104.028C14.3855 97.7904 17.7805 91.711 21.0176 85.7105C26.3864 75.7624 33.0975 66.8406 40.9928 58.8663C47.0723 52.7869 53.5465 46.9443 60.9681 42.444C63.4946 40.8649 66.0211 39.2858 68.3897 37.4699C72.969 33.917 78.4168 31.7852 83.4698 29.1008C85.4437 28.0744 87.5754 27.4428 89.6282 26.6533C91.1283 26.1006 92.6285 25.39 92.7864 23.5741C92.9443 21.6792 91.3652 20.8107 90.023 20.1791C85.7595 18.2842 81.4171 16.3893 76.9957 14.6523C73.2059 13.1522 71.311 8.88872 72.969 4.94104C74.706 0.835459 79.1274 -1.05943 82.9172 0.598598C86.7859 2.33558 90.8125 3.75674 94.7602 5.33581C101.471 8.02023 108.261 10.7046 114.972 13.468C115.999 13.8628 116.946 14.1786 117.973 14.5734C123.262 16.5472 124.842 20.1001 122.71 25.2321C121.525 28.1534 119.788 30.7589 118.525 33.6801C117.499 35.9698 117.104 38.4963 115.999 40.707C113.235 46.6285 110.156 52.3921 107.235 58.3136C106.761 59.34 106.445 60.4454 105.972 61.4718C104.866 64.0773 103.208 66.13 100.208 66.6038C97.1288 66.9985 94.9181 65.4984 95.076 62.4192C95.155 59.2611 95.4708 55.945 96.4972 52.9448C98.2342 47.6549 100.682 42.6808 102.735 37.4699C103.129 36.5225 103.05 35.3382 103.129 34.3118C102.024 34.3907 100.761 34.1539 99.8132 34.5486C93.9707 37.312 88.2071 39.9964 82.6014 43.0756C78.4168 45.3653 74.6271 48.2865 70.6794 51.0499C67.6002 53.1817 64.521 55.4713 61.5208 57.761C53.6254 63.7614 46.6775 70.7883 40.9139 78.7626C36.3346 84.9999 32.229 91.632 27.9655 98.1062C27.2549 99.2116 26.7812 100.554 26.3075 101.817C22.9914 109.791 19.3596 117.608 16.4383 125.661C15.0171 129.688 14.6224 134.188 14.0697 138.452C13.1222 145.794 11.859 153.137 11.6221 160.558C11.3853 167.191 12.0958 173.981 12.8854 180.613C13.6749 187.561 14.5434 194.587 16.3593 201.299C18.3332 208.562 20.1491 215.905 24.0968 222.537C24.9653 224.037 25.2811 225.932 26.1496 227.511C29.1498 232.643 32.15 237.854 35.3082 242.907C41.3087 252.303 48.4145 260.908 56.4677 268.646C62.863 274.804 69.8898 280.173 77.4694 284.752C83.3909 288.305 89.2335 292.332 96.0235 294.148C96.8919 294.385 97.6025 295.174 98.471 295.49C101.629 296.753 104.708 298.253 108.024 299.201C114.341 301.096 120.736 303.149 127.21 304.333C136.606 306.07 146.159 306.938 155.791 306.386C165.976 305.833 176.319 305.359 186.031 302.28C192.742 300.069 199.926 299.043 206.164 295.174C210.98 292.174 216.507 290.2 221.481 287.279C225.744 284.752 229.613 281.515 233.718 278.673C240.587 274.015 246.193 268.014 251.878 262.093C258.905 254.829 264.668 246.618 269.958 238.012C272.09 234.459 274.222 230.906 275.801 227.116C278.169 221.432 280.222 215.51 282.117 209.668C283.696 204.772 285.196 199.877 286.223 194.824C287.328 189.613 288.196 184.324 288.591 178.955C289.697 163.559 288.986 148.242 285.67 133.162C284.328 127.161 282.591 121.24 280.301 115.555C277.853 109.476 274.458 103.712 271.537 97.7904C265.695 86.2632 257.247 76.6309 248.483 67.3933C243.193 61.8666 236.719 57.5241 230.639 52.7869C227.56 50.4183 224.165 48.3655 220.849 46.3127C218.401 44.8126 215.796 43.7072 213.269 42.365C212.243 41.8913 211.296 41.3386 210.269 40.8649C205.532 38.8121 200.874 36.4435 195.979 34.7065C190.373 32.7327 184.53 31.1536 178.767 29.6535C173.477 28.3113 168.187 27.2849 162.897 26.3375C160.923 25.9427 158.792 26.4164 156.739 26.2585C154.923 26.1006 153.028 26.0216 151.37 25.3111C148.133 23.9688 147.422 19.8633 150.186 17.6526C151.686 16.4683 153.896 15.5208 155.791 15.4419C165.029 15.126 174.187 16.0735 183.03 19.0737C187.057 20.4159 191.32 21.0476 195.505 22.1529C197.4 22.6266 199.295 23.3372 201.111 24.0478C204.664 25.39 208.295 26.4954 211.611 28.2323C217.296 31.0747 222.902 34.1539 228.429 37.391C232.692 39.8385 236.798 42.5229 240.824 45.3653C249.509 51.4447 257.247 58.6295 263.958 66.8406C267.432 71.1041 270.985 75.2887 274.064 79.868C277.064 84.2894 279.669 88.9476 282.117 93.6848C284.88 98.9747 287.565 104.265 289.854 109.791C291.67 114.055 292.618 118.634 294.197 122.977C299.645 137.188 299.803 152.347 300.671 170.428Z" fill="black"/>
<path d="M230.087 227.116C230.166 229.959 228.034 232.327 224.718 232.801C221.718 233.196 218.717 233.275 215.796 233.275C207.901 233.196 199.926 232.959 192.031 232.88C174.582 232.722 157.212 232.643 139.764 232.485C138.895 232.485 138.027 232.406 137.237 232.248C135.027 231.617 133.29 229.485 133.29 227.432C133.29 225.3 135.579 222.458 137.948 221.905C139.211 221.59 140.474 221.432 141.738 221.432C150.107 221.432 158.476 221.432 166.845 221.432V221.353C171.266 221.353 175.688 221.353 180.109 221.353C192.821 221.195 205.532 221.037 218.244 220.958C220.375 220.958 222.507 221.116 224.639 221.353C228.113 221.826 230.008 223.958 230.087 227.116Z" fill="black"/>
<path d="M229.06 124.635C228.902 126.845 227.244 128.582 224.639 128.74C220.77 129.056 216.98 129.135 213.111 129.214C191.715 129.372 170.24 129.53 148.843 129.53C146.08 129.53 143.317 129.372 140.632 128.977C138.5 128.582 136.684 127.398 136.448 124.95C136.211 122.345 137.632 120.292 139.922 119.266C141.58 118.555 143.474 118.081 145.29 118.081C157.765 118.002 170.319 118.002 182.793 118.002C195.268 118.002 207.664 118.002 220.059 118.002C221.796 118.002 223.612 118.397 225.349 118.871C227.56 119.582 229.218 122.266 229.06 124.635Z" fill="black"/>
<path d="M229.929 175.639C229.771 178.007 227.876 179.823 225.034 180.139C222.586 180.376 220.217 180.613 217.77 180.613C193.531 180.692 169.213 180.692 144.975 180.692C143.001 180.692 141.027 180.376 139.053 179.902C136.763 179.349 135.263 177.139 135.421 174.928C135.5 172.638 137.079 170.743 139.527 170.349C141.974 169.954 144.501 169.559 146.948 169.559C159.186 169.48 171.503 169.559 183.741 169.559V169.48C195.584 169.48 207.427 169.48 219.27 169.48C221.323 169.48 223.454 169.559 225.428 169.875C228.271 170.428 230.087 172.954 229.929 175.639Z" fill="black"/>
<path d="M117.104 214.01C114.735 217.405 112.13 220.563 109.445 223.8C105.498 228.538 101.55 233.117 97.4445 237.775C95.4706 240.065 93.3389 242.276 89.707 242.433C88.2859 241.802 86.5489 241.407 85.4435 240.381C82.2064 237.301 79.0483 234.064 76.127 230.669C74.2321 228.538 72.4951 226.248 71.074 223.879C69.6528 221.59 69.8107 218.905 70.7582 216.379C72.2583 212.431 76.9165 211.326 79.9957 214.247C81.6538 215.826 82.996 217.642 84.654 219.3C85.8383 220.484 87.0226 221.59 88.3648 222.537C90.3386 224.037 92.6283 223.958 94.3653 222.142C96.9707 219.379 99.3394 216.458 101.866 213.694C103.998 211.405 106.208 209.194 108.419 206.904C108.656 206.667 108.972 206.431 109.287 206.273C111.577 204.694 114.656 204.536 116.078 205.799C118.367 208.089 118.999 211.405 117.104 214.01Z" fill="black"/>
<path d="M121.131 110.028C120.973 110.581 120.341 111.055 119.788 111.449C113.314 115.95 110.077 123.135 105.182 128.898C102.024 132.688 98.7868 136.399 95.3918 139.952C93.1811 142.32 90.4177 142.636 87.5754 140.82C82.2066 137.425 77.3114 133.556 73.5217 128.503C72.1795 126.687 71.6268 124.161 70.7583 122.108C71.3899 120.055 71.6268 118.239 72.4953 116.897C74.627 113.66 79.6011 113.818 82.2855 117.055C84.2594 119.345 86.0753 121.713 88.0491 123.924C90.4177 126.451 92.4705 126.53 94.7602 123.924C98.471 119.74 101.866 115.397 105.419 111.134C107.472 108.686 109.682 106.317 111.735 103.87C114.893 100.317 120.341 102.922 121.525 106.633C122.078 107.581 121.525 108.923 121.131 110.028Z" fill="black"/>
<path d="M119.473 161.98C119.552 166.796 116.788 168.691 114.657 170.901C112.604 173.033 110.235 174.928 108.182 177.139C104.866 180.613 101.787 184.245 98.5501 187.719C97.2868 189.14 95.7867 190.403 94.5234 191.824C91.9969 194.509 89.1546 194.509 86.1543 191.824C81.654 187.876 77.5484 183.455 73.5218 179.113C70.0478 175.323 72.0217 168.454 76.9957 166.085C79.5223 164.901 81.4961 165.691 83.2331 168.454C84.3384 170.27 85.5227 172.086 87.0228 173.586C89.9441 176.744 92.4706 176.744 95.3919 173.586C99.8133 168.849 104.077 163.954 108.498 159.216C109.288 158.427 110.235 157.637 111.262 157.321C115.604 155.663 119.473 158.427 119.473 161.98Z" fill="black"/>
</svg>
