<?xml version="1.0" encoding="utf-8"?>
<!-- Generator: Adobe Illustrator 24.0.1, SVG Export Plug-In . SVG Version: 6.00 Build 0)  -->
<svg version="1.1" id="Layer_1" xmlns="http://www.w3.org/2000/svg" xmlns:xlink="http://www.w3.org/1999/xlink" x="0px" y="0px"
	 viewBox="0 0 500 500" style="enable-background:new 0 0 500 500;" xml:space="preserve">
<g>
	<path d="M365.5,95.7c-8,1.7-16,3.8-24,5.5c-7.5,1.6-15,3-22.5,4.6c-1.3,0.3-2.7,0.6-3.9,1.2c-4.7,2.2-5.7,6.7-2,10.3
		c2.5,2.5,5.4,4.8,8.2,6.9c2.9,2.1,3.3,3.9,0.8,6.4c-9,9.2-17.9,18.5-26.9,27.7c-9.4,9.6-18.8,19.1-28.2,28.7
		c-7.7,7.8-15.3,15.6-23,23.5c-2.3,2.4-4.6,2.7-6.7,0.8c-8.9-7.9-17.8-15.8-26.7-23.6c-3.8-3.3-7.5-6.7-11.4-9.9
		c-3.1-2.6-6.5-2.5-9.4,0.4c-1.7,1.7-3.4,3.3-5.1,5c-9.9,9.9-19.7,19.8-29.7,29.6c-7.8,7.7-15.7,15.2-23.6,22.8
		c-8.3,8-16.6,16-24.8,24c-4.8,4.7-9.5,9.4-14.2,14.2c-2.4,2.5-2.5,4.7-0.9,7.6c0.8,1.4,1.5,2.8,2.3,4.2c2.7,5.3,6.6,9.3,12.1,11.8
		c2.6,1.2,5,1,7.2-0.8c2.7-2.2,5.6-4.3,8.1-6.8c11.9-11.6,23.6-23.4,35.4-35c12.1-12,24.3-23.9,36.4-35.8c1.8-1.7,3.1-1.7,5,0
		c1.7,1.5,3.4,3.1,5.2,4.7c10.8,9.5,21.6,19,32.3,28.6c3.4,3,7,3.3,10.5,0.2c3.5-3.2,7.1-6.5,10.5-9.9
		c21.1-21.2,42.3-42.5,63.3-63.8c8.6-8.7,17-17.6,25.5-26.4c2.6-2.7,4.1-2.6,6.8-0.1c3.5,3.2,7,6.4,10.8,9c3.6,2.5,7.2,0.7,8.1-3.6
		c0.5-2.4,0.9-4.9,1.1-7.3c0.7-10.3,1.2-20.6,1.9-30.9c0.4-5.2,1-10.3,1.3-14.2C375.2,96.3,372.8,94.2,365.5,95.7z M367.5,121.1
		c-0.6,9.4-0.9,18.8-1.3,28.2c-0.1,1.7,0.1,3.5-1.9,4.3c-2.1,0.7-3.3-0.7-4.5-2c-2.4-2.7-4.8-5.3-7.3-7.9c-2.2-2.3-4-2.4-6.6,0.1
		c-4.4,4.2-8.6,8.6-12.9,12.9c-10.3,10.3-20.6,20.6-30.8,30.9c-5.8,5.8-11.6,11.7-17.4,17.5c-10.5,10.6-21.1,21.2-31.7,31.7
		c-2.7,2.7-5.4,5.2-8.1,7.8c-3.4,3.3-5.4,3.4-8.8,0.2c-5.4-4.9-10.7-9.8-16.1-14.7c-7.2-6.4-14.5-12.8-21.7-19.2
		c-2.3-2-4-1.9-6.5,0.5c-9.8,9.8-19.6,19.5-29.4,29.3c-8,8-16.1,15.9-24.2,23.9c-8.7,8.6-17.4,17.1-26.2,25.7
		c-2.6,2.6-5,2.4-7.3-0.4c-2-2.4-3.9-4.8-5.9-7.2c-2.4-3-2.4-4.8,0.3-7.5c18.8-18.3,37.5-36.6,56.3-54.9
		c10.8-10.6,21.5-21.3,32.2-31.9c1.4-1.4,2.9-2.7,4.3-4.1c2.1-2,3.6-2.1,5.8-0.1c6.1,5.4,12.2,10.9,18.2,16.3
		c7.1,6.3,14.2,12.6,21.3,19c2.1,1.9,3.9,1.8,6.3-0.5c3.1-2.8,6.1-5.6,9-8.6c13-13.3,26-26.6,39-39.9c10.3-10.6,20.7-21.2,30.9-31.8
		c2.8-2.9,5.5-6,8.1-9.2c2.2-2.6,1.4-5.2-1.6-7.2c-2.8-1.9-5.5-4-8.1-6.3c-0.7-0.6-1.3-2-1.1-2.8c0.1-0.6,1.6-1.1,2.5-1.3
		c11.5-2.5,22.9-4.9,34.4-7.4c2.2-0.5,4.3-1.3,6.4-1.9c4.1-1,5.7,0.3,5.6,5.4C368.5,111.6,367.8,116.4,367.5,121.1z"/>
	<path d="M384.3,198.7c0-5.1-1-6-6-6c-14.1,0-28.3,0-42.4,0c-4.9,0-5.8,0.7-5.8,5.6c0,0.6,0,1.1,0,1.7v88.2h-0.2v91.5
		c0,4.3,1.7,5.8,6,5.8c14.7,0.1,29.4,0.2,44.1,0.3c2.2,0,3.6-1,3.9-3.3c0.2-1.7,0.4-3.3,0.4-5c0-35.2,0.1-70.3,0.1-105.5
		C384.3,247.6,384.3,223.1,384.3,198.7z M378.5,374.6c-0.2,3.4-1.6,4.7-5,4.7c-8.3,0-16.6-0.1-24.9-0.1c-2.5,0-5,0.1-7.4,0.3
		c-3.7,0.2-5.2-1-5.2-4.7c0-26.5,0-53.1,0.1-79.6c0-2,0.2-4,0.3-6h0c0-28.2,0-56.4,0-84.6c0-4.9,0.8-5.6,5.7-5.6
		c10.1,0.1,20.3,0.1,30.4,0c4.8,0,5.8,1,5.8,5.7c0,47.1,0,94.3,0,141.4c0,8.2,0.2,16.5,0.3,24.7
		C378.5,372.1,378.6,373.4,378.5,374.6z"/>
	<path d="M313.7,271.8c0-3,0.1-5.9,0-8.9c-0.1-3.6-1.7-5.4-4.8-5.4c-6.3,0-12.6,0-18.9-0.1c-8.4,0-16.8,0-25.2-0.2
		c-3.8,0-5.1,1-5.3,4.7c-0.1,1.4-0.1,2.7-0.1,4.1v55.1h0.1c0,19.3,0,38.5,0,57.8c0,0.9,0,1.8,0.2,2.6c0.5,2.7,1.8,3.9,4.6,3.9
		c14.9,0,29.7,0.1,44.6,0.1c3.1,0,4.3-1.1,4.7-4.2c0.1-0.9,0.1-1.8,0.1-2.6C313.8,343.1,313.8,307.4,313.7,271.8z M307.6,373.4
		c0,5.3-1.1,6.1-6.4,6c-10.3-0.2-20.6,0-30.9,0.1c-3.5,0.1-5-1.1-5-4.7V274.5c0-2.2-0.1-4.5,0-6.7c0.1-2.8,1.4-4.1,4.2-4.1
		c11.1,0,22.2,0,33.3,0c3.2,0,4.3,1.1,4.5,4.3c0.1,2.6,0,5.1,0,7.7v46.3h0.2V373.4z"/>
	<path d="M413.8,402.2c0,0.8-1.4,1.9-2.5,2.3c-1.2,0.4-2.7,0.2-4,0.2c-52.4,0-104.8,0-157.2,0v0H94.2c-1.7,0-3.3,0.1-5,0.1
		c-2,0-2.9-1.3-2.9-3.1c-0.1-1.9,0.9-3.1,2.8-3.2c1.1-0.1,2.2,0,3.3,0c98.1,0.1,196.3,0.1,294.4,0.2c7.2,0,14.4,0,21.6,0
		c1.2,0,2.6,0,3.5,0.6C412.8,399.8,413.8,401.2,413.8,402.2z"/>
	<path d="M242.7,295.5c0-3.8,0-7.5-0.2-11.2c-0.2-2.9-1.6-4.2-4.2-4.2c-3.5,0-7,0-10.5,0c-11.1,0.1-22.2,0.3-33.3,0.3
		c-5.5,0-6.9,1.4-6.8,7c0.1,8.1,0.4,16.1,0.4,24.2c-0.1,22.7-0.3,45.4-0.5,68c0,4.1,1.7,5.9,5.7,5.9h21.8v0h20.6
		c5.5,0,6.8-1.2,7-6.7c0-0.6,0-1.1,0-1.7C242.7,350,242.7,322.8,242.7,295.5z M232,379.6c-8.7-0.1-17.4-0.2-26.1-0.2
		c-2.7,0-5.4,0.4-8.1,0.4c-3.4,0-4.3-1.1-4.3-4.5c0.2-26.7,0.3-53.3,0.4-80c0-1.6-0.2-3.2-0.1-4.8c0.2-3,0.9-3.6,3.9-3.7
		c1.4-0.1,2.9,0,4.3,0c9.9-0.1,19.8-0.2,29.7-0.4c4.1-0.1,5,0.8,5.1,4.9v39.3h-0.1c0,11,0,22,0,33.1c0,3.8,0.3,7.5,0.3,11.2
		C236.9,378.2,235.4,379.6,232,379.6z"/>
	<path d="M171.7,317.8c0-3-1.7-5-4.3-5c-9.3,0.1-18.5,0.2-27.8,0.3c-5.8,0-11.5-0.1-17.3-0.1c-3.9,0-6.1,2.2-6.1,6v1.2
		c0.1,19.9,0.1,39.8,0.2,59.7c0,3.8,1.8,5.6,5.6,5.6h22.3v-0.1c7,0,13.9,0,20.9,0c5.2,0,6.4-1.1,6.6-6.4c0-1,0-2.1,0-3.1
		C171.8,356.6,171.7,337.2,171.7,317.8z M165.6,374.3c0,4.4-1.5,5.3-5.9,5.3c-10.2-0.2-20.5-0.2-30.7,0c-5.1,0.1-6.4-0.8-6.4-5.8
		c0-15.6,0-31.1,0-46.7c0-1-0.1-2.1,0-3.1c0.1-3.6,1.2-4.7,4.8-4.8c5.1-0.1,10.2,0,15.3,0V319c6.1,0,12.1,0,18.2,0
		c3.2,0,4.7,1.6,4.7,5.2c0,4.8,0,9.6,0,14.4C165.5,350.5,165.6,362.4,165.6,374.3z"/>
</g>
</svg>
