<svg width="254" height="319" viewBox="0 0 254 319" fill="none" xmlns="http://www.w3.org/2000/svg">
<path d="M253.7 144.6C253.6 111.3 253.3 78 253.3 44.6C253.3 36.7 251.1 36 244.3 35.4C244.2 35.4 244.1 35.4 244.1 35.4C237.2 35.1 230.3 35.1 223.5 34.5C210.5 33.4 197.7 31.3 185.1 27.3C175.9 24.3 167 20.6 158.1 16.9C156.5 16.2 155 15.4 153.4 14.5C147.6 11.3 141.8 8.2 136 4.9C134.1 3.9 132.4 2.6 130.6 1.4C127.8 -0.500001 125 -0.399999 122.2 1.3C117.8 4 113.4 6.8 109 9.4C105.3 11.6 101.6 13.6 97.8 15.5C91.8 18.5 86 22 79.7 24.2C71.2 27.1 62.4 29.3 53.6 31C41.8 33.3 29.8 34.8 17.6 34.5C13.7 34.4 9.80001 34.9 6.00001 35.3C1.70001 35.8 0 38 0 42.4V108C0 117.9 0 127.9 0 137.8C0 147.7 0 157.7 0 167.6C0 175 0.600005 182.2 2.7 189.3C4.1 193.9 4.5 198.8 6.2 203.3C9.2 210.9 12.8 218.3 16.2 225.8C17 227.6 17.8 229.5 18.9 231.1C21.7 235.4 24.6 239.7 27.6 244C33 251.8 38.9 259.2 46 265.6C54.6 273.3 63.5 280.8 72.6 287.9C77.9 292.1 83.7 295.6 89.4 299.3C93.2 301.8 97 304.3 101 306.5C107.6 310.1 114.2 313.4 120.9 316.8C124.9 318.9 129.1 319 133.2 317.1C135.5 316 137.8 314.6 140.1 313.5C145.2 311 150.5 308.8 155.6 306.1C160.1 303.7 164.5 301.1 168.7 298.2C176.3 293.1 184 288.2 191.2 282.5C197.5 277.5 203 271.4 209.2 266.2C217.8 259.1 223.8 250 229.9 241C233.9 235.1 237.2 228.7 240.8 222.5C241.4 221.4 242.1 220.4 242.5 219.2C244.7 211.9 248.8 205.3 249.7 197.6C249.9 195.6 250.8 193.6 251.2 191.6C252.1 185.9 253.5 180.2 253.7 174.4C254 164.8 253.7 154.7 253.7 144.6ZM235.6 200.1C233.6 206.5 230.7 212.7 227.7 218.8C220.6 233.4 210.7 245.9 199.6 257.5C195.9 261.4 191.6 264.8 187.3 268.2C180.7 273.4 174.1 278.6 167.3 283.4C162.5 286.8 157.3 289.9 152.2 292.9C145.9 296.6 139.4 300 133.1 303.7C129.5 305.8 125.9 306.2 122.3 304C116.1 300.4 110 296.8 103.8 293.1C99.9 290.8 96 288.6 92.3 286C85 280.9 77.8 275.9 70.8 270.5C59.3 261.6 49.5 250.8 40.4 239.5C37.5 236 35.2 232 32.8 228.2C29.9 223.7 27.1 219.2 24.4 214.6C23.7 213.5 23.3 212.3 22.8 211.1C21.1 206.7 19 202.4 17.8 197.9C16 191.5 14 184.9 13.3 178.3C10.8 156.3 13.3 134.2 12.3 115.3C12.3 93.1 12.4 74.1 12.2 55.2C12.1 49 15.1 47.8 19.8 47.5C29.5 46.8 39.2 46.4 48.8 45.1C58.4 43.8 68.1 42.2 77.3 38.5C81.5 36.8 86.1 35.9 90.3 34.1C99.3 30.2 108.3 26.3 116.4 20.5C118.8 18.8 121.4 17.4 124 15.8C126.3 14.4 128.5 14.7 130.7 16C135.2 18.7 139.6 21.6 144.2 24.2C146.4 25.5 149.1 26 151.3 27.4C155.2 29.8 159.5 31.1 163.7 32.7C170.4 35.2 176.9 38.2 183.6 40.6C187.3 41.9 191.3 42.4 195.2 43.2C202.4 44.6 209.5 46.2 216.8 47.2C221.5 47.8 226.4 47.5 231.2 47.6C233.1 47.7 235 47.8 236.9 48.1C239.5 48.6 240.7 49.9 240.8 52.7C240.9 55 240.8 57.3 240.8 59.6C240.8 78.4 240.8 97.2 240.9 116C240.9 130.2 241.1 144.4 241.2 158.6C241.4 172.6 239.8 186.6 235.6 200.1Z" fill="black"/>
<path d="M198.5 126.3C185.6 125.6 172.7 124.7 159.9 124.6C153.8 124.5 150.4 121.2 148.2 116.7C144.1 108.7 140.8 100.3 137 92.1999C134.8 87.4999 132.4 82.8999 129.9 78.3999C128.6 75.9999 126.1 75.3999 124.1 76.9999C122.7 78.0999 121.3 79.4999 120.5 81.0999C118.3 85.2999 116.4 89.5999 114.5 93.8999C113.3 96.7999 112.4 99.7999 111.2 102.7C109.4 107.2 107.4 111.7 105.6 116.2C103.7 121.2 100.4 123.6 95.0001 123.6C93.6001 123.6 92.1001 123.6 90.7001 123.6C90.7001 123.6 90.7001 123.5 90.7001 123.4C81.2001 124 71.8001 124.5 62.4001 125.1C59.7001 125.3 57.1001 125.7 54.5001 126.3C50.2001 127.3 49.0001 130.5 51.4001 134.1C52.2001 135.3 53.3001 136.4 54.5001 137.4C58.7001 141 63.0001 144.5 67.2001 148.2C72.4001 152.7 77.6001 157.2 82.7001 161.8C84.5001 163.5 86.5001 165.3 87.6001 167.4C88.5001 169 88.9001 171.5 88.3001 173C85.4001 179.4 84.3001 186.1 82.7001 192.8C81.2001 199.1 79.2001 205.3 77.7001 211.6C77.3001 213 77.4001 214.7 77.7001 216.1C78.3001 218.8 80.1001 220.3 82.8001 219.9C86.5001 219.3 90.0001 218.1 93.1001 215.8C97.4001 212.7 101.9 209.8 106.5 207C111.6 203.8 117.1 201 122.1 197.6C125.6 195.2 129.2 194.8 132.6 197.3C134.8 198.9 137 200.3 139.3 201.7C142.7 203.7 146.2 205.5 149.5 207.8C153.4 210.5 157.1 213.7 161 216.4C163.5 218.2 166.3 219.8 169 221.2C172 222.7 174.7 221.4 176 218.2C177.1 215.5 176.5 212.8 175.8 210.1C174.6 205.4 173.2 200.8 172.7 196C171.8 188.1 170.6 180.3 167.5 172.9C165.8 168.7 166.9 164.7 170.4 161.9C171.9 160.7 173.4 159.6 174.9 158.4C180.9 153.8 187.1 149.3 193 144.5C196.3 141.8 199.6 139 202.3 135.7C206 131.3 204.1 126.6 198.5 126.3ZM174.4 143.5C171 145.8 167.3 147.7 163.9 150.1C160.2 152.8 156.5 155.6 153.3 158.8C150.3 161.7 150.2 165.6 151.7 169.5C153.2 173.3 154.9 177 156.1 180.8C157.2 184.3 157.7 187.9 158.3 191.5C158.6 193.3 157.9 195.2 156.1 195.6C154.7 195.9 152.9 195.4 151.7 194.5C145 189.7 138.5 184.6 131.9 179.7C128.8 177.4 125.1 177.8 121.9 180C115.9 184.3 109.7 188.3 103.5 192.4C102.8 192.9 102 193.2 101.2 193.4C98.8001 194.1 96.9001 192.8 97.2001 190.3C97.5001 187.6 98.3001 184.9 99.0001 182.3C100.3 177.4 101.9 172.6 103.1 167.8C104.3 162.7 102.3 158.6 98.1001 155.7C92.5001 151.9 86.9001 148.2 81.2001 144.4C79.6001 143.3 77.9001 142.1 78.6001 139.8C79.3001 137.7 81.2001 137.2 83.2001 137.2H96.9001V136.8C99.2001 136.8 101.5 136.9 103.8 136.8C110.3 136.5 114.4 133.4 116.6 127.2C118.8 120.9 121 114.6 123.5 108.3C124.1 106.9 125.6 105.9 126.7 104.8C127.8 106 129.4 106.9 130 108.3C132.2 113.3 133.8 118.4 136 123.3C137.6 126.8 139.8 130.1 142.1 133.2C144.5 136.5 148.3 137.6 152.2 137.6C158.1 137.7 164 137.6 169.9 137.6C171.2 137.6 172.6 137.7 173.7 138.2C174.6 138.6 175.9 139.6 175.9 140.4C176 141.5 175.2 143 174.4 143.5Z" fill="black"/>
</svg>
